G04 #@! TF.FileFunction,Soldermask,Bot*
%FSLAX46Y46*%
G04 Gerber Fmt 4.6, Leading zero omitted, Abs format (unit mm)*
G04 Created by KiCad (PCBNEW 4.0.5) date Thu Feb 16 16:16:10 2017*
%MOMM*%
%LPD*%
G01*
G04 APERTURE LIST*
%ADD10C,0.100000*%
%ADD11R,2.150000X2.150000*%
%ADD12C,2.150000*%
%ADD13O,2.099260X3.900120*%
%ADD14R,10.400000X16.150000*%
%ADD15C,1.924000*%
%ADD16R,1.900000X1.700000*%
%ADD17R,1.598880X1.598880*%
%ADD18C,3.400000*%
%ADD19C,3.100000*%
%ADD20R,4.000000X2.200000*%
%ADD21O,4.000000X2.200000*%
%ADD22R,1.650000X1.900000*%
%ADD23R,1.900000X1.650000*%
%ADD24C,2.398980*%
%ADD25R,2.398980X2.398980*%
%ADD26R,2.432000X2.127200*%
%ADD27O,2.432000X2.127200*%
%ADD28R,2.200000X4.000000*%
%ADD29O,2.200000X4.000000*%
%ADD30C,4.464000*%
%ADD31R,2.127200X2.432000*%
%ADD32O,2.127200X2.432000*%
%ADD33R,1.700000X1.900000*%
%ADD34R,4.057600X2.432000*%
%ADD35R,1.416000X2.432000*%
G04 APERTURE END LIST*
D10*
D11*
X125050000Y-95175000D03*
D12*
X122550000Y-95175000D03*
X120050000Y-95175000D03*
X117550000Y-95175000D03*
D13*
X132550000Y-69636000D03*
X135090000Y-69636000D03*
X130010000Y-69636000D03*
D14*
X132550000Y-81550000D03*
D15*
X135550000Y-83136000D03*
X135550000Y-81136000D03*
X135550000Y-79136000D03*
X135550000Y-77136000D03*
X135550000Y-75136000D03*
X133550000Y-77136000D03*
X133550000Y-75136000D03*
X133550000Y-79136000D03*
X133550000Y-81136000D03*
X133550000Y-83136000D03*
X131550000Y-75136000D03*
X129550000Y-79136000D03*
X131550000Y-79136000D03*
X131550000Y-77136000D03*
X129550000Y-75136000D03*
X129550000Y-77136000D03*
X129550000Y-81136000D03*
X131550000Y-83136000D03*
X131550000Y-81136000D03*
X129550000Y-83136000D03*
X135550000Y-85136000D03*
X135550000Y-87636000D03*
X129550000Y-85136000D03*
X129550000Y-87636000D03*
D16*
X145350000Y-75600000D03*
X142650000Y-75600000D03*
D17*
X140500000Y-70299020D03*
X140500000Y-68200980D03*
X140500000Y-84050980D03*
X140500000Y-86149020D03*
D16*
X145350000Y-79000000D03*
X142650000Y-79000000D03*
D18*
X119250000Y-84750000D03*
X119250000Y-62250000D03*
D19*
X119250000Y-73500000D03*
D20*
X144000000Y-87000000D03*
D21*
X144000000Y-83500000D03*
D11*
X139775000Y-95175000D03*
D12*
X137275000Y-95175000D03*
X134775000Y-95175000D03*
X132275000Y-95175000D03*
D11*
X105200000Y-90000000D03*
D12*
X105200000Y-87500000D03*
X105200000Y-85000000D03*
X105200000Y-82500000D03*
X105200000Y-80000000D03*
D22*
X127000000Y-69750000D03*
X127000000Y-67250000D03*
D23*
X132750000Y-66000000D03*
X130250000Y-66000000D03*
D24*
X112007620Y-79910000D03*
D25*
X112007620Y-69750000D03*
D26*
X112000000Y-94620000D03*
D27*
X112000000Y-92080000D03*
X112000000Y-89540000D03*
X112000000Y-87000000D03*
X112000000Y-84460000D03*
D15*
X130790000Y-62000000D03*
X128250000Y-62000000D03*
X133330000Y-62000000D03*
D20*
X106000000Y-60000000D03*
D21*
X106000000Y-63500000D03*
D20*
X106000000Y-70000000D03*
D21*
X106000000Y-73500000D03*
D28*
X126000000Y-56000000D03*
D29*
X122500000Y-56000000D03*
X119000000Y-56000000D03*
X115500000Y-56000000D03*
D28*
X139250000Y-56000000D03*
D29*
X135750000Y-56000000D03*
D20*
X144000000Y-71000000D03*
D21*
X144000000Y-67500000D03*
D30*
X104000000Y-96000000D03*
X104000000Y-54000000D03*
X146000000Y-96000000D03*
X146000000Y-54000000D03*
X146004000Y-104140000D03*
X104004000Y-104140000D03*
X104004000Y-146140000D03*
X146004000Y-146140000D03*
D11*
X139664000Y-136920000D03*
D12*
X137164000Y-136920000D03*
X134664000Y-136920000D03*
X132164000Y-136920000D03*
D22*
X127164000Y-138370000D03*
X127164000Y-140870000D03*
D23*
X122384000Y-135650000D03*
X119884000Y-135650000D03*
D22*
X116164000Y-138370000D03*
X116164000Y-140870000D03*
D23*
X111414000Y-135670000D03*
X108914000Y-135670000D03*
D11*
X105164000Y-119920000D03*
D12*
X105164000Y-117420000D03*
X105164000Y-114920000D03*
X105164000Y-112420000D03*
X105164000Y-109920000D03*
D26*
X105164000Y-125380000D03*
D27*
X105164000Y-127920000D03*
X105164000Y-130460000D03*
D11*
X144664000Y-109920000D03*
D12*
X144664000Y-112420000D03*
X144664000Y-114920000D03*
X144664000Y-117420000D03*
X144664000Y-119920000D03*
D26*
X144664000Y-125380000D03*
D27*
X144664000Y-127920000D03*
X144664000Y-130460000D03*
D26*
X137664000Y-105380000D03*
D27*
X137664000Y-107920000D03*
X137664000Y-110460000D03*
X137664000Y-113000000D03*
X137664000Y-115540000D03*
X137664000Y-118080000D03*
D11*
X139664000Y-144920000D03*
D12*
X137164000Y-144920000D03*
X134664000Y-144920000D03*
X132164000Y-144920000D03*
D31*
X114124000Y-105420000D03*
D32*
X116664000Y-105420000D03*
X119204000Y-105420000D03*
D31*
X126624000Y-105420000D03*
D32*
X129164000Y-105420000D03*
X131704000Y-105420000D03*
D33*
X110260106Y-126277512D03*
X110260106Y-123577512D03*
X112417572Y-126277512D03*
X112417572Y-123577512D03*
X122664000Y-113670000D03*
X122664000Y-116370000D03*
X120664000Y-116370000D03*
X120664000Y-113670000D03*
D34*
X122378000Y-144983112D03*
D35*
X122378000Y-138379112D03*
X124664000Y-138379112D03*
X120092000Y-138379112D03*
D34*
X111374000Y-144991112D03*
D35*
X111374000Y-138387112D03*
X113660000Y-138387112D03*
X109088000Y-138387112D03*
D23*
X120314000Y-126920000D03*
X117814000Y-126920000D03*
X120314000Y-129420000D03*
X117814000Y-129420000D03*
D22*
X124064000Y-124670000D03*
X124064000Y-127170000D03*
D23*
X119414000Y-120920000D03*
X121914000Y-120920000D03*
D22*
X129264000Y-127470000D03*
X129264000Y-129970000D03*
M02*
