G04 #@! TF.FileFunction,Other,User*
%FSLAX46Y46*%
G04 Gerber Fmt 4.6, Leading zero omitted, Abs format (unit mm)*
G04 Created by KiCad (PCBNEW 4.0.5) date Thu Feb 16 16:16:10 2017*
%MOMM*%
%LPD*%
G01*
G04 APERTURE LIST*
%ADD10C,0.100000*%
%ADD11C,0.050000*%
G04 APERTURE END LIST*
D10*
D11*
X146400000Y-74600000D02*
X141600000Y-74600000D01*
X146400000Y-76600000D02*
X141600000Y-76600000D01*
X146400000Y-74600000D02*
X146400000Y-76600000D01*
X141600000Y-74600000D02*
X141600000Y-76600000D01*
X139550000Y-71150000D02*
X141450000Y-71150000D01*
X141450000Y-71150000D02*
X141450000Y-67350000D01*
X141450000Y-67350000D02*
X139550000Y-67350000D01*
X139550000Y-67350000D02*
X139550000Y-71150000D01*
X141450000Y-83200000D02*
X139550000Y-83200000D01*
X139550000Y-83200000D02*
X139550000Y-87000000D01*
X139550000Y-87000000D02*
X141450000Y-87000000D01*
X141450000Y-87000000D02*
X141450000Y-83200000D01*
X146400000Y-78000000D02*
X141600000Y-78000000D01*
X146400000Y-80000000D02*
X141600000Y-80000000D01*
X146400000Y-78000000D02*
X146400000Y-80000000D01*
X141600000Y-78000000D02*
X141600000Y-80000000D01*
X128000000Y-70800000D02*
X128000000Y-66200000D01*
X126000000Y-70800000D02*
X126000000Y-66200000D01*
X128000000Y-70800000D02*
X126000000Y-70800000D01*
X128000000Y-66200000D02*
X126000000Y-66200000D01*
X133800000Y-65000000D02*
X129200000Y-65000000D01*
X133800000Y-67000000D02*
X129200000Y-67000000D01*
X133800000Y-65000000D02*
X133800000Y-67000000D01*
X129200000Y-65000000D02*
X129200000Y-67000000D01*
X110250000Y-96370000D02*
X110250000Y-82670000D01*
X113750000Y-96370000D02*
X113750000Y-82670000D01*
X110250000Y-96370000D02*
X113750000Y-96370000D01*
X110250000Y-82670000D02*
X113750000Y-82670000D01*
X126164000Y-137320000D02*
X126164000Y-141920000D01*
X128164000Y-137320000D02*
X128164000Y-141920000D01*
X126164000Y-137320000D02*
X128164000Y-137320000D01*
X126164000Y-141920000D02*
X128164000Y-141920000D01*
X123434000Y-134650000D02*
X118834000Y-134650000D01*
X123434000Y-136650000D02*
X118834000Y-136650000D01*
X123434000Y-134650000D02*
X123434000Y-136650000D01*
X118834000Y-134650000D02*
X118834000Y-136650000D01*
X115164000Y-137320000D02*
X115164000Y-141920000D01*
X117164000Y-137320000D02*
X117164000Y-141920000D01*
X115164000Y-137320000D02*
X117164000Y-137320000D01*
X115164000Y-141920000D02*
X117164000Y-141920000D01*
X112464000Y-134670000D02*
X107864000Y-134670000D01*
X112464000Y-136670000D02*
X107864000Y-136670000D01*
X112464000Y-134670000D02*
X112464000Y-136670000D01*
X107864000Y-134670000D02*
X107864000Y-136670000D01*
X111260106Y-127327512D02*
X111260106Y-122527512D01*
X109260106Y-127327512D02*
X109260106Y-122527512D01*
X111260106Y-127327512D02*
X109260106Y-127327512D01*
X111260106Y-122527512D02*
X109260106Y-122527512D01*
X113417572Y-127327512D02*
X113417572Y-122527512D01*
X111417572Y-127327512D02*
X111417572Y-122527512D01*
X113417572Y-127327512D02*
X111417572Y-127327512D01*
X113417572Y-122527512D02*
X111417572Y-122527512D01*
X121664000Y-112620000D02*
X121664000Y-117420000D01*
X123664000Y-112620000D02*
X123664000Y-117420000D01*
X121664000Y-112620000D02*
X123664000Y-112620000D01*
X121664000Y-117420000D02*
X123664000Y-117420000D01*
X121664000Y-117420000D02*
X121664000Y-112620000D01*
X119664000Y-117420000D02*
X119664000Y-112620000D01*
X121664000Y-117420000D02*
X119664000Y-117420000D01*
X121664000Y-112620000D02*
X119664000Y-112620000D01*
X121364000Y-125920000D02*
X116764000Y-125920000D01*
X121364000Y-127920000D02*
X116764000Y-127920000D01*
X121364000Y-125920000D02*
X121364000Y-127920000D01*
X116764000Y-125920000D02*
X116764000Y-127920000D01*
X121364000Y-128420000D02*
X116764000Y-128420000D01*
X121364000Y-130420000D02*
X116764000Y-130420000D01*
X121364000Y-128420000D02*
X121364000Y-130420000D01*
X116764000Y-128420000D02*
X116764000Y-130420000D01*
X123064000Y-123620000D02*
X123064000Y-128220000D01*
X125064000Y-123620000D02*
X125064000Y-128220000D01*
X123064000Y-123620000D02*
X125064000Y-123620000D01*
X123064000Y-128220000D02*
X125064000Y-128220000D01*
X118364000Y-121920000D02*
X122964000Y-121920000D01*
X118364000Y-119920000D02*
X122964000Y-119920000D01*
X118364000Y-121920000D02*
X118364000Y-119920000D01*
X122964000Y-121920000D02*
X122964000Y-119920000D01*
X128264000Y-126420000D02*
X128264000Y-131020000D01*
X130264000Y-126420000D02*
X130264000Y-131020000D01*
X128264000Y-126420000D02*
X130264000Y-126420000D01*
X128264000Y-131020000D02*
X130264000Y-131020000D01*
M02*
