G04 #@! TF.FileFunction,Copper,L2,Bot,Signal*
%FSLAX46Y46*%
G04 Gerber Fmt 4.6, Leading zero omitted, Abs format (unit mm)*
G04 Created by KiCad (PCBNEW 4.0.5) date Thu Feb 16 16:16:09 2017*
%MOMM*%
%LPD*%
G01*
G04 APERTURE LIST*
%ADD10C,0.100000*%
%ADD11R,1.750000X1.750000*%
%ADD12C,1.750000*%
%ADD13C,0.600000*%
%ADD14O,1.699260X3.500120*%
%ADD15R,10.000000X15.750000*%
%ADD16C,1.524000*%
%ADD17R,1.500000X1.300000*%
%ADD18R,1.198880X1.198880*%
%ADD19C,3.000000*%
%ADD20R,3.600000X1.800000*%
%ADD21O,3.600000X1.800000*%
%ADD22R,1.250000X1.500000*%
%ADD23R,1.500000X1.250000*%
%ADD24C,1.998980*%
%ADD25R,1.998980X1.998980*%
%ADD26R,2.032000X1.727200*%
%ADD27O,2.032000X1.727200*%
%ADD28R,1.800000X3.600000*%
%ADD29O,1.800000X3.600000*%
%ADD30C,4.064000*%
%ADD31R,1.727200X2.032000*%
%ADD32O,1.727200X2.032000*%
%ADD33R,1.300000X1.500000*%
%ADD34R,3.657600X2.032000*%
%ADD35R,1.016000X2.032000*%
%ADD36C,0.500000*%
%ADD37C,0.250000*%
%ADD38C,1.500000*%
%ADD39C,0.350000*%
G04 APERTURE END LIST*
D10*
D11*
X125050000Y-95175000D03*
D12*
X122550000Y-95175000D03*
X120050000Y-95175000D03*
X117550000Y-95175000D03*
D13*
X115000000Y-95000000D03*
X110000000Y-95000000D03*
X145000000Y-90000000D03*
X140000000Y-90000000D03*
X125000000Y-90000000D03*
X115000000Y-90000000D03*
X115000000Y-85000000D03*
X140000000Y-80000000D03*
X125000000Y-80000000D03*
X110000000Y-80000000D03*
X140000000Y-75000000D03*
X110000000Y-75000000D03*
X125000000Y-70000000D03*
X120000000Y-70000000D03*
X115000000Y-70000000D03*
X145000000Y-65000000D03*
X125000000Y-65000000D03*
X120000000Y-65000000D03*
X115000000Y-65000000D03*
X130000000Y-60000000D03*
X125000000Y-60000000D03*
X130000000Y-55000000D03*
X110000000Y-55000000D03*
D14*
X132550000Y-69636000D03*
X135090000Y-69636000D03*
X130010000Y-69636000D03*
D15*
X132550000Y-81550000D03*
D16*
X135550000Y-83136000D03*
X135550000Y-81136000D03*
X135550000Y-79136000D03*
X135550000Y-77136000D03*
X135550000Y-75136000D03*
X133550000Y-77136000D03*
X133550000Y-75136000D03*
X133550000Y-79136000D03*
X133550000Y-81136000D03*
X133550000Y-83136000D03*
X131550000Y-75136000D03*
X129550000Y-79136000D03*
X131550000Y-79136000D03*
X131550000Y-77136000D03*
X129550000Y-75136000D03*
X129550000Y-77136000D03*
X129550000Y-81136000D03*
X131550000Y-83136000D03*
X131550000Y-81136000D03*
X129550000Y-83136000D03*
X135550000Y-85136000D03*
X135550000Y-87636000D03*
X129550000Y-85136000D03*
X129550000Y-87636000D03*
D17*
X145350000Y-75600000D03*
X142650000Y-75600000D03*
D18*
X140500000Y-70299020D03*
X140500000Y-68200980D03*
X140500000Y-84050980D03*
X140500000Y-86149020D03*
D17*
X145350000Y-79000000D03*
X142650000Y-79000000D03*
D19*
X119250000Y-84750000D03*
X119250000Y-62250000D03*
D20*
X144000000Y-87000000D03*
D21*
X144000000Y-83500000D03*
D11*
X139775000Y-95175000D03*
D12*
X137275000Y-95175000D03*
X134775000Y-95175000D03*
X132275000Y-95175000D03*
D11*
X105200000Y-90000000D03*
D12*
X105200000Y-87500000D03*
X105200000Y-85000000D03*
X105200000Y-82500000D03*
X105200000Y-80000000D03*
D22*
X127000000Y-69750000D03*
X127000000Y-67250000D03*
D23*
X132750000Y-66000000D03*
X130250000Y-66000000D03*
D24*
X112007620Y-79910000D03*
D25*
X112007620Y-69750000D03*
D26*
X112000000Y-94620000D03*
D27*
X112000000Y-92080000D03*
X112000000Y-89540000D03*
X112000000Y-87000000D03*
X112000000Y-84460000D03*
D16*
X130790000Y-62000000D03*
X128250000Y-62000000D03*
X133330000Y-62000000D03*
D20*
X106000000Y-60000000D03*
D21*
X106000000Y-63500000D03*
D20*
X106000000Y-70000000D03*
D21*
X106000000Y-73500000D03*
D28*
X126000000Y-56000000D03*
D29*
X122500000Y-56000000D03*
X119000000Y-56000000D03*
X115500000Y-56000000D03*
D28*
X139250000Y-56000000D03*
D29*
X135750000Y-56000000D03*
D20*
X144000000Y-71000000D03*
D21*
X144000000Y-67500000D03*
D30*
X104000000Y-96000000D03*
X104000000Y-54000000D03*
X146000000Y-96000000D03*
X146000000Y-54000000D03*
D13*
X130004000Y-112640000D03*
X135004000Y-107640000D03*
X127504000Y-110140000D03*
X132504000Y-110140000D03*
X130004000Y-110140000D03*
X135004000Y-112640000D03*
X135004000Y-110140000D03*
X135004000Y-115140000D03*
X142504000Y-118640000D03*
X135004000Y-120940000D03*
X142504000Y-112640000D03*
X131254000Y-129640000D03*
X137504000Y-127640000D03*
X140004000Y-127640000D03*
X140004000Y-130140000D03*
X142504000Y-130140000D03*
X142504000Y-127640000D03*
X125004000Y-135140000D03*
X127504000Y-135140000D03*
X120004000Y-132640000D03*
X125004000Y-132640000D03*
X127504000Y-132640000D03*
X130004000Y-132640000D03*
X132504000Y-132640000D03*
X135004000Y-127640000D03*
X132504000Y-127640000D03*
X137504000Y-122640000D03*
X140004000Y-125140000D03*
X142504000Y-122640000D03*
X140004000Y-122640000D03*
X133004000Y-122640000D03*
X140004000Y-132640000D03*
X135004000Y-135140000D03*
X106504000Y-116140000D03*
X106504000Y-113640000D03*
X109004000Y-116140000D03*
X109004000Y-113640000D03*
X131004000Y-121140000D03*
X126004000Y-127140000D03*
X128004000Y-116140000D03*
X115504000Y-116140000D03*
X115504000Y-113640000D03*
X132504000Y-107640000D03*
X142504000Y-147640000D03*
X140004000Y-147640000D03*
X137504000Y-147640000D03*
X135004000Y-147640000D03*
X132504000Y-147640000D03*
X130004000Y-147640000D03*
X127504000Y-147640000D03*
X125004000Y-147640000D03*
X122504000Y-147640000D03*
X120004000Y-147640000D03*
X117504000Y-147640000D03*
X115004000Y-147640000D03*
X112504000Y-147640000D03*
X110004000Y-147640000D03*
X107504000Y-147640000D03*
X142504000Y-145140000D03*
X130004000Y-145140000D03*
X127504000Y-145140000D03*
X125004000Y-145140000D03*
X117504000Y-145140000D03*
X115004000Y-145140000D03*
X107504000Y-145140000D03*
X147504000Y-142640000D03*
X145004000Y-142640000D03*
X142504000Y-142640000D03*
X130004000Y-142640000D03*
X127504000Y-142640000D03*
X125004000Y-142640000D03*
X120004000Y-142640000D03*
X117504000Y-142640000D03*
X115004000Y-142640000D03*
X112504000Y-142640000D03*
X110004000Y-142640000D03*
X107504000Y-142640000D03*
X105004000Y-142640000D03*
X102504000Y-142640000D03*
X147504000Y-140140000D03*
X145004000Y-140140000D03*
X142504000Y-140140000D03*
X130004000Y-140140000D03*
X125004000Y-140140000D03*
X120004000Y-140140000D03*
X107504000Y-140140000D03*
X105004000Y-140140000D03*
X102504000Y-140140000D03*
X147504000Y-137640000D03*
X145004000Y-137640000D03*
X142504000Y-137640000D03*
X107504000Y-137640000D03*
X105004000Y-137640000D03*
X102504000Y-137640000D03*
X147504000Y-135140000D03*
X145004000Y-135140000D03*
X142504000Y-135140000D03*
X140004000Y-135140000D03*
X132504000Y-135140000D03*
X130004000Y-135140000D03*
X107504000Y-135140000D03*
X105004000Y-135140000D03*
X102504000Y-135140000D03*
X147504000Y-132640000D03*
X145004000Y-132640000D03*
X142504000Y-132640000D03*
X110004000Y-132640000D03*
X107504000Y-132640000D03*
X105004000Y-132640000D03*
X102504000Y-132640000D03*
X147504000Y-130140000D03*
X102504000Y-130140000D03*
X147504000Y-127640000D03*
X107504000Y-127640000D03*
X102504000Y-127640000D03*
X147504000Y-125140000D03*
X142504000Y-125140000D03*
X107504000Y-125140000D03*
X105004000Y-125140000D03*
X102504000Y-125140000D03*
X147504000Y-122640000D03*
X145004000Y-122640000D03*
X125004000Y-122640000D03*
X107504000Y-122640000D03*
X105004000Y-122640000D03*
X102504000Y-122640000D03*
X147504000Y-120140000D03*
X112504000Y-120140000D03*
X102504000Y-120140000D03*
X147504000Y-117640000D03*
X122504000Y-117640000D03*
X102504000Y-117640000D03*
X147504000Y-115140000D03*
X140004000Y-115140000D03*
X132504000Y-115140000D03*
X102504000Y-115140000D03*
X147504000Y-112640000D03*
X140004000Y-112640000D03*
X102504000Y-112640000D03*
X147504000Y-110140000D03*
X142504000Y-110140000D03*
X140004000Y-110140000D03*
X125004000Y-110140000D03*
X120004000Y-110140000D03*
X117504000Y-110140000D03*
X115004000Y-110140000D03*
X112504000Y-110140000D03*
X110004000Y-110140000D03*
X107504000Y-110140000D03*
X102504000Y-110140000D03*
X147504000Y-107640000D03*
X145004000Y-107640000D03*
X142504000Y-107640000D03*
X140004000Y-107640000D03*
X127504000Y-107640000D03*
X125004000Y-107640000D03*
X122504000Y-107640000D03*
X117504000Y-107640000D03*
X115004000Y-107640000D03*
X112504000Y-107640000D03*
X110004000Y-107640000D03*
X107504000Y-107640000D03*
X105004000Y-107640000D03*
X102504000Y-107640000D03*
X142504000Y-105140000D03*
X140004000Y-105140000D03*
X135004000Y-105140000D03*
X125004000Y-105140000D03*
X122504000Y-105140000D03*
X112504000Y-105140000D03*
X110004000Y-105140000D03*
X107504000Y-105140000D03*
X142504000Y-102640000D03*
X140004000Y-102640000D03*
X137504000Y-102640000D03*
X135004000Y-102640000D03*
X132504000Y-102640000D03*
X130004000Y-102640000D03*
X127504000Y-102640000D03*
X125004000Y-102640000D03*
X122504000Y-102640000D03*
X120004000Y-102640000D03*
X117504000Y-102640000D03*
X115004000Y-102640000D03*
X112504000Y-102640000D03*
X110004000Y-102640000D03*
X107504000Y-102640000D03*
D30*
X146004000Y-104140000D03*
X104004000Y-104140000D03*
X104004000Y-146140000D03*
X146004000Y-146140000D03*
D11*
X139664000Y-136920000D03*
D12*
X137164000Y-136920000D03*
X134664000Y-136920000D03*
X132164000Y-136920000D03*
D22*
X127164000Y-138370000D03*
X127164000Y-140870000D03*
D23*
X122384000Y-135650000D03*
X119884000Y-135650000D03*
D22*
X116164000Y-138370000D03*
X116164000Y-140870000D03*
D23*
X111414000Y-135670000D03*
X108914000Y-135670000D03*
D11*
X105164000Y-119920000D03*
D12*
X105164000Y-117420000D03*
X105164000Y-114920000D03*
X105164000Y-112420000D03*
X105164000Y-109920000D03*
D26*
X105164000Y-125380000D03*
D27*
X105164000Y-127920000D03*
X105164000Y-130460000D03*
D11*
X144664000Y-109920000D03*
D12*
X144664000Y-112420000D03*
X144664000Y-114920000D03*
X144664000Y-117420000D03*
X144664000Y-119920000D03*
D26*
X144664000Y-125380000D03*
D27*
X144664000Y-127920000D03*
X144664000Y-130460000D03*
D26*
X137664000Y-105380000D03*
D27*
X137664000Y-107920000D03*
X137664000Y-110460000D03*
X137664000Y-113000000D03*
X137664000Y-115540000D03*
X137664000Y-118080000D03*
D11*
X139664000Y-144920000D03*
D12*
X137164000Y-144920000D03*
X134664000Y-144920000D03*
X132164000Y-144920000D03*
D31*
X114124000Y-105420000D03*
D32*
X116664000Y-105420000D03*
X119204000Y-105420000D03*
D31*
X126624000Y-105420000D03*
D32*
X129164000Y-105420000D03*
X131704000Y-105420000D03*
D33*
X110260106Y-126277512D03*
X110260106Y-123577512D03*
X112417572Y-126277512D03*
X112417572Y-123577512D03*
X122664000Y-113670000D03*
X122664000Y-116370000D03*
X120664000Y-116370000D03*
X120664000Y-113670000D03*
D34*
X122378000Y-144983112D03*
D35*
X122378000Y-138379112D03*
X124664000Y-138379112D03*
X120092000Y-138379112D03*
D34*
X111374000Y-144991112D03*
D35*
X111374000Y-138387112D03*
X113660000Y-138387112D03*
X109088000Y-138387112D03*
D23*
X120314000Y-126920000D03*
X117814000Y-126920000D03*
X120314000Y-129420000D03*
X117814000Y-129420000D03*
D22*
X124064000Y-124670000D03*
X124064000Y-127170000D03*
D23*
X119414000Y-120920000D03*
X121914000Y-120920000D03*
D22*
X129264000Y-127470000D03*
X129264000Y-129970000D03*
D13*
X116020678Y-126478172D03*
X127512008Y-125145888D03*
X127514000Y-128095000D03*
X122264000Y-122120000D03*
X119536240Y-125566289D03*
X115534472Y-132627168D03*
X112504000Y-133140000D03*
X119520550Y-122262754D03*
X109664000Y-121420000D03*
X108664000Y-124720000D03*
X127864000Y-127120000D03*
X136373941Y-127431929D03*
X133664000Y-116420000D03*
X138894546Y-124480150D03*
X131003998Y-123913183D03*
X134037014Y-125919825D03*
X131004000Y-124782647D03*
X128015882Y-118067110D03*
X117512134Y-131871526D03*
X119526917Y-123862755D03*
X119029010Y-118389990D03*
X116488752Y-131908740D03*
X119514686Y-123062744D03*
D36*
X145350000Y-79000000D02*
X145350000Y-82150000D01*
X145350000Y-82150000D02*
X144000000Y-83500000D01*
X132550000Y-69636000D02*
X132550000Y-66200000D01*
X132550000Y-66200000D02*
X132750000Y-66000000D01*
X127164000Y-138370000D02*
X130714000Y-138370000D01*
X127164000Y-138370000D02*
X124673112Y-138370000D01*
X124673112Y-138370000D02*
X124664000Y-138379112D01*
X124664888Y-138380000D02*
X124664000Y-138379112D01*
X130714000Y-138370000D02*
X132164000Y-136920000D01*
X134775000Y-96293868D02*
X134775000Y-95056432D01*
X127318393Y-92231420D02*
X129400011Y-94313038D01*
X120050000Y-95056432D02*
X120050000Y-93818996D01*
X120050000Y-93818996D02*
X121637576Y-92231420D01*
X121637576Y-92231420D02*
X127318393Y-92231420D01*
X129400011Y-94313038D02*
X129400011Y-96549808D01*
X129400011Y-96549808D02*
X130081635Y-97231432D01*
X130081635Y-97231432D02*
X133837436Y-97231432D01*
X133837436Y-97231432D02*
X134775000Y-96293868D01*
X126765001Y-93131431D02*
X123237565Y-93131431D01*
X137275000Y-96293868D02*
X135337436Y-98231432D01*
X135337436Y-98231432D02*
X129681595Y-98231432D01*
X123237565Y-93131431D02*
X122550000Y-93818996D01*
X137275000Y-95056432D02*
X137275000Y-96293868D01*
X122550000Y-93818996D02*
X122550000Y-95056432D01*
X128500000Y-94866430D02*
X126765001Y-93131431D01*
X129681595Y-98231432D02*
X128500000Y-97049837D01*
X128500000Y-97049837D02*
X128500000Y-94866430D01*
X144000000Y-87000000D02*
X141350980Y-87000000D01*
X141350980Y-87000000D02*
X140500000Y-86149020D01*
X140500000Y-68200980D02*
X141200980Y-68200980D01*
X141200980Y-68200980D02*
X144000000Y-71000000D01*
X127000000Y-67250000D02*
X127000000Y-67125000D01*
X127000000Y-67125000D02*
X128250000Y-65875000D01*
X128250000Y-65875000D02*
X128250000Y-65250000D01*
X130250000Y-66000000D02*
X129000000Y-66000000D01*
X129000000Y-66000000D02*
X128250000Y-65250000D01*
X128250000Y-65250000D02*
X128250000Y-63077630D01*
X128250000Y-63077630D02*
X128250000Y-62000000D01*
X128250000Y-62000000D02*
X130790000Y-62000000D01*
X117869000Y-139040000D02*
X118529888Y-138379112D01*
X117289000Y-140870000D02*
X117869000Y-140290000D01*
X116164000Y-140870000D02*
X117289000Y-140870000D01*
X117869000Y-140290000D02*
X117869000Y-139040000D01*
X118529888Y-138379112D02*
X120092000Y-138379112D01*
D37*
X116320677Y-126778171D02*
X116020678Y-126478172D01*
X116462506Y-126920000D02*
X116320677Y-126778171D01*
X117814000Y-126920000D02*
X116462506Y-126920000D01*
X124486120Y-122120000D02*
X127212009Y-124845889D01*
X122264000Y-122120000D02*
X124486120Y-122120000D01*
X127212009Y-124845889D02*
X127512008Y-125145888D01*
X138569000Y-147140000D02*
X130452086Y-147140000D01*
X130452086Y-147140000D02*
X127164000Y-143851914D01*
X139664000Y-144920000D02*
X139664000Y-146045000D01*
X139664000Y-146045000D02*
X138569000Y-147140000D01*
D36*
X116164000Y-140870000D02*
X116164000Y-142300000D01*
X116164000Y-142300000D02*
X120604000Y-146740000D01*
X127164000Y-143851914D02*
X127164000Y-142120000D01*
X120604000Y-146740000D02*
X124275914Y-146740000D01*
X124275914Y-146740000D02*
X127164000Y-143851914D01*
X127164000Y-142120000D02*
X127164000Y-140870000D01*
D37*
X114124000Y-105420000D02*
X114124000Y-108030000D01*
X114124000Y-108030000D02*
X119764000Y-113670000D01*
X119764000Y-113670000D02*
X120664000Y-113670000D01*
X126589000Y-127170000D02*
X127514000Y-128095000D01*
X127514000Y-128095000D02*
X129264000Y-129845000D01*
X124064000Y-127170000D02*
X126589000Y-127170000D01*
X129264000Y-129845000D02*
X129264000Y-129970000D01*
X117814000Y-129420000D02*
X117814000Y-126920000D01*
X121914000Y-120920000D02*
X121914000Y-121770000D01*
X121914000Y-121770000D02*
X122264000Y-122120000D01*
D36*
X109088000Y-138387112D02*
X109088000Y-139903112D01*
X109088000Y-139903112D02*
X107664000Y-141327112D01*
X107664000Y-141327112D02*
X107664000Y-145295914D01*
X107664000Y-145295914D02*
X109025199Y-146657113D01*
X109025199Y-146657113D02*
X113722801Y-146657113D01*
X113722801Y-146657113D02*
X116164000Y-144215914D01*
X116164000Y-144215914D02*
X116164000Y-142120000D01*
X116164000Y-142120000D02*
X116164000Y-140870000D01*
X109088000Y-138387112D02*
X109088000Y-135844000D01*
X109088000Y-135844000D02*
X108914000Y-135670000D01*
X120092000Y-138379112D02*
X120092000Y-135858000D01*
X120092000Y-135858000D02*
X119884000Y-135650000D01*
D38*
X119250000Y-84750000D02*
X116349999Y-81849999D01*
X116349999Y-81849999D02*
X116349999Y-76591869D01*
X116349999Y-76591869D02*
X112007620Y-72249490D01*
X112007620Y-72249490D02*
X112007620Y-69750000D01*
D36*
X142650000Y-79000000D02*
X142650000Y-80150000D01*
X142650000Y-80150000D02*
X140500000Y-82300000D01*
X140500000Y-82300000D02*
X140500000Y-82951540D01*
X140500000Y-82951540D02*
X140500000Y-84050980D01*
X140650000Y-83800980D02*
X140500000Y-83950980D01*
X142650000Y-75600000D02*
X142550000Y-75600000D01*
X142550000Y-75600000D02*
X140500000Y-73550000D01*
X140500000Y-73550000D02*
X140500000Y-72650000D01*
X140500000Y-72650000D02*
X140500000Y-70299020D01*
X145350000Y-75600000D02*
X145350000Y-74450000D01*
X145350000Y-74450000D02*
X146700001Y-73099999D01*
X146700001Y-73099999D02*
X146700001Y-69300001D01*
X144900000Y-67500000D02*
X144000000Y-67500000D01*
X146700001Y-69300001D02*
X144900000Y-67500000D01*
D38*
X139250000Y-62750000D02*
X144000000Y-67500000D01*
X139250000Y-62750000D02*
X139250000Y-56000000D01*
D36*
X135750000Y-66725940D02*
X135750000Y-64420000D01*
X135750000Y-64420000D02*
X133330000Y-62000000D01*
X135090000Y-69636000D02*
X135090000Y-67385940D01*
X135090000Y-67385940D02*
X135750000Y-66725940D01*
X135104000Y-69650000D02*
X135090000Y-69636000D01*
X135090000Y-69636000D02*
X135090000Y-70536430D01*
X135040000Y-69586000D02*
X135090000Y-69636000D01*
D37*
X135180000Y-69546000D02*
X135090000Y-69636000D01*
D36*
X129896000Y-69750000D02*
X130010000Y-69636000D01*
X127000000Y-69750000D02*
X129896000Y-69750000D01*
X129874000Y-69500000D02*
X130010000Y-69636000D01*
D37*
X130275000Y-69371000D02*
X130010000Y-69636000D01*
X120314000Y-126045000D02*
X119835289Y-125566289D01*
X119835289Y-125566289D02*
X119536240Y-125566289D01*
X120314000Y-126920000D02*
X120314000Y-126045000D01*
X137664000Y-105380000D02*
X136264000Y-105380000D01*
X136264000Y-105380000D02*
X127974000Y-113670000D01*
X127974000Y-113670000D02*
X123564000Y-113670000D01*
X123564000Y-113670000D02*
X122664000Y-113670000D01*
X115534472Y-132627168D02*
X118410836Y-132627168D01*
X120314000Y-130724004D02*
X119004000Y-132034004D01*
X118410836Y-132627168D02*
X119004000Y-132034004D01*
X120314000Y-129420000D02*
X120314000Y-130724004D01*
D36*
X111414000Y-133640000D02*
X111414000Y-131031406D01*
X111414000Y-135670000D02*
X111414000Y-133640000D01*
D37*
X111414000Y-133640000D02*
X112004000Y-133640000D01*
X112004000Y-133640000D02*
X112504000Y-133140000D01*
X110260106Y-126277512D02*
X110260106Y-126177512D01*
X119414000Y-120920000D02*
X119414000Y-122156204D01*
X119414000Y-122156204D02*
X119520550Y-122262754D01*
X122032766Y-124670000D02*
X119625520Y-122262754D01*
X124064000Y-124670000D02*
X122032766Y-124670000D01*
X119625520Y-122262754D02*
X119520550Y-122262754D01*
X109664000Y-121420000D02*
X113664000Y-121420000D01*
X113664000Y-121420000D02*
X120338999Y-114745001D01*
X120338999Y-114745001D02*
X121688999Y-114745001D01*
X121688999Y-114745001D02*
X122664000Y-113770000D01*
X122664000Y-113770000D02*
X122664000Y-113670000D01*
X110260106Y-126277512D02*
X110221512Y-126277512D01*
X110221512Y-126277512D02*
X108664000Y-124720000D01*
D36*
X111414000Y-135670000D02*
X111414000Y-127431406D01*
X111414000Y-127431406D02*
X110260106Y-126277512D01*
D37*
X128214000Y-127470000D02*
X127864000Y-127120000D01*
X129264000Y-127470000D02*
X128214000Y-127470000D01*
X125414000Y-124670000D02*
X127864000Y-127120000D01*
X124064000Y-124670000D02*
X125414000Y-124670000D01*
X124064000Y-124670000D02*
X124064000Y-124795000D01*
X124064000Y-124795000D02*
X120314000Y-128545000D01*
X120314000Y-128545000D02*
X120314000Y-129420000D01*
X120314000Y-128545000D02*
X122864000Y-125995000D01*
X120314000Y-129420000D02*
X120314000Y-126920000D01*
D36*
X111539000Y-135670000D02*
X111414000Y-135670000D01*
X111374000Y-138387112D02*
X111374000Y-144991112D01*
X111374000Y-138387112D02*
X111374000Y-135710000D01*
X111374000Y-135710000D02*
X111414000Y-135670000D01*
X129304000Y-119340000D02*
X117805084Y-119340000D01*
X130004000Y-119340000D02*
X129304000Y-119340000D01*
X144664000Y-119920000D02*
X131004000Y-119920000D01*
X129304000Y-119340000D02*
X130424000Y-119340000D01*
X130424000Y-119340000D02*
X131004000Y-119920000D01*
X113567572Y-123577512D02*
X117305084Y-119840000D01*
X117805084Y-119340000D02*
X117305084Y-119840000D01*
X117305084Y-119840000D02*
X117500085Y-119644999D01*
X112417572Y-123577512D02*
X113567572Y-123577512D01*
X107664000Y-112420000D02*
X107664000Y-119520000D01*
X107664000Y-119520000D02*
X107664000Y-120420000D01*
X110260106Y-123577512D02*
X110260106Y-123477512D01*
X110260106Y-123477512D02*
X107664000Y-120881406D01*
X107664000Y-120881406D02*
X107664000Y-119520000D01*
X110260106Y-123577512D02*
X112417572Y-123577512D01*
X105164000Y-109920000D02*
X107664000Y-112420000D01*
D37*
X136073942Y-127731928D02*
X136373941Y-127431929D01*
X124894000Y-134140000D02*
X129665870Y-134140000D01*
X123384000Y-135650000D02*
X124894000Y-134140000D01*
X122384000Y-135650000D02*
X123384000Y-135650000D01*
X129665870Y-134140000D02*
X136073942Y-127731928D01*
D36*
X114513799Y-133962201D02*
X120571201Y-133962201D01*
X120571201Y-133962201D02*
X122259000Y-135650000D01*
X122259000Y-135650000D02*
X122384000Y-135650000D01*
X120652996Y-134043996D02*
X121529000Y-134920000D01*
X122378000Y-144983112D02*
X122378000Y-138379112D01*
X112417572Y-126277512D02*
X112417572Y-131865974D01*
X112417572Y-131865974D02*
X114513799Y-133962201D01*
X114513799Y-133962201D02*
X113660000Y-134816000D01*
X113660000Y-134816000D02*
X113660000Y-138387112D01*
X122259000Y-135650000D02*
X121529000Y-134920000D01*
X121529000Y-134920000D02*
X120804010Y-134195010D01*
X116164000Y-138370000D02*
X113677112Y-138370000D01*
X113677112Y-138370000D02*
X113660000Y-138387112D01*
X113692888Y-138420000D02*
X113660000Y-138387112D01*
X122378000Y-138379112D02*
X122378000Y-139895112D01*
X122378000Y-138379112D02*
X122378000Y-135656000D01*
D37*
X133664000Y-116420000D02*
X136784000Y-116420000D01*
X136784000Y-116420000D02*
X137664000Y-115540000D01*
X138594547Y-124180151D02*
X138894546Y-124480150D01*
X138327579Y-123913183D02*
X138594547Y-124180151D01*
X131003998Y-123913183D02*
X138327579Y-123913183D01*
X131004000Y-124782647D02*
X132141178Y-125919825D01*
X132141178Y-125919825D02*
X133612750Y-125919825D01*
X133612750Y-125919825D02*
X134037014Y-125919825D01*
X128028772Y-118080000D02*
X128015882Y-118067110D01*
X137664000Y-118080000D02*
X128028772Y-118080000D01*
X144664000Y-127920000D02*
X144511600Y-127920000D01*
X114864000Y-129223392D02*
X117212135Y-131571527D01*
X119526917Y-123862755D02*
X115821245Y-123862755D01*
X115821245Y-123862755D02*
X114864000Y-124820000D01*
X117212135Y-131571527D02*
X117512134Y-131871526D01*
X114864000Y-124820000D02*
X114864000Y-129223392D01*
X120664000Y-116490446D02*
X120664000Y-116755000D01*
X119329009Y-118089991D02*
X119029010Y-118389990D01*
X120664000Y-116755000D02*
X119329009Y-118089991D01*
X120664000Y-116370000D02*
X122664000Y-116370000D01*
X116188753Y-131608741D02*
X116488752Y-131908740D01*
X114413989Y-124633600D02*
X114413989Y-129833977D01*
X115984845Y-123062744D02*
X114413989Y-124633600D01*
X114413989Y-129833977D02*
X116188753Y-131608741D01*
X119514686Y-123062744D02*
X115984845Y-123062744D01*
D39*
G36*
X149242000Y-99242000D02*
X100758000Y-99242000D01*
X100758000Y-89125000D01*
X103483838Y-89125000D01*
X103483838Y-90875000D01*
X103541364Y-91180727D01*
X103722049Y-91461518D01*
X103997741Y-91649890D01*
X104325000Y-91716162D01*
X106075000Y-91716162D01*
X106380727Y-91658636D01*
X106661518Y-91477951D01*
X106849890Y-91202259D01*
X106916162Y-90875000D01*
X106916162Y-89125000D01*
X106858636Y-88819273D01*
X106677951Y-88538482D01*
X106611471Y-88493058D01*
X106640350Y-88464230D01*
X106899704Y-87839634D01*
X106900294Y-87163333D01*
X106642030Y-86538285D01*
X106354164Y-86249916D01*
X106640350Y-85964230D01*
X106899704Y-85339634D01*
X106900294Y-84663333D01*
X106816279Y-84460000D01*
X110122933Y-84460000D01*
X110251470Y-85106199D01*
X110617512Y-85654021D01*
X110731223Y-85730000D01*
X110617512Y-85805979D01*
X110251470Y-86353801D01*
X110122933Y-87000000D01*
X110251470Y-87646199D01*
X110617512Y-88194021D01*
X110731223Y-88270000D01*
X110617512Y-88345979D01*
X110251470Y-88893801D01*
X110122933Y-89540000D01*
X110251470Y-90186199D01*
X110617512Y-90734021D01*
X110731223Y-90810000D01*
X110617512Y-90885979D01*
X110251470Y-91433801D01*
X110122933Y-92080000D01*
X110251470Y-92726199D01*
X110495014Y-93090689D01*
X110397482Y-93153449D01*
X110209110Y-93429141D01*
X110142838Y-93756400D01*
X110142838Y-95483600D01*
X110200364Y-95789327D01*
X110381049Y-96070118D01*
X110656741Y-96258490D01*
X110984000Y-96324762D01*
X113016000Y-96324762D01*
X113321727Y-96267236D01*
X113602518Y-96086551D01*
X113790890Y-95810859D01*
X113851478Y-95511667D01*
X115849706Y-95511667D01*
X116107970Y-96136715D01*
X116585770Y-96615350D01*
X117210366Y-96874704D01*
X117886667Y-96875294D01*
X118511715Y-96617030D01*
X118900581Y-96228843D01*
X119166312Y-96495038D01*
X119738735Y-96732729D01*
X120358546Y-96733270D01*
X120931383Y-96496578D01*
X121300259Y-96128345D01*
X121666312Y-96495038D01*
X122238735Y-96732729D01*
X122858546Y-96733270D01*
X123431383Y-96496578D01*
X123565322Y-96362872D01*
X123595981Y-96436889D01*
X123788112Y-96629019D01*
X124039143Y-96733000D01*
X124800250Y-96733000D01*
X124971000Y-96562250D01*
X124971000Y-95254000D01*
X125129000Y-95254000D01*
X125129000Y-96562250D01*
X125299750Y-96733000D01*
X126060857Y-96733000D01*
X126311888Y-96629019D01*
X126504019Y-96436889D01*
X126608000Y-96185857D01*
X126608000Y-95424750D01*
X126437250Y-95254000D01*
X125129000Y-95254000D01*
X124971000Y-95254000D01*
X124951000Y-95254000D01*
X124951000Y-95096000D01*
X124971000Y-95096000D01*
X124971000Y-95076000D01*
X125129000Y-95076000D01*
X125129000Y-95096000D01*
X126437250Y-95096000D01*
X126608000Y-94925250D01*
X126608000Y-94293892D01*
X127567000Y-95252892D01*
X127567000Y-97049832D01*
X127566999Y-97049837D01*
X127638020Y-97406881D01*
X127840269Y-97709568D01*
X129021862Y-98891160D01*
X129021864Y-98891163D01*
X129324551Y-99093412D01*
X129383789Y-99105195D01*
X129681595Y-99164433D01*
X129681600Y-99164432D01*
X135337431Y-99164432D01*
X135337436Y-99164433D01*
X135694480Y-99093412D01*
X135997167Y-98891163D01*
X137934728Y-96953601D01*
X137934731Y-96953599D01*
X138136980Y-96650912D01*
X138170477Y-96482508D01*
X138290322Y-96362872D01*
X138320981Y-96436889D01*
X138513112Y-96629019D01*
X138764143Y-96733000D01*
X139525250Y-96733000D01*
X139696000Y-96562250D01*
X139696000Y-95254000D01*
X139854000Y-95254000D01*
X139854000Y-96562250D01*
X140024750Y-96733000D01*
X140785857Y-96733000D01*
X141036888Y-96629019D01*
X141229019Y-96436889D01*
X141333000Y-96185857D01*
X141333000Y-95424750D01*
X141162250Y-95254000D01*
X139854000Y-95254000D01*
X139696000Y-95254000D01*
X139676000Y-95254000D01*
X139676000Y-95096000D01*
X139696000Y-95096000D01*
X139696000Y-93787750D01*
X139854000Y-93787750D01*
X139854000Y-95096000D01*
X141162250Y-95096000D01*
X141333000Y-94925250D01*
X141333000Y-94164143D01*
X141229019Y-93913111D01*
X141036888Y-93720981D01*
X140785857Y-93617000D01*
X140024750Y-93617000D01*
X139854000Y-93787750D01*
X139696000Y-93787750D01*
X139525250Y-93617000D01*
X138764143Y-93617000D01*
X138513112Y-93720981D01*
X138320981Y-93913111D01*
X138290410Y-93986915D01*
X138158688Y-93854962D01*
X137586265Y-93617271D01*
X136966454Y-93616730D01*
X136393617Y-93853422D01*
X136024741Y-94221655D01*
X135658688Y-93854962D01*
X135086265Y-93617271D01*
X134466454Y-93616730D01*
X133893617Y-93853422D01*
X133625238Y-94121333D01*
X133239230Y-93734650D01*
X132614634Y-93475296D01*
X131938333Y-93474706D01*
X131313285Y-93732970D01*
X130834650Y-94210770D01*
X130575296Y-94835366D01*
X130574706Y-95511667D01*
X130832970Y-96136715D01*
X130994405Y-96298432D01*
X130468097Y-96298432D01*
X130333011Y-96163346D01*
X130333011Y-94313038D01*
X130261991Y-93955994D01*
X130059742Y-93653307D01*
X130059739Y-93653305D01*
X127978124Y-91571689D01*
X127675437Y-91369440D01*
X127318393Y-91298419D01*
X127318388Y-91298420D01*
X121637581Y-91298420D01*
X121637576Y-91298419D01*
X121339770Y-91357657D01*
X121280532Y-91369440D01*
X120977845Y-91571689D01*
X120977843Y-91571692D01*
X119390269Y-93159265D01*
X119188020Y-93461952D01*
X119116999Y-93818996D01*
X119117000Y-93819001D01*
X119117000Y-93904949D01*
X118900238Y-94121333D01*
X118514230Y-93734650D01*
X117889634Y-93475296D01*
X117213333Y-93474706D01*
X116588285Y-93732970D01*
X116109650Y-94210770D01*
X115850296Y-94835366D01*
X115849706Y-95511667D01*
X113851478Y-95511667D01*
X113857162Y-95483600D01*
X113857162Y-93756400D01*
X113799636Y-93450673D01*
X113618951Y-93169882D01*
X113504379Y-93091598D01*
X113748530Y-92726199D01*
X113877067Y-92080000D01*
X113748530Y-91433801D01*
X113382488Y-90885979D01*
X113268777Y-90810000D01*
X113382488Y-90734021D01*
X113748530Y-90186199D01*
X113877067Y-89540000D01*
X113748530Y-88893801D01*
X113382488Y-88345979D01*
X113268777Y-88270000D01*
X113382488Y-88194021D01*
X113748530Y-87646199D01*
X113877067Y-87000000D01*
X113748530Y-86353801D01*
X113382488Y-85805979D01*
X113268777Y-85730000D01*
X113382488Y-85654021D01*
X113748530Y-85106199D01*
X113877067Y-84460000D01*
X113748530Y-83813801D01*
X113382488Y-83265979D01*
X112834666Y-82899937D01*
X112188467Y-82771400D01*
X111811533Y-82771400D01*
X111165334Y-82899937D01*
X110617512Y-83265979D01*
X110251470Y-83813801D01*
X110122933Y-84460000D01*
X106816279Y-84460000D01*
X106642030Y-84038285D01*
X106354164Y-83749916D01*
X106640350Y-83464230D01*
X106899704Y-82839634D01*
X106900294Y-82163333D01*
X106642030Y-81538285D01*
X106354164Y-81249916D01*
X106640350Y-80964230D01*
X106899704Y-80339634D01*
X106899763Y-80271321D01*
X110182814Y-80271321D01*
X110459991Y-80942140D01*
X110972780Y-81455826D01*
X111643114Y-81734173D01*
X112368941Y-81734806D01*
X113039760Y-81457629D01*
X113553446Y-80944840D01*
X113831793Y-80274506D01*
X113832426Y-79548679D01*
X113555249Y-78877860D01*
X113042460Y-78364174D01*
X112372126Y-78085827D01*
X111646299Y-78085194D01*
X110975480Y-78362371D01*
X110461794Y-78875160D01*
X110183447Y-79545494D01*
X110182814Y-80271321D01*
X106899763Y-80271321D01*
X106900294Y-79663333D01*
X106642030Y-79038285D01*
X106164230Y-78559650D01*
X105539634Y-78300296D01*
X104863333Y-78299706D01*
X104238285Y-78557970D01*
X103759650Y-79035770D01*
X103500296Y-79660366D01*
X103499706Y-80336667D01*
X103757970Y-80961715D01*
X104045836Y-81250084D01*
X103759650Y-81535770D01*
X103500296Y-82160366D01*
X103499706Y-82836667D01*
X103757970Y-83461715D01*
X104045836Y-83750084D01*
X103759650Y-84035770D01*
X103500296Y-84660366D01*
X103499706Y-85336667D01*
X103757970Y-85961715D01*
X104045836Y-86250084D01*
X103759650Y-86535770D01*
X103500296Y-87160366D01*
X103499706Y-87836667D01*
X103757970Y-88461715D01*
X103787020Y-88490816D01*
X103738482Y-88522049D01*
X103550110Y-88797741D01*
X103483838Y-89125000D01*
X100758000Y-89125000D01*
X100758000Y-73500000D01*
X103323573Y-73500000D01*
X103454881Y-74160129D01*
X103828814Y-74719759D01*
X104388444Y-75093692D01*
X105048573Y-75225000D01*
X106951427Y-75225000D01*
X107611556Y-75093692D01*
X108171186Y-74719759D01*
X108545119Y-74160129D01*
X108676427Y-73500000D01*
X108545119Y-72839871D01*
X108171186Y-72280241D01*
X107611556Y-71906308D01*
X106951427Y-71775000D01*
X105048573Y-71775000D01*
X104388444Y-71906308D01*
X103828814Y-72280241D01*
X103454881Y-72839871D01*
X103323573Y-73500000D01*
X100758000Y-73500000D01*
X100758000Y-70249750D01*
X103517000Y-70249750D01*
X103517000Y-71035857D01*
X103620981Y-71286888D01*
X103813111Y-71479019D01*
X104064143Y-71583000D01*
X105750250Y-71583000D01*
X105921000Y-71412250D01*
X105921000Y-70079000D01*
X106079000Y-70079000D01*
X106079000Y-71412250D01*
X106249750Y-71583000D01*
X107935857Y-71583000D01*
X108186889Y-71479019D01*
X108379019Y-71286888D01*
X108483000Y-71035857D01*
X108483000Y-70249750D01*
X108312250Y-70079000D01*
X106079000Y-70079000D01*
X105921000Y-70079000D01*
X103687750Y-70079000D01*
X103517000Y-70249750D01*
X100758000Y-70249750D01*
X100758000Y-68964143D01*
X103517000Y-68964143D01*
X103517000Y-69750250D01*
X103687750Y-69921000D01*
X105921000Y-69921000D01*
X105921000Y-68587750D01*
X106079000Y-68587750D01*
X106079000Y-69921000D01*
X108312250Y-69921000D01*
X108483000Y-69750250D01*
X108483000Y-68964143D01*
X108394510Y-68750510D01*
X110166968Y-68750510D01*
X110166968Y-70749490D01*
X110224494Y-71055217D01*
X110405179Y-71336008D01*
X110432620Y-71354758D01*
X110432620Y-72249490D01*
X110552510Y-72852217D01*
X110893927Y-73363183D01*
X114774999Y-77244255D01*
X114774999Y-81849999D01*
X114894889Y-82452726D01*
X115236306Y-82963692D01*
X116925085Y-84652471D01*
X116924598Y-85210442D01*
X117277812Y-86065286D01*
X117931274Y-86719889D01*
X118785500Y-87074595D01*
X119710442Y-87075402D01*
X120565286Y-86722188D01*
X121219889Y-86068726D01*
X121574595Y-85214500D01*
X121575402Y-84289558D01*
X121222188Y-83434714D01*
X120568726Y-82780111D01*
X119714500Y-82425405D01*
X119152300Y-82424914D01*
X117924999Y-81197613D01*
X117924999Y-76591869D01*
X117805109Y-75989143D01*
X117805109Y-75989142D01*
X117463692Y-75478176D01*
X115888131Y-73902615D01*
X117216648Y-73902615D01*
X117525501Y-74650098D01*
X118096894Y-75222489D01*
X118843837Y-75532647D01*
X119652615Y-75533352D01*
X120400098Y-75224499D01*
X120972489Y-74653106D01*
X121282647Y-73906163D01*
X121282848Y-73675000D01*
X126708838Y-73675000D01*
X126708838Y-89425000D01*
X126766364Y-89730727D01*
X126947049Y-90011518D01*
X127222741Y-90199890D01*
X127550000Y-90266162D01*
X137550000Y-90266162D01*
X137855727Y-90208636D01*
X138136518Y-90027951D01*
X138324890Y-89752259D01*
X138391162Y-89425000D01*
X138391162Y-86398770D01*
X139217560Y-86398770D01*
X139217560Y-86884317D01*
X139321541Y-87135348D01*
X139513671Y-87327479D01*
X139764703Y-87431460D01*
X140250250Y-87431460D01*
X140421000Y-87260710D01*
X140421000Y-86228020D01*
X139388310Y-86228020D01*
X139217560Y-86398770D01*
X138391162Y-86398770D01*
X138391162Y-83451540D01*
X139059398Y-83451540D01*
X139059398Y-84650420D01*
X139116924Y-84956147D01*
X139293459Y-85230488D01*
X139217560Y-85413723D01*
X139217560Y-85899270D01*
X139388310Y-86070020D01*
X140421000Y-86070020D01*
X140421000Y-86050020D01*
X140579000Y-86050020D01*
X140579000Y-86070020D01*
X140599000Y-86070020D01*
X140599000Y-86228020D01*
X140579000Y-86228020D01*
X140579000Y-87260710D01*
X140749750Y-87431460D01*
X141235297Y-87431460D01*
X141486329Y-87327479D01*
X141517000Y-87296808D01*
X141517000Y-88035857D01*
X141620981Y-88286888D01*
X141813111Y-88479019D01*
X142064143Y-88583000D01*
X143750250Y-88583000D01*
X143921000Y-88412250D01*
X143921000Y-87079000D01*
X144079000Y-87079000D01*
X144079000Y-88412250D01*
X144249750Y-88583000D01*
X145935857Y-88583000D01*
X146186889Y-88479019D01*
X146379019Y-88286888D01*
X146483000Y-88035857D01*
X146483000Y-87249750D01*
X146312250Y-87079000D01*
X144079000Y-87079000D01*
X143921000Y-87079000D01*
X143901000Y-87079000D01*
X143901000Y-86921000D01*
X143921000Y-86921000D01*
X143921000Y-85587750D01*
X144079000Y-85587750D01*
X144079000Y-86921000D01*
X146312250Y-86921000D01*
X146483000Y-86750250D01*
X146483000Y-85964143D01*
X146379019Y-85713112D01*
X146186889Y-85520981D01*
X145935857Y-85417000D01*
X144249750Y-85417000D01*
X144079000Y-85587750D01*
X143921000Y-85587750D01*
X143750250Y-85417000D01*
X142064143Y-85417000D01*
X141813111Y-85520981D01*
X141782440Y-85551652D01*
X141782440Y-85413723D01*
X141704674Y-85225980D01*
X141874330Y-84977679D01*
X141914911Y-84777287D01*
X142388444Y-85093692D01*
X143048573Y-85225000D01*
X144951427Y-85225000D01*
X145611556Y-85093692D01*
X146171186Y-84719759D01*
X146545119Y-84160129D01*
X146676427Y-83500000D01*
X146545119Y-82839871D01*
X146346811Y-82543082D01*
X146425000Y-82150000D01*
X146425000Y-80421234D01*
X146686518Y-80252951D01*
X146874890Y-79977259D01*
X146941162Y-79650000D01*
X146941162Y-78350000D01*
X146883636Y-78044273D01*
X146702951Y-77763482D01*
X146427259Y-77575110D01*
X146100000Y-77508838D01*
X144600000Y-77508838D01*
X144294273Y-77566364D01*
X144013482Y-77747049D01*
X144002476Y-77763157D01*
X143727259Y-77575110D01*
X143400000Y-77508838D01*
X141900000Y-77508838D01*
X141594273Y-77566364D01*
X141313482Y-77747049D01*
X141125110Y-78022741D01*
X141058838Y-78350000D01*
X141058838Y-79650000D01*
X141116364Y-79955727D01*
X141197658Y-80082062D01*
X139739860Y-81539860D01*
X139506830Y-81888615D01*
X139425000Y-82300000D01*
X139425000Y-82777189D01*
X139314042Y-82848589D01*
X139125670Y-83124281D01*
X139059398Y-83451540D01*
X138391162Y-83451540D01*
X138391162Y-73675000D01*
X138333636Y-73369273D01*
X138152951Y-73088482D01*
X137877259Y-72900110D01*
X137550000Y-72833838D01*
X127550000Y-72833838D01*
X127244273Y-72891364D01*
X126963482Y-73072049D01*
X126775110Y-73347741D01*
X126708838Y-73675000D01*
X121282848Y-73675000D01*
X121283352Y-73097385D01*
X120974499Y-72349902D01*
X120403106Y-71777511D01*
X119656163Y-71467353D01*
X118847385Y-71466648D01*
X118099902Y-71775501D01*
X117527511Y-72346894D01*
X117217353Y-73093837D01*
X117216648Y-73902615D01*
X115888131Y-73902615D01*
X113582620Y-71597104D01*
X113582620Y-71359524D01*
X113593628Y-71352441D01*
X113782000Y-71076749D01*
X113848272Y-70749490D01*
X113848272Y-69000000D01*
X125533838Y-69000000D01*
X125533838Y-70500000D01*
X125591364Y-70805727D01*
X125772049Y-71086518D01*
X126047741Y-71274890D01*
X126375000Y-71341162D01*
X127625000Y-71341162D01*
X127930727Y-71283636D01*
X128211518Y-71102951D01*
X128386952Y-70846195D01*
X128462844Y-71227731D01*
X128825858Y-71771020D01*
X129369147Y-72134034D01*
X130010000Y-72261508D01*
X130650853Y-72134034D01*
X131194142Y-71771020D01*
X131280000Y-71642524D01*
X131365858Y-71771020D01*
X131909147Y-72134034D01*
X132550000Y-72261508D01*
X133190853Y-72134034D01*
X133734142Y-71771020D01*
X133820000Y-71642524D01*
X133905858Y-71771020D01*
X134449147Y-72134034D01*
X135090000Y-72261508D01*
X135730853Y-72134034D01*
X136274142Y-71771020D01*
X136637156Y-71227731D01*
X136764630Y-70586878D01*
X136764630Y-68685122D01*
X136637156Y-68044269D01*
X136362701Y-67633519D01*
X136510140Y-67486080D01*
X136523768Y-67465683D01*
X139217560Y-67465683D01*
X139217560Y-67951230D01*
X139388310Y-68121980D01*
X140421000Y-68121980D01*
X140421000Y-67089290D01*
X140250250Y-66918540D01*
X139764703Y-66918540D01*
X139513671Y-67022521D01*
X139321541Y-67214652D01*
X139217560Y-67465683D01*
X136523768Y-67465683D01*
X136629129Y-67308000D01*
X136743170Y-67137325D01*
X136825000Y-66725940D01*
X136825000Y-64420000D01*
X136743170Y-64008615D01*
X136510140Y-63659860D01*
X134916943Y-62066663D01*
X134917275Y-61685711D01*
X134676177Y-61102211D01*
X134230137Y-60655392D01*
X133647059Y-60413276D01*
X133015711Y-60412725D01*
X132432211Y-60653823D01*
X131985392Y-61099863D01*
X131951623Y-61181187D01*
X131765214Y-61136509D01*
X130901723Y-62000000D01*
X131765214Y-62863491D01*
X131951230Y-62818908D01*
X131983823Y-62897789D01*
X132429863Y-63344608D01*
X133012941Y-63586724D01*
X133396779Y-63587059D01*
X134675000Y-64865280D01*
X134675000Y-66280660D01*
X134341162Y-66614498D01*
X134341162Y-65375000D01*
X134283636Y-65069273D01*
X134102951Y-64788482D01*
X133827259Y-64600110D01*
X133500000Y-64533838D01*
X132000000Y-64533838D01*
X131694273Y-64591364D01*
X131413482Y-64772049D01*
X131392973Y-64802066D01*
X131386888Y-64795981D01*
X131135857Y-64692000D01*
X130499750Y-64692000D01*
X130329000Y-64862750D01*
X130329000Y-65921000D01*
X130349000Y-65921000D01*
X130349000Y-66079000D01*
X130329000Y-66079000D01*
X130329000Y-66099000D01*
X130171000Y-66099000D01*
X130171000Y-66079000D01*
X128987750Y-66079000D01*
X128817000Y-66249750D01*
X128817000Y-66760857D01*
X128920981Y-67011889D01*
X129113112Y-67204019D01*
X129210141Y-67244210D01*
X128825858Y-67500980D01*
X128462844Y-68044269D01*
X128351280Y-68605139D01*
X128227951Y-68413482D01*
X128197934Y-68392973D01*
X128204019Y-68386888D01*
X128308000Y-68135857D01*
X128308000Y-67499750D01*
X128137250Y-67329000D01*
X127079000Y-67329000D01*
X127079000Y-67349000D01*
X126921000Y-67349000D01*
X126921000Y-67329000D01*
X125862750Y-67329000D01*
X125692000Y-67499750D01*
X125692000Y-68135857D01*
X125795981Y-68386888D01*
X125799227Y-68390134D01*
X125788482Y-68397049D01*
X125600110Y-68672741D01*
X125533838Y-69000000D01*
X113848272Y-69000000D01*
X113848272Y-68750510D01*
X113790746Y-68444783D01*
X113610061Y-68163992D01*
X113334369Y-67975620D01*
X113007110Y-67909348D01*
X111008130Y-67909348D01*
X110702403Y-67966874D01*
X110421612Y-68147559D01*
X110233240Y-68423251D01*
X110166968Y-68750510D01*
X108394510Y-68750510D01*
X108379019Y-68713112D01*
X108186889Y-68520981D01*
X107935857Y-68417000D01*
X106249750Y-68417000D01*
X106079000Y-68587750D01*
X105921000Y-68587750D01*
X105750250Y-68417000D01*
X104064143Y-68417000D01*
X103813111Y-68520981D01*
X103620981Y-68713112D01*
X103517000Y-68964143D01*
X100758000Y-68964143D01*
X100758000Y-66364143D01*
X125692000Y-66364143D01*
X125692000Y-67000250D01*
X125862750Y-67171000D01*
X126921000Y-67171000D01*
X126921000Y-65987750D01*
X127079000Y-65987750D01*
X127079000Y-67171000D01*
X128137250Y-67171000D01*
X128308000Y-67000250D01*
X128308000Y-66364143D01*
X128204019Y-66113112D01*
X128011889Y-65920981D01*
X127760857Y-65817000D01*
X127249750Y-65817000D01*
X127079000Y-65987750D01*
X126921000Y-65987750D01*
X126750250Y-65817000D01*
X126239143Y-65817000D01*
X125988111Y-65920981D01*
X125795981Y-66113112D01*
X125692000Y-66364143D01*
X100758000Y-66364143D01*
X100758000Y-65239143D01*
X128817000Y-65239143D01*
X128817000Y-65750250D01*
X128987750Y-65921000D01*
X130171000Y-65921000D01*
X130171000Y-64862750D01*
X130000250Y-64692000D01*
X129364143Y-64692000D01*
X129113112Y-64795981D01*
X128920981Y-64988111D01*
X128817000Y-65239143D01*
X100758000Y-65239143D01*
X100758000Y-63500000D01*
X103323573Y-63500000D01*
X103454881Y-64160129D01*
X103828814Y-64719759D01*
X104388444Y-65093692D01*
X105048573Y-65225000D01*
X106951427Y-65225000D01*
X107611556Y-65093692D01*
X108171186Y-64719759D01*
X108545119Y-64160129D01*
X108676427Y-63500000D01*
X108545119Y-62839871D01*
X108458638Y-62710442D01*
X116924598Y-62710442D01*
X117277812Y-63565286D01*
X117931274Y-64219889D01*
X118785500Y-64574595D01*
X119710442Y-64575402D01*
X120565286Y-64222188D01*
X121219889Y-63568726D01*
X121466336Y-62975214D01*
X127386509Y-62975214D01*
X127449169Y-63236652D01*
X127983375Y-63448983D01*
X128558172Y-63440718D01*
X129050831Y-63236652D01*
X129113491Y-62975214D01*
X129926509Y-62975214D01*
X129989169Y-63236652D01*
X130523375Y-63448983D01*
X131098172Y-63440718D01*
X131590831Y-63236652D01*
X131653491Y-62975214D01*
X130790000Y-62111723D01*
X129926509Y-62975214D01*
X129113491Y-62975214D01*
X128250000Y-62111723D01*
X127386509Y-62975214D01*
X121466336Y-62975214D01*
X121574595Y-62714500D01*
X121575402Y-61789558D01*
X121552188Y-61733375D01*
X126801017Y-61733375D01*
X126809282Y-62308172D01*
X127013348Y-62800831D01*
X127274786Y-62863491D01*
X128138277Y-62000000D01*
X128361723Y-62000000D01*
X129225214Y-62863491D01*
X129486652Y-62800831D01*
X129519312Y-62718661D01*
X129553348Y-62800831D01*
X129814786Y-62863491D01*
X130678277Y-62000000D01*
X129814786Y-61136509D01*
X129553348Y-61199169D01*
X129520688Y-61281339D01*
X129486652Y-61199169D01*
X129225214Y-61136509D01*
X128361723Y-62000000D01*
X128138277Y-62000000D01*
X127274786Y-61136509D01*
X127013348Y-61199169D01*
X126801017Y-61733375D01*
X121552188Y-61733375D01*
X121259405Y-61024786D01*
X127386509Y-61024786D01*
X128250000Y-61888277D01*
X129113491Y-61024786D01*
X129926509Y-61024786D01*
X130790000Y-61888277D01*
X131653491Y-61024786D01*
X131590831Y-60763348D01*
X131056625Y-60551017D01*
X130481828Y-60559282D01*
X129989169Y-60763348D01*
X129926509Y-61024786D01*
X129113491Y-61024786D01*
X129050831Y-60763348D01*
X128516625Y-60551017D01*
X127941828Y-60559282D01*
X127449169Y-60763348D01*
X127386509Y-61024786D01*
X121259405Y-61024786D01*
X121222188Y-60934714D01*
X120568726Y-60280111D01*
X119714500Y-59925405D01*
X118789558Y-59924598D01*
X117934714Y-60277812D01*
X117280111Y-60931274D01*
X116925405Y-61785500D01*
X116924598Y-62710442D01*
X108458638Y-62710442D01*
X108171186Y-62280241D01*
X107611556Y-61906308D01*
X106951427Y-61775000D01*
X105048573Y-61775000D01*
X104388444Y-61906308D01*
X103828814Y-62280241D01*
X103454881Y-62839871D01*
X103323573Y-63500000D01*
X100758000Y-63500000D01*
X100758000Y-60249750D01*
X103517000Y-60249750D01*
X103517000Y-61035857D01*
X103620981Y-61286888D01*
X103813111Y-61479019D01*
X104064143Y-61583000D01*
X105750250Y-61583000D01*
X105921000Y-61412250D01*
X105921000Y-60079000D01*
X106079000Y-60079000D01*
X106079000Y-61412250D01*
X106249750Y-61583000D01*
X107935857Y-61583000D01*
X108186889Y-61479019D01*
X108379019Y-61286888D01*
X108483000Y-61035857D01*
X108483000Y-60249750D01*
X108312250Y-60079000D01*
X106079000Y-60079000D01*
X105921000Y-60079000D01*
X103687750Y-60079000D01*
X103517000Y-60249750D01*
X100758000Y-60249750D01*
X100758000Y-58964143D01*
X103517000Y-58964143D01*
X103517000Y-59750250D01*
X103687750Y-59921000D01*
X105921000Y-59921000D01*
X105921000Y-58587750D01*
X106079000Y-58587750D01*
X106079000Y-59921000D01*
X108312250Y-59921000D01*
X108483000Y-59750250D01*
X108483000Y-58964143D01*
X108379019Y-58713112D01*
X108186889Y-58520981D01*
X107935857Y-58417000D01*
X106249750Y-58417000D01*
X106079000Y-58587750D01*
X105921000Y-58587750D01*
X105750250Y-58417000D01*
X104064143Y-58417000D01*
X103813111Y-58520981D01*
X103620981Y-58713112D01*
X103517000Y-58964143D01*
X100758000Y-58964143D01*
X100758000Y-55048573D01*
X113775000Y-55048573D01*
X113775000Y-56951427D01*
X113906308Y-57611556D01*
X114280241Y-58171186D01*
X114839871Y-58545119D01*
X115500000Y-58676427D01*
X116160129Y-58545119D01*
X116719759Y-58171186D01*
X117093692Y-57611556D01*
X117225000Y-56951427D01*
X117225000Y-55048573D01*
X117275000Y-55048573D01*
X117275000Y-56951427D01*
X117406308Y-57611556D01*
X117780241Y-58171186D01*
X118339871Y-58545119D01*
X119000000Y-58676427D01*
X119660129Y-58545119D01*
X120219759Y-58171186D01*
X120593692Y-57611556D01*
X120725000Y-56951427D01*
X120725000Y-55048573D01*
X120775000Y-55048573D01*
X120775000Y-56951427D01*
X120906308Y-57611556D01*
X121280241Y-58171186D01*
X121839871Y-58545119D01*
X122500000Y-58676427D01*
X123160129Y-58545119D01*
X123719759Y-58171186D01*
X124093692Y-57611556D01*
X124225000Y-56951427D01*
X124225000Y-56249750D01*
X124417000Y-56249750D01*
X124417000Y-57935857D01*
X124520981Y-58186889D01*
X124713112Y-58379019D01*
X124964143Y-58483000D01*
X125750250Y-58483000D01*
X125921000Y-58312250D01*
X125921000Y-56079000D01*
X126079000Y-56079000D01*
X126079000Y-58312250D01*
X126249750Y-58483000D01*
X127035857Y-58483000D01*
X127286888Y-58379019D01*
X127479019Y-58186889D01*
X127583000Y-57935857D01*
X127583000Y-56249750D01*
X127412250Y-56079000D01*
X126079000Y-56079000D01*
X125921000Y-56079000D01*
X124587750Y-56079000D01*
X124417000Y-56249750D01*
X124225000Y-56249750D01*
X124225000Y-55048573D01*
X124093692Y-54388444D01*
X123877001Y-54064143D01*
X124417000Y-54064143D01*
X124417000Y-55750250D01*
X124587750Y-55921000D01*
X125921000Y-55921000D01*
X125921000Y-53687750D01*
X126079000Y-53687750D01*
X126079000Y-55921000D01*
X127412250Y-55921000D01*
X127583000Y-55750250D01*
X127583000Y-55048573D01*
X134025000Y-55048573D01*
X134025000Y-56951427D01*
X134156308Y-57611556D01*
X134530241Y-58171186D01*
X135089871Y-58545119D01*
X135750000Y-58676427D01*
X136410129Y-58545119D01*
X136969759Y-58171186D01*
X137343692Y-57611556D01*
X137475000Y-56951427D01*
X137475000Y-55048573D01*
X137343692Y-54388444D01*
X137217778Y-54200000D01*
X137508838Y-54200000D01*
X137508838Y-57800000D01*
X137566364Y-58105727D01*
X137675000Y-58274551D01*
X137675000Y-62750000D01*
X137794890Y-63352727D01*
X138136307Y-63863693D01*
X141191154Y-66918540D01*
X140749750Y-66918540D01*
X140579000Y-67089290D01*
X140579000Y-68121980D01*
X140599000Y-68121980D01*
X140599000Y-68279980D01*
X140579000Y-68279980D01*
X140579000Y-68299980D01*
X140421000Y-68299980D01*
X140421000Y-68279980D01*
X139388310Y-68279980D01*
X139217560Y-68450730D01*
X139217560Y-68936277D01*
X139295326Y-69124020D01*
X139125670Y-69372321D01*
X139059398Y-69699580D01*
X139059398Y-70898460D01*
X139116924Y-71204187D01*
X139297609Y-71484978D01*
X139425000Y-71572020D01*
X139425000Y-73550000D01*
X139506830Y-73961385D01*
X139558434Y-74038616D01*
X139739860Y-74310140D01*
X141058838Y-75629118D01*
X141058838Y-76250000D01*
X141116364Y-76555727D01*
X141297049Y-76836518D01*
X141572741Y-77024890D01*
X141900000Y-77091162D01*
X143400000Y-77091162D01*
X143705727Y-77033636D01*
X143986518Y-76852951D01*
X143997524Y-76836843D01*
X144272741Y-77024890D01*
X144600000Y-77091162D01*
X146100000Y-77091162D01*
X146405727Y-77033636D01*
X146686518Y-76852951D01*
X146874890Y-76577259D01*
X146941162Y-76250000D01*
X146941162Y-74950000D01*
X146883636Y-74644273D01*
X146802342Y-74517938D01*
X147460141Y-73860139D01*
X147693172Y-73511383D01*
X147775001Y-73099999D01*
X147775001Y-69300001D01*
X147693171Y-68888616D01*
X147460141Y-68539861D01*
X146633929Y-67713649D01*
X146676427Y-67500000D01*
X146545119Y-66839871D01*
X146171186Y-66280241D01*
X145611556Y-65906308D01*
X144951427Y-65775000D01*
X144502386Y-65775000D01*
X140825000Y-62097614D01*
X140825000Y-58273453D01*
X140924890Y-58127259D01*
X140991162Y-57800000D01*
X140991162Y-54200000D01*
X140933636Y-53894273D01*
X140752951Y-53613482D01*
X140477259Y-53425110D01*
X140150000Y-53358838D01*
X138350000Y-53358838D01*
X138044273Y-53416364D01*
X137763482Y-53597049D01*
X137575110Y-53872741D01*
X137508838Y-54200000D01*
X137217778Y-54200000D01*
X136969759Y-53828814D01*
X136410129Y-53454881D01*
X135750000Y-53323573D01*
X135089871Y-53454881D01*
X134530241Y-53828814D01*
X134156308Y-54388444D01*
X134025000Y-55048573D01*
X127583000Y-55048573D01*
X127583000Y-54064143D01*
X127479019Y-53813111D01*
X127286888Y-53620981D01*
X127035857Y-53517000D01*
X126249750Y-53517000D01*
X126079000Y-53687750D01*
X125921000Y-53687750D01*
X125750250Y-53517000D01*
X124964143Y-53517000D01*
X124713112Y-53620981D01*
X124520981Y-53813111D01*
X124417000Y-54064143D01*
X123877001Y-54064143D01*
X123719759Y-53828814D01*
X123160129Y-53454881D01*
X122500000Y-53323573D01*
X121839871Y-53454881D01*
X121280241Y-53828814D01*
X120906308Y-54388444D01*
X120775000Y-55048573D01*
X120725000Y-55048573D01*
X120593692Y-54388444D01*
X120219759Y-53828814D01*
X119660129Y-53454881D01*
X119000000Y-53323573D01*
X118339871Y-53454881D01*
X117780241Y-53828814D01*
X117406308Y-54388444D01*
X117275000Y-55048573D01*
X117225000Y-55048573D01*
X117093692Y-54388444D01*
X116719759Y-53828814D01*
X116160129Y-53454881D01*
X115500000Y-53323573D01*
X114839871Y-53454881D01*
X114280241Y-53828814D01*
X113906308Y-54388444D01*
X113775000Y-55048573D01*
X100758000Y-55048573D01*
X100758000Y-50758000D01*
X149242000Y-50758000D01*
X149242000Y-99242000D01*
X149242000Y-99242000D01*
G37*
X149242000Y-99242000D02*
X100758000Y-99242000D01*
X100758000Y-89125000D01*
X103483838Y-89125000D01*
X103483838Y-90875000D01*
X103541364Y-91180727D01*
X103722049Y-91461518D01*
X103997741Y-91649890D01*
X104325000Y-91716162D01*
X106075000Y-91716162D01*
X106380727Y-91658636D01*
X106661518Y-91477951D01*
X106849890Y-91202259D01*
X106916162Y-90875000D01*
X106916162Y-89125000D01*
X106858636Y-88819273D01*
X106677951Y-88538482D01*
X106611471Y-88493058D01*
X106640350Y-88464230D01*
X106899704Y-87839634D01*
X106900294Y-87163333D01*
X106642030Y-86538285D01*
X106354164Y-86249916D01*
X106640350Y-85964230D01*
X106899704Y-85339634D01*
X106900294Y-84663333D01*
X106816279Y-84460000D01*
X110122933Y-84460000D01*
X110251470Y-85106199D01*
X110617512Y-85654021D01*
X110731223Y-85730000D01*
X110617512Y-85805979D01*
X110251470Y-86353801D01*
X110122933Y-87000000D01*
X110251470Y-87646199D01*
X110617512Y-88194021D01*
X110731223Y-88270000D01*
X110617512Y-88345979D01*
X110251470Y-88893801D01*
X110122933Y-89540000D01*
X110251470Y-90186199D01*
X110617512Y-90734021D01*
X110731223Y-90810000D01*
X110617512Y-90885979D01*
X110251470Y-91433801D01*
X110122933Y-92080000D01*
X110251470Y-92726199D01*
X110495014Y-93090689D01*
X110397482Y-93153449D01*
X110209110Y-93429141D01*
X110142838Y-93756400D01*
X110142838Y-95483600D01*
X110200364Y-95789327D01*
X110381049Y-96070118D01*
X110656741Y-96258490D01*
X110984000Y-96324762D01*
X113016000Y-96324762D01*
X113321727Y-96267236D01*
X113602518Y-96086551D01*
X113790890Y-95810859D01*
X113851478Y-95511667D01*
X115849706Y-95511667D01*
X116107970Y-96136715D01*
X116585770Y-96615350D01*
X117210366Y-96874704D01*
X117886667Y-96875294D01*
X118511715Y-96617030D01*
X118900581Y-96228843D01*
X119166312Y-96495038D01*
X119738735Y-96732729D01*
X120358546Y-96733270D01*
X120931383Y-96496578D01*
X121300259Y-96128345D01*
X121666312Y-96495038D01*
X122238735Y-96732729D01*
X122858546Y-96733270D01*
X123431383Y-96496578D01*
X123565322Y-96362872D01*
X123595981Y-96436889D01*
X123788112Y-96629019D01*
X124039143Y-96733000D01*
X124800250Y-96733000D01*
X124971000Y-96562250D01*
X124971000Y-95254000D01*
X125129000Y-95254000D01*
X125129000Y-96562250D01*
X125299750Y-96733000D01*
X126060857Y-96733000D01*
X126311888Y-96629019D01*
X126504019Y-96436889D01*
X126608000Y-96185857D01*
X126608000Y-95424750D01*
X126437250Y-95254000D01*
X125129000Y-95254000D01*
X124971000Y-95254000D01*
X124951000Y-95254000D01*
X124951000Y-95096000D01*
X124971000Y-95096000D01*
X124971000Y-95076000D01*
X125129000Y-95076000D01*
X125129000Y-95096000D01*
X126437250Y-95096000D01*
X126608000Y-94925250D01*
X126608000Y-94293892D01*
X127567000Y-95252892D01*
X127567000Y-97049832D01*
X127566999Y-97049837D01*
X127638020Y-97406881D01*
X127840269Y-97709568D01*
X129021862Y-98891160D01*
X129021864Y-98891163D01*
X129324551Y-99093412D01*
X129383789Y-99105195D01*
X129681595Y-99164433D01*
X129681600Y-99164432D01*
X135337431Y-99164432D01*
X135337436Y-99164433D01*
X135694480Y-99093412D01*
X135997167Y-98891163D01*
X137934728Y-96953601D01*
X137934731Y-96953599D01*
X138136980Y-96650912D01*
X138170477Y-96482508D01*
X138290322Y-96362872D01*
X138320981Y-96436889D01*
X138513112Y-96629019D01*
X138764143Y-96733000D01*
X139525250Y-96733000D01*
X139696000Y-96562250D01*
X139696000Y-95254000D01*
X139854000Y-95254000D01*
X139854000Y-96562250D01*
X140024750Y-96733000D01*
X140785857Y-96733000D01*
X141036888Y-96629019D01*
X141229019Y-96436889D01*
X141333000Y-96185857D01*
X141333000Y-95424750D01*
X141162250Y-95254000D01*
X139854000Y-95254000D01*
X139696000Y-95254000D01*
X139676000Y-95254000D01*
X139676000Y-95096000D01*
X139696000Y-95096000D01*
X139696000Y-93787750D01*
X139854000Y-93787750D01*
X139854000Y-95096000D01*
X141162250Y-95096000D01*
X141333000Y-94925250D01*
X141333000Y-94164143D01*
X141229019Y-93913111D01*
X141036888Y-93720981D01*
X140785857Y-93617000D01*
X140024750Y-93617000D01*
X139854000Y-93787750D01*
X139696000Y-93787750D01*
X139525250Y-93617000D01*
X138764143Y-93617000D01*
X138513112Y-93720981D01*
X138320981Y-93913111D01*
X138290410Y-93986915D01*
X138158688Y-93854962D01*
X137586265Y-93617271D01*
X136966454Y-93616730D01*
X136393617Y-93853422D01*
X136024741Y-94221655D01*
X135658688Y-93854962D01*
X135086265Y-93617271D01*
X134466454Y-93616730D01*
X133893617Y-93853422D01*
X133625238Y-94121333D01*
X133239230Y-93734650D01*
X132614634Y-93475296D01*
X131938333Y-93474706D01*
X131313285Y-93732970D01*
X130834650Y-94210770D01*
X130575296Y-94835366D01*
X130574706Y-95511667D01*
X130832970Y-96136715D01*
X130994405Y-96298432D01*
X130468097Y-96298432D01*
X130333011Y-96163346D01*
X130333011Y-94313038D01*
X130261991Y-93955994D01*
X130059742Y-93653307D01*
X130059739Y-93653305D01*
X127978124Y-91571689D01*
X127675437Y-91369440D01*
X127318393Y-91298419D01*
X127318388Y-91298420D01*
X121637581Y-91298420D01*
X121637576Y-91298419D01*
X121339770Y-91357657D01*
X121280532Y-91369440D01*
X120977845Y-91571689D01*
X120977843Y-91571692D01*
X119390269Y-93159265D01*
X119188020Y-93461952D01*
X119116999Y-93818996D01*
X119117000Y-93819001D01*
X119117000Y-93904949D01*
X118900238Y-94121333D01*
X118514230Y-93734650D01*
X117889634Y-93475296D01*
X117213333Y-93474706D01*
X116588285Y-93732970D01*
X116109650Y-94210770D01*
X115850296Y-94835366D01*
X115849706Y-95511667D01*
X113851478Y-95511667D01*
X113857162Y-95483600D01*
X113857162Y-93756400D01*
X113799636Y-93450673D01*
X113618951Y-93169882D01*
X113504379Y-93091598D01*
X113748530Y-92726199D01*
X113877067Y-92080000D01*
X113748530Y-91433801D01*
X113382488Y-90885979D01*
X113268777Y-90810000D01*
X113382488Y-90734021D01*
X113748530Y-90186199D01*
X113877067Y-89540000D01*
X113748530Y-88893801D01*
X113382488Y-88345979D01*
X113268777Y-88270000D01*
X113382488Y-88194021D01*
X113748530Y-87646199D01*
X113877067Y-87000000D01*
X113748530Y-86353801D01*
X113382488Y-85805979D01*
X113268777Y-85730000D01*
X113382488Y-85654021D01*
X113748530Y-85106199D01*
X113877067Y-84460000D01*
X113748530Y-83813801D01*
X113382488Y-83265979D01*
X112834666Y-82899937D01*
X112188467Y-82771400D01*
X111811533Y-82771400D01*
X111165334Y-82899937D01*
X110617512Y-83265979D01*
X110251470Y-83813801D01*
X110122933Y-84460000D01*
X106816279Y-84460000D01*
X106642030Y-84038285D01*
X106354164Y-83749916D01*
X106640350Y-83464230D01*
X106899704Y-82839634D01*
X106900294Y-82163333D01*
X106642030Y-81538285D01*
X106354164Y-81249916D01*
X106640350Y-80964230D01*
X106899704Y-80339634D01*
X106899763Y-80271321D01*
X110182814Y-80271321D01*
X110459991Y-80942140D01*
X110972780Y-81455826D01*
X111643114Y-81734173D01*
X112368941Y-81734806D01*
X113039760Y-81457629D01*
X113553446Y-80944840D01*
X113831793Y-80274506D01*
X113832426Y-79548679D01*
X113555249Y-78877860D01*
X113042460Y-78364174D01*
X112372126Y-78085827D01*
X111646299Y-78085194D01*
X110975480Y-78362371D01*
X110461794Y-78875160D01*
X110183447Y-79545494D01*
X110182814Y-80271321D01*
X106899763Y-80271321D01*
X106900294Y-79663333D01*
X106642030Y-79038285D01*
X106164230Y-78559650D01*
X105539634Y-78300296D01*
X104863333Y-78299706D01*
X104238285Y-78557970D01*
X103759650Y-79035770D01*
X103500296Y-79660366D01*
X103499706Y-80336667D01*
X103757970Y-80961715D01*
X104045836Y-81250084D01*
X103759650Y-81535770D01*
X103500296Y-82160366D01*
X103499706Y-82836667D01*
X103757970Y-83461715D01*
X104045836Y-83750084D01*
X103759650Y-84035770D01*
X103500296Y-84660366D01*
X103499706Y-85336667D01*
X103757970Y-85961715D01*
X104045836Y-86250084D01*
X103759650Y-86535770D01*
X103500296Y-87160366D01*
X103499706Y-87836667D01*
X103757970Y-88461715D01*
X103787020Y-88490816D01*
X103738482Y-88522049D01*
X103550110Y-88797741D01*
X103483838Y-89125000D01*
X100758000Y-89125000D01*
X100758000Y-73500000D01*
X103323573Y-73500000D01*
X103454881Y-74160129D01*
X103828814Y-74719759D01*
X104388444Y-75093692D01*
X105048573Y-75225000D01*
X106951427Y-75225000D01*
X107611556Y-75093692D01*
X108171186Y-74719759D01*
X108545119Y-74160129D01*
X108676427Y-73500000D01*
X108545119Y-72839871D01*
X108171186Y-72280241D01*
X107611556Y-71906308D01*
X106951427Y-71775000D01*
X105048573Y-71775000D01*
X104388444Y-71906308D01*
X103828814Y-72280241D01*
X103454881Y-72839871D01*
X103323573Y-73500000D01*
X100758000Y-73500000D01*
X100758000Y-70249750D01*
X103517000Y-70249750D01*
X103517000Y-71035857D01*
X103620981Y-71286888D01*
X103813111Y-71479019D01*
X104064143Y-71583000D01*
X105750250Y-71583000D01*
X105921000Y-71412250D01*
X105921000Y-70079000D01*
X106079000Y-70079000D01*
X106079000Y-71412250D01*
X106249750Y-71583000D01*
X107935857Y-71583000D01*
X108186889Y-71479019D01*
X108379019Y-71286888D01*
X108483000Y-71035857D01*
X108483000Y-70249750D01*
X108312250Y-70079000D01*
X106079000Y-70079000D01*
X105921000Y-70079000D01*
X103687750Y-70079000D01*
X103517000Y-70249750D01*
X100758000Y-70249750D01*
X100758000Y-68964143D01*
X103517000Y-68964143D01*
X103517000Y-69750250D01*
X103687750Y-69921000D01*
X105921000Y-69921000D01*
X105921000Y-68587750D01*
X106079000Y-68587750D01*
X106079000Y-69921000D01*
X108312250Y-69921000D01*
X108483000Y-69750250D01*
X108483000Y-68964143D01*
X108394510Y-68750510D01*
X110166968Y-68750510D01*
X110166968Y-70749490D01*
X110224494Y-71055217D01*
X110405179Y-71336008D01*
X110432620Y-71354758D01*
X110432620Y-72249490D01*
X110552510Y-72852217D01*
X110893927Y-73363183D01*
X114774999Y-77244255D01*
X114774999Y-81849999D01*
X114894889Y-82452726D01*
X115236306Y-82963692D01*
X116925085Y-84652471D01*
X116924598Y-85210442D01*
X117277812Y-86065286D01*
X117931274Y-86719889D01*
X118785500Y-87074595D01*
X119710442Y-87075402D01*
X120565286Y-86722188D01*
X121219889Y-86068726D01*
X121574595Y-85214500D01*
X121575402Y-84289558D01*
X121222188Y-83434714D01*
X120568726Y-82780111D01*
X119714500Y-82425405D01*
X119152300Y-82424914D01*
X117924999Y-81197613D01*
X117924999Y-76591869D01*
X117805109Y-75989143D01*
X117805109Y-75989142D01*
X117463692Y-75478176D01*
X115888131Y-73902615D01*
X117216648Y-73902615D01*
X117525501Y-74650098D01*
X118096894Y-75222489D01*
X118843837Y-75532647D01*
X119652615Y-75533352D01*
X120400098Y-75224499D01*
X120972489Y-74653106D01*
X121282647Y-73906163D01*
X121282848Y-73675000D01*
X126708838Y-73675000D01*
X126708838Y-89425000D01*
X126766364Y-89730727D01*
X126947049Y-90011518D01*
X127222741Y-90199890D01*
X127550000Y-90266162D01*
X137550000Y-90266162D01*
X137855727Y-90208636D01*
X138136518Y-90027951D01*
X138324890Y-89752259D01*
X138391162Y-89425000D01*
X138391162Y-86398770D01*
X139217560Y-86398770D01*
X139217560Y-86884317D01*
X139321541Y-87135348D01*
X139513671Y-87327479D01*
X139764703Y-87431460D01*
X140250250Y-87431460D01*
X140421000Y-87260710D01*
X140421000Y-86228020D01*
X139388310Y-86228020D01*
X139217560Y-86398770D01*
X138391162Y-86398770D01*
X138391162Y-83451540D01*
X139059398Y-83451540D01*
X139059398Y-84650420D01*
X139116924Y-84956147D01*
X139293459Y-85230488D01*
X139217560Y-85413723D01*
X139217560Y-85899270D01*
X139388310Y-86070020D01*
X140421000Y-86070020D01*
X140421000Y-86050020D01*
X140579000Y-86050020D01*
X140579000Y-86070020D01*
X140599000Y-86070020D01*
X140599000Y-86228020D01*
X140579000Y-86228020D01*
X140579000Y-87260710D01*
X140749750Y-87431460D01*
X141235297Y-87431460D01*
X141486329Y-87327479D01*
X141517000Y-87296808D01*
X141517000Y-88035857D01*
X141620981Y-88286888D01*
X141813111Y-88479019D01*
X142064143Y-88583000D01*
X143750250Y-88583000D01*
X143921000Y-88412250D01*
X143921000Y-87079000D01*
X144079000Y-87079000D01*
X144079000Y-88412250D01*
X144249750Y-88583000D01*
X145935857Y-88583000D01*
X146186889Y-88479019D01*
X146379019Y-88286888D01*
X146483000Y-88035857D01*
X146483000Y-87249750D01*
X146312250Y-87079000D01*
X144079000Y-87079000D01*
X143921000Y-87079000D01*
X143901000Y-87079000D01*
X143901000Y-86921000D01*
X143921000Y-86921000D01*
X143921000Y-85587750D01*
X144079000Y-85587750D01*
X144079000Y-86921000D01*
X146312250Y-86921000D01*
X146483000Y-86750250D01*
X146483000Y-85964143D01*
X146379019Y-85713112D01*
X146186889Y-85520981D01*
X145935857Y-85417000D01*
X144249750Y-85417000D01*
X144079000Y-85587750D01*
X143921000Y-85587750D01*
X143750250Y-85417000D01*
X142064143Y-85417000D01*
X141813111Y-85520981D01*
X141782440Y-85551652D01*
X141782440Y-85413723D01*
X141704674Y-85225980D01*
X141874330Y-84977679D01*
X141914911Y-84777287D01*
X142388444Y-85093692D01*
X143048573Y-85225000D01*
X144951427Y-85225000D01*
X145611556Y-85093692D01*
X146171186Y-84719759D01*
X146545119Y-84160129D01*
X146676427Y-83500000D01*
X146545119Y-82839871D01*
X146346811Y-82543082D01*
X146425000Y-82150000D01*
X146425000Y-80421234D01*
X146686518Y-80252951D01*
X146874890Y-79977259D01*
X146941162Y-79650000D01*
X146941162Y-78350000D01*
X146883636Y-78044273D01*
X146702951Y-77763482D01*
X146427259Y-77575110D01*
X146100000Y-77508838D01*
X144600000Y-77508838D01*
X144294273Y-77566364D01*
X144013482Y-77747049D01*
X144002476Y-77763157D01*
X143727259Y-77575110D01*
X143400000Y-77508838D01*
X141900000Y-77508838D01*
X141594273Y-77566364D01*
X141313482Y-77747049D01*
X141125110Y-78022741D01*
X141058838Y-78350000D01*
X141058838Y-79650000D01*
X141116364Y-79955727D01*
X141197658Y-80082062D01*
X139739860Y-81539860D01*
X139506830Y-81888615D01*
X139425000Y-82300000D01*
X139425000Y-82777189D01*
X139314042Y-82848589D01*
X139125670Y-83124281D01*
X139059398Y-83451540D01*
X138391162Y-83451540D01*
X138391162Y-73675000D01*
X138333636Y-73369273D01*
X138152951Y-73088482D01*
X137877259Y-72900110D01*
X137550000Y-72833838D01*
X127550000Y-72833838D01*
X127244273Y-72891364D01*
X126963482Y-73072049D01*
X126775110Y-73347741D01*
X126708838Y-73675000D01*
X121282848Y-73675000D01*
X121283352Y-73097385D01*
X120974499Y-72349902D01*
X120403106Y-71777511D01*
X119656163Y-71467353D01*
X118847385Y-71466648D01*
X118099902Y-71775501D01*
X117527511Y-72346894D01*
X117217353Y-73093837D01*
X117216648Y-73902615D01*
X115888131Y-73902615D01*
X113582620Y-71597104D01*
X113582620Y-71359524D01*
X113593628Y-71352441D01*
X113782000Y-71076749D01*
X113848272Y-70749490D01*
X113848272Y-69000000D01*
X125533838Y-69000000D01*
X125533838Y-70500000D01*
X125591364Y-70805727D01*
X125772049Y-71086518D01*
X126047741Y-71274890D01*
X126375000Y-71341162D01*
X127625000Y-71341162D01*
X127930727Y-71283636D01*
X128211518Y-71102951D01*
X128386952Y-70846195D01*
X128462844Y-71227731D01*
X128825858Y-71771020D01*
X129369147Y-72134034D01*
X130010000Y-72261508D01*
X130650853Y-72134034D01*
X131194142Y-71771020D01*
X131280000Y-71642524D01*
X131365858Y-71771020D01*
X131909147Y-72134034D01*
X132550000Y-72261508D01*
X133190853Y-72134034D01*
X133734142Y-71771020D01*
X133820000Y-71642524D01*
X133905858Y-71771020D01*
X134449147Y-72134034D01*
X135090000Y-72261508D01*
X135730853Y-72134034D01*
X136274142Y-71771020D01*
X136637156Y-71227731D01*
X136764630Y-70586878D01*
X136764630Y-68685122D01*
X136637156Y-68044269D01*
X136362701Y-67633519D01*
X136510140Y-67486080D01*
X136523768Y-67465683D01*
X139217560Y-67465683D01*
X139217560Y-67951230D01*
X139388310Y-68121980D01*
X140421000Y-68121980D01*
X140421000Y-67089290D01*
X140250250Y-66918540D01*
X139764703Y-66918540D01*
X139513671Y-67022521D01*
X139321541Y-67214652D01*
X139217560Y-67465683D01*
X136523768Y-67465683D01*
X136629129Y-67308000D01*
X136743170Y-67137325D01*
X136825000Y-66725940D01*
X136825000Y-64420000D01*
X136743170Y-64008615D01*
X136510140Y-63659860D01*
X134916943Y-62066663D01*
X134917275Y-61685711D01*
X134676177Y-61102211D01*
X134230137Y-60655392D01*
X133647059Y-60413276D01*
X133015711Y-60412725D01*
X132432211Y-60653823D01*
X131985392Y-61099863D01*
X131951623Y-61181187D01*
X131765214Y-61136509D01*
X130901723Y-62000000D01*
X131765214Y-62863491D01*
X131951230Y-62818908D01*
X131983823Y-62897789D01*
X132429863Y-63344608D01*
X133012941Y-63586724D01*
X133396779Y-63587059D01*
X134675000Y-64865280D01*
X134675000Y-66280660D01*
X134341162Y-66614498D01*
X134341162Y-65375000D01*
X134283636Y-65069273D01*
X134102951Y-64788482D01*
X133827259Y-64600110D01*
X133500000Y-64533838D01*
X132000000Y-64533838D01*
X131694273Y-64591364D01*
X131413482Y-64772049D01*
X131392973Y-64802066D01*
X131386888Y-64795981D01*
X131135857Y-64692000D01*
X130499750Y-64692000D01*
X130329000Y-64862750D01*
X130329000Y-65921000D01*
X130349000Y-65921000D01*
X130349000Y-66079000D01*
X130329000Y-66079000D01*
X130329000Y-66099000D01*
X130171000Y-66099000D01*
X130171000Y-66079000D01*
X128987750Y-66079000D01*
X128817000Y-66249750D01*
X128817000Y-66760857D01*
X128920981Y-67011889D01*
X129113112Y-67204019D01*
X129210141Y-67244210D01*
X128825858Y-67500980D01*
X128462844Y-68044269D01*
X128351280Y-68605139D01*
X128227951Y-68413482D01*
X128197934Y-68392973D01*
X128204019Y-68386888D01*
X128308000Y-68135857D01*
X128308000Y-67499750D01*
X128137250Y-67329000D01*
X127079000Y-67329000D01*
X127079000Y-67349000D01*
X126921000Y-67349000D01*
X126921000Y-67329000D01*
X125862750Y-67329000D01*
X125692000Y-67499750D01*
X125692000Y-68135857D01*
X125795981Y-68386888D01*
X125799227Y-68390134D01*
X125788482Y-68397049D01*
X125600110Y-68672741D01*
X125533838Y-69000000D01*
X113848272Y-69000000D01*
X113848272Y-68750510D01*
X113790746Y-68444783D01*
X113610061Y-68163992D01*
X113334369Y-67975620D01*
X113007110Y-67909348D01*
X111008130Y-67909348D01*
X110702403Y-67966874D01*
X110421612Y-68147559D01*
X110233240Y-68423251D01*
X110166968Y-68750510D01*
X108394510Y-68750510D01*
X108379019Y-68713112D01*
X108186889Y-68520981D01*
X107935857Y-68417000D01*
X106249750Y-68417000D01*
X106079000Y-68587750D01*
X105921000Y-68587750D01*
X105750250Y-68417000D01*
X104064143Y-68417000D01*
X103813111Y-68520981D01*
X103620981Y-68713112D01*
X103517000Y-68964143D01*
X100758000Y-68964143D01*
X100758000Y-66364143D01*
X125692000Y-66364143D01*
X125692000Y-67000250D01*
X125862750Y-67171000D01*
X126921000Y-67171000D01*
X126921000Y-65987750D01*
X127079000Y-65987750D01*
X127079000Y-67171000D01*
X128137250Y-67171000D01*
X128308000Y-67000250D01*
X128308000Y-66364143D01*
X128204019Y-66113112D01*
X128011889Y-65920981D01*
X127760857Y-65817000D01*
X127249750Y-65817000D01*
X127079000Y-65987750D01*
X126921000Y-65987750D01*
X126750250Y-65817000D01*
X126239143Y-65817000D01*
X125988111Y-65920981D01*
X125795981Y-66113112D01*
X125692000Y-66364143D01*
X100758000Y-66364143D01*
X100758000Y-65239143D01*
X128817000Y-65239143D01*
X128817000Y-65750250D01*
X128987750Y-65921000D01*
X130171000Y-65921000D01*
X130171000Y-64862750D01*
X130000250Y-64692000D01*
X129364143Y-64692000D01*
X129113112Y-64795981D01*
X128920981Y-64988111D01*
X128817000Y-65239143D01*
X100758000Y-65239143D01*
X100758000Y-63500000D01*
X103323573Y-63500000D01*
X103454881Y-64160129D01*
X103828814Y-64719759D01*
X104388444Y-65093692D01*
X105048573Y-65225000D01*
X106951427Y-65225000D01*
X107611556Y-65093692D01*
X108171186Y-64719759D01*
X108545119Y-64160129D01*
X108676427Y-63500000D01*
X108545119Y-62839871D01*
X108458638Y-62710442D01*
X116924598Y-62710442D01*
X117277812Y-63565286D01*
X117931274Y-64219889D01*
X118785500Y-64574595D01*
X119710442Y-64575402D01*
X120565286Y-64222188D01*
X121219889Y-63568726D01*
X121466336Y-62975214D01*
X127386509Y-62975214D01*
X127449169Y-63236652D01*
X127983375Y-63448983D01*
X128558172Y-63440718D01*
X129050831Y-63236652D01*
X129113491Y-62975214D01*
X129926509Y-62975214D01*
X129989169Y-63236652D01*
X130523375Y-63448983D01*
X131098172Y-63440718D01*
X131590831Y-63236652D01*
X131653491Y-62975214D01*
X130790000Y-62111723D01*
X129926509Y-62975214D01*
X129113491Y-62975214D01*
X128250000Y-62111723D01*
X127386509Y-62975214D01*
X121466336Y-62975214D01*
X121574595Y-62714500D01*
X121575402Y-61789558D01*
X121552188Y-61733375D01*
X126801017Y-61733375D01*
X126809282Y-62308172D01*
X127013348Y-62800831D01*
X127274786Y-62863491D01*
X128138277Y-62000000D01*
X128361723Y-62000000D01*
X129225214Y-62863491D01*
X129486652Y-62800831D01*
X129519312Y-62718661D01*
X129553348Y-62800831D01*
X129814786Y-62863491D01*
X130678277Y-62000000D01*
X129814786Y-61136509D01*
X129553348Y-61199169D01*
X129520688Y-61281339D01*
X129486652Y-61199169D01*
X129225214Y-61136509D01*
X128361723Y-62000000D01*
X128138277Y-62000000D01*
X127274786Y-61136509D01*
X127013348Y-61199169D01*
X126801017Y-61733375D01*
X121552188Y-61733375D01*
X121259405Y-61024786D01*
X127386509Y-61024786D01*
X128250000Y-61888277D01*
X129113491Y-61024786D01*
X129926509Y-61024786D01*
X130790000Y-61888277D01*
X131653491Y-61024786D01*
X131590831Y-60763348D01*
X131056625Y-60551017D01*
X130481828Y-60559282D01*
X129989169Y-60763348D01*
X129926509Y-61024786D01*
X129113491Y-61024786D01*
X129050831Y-60763348D01*
X128516625Y-60551017D01*
X127941828Y-60559282D01*
X127449169Y-60763348D01*
X127386509Y-61024786D01*
X121259405Y-61024786D01*
X121222188Y-60934714D01*
X120568726Y-60280111D01*
X119714500Y-59925405D01*
X118789558Y-59924598D01*
X117934714Y-60277812D01*
X117280111Y-60931274D01*
X116925405Y-61785500D01*
X116924598Y-62710442D01*
X108458638Y-62710442D01*
X108171186Y-62280241D01*
X107611556Y-61906308D01*
X106951427Y-61775000D01*
X105048573Y-61775000D01*
X104388444Y-61906308D01*
X103828814Y-62280241D01*
X103454881Y-62839871D01*
X103323573Y-63500000D01*
X100758000Y-63500000D01*
X100758000Y-60249750D01*
X103517000Y-60249750D01*
X103517000Y-61035857D01*
X103620981Y-61286888D01*
X103813111Y-61479019D01*
X104064143Y-61583000D01*
X105750250Y-61583000D01*
X105921000Y-61412250D01*
X105921000Y-60079000D01*
X106079000Y-60079000D01*
X106079000Y-61412250D01*
X106249750Y-61583000D01*
X107935857Y-61583000D01*
X108186889Y-61479019D01*
X108379019Y-61286888D01*
X108483000Y-61035857D01*
X108483000Y-60249750D01*
X108312250Y-60079000D01*
X106079000Y-60079000D01*
X105921000Y-60079000D01*
X103687750Y-60079000D01*
X103517000Y-60249750D01*
X100758000Y-60249750D01*
X100758000Y-58964143D01*
X103517000Y-58964143D01*
X103517000Y-59750250D01*
X103687750Y-59921000D01*
X105921000Y-59921000D01*
X105921000Y-58587750D01*
X106079000Y-58587750D01*
X106079000Y-59921000D01*
X108312250Y-59921000D01*
X108483000Y-59750250D01*
X108483000Y-58964143D01*
X108379019Y-58713112D01*
X108186889Y-58520981D01*
X107935857Y-58417000D01*
X106249750Y-58417000D01*
X106079000Y-58587750D01*
X105921000Y-58587750D01*
X105750250Y-58417000D01*
X104064143Y-58417000D01*
X103813111Y-58520981D01*
X103620981Y-58713112D01*
X103517000Y-58964143D01*
X100758000Y-58964143D01*
X100758000Y-55048573D01*
X113775000Y-55048573D01*
X113775000Y-56951427D01*
X113906308Y-57611556D01*
X114280241Y-58171186D01*
X114839871Y-58545119D01*
X115500000Y-58676427D01*
X116160129Y-58545119D01*
X116719759Y-58171186D01*
X117093692Y-57611556D01*
X117225000Y-56951427D01*
X117225000Y-55048573D01*
X117275000Y-55048573D01*
X117275000Y-56951427D01*
X117406308Y-57611556D01*
X117780241Y-58171186D01*
X118339871Y-58545119D01*
X119000000Y-58676427D01*
X119660129Y-58545119D01*
X120219759Y-58171186D01*
X120593692Y-57611556D01*
X120725000Y-56951427D01*
X120725000Y-55048573D01*
X120775000Y-55048573D01*
X120775000Y-56951427D01*
X120906308Y-57611556D01*
X121280241Y-58171186D01*
X121839871Y-58545119D01*
X122500000Y-58676427D01*
X123160129Y-58545119D01*
X123719759Y-58171186D01*
X124093692Y-57611556D01*
X124225000Y-56951427D01*
X124225000Y-56249750D01*
X124417000Y-56249750D01*
X124417000Y-57935857D01*
X124520981Y-58186889D01*
X124713112Y-58379019D01*
X124964143Y-58483000D01*
X125750250Y-58483000D01*
X125921000Y-58312250D01*
X125921000Y-56079000D01*
X126079000Y-56079000D01*
X126079000Y-58312250D01*
X126249750Y-58483000D01*
X127035857Y-58483000D01*
X127286888Y-58379019D01*
X127479019Y-58186889D01*
X127583000Y-57935857D01*
X127583000Y-56249750D01*
X127412250Y-56079000D01*
X126079000Y-56079000D01*
X125921000Y-56079000D01*
X124587750Y-56079000D01*
X124417000Y-56249750D01*
X124225000Y-56249750D01*
X124225000Y-55048573D01*
X124093692Y-54388444D01*
X123877001Y-54064143D01*
X124417000Y-54064143D01*
X124417000Y-55750250D01*
X124587750Y-55921000D01*
X125921000Y-55921000D01*
X125921000Y-53687750D01*
X126079000Y-53687750D01*
X126079000Y-55921000D01*
X127412250Y-55921000D01*
X127583000Y-55750250D01*
X127583000Y-55048573D01*
X134025000Y-55048573D01*
X134025000Y-56951427D01*
X134156308Y-57611556D01*
X134530241Y-58171186D01*
X135089871Y-58545119D01*
X135750000Y-58676427D01*
X136410129Y-58545119D01*
X136969759Y-58171186D01*
X137343692Y-57611556D01*
X137475000Y-56951427D01*
X137475000Y-55048573D01*
X137343692Y-54388444D01*
X137217778Y-54200000D01*
X137508838Y-54200000D01*
X137508838Y-57800000D01*
X137566364Y-58105727D01*
X137675000Y-58274551D01*
X137675000Y-62750000D01*
X137794890Y-63352727D01*
X138136307Y-63863693D01*
X141191154Y-66918540D01*
X140749750Y-66918540D01*
X140579000Y-67089290D01*
X140579000Y-68121980D01*
X140599000Y-68121980D01*
X140599000Y-68279980D01*
X140579000Y-68279980D01*
X140579000Y-68299980D01*
X140421000Y-68299980D01*
X140421000Y-68279980D01*
X139388310Y-68279980D01*
X139217560Y-68450730D01*
X139217560Y-68936277D01*
X139295326Y-69124020D01*
X139125670Y-69372321D01*
X139059398Y-69699580D01*
X139059398Y-70898460D01*
X139116924Y-71204187D01*
X139297609Y-71484978D01*
X139425000Y-71572020D01*
X139425000Y-73550000D01*
X139506830Y-73961385D01*
X139558434Y-74038616D01*
X139739860Y-74310140D01*
X141058838Y-75629118D01*
X141058838Y-76250000D01*
X141116364Y-76555727D01*
X141297049Y-76836518D01*
X141572741Y-77024890D01*
X141900000Y-77091162D01*
X143400000Y-77091162D01*
X143705727Y-77033636D01*
X143986518Y-76852951D01*
X143997524Y-76836843D01*
X144272741Y-77024890D01*
X144600000Y-77091162D01*
X146100000Y-77091162D01*
X146405727Y-77033636D01*
X146686518Y-76852951D01*
X146874890Y-76577259D01*
X146941162Y-76250000D01*
X146941162Y-74950000D01*
X146883636Y-74644273D01*
X146802342Y-74517938D01*
X147460141Y-73860139D01*
X147693172Y-73511383D01*
X147775001Y-73099999D01*
X147775001Y-69300001D01*
X147693171Y-68888616D01*
X147460141Y-68539861D01*
X146633929Y-67713649D01*
X146676427Y-67500000D01*
X146545119Y-66839871D01*
X146171186Y-66280241D01*
X145611556Y-65906308D01*
X144951427Y-65775000D01*
X144502386Y-65775000D01*
X140825000Y-62097614D01*
X140825000Y-58273453D01*
X140924890Y-58127259D01*
X140991162Y-57800000D01*
X140991162Y-54200000D01*
X140933636Y-53894273D01*
X140752951Y-53613482D01*
X140477259Y-53425110D01*
X140150000Y-53358838D01*
X138350000Y-53358838D01*
X138044273Y-53416364D01*
X137763482Y-53597049D01*
X137575110Y-53872741D01*
X137508838Y-54200000D01*
X137217778Y-54200000D01*
X136969759Y-53828814D01*
X136410129Y-53454881D01*
X135750000Y-53323573D01*
X135089871Y-53454881D01*
X134530241Y-53828814D01*
X134156308Y-54388444D01*
X134025000Y-55048573D01*
X127583000Y-55048573D01*
X127583000Y-54064143D01*
X127479019Y-53813111D01*
X127286888Y-53620981D01*
X127035857Y-53517000D01*
X126249750Y-53517000D01*
X126079000Y-53687750D01*
X125921000Y-53687750D01*
X125750250Y-53517000D01*
X124964143Y-53517000D01*
X124713112Y-53620981D01*
X124520981Y-53813111D01*
X124417000Y-54064143D01*
X123877001Y-54064143D01*
X123719759Y-53828814D01*
X123160129Y-53454881D01*
X122500000Y-53323573D01*
X121839871Y-53454881D01*
X121280241Y-53828814D01*
X120906308Y-54388444D01*
X120775000Y-55048573D01*
X120725000Y-55048573D01*
X120593692Y-54388444D01*
X120219759Y-53828814D01*
X119660129Y-53454881D01*
X119000000Y-53323573D01*
X118339871Y-53454881D01*
X117780241Y-53828814D01*
X117406308Y-54388444D01*
X117275000Y-55048573D01*
X117225000Y-55048573D01*
X117093692Y-54388444D01*
X116719759Y-53828814D01*
X116160129Y-53454881D01*
X115500000Y-53323573D01*
X114839871Y-53454881D01*
X114280241Y-53828814D01*
X113906308Y-54388444D01*
X113775000Y-55048573D01*
X100758000Y-55048573D01*
X100758000Y-50758000D01*
X149242000Y-50758000D01*
X149242000Y-99242000D01*
G36*
X141828814Y-68719759D02*
X142388444Y-69093692D01*
X143048573Y-69225000D01*
X144951427Y-69225000D01*
X145079287Y-69199567D01*
X145296720Y-69417000D01*
X144249750Y-69417000D01*
X144079000Y-69587750D01*
X144079000Y-70921000D01*
X144099000Y-70921000D01*
X144099000Y-71079000D01*
X144079000Y-71079000D01*
X144079000Y-72412250D01*
X144249750Y-72583000D01*
X145625001Y-72583000D01*
X145625001Y-72654719D01*
X144589860Y-73689860D01*
X144356830Y-74038615D01*
X144332863Y-74159103D01*
X144294273Y-74166364D01*
X144013482Y-74347049D01*
X144002476Y-74363157D01*
X143727259Y-74175110D01*
X143400000Y-74108838D01*
X142579118Y-74108838D01*
X141575000Y-73104720D01*
X141575000Y-72175881D01*
X141620981Y-72286888D01*
X141813111Y-72479019D01*
X142064143Y-72583000D01*
X143750250Y-72583000D01*
X143921000Y-72412250D01*
X143921000Y-71079000D01*
X143901000Y-71079000D01*
X143901000Y-70921000D01*
X143921000Y-70921000D01*
X143921000Y-69587750D01*
X143750250Y-69417000D01*
X142064143Y-69417000D01*
X141900208Y-69484904D01*
X141883076Y-69393853D01*
X141706541Y-69119512D01*
X141782440Y-68936277D01*
X141782440Y-68650355D01*
X141828814Y-68719759D01*
X141828814Y-68719759D01*
G37*
X141828814Y-68719759D02*
X142388444Y-69093692D01*
X143048573Y-69225000D01*
X144951427Y-69225000D01*
X145079287Y-69199567D01*
X145296720Y-69417000D01*
X144249750Y-69417000D01*
X144079000Y-69587750D01*
X144079000Y-70921000D01*
X144099000Y-70921000D01*
X144099000Y-71079000D01*
X144079000Y-71079000D01*
X144079000Y-72412250D01*
X144249750Y-72583000D01*
X145625001Y-72583000D01*
X145625001Y-72654719D01*
X144589860Y-73689860D01*
X144356830Y-74038615D01*
X144332863Y-74159103D01*
X144294273Y-74166364D01*
X144013482Y-74347049D01*
X144002476Y-74363157D01*
X143727259Y-74175110D01*
X143400000Y-74108838D01*
X142579118Y-74108838D01*
X141575000Y-73104720D01*
X141575000Y-72175881D01*
X141620981Y-72286888D01*
X141813111Y-72479019D01*
X142064143Y-72583000D01*
X143750250Y-72583000D01*
X143921000Y-72412250D01*
X143921000Y-71079000D01*
X143901000Y-71079000D01*
X143901000Y-70921000D01*
X143921000Y-70921000D01*
X143921000Y-69587750D01*
X143750250Y-69417000D01*
X142064143Y-69417000D01*
X141900208Y-69484904D01*
X141883076Y-69393853D01*
X141706541Y-69119512D01*
X141782440Y-68936277D01*
X141782440Y-68650355D01*
X141828814Y-68719759D01*
D37*
G36*
X149554000Y-149690000D02*
X100454000Y-149690000D01*
X100454000Y-138674362D01*
X107947000Y-138674362D01*
X107947000Y-139529024D01*
X108043369Y-139761678D01*
X108221435Y-139939744D01*
X108454089Y-140036112D01*
X108800750Y-140036112D01*
X108959000Y-139877862D01*
X108959000Y-138516112D01*
X109217000Y-138516112D01*
X109217000Y-139877862D01*
X109375250Y-140036112D01*
X109721911Y-140036112D01*
X109954565Y-139939744D01*
X110132631Y-139761678D01*
X110229000Y-139529024D01*
X110229000Y-138674362D01*
X110070750Y-138516112D01*
X109217000Y-138516112D01*
X108959000Y-138516112D01*
X108105250Y-138516112D01*
X107947000Y-138674362D01*
X100454000Y-138674362D01*
X100454000Y-134919088D01*
X107531000Y-134919088D01*
X107531000Y-135382750D01*
X107689250Y-135541000D01*
X108785000Y-135541000D01*
X108785000Y-134570250D01*
X108626750Y-134412000D01*
X108038089Y-134412000D01*
X107805435Y-134508368D01*
X107627369Y-134686434D01*
X107531000Y-134919088D01*
X100454000Y-134919088D01*
X100454000Y-130460000D01*
X103745749Y-130460000D01*
X103840032Y-130933992D01*
X104108527Y-131335822D01*
X104510357Y-131604317D01*
X104984349Y-131698600D01*
X105343651Y-131698600D01*
X105817643Y-131604317D01*
X106219473Y-131335822D01*
X106487968Y-130933992D01*
X106582251Y-130460000D01*
X106487968Y-129986008D01*
X106219473Y-129584178D01*
X105817643Y-129315683D01*
X105343651Y-129221400D01*
X104984349Y-129221400D01*
X104510357Y-129315683D01*
X104108527Y-129584178D01*
X103840032Y-129986008D01*
X103745749Y-130460000D01*
X100454000Y-130460000D01*
X100454000Y-127920000D01*
X103745749Y-127920000D01*
X103840032Y-128393992D01*
X104108527Y-128795822D01*
X104510357Y-129064317D01*
X104984349Y-129158600D01*
X105343651Y-129158600D01*
X105817643Y-129064317D01*
X106219473Y-128795822D01*
X106487968Y-128393992D01*
X106582251Y-127920000D01*
X106487968Y-127446008D01*
X106219473Y-127044178D01*
X105817643Y-126775683D01*
X105343651Y-126681400D01*
X104984349Y-126681400D01*
X104510357Y-126775683D01*
X104108527Y-127044178D01*
X103840032Y-127446008D01*
X103745749Y-127920000D01*
X100454000Y-127920000D01*
X100454000Y-110197256D01*
X103763757Y-110197256D01*
X103976445Y-110712000D01*
X104369928Y-111106170D01*
X104719302Y-111251243D01*
X104456857Y-111359684D01*
X104104919Y-111711007D01*
X103914217Y-112170269D01*
X103913783Y-112667550D01*
X104103684Y-113127143D01*
X104455007Y-113479081D01*
X104914269Y-113669783D01*
X104916445Y-113669785D01*
X104456857Y-113859684D01*
X104104919Y-114211007D01*
X103914217Y-114670269D01*
X103913783Y-115167550D01*
X104103684Y-115627143D01*
X104455007Y-115979081D01*
X104914269Y-116169783D01*
X104916445Y-116169785D01*
X104456857Y-116359684D01*
X104104919Y-116711007D01*
X103914217Y-117170269D01*
X103913783Y-117667550D01*
X104103684Y-118127143D01*
X104455007Y-118479081D01*
X104914269Y-118669783D01*
X105411550Y-118670217D01*
X105871143Y-118480316D01*
X106223081Y-118128993D01*
X106413783Y-117669731D01*
X106414217Y-117172450D01*
X106224316Y-116712857D01*
X105872993Y-116360919D01*
X105413731Y-116170217D01*
X105411555Y-116170215D01*
X105871143Y-115980316D01*
X106223081Y-115628993D01*
X106413783Y-115169731D01*
X106414217Y-114672450D01*
X106224316Y-114212857D01*
X105872993Y-113860919D01*
X105413731Y-113670217D01*
X105411555Y-113670215D01*
X105871143Y-113480316D01*
X106223081Y-113128993D01*
X106413783Y-112669731D01*
X106414135Y-112266151D01*
X106889000Y-112741016D01*
X106889000Y-120881406D01*
X106947993Y-121177986D01*
X107115992Y-121429414D01*
X109074821Y-123388243D01*
X109074821Y-124176111D01*
X109046856Y-124148097D01*
X108798855Y-124045117D01*
X108530323Y-124044883D01*
X108282143Y-124147429D01*
X108092097Y-124337144D01*
X107989117Y-124585145D01*
X107988883Y-124853677D01*
X108091429Y-125101857D01*
X108281144Y-125291903D01*
X108529145Y-125394883D01*
X108631866Y-125394973D01*
X109227760Y-125990867D01*
X109227760Y-127027512D01*
X109253908Y-127166478D01*
X109336037Y-127294111D01*
X109461352Y-127379735D01*
X109610106Y-127409858D01*
X110508569Y-127409858D01*
X110789000Y-127690289D01*
X110789000Y-134662654D01*
X110664000Y-134662654D01*
X110525034Y-134688802D01*
X110397401Y-134770931D01*
X110311777Y-134896246D01*
X110297000Y-134969218D01*
X110297000Y-134919088D01*
X110200631Y-134686434D01*
X110022565Y-134508368D01*
X109789911Y-134412000D01*
X109201250Y-134412000D01*
X109043000Y-134570250D01*
X109043000Y-135541000D01*
X109063000Y-135541000D01*
X109063000Y-135799000D01*
X109043000Y-135799000D01*
X109043000Y-135819000D01*
X108785000Y-135819000D01*
X108785000Y-135799000D01*
X107689250Y-135799000D01*
X107531000Y-135957250D01*
X107531000Y-136420912D01*
X107627369Y-136653566D01*
X107805435Y-136831632D01*
X108038089Y-136928000D01*
X108127915Y-136928000D01*
X108043369Y-137012546D01*
X107947000Y-137245200D01*
X107947000Y-138099862D01*
X108105250Y-138258112D01*
X108959000Y-138258112D01*
X108959000Y-138238112D01*
X109217000Y-138238112D01*
X109217000Y-138258112D01*
X110070750Y-138258112D01*
X110229000Y-138099862D01*
X110229000Y-137245200D01*
X110132631Y-137012546D01*
X109972468Y-136852383D01*
X110022565Y-136831632D01*
X110200631Y-136653566D01*
X110297000Y-136420912D01*
X110297000Y-136376558D01*
X110307802Y-136433966D01*
X110389931Y-136561599D01*
X110515246Y-136647223D01*
X110664000Y-136677346D01*
X110749000Y-136677346D01*
X110749000Y-137010781D01*
X110727034Y-137014914D01*
X110599401Y-137097043D01*
X110513777Y-137222358D01*
X110483654Y-137371112D01*
X110483654Y-139403112D01*
X110509802Y-139542078D01*
X110591931Y-139669711D01*
X110717246Y-139755335D01*
X110749000Y-139761765D01*
X110749000Y-143592766D01*
X109545200Y-143592766D01*
X109406234Y-143618914D01*
X109278601Y-143701043D01*
X109192977Y-143826358D01*
X109162854Y-143975112D01*
X109162854Y-146007112D01*
X109189002Y-146146078D01*
X109271131Y-146273711D01*
X109396446Y-146359335D01*
X109545200Y-146389458D01*
X113202800Y-146389458D01*
X113341766Y-146363310D01*
X113469399Y-146281181D01*
X113555023Y-146155866D01*
X113585146Y-146007112D01*
X113585146Y-143975112D01*
X113558998Y-143836146D01*
X113476869Y-143708513D01*
X113351554Y-143622889D01*
X113202800Y-143592766D01*
X111999000Y-143592766D01*
X111999000Y-141157250D01*
X114906000Y-141157250D01*
X114906000Y-141745911D01*
X115002368Y-141978565D01*
X115180434Y-142156631D01*
X115413088Y-142253000D01*
X115876750Y-142253000D01*
X116035000Y-142094750D01*
X116035000Y-140999000D01*
X116293000Y-140999000D01*
X116293000Y-142094750D01*
X116451250Y-142253000D01*
X116914912Y-142253000D01*
X117147566Y-142156631D01*
X117325632Y-141978565D01*
X117422000Y-141745911D01*
X117422000Y-141157250D01*
X117263750Y-140999000D01*
X116293000Y-140999000D01*
X116035000Y-140999000D01*
X115064250Y-140999000D01*
X114906000Y-141157250D01*
X111999000Y-141157250D01*
X111999000Y-139763443D01*
X112020966Y-139759310D01*
X112148599Y-139677181D01*
X112234223Y-139551866D01*
X112264346Y-139403112D01*
X112264346Y-137371112D01*
X112238198Y-137232146D01*
X112156069Y-137104513D01*
X112030754Y-137018889D01*
X111999000Y-137012459D01*
X111999000Y-136677346D01*
X112164000Y-136677346D01*
X112302966Y-136651198D01*
X112430599Y-136569069D01*
X112516223Y-136443754D01*
X112546346Y-136295000D01*
X112546346Y-135045000D01*
X112520198Y-134906034D01*
X112438069Y-134778401D01*
X112312754Y-134692777D01*
X112164000Y-134662654D01*
X112039000Y-134662654D01*
X112039000Y-134133038D01*
X112195342Y-134101940D01*
X112357553Y-133993553D01*
X112536078Y-133815028D01*
X112637677Y-133815117D01*
X112885857Y-133712571D01*
X113075903Y-133522856D01*
X113109547Y-133441833D01*
X113629915Y-133962201D01*
X113218058Y-134374058D01*
X113082575Y-134576823D01*
X113035000Y-134816000D01*
X113035000Y-137010781D01*
X113013034Y-137014914D01*
X112885401Y-137097043D01*
X112799777Y-137222358D01*
X112769654Y-137371112D01*
X112769654Y-139403112D01*
X112795802Y-139542078D01*
X112877931Y-139669711D01*
X113003246Y-139755335D01*
X113152000Y-139785458D01*
X114168000Y-139785458D01*
X114306966Y-139759310D01*
X114434599Y-139677181D01*
X114520223Y-139551866D01*
X114550346Y-139403112D01*
X114550346Y-138995000D01*
X115156654Y-138995000D01*
X115156654Y-139120000D01*
X115182802Y-139258966D01*
X115264931Y-139386599D01*
X115390246Y-139472223D01*
X115463218Y-139487000D01*
X115413088Y-139487000D01*
X115180434Y-139583369D01*
X115002368Y-139761435D01*
X114906000Y-139994089D01*
X114906000Y-140582750D01*
X115064250Y-140741000D01*
X116035000Y-140741000D01*
X116035000Y-140721000D01*
X116293000Y-140721000D01*
X116293000Y-140741000D01*
X117263750Y-140741000D01*
X117422000Y-140582750D01*
X117422000Y-139994089D01*
X117325632Y-139761435D01*
X117147566Y-139583369D01*
X116914912Y-139487000D01*
X116870558Y-139487000D01*
X116927966Y-139476198D01*
X117055599Y-139394069D01*
X117141223Y-139268754D01*
X117171346Y-139120000D01*
X117171346Y-138666362D01*
X118951000Y-138666362D01*
X118951000Y-139521024D01*
X119047369Y-139753678D01*
X119225435Y-139931744D01*
X119458089Y-140028112D01*
X119804750Y-140028112D01*
X119963000Y-139869862D01*
X119963000Y-138508112D01*
X120221000Y-138508112D01*
X120221000Y-139869862D01*
X120379250Y-140028112D01*
X120725911Y-140028112D01*
X120958565Y-139931744D01*
X121136631Y-139753678D01*
X121233000Y-139521024D01*
X121233000Y-138666362D01*
X121074750Y-138508112D01*
X120221000Y-138508112D01*
X119963000Y-138508112D01*
X119109250Y-138508112D01*
X118951000Y-138666362D01*
X117171346Y-138666362D01*
X117171346Y-137620000D01*
X117145198Y-137481034D01*
X117063069Y-137353401D01*
X116937754Y-137267777D01*
X116789000Y-137237654D01*
X115539000Y-137237654D01*
X115400034Y-137263802D01*
X115272401Y-137345931D01*
X115186777Y-137471246D01*
X115156654Y-137620000D01*
X115156654Y-137745000D01*
X114550346Y-137745000D01*
X114550346Y-137371112D01*
X114524198Y-137232146D01*
X114442069Y-137104513D01*
X114316754Y-137018889D01*
X114285000Y-137012459D01*
X114285000Y-135074884D01*
X114772683Y-134587201D01*
X118676602Y-134587201D01*
X118597369Y-134666434D01*
X118501000Y-134899088D01*
X118501000Y-135362750D01*
X118659250Y-135521000D01*
X119755000Y-135521000D01*
X119755000Y-135501000D01*
X120013000Y-135501000D01*
X120013000Y-135521000D01*
X120033000Y-135521000D01*
X120033000Y-135779000D01*
X120013000Y-135779000D01*
X120013000Y-135799000D01*
X119755000Y-135799000D01*
X119755000Y-135779000D01*
X118659250Y-135779000D01*
X118501000Y-135937250D01*
X118501000Y-136400912D01*
X118597369Y-136633566D01*
X118775435Y-136811632D01*
X119008089Y-136908000D01*
X119143915Y-136908000D01*
X119047369Y-137004546D01*
X118951000Y-137237200D01*
X118951000Y-138091862D01*
X119109250Y-138250112D01*
X119963000Y-138250112D01*
X119963000Y-138230112D01*
X120221000Y-138230112D01*
X120221000Y-138250112D01*
X121074750Y-138250112D01*
X121233000Y-138091862D01*
X121233000Y-137237200D01*
X121136631Y-137004546D01*
X120958565Y-136826480D01*
X120957642Y-136826098D01*
X120992565Y-136811632D01*
X121170631Y-136633566D01*
X121267000Y-136400912D01*
X121267000Y-136356558D01*
X121277802Y-136413966D01*
X121359931Y-136541599D01*
X121485246Y-136627223D01*
X121634000Y-136657346D01*
X121753000Y-136657346D01*
X121753000Y-137002781D01*
X121731034Y-137006914D01*
X121603401Y-137089043D01*
X121517777Y-137214358D01*
X121487654Y-137363112D01*
X121487654Y-139395112D01*
X121513802Y-139534078D01*
X121595931Y-139661711D01*
X121721246Y-139747335D01*
X121753000Y-139753765D01*
X121753000Y-143584766D01*
X120549200Y-143584766D01*
X120410234Y-143610914D01*
X120282601Y-143693043D01*
X120196977Y-143818358D01*
X120166854Y-143967112D01*
X120166854Y-145999112D01*
X120193002Y-146138078D01*
X120275131Y-146265711D01*
X120400446Y-146351335D01*
X120549200Y-146381458D01*
X124206800Y-146381458D01*
X124345766Y-146355310D01*
X124473399Y-146273181D01*
X124559023Y-146147866D01*
X124589146Y-145999112D01*
X124589146Y-145197256D01*
X130763757Y-145197256D01*
X130976445Y-145712000D01*
X131369928Y-146106170D01*
X131884301Y-146319757D01*
X132441256Y-146320243D01*
X132956000Y-146107555D01*
X133350170Y-145714072D01*
X133495243Y-145364698D01*
X133603684Y-145627143D01*
X133955007Y-145979081D01*
X134414269Y-146169783D01*
X134911550Y-146170217D01*
X135371143Y-145980316D01*
X135723081Y-145628993D01*
X135913783Y-145169731D01*
X135913785Y-145167555D01*
X136103684Y-145627143D01*
X136455007Y-145979081D01*
X136914269Y-146169783D01*
X137411550Y-146170217D01*
X137871143Y-145980316D01*
X138223081Y-145628993D01*
X138413783Y-145169731D01*
X138414217Y-144672450D01*
X138224316Y-144212857D01*
X137872993Y-143860919D01*
X137413731Y-143670217D01*
X136916450Y-143669783D01*
X136456857Y-143859684D01*
X136104919Y-144211007D01*
X135914217Y-144670269D01*
X135914215Y-144672445D01*
X135724316Y-144212857D01*
X135372993Y-143860919D01*
X134913731Y-143670217D01*
X134416450Y-143669783D01*
X133956857Y-143859684D01*
X133604919Y-144211007D01*
X133495116Y-144475443D01*
X133351555Y-144128000D01*
X132958072Y-143733830D01*
X132443699Y-143520243D01*
X131886744Y-143519757D01*
X131372000Y-143732445D01*
X130977830Y-144125928D01*
X130764243Y-144640301D01*
X130763757Y-145197256D01*
X124589146Y-145197256D01*
X124589146Y-143967112D01*
X124562998Y-143828146D01*
X124480869Y-143700513D01*
X124355554Y-143614889D01*
X124206800Y-143584766D01*
X123003000Y-143584766D01*
X123003000Y-141157250D01*
X125906000Y-141157250D01*
X125906000Y-141745911D01*
X126002368Y-141978565D01*
X126180434Y-142156631D01*
X126413088Y-142253000D01*
X126876750Y-142253000D01*
X127035000Y-142094750D01*
X127035000Y-140999000D01*
X127293000Y-140999000D01*
X127293000Y-142094750D01*
X127451250Y-142253000D01*
X127914912Y-142253000D01*
X128147566Y-142156631D01*
X128325632Y-141978565D01*
X128422000Y-141745911D01*
X128422000Y-141157250D01*
X128263750Y-140999000D01*
X127293000Y-140999000D01*
X127035000Y-140999000D01*
X126064250Y-140999000D01*
X125906000Y-141157250D01*
X123003000Y-141157250D01*
X123003000Y-139755443D01*
X123024966Y-139751310D01*
X123152599Y-139669181D01*
X123238223Y-139543866D01*
X123268346Y-139395112D01*
X123268346Y-137363112D01*
X123620715Y-137363112D01*
X123620715Y-139395112D01*
X123657323Y-139589665D01*
X123772304Y-139768351D01*
X123947744Y-139888224D01*
X124156000Y-139930397D01*
X125172000Y-139930397D01*
X125366553Y-139893789D01*
X125545239Y-139778808D01*
X125665112Y-139603368D01*
X125707285Y-139395112D01*
X125707285Y-139145000D01*
X126008419Y-139145000D01*
X126040323Y-139314553D01*
X126155304Y-139493239D01*
X126246913Y-139555832D01*
X126180434Y-139583369D01*
X126002368Y-139761435D01*
X125906000Y-139994089D01*
X125906000Y-140582750D01*
X126064250Y-140741000D01*
X127035000Y-140741000D01*
X127035000Y-140721000D01*
X127293000Y-140721000D01*
X127293000Y-140741000D01*
X128263750Y-140741000D01*
X128422000Y-140582750D01*
X128422000Y-139994089D01*
X128325632Y-139761435D01*
X128147566Y-139583369D01*
X128081166Y-139555865D01*
X128162239Y-139503696D01*
X128282112Y-139328256D01*
X128319222Y-139145000D01*
X130714000Y-139145000D01*
X131010580Y-139086007D01*
X131262008Y-138918008D01*
X131867313Y-138312703D01*
X131884301Y-138319757D01*
X132441256Y-138320243D01*
X132956000Y-138107555D01*
X133350170Y-137714072D01*
X133495243Y-137364698D01*
X133603684Y-137627143D01*
X133955007Y-137979081D01*
X134414269Y-138169783D01*
X134911550Y-138170217D01*
X135371143Y-137980316D01*
X135723081Y-137628993D01*
X135913783Y-137169731D01*
X135913785Y-137167555D01*
X136103684Y-137627143D01*
X136455007Y-137979081D01*
X136914269Y-138169783D01*
X137411550Y-138170217D01*
X137871143Y-137980316D01*
X138223081Y-137628993D01*
X138413783Y-137169731D01*
X138414217Y-136672450D01*
X138224316Y-136212857D01*
X137872993Y-135860919D01*
X137413731Y-135670217D01*
X136916450Y-135669783D01*
X136456857Y-135859684D01*
X136104919Y-136211007D01*
X135914217Y-136670269D01*
X135914215Y-136672445D01*
X135724316Y-136212857D01*
X135372993Y-135860919D01*
X134913731Y-135670217D01*
X134416450Y-135669783D01*
X133956857Y-135859684D01*
X133604919Y-136211007D01*
X133495116Y-136475443D01*
X133351555Y-136128000D01*
X132958072Y-135733830D01*
X132443699Y-135520243D01*
X131886744Y-135519757D01*
X131372000Y-135732445D01*
X130977830Y-136125928D01*
X130764243Y-136640301D01*
X130763757Y-137197256D01*
X130771643Y-137216341D01*
X130392984Y-137595000D01*
X128319581Y-137595000D01*
X128287677Y-137425447D01*
X128172696Y-137246761D01*
X127997256Y-137126888D01*
X127789000Y-137084715D01*
X126539000Y-137084715D01*
X126344447Y-137121323D01*
X126165761Y-137236304D01*
X126045888Y-137411744D01*
X126008778Y-137595000D01*
X125707285Y-137595000D01*
X125707285Y-137363112D01*
X125670677Y-137168559D01*
X125555696Y-136989873D01*
X125380256Y-136870000D01*
X125172000Y-136827827D01*
X124156000Y-136827827D01*
X123961447Y-136864435D01*
X123782761Y-136979416D01*
X123662888Y-137154856D01*
X123620715Y-137363112D01*
X123268346Y-137363112D01*
X123242198Y-137224146D01*
X123160069Y-137096513D01*
X123034754Y-137010889D01*
X123003000Y-137004459D01*
X123003000Y-136657346D01*
X123134000Y-136657346D01*
X123272966Y-136631198D01*
X123400599Y-136549069D01*
X123486223Y-136423754D01*
X123516346Y-136275000D01*
X123516346Y-136123675D01*
X123575342Y-136111940D01*
X123737553Y-136003553D01*
X125101107Y-134640000D01*
X129665870Y-134640000D01*
X129857212Y-134601940D01*
X130019423Y-134493553D01*
X134052976Y-130460000D01*
X143245749Y-130460000D01*
X143340032Y-130933992D01*
X143608527Y-131335822D01*
X144010357Y-131604317D01*
X144484349Y-131698600D01*
X144843651Y-131698600D01*
X145317643Y-131604317D01*
X145719473Y-131335822D01*
X145987968Y-130933992D01*
X146082251Y-130460000D01*
X145987968Y-129986008D01*
X145719473Y-129584178D01*
X145317643Y-129315683D01*
X144843651Y-129221400D01*
X144484349Y-129221400D01*
X144010357Y-129315683D01*
X143608527Y-129584178D01*
X143340032Y-129986008D01*
X143245749Y-130460000D01*
X134052976Y-130460000D01*
X136406020Y-128106957D01*
X136507618Y-128107046D01*
X136755798Y-128004500D01*
X136840445Y-127920000D01*
X143245749Y-127920000D01*
X143340032Y-128393992D01*
X143608527Y-128795822D01*
X144010357Y-129064317D01*
X144484349Y-129158600D01*
X144843651Y-129158600D01*
X145317643Y-129064317D01*
X145719473Y-128795822D01*
X145987968Y-128393992D01*
X146082251Y-127920000D01*
X145987968Y-127446008D01*
X145719473Y-127044178D01*
X145317643Y-126775683D01*
X144843651Y-126681400D01*
X144484349Y-126681400D01*
X144010357Y-126775683D01*
X143608527Y-127044178D01*
X143340032Y-127446008D01*
X143245749Y-127920000D01*
X136840445Y-127920000D01*
X136945844Y-127814785D01*
X137048824Y-127566784D01*
X137049058Y-127298252D01*
X136946512Y-127050072D01*
X136756797Y-126860026D01*
X136508796Y-126757046D01*
X136240264Y-126756812D01*
X135992084Y-126859358D01*
X135802038Y-127049073D01*
X135699058Y-127297074D01*
X135698968Y-127399795D01*
X129458764Y-133640000D01*
X124894000Y-133640000D01*
X124702658Y-133678060D01*
X124540446Y-133786447D01*
X123470880Y-134856013D01*
X123408069Y-134758401D01*
X123282754Y-134672777D01*
X123134000Y-134642654D01*
X122135538Y-134642654D01*
X121013143Y-133520259D01*
X120810378Y-133384776D01*
X120571201Y-133337201D01*
X114772682Y-133337201D01*
X113042572Y-131607090D01*
X113042572Y-127409858D01*
X113067572Y-127409858D01*
X113206538Y-127383710D01*
X113334171Y-127301581D01*
X113419795Y-127176266D01*
X113449918Y-127027512D01*
X113449918Y-125527512D01*
X113423770Y-125388546D01*
X113341641Y-125260913D01*
X113216326Y-125175289D01*
X113067572Y-125145166D01*
X111767572Y-125145166D01*
X111628606Y-125171314D01*
X111500973Y-125253443D01*
X111415349Y-125378758D01*
X111385226Y-125527512D01*
X111385226Y-126518749D01*
X111292452Y-126425975D01*
X111292452Y-125527512D01*
X111266304Y-125388546D01*
X111184175Y-125260913D01*
X111058860Y-125175289D01*
X110910106Y-125145166D01*
X109796272Y-125145166D01*
X109489475Y-124838369D01*
X109610106Y-124862797D01*
X110910106Y-124862797D01*
X111104659Y-124826189D01*
X111283345Y-124711208D01*
X111338583Y-124630364D01*
X111383876Y-124700751D01*
X111559316Y-124820624D01*
X111767572Y-124862797D01*
X113067572Y-124862797D01*
X113262125Y-124826189D01*
X113440811Y-124711208D01*
X113560684Y-124535768D01*
X113599063Y-124346248D01*
X113864152Y-124293519D01*
X114115580Y-124125520D01*
X118126100Y-120115000D01*
X118333126Y-120115000D01*
X118311777Y-120146246D01*
X118281654Y-120295000D01*
X118281654Y-121545000D01*
X118307802Y-121683966D01*
X118389931Y-121811599D01*
X118515246Y-121897223D01*
X118664000Y-121927346D01*
X118914000Y-121927346D01*
X118914000Y-121963336D01*
X118845667Y-122127899D01*
X118845433Y-122396431D01*
X118914152Y-122562744D01*
X115984845Y-122562744D01*
X115793503Y-122600804D01*
X115631292Y-122709191D01*
X114060436Y-124280047D01*
X113952049Y-124442258D01*
X113913989Y-124633600D01*
X113913989Y-129833977D01*
X113931100Y-129920000D01*
X113952049Y-130025319D01*
X114060436Y-130187530D01*
X115813724Y-131940819D01*
X115813661Y-132012218D01*
X115669327Y-131952285D01*
X115400795Y-131952051D01*
X115152615Y-132054597D01*
X114962569Y-132244312D01*
X114859589Y-132492313D01*
X114859355Y-132760845D01*
X114961901Y-133009025D01*
X115151616Y-133199071D01*
X115399617Y-133302051D01*
X115668149Y-133302285D01*
X115916329Y-133199739D01*
X115989027Y-133127168D01*
X118410836Y-133127168D01*
X118602178Y-133089108D01*
X118764389Y-132980721D01*
X119357554Y-132387557D01*
X119357556Y-132387554D01*
X120667554Y-131077557D01*
X120775940Y-130915346D01*
X120814000Y-130724004D01*
X120814000Y-130427346D01*
X121064000Y-130427346D01*
X121202966Y-130401198D01*
X121330599Y-130319069D01*
X121372838Y-130257250D01*
X128006000Y-130257250D01*
X128006000Y-130845911D01*
X128102368Y-131078565D01*
X128280434Y-131256631D01*
X128513088Y-131353000D01*
X128976750Y-131353000D01*
X129135000Y-131194750D01*
X129135000Y-130099000D01*
X129393000Y-130099000D01*
X129393000Y-131194750D01*
X129551250Y-131353000D01*
X130014912Y-131353000D01*
X130247566Y-131256631D01*
X130425632Y-131078565D01*
X130522000Y-130845911D01*
X130522000Y-130257250D01*
X130363750Y-130099000D01*
X129393000Y-130099000D01*
X129135000Y-130099000D01*
X128164250Y-130099000D01*
X128006000Y-130257250D01*
X121372838Y-130257250D01*
X121416223Y-130193754D01*
X121446346Y-130045000D01*
X121446346Y-128795000D01*
X121420198Y-128656034D01*
X121338069Y-128528401D01*
X121212754Y-128442777D01*
X121138388Y-128427718D01*
X122108856Y-127457250D01*
X122806000Y-127457250D01*
X122806000Y-128045911D01*
X122902368Y-128278565D01*
X123080434Y-128456631D01*
X123313088Y-128553000D01*
X123776750Y-128553000D01*
X123935000Y-128394750D01*
X123935000Y-127299000D01*
X124193000Y-127299000D01*
X124193000Y-128394750D01*
X124351250Y-128553000D01*
X124814912Y-128553000D01*
X125047566Y-128456631D01*
X125225632Y-128278565D01*
X125322000Y-128045911D01*
X125322000Y-127457250D01*
X125163750Y-127299000D01*
X124193000Y-127299000D01*
X123935000Y-127299000D01*
X122964250Y-127299000D01*
X122806000Y-127457250D01*
X122108856Y-127457250D01*
X122806000Y-126760107D01*
X122806000Y-126882750D01*
X122964250Y-127041000D01*
X123935000Y-127041000D01*
X123935000Y-127021000D01*
X124193000Y-127021000D01*
X124193000Y-127041000D01*
X125163750Y-127041000D01*
X125322000Y-126882750D01*
X125322000Y-126294089D01*
X125225632Y-126061435D01*
X125047566Y-125883369D01*
X124814912Y-125787000D01*
X124770558Y-125787000D01*
X124827966Y-125776198D01*
X124955599Y-125694069D01*
X125041223Y-125568754D01*
X125071346Y-125420000D01*
X125071346Y-125170000D01*
X125206894Y-125170000D01*
X127188972Y-127152078D01*
X127188883Y-127253677D01*
X127291429Y-127501857D01*
X127481144Y-127691903D01*
X127729145Y-127794883D01*
X127831866Y-127794973D01*
X127860447Y-127823554D01*
X128022658Y-127931940D01*
X128214000Y-127970000D01*
X128256654Y-127970000D01*
X128256654Y-128220000D01*
X128282802Y-128358966D01*
X128364931Y-128486599D01*
X128490246Y-128572223D01*
X128563218Y-128587000D01*
X128513088Y-128587000D01*
X128280434Y-128683369D01*
X128102368Y-128861435D01*
X128006000Y-129094089D01*
X128006000Y-129682750D01*
X128164250Y-129841000D01*
X129135000Y-129841000D01*
X129135000Y-129821000D01*
X129393000Y-129821000D01*
X129393000Y-129841000D01*
X130363750Y-129841000D01*
X130522000Y-129682750D01*
X130522000Y-129094089D01*
X130425632Y-128861435D01*
X130247566Y-128683369D01*
X130014912Y-128587000D01*
X129970558Y-128587000D01*
X130027966Y-128576198D01*
X130155599Y-128494069D01*
X130241223Y-128368754D01*
X130271346Y-128220000D01*
X130271346Y-126720000D01*
X130245198Y-126581034D01*
X130163069Y-126453401D01*
X130037754Y-126367777D01*
X129889000Y-126337654D01*
X128639000Y-126337654D01*
X128500034Y-126363802D01*
X128372401Y-126445931D01*
X128286777Y-126571246D01*
X128283942Y-126585247D01*
X128246856Y-126548097D01*
X127998855Y-126445117D01*
X127896134Y-126445027D01*
X125767553Y-124316447D01*
X125605342Y-124208060D01*
X125414000Y-124170000D01*
X125071346Y-124170000D01*
X125071346Y-124046860D01*
X130328881Y-124046860D01*
X130431427Y-124295040D01*
X130484137Y-124347842D01*
X130432097Y-124399791D01*
X130329117Y-124647792D01*
X130328883Y-124916324D01*
X130431429Y-125164504D01*
X130621144Y-125354550D01*
X130869145Y-125457530D01*
X130971866Y-125457620D01*
X131787625Y-126273379D01*
X131883820Y-126337654D01*
X131949836Y-126381765D01*
X132141178Y-126419825D01*
X133582380Y-126419825D01*
X133654158Y-126491728D01*
X133902159Y-126594708D01*
X134170691Y-126594942D01*
X134418871Y-126492396D01*
X134608917Y-126302681D01*
X134711897Y-126054680D01*
X134712131Y-125786148D01*
X134609585Y-125537968D01*
X134419870Y-125347922D01*
X134171869Y-125244942D01*
X133903337Y-125244708D01*
X133655157Y-125347254D01*
X133582459Y-125419825D01*
X132348285Y-125419825D01*
X131679028Y-124750569D01*
X131679117Y-124648970D01*
X131581692Y-124413183D01*
X138120472Y-124413183D01*
X138219518Y-124512228D01*
X138219429Y-124613827D01*
X138321975Y-124862007D01*
X138511690Y-125052053D01*
X138759691Y-125155033D01*
X139028223Y-125155267D01*
X139276403Y-125052721D01*
X139466449Y-124863006D01*
X139569429Y-124615005D01*
X139569663Y-124346473D01*
X139467117Y-124098293D01*
X139277402Y-123908247D01*
X139029401Y-123805267D01*
X138926680Y-123805177D01*
X138681132Y-123559630D01*
X138518921Y-123451243D01*
X138327579Y-123413183D01*
X131458632Y-123413183D01*
X131386854Y-123341280D01*
X131138853Y-123238300D01*
X130870321Y-123238066D01*
X130622141Y-123340612D01*
X130432095Y-123530327D01*
X130329115Y-123778328D01*
X130328881Y-124046860D01*
X125071346Y-124046860D01*
X125071346Y-123920000D01*
X125045198Y-123781034D01*
X124963069Y-123653401D01*
X124837754Y-123567777D01*
X124689000Y-123537654D01*
X123439000Y-123537654D01*
X123300034Y-123563802D01*
X123172401Y-123645931D01*
X123086777Y-123771246D01*
X123056654Y-123920000D01*
X123056654Y-124170000D01*
X122239872Y-124170000D01*
X120193356Y-122123484D01*
X120112313Y-121927346D01*
X120164000Y-121927346D01*
X120302966Y-121901198D01*
X120430599Y-121819069D01*
X120516223Y-121693754D01*
X120531000Y-121620782D01*
X120531000Y-121670912D01*
X120627369Y-121903566D01*
X120805435Y-122081632D01*
X121038089Y-122178000D01*
X121626750Y-122178000D01*
X121785000Y-122019750D01*
X121785000Y-121049000D01*
X122043000Y-121049000D01*
X122043000Y-122019750D01*
X122201250Y-122178000D01*
X122789911Y-122178000D01*
X123022565Y-122081632D01*
X123200631Y-121903566D01*
X123297000Y-121670912D01*
X123297000Y-121207250D01*
X123138750Y-121049000D01*
X122043000Y-121049000D01*
X121785000Y-121049000D01*
X121765000Y-121049000D01*
X121765000Y-120791000D01*
X121785000Y-120791000D01*
X121785000Y-120771000D01*
X122043000Y-120771000D01*
X122043000Y-120791000D01*
X123138750Y-120791000D01*
X123297000Y-120632750D01*
X123297000Y-120169088D01*
X123274596Y-120115000D01*
X130102984Y-120115000D01*
X130455992Y-120468008D01*
X130707420Y-120636007D01*
X131004000Y-120695000D01*
X143469421Y-120695000D01*
X143476445Y-120712000D01*
X143869928Y-121106170D01*
X144384301Y-121319757D01*
X144941256Y-121320243D01*
X145456000Y-121107555D01*
X145850170Y-120714072D01*
X146063757Y-120199699D01*
X146064243Y-119642744D01*
X145851555Y-119128000D01*
X145458072Y-118733830D01*
X145108698Y-118588757D01*
X145371143Y-118480316D01*
X145723081Y-118128993D01*
X145913783Y-117669731D01*
X145914217Y-117172450D01*
X145724316Y-116712857D01*
X145372993Y-116360919D01*
X144913731Y-116170217D01*
X144911555Y-116170215D01*
X145371143Y-115980316D01*
X145723081Y-115628993D01*
X145913783Y-115169731D01*
X145914217Y-114672450D01*
X145724316Y-114212857D01*
X145372993Y-113860919D01*
X144913731Y-113670217D01*
X144911555Y-113670215D01*
X145371143Y-113480316D01*
X145723081Y-113128993D01*
X145913783Y-112669731D01*
X145914217Y-112172450D01*
X145724316Y-111712857D01*
X145372993Y-111360919D01*
X144913731Y-111170217D01*
X144416450Y-111169783D01*
X143956857Y-111359684D01*
X143604919Y-111711007D01*
X143414217Y-112170269D01*
X143413783Y-112667550D01*
X143603684Y-113127143D01*
X143955007Y-113479081D01*
X144414269Y-113669783D01*
X144416445Y-113669785D01*
X143956857Y-113859684D01*
X143604919Y-114211007D01*
X143414217Y-114670269D01*
X143413783Y-115167550D01*
X143603684Y-115627143D01*
X143955007Y-115979081D01*
X144414269Y-116169783D01*
X144416445Y-116169785D01*
X143956857Y-116359684D01*
X143604919Y-116711007D01*
X143414217Y-117170269D01*
X143413783Y-117667550D01*
X143603684Y-118127143D01*
X143955007Y-118479081D01*
X144219443Y-118588884D01*
X143872000Y-118732445D01*
X143477830Y-119125928D01*
X143469911Y-119145000D01*
X138436349Y-119145000D01*
X138719473Y-118955822D01*
X138987968Y-118553992D01*
X139082251Y-118080000D01*
X138987968Y-117606008D01*
X138719473Y-117204178D01*
X138317643Y-116935683D01*
X137843651Y-116841400D01*
X137484349Y-116841400D01*
X137010357Y-116935683D01*
X136608527Y-117204178D01*
X136357410Y-117580000D01*
X128483383Y-117580000D01*
X128398738Y-117495207D01*
X128150737Y-117392227D01*
X127882205Y-117391993D01*
X127634025Y-117494539D01*
X127443979Y-117684254D01*
X127340999Y-117932255D01*
X127340765Y-118200787D01*
X127443311Y-118448967D01*
X127559142Y-118565000D01*
X119687219Y-118565000D01*
X119703893Y-118524845D01*
X119703983Y-118422124D01*
X120623761Y-117502346D01*
X121314000Y-117502346D01*
X121452966Y-117476198D01*
X121580599Y-117394069D01*
X121665130Y-117270354D01*
X121739931Y-117386599D01*
X121865246Y-117472223D01*
X122014000Y-117502346D01*
X123314000Y-117502346D01*
X123452966Y-117476198D01*
X123580599Y-117394069D01*
X123666223Y-117268754D01*
X123696346Y-117120000D01*
X123696346Y-116553677D01*
X132988883Y-116553677D01*
X133091429Y-116801857D01*
X133281144Y-116991903D01*
X133529145Y-117094883D01*
X133797677Y-117095117D01*
X134045857Y-116992571D01*
X134118555Y-116920000D01*
X136784000Y-116920000D01*
X136975342Y-116881940D01*
X137137553Y-116773553D01*
X137190881Y-116720225D01*
X137484349Y-116778600D01*
X137843651Y-116778600D01*
X138317643Y-116684317D01*
X138719473Y-116415822D01*
X138987968Y-116013992D01*
X139082251Y-115540000D01*
X138987968Y-115066008D01*
X138719473Y-114664178D01*
X138317643Y-114395683D01*
X137843651Y-114301400D01*
X137484349Y-114301400D01*
X137010357Y-114395683D01*
X136608527Y-114664178D01*
X136340032Y-115066008D01*
X136245749Y-115540000D01*
X136321336Y-115920000D01*
X134118634Y-115920000D01*
X134046856Y-115848097D01*
X133798855Y-115745117D01*
X133530323Y-115744883D01*
X133282143Y-115847429D01*
X133092097Y-116037144D01*
X132989117Y-116285145D01*
X132988883Y-116553677D01*
X123696346Y-116553677D01*
X123696346Y-115620000D01*
X123670198Y-115481034D01*
X123588069Y-115353401D01*
X123462754Y-115267777D01*
X123314000Y-115237654D01*
X122014000Y-115237654D01*
X121875034Y-115263802D01*
X121747401Y-115345931D01*
X121662870Y-115469646D01*
X121588069Y-115353401D01*
X121462754Y-115267777D01*
X121350281Y-115245001D01*
X121688999Y-115245001D01*
X121880341Y-115206941D01*
X122042552Y-115098554D01*
X122338760Y-114802346D01*
X123314000Y-114802346D01*
X123452966Y-114776198D01*
X123580599Y-114694069D01*
X123666223Y-114568754D01*
X123696346Y-114420000D01*
X123696346Y-114170000D01*
X127974000Y-114170000D01*
X128165342Y-114131940D01*
X128327553Y-114023553D01*
X129351106Y-113000000D01*
X136245749Y-113000000D01*
X136340032Y-113473992D01*
X136608527Y-113875822D01*
X137010357Y-114144317D01*
X137484349Y-114238600D01*
X137843651Y-114238600D01*
X138317643Y-114144317D01*
X138719473Y-113875822D01*
X138987968Y-113473992D01*
X139082251Y-113000000D01*
X138987968Y-112526008D01*
X138719473Y-112124178D01*
X138317643Y-111855683D01*
X137843651Y-111761400D01*
X137484349Y-111761400D01*
X137010357Y-111855683D01*
X136608527Y-112124178D01*
X136340032Y-112526008D01*
X136245749Y-113000000D01*
X129351106Y-113000000D01*
X134431106Y-107920000D01*
X136245749Y-107920000D01*
X136340032Y-108393992D01*
X136608527Y-108795822D01*
X137010357Y-109064317D01*
X137484349Y-109158600D01*
X137843651Y-109158600D01*
X138317643Y-109064317D01*
X138719473Y-108795822D01*
X138987968Y-108393992D01*
X139082251Y-107920000D01*
X138987968Y-107446008D01*
X138719473Y-107044178D01*
X138317643Y-106775683D01*
X137843651Y-106681400D01*
X137484349Y-106681400D01*
X137010357Y-106775683D01*
X136608527Y-107044178D01*
X136340032Y-107446008D01*
X136245749Y-107920000D01*
X134431106Y-107920000D01*
X136265654Y-106085453D01*
X136265654Y-106243600D01*
X136291802Y-106382566D01*
X136373931Y-106510199D01*
X136499246Y-106595823D01*
X136648000Y-106625946D01*
X138680000Y-106625946D01*
X138818966Y-106599798D01*
X138946599Y-106517669D01*
X139032223Y-106392354D01*
X139062346Y-106243600D01*
X139062346Y-104516400D01*
X139036198Y-104377434D01*
X138954069Y-104249801D01*
X138828754Y-104164177D01*
X138680000Y-104134054D01*
X136648000Y-104134054D01*
X136509034Y-104160202D01*
X136381401Y-104242331D01*
X136295777Y-104367646D01*
X136265654Y-104516400D01*
X136265654Y-104880000D01*
X136264000Y-104880000D01*
X136072658Y-104918060D01*
X135910446Y-105026447D01*
X127766894Y-113170000D01*
X123696346Y-113170000D01*
X123696346Y-112920000D01*
X123670198Y-112781034D01*
X123588069Y-112653401D01*
X123462754Y-112567777D01*
X123314000Y-112537654D01*
X122014000Y-112537654D01*
X121875034Y-112563802D01*
X121856541Y-112575702D01*
X121850632Y-112561435D01*
X121672566Y-112383369D01*
X121439912Y-112287000D01*
X120951250Y-112287000D01*
X120793000Y-112445250D01*
X120793000Y-113541000D01*
X120813000Y-113541000D01*
X120813000Y-113799000D01*
X120793000Y-113799000D01*
X120793000Y-113819000D01*
X120535000Y-113819000D01*
X120535000Y-113799000D01*
X119539250Y-113799000D01*
X119381000Y-113957250D01*
X119381000Y-114545911D01*
X119477368Y-114778565D01*
X119537849Y-114839046D01*
X113456894Y-120920000D01*
X110118634Y-120920000D01*
X110046856Y-120848097D01*
X109798855Y-120745117D01*
X109530323Y-120744883D01*
X109282143Y-120847429D01*
X109092097Y-121037144D01*
X109040357Y-121161747D01*
X108439000Y-120560390D01*
X108439000Y-112794089D01*
X119381000Y-112794089D01*
X119381000Y-113382750D01*
X119539250Y-113541000D01*
X120535000Y-113541000D01*
X120535000Y-112445250D01*
X120376750Y-112287000D01*
X119888088Y-112287000D01*
X119655434Y-112383369D01*
X119477368Y-112561435D01*
X119381000Y-112794089D01*
X108439000Y-112794089D01*
X108439000Y-112420000D01*
X108380007Y-112123420D01*
X108212008Y-111871992D01*
X106556703Y-110216687D01*
X106563757Y-110199699D01*
X106564243Y-109642744D01*
X106351555Y-109128000D01*
X105958072Y-108733830D01*
X105443699Y-108520243D01*
X104886744Y-108519757D01*
X104372000Y-108732445D01*
X103977830Y-109125928D01*
X103764243Y-109640301D01*
X103763757Y-110197256D01*
X100454000Y-110197256D01*
X100454000Y-105240349D01*
X115425400Y-105240349D01*
X115425400Y-105599651D01*
X115519683Y-106073643D01*
X115788178Y-106475473D01*
X116190008Y-106743968D01*
X116664000Y-106838251D01*
X117137992Y-106743968D01*
X117539822Y-106475473D01*
X117808317Y-106073643D01*
X117902600Y-105599651D01*
X117902600Y-105240349D01*
X117965400Y-105240349D01*
X117965400Y-105599651D01*
X118059683Y-106073643D01*
X118328178Y-106475473D01*
X118730008Y-106743968D01*
X119204000Y-106838251D01*
X119677992Y-106743968D01*
X120079822Y-106475473D01*
X120348317Y-106073643D01*
X120442600Y-105599651D01*
X120442600Y-105240349D01*
X127925400Y-105240349D01*
X127925400Y-105599651D01*
X128019683Y-106073643D01*
X128288178Y-106475473D01*
X128690008Y-106743968D01*
X129164000Y-106838251D01*
X129637992Y-106743968D01*
X130039822Y-106475473D01*
X130308317Y-106073643D01*
X130402600Y-105599651D01*
X130402600Y-105240349D01*
X130465400Y-105240349D01*
X130465400Y-105599651D01*
X130559683Y-106073643D01*
X130828178Y-106475473D01*
X131230008Y-106743968D01*
X131704000Y-106838251D01*
X132177992Y-106743968D01*
X132579822Y-106475473D01*
X132848317Y-106073643D01*
X132942600Y-105599651D01*
X132942600Y-105240349D01*
X132848317Y-104766357D01*
X132579822Y-104364527D01*
X132177992Y-104096032D01*
X131704000Y-104001749D01*
X131230008Y-104096032D01*
X130828178Y-104364527D01*
X130559683Y-104766357D01*
X130465400Y-105240349D01*
X130402600Y-105240349D01*
X130308317Y-104766357D01*
X130039822Y-104364527D01*
X129637992Y-104096032D01*
X129164000Y-104001749D01*
X128690008Y-104096032D01*
X128288178Y-104364527D01*
X128019683Y-104766357D01*
X127925400Y-105240349D01*
X120442600Y-105240349D01*
X120348317Y-104766357D01*
X120079822Y-104364527D01*
X119677992Y-104096032D01*
X119204000Y-104001749D01*
X118730008Y-104096032D01*
X118328178Y-104364527D01*
X118059683Y-104766357D01*
X117965400Y-105240349D01*
X117902600Y-105240349D01*
X117808317Y-104766357D01*
X117539822Y-104364527D01*
X117137992Y-104096032D01*
X116664000Y-104001749D01*
X116190008Y-104096032D01*
X115788178Y-104364527D01*
X115519683Y-104766357D01*
X115425400Y-105240349D01*
X100454000Y-105240349D01*
X100454000Y-100590000D01*
X149554000Y-100590000D01*
X149554000Y-149690000D01*
X149554000Y-149690000D01*
G37*
X149554000Y-149690000D02*
X100454000Y-149690000D01*
X100454000Y-138674362D01*
X107947000Y-138674362D01*
X107947000Y-139529024D01*
X108043369Y-139761678D01*
X108221435Y-139939744D01*
X108454089Y-140036112D01*
X108800750Y-140036112D01*
X108959000Y-139877862D01*
X108959000Y-138516112D01*
X109217000Y-138516112D01*
X109217000Y-139877862D01*
X109375250Y-140036112D01*
X109721911Y-140036112D01*
X109954565Y-139939744D01*
X110132631Y-139761678D01*
X110229000Y-139529024D01*
X110229000Y-138674362D01*
X110070750Y-138516112D01*
X109217000Y-138516112D01*
X108959000Y-138516112D01*
X108105250Y-138516112D01*
X107947000Y-138674362D01*
X100454000Y-138674362D01*
X100454000Y-134919088D01*
X107531000Y-134919088D01*
X107531000Y-135382750D01*
X107689250Y-135541000D01*
X108785000Y-135541000D01*
X108785000Y-134570250D01*
X108626750Y-134412000D01*
X108038089Y-134412000D01*
X107805435Y-134508368D01*
X107627369Y-134686434D01*
X107531000Y-134919088D01*
X100454000Y-134919088D01*
X100454000Y-130460000D01*
X103745749Y-130460000D01*
X103840032Y-130933992D01*
X104108527Y-131335822D01*
X104510357Y-131604317D01*
X104984349Y-131698600D01*
X105343651Y-131698600D01*
X105817643Y-131604317D01*
X106219473Y-131335822D01*
X106487968Y-130933992D01*
X106582251Y-130460000D01*
X106487968Y-129986008D01*
X106219473Y-129584178D01*
X105817643Y-129315683D01*
X105343651Y-129221400D01*
X104984349Y-129221400D01*
X104510357Y-129315683D01*
X104108527Y-129584178D01*
X103840032Y-129986008D01*
X103745749Y-130460000D01*
X100454000Y-130460000D01*
X100454000Y-127920000D01*
X103745749Y-127920000D01*
X103840032Y-128393992D01*
X104108527Y-128795822D01*
X104510357Y-129064317D01*
X104984349Y-129158600D01*
X105343651Y-129158600D01*
X105817643Y-129064317D01*
X106219473Y-128795822D01*
X106487968Y-128393992D01*
X106582251Y-127920000D01*
X106487968Y-127446008D01*
X106219473Y-127044178D01*
X105817643Y-126775683D01*
X105343651Y-126681400D01*
X104984349Y-126681400D01*
X104510357Y-126775683D01*
X104108527Y-127044178D01*
X103840032Y-127446008D01*
X103745749Y-127920000D01*
X100454000Y-127920000D01*
X100454000Y-110197256D01*
X103763757Y-110197256D01*
X103976445Y-110712000D01*
X104369928Y-111106170D01*
X104719302Y-111251243D01*
X104456857Y-111359684D01*
X104104919Y-111711007D01*
X103914217Y-112170269D01*
X103913783Y-112667550D01*
X104103684Y-113127143D01*
X104455007Y-113479081D01*
X104914269Y-113669783D01*
X104916445Y-113669785D01*
X104456857Y-113859684D01*
X104104919Y-114211007D01*
X103914217Y-114670269D01*
X103913783Y-115167550D01*
X104103684Y-115627143D01*
X104455007Y-115979081D01*
X104914269Y-116169783D01*
X104916445Y-116169785D01*
X104456857Y-116359684D01*
X104104919Y-116711007D01*
X103914217Y-117170269D01*
X103913783Y-117667550D01*
X104103684Y-118127143D01*
X104455007Y-118479081D01*
X104914269Y-118669783D01*
X105411550Y-118670217D01*
X105871143Y-118480316D01*
X106223081Y-118128993D01*
X106413783Y-117669731D01*
X106414217Y-117172450D01*
X106224316Y-116712857D01*
X105872993Y-116360919D01*
X105413731Y-116170217D01*
X105411555Y-116170215D01*
X105871143Y-115980316D01*
X106223081Y-115628993D01*
X106413783Y-115169731D01*
X106414217Y-114672450D01*
X106224316Y-114212857D01*
X105872993Y-113860919D01*
X105413731Y-113670217D01*
X105411555Y-113670215D01*
X105871143Y-113480316D01*
X106223081Y-113128993D01*
X106413783Y-112669731D01*
X106414135Y-112266151D01*
X106889000Y-112741016D01*
X106889000Y-120881406D01*
X106947993Y-121177986D01*
X107115992Y-121429414D01*
X109074821Y-123388243D01*
X109074821Y-124176111D01*
X109046856Y-124148097D01*
X108798855Y-124045117D01*
X108530323Y-124044883D01*
X108282143Y-124147429D01*
X108092097Y-124337144D01*
X107989117Y-124585145D01*
X107988883Y-124853677D01*
X108091429Y-125101857D01*
X108281144Y-125291903D01*
X108529145Y-125394883D01*
X108631866Y-125394973D01*
X109227760Y-125990867D01*
X109227760Y-127027512D01*
X109253908Y-127166478D01*
X109336037Y-127294111D01*
X109461352Y-127379735D01*
X109610106Y-127409858D01*
X110508569Y-127409858D01*
X110789000Y-127690289D01*
X110789000Y-134662654D01*
X110664000Y-134662654D01*
X110525034Y-134688802D01*
X110397401Y-134770931D01*
X110311777Y-134896246D01*
X110297000Y-134969218D01*
X110297000Y-134919088D01*
X110200631Y-134686434D01*
X110022565Y-134508368D01*
X109789911Y-134412000D01*
X109201250Y-134412000D01*
X109043000Y-134570250D01*
X109043000Y-135541000D01*
X109063000Y-135541000D01*
X109063000Y-135799000D01*
X109043000Y-135799000D01*
X109043000Y-135819000D01*
X108785000Y-135819000D01*
X108785000Y-135799000D01*
X107689250Y-135799000D01*
X107531000Y-135957250D01*
X107531000Y-136420912D01*
X107627369Y-136653566D01*
X107805435Y-136831632D01*
X108038089Y-136928000D01*
X108127915Y-136928000D01*
X108043369Y-137012546D01*
X107947000Y-137245200D01*
X107947000Y-138099862D01*
X108105250Y-138258112D01*
X108959000Y-138258112D01*
X108959000Y-138238112D01*
X109217000Y-138238112D01*
X109217000Y-138258112D01*
X110070750Y-138258112D01*
X110229000Y-138099862D01*
X110229000Y-137245200D01*
X110132631Y-137012546D01*
X109972468Y-136852383D01*
X110022565Y-136831632D01*
X110200631Y-136653566D01*
X110297000Y-136420912D01*
X110297000Y-136376558D01*
X110307802Y-136433966D01*
X110389931Y-136561599D01*
X110515246Y-136647223D01*
X110664000Y-136677346D01*
X110749000Y-136677346D01*
X110749000Y-137010781D01*
X110727034Y-137014914D01*
X110599401Y-137097043D01*
X110513777Y-137222358D01*
X110483654Y-137371112D01*
X110483654Y-139403112D01*
X110509802Y-139542078D01*
X110591931Y-139669711D01*
X110717246Y-139755335D01*
X110749000Y-139761765D01*
X110749000Y-143592766D01*
X109545200Y-143592766D01*
X109406234Y-143618914D01*
X109278601Y-143701043D01*
X109192977Y-143826358D01*
X109162854Y-143975112D01*
X109162854Y-146007112D01*
X109189002Y-146146078D01*
X109271131Y-146273711D01*
X109396446Y-146359335D01*
X109545200Y-146389458D01*
X113202800Y-146389458D01*
X113341766Y-146363310D01*
X113469399Y-146281181D01*
X113555023Y-146155866D01*
X113585146Y-146007112D01*
X113585146Y-143975112D01*
X113558998Y-143836146D01*
X113476869Y-143708513D01*
X113351554Y-143622889D01*
X113202800Y-143592766D01*
X111999000Y-143592766D01*
X111999000Y-141157250D01*
X114906000Y-141157250D01*
X114906000Y-141745911D01*
X115002368Y-141978565D01*
X115180434Y-142156631D01*
X115413088Y-142253000D01*
X115876750Y-142253000D01*
X116035000Y-142094750D01*
X116035000Y-140999000D01*
X116293000Y-140999000D01*
X116293000Y-142094750D01*
X116451250Y-142253000D01*
X116914912Y-142253000D01*
X117147566Y-142156631D01*
X117325632Y-141978565D01*
X117422000Y-141745911D01*
X117422000Y-141157250D01*
X117263750Y-140999000D01*
X116293000Y-140999000D01*
X116035000Y-140999000D01*
X115064250Y-140999000D01*
X114906000Y-141157250D01*
X111999000Y-141157250D01*
X111999000Y-139763443D01*
X112020966Y-139759310D01*
X112148599Y-139677181D01*
X112234223Y-139551866D01*
X112264346Y-139403112D01*
X112264346Y-137371112D01*
X112238198Y-137232146D01*
X112156069Y-137104513D01*
X112030754Y-137018889D01*
X111999000Y-137012459D01*
X111999000Y-136677346D01*
X112164000Y-136677346D01*
X112302966Y-136651198D01*
X112430599Y-136569069D01*
X112516223Y-136443754D01*
X112546346Y-136295000D01*
X112546346Y-135045000D01*
X112520198Y-134906034D01*
X112438069Y-134778401D01*
X112312754Y-134692777D01*
X112164000Y-134662654D01*
X112039000Y-134662654D01*
X112039000Y-134133038D01*
X112195342Y-134101940D01*
X112357553Y-133993553D01*
X112536078Y-133815028D01*
X112637677Y-133815117D01*
X112885857Y-133712571D01*
X113075903Y-133522856D01*
X113109547Y-133441833D01*
X113629915Y-133962201D01*
X113218058Y-134374058D01*
X113082575Y-134576823D01*
X113035000Y-134816000D01*
X113035000Y-137010781D01*
X113013034Y-137014914D01*
X112885401Y-137097043D01*
X112799777Y-137222358D01*
X112769654Y-137371112D01*
X112769654Y-139403112D01*
X112795802Y-139542078D01*
X112877931Y-139669711D01*
X113003246Y-139755335D01*
X113152000Y-139785458D01*
X114168000Y-139785458D01*
X114306966Y-139759310D01*
X114434599Y-139677181D01*
X114520223Y-139551866D01*
X114550346Y-139403112D01*
X114550346Y-138995000D01*
X115156654Y-138995000D01*
X115156654Y-139120000D01*
X115182802Y-139258966D01*
X115264931Y-139386599D01*
X115390246Y-139472223D01*
X115463218Y-139487000D01*
X115413088Y-139487000D01*
X115180434Y-139583369D01*
X115002368Y-139761435D01*
X114906000Y-139994089D01*
X114906000Y-140582750D01*
X115064250Y-140741000D01*
X116035000Y-140741000D01*
X116035000Y-140721000D01*
X116293000Y-140721000D01*
X116293000Y-140741000D01*
X117263750Y-140741000D01*
X117422000Y-140582750D01*
X117422000Y-139994089D01*
X117325632Y-139761435D01*
X117147566Y-139583369D01*
X116914912Y-139487000D01*
X116870558Y-139487000D01*
X116927966Y-139476198D01*
X117055599Y-139394069D01*
X117141223Y-139268754D01*
X117171346Y-139120000D01*
X117171346Y-138666362D01*
X118951000Y-138666362D01*
X118951000Y-139521024D01*
X119047369Y-139753678D01*
X119225435Y-139931744D01*
X119458089Y-140028112D01*
X119804750Y-140028112D01*
X119963000Y-139869862D01*
X119963000Y-138508112D01*
X120221000Y-138508112D01*
X120221000Y-139869862D01*
X120379250Y-140028112D01*
X120725911Y-140028112D01*
X120958565Y-139931744D01*
X121136631Y-139753678D01*
X121233000Y-139521024D01*
X121233000Y-138666362D01*
X121074750Y-138508112D01*
X120221000Y-138508112D01*
X119963000Y-138508112D01*
X119109250Y-138508112D01*
X118951000Y-138666362D01*
X117171346Y-138666362D01*
X117171346Y-137620000D01*
X117145198Y-137481034D01*
X117063069Y-137353401D01*
X116937754Y-137267777D01*
X116789000Y-137237654D01*
X115539000Y-137237654D01*
X115400034Y-137263802D01*
X115272401Y-137345931D01*
X115186777Y-137471246D01*
X115156654Y-137620000D01*
X115156654Y-137745000D01*
X114550346Y-137745000D01*
X114550346Y-137371112D01*
X114524198Y-137232146D01*
X114442069Y-137104513D01*
X114316754Y-137018889D01*
X114285000Y-137012459D01*
X114285000Y-135074884D01*
X114772683Y-134587201D01*
X118676602Y-134587201D01*
X118597369Y-134666434D01*
X118501000Y-134899088D01*
X118501000Y-135362750D01*
X118659250Y-135521000D01*
X119755000Y-135521000D01*
X119755000Y-135501000D01*
X120013000Y-135501000D01*
X120013000Y-135521000D01*
X120033000Y-135521000D01*
X120033000Y-135779000D01*
X120013000Y-135779000D01*
X120013000Y-135799000D01*
X119755000Y-135799000D01*
X119755000Y-135779000D01*
X118659250Y-135779000D01*
X118501000Y-135937250D01*
X118501000Y-136400912D01*
X118597369Y-136633566D01*
X118775435Y-136811632D01*
X119008089Y-136908000D01*
X119143915Y-136908000D01*
X119047369Y-137004546D01*
X118951000Y-137237200D01*
X118951000Y-138091862D01*
X119109250Y-138250112D01*
X119963000Y-138250112D01*
X119963000Y-138230112D01*
X120221000Y-138230112D01*
X120221000Y-138250112D01*
X121074750Y-138250112D01*
X121233000Y-138091862D01*
X121233000Y-137237200D01*
X121136631Y-137004546D01*
X120958565Y-136826480D01*
X120957642Y-136826098D01*
X120992565Y-136811632D01*
X121170631Y-136633566D01*
X121267000Y-136400912D01*
X121267000Y-136356558D01*
X121277802Y-136413966D01*
X121359931Y-136541599D01*
X121485246Y-136627223D01*
X121634000Y-136657346D01*
X121753000Y-136657346D01*
X121753000Y-137002781D01*
X121731034Y-137006914D01*
X121603401Y-137089043D01*
X121517777Y-137214358D01*
X121487654Y-137363112D01*
X121487654Y-139395112D01*
X121513802Y-139534078D01*
X121595931Y-139661711D01*
X121721246Y-139747335D01*
X121753000Y-139753765D01*
X121753000Y-143584766D01*
X120549200Y-143584766D01*
X120410234Y-143610914D01*
X120282601Y-143693043D01*
X120196977Y-143818358D01*
X120166854Y-143967112D01*
X120166854Y-145999112D01*
X120193002Y-146138078D01*
X120275131Y-146265711D01*
X120400446Y-146351335D01*
X120549200Y-146381458D01*
X124206800Y-146381458D01*
X124345766Y-146355310D01*
X124473399Y-146273181D01*
X124559023Y-146147866D01*
X124589146Y-145999112D01*
X124589146Y-145197256D01*
X130763757Y-145197256D01*
X130976445Y-145712000D01*
X131369928Y-146106170D01*
X131884301Y-146319757D01*
X132441256Y-146320243D01*
X132956000Y-146107555D01*
X133350170Y-145714072D01*
X133495243Y-145364698D01*
X133603684Y-145627143D01*
X133955007Y-145979081D01*
X134414269Y-146169783D01*
X134911550Y-146170217D01*
X135371143Y-145980316D01*
X135723081Y-145628993D01*
X135913783Y-145169731D01*
X135913785Y-145167555D01*
X136103684Y-145627143D01*
X136455007Y-145979081D01*
X136914269Y-146169783D01*
X137411550Y-146170217D01*
X137871143Y-145980316D01*
X138223081Y-145628993D01*
X138413783Y-145169731D01*
X138414217Y-144672450D01*
X138224316Y-144212857D01*
X137872993Y-143860919D01*
X137413731Y-143670217D01*
X136916450Y-143669783D01*
X136456857Y-143859684D01*
X136104919Y-144211007D01*
X135914217Y-144670269D01*
X135914215Y-144672445D01*
X135724316Y-144212857D01*
X135372993Y-143860919D01*
X134913731Y-143670217D01*
X134416450Y-143669783D01*
X133956857Y-143859684D01*
X133604919Y-144211007D01*
X133495116Y-144475443D01*
X133351555Y-144128000D01*
X132958072Y-143733830D01*
X132443699Y-143520243D01*
X131886744Y-143519757D01*
X131372000Y-143732445D01*
X130977830Y-144125928D01*
X130764243Y-144640301D01*
X130763757Y-145197256D01*
X124589146Y-145197256D01*
X124589146Y-143967112D01*
X124562998Y-143828146D01*
X124480869Y-143700513D01*
X124355554Y-143614889D01*
X124206800Y-143584766D01*
X123003000Y-143584766D01*
X123003000Y-141157250D01*
X125906000Y-141157250D01*
X125906000Y-141745911D01*
X126002368Y-141978565D01*
X126180434Y-142156631D01*
X126413088Y-142253000D01*
X126876750Y-142253000D01*
X127035000Y-142094750D01*
X127035000Y-140999000D01*
X127293000Y-140999000D01*
X127293000Y-142094750D01*
X127451250Y-142253000D01*
X127914912Y-142253000D01*
X128147566Y-142156631D01*
X128325632Y-141978565D01*
X128422000Y-141745911D01*
X128422000Y-141157250D01*
X128263750Y-140999000D01*
X127293000Y-140999000D01*
X127035000Y-140999000D01*
X126064250Y-140999000D01*
X125906000Y-141157250D01*
X123003000Y-141157250D01*
X123003000Y-139755443D01*
X123024966Y-139751310D01*
X123152599Y-139669181D01*
X123238223Y-139543866D01*
X123268346Y-139395112D01*
X123268346Y-137363112D01*
X123620715Y-137363112D01*
X123620715Y-139395112D01*
X123657323Y-139589665D01*
X123772304Y-139768351D01*
X123947744Y-139888224D01*
X124156000Y-139930397D01*
X125172000Y-139930397D01*
X125366553Y-139893789D01*
X125545239Y-139778808D01*
X125665112Y-139603368D01*
X125707285Y-139395112D01*
X125707285Y-139145000D01*
X126008419Y-139145000D01*
X126040323Y-139314553D01*
X126155304Y-139493239D01*
X126246913Y-139555832D01*
X126180434Y-139583369D01*
X126002368Y-139761435D01*
X125906000Y-139994089D01*
X125906000Y-140582750D01*
X126064250Y-140741000D01*
X127035000Y-140741000D01*
X127035000Y-140721000D01*
X127293000Y-140721000D01*
X127293000Y-140741000D01*
X128263750Y-140741000D01*
X128422000Y-140582750D01*
X128422000Y-139994089D01*
X128325632Y-139761435D01*
X128147566Y-139583369D01*
X128081166Y-139555865D01*
X128162239Y-139503696D01*
X128282112Y-139328256D01*
X128319222Y-139145000D01*
X130714000Y-139145000D01*
X131010580Y-139086007D01*
X131262008Y-138918008D01*
X131867313Y-138312703D01*
X131884301Y-138319757D01*
X132441256Y-138320243D01*
X132956000Y-138107555D01*
X133350170Y-137714072D01*
X133495243Y-137364698D01*
X133603684Y-137627143D01*
X133955007Y-137979081D01*
X134414269Y-138169783D01*
X134911550Y-138170217D01*
X135371143Y-137980316D01*
X135723081Y-137628993D01*
X135913783Y-137169731D01*
X135913785Y-137167555D01*
X136103684Y-137627143D01*
X136455007Y-137979081D01*
X136914269Y-138169783D01*
X137411550Y-138170217D01*
X137871143Y-137980316D01*
X138223081Y-137628993D01*
X138413783Y-137169731D01*
X138414217Y-136672450D01*
X138224316Y-136212857D01*
X137872993Y-135860919D01*
X137413731Y-135670217D01*
X136916450Y-135669783D01*
X136456857Y-135859684D01*
X136104919Y-136211007D01*
X135914217Y-136670269D01*
X135914215Y-136672445D01*
X135724316Y-136212857D01*
X135372993Y-135860919D01*
X134913731Y-135670217D01*
X134416450Y-135669783D01*
X133956857Y-135859684D01*
X133604919Y-136211007D01*
X133495116Y-136475443D01*
X133351555Y-136128000D01*
X132958072Y-135733830D01*
X132443699Y-135520243D01*
X131886744Y-135519757D01*
X131372000Y-135732445D01*
X130977830Y-136125928D01*
X130764243Y-136640301D01*
X130763757Y-137197256D01*
X130771643Y-137216341D01*
X130392984Y-137595000D01*
X128319581Y-137595000D01*
X128287677Y-137425447D01*
X128172696Y-137246761D01*
X127997256Y-137126888D01*
X127789000Y-137084715D01*
X126539000Y-137084715D01*
X126344447Y-137121323D01*
X126165761Y-137236304D01*
X126045888Y-137411744D01*
X126008778Y-137595000D01*
X125707285Y-137595000D01*
X125707285Y-137363112D01*
X125670677Y-137168559D01*
X125555696Y-136989873D01*
X125380256Y-136870000D01*
X125172000Y-136827827D01*
X124156000Y-136827827D01*
X123961447Y-136864435D01*
X123782761Y-136979416D01*
X123662888Y-137154856D01*
X123620715Y-137363112D01*
X123268346Y-137363112D01*
X123242198Y-137224146D01*
X123160069Y-137096513D01*
X123034754Y-137010889D01*
X123003000Y-137004459D01*
X123003000Y-136657346D01*
X123134000Y-136657346D01*
X123272966Y-136631198D01*
X123400599Y-136549069D01*
X123486223Y-136423754D01*
X123516346Y-136275000D01*
X123516346Y-136123675D01*
X123575342Y-136111940D01*
X123737553Y-136003553D01*
X125101107Y-134640000D01*
X129665870Y-134640000D01*
X129857212Y-134601940D01*
X130019423Y-134493553D01*
X134052976Y-130460000D01*
X143245749Y-130460000D01*
X143340032Y-130933992D01*
X143608527Y-131335822D01*
X144010357Y-131604317D01*
X144484349Y-131698600D01*
X144843651Y-131698600D01*
X145317643Y-131604317D01*
X145719473Y-131335822D01*
X145987968Y-130933992D01*
X146082251Y-130460000D01*
X145987968Y-129986008D01*
X145719473Y-129584178D01*
X145317643Y-129315683D01*
X144843651Y-129221400D01*
X144484349Y-129221400D01*
X144010357Y-129315683D01*
X143608527Y-129584178D01*
X143340032Y-129986008D01*
X143245749Y-130460000D01*
X134052976Y-130460000D01*
X136406020Y-128106957D01*
X136507618Y-128107046D01*
X136755798Y-128004500D01*
X136840445Y-127920000D01*
X143245749Y-127920000D01*
X143340032Y-128393992D01*
X143608527Y-128795822D01*
X144010357Y-129064317D01*
X144484349Y-129158600D01*
X144843651Y-129158600D01*
X145317643Y-129064317D01*
X145719473Y-128795822D01*
X145987968Y-128393992D01*
X146082251Y-127920000D01*
X145987968Y-127446008D01*
X145719473Y-127044178D01*
X145317643Y-126775683D01*
X144843651Y-126681400D01*
X144484349Y-126681400D01*
X144010357Y-126775683D01*
X143608527Y-127044178D01*
X143340032Y-127446008D01*
X143245749Y-127920000D01*
X136840445Y-127920000D01*
X136945844Y-127814785D01*
X137048824Y-127566784D01*
X137049058Y-127298252D01*
X136946512Y-127050072D01*
X136756797Y-126860026D01*
X136508796Y-126757046D01*
X136240264Y-126756812D01*
X135992084Y-126859358D01*
X135802038Y-127049073D01*
X135699058Y-127297074D01*
X135698968Y-127399795D01*
X129458764Y-133640000D01*
X124894000Y-133640000D01*
X124702658Y-133678060D01*
X124540446Y-133786447D01*
X123470880Y-134856013D01*
X123408069Y-134758401D01*
X123282754Y-134672777D01*
X123134000Y-134642654D01*
X122135538Y-134642654D01*
X121013143Y-133520259D01*
X120810378Y-133384776D01*
X120571201Y-133337201D01*
X114772682Y-133337201D01*
X113042572Y-131607090D01*
X113042572Y-127409858D01*
X113067572Y-127409858D01*
X113206538Y-127383710D01*
X113334171Y-127301581D01*
X113419795Y-127176266D01*
X113449918Y-127027512D01*
X113449918Y-125527512D01*
X113423770Y-125388546D01*
X113341641Y-125260913D01*
X113216326Y-125175289D01*
X113067572Y-125145166D01*
X111767572Y-125145166D01*
X111628606Y-125171314D01*
X111500973Y-125253443D01*
X111415349Y-125378758D01*
X111385226Y-125527512D01*
X111385226Y-126518749D01*
X111292452Y-126425975D01*
X111292452Y-125527512D01*
X111266304Y-125388546D01*
X111184175Y-125260913D01*
X111058860Y-125175289D01*
X110910106Y-125145166D01*
X109796272Y-125145166D01*
X109489475Y-124838369D01*
X109610106Y-124862797D01*
X110910106Y-124862797D01*
X111104659Y-124826189D01*
X111283345Y-124711208D01*
X111338583Y-124630364D01*
X111383876Y-124700751D01*
X111559316Y-124820624D01*
X111767572Y-124862797D01*
X113067572Y-124862797D01*
X113262125Y-124826189D01*
X113440811Y-124711208D01*
X113560684Y-124535768D01*
X113599063Y-124346248D01*
X113864152Y-124293519D01*
X114115580Y-124125520D01*
X118126100Y-120115000D01*
X118333126Y-120115000D01*
X118311777Y-120146246D01*
X118281654Y-120295000D01*
X118281654Y-121545000D01*
X118307802Y-121683966D01*
X118389931Y-121811599D01*
X118515246Y-121897223D01*
X118664000Y-121927346D01*
X118914000Y-121927346D01*
X118914000Y-121963336D01*
X118845667Y-122127899D01*
X118845433Y-122396431D01*
X118914152Y-122562744D01*
X115984845Y-122562744D01*
X115793503Y-122600804D01*
X115631292Y-122709191D01*
X114060436Y-124280047D01*
X113952049Y-124442258D01*
X113913989Y-124633600D01*
X113913989Y-129833977D01*
X113931100Y-129920000D01*
X113952049Y-130025319D01*
X114060436Y-130187530D01*
X115813724Y-131940819D01*
X115813661Y-132012218D01*
X115669327Y-131952285D01*
X115400795Y-131952051D01*
X115152615Y-132054597D01*
X114962569Y-132244312D01*
X114859589Y-132492313D01*
X114859355Y-132760845D01*
X114961901Y-133009025D01*
X115151616Y-133199071D01*
X115399617Y-133302051D01*
X115668149Y-133302285D01*
X115916329Y-133199739D01*
X115989027Y-133127168D01*
X118410836Y-133127168D01*
X118602178Y-133089108D01*
X118764389Y-132980721D01*
X119357554Y-132387557D01*
X119357556Y-132387554D01*
X120667554Y-131077557D01*
X120775940Y-130915346D01*
X120814000Y-130724004D01*
X120814000Y-130427346D01*
X121064000Y-130427346D01*
X121202966Y-130401198D01*
X121330599Y-130319069D01*
X121372838Y-130257250D01*
X128006000Y-130257250D01*
X128006000Y-130845911D01*
X128102368Y-131078565D01*
X128280434Y-131256631D01*
X128513088Y-131353000D01*
X128976750Y-131353000D01*
X129135000Y-131194750D01*
X129135000Y-130099000D01*
X129393000Y-130099000D01*
X129393000Y-131194750D01*
X129551250Y-131353000D01*
X130014912Y-131353000D01*
X130247566Y-131256631D01*
X130425632Y-131078565D01*
X130522000Y-130845911D01*
X130522000Y-130257250D01*
X130363750Y-130099000D01*
X129393000Y-130099000D01*
X129135000Y-130099000D01*
X128164250Y-130099000D01*
X128006000Y-130257250D01*
X121372838Y-130257250D01*
X121416223Y-130193754D01*
X121446346Y-130045000D01*
X121446346Y-128795000D01*
X121420198Y-128656034D01*
X121338069Y-128528401D01*
X121212754Y-128442777D01*
X121138388Y-128427718D01*
X122108856Y-127457250D01*
X122806000Y-127457250D01*
X122806000Y-128045911D01*
X122902368Y-128278565D01*
X123080434Y-128456631D01*
X123313088Y-128553000D01*
X123776750Y-128553000D01*
X123935000Y-128394750D01*
X123935000Y-127299000D01*
X124193000Y-127299000D01*
X124193000Y-128394750D01*
X124351250Y-128553000D01*
X124814912Y-128553000D01*
X125047566Y-128456631D01*
X125225632Y-128278565D01*
X125322000Y-128045911D01*
X125322000Y-127457250D01*
X125163750Y-127299000D01*
X124193000Y-127299000D01*
X123935000Y-127299000D01*
X122964250Y-127299000D01*
X122806000Y-127457250D01*
X122108856Y-127457250D01*
X122806000Y-126760107D01*
X122806000Y-126882750D01*
X122964250Y-127041000D01*
X123935000Y-127041000D01*
X123935000Y-127021000D01*
X124193000Y-127021000D01*
X124193000Y-127041000D01*
X125163750Y-127041000D01*
X125322000Y-126882750D01*
X125322000Y-126294089D01*
X125225632Y-126061435D01*
X125047566Y-125883369D01*
X124814912Y-125787000D01*
X124770558Y-125787000D01*
X124827966Y-125776198D01*
X124955599Y-125694069D01*
X125041223Y-125568754D01*
X125071346Y-125420000D01*
X125071346Y-125170000D01*
X125206894Y-125170000D01*
X127188972Y-127152078D01*
X127188883Y-127253677D01*
X127291429Y-127501857D01*
X127481144Y-127691903D01*
X127729145Y-127794883D01*
X127831866Y-127794973D01*
X127860447Y-127823554D01*
X128022658Y-127931940D01*
X128214000Y-127970000D01*
X128256654Y-127970000D01*
X128256654Y-128220000D01*
X128282802Y-128358966D01*
X128364931Y-128486599D01*
X128490246Y-128572223D01*
X128563218Y-128587000D01*
X128513088Y-128587000D01*
X128280434Y-128683369D01*
X128102368Y-128861435D01*
X128006000Y-129094089D01*
X128006000Y-129682750D01*
X128164250Y-129841000D01*
X129135000Y-129841000D01*
X129135000Y-129821000D01*
X129393000Y-129821000D01*
X129393000Y-129841000D01*
X130363750Y-129841000D01*
X130522000Y-129682750D01*
X130522000Y-129094089D01*
X130425632Y-128861435D01*
X130247566Y-128683369D01*
X130014912Y-128587000D01*
X129970558Y-128587000D01*
X130027966Y-128576198D01*
X130155599Y-128494069D01*
X130241223Y-128368754D01*
X130271346Y-128220000D01*
X130271346Y-126720000D01*
X130245198Y-126581034D01*
X130163069Y-126453401D01*
X130037754Y-126367777D01*
X129889000Y-126337654D01*
X128639000Y-126337654D01*
X128500034Y-126363802D01*
X128372401Y-126445931D01*
X128286777Y-126571246D01*
X128283942Y-126585247D01*
X128246856Y-126548097D01*
X127998855Y-126445117D01*
X127896134Y-126445027D01*
X125767553Y-124316447D01*
X125605342Y-124208060D01*
X125414000Y-124170000D01*
X125071346Y-124170000D01*
X125071346Y-124046860D01*
X130328881Y-124046860D01*
X130431427Y-124295040D01*
X130484137Y-124347842D01*
X130432097Y-124399791D01*
X130329117Y-124647792D01*
X130328883Y-124916324D01*
X130431429Y-125164504D01*
X130621144Y-125354550D01*
X130869145Y-125457530D01*
X130971866Y-125457620D01*
X131787625Y-126273379D01*
X131883820Y-126337654D01*
X131949836Y-126381765D01*
X132141178Y-126419825D01*
X133582380Y-126419825D01*
X133654158Y-126491728D01*
X133902159Y-126594708D01*
X134170691Y-126594942D01*
X134418871Y-126492396D01*
X134608917Y-126302681D01*
X134711897Y-126054680D01*
X134712131Y-125786148D01*
X134609585Y-125537968D01*
X134419870Y-125347922D01*
X134171869Y-125244942D01*
X133903337Y-125244708D01*
X133655157Y-125347254D01*
X133582459Y-125419825D01*
X132348285Y-125419825D01*
X131679028Y-124750569D01*
X131679117Y-124648970D01*
X131581692Y-124413183D01*
X138120472Y-124413183D01*
X138219518Y-124512228D01*
X138219429Y-124613827D01*
X138321975Y-124862007D01*
X138511690Y-125052053D01*
X138759691Y-125155033D01*
X139028223Y-125155267D01*
X139276403Y-125052721D01*
X139466449Y-124863006D01*
X139569429Y-124615005D01*
X139569663Y-124346473D01*
X139467117Y-124098293D01*
X139277402Y-123908247D01*
X139029401Y-123805267D01*
X138926680Y-123805177D01*
X138681132Y-123559630D01*
X138518921Y-123451243D01*
X138327579Y-123413183D01*
X131458632Y-123413183D01*
X131386854Y-123341280D01*
X131138853Y-123238300D01*
X130870321Y-123238066D01*
X130622141Y-123340612D01*
X130432095Y-123530327D01*
X130329115Y-123778328D01*
X130328881Y-124046860D01*
X125071346Y-124046860D01*
X125071346Y-123920000D01*
X125045198Y-123781034D01*
X124963069Y-123653401D01*
X124837754Y-123567777D01*
X124689000Y-123537654D01*
X123439000Y-123537654D01*
X123300034Y-123563802D01*
X123172401Y-123645931D01*
X123086777Y-123771246D01*
X123056654Y-123920000D01*
X123056654Y-124170000D01*
X122239872Y-124170000D01*
X120193356Y-122123484D01*
X120112313Y-121927346D01*
X120164000Y-121927346D01*
X120302966Y-121901198D01*
X120430599Y-121819069D01*
X120516223Y-121693754D01*
X120531000Y-121620782D01*
X120531000Y-121670912D01*
X120627369Y-121903566D01*
X120805435Y-122081632D01*
X121038089Y-122178000D01*
X121626750Y-122178000D01*
X121785000Y-122019750D01*
X121785000Y-121049000D01*
X122043000Y-121049000D01*
X122043000Y-122019750D01*
X122201250Y-122178000D01*
X122789911Y-122178000D01*
X123022565Y-122081632D01*
X123200631Y-121903566D01*
X123297000Y-121670912D01*
X123297000Y-121207250D01*
X123138750Y-121049000D01*
X122043000Y-121049000D01*
X121785000Y-121049000D01*
X121765000Y-121049000D01*
X121765000Y-120791000D01*
X121785000Y-120791000D01*
X121785000Y-120771000D01*
X122043000Y-120771000D01*
X122043000Y-120791000D01*
X123138750Y-120791000D01*
X123297000Y-120632750D01*
X123297000Y-120169088D01*
X123274596Y-120115000D01*
X130102984Y-120115000D01*
X130455992Y-120468008D01*
X130707420Y-120636007D01*
X131004000Y-120695000D01*
X143469421Y-120695000D01*
X143476445Y-120712000D01*
X143869928Y-121106170D01*
X144384301Y-121319757D01*
X144941256Y-121320243D01*
X145456000Y-121107555D01*
X145850170Y-120714072D01*
X146063757Y-120199699D01*
X146064243Y-119642744D01*
X145851555Y-119128000D01*
X145458072Y-118733830D01*
X145108698Y-118588757D01*
X145371143Y-118480316D01*
X145723081Y-118128993D01*
X145913783Y-117669731D01*
X145914217Y-117172450D01*
X145724316Y-116712857D01*
X145372993Y-116360919D01*
X144913731Y-116170217D01*
X144911555Y-116170215D01*
X145371143Y-115980316D01*
X145723081Y-115628993D01*
X145913783Y-115169731D01*
X145914217Y-114672450D01*
X145724316Y-114212857D01*
X145372993Y-113860919D01*
X144913731Y-113670217D01*
X144911555Y-113670215D01*
X145371143Y-113480316D01*
X145723081Y-113128993D01*
X145913783Y-112669731D01*
X145914217Y-112172450D01*
X145724316Y-111712857D01*
X145372993Y-111360919D01*
X144913731Y-111170217D01*
X144416450Y-111169783D01*
X143956857Y-111359684D01*
X143604919Y-111711007D01*
X143414217Y-112170269D01*
X143413783Y-112667550D01*
X143603684Y-113127143D01*
X143955007Y-113479081D01*
X144414269Y-113669783D01*
X144416445Y-113669785D01*
X143956857Y-113859684D01*
X143604919Y-114211007D01*
X143414217Y-114670269D01*
X143413783Y-115167550D01*
X143603684Y-115627143D01*
X143955007Y-115979081D01*
X144414269Y-116169783D01*
X144416445Y-116169785D01*
X143956857Y-116359684D01*
X143604919Y-116711007D01*
X143414217Y-117170269D01*
X143413783Y-117667550D01*
X143603684Y-118127143D01*
X143955007Y-118479081D01*
X144219443Y-118588884D01*
X143872000Y-118732445D01*
X143477830Y-119125928D01*
X143469911Y-119145000D01*
X138436349Y-119145000D01*
X138719473Y-118955822D01*
X138987968Y-118553992D01*
X139082251Y-118080000D01*
X138987968Y-117606008D01*
X138719473Y-117204178D01*
X138317643Y-116935683D01*
X137843651Y-116841400D01*
X137484349Y-116841400D01*
X137010357Y-116935683D01*
X136608527Y-117204178D01*
X136357410Y-117580000D01*
X128483383Y-117580000D01*
X128398738Y-117495207D01*
X128150737Y-117392227D01*
X127882205Y-117391993D01*
X127634025Y-117494539D01*
X127443979Y-117684254D01*
X127340999Y-117932255D01*
X127340765Y-118200787D01*
X127443311Y-118448967D01*
X127559142Y-118565000D01*
X119687219Y-118565000D01*
X119703893Y-118524845D01*
X119703983Y-118422124D01*
X120623761Y-117502346D01*
X121314000Y-117502346D01*
X121452966Y-117476198D01*
X121580599Y-117394069D01*
X121665130Y-117270354D01*
X121739931Y-117386599D01*
X121865246Y-117472223D01*
X122014000Y-117502346D01*
X123314000Y-117502346D01*
X123452966Y-117476198D01*
X123580599Y-117394069D01*
X123666223Y-117268754D01*
X123696346Y-117120000D01*
X123696346Y-116553677D01*
X132988883Y-116553677D01*
X133091429Y-116801857D01*
X133281144Y-116991903D01*
X133529145Y-117094883D01*
X133797677Y-117095117D01*
X134045857Y-116992571D01*
X134118555Y-116920000D01*
X136784000Y-116920000D01*
X136975342Y-116881940D01*
X137137553Y-116773553D01*
X137190881Y-116720225D01*
X137484349Y-116778600D01*
X137843651Y-116778600D01*
X138317643Y-116684317D01*
X138719473Y-116415822D01*
X138987968Y-116013992D01*
X139082251Y-115540000D01*
X138987968Y-115066008D01*
X138719473Y-114664178D01*
X138317643Y-114395683D01*
X137843651Y-114301400D01*
X137484349Y-114301400D01*
X137010357Y-114395683D01*
X136608527Y-114664178D01*
X136340032Y-115066008D01*
X136245749Y-115540000D01*
X136321336Y-115920000D01*
X134118634Y-115920000D01*
X134046856Y-115848097D01*
X133798855Y-115745117D01*
X133530323Y-115744883D01*
X133282143Y-115847429D01*
X133092097Y-116037144D01*
X132989117Y-116285145D01*
X132988883Y-116553677D01*
X123696346Y-116553677D01*
X123696346Y-115620000D01*
X123670198Y-115481034D01*
X123588069Y-115353401D01*
X123462754Y-115267777D01*
X123314000Y-115237654D01*
X122014000Y-115237654D01*
X121875034Y-115263802D01*
X121747401Y-115345931D01*
X121662870Y-115469646D01*
X121588069Y-115353401D01*
X121462754Y-115267777D01*
X121350281Y-115245001D01*
X121688999Y-115245001D01*
X121880341Y-115206941D01*
X122042552Y-115098554D01*
X122338760Y-114802346D01*
X123314000Y-114802346D01*
X123452966Y-114776198D01*
X123580599Y-114694069D01*
X123666223Y-114568754D01*
X123696346Y-114420000D01*
X123696346Y-114170000D01*
X127974000Y-114170000D01*
X128165342Y-114131940D01*
X128327553Y-114023553D01*
X129351106Y-113000000D01*
X136245749Y-113000000D01*
X136340032Y-113473992D01*
X136608527Y-113875822D01*
X137010357Y-114144317D01*
X137484349Y-114238600D01*
X137843651Y-114238600D01*
X138317643Y-114144317D01*
X138719473Y-113875822D01*
X138987968Y-113473992D01*
X139082251Y-113000000D01*
X138987968Y-112526008D01*
X138719473Y-112124178D01*
X138317643Y-111855683D01*
X137843651Y-111761400D01*
X137484349Y-111761400D01*
X137010357Y-111855683D01*
X136608527Y-112124178D01*
X136340032Y-112526008D01*
X136245749Y-113000000D01*
X129351106Y-113000000D01*
X134431106Y-107920000D01*
X136245749Y-107920000D01*
X136340032Y-108393992D01*
X136608527Y-108795822D01*
X137010357Y-109064317D01*
X137484349Y-109158600D01*
X137843651Y-109158600D01*
X138317643Y-109064317D01*
X138719473Y-108795822D01*
X138987968Y-108393992D01*
X139082251Y-107920000D01*
X138987968Y-107446008D01*
X138719473Y-107044178D01*
X138317643Y-106775683D01*
X137843651Y-106681400D01*
X137484349Y-106681400D01*
X137010357Y-106775683D01*
X136608527Y-107044178D01*
X136340032Y-107446008D01*
X136245749Y-107920000D01*
X134431106Y-107920000D01*
X136265654Y-106085453D01*
X136265654Y-106243600D01*
X136291802Y-106382566D01*
X136373931Y-106510199D01*
X136499246Y-106595823D01*
X136648000Y-106625946D01*
X138680000Y-106625946D01*
X138818966Y-106599798D01*
X138946599Y-106517669D01*
X139032223Y-106392354D01*
X139062346Y-106243600D01*
X139062346Y-104516400D01*
X139036198Y-104377434D01*
X138954069Y-104249801D01*
X138828754Y-104164177D01*
X138680000Y-104134054D01*
X136648000Y-104134054D01*
X136509034Y-104160202D01*
X136381401Y-104242331D01*
X136295777Y-104367646D01*
X136265654Y-104516400D01*
X136265654Y-104880000D01*
X136264000Y-104880000D01*
X136072658Y-104918060D01*
X135910446Y-105026447D01*
X127766894Y-113170000D01*
X123696346Y-113170000D01*
X123696346Y-112920000D01*
X123670198Y-112781034D01*
X123588069Y-112653401D01*
X123462754Y-112567777D01*
X123314000Y-112537654D01*
X122014000Y-112537654D01*
X121875034Y-112563802D01*
X121856541Y-112575702D01*
X121850632Y-112561435D01*
X121672566Y-112383369D01*
X121439912Y-112287000D01*
X120951250Y-112287000D01*
X120793000Y-112445250D01*
X120793000Y-113541000D01*
X120813000Y-113541000D01*
X120813000Y-113799000D01*
X120793000Y-113799000D01*
X120793000Y-113819000D01*
X120535000Y-113819000D01*
X120535000Y-113799000D01*
X119539250Y-113799000D01*
X119381000Y-113957250D01*
X119381000Y-114545911D01*
X119477368Y-114778565D01*
X119537849Y-114839046D01*
X113456894Y-120920000D01*
X110118634Y-120920000D01*
X110046856Y-120848097D01*
X109798855Y-120745117D01*
X109530323Y-120744883D01*
X109282143Y-120847429D01*
X109092097Y-121037144D01*
X109040357Y-121161747D01*
X108439000Y-120560390D01*
X108439000Y-112794089D01*
X119381000Y-112794089D01*
X119381000Y-113382750D01*
X119539250Y-113541000D01*
X120535000Y-113541000D01*
X120535000Y-112445250D01*
X120376750Y-112287000D01*
X119888088Y-112287000D01*
X119655434Y-112383369D01*
X119477368Y-112561435D01*
X119381000Y-112794089D01*
X108439000Y-112794089D01*
X108439000Y-112420000D01*
X108380007Y-112123420D01*
X108212008Y-111871992D01*
X106556703Y-110216687D01*
X106563757Y-110199699D01*
X106564243Y-109642744D01*
X106351555Y-109128000D01*
X105958072Y-108733830D01*
X105443699Y-108520243D01*
X104886744Y-108519757D01*
X104372000Y-108732445D01*
X103977830Y-109125928D01*
X103764243Y-109640301D01*
X103763757Y-110197256D01*
X100454000Y-110197256D01*
X100454000Y-105240349D01*
X115425400Y-105240349D01*
X115425400Y-105599651D01*
X115519683Y-106073643D01*
X115788178Y-106475473D01*
X116190008Y-106743968D01*
X116664000Y-106838251D01*
X117137992Y-106743968D01*
X117539822Y-106475473D01*
X117808317Y-106073643D01*
X117902600Y-105599651D01*
X117902600Y-105240349D01*
X117965400Y-105240349D01*
X117965400Y-105599651D01*
X118059683Y-106073643D01*
X118328178Y-106475473D01*
X118730008Y-106743968D01*
X119204000Y-106838251D01*
X119677992Y-106743968D01*
X120079822Y-106475473D01*
X120348317Y-106073643D01*
X120442600Y-105599651D01*
X120442600Y-105240349D01*
X127925400Y-105240349D01*
X127925400Y-105599651D01*
X128019683Y-106073643D01*
X128288178Y-106475473D01*
X128690008Y-106743968D01*
X129164000Y-106838251D01*
X129637992Y-106743968D01*
X130039822Y-106475473D01*
X130308317Y-106073643D01*
X130402600Y-105599651D01*
X130402600Y-105240349D01*
X130465400Y-105240349D01*
X130465400Y-105599651D01*
X130559683Y-106073643D01*
X130828178Y-106475473D01*
X131230008Y-106743968D01*
X131704000Y-106838251D01*
X132177992Y-106743968D01*
X132579822Y-106475473D01*
X132848317Y-106073643D01*
X132942600Y-105599651D01*
X132942600Y-105240349D01*
X132848317Y-104766357D01*
X132579822Y-104364527D01*
X132177992Y-104096032D01*
X131704000Y-104001749D01*
X131230008Y-104096032D01*
X130828178Y-104364527D01*
X130559683Y-104766357D01*
X130465400Y-105240349D01*
X130402600Y-105240349D01*
X130308317Y-104766357D01*
X130039822Y-104364527D01*
X129637992Y-104096032D01*
X129164000Y-104001749D01*
X128690008Y-104096032D01*
X128288178Y-104364527D01*
X128019683Y-104766357D01*
X127925400Y-105240349D01*
X120442600Y-105240349D01*
X120348317Y-104766357D01*
X120079822Y-104364527D01*
X119677992Y-104096032D01*
X119204000Y-104001749D01*
X118730008Y-104096032D01*
X118328178Y-104364527D01*
X118059683Y-104766357D01*
X117965400Y-105240349D01*
X117902600Y-105240349D01*
X117808317Y-104766357D01*
X117539822Y-104364527D01*
X117137992Y-104096032D01*
X116664000Y-104001749D01*
X116190008Y-104096032D01*
X115788178Y-104364527D01*
X115519683Y-104766357D01*
X115425400Y-105240349D01*
X100454000Y-105240349D01*
X100454000Y-100590000D01*
X149554000Y-100590000D01*
X149554000Y-149690000D01*
G36*
X121679213Y-125023553D02*
X121841424Y-125131940D01*
X122032766Y-125170000D01*
X122981894Y-125170000D01*
X122510450Y-125641444D01*
X122510447Y-125641446D01*
X121446346Y-126705547D01*
X121446346Y-126295000D01*
X121420198Y-126156034D01*
X121338069Y-126028401D01*
X121212754Y-125942777D01*
X121064000Y-125912654D01*
X120787675Y-125912654D01*
X120775940Y-125853658D01*
X120724182Y-125776198D01*
X120667554Y-125691447D01*
X120188842Y-125212736D01*
X120033348Y-125108837D01*
X119919096Y-124994386D01*
X119671095Y-124891406D01*
X119402563Y-124891172D01*
X119154383Y-124993718D01*
X118964337Y-125183433D01*
X118861357Y-125431434D01*
X118861123Y-125699966D01*
X118877550Y-125739722D01*
X118689911Y-125662000D01*
X118101250Y-125662000D01*
X117943000Y-125820250D01*
X117943000Y-126791000D01*
X117963000Y-126791000D01*
X117963000Y-127049000D01*
X117943000Y-127049000D01*
X117943000Y-128019750D01*
X118093250Y-128170000D01*
X117943000Y-128320250D01*
X117943000Y-129291000D01*
X117963000Y-129291000D01*
X117963000Y-129549000D01*
X117943000Y-129549000D01*
X117943000Y-130519750D01*
X118101250Y-130678000D01*
X118689911Y-130678000D01*
X118922565Y-130581632D01*
X119100631Y-130403566D01*
X119197000Y-130170912D01*
X119197000Y-130126558D01*
X119207802Y-130183966D01*
X119289931Y-130311599D01*
X119415246Y-130397223D01*
X119564000Y-130427346D01*
X119814000Y-130427346D01*
X119814000Y-130516897D01*
X118650450Y-131680448D01*
X118650447Y-131680450D01*
X118203730Y-132127168D01*
X118136861Y-132127168D01*
X118187017Y-132006381D01*
X118187251Y-131737849D01*
X118084705Y-131489669D01*
X117894990Y-131299623D01*
X117646989Y-131196643D01*
X117544268Y-131196553D01*
X117025715Y-130678000D01*
X117526750Y-130678000D01*
X117685000Y-130519750D01*
X117685000Y-129549000D01*
X116589250Y-129549000D01*
X116431000Y-129707250D01*
X116431000Y-130083285D01*
X115364000Y-129016286D01*
X115364000Y-127207250D01*
X116431000Y-127207250D01*
X116431000Y-127670912D01*
X116527369Y-127903566D01*
X116705435Y-128081632D01*
X116918775Y-128170000D01*
X116705435Y-128258368D01*
X116527369Y-128436434D01*
X116431000Y-128669088D01*
X116431000Y-129132750D01*
X116589250Y-129291000D01*
X117685000Y-129291000D01*
X117685000Y-128320250D01*
X117534750Y-128170000D01*
X117685000Y-128019750D01*
X117685000Y-127049000D01*
X116589250Y-127049000D01*
X116431000Y-127207250D01*
X115364000Y-127207250D01*
X115364000Y-126169088D01*
X116431000Y-126169088D01*
X116431000Y-126632750D01*
X116589250Y-126791000D01*
X117685000Y-126791000D01*
X117685000Y-125820250D01*
X117526750Y-125662000D01*
X116938089Y-125662000D01*
X116705435Y-125758368D01*
X116527369Y-125936434D01*
X116431000Y-126169088D01*
X115364000Y-126169088D01*
X115364000Y-125027106D01*
X116028351Y-124362755D01*
X119072283Y-124362755D01*
X119144061Y-124434658D01*
X119392062Y-124537638D01*
X119660594Y-124537872D01*
X119908774Y-124435326D01*
X120098820Y-124245611D01*
X120201800Y-123997610D01*
X120202034Y-123729078D01*
X120099488Y-123480898D01*
X120075401Y-123456769D01*
X120086589Y-123445600D01*
X120090894Y-123435234D01*
X121679213Y-125023553D01*
X121679213Y-125023553D01*
G37*
X121679213Y-125023553D02*
X121841424Y-125131940D01*
X122032766Y-125170000D01*
X122981894Y-125170000D01*
X122510450Y-125641444D01*
X122510447Y-125641446D01*
X121446346Y-126705547D01*
X121446346Y-126295000D01*
X121420198Y-126156034D01*
X121338069Y-126028401D01*
X121212754Y-125942777D01*
X121064000Y-125912654D01*
X120787675Y-125912654D01*
X120775940Y-125853658D01*
X120724182Y-125776198D01*
X120667554Y-125691447D01*
X120188842Y-125212736D01*
X120033348Y-125108837D01*
X119919096Y-124994386D01*
X119671095Y-124891406D01*
X119402563Y-124891172D01*
X119154383Y-124993718D01*
X118964337Y-125183433D01*
X118861357Y-125431434D01*
X118861123Y-125699966D01*
X118877550Y-125739722D01*
X118689911Y-125662000D01*
X118101250Y-125662000D01*
X117943000Y-125820250D01*
X117943000Y-126791000D01*
X117963000Y-126791000D01*
X117963000Y-127049000D01*
X117943000Y-127049000D01*
X117943000Y-128019750D01*
X118093250Y-128170000D01*
X117943000Y-128320250D01*
X117943000Y-129291000D01*
X117963000Y-129291000D01*
X117963000Y-129549000D01*
X117943000Y-129549000D01*
X117943000Y-130519750D01*
X118101250Y-130678000D01*
X118689911Y-130678000D01*
X118922565Y-130581632D01*
X119100631Y-130403566D01*
X119197000Y-130170912D01*
X119197000Y-130126558D01*
X119207802Y-130183966D01*
X119289931Y-130311599D01*
X119415246Y-130397223D01*
X119564000Y-130427346D01*
X119814000Y-130427346D01*
X119814000Y-130516897D01*
X118650450Y-131680448D01*
X118650447Y-131680450D01*
X118203730Y-132127168D01*
X118136861Y-132127168D01*
X118187017Y-132006381D01*
X118187251Y-131737849D01*
X118084705Y-131489669D01*
X117894990Y-131299623D01*
X117646989Y-131196643D01*
X117544268Y-131196553D01*
X117025715Y-130678000D01*
X117526750Y-130678000D01*
X117685000Y-130519750D01*
X117685000Y-129549000D01*
X116589250Y-129549000D01*
X116431000Y-129707250D01*
X116431000Y-130083285D01*
X115364000Y-129016286D01*
X115364000Y-127207250D01*
X116431000Y-127207250D01*
X116431000Y-127670912D01*
X116527369Y-127903566D01*
X116705435Y-128081632D01*
X116918775Y-128170000D01*
X116705435Y-128258368D01*
X116527369Y-128436434D01*
X116431000Y-128669088D01*
X116431000Y-129132750D01*
X116589250Y-129291000D01*
X117685000Y-129291000D01*
X117685000Y-128320250D01*
X117534750Y-128170000D01*
X117685000Y-128019750D01*
X117685000Y-127049000D01*
X116589250Y-127049000D01*
X116431000Y-127207250D01*
X115364000Y-127207250D01*
X115364000Y-126169088D01*
X116431000Y-126169088D01*
X116431000Y-126632750D01*
X116589250Y-126791000D01*
X117685000Y-126791000D01*
X117685000Y-125820250D01*
X117526750Y-125662000D01*
X116938089Y-125662000D01*
X116705435Y-125758368D01*
X116527369Y-125936434D01*
X116431000Y-126169088D01*
X115364000Y-126169088D01*
X115364000Y-125027106D01*
X116028351Y-124362755D01*
X119072283Y-124362755D01*
X119144061Y-124434658D01*
X119392062Y-124537638D01*
X119660594Y-124537872D01*
X119908774Y-124435326D01*
X120098820Y-124245611D01*
X120201800Y-123997610D01*
X120202034Y-123729078D01*
X120099488Y-123480898D01*
X120075401Y-123456769D01*
X120086589Y-123445600D01*
X120090894Y-123435234D01*
X121679213Y-125023553D01*
M02*
