G04 #@! TF.FileFunction,Paste,Top*
%FSLAX46Y46*%
G04 Gerber Fmt 4.6, Leading zero omitted, Abs format (unit mm)*
G04 Created by KiCad (PCBNEW 4.0.5) date Thu Feb 16 16:16:09 2017*
%MOMM*%
%LPD*%
G01*
G04 APERTURE LIST*
%ADD10C,0.100000*%
%ADD11R,10.000000X15.750000*%
%ADD12R,1.198880X1.198880*%
%ADD13R,1.500000X1.300000*%
%ADD14R,1.300000X1.500000*%
%ADD15R,0.600000X1.550000*%
%ADD16C,0.750000*%
%ADD17R,1.250000X1.500000*%
%ADD18R,0.910000X1.220000*%
%ADD19R,1.220000X0.910000*%
%ADD20R,1.600000X2.000000*%
%ADD21R,1.200000X0.600000*%
%ADD22R,0.600000X1.200000*%
G04 APERTURE END LIST*
D10*
D11*
X132550000Y-81550000D03*
D12*
X143450980Y-79150000D03*
X145549020Y-79150000D03*
X143401960Y-63000000D03*
X145500000Y-63000000D03*
D13*
X141900000Y-76750000D03*
X144600000Y-76750000D03*
X141900000Y-60500000D03*
X144600000Y-60500000D03*
D14*
X138500000Y-71350000D03*
X138500000Y-68650000D03*
D15*
X138909000Y-125940000D03*
X137639000Y-125940000D03*
X136369000Y-125940000D03*
X135099000Y-125940000D03*
X135099000Y-131340000D03*
X136369000Y-131340000D03*
X137639000Y-131340000D03*
X138909000Y-131340000D03*
D16*
X125404000Y-118940000D03*
X128804000Y-118940000D03*
X123504000Y-131140000D03*
X122504000Y-131140000D03*
D17*
X129664000Y-117170000D03*
X129664000Y-114670000D03*
D18*
X117179000Y-112420000D03*
X120449000Y-112420000D03*
X117194000Y-114920000D03*
X120464000Y-114920000D03*
D19*
X113514000Y-119285000D03*
X113514000Y-122555000D03*
D12*
X112713020Y-140920000D03*
X110614980Y-140920000D03*
X112664000Y-134920000D03*
X110565960Y-134920000D03*
X112664000Y-137920000D03*
X110565960Y-137920000D03*
D13*
X113514000Y-112420000D03*
X110814000Y-112420000D03*
X113514000Y-114920000D03*
X110814000Y-114920000D03*
X113514000Y-117420000D03*
X110814000Y-117420000D03*
X118014000Y-140920000D03*
X115314000Y-140920000D03*
X118014000Y-134920000D03*
X115314000Y-134920000D03*
X118014000Y-137920000D03*
X115314000Y-137920000D03*
D20*
X132664000Y-113220000D03*
X132664000Y-118620000D03*
D21*
X120754000Y-122340000D03*
X120754000Y-123140000D03*
X120754000Y-123940000D03*
X120754000Y-124740000D03*
X120754000Y-125540000D03*
X120754000Y-126340000D03*
X120754000Y-127140000D03*
X120754000Y-127940000D03*
D22*
X122204000Y-129390000D03*
X123004000Y-129390000D03*
X123804000Y-129390000D03*
X124604000Y-129390000D03*
X125404000Y-129390000D03*
X126204000Y-129390000D03*
X127004000Y-129390000D03*
X127804000Y-129390000D03*
D21*
X129254000Y-127940000D03*
X129254000Y-127140000D03*
X129254000Y-126340000D03*
X129254000Y-125540000D03*
X129254000Y-124740000D03*
X129254000Y-123940000D03*
X129254000Y-123140000D03*
X129254000Y-122340000D03*
D22*
X127804000Y-120890000D03*
X127004000Y-120890000D03*
X126204000Y-120890000D03*
X125404000Y-120890000D03*
X124604000Y-120890000D03*
X123804000Y-120890000D03*
X123004000Y-120890000D03*
X122204000Y-120890000D03*
D16*
X121504000Y-131140000D03*
M02*
