M48
;DRILL file {KiCad 4.0.5} date Thu Feb 16 16:16:15 2017
;FORMAT={-:-/ absolute / metric / decimal}
FMAT,2
METRIC,TZ
T1C0.300
T2C0.400
T3C0.762
T4C0.813
T5C0.900
T6C1.001
T7C1.016
T8C1.200
T9C1.270
T10C1.300
T11C3.048
T12C3.800
T13C2.700
%
G90
G05
M71
T1
X102.504Y-107.64
X102.504Y-110.14
X102.504Y-112.64
X102.504Y-115.14
X102.504Y-117.64
X102.504Y-120.14
X102.504Y-122.64
X102.504Y-125.14
X102.504Y-127.64
X102.504Y-130.14
X102.504Y-132.64
X102.504Y-135.14
X102.504Y-137.64
X102.504Y-140.14
X102.504Y-142.64
X105.004Y-107.64
X105.004Y-122.64
X105.004Y-125.14
X105.004Y-132.64
X105.004Y-135.14
X105.004Y-137.64
X105.004Y-140.14
X105.004Y-142.64
X106.504Y-113.64
X106.504Y-116.14
X107.504Y-102.64
X107.504Y-105.14
X107.504Y-107.64
X107.504Y-110.14
X107.504Y-122.64
X107.504Y-125.14
X107.504Y-127.64
X107.504Y-132.64
X107.504Y-135.14
X107.504Y-137.64
X107.504Y-140.14
X107.504Y-142.64
X107.504Y-145.14
X107.504Y-147.64
X109.004Y-113.64
X109.004Y-116.14
X110.Y-55.
X110.Y-75.
X110.Y-80.
X110.Y-95.
X110.004Y-102.64
X110.004Y-105.14
X110.004Y-107.64
X110.004Y-110.14
X110.004Y-132.64
X110.004Y-142.64
X110.004Y-147.64
X112.504Y-102.64
X112.504Y-105.14
X112.504Y-107.64
X112.504Y-110.14
X112.504Y-120.14
X112.504Y-142.64
X112.504Y-147.64
X115.Y-65.
X115.Y-70.
X115.Y-85.
X115.Y-90.
X115.Y-95.
X115.004Y-102.64
X115.004Y-107.64
X115.004Y-110.14
X115.004Y-142.64
X115.004Y-145.14
X115.004Y-147.64
X115.504Y-113.64
X115.504Y-116.14
X117.504Y-102.64
X117.504Y-107.64
X117.504Y-110.14
X117.504Y-142.64
X117.504Y-145.14
X117.504Y-147.64
X120.Y-65.
X120.Y-70.
X120.004Y-102.64
X120.004Y-110.14
X120.004Y-132.64
X120.004Y-140.14
X120.004Y-142.64
X120.004Y-147.64
X122.504Y-102.64
X122.504Y-105.14
X122.504Y-107.64
X122.504Y-117.64
X122.504Y-147.64
X125.Y-60.
X125.Y-65.
X125.Y-70.
X125.Y-80.
X125.Y-90.
X125.004Y-102.64
X125.004Y-105.14
X125.004Y-107.64
X125.004Y-110.14
X125.004Y-122.64
X125.004Y-132.64
X125.004Y-135.14
X125.004Y-140.14
X125.004Y-142.64
X125.004Y-145.14
X125.004Y-147.64
X126.004Y-127.14
X127.504Y-102.64
X127.504Y-107.64
X127.504Y-110.14
X127.504Y-132.64
X127.504Y-135.14
X127.504Y-142.64
X127.504Y-145.14
X127.504Y-147.64
X128.004Y-116.14
X130.Y-55.
X130.Y-60.
X130.004Y-102.64
X130.004Y-110.14
X130.004Y-112.64
X130.004Y-132.64
X130.004Y-135.14
X130.004Y-140.14
X130.004Y-142.64
X130.004Y-145.14
X130.004Y-147.64
X131.004Y-121.14
X131.254Y-129.64
X132.504Y-102.64
X132.504Y-107.64
X132.504Y-110.14
X132.504Y-115.14
X132.504Y-127.64
X132.504Y-132.64
X132.504Y-135.14
X132.504Y-147.64
X133.004Y-122.64
X135.004Y-102.64
X135.004Y-105.14
X135.004Y-107.64
X135.004Y-110.14
X135.004Y-112.64
X135.004Y-115.14
X135.004Y-120.94
X135.004Y-127.64
X135.004Y-135.14
X135.004Y-147.64
X137.504Y-102.64
X137.504Y-122.64
X137.504Y-127.64
X137.504Y-147.64
X140.Y-75.
X140.Y-80.
X140.Y-90.
X140.004Y-102.64
X140.004Y-105.14
X140.004Y-107.64
X140.004Y-110.14
X140.004Y-112.64
X140.004Y-115.14
X140.004Y-122.64
X140.004Y-125.14
X140.004Y-127.64
X140.004Y-130.14
X140.004Y-132.64
X140.004Y-135.14
X140.004Y-147.64
X142.504Y-102.64
X142.504Y-105.14
X142.504Y-107.64
X142.504Y-110.14
X142.504Y-112.64
X142.504Y-118.64
X142.504Y-122.64
X142.504Y-125.14
X142.504Y-127.64
X142.504Y-130.14
X142.504Y-132.64
X142.504Y-135.14
X142.504Y-137.64
X142.504Y-140.14
X142.504Y-142.64
X142.504Y-145.14
X142.504Y-147.64
X145.Y-65.
X145.Y-90.
X145.004Y-107.64
X145.004Y-122.64
X145.004Y-132.64
X145.004Y-135.14
X145.004Y-137.64
X145.004Y-140.14
X145.004Y-142.64
X147.504Y-107.64
X147.504Y-110.14
X147.504Y-112.64
X147.504Y-115.14
X147.504Y-117.64
X147.504Y-120.14
X147.504Y-122.64
X147.504Y-125.14
X147.504Y-127.64
X147.504Y-130.14
X147.504Y-132.64
X147.504Y-135.14
X147.504Y-137.64
X147.504Y-140.14
X147.504Y-142.64
T2
X108.664Y-124.72
X109.664Y-121.42
X112.504Y-133.14
X115.534Y-132.627
X116.021Y-126.478
X116.489Y-131.909
X117.512Y-131.872
X119.029Y-118.39
X119.515Y-123.063
X119.521Y-122.263
X119.527Y-123.863
X119.536Y-125.566
X122.264Y-122.12
X127.512Y-125.146
X127.514Y-128.095
X127.864Y-127.12
X128.016Y-118.067
X131.004Y-123.913
X131.004Y-124.783
X133.664Y-116.42
X134.037Y-125.92
X136.374Y-127.432
X138.895Y-124.48
T3
X129.55Y-75.136
X129.55Y-77.136
X129.55Y-79.136
X129.55Y-81.136
X129.55Y-83.136
X129.55Y-85.136
X129.55Y-87.636
X131.55Y-75.136
X131.55Y-77.136
X131.55Y-79.136
X131.55Y-81.136
X131.55Y-83.136
X133.55Y-75.136
X133.55Y-77.136
X133.55Y-79.136
X133.55Y-81.136
X133.55Y-83.136
X135.55Y-75.136
X135.55Y-77.136
X135.55Y-79.136
X135.55Y-81.136
X135.55Y-83.136
X135.55Y-85.136
X135.55Y-87.636
T4
X128.25Y-62.
X130.79Y-62.
X133.33Y-62.
T5
X105.164Y-109.92
X105.164Y-112.42
X105.164Y-114.92
X105.164Y-117.42
X105.164Y-119.92
X105.2Y-80.
X105.2Y-82.5
X105.2Y-85.
X105.2Y-87.5
X105.2Y-90.
X117.55Y-95.175
X120.05Y-95.175
X122.55Y-95.175
X125.05Y-95.175
X132.164Y-136.92
X132.164Y-144.92
X132.275Y-95.175
X134.664Y-136.92
X134.664Y-144.92
X134.775Y-95.175
X137.164Y-136.92
X137.164Y-144.92
X137.275Y-95.175
X139.664Y-136.92
X139.664Y-144.92
X139.775Y-95.175
X144.664Y-109.92
X144.664Y-112.42
X144.664Y-114.92
X144.664Y-117.42
X144.664Y-119.92
T6
X112.008Y-69.75
X130.01Y-69.636
X132.55Y-69.636
X135.09Y-69.636
T7
X105.164Y-125.38
X105.164Y-127.92
X105.164Y-130.46
X112.Y-84.46
X112.Y-87.
X112.Y-89.54
X112.Y-92.08
X112.Y-94.62
X114.124Y-105.42
X116.664Y-105.42
X119.204Y-105.42
X126.624Y-105.42
X129.164Y-105.42
X131.704Y-105.42
X137.664Y-105.38
X137.664Y-107.92
X137.664Y-110.46
X137.664Y-113.
X137.664Y-115.54
X137.664Y-118.08
X144.664Y-125.38
X144.664Y-127.92
X144.664Y-130.46
T8
X106.Y-60.
X106.Y-63.5
X106.Y-70.
X106.Y-73.5
X115.5Y-56.
X119.Y-56.
X122.5Y-56.
X126.Y-56.
X135.75Y-56.
X139.25Y-56.
X144.Y-67.5
X144.Y-71.
X144.Y-83.5
X144.Y-87.
T9
X112.008Y-79.91
T10
X119.25Y-62.25
X119.25Y-84.75
T11
X104.Y-54.
X104.Y-96.
X104.004Y-104.14
X104.004Y-146.14
X146.Y-54.
X146.Y-96.
X146.004Y-104.14
X146.004Y-146.14
T12
X132.55Y-86.4
T13
X119.25Y-73.5
T0
M30
