%FSLAX45Y45*%
G04 Gerber Fmt 4.5, Leading zero omitted, Abs format (unit mm)*
G04 Created by KiCad (PCBNEW 4.0.5) date Thu Feb 16 16:16:13 2017*
%MOMM*%
%LPD*%
G01*
G04 APERTURE LIST*
%ADD10C,0.127000*%
%ADD11C,0.150000*%
%ADD12C,0.200000*%
%ADD13C,0.300000*%
G04 APERTURE END LIST*
D10*
D11*
X15000000Y-5000000D02*
X10000000Y-5000000D01*
X15000000Y-10000000D02*
X15000000Y-5000000D01*
X10000000Y-10000000D02*
X15000000Y-10000000D01*
X10000000Y-5000000D02*
X10000000Y-10000000D01*
X10000400Y-15014000D02*
X15000400Y-15014000D01*
X10000400Y-10014000D02*
X10000400Y-15014000D01*
X15000400Y-10014000D02*
X10000400Y-10014000D01*
X15000400Y-15014000D02*
X15000400Y-10014000D01*
D12*
X10235400Y-10749000D02*
X10265400Y-10779000D01*
X10265400Y-10749000D02*
X10235400Y-10779000D01*
X10235400Y-10999000D02*
X10265400Y-11029000D01*
X10265400Y-10999000D02*
X10235400Y-11029000D01*
X10235400Y-11249000D02*
X10265400Y-11279000D01*
X10265400Y-11249000D02*
X10235400Y-11279000D01*
X10235400Y-11499000D02*
X10265400Y-11529000D01*
X10265400Y-11499000D02*
X10235400Y-11529000D01*
X10235400Y-11749000D02*
X10265400Y-11779000D01*
X10265400Y-11749000D02*
X10235400Y-11779000D01*
X10235400Y-11999000D02*
X10265400Y-12029000D01*
X10265400Y-11999000D02*
X10235400Y-12029000D01*
X10235400Y-12249000D02*
X10265400Y-12279000D01*
X10265400Y-12249000D02*
X10235400Y-12279000D01*
X10235400Y-12499000D02*
X10265400Y-12529000D01*
X10265400Y-12499000D02*
X10235400Y-12529000D01*
X10235400Y-12749000D02*
X10265400Y-12779000D01*
X10265400Y-12749000D02*
X10235400Y-12779000D01*
X10235400Y-12999000D02*
X10265400Y-13029000D01*
X10265400Y-12999000D02*
X10235400Y-13029000D01*
X10235400Y-13249000D02*
X10265400Y-13279000D01*
X10265400Y-13249000D02*
X10235400Y-13279000D01*
X10235400Y-13499000D02*
X10265400Y-13529000D01*
X10265400Y-13499000D02*
X10235400Y-13529000D01*
X10235400Y-13749000D02*
X10265400Y-13779000D01*
X10265400Y-13749000D02*
X10235400Y-13779000D01*
X10235400Y-13999000D02*
X10265400Y-14029000D01*
X10265400Y-13999000D02*
X10235400Y-14029000D01*
X10235400Y-14249000D02*
X10265400Y-14279000D01*
X10265400Y-14249000D02*
X10235400Y-14279000D01*
X10485400Y-10749000D02*
X10515400Y-10779000D01*
X10515400Y-10749000D02*
X10485400Y-10779000D01*
X10485400Y-12249000D02*
X10515400Y-12279000D01*
X10515400Y-12249000D02*
X10485400Y-12279000D01*
X10485400Y-12499000D02*
X10515400Y-12529000D01*
X10515400Y-12499000D02*
X10485400Y-12529000D01*
X10485400Y-13249000D02*
X10515400Y-13279000D01*
X10515400Y-13249000D02*
X10485400Y-13279000D01*
X10485400Y-13499000D02*
X10515400Y-13529000D01*
X10515400Y-13499000D02*
X10485400Y-13529000D01*
X10485400Y-13749000D02*
X10515400Y-13779000D01*
X10515400Y-13749000D02*
X10485400Y-13779000D01*
X10485400Y-13999000D02*
X10515400Y-14029000D01*
X10515400Y-13999000D02*
X10485400Y-14029000D01*
X10485400Y-14249000D02*
X10515400Y-14279000D01*
X10515400Y-14249000D02*
X10485400Y-14279000D01*
X10635400Y-11349000D02*
X10665400Y-11379000D01*
X10665400Y-11349000D02*
X10635400Y-11379000D01*
X10635400Y-11599000D02*
X10665400Y-11629000D01*
X10665400Y-11599000D02*
X10635400Y-11629000D01*
X10735400Y-10249000D02*
X10765400Y-10279000D01*
X10765400Y-10249000D02*
X10735400Y-10279000D01*
X10735400Y-10499000D02*
X10765400Y-10529000D01*
X10765400Y-10499000D02*
X10735400Y-10529000D01*
X10735400Y-10749000D02*
X10765400Y-10779000D01*
X10765400Y-10749000D02*
X10735400Y-10779000D01*
X10735400Y-10999000D02*
X10765400Y-11029000D01*
X10765400Y-10999000D02*
X10735400Y-11029000D01*
X10735400Y-12249000D02*
X10765400Y-12279000D01*
X10765400Y-12249000D02*
X10735400Y-12279000D01*
X10735400Y-12499000D02*
X10765400Y-12529000D01*
X10765400Y-12499000D02*
X10735400Y-12529000D01*
X10735400Y-12749000D02*
X10765400Y-12779000D01*
X10765400Y-12749000D02*
X10735400Y-12779000D01*
X10735400Y-13249000D02*
X10765400Y-13279000D01*
X10765400Y-13249000D02*
X10735400Y-13279000D01*
X10735400Y-13499000D02*
X10765400Y-13529000D01*
X10765400Y-13499000D02*
X10735400Y-13529000D01*
X10735400Y-13749000D02*
X10765400Y-13779000D01*
X10765400Y-13749000D02*
X10735400Y-13779000D01*
X10735400Y-13999000D02*
X10765400Y-14029000D01*
X10765400Y-13999000D02*
X10735400Y-14029000D01*
X10735400Y-14249000D02*
X10765400Y-14279000D01*
X10765400Y-14249000D02*
X10735400Y-14279000D01*
X10735400Y-14499000D02*
X10765400Y-14529000D01*
X10765400Y-14499000D02*
X10735400Y-14529000D01*
X10735400Y-14749000D02*
X10765400Y-14779000D01*
X10765400Y-14749000D02*
X10735400Y-14779000D01*
X10885400Y-11349000D02*
X10915400Y-11379000D01*
X10915400Y-11349000D02*
X10885400Y-11379000D01*
X10885400Y-11599000D02*
X10915400Y-11629000D01*
X10915400Y-11599000D02*
X10885400Y-11629000D01*
X10985000Y-5485000D02*
X11015000Y-5515000D01*
X11015000Y-5485000D02*
X10985000Y-5515000D01*
X10985000Y-7485000D02*
X11015000Y-7515000D01*
X11015000Y-7485000D02*
X10985000Y-7515000D01*
X10985000Y-7985000D02*
X11015000Y-8015000D01*
X11015000Y-7985000D02*
X10985000Y-8015000D01*
X10985000Y-9485000D02*
X11015000Y-9515000D01*
X11015000Y-9485000D02*
X10985000Y-9515000D01*
X10985400Y-10249000D02*
X11015400Y-10279000D01*
X11015400Y-10249000D02*
X10985400Y-10279000D01*
X10985400Y-10499000D02*
X11015400Y-10529000D01*
X11015400Y-10499000D02*
X10985400Y-10529000D01*
X10985400Y-10749000D02*
X11015400Y-10779000D01*
X11015400Y-10749000D02*
X10985400Y-10779000D01*
X10985400Y-10999000D02*
X11015400Y-11029000D01*
X11015400Y-10999000D02*
X10985400Y-11029000D01*
X10985400Y-13249000D02*
X11015400Y-13279000D01*
X11015400Y-13249000D02*
X10985400Y-13279000D01*
X10985400Y-14249000D02*
X11015400Y-14279000D01*
X11015400Y-14249000D02*
X10985400Y-14279000D01*
X10985400Y-14749000D02*
X11015400Y-14779000D01*
X11015400Y-14749000D02*
X10985400Y-14779000D01*
X11235400Y-10249000D02*
X11265400Y-10279000D01*
X11265400Y-10249000D02*
X11235400Y-10279000D01*
X11235400Y-10499000D02*
X11265400Y-10529000D01*
X11265400Y-10499000D02*
X11235400Y-10529000D01*
X11235400Y-10749000D02*
X11265400Y-10779000D01*
X11265400Y-10749000D02*
X11235400Y-10779000D01*
X11235400Y-10999000D02*
X11265400Y-11029000D01*
X11265400Y-10999000D02*
X11235400Y-11029000D01*
X11235400Y-11999000D02*
X11265400Y-12029000D01*
X11265400Y-11999000D02*
X11235400Y-12029000D01*
X11235400Y-14249000D02*
X11265400Y-14279000D01*
X11265400Y-14249000D02*
X11235400Y-14279000D01*
X11235400Y-14749000D02*
X11265400Y-14779000D01*
X11265400Y-14749000D02*
X11235400Y-14779000D01*
X11485000Y-6485000D02*
X11515000Y-6515000D01*
X11515000Y-6485000D02*
X11485000Y-6515000D01*
X11485000Y-6985000D02*
X11515000Y-7015000D01*
X11515000Y-6985000D02*
X11485000Y-7015000D01*
X11485000Y-8485000D02*
X11515000Y-8515000D01*
X11515000Y-8485000D02*
X11485000Y-8515000D01*
X11485000Y-8985000D02*
X11515000Y-9015000D01*
X11515000Y-8985000D02*
X11485000Y-9015000D01*
X11485000Y-9485000D02*
X11515000Y-9515000D01*
X11515000Y-9485000D02*
X11485000Y-9515000D01*
X11485400Y-10249000D02*
X11515400Y-10279000D01*
X11515400Y-10249000D02*
X11485400Y-10279000D01*
X11485400Y-10749000D02*
X11515400Y-10779000D01*
X11515400Y-10749000D02*
X11485400Y-10779000D01*
X11485400Y-10999000D02*
X11515400Y-11029000D01*
X11515400Y-10999000D02*
X11485400Y-11029000D01*
X11485400Y-14249000D02*
X11515400Y-14279000D01*
X11515400Y-14249000D02*
X11485400Y-14279000D01*
X11485400Y-14499000D02*
X11515400Y-14529000D01*
X11515400Y-14499000D02*
X11485400Y-14529000D01*
X11485400Y-14749000D02*
X11515400Y-14779000D01*
X11515400Y-14749000D02*
X11485400Y-14779000D01*
X11535400Y-11349000D02*
X11565400Y-11379000D01*
X11565400Y-11349000D02*
X11535400Y-11379000D01*
X11535400Y-11599000D02*
X11565400Y-11629000D01*
X11565400Y-11599000D02*
X11535400Y-11629000D01*
X11735400Y-10249000D02*
X11765400Y-10279000D01*
X11765400Y-10249000D02*
X11735400Y-10279000D01*
X11735400Y-10749000D02*
X11765400Y-10779000D01*
X11765400Y-10749000D02*
X11735400Y-10779000D01*
X11735400Y-10999000D02*
X11765400Y-11029000D01*
X11765400Y-10999000D02*
X11735400Y-11029000D01*
X11735400Y-14249000D02*
X11765400Y-14279000D01*
X11765400Y-14249000D02*
X11735400Y-14279000D01*
X11735400Y-14499000D02*
X11765400Y-14529000D01*
X11765400Y-14499000D02*
X11735400Y-14529000D01*
X11735400Y-14749000D02*
X11765400Y-14779000D01*
X11765400Y-14749000D02*
X11735400Y-14779000D01*
X11985000Y-6485000D02*
X12015000Y-6515000D01*
X12015000Y-6485000D02*
X11985000Y-6515000D01*
X11985000Y-6985000D02*
X12015000Y-7015000D01*
X12015000Y-6985000D02*
X11985000Y-7015000D01*
X11985400Y-10249000D02*
X12015400Y-10279000D01*
X12015400Y-10249000D02*
X11985400Y-10279000D01*
X11985400Y-10999000D02*
X12015400Y-11029000D01*
X12015400Y-10999000D02*
X11985400Y-11029000D01*
X11985400Y-13249000D02*
X12015400Y-13279000D01*
X12015400Y-13249000D02*
X11985400Y-13279000D01*
X11985400Y-13999000D02*
X12015400Y-14029000D01*
X12015400Y-13999000D02*
X11985400Y-14029000D01*
X11985400Y-14249000D02*
X12015400Y-14279000D01*
X12015400Y-14249000D02*
X11985400Y-14279000D01*
X11985400Y-14749000D02*
X12015400Y-14779000D01*
X12015400Y-14749000D02*
X11985400Y-14779000D01*
X12235400Y-10249000D02*
X12265400Y-10279000D01*
X12265400Y-10249000D02*
X12235400Y-10279000D01*
X12235400Y-10499000D02*
X12265400Y-10529000D01*
X12265400Y-10499000D02*
X12235400Y-10529000D01*
X12235400Y-10749000D02*
X12265400Y-10779000D01*
X12265400Y-10749000D02*
X12235400Y-10779000D01*
X12235400Y-11749000D02*
X12265400Y-11779000D01*
X12265400Y-11749000D02*
X12235400Y-11779000D01*
X12235400Y-14749000D02*
X12265400Y-14779000D01*
X12265400Y-14749000D02*
X12235400Y-14779000D01*
X12485000Y-5985000D02*
X12515000Y-6015000D01*
X12515000Y-5985000D02*
X12485000Y-6015000D01*
X12485000Y-6485000D02*
X12515000Y-6515000D01*
X12515000Y-6485000D02*
X12485000Y-6515000D01*
X12485000Y-6985000D02*
X12515000Y-7015000D01*
X12515000Y-6985000D02*
X12485000Y-7015000D01*
X12485000Y-7985000D02*
X12515000Y-8015000D01*
X12515000Y-7985000D02*
X12485000Y-8015000D01*
X12485000Y-8985000D02*
X12515000Y-9015000D01*
X12515000Y-8985000D02*
X12485000Y-9015000D01*
X12485400Y-10249000D02*
X12515400Y-10279000D01*
X12515400Y-10249000D02*
X12485400Y-10279000D01*
X12485400Y-10499000D02*
X12515400Y-10529000D01*
X12515400Y-10499000D02*
X12485400Y-10529000D01*
X12485400Y-10749000D02*
X12515400Y-10779000D01*
X12515400Y-10749000D02*
X12485400Y-10779000D01*
X12485400Y-10999000D02*
X12515400Y-11029000D01*
X12515400Y-10999000D02*
X12485400Y-11029000D01*
X12485400Y-12249000D02*
X12515400Y-12279000D01*
X12515400Y-12249000D02*
X12485400Y-12279000D01*
X12485400Y-13249000D02*
X12515400Y-13279000D01*
X12515400Y-13249000D02*
X12485400Y-13279000D01*
X12485400Y-13499000D02*
X12515400Y-13529000D01*
X12515400Y-13499000D02*
X12485400Y-13529000D01*
X12485400Y-13999000D02*
X12515400Y-14029000D01*
X12515400Y-13999000D02*
X12485400Y-14029000D01*
X12485400Y-14249000D02*
X12515400Y-14279000D01*
X12515400Y-14249000D02*
X12485400Y-14279000D01*
X12485400Y-14499000D02*
X12515400Y-14529000D01*
X12515400Y-14499000D02*
X12485400Y-14529000D01*
X12485400Y-14749000D02*
X12515400Y-14779000D01*
X12515400Y-14749000D02*
X12485400Y-14779000D01*
X12585400Y-12699000D02*
X12615400Y-12729000D01*
X12615400Y-12699000D02*
X12585400Y-12729000D01*
X12735400Y-10249000D02*
X12765400Y-10279000D01*
X12765400Y-10249000D02*
X12735400Y-10279000D01*
X12735400Y-10749000D02*
X12765400Y-10779000D01*
X12765400Y-10749000D02*
X12735400Y-10779000D01*
X12735400Y-10999000D02*
X12765400Y-11029000D01*
X12765400Y-10999000D02*
X12735400Y-11029000D01*
X12735400Y-13249000D02*
X12765400Y-13279000D01*
X12765400Y-13249000D02*
X12735400Y-13279000D01*
X12735400Y-13499000D02*
X12765400Y-13529000D01*
X12765400Y-13499000D02*
X12735400Y-13529000D01*
X12735400Y-14249000D02*
X12765400Y-14279000D01*
X12765400Y-14249000D02*
X12735400Y-14279000D01*
X12735400Y-14499000D02*
X12765400Y-14529000D01*
X12765400Y-14499000D02*
X12735400Y-14529000D01*
X12735400Y-14749000D02*
X12765400Y-14779000D01*
X12765400Y-14749000D02*
X12735400Y-14779000D01*
X12785400Y-11599000D02*
X12815400Y-11629000D01*
X12815400Y-11599000D02*
X12785400Y-11629000D01*
X12985000Y-5485000D02*
X13015000Y-5515000D01*
X13015000Y-5485000D02*
X12985000Y-5515000D01*
X12985000Y-5985000D02*
X13015000Y-6015000D01*
X13015000Y-5985000D02*
X12985000Y-6015000D01*
X12985400Y-10249000D02*
X13015400Y-10279000D01*
X13015400Y-10249000D02*
X12985400Y-10279000D01*
X12985400Y-10999000D02*
X13015400Y-11029000D01*
X13015400Y-10999000D02*
X12985400Y-11029000D01*
X12985400Y-11249000D02*
X13015400Y-11279000D01*
X13015400Y-11249000D02*
X12985400Y-11279000D01*
X12985400Y-13249000D02*
X13015400Y-13279000D01*
X13015400Y-13249000D02*
X12985400Y-13279000D01*
X12985400Y-13499000D02*
X13015400Y-13529000D01*
X13015400Y-13499000D02*
X12985400Y-13529000D01*
X12985400Y-13999000D02*
X13015400Y-14029000D01*
X13015400Y-13999000D02*
X12985400Y-14029000D01*
X12985400Y-14249000D02*
X13015400Y-14279000D01*
X13015400Y-14249000D02*
X12985400Y-14279000D01*
X12985400Y-14499000D02*
X13015400Y-14529000D01*
X13015400Y-14499000D02*
X12985400Y-14529000D01*
X12985400Y-14749000D02*
X13015400Y-14779000D01*
X13015400Y-14749000D02*
X12985400Y-14779000D01*
X13085400Y-12099000D02*
X13115400Y-12129000D01*
X13115400Y-12099000D02*
X13085400Y-12129000D01*
X13110400Y-12949000D02*
X13140400Y-12979000D01*
X13140400Y-12949000D02*
X13110400Y-12979000D01*
X13235400Y-10249000D02*
X13265400Y-10279000D01*
X13265400Y-10249000D02*
X13235400Y-10279000D01*
X13235400Y-10749000D02*
X13265400Y-10779000D01*
X13265400Y-10749000D02*
X13235400Y-10779000D01*
X13235400Y-10999000D02*
X13265400Y-11029000D01*
X13265400Y-10999000D02*
X13235400Y-11029000D01*
X13235400Y-11499000D02*
X13265400Y-11529000D01*
X13265400Y-11499000D02*
X13235400Y-11529000D01*
X13235400Y-12749000D02*
X13265400Y-12779000D01*
X13265400Y-12749000D02*
X13235400Y-12779000D01*
X13235400Y-13249000D02*
X13265400Y-13279000D01*
X13265400Y-13249000D02*
X13235400Y-13279000D01*
X13235400Y-13499000D02*
X13265400Y-13529000D01*
X13265400Y-13499000D02*
X13235400Y-13529000D01*
X13235400Y-14749000D02*
X13265400Y-14779000D01*
X13265400Y-14749000D02*
X13235400Y-14779000D01*
X13285400Y-12249000D02*
X13315400Y-12279000D01*
X13315400Y-12249000D02*
X13285400Y-12279000D01*
X13485400Y-10249000D02*
X13515400Y-10279000D01*
X13515400Y-10249000D02*
X13485400Y-10279000D01*
X13485400Y-10499000D02*
X13515400Y-10529000D01*
X13515400Y-10499000D02*
X13485400Y-10529000D01*
X13485400Y-10749000D02*
X13515400Y-10779000D01*
X13515400Y-10749000D02*
X13485400Y-10779000D01*
X13485400Y-10999000D02*
X13515400Y-11029000D01*
X13515400Y-10999000D02*
X13485400Y-11029000D01*
X13485400Y-11249000D02*
X13515400Y-11279000D01*
X13515400Y-11249000D02*
X13485400Y-11279000D01*
X13485400Y-11499000D02*
X13515400Y-11529000D01*
X13515400Y-11499000D02*
X13485400Y-11529000D01*
X13485400Y-12079000D02*
X13515400Y-12109000D01*
X13515400Y-12079000D02*
X13485400Y-12109000D01*
X13485400Y-12749000D02*
X13515400Y-12779000D01*
X13515400Y-12749000D02*
X13485400Y-12779000D01*
X13485400Y-13499000D02*
X13515400Y-13529000D01*
X13515400Y-13499000D02*
X13485400Y-13529000D01*
X13485400Y-14749000D02*
X13515400Y-14779000D01*
X13515400Y-14749000D02*
X13485400Y-14779000D01*
X13735400Y-10249000D02*
X13765400Y-10279000D01*
X13765400Y-10249000D02*
X13735400Y-10279000D01*
X13735400Y-12249000D02*
X13765400Y-12279000D01*
X13765400Y-12249000D02*
X13735400Y-12279000D01*
X13735400Y-12749000D02*
X13765400Y-12779000D01*
X13765400Y-12749000D02*
X13735400Y-12779000D01*
X13735400Y-14749000D02*
X13765400Y-14779000D01*
X13765400Y-14749000D02*
X13735400Y-14779000D01*
X13985000Y-7485000D02*
X14015000Y-7515000D01*
X14015000Y-7485000D02*
X13985000Y-7515000D01*
X13985000Y-7985000D02*
X14015000Y-8015000D01*
X14015000Y-7985000D02*
X13985000Y-8015000D01*
X13985000Y-8985000D02*
X14015000Y-9015000D01*
X14015000Y-8985000D02*
X13985000Y-9015000D01*
X13985400Y-10249000D02*
X14015400Y-10279000D01*
X14015400Y-10249000D02*
X13985400Y-10279000D01*
X13985400Y-10499000D02*
X14015400Y-10529000D01*
X14015400Y-10499000D02*
X13985400Y-10529000D01*
X13985400Y-10749000D02*
X14015400Y-10779000D01*
X14015400Y-10749000D02*
X13985400Y-10779000D01*
X13985400Y-10999000D02*
X14015400Y-11029000D01*
X14015400Y-10999000D02*
X13985400Y-11029000D01*
X13985400Y-11249000D02*
X14015400Y-11279000D01*
X14015400Y-11249000D02*
X13985400Y-11279000D01*
X13985400Y-11499000D02*
X14015400Y-11529000D01*
X14015400Y-11499000D02*
X13985400Y-11529000D01*
X13985400Y-12249000D02*
X14015400Y-12279000D01*
X14015400Y-12249000D02*
X13985400Y-12279000D01*
X13985400Y-12499000D02*
X14015400Y-12529000D01*
X14015400Y-12499000D02*
X13985400Y-12529000D01*
X13985400Y-12749000D02*
X14015400Y-12779000D01*
X14015400Y-12749000D02*
X13985400Y-12779000D01*
X13985400Y-12999000D02*
X14015400Y-13029000D01*
X14015400Y-12999000D02*
X13985400Y-13029000D01*
X13985400Y-13249000D02*
X14015400Y-13279000D01*
X14015400Y-13249000D02*
X13985400Y-13279000D01*
X13985400Y-13499000D02*
X14015400Y-13529000D01*
X14015400Y-13499000D02*
X13985400Y-13529000D01*
X13985400Y-14749000D02*
X14015400Y-14779000D01*
X14015400Y-14749000D02*
X13985400Y-14779000D01*
X14235400Y-10249000D02*
X14265400Y-10279000D01*
X14265400Y-10249000D02*
X14235400Y-10279000D01*
X14235400Y-10499000D02*
X14265400Y-10529000D01*
X14265400Y-10499000D02*
X14235400Y-10529000D01*
X14235400Y-10749000D02*
X14265400Y-10779000D01*
X14265400Y-10749000D02*
X14235400Y-10779000D01*
X14235400Y-10999000D02*
X14265400Y-11029000D01*
X14265400Y-10999000D02*
X14235400Y-11029000D01*
X14235400Y-11249000D02*
X14265400Y-11279000D01*
X14265400Y-11249000D02*
X14235400Y-11279000D01*
X14235400Y-11849000D02*
X14265400Y-11879000D01*
X14265400Y-11849000D02*
X14235400Y-11879000D01*
X14235400Y-12249000D02*
X14265400Y-12279000D01*
X14265400Y-12249000D02*
X14235400Y-12279000D01*
X14235400Y-12499000D02*
X14265400Y-12529000D01*
X14265400Y-12499000D02*
X14235400Y-12529000D01*
X14235400Y-12749000D02*
X14265400Y-12779000D01*
X14265400Y-12749000D02*
X14235400Y-12779000D01*
X14235400Y-12999000D02*
X14265400Y-13029000D01*
X14265400Y-12999000D02*
X14235400Y-13029000D01*
X14235400Y-13249000D02*
X14265400Y-13279000D01*
X14265400Y-13249000D02*
X14235400Y-13279000D01*
X14235400Y-13499000D02*
X14265400Y-13529000D01*
X14265400Y-13499000D02*
X14235400Y-13529000D01*
X14235400Y-13749000D02*
X14265400Y-13779000D01*
X14265400Y-13749000D02*
X14235400Y-13779000D01*
X14235400Y-13999000D02*
X14265400Y-14029000D01*
X14265400Y-13999000D02*
X14235400Y-14029000D01*
X14235400Y-14249000D02*
X14265400Y-14279000D01*
X14265400Y-14249000D02*
X14235400Y-14279000D01*
X14235400Y-14499000D02*
X14265400Y-14529000D01*
X14265400Y-14499000D02*
X14235400Y-14529000D01*
X14235400Y-14749000D02*
X14265400Y-14779000D01*
X14265400Y-14749000D02*
X14235400Y-14779000D01*
X14485000Y-6485000D02*
X14515000Y-6515000D01*
X14515000Y-6485000D02*
X14485000Y-6515000D01*
X14485000Y-8985000D02*
X14515000Y-9015000D01*
X14515000Y-8985000D02*
X14485000Y-9015000D01*
X14485400Y-10749000D02*
X14515400Y-10779000D01*
X14515400Y-10749000D02*
X14485400Y-10779000D01*
X14485400Y-12249000D02*
X14515400Y-12279000D01*
X14515400Y-12249000D02*
X14485400Y-12279000D01*
X14485400Y-13249000D02*
X14515400Y-13279000D01*
X14515400Y-13249000D02*
X14485400Y-13279000D01*
X14485400Y-13499000D02*
X14515400Y-13529000D01*
X14515400Y-13499000D02*
X14485400Y-13529000D01*
X14485400Y-13749000D02*
X14515400Y-13779000D01*
X14515400Y-13749000D02*
X14485400Y-13779000D01*
X14485400Y-13999000D02*
X14515400Y-14029000D01*
X14515400Y-13999000D02*
X14485400Y-14029000D01*
X14485400Y-14249000D02*
X14515400Y-14279000D01*
X14515400Y-14249000D02*
X14485400Y-14279000D01*
X14735400Y-10749000D02*
X14765400Y-10779000D01*
X14765400Y-10749000D02*
X14735400Y-10779000D01*
X14735400Y-10999000D02*
X14765400Y-11029000D01*
X14765400Y-10999000D02*
X14735400Y-11029000D01*
X14735400Y-11249000D02*
X14765400Y-11279000D01*
X14765400Y-11249000D02*
X14735400Y-11279000D01*
X14735400Y-11499000D02*
X14765400Y-11529000D01*
X14765400Y-11499000D02*
X14735400Y-11529000D01*
X14735400Y-11749000D02*
X14765400Y-11779000D01*
X14765400Y-11749000D02*
X14735400Y-11779000D01*
X14735400Y-11999000D02*
X14765400Y-12029000D01*
X14765400Y-11999000D02*
X14735400Y-12029000D01*
X14735400Y-12249000D02*
X14765400Y-12279000D01*
X14765400Y-12249000D02*
X14735400Y-12279000D01*
X14735400Y-12499000D02*
X14765400Y-12529000D01*
X14765400Y-12499000D02*
X14735400Y-12529000D01*
X14735400Y-12749000D02*
X14765400Y-12779000D01*
X14765400Y-12749000D02*
X14735400Y-12779000D01*
X14735400Y-12999000D02*
X14765400Y-13029000D01*
X14765400Y-12999000D02*
X14735400Y-13029000D01*
X14735400Y-13249000D02*
X14765400Y-13279000D01*
X14765400Y-13249000D02*
X14735400Y-13279000D01*
X14735400Y-13499000D02*
X14765400Y-13529000D01*
X14765400Y-13499000D02*
X14735400Y-13529000D01*
X14735400Y-13749000D02*
X14765400Y-13779000D01*
X14765400Y-13749000D02*
X14735400Y-13779000D01*
X14735400Y-13999000D02*
X14765400Y-14029000D01*
X14765400Y-13999000D02*
X14735400Y-14029000D01*
X14735400Y-14249000D02*
X14765400Y-14279000D01*
X14765400Y-14249000D02*
X14735400Y-14279000D01*
X10886400Y-12472000D02*
G75*
G03X10886400Y-12472000I-20000J0D01*
G01*
X10986400Y-12142000D02*
G75*
G03X10986400Y-12142000I-20000J0D01*
G01*
X11270400Y-13314000D02*
G75*
G03X11270400Y-13314000I-20000J0D01*
G01*
X11573447Y-13262717D02*
G75*
G03X11573447Y-13262717I-20000J0D01*
G01*
X11622068Y-12647817D02*
G75*
G03X11622068Y-12647817I-20000J0D01*
G01*
X11668875Y-13190874D02*
G75*
G03X11668875Y-13190874I-20000J0D01*
G01*
X11771213Y-13187153D02*
G75*
G03X11771213Y-13187153I-20000J0D01*
G01*
X11922901Y-11838999D02*
G75*
G03X11922901Y-11838999I-20000J0D01*
G01*
X11971469Y-12306274D02*
G75*
G03X11971469Y-12306274I-20000J0D01*
G01*
X11972055Y-12226275D02*
G75*
G03X11972055Y-12226275I-20000J0D01*
G01*
X11972692Y-12386275D02*
G75*
G03X11972692Y-12386275I-20000J0D01*
G01*
X11973624Y-12556629D02*
G75*
G03X11973624Y-12556629I-20000J0D01*
G01*
X12246400Y-12212000D02*
G75*
G03X12246400Y-12212000I-20000J0D01*
G01*
X12771201Y-12514589D02*
G75*
G03X12771201Y-12514589I-20000J0D01*
G01*
X12771400Y-12809500D02*
G75*
G03X12771400Y-12809500I-20000J0D01*
G01*
X12806400Y-12712000D02*
G75*
G03X12806400Y-12712000I-20000J0D01*
G01*
X12821588Y-11806711D02*
G75*
G03X12821588Y-11806711I-20000J0D01*
G01*
X13120400Y-12391318D02*
G75*
G03X13120400Y-12391318I-20000J0D01*
G01*
X13120400Y-12478265D02*
G75*
G03X13120400Y-12478265I-20000J0D01*
G01*
X13386400Y-11642000D02*
G75*
G03X13386400Y-11642000I-20000J0D01*
G01*
X13423701Y-12591982D02*
G75*
G03X13423701Y-12591982I-20000J0D01*
G01*
X13657394Y-12743193D02*
G75*
G03X13657394Y-12743193I-20000J0D01*
G01*
X13909455Y-12448015D02*
G75*
G03X13909455Y-12448015I-20000J0D01*
G01*
X12955000Y-7475500D02*
X12955000Y-7551700D01*
X12916900Y-7513600D02*
X12993100Y-7513600D01*
X12955000Y-7675500D02*
X12955000Y-7751700D01*
X12916900Y-7713600D02*
X12993100Y-7713600D01*
X12955000Y-7875500D02*
X12955000Y-7951700D01*
X12916900Y-7913600D02*
X12993100Y-7913600D01*
X12955000Y-8075500D02*
X12955000Y-8151700D01*
X12916900Y-8113600D02*
X12993100Y-8113600D01*
X12955000Y-8275500D02*
X12955000Y-8351700D01*
X12916900Y-8313600D02*
X12993100Y-8313600D01*
X12955000Y-8475500D02*
X12955000Y-8551700D01*
X12916900Y-8513600D02*
X12993100Y-8513600D01*
X12955000Y-8725500D02*
X12955000Y-8801700D01*
X12916900Y-8763600D02*
X12993100Y-8763600D01*
X13155000Y-7475500D02*
X13155000Y-7551700D01*
X13116900Y-7513600D02*
X13193100Y-7513600D01*
X13155000Y-7675500D02*
X13155000Y-7751700D01*
X13116900Y-7713600D02*
X13193100Y-7713600D01*
X13155000Y-7875500D02*
X13155000Y-7951700D01*
X13116900Y-7913600D02*
X13193100Y-7913600D01*
X13155000Y-8075500D02*
X13155000Y-8151700D01*
X13116900Y-8113600D02*
X13193100Y-8113600D01*
X13155000Y-8275500D02*
X13155000Y-8351700D01*
X13116900Y-8313600D02*
X13193100Y-8313600D01*
X13355000Y-7475500D02*
X13355000Y-7551700D01*
X13316900Y-7513600D02*
X13393100Y-7513600D01*
X13355000Y-7675500D02*
X13355000Y-7751700D01*
X13316900Y-7713600D02*
X13393100Y-7713600D01*
X13355000Y-7875500D02*
X13355000Y-7951700D01*
X13316900Y-7913600D02*
X13393100Y-7913600D01*
X13355000Y-8075500D02*
X13355000Y-8151700D01*
X13316900Y-8113600D02*
X13393100Y-8113600D01*
X13355000Y-8275500D02*
X13355000Y-8351700D01*
X13316900Y-8313600D02*
X13393100Y-8313600D01*
X13555000Y-7475500D02*
X13555000Y-7551700D01*
X13516900Y-7513600D02*
X13593100Y-7513600D01*
X13555000Y-7675500D02*
X13555000Y-7751700D01*
X13516900Y-7713600D02*
X13593100Y-7713600D01*
X13555000Y-7875500D02*
X13555000Y-7951700D01*
X13516900Y-7913600D02*
X13593100Y-7913600D01*
X13555000Y-8075500D02*
X13555000Y-8151700D01*
X13516900Y-8113600D02*
X13593100Y-8113600D01*
X13555000Y-8275500D02*
X13555000Y-8351700D01*
X13516900Y-8313600D02*
X13593100Y-8313600D01*
X13555000Y-8475500D02*
X13555000Y-8551700D01*
X13516900Y-8513600D02*
X13593100Y-8513600D01*
X13555000Y-8725500D02*
X13555000Y-8801700D01*
X13516900Y-8763600D02*
X13593100Y-8763600D01*
X12853737Y-6228737D02*
X12853737Y-6171263D01*
X12796263Y-6171263D01*
X12796263Y-6228737D01*
X12853737Y-6228737D01*
X13107737Y-6228737D02*
X13107737Y-6171263D01*
X13050263Y-6171263D01*
X13050263Y-6228737D01*
X13107737Y-6228737D01*
X13361737Y-6228737D02*
X13361737Y-6171263D01*
X13304263Y-6171263D01*
X13304263Y-6228737D01*
X13361737Y-6228737D01*
X10516400Y-11037000D02*
X10561400Y-10992000D01*
X10516400Y-10947000D01*
X10471400Y-10992000D01*
X10516400Y-11037000D01*
X10516400Y-11287000D02*
X10561400Y-11242000D01*
X10516400Y-11197000D01*
X10471400Y-11242000D01*
X10516400Y-11287000D01*
X10516400Y-11537000D02*
X10561400Y-11492000D01*
X10516400Y-11447000D01*
X10471400Y-11492000D01*
X10516400Y-11537000D01*
X10516400Y-11787000D02*
X10561400Y-11742000D01*
X10516400Y-11697000D01*
X10471400Y-11742000D01*
X10516400Y-11787000D01*
X10516400Y-12037000D02*
X10561400Y-11992000D01*
X10516400Y-11947000D01*
X10471400Y-11992000D01*
X10516400Y-12037000D01*
X10520000Y-8045000D02*
X10565000Y-8000000D01*
X10520000Y-7955000D01*
X10475000Y-8000000D01*
X10520000Y-8045000D01*
X10520000Y-8295000D02*
X10565000Y-8250000D01*
X10520000Y-8205000D01*
X10475000Y-8250000D01*
X10520000Y-8295000D01*
X10520000Y-8545000D02*
X10565000Y-8500000D01*
X10520000Y-8455000D01*
X10475000Y-8500000D01*
X10520000Y-8545000D01*
X10520000Y-8795000D02*
X10565000Y-8750000D01*
X10520000Y-8705000D01*
X10475000Y-8750000D01*
X10520000Y-8795000D01*
X10520000Y-9045000D02*
X10565000Y-9000000D01*
X10520000Y-8955000D01*
X10475000Y-9000000D01*
X10520000Y-9045000D01*
X11755000Y-9562500D02*
X11800000Y-9517500D01*
X11755000Y-9472500D01*
X11710000Y-9517500D01*
X11755000Y-9562500D01*
X12005000Y-9562500D02*
X12050000Y-9517500D01*
X12005000Y-9472500D01*
X11960000Y-9517500D01*
X12005000Y-9562500D01*
X12255000Y-9562500D02*
X12300000Y-9517500D01*
X12255000Y-9472500D01*
X12210000Y-9517500D01*
X12255000Y-9562500D01*
X12505000Y-9562500D02*
X12550000Y-9517500D01*
X12505000Y-9472500D01*
X12460000Y-9517500D01*
X12505000Y-9562500D01*
X13216400Y-13737000D02*
X13261400Y-13692000D01*
X13216400Y-13647000D01*
X13171400Y-13692000D01*
X13216400Y-13737000D01*
X13216400Y-14537000D02*
X13261400Y-14492000D01*
X13216400Y-14447000D01*
X13171400Y-14492000D01*
X13216400Y-14537000D01*
X13227500Y-9562500D02*
X13272500Y-9517500D01*
X13227500Y-9472500D01*
X13182500Y-9517500D01*
X13227500Y-9562500D01*
X13466400Y-13737000D02*
X13511400Y-13692000D01*
X13466400Y-13647000D01*
X13421400Y-13692000D01*
X13466400Y-13737000D01*
X13466400Y-14537000D02*
X13511400Y-14492000D01*
X13466400Y-14447000D01*
X13421400Y-14492000D01*
X13466400Y-14537000D01*
X13477500Y-9562500D02*
X13522500Y-9517500D01*
X13477500Y-9472500D01*
X13432500Y-9517500D01*
X13477500Y-9562500D01*
X13716400Y-13737000D02*
X13761400Y-13692000D01*
X13716400Y-13647000D01*
X13671400Y-13692000D01*
X13716400Y-13737000D01*
X13716400Y-14537000D02*
X13761400Y-14492000D01*
X13716400Y-14447000D01*
X13671400Y-14492000D01*
X13716400Y-14537000D01*
X13727500Y-9562500D02*
X13772500Y-9517500D01*
X13727500Y-9472500D01*
X13682500Y-9517500D01*
X13727500Y-9562500D01*
X13966400Y-13737000D02*
X14011400Y-13692000D01*
X13966400Y-13647000D01*
X13921400Y-13692000D01*
X13966400Y-13737000D01*
X13966400Y-14537000D02*
X14011400Y-14492000D01*
X13966400Y-14447000D01*
X13921400Y-14492000D01*
X13966400Y-14537000D01*
X13977500Y-9562500D02*
X14022500Y-9517500D01*
X13977500Y-9472500D01*
X13932500Y-9517500D01*
X13977500Y-9562500D01*
X14466400Y-11037000D02*
X14511400Y-10992000D01*
X14466400Y-10947000D01*
X14421400Y-10992000D01*
X14466400Y-11037000D01*
X14466400Y-11287000D02*
X14511400Y-11242000D01*
X14466400Y-11197000D01*
X14421400Y-11242000D01*
X14466400Y-11287000D01*
X14466400Y-11537000D02*
X14511400Y-11492000D01*
X14466400Y-11447000D01*
X14421400Y-11492000D01*
X14466400Y-11537000D01*
X14466400Y-11787000D02*
X14511400Y-11742000D01*
X14466400Y-11697000D01*
X14421400Y-11742000D01*
X14466400Y-11787000D01*
X14466400Y-12037000D02*
X14511400Y-11992000D01*
X14466400Y-11947000D01*
X14421400Y-11992000D01*
X14466400Y-12037000D01*
X11150724Y-6924962D02*
X11250800Y-7025038D01*
X11250800Y-6924962D02*
X11150724Y-7025038D01*
X11250800Y-6975000D02*
G75*
G03X11250800Y-6975000I-50038J0D01*
G01*
X12950962Y-6913562D02*
X13051038Y-7013638D01*
X13051038Y-6913562D02*
X12950962Y-7013638D01*
X13051038Y-6963600D02*
G75*
G03X13051038Y-6963600I-50038J0D01*
G01*
X13204962Y-6913562D02*
X13305038Y-7013638D01*
X13305038Y-6913562D02*
X13204962Y-7013638D01*
X13305038Y-6963600D02*
G75*
G03X13305038Y-6963600I-50038J0D01*
G01*
X13458962Y-6913562D02*
X13559038Y-7013638D01*
X13559038Y-6913562D02*
X13458962Y-7013638D01*
X13559038Y-6963600D02*
G75*
G03X13559038Y-6963600I-50038J0D01*
G01*
X10465600Y-12487200D02*
X10567200Y-12588800D01*
X10567200Y-12487200D02*
X10465600Y-12588800D01*
X10516400Y-12487200D02*
X10516400Y-12588800D01*
X10465600Y-12538000D02*
X10567200Y-12538000D01*
X10465600Y-12741200D02*
X10567200Y-12842800D01*
X10567200Y-12741200D02*
X10465600Y-12842800D01*
X10516400Y-12741200D02*
X10516400Y-12842800D01*
X10465600Y-12792000D02*
X10567200Y-12792000D01*
X10465600Y-12995200D02*
X10567200Y-13096800D01*
X10567200Y-12995200D02*
X10465600Y-13096800D01*
X10516400Y-12995200D02*
X10516400Y-13096800D01*
X10465600Y-13046000D02*
X10567200Y-13046000D01*
X11149200Y-8395200D02*
X11250800Y-8496800D01*
X11250800Y-8395200D02*
X11149200Y-8496800D01*
X11200000Y-8395200D02*
X11200000Y-8496800D01*
X11149200Y-8446000D02*
X11250800Y-8446000D01*
X11149200Y-8649200D02*
X11250800Y-8750800D01*
X11250800Y-8649200D02*
X11149200Y-8750800D01*
X11200000Y-8649200D02*
X11200000Y-8750800D01*
X11149200Y-8700000D02*
X11250800Y-8700000D01*
X11149200Y-8903200D02*
X11250800Y-9004800D01*
X11250800Y-8903200D02*
X11149200Y-9004800D01*
X11200000Y-8903200D02*
X11200000Y-9004800D01*
X11149200Y-8954000D02*
X11250800Y-8954000D01*
X11149200Y-9157200D02*
X11250800Y-9258800D01*
X11250800Y-9157200D02*
X11149200Y-9258800D01*
X11200000Y-9157200D02*
X11200000Y-9258800D01*
X11149200Y-9208000D02*
X11250800Y-9208000D01*
X11149200Y-9411200D02*
X11250800Y-9512800D01*
X11250800Y-9411200D02*
X11149200Y-9512800D01*
X11200000Y-9411200D02*
X11200000Y-9512800D01*
X11149200Y-9462000D02*
X11250800Y-9462000D01*
X11361600Y-10491200D02*
X11463200Y-10592800D01*
X11463200Y-10491200D02*
X11361600Y-10592800D01*
X11412400Y-10491200D02*
X11412400Y-10592800D01*
X11361600Y-10542000D02*
X11463200Y-10542000D01*
X11615600Y-10491200D02*
X11717200Y-10592800D01*
X11717200Y-10491200D02*
X11615600Y-10592800D01*
X11666400Y-10491200D02*
X11666400Y-10592800D01*
X11615600Y-10542000D02*
X11717200Y-10542000D01*
X11869600Y-10491200D02*
X11971200Y-10592800D01*
X11971200Y-10491200D02*
X11869600Y-10592800D01*
X11920400Y-10491200D02*
X11920400Y-10592800D01*
X11869600Y-10542000D02*
X11971200Y-10542000D01*
X12611600Y-10491200D02*
X12713200Y-10592800D01*
X12713200Y-10491200D02*
X12611600Y-10592800D01*
X12662400Y-10491200D02*
X12662400Y-10592800D01*
X12611600Y-10542000D02*
X12713200Y-10542000D01*
X12865600Y-10491200D02*
X12967200Y-10592800D01*
X12967200Y-10491200D02*
X12865600Y-10592800D01*
X12916400Y-10491200D02*
X12916400Y-10592800D01*
X12865600Y-10542000D02*
X12967200Y-10542000D01*
X13119600Y-10491200D02*
X13221200Y-10592800D01*
X13221200Y-10491200D02*
X13119600Y-10592800D01*
X13170400Y-10491200D02*
X13170400Y-10592800D01*
X13119600Y-10542000D02*
X13221200Y-10542000D01*
X13715600Y-10487200D02*
X13817200Y-10588800D01*
X13817200Y-10487200D02*
X13715600Y-10588800D01*
X13766400Y-10487200D02*
X13766400Y-10588800D01*
X13715600Y-10538000D02*
X13817200Y-10538000D01*
X13715600Y-10741200D02*
X13817200Y-10842800D01*
X13817200Y-10741200D02*
X13715600Y-10842800D01*
X13766400Y-10741200D02*
X13766400Y-10842800D01*
X13715600Y-10792000D02*
X13817200Y-10792000D01*
X13715600Y-10995200D02*
X13817200Y-11096800D01*
X13817200Y-10995200D02*
X13715600Y-11096800D01*
X13766400Y-10995200D02*
X13766400Y-11096800D01*
X13715600Y-11046000D02*
X13817200Y-11046000D01*
X13715600Y-11249200D02*
X13817200Y-11350800D01*
X13817200Y-11249200D02*
X13715600Y-11350800D01*
X13766400Y-11249200D02*
X13766400Y-11350800D01*
X13715600Y-11300000D02*
X13817200Y-11300000D01*
X13715600Y-11503200D02*
X13817200Y-11604800D01*
X13817200Y-11503200D02*
X13715600Y-11604800D01*
X13766400Y-11503200D02*
X13766400Y-11604800D01*
X13715600Y-11554000D02*
X13817200Y-11554000D01*
X13715600Y-11757200D02*
X13817200Y-11858800D01*
X13817200Y-11757200D02*
X13715600Y-11858800D01*
X13766400Y-11757200D02*
X13766400Y-11858800D01*
X13715600Y-11808000D02*
X13817200Y-11808000D01*
X14415600Y-12487200D02*
X14517200Y-12588800D01*
X14517200Y-12487200D02*
X14415600Y-12588800D01*
X14466400Y-12487200D02*
X14466400Y-12588800D01*
X14415600Y-12538000D02*
X14517200Y-12538000D01*
X14415600Y-12741200D02*
X14517200Y-12842800D01*
X14517200Y-12741200D02*
X14415600Y-12842800D01*
X14466400Y-12741200D02*
X14466400Y-12842800D01*
X14415600Y-12792000D02*
X14517200Y-12792000D01*
X14415600Y-12995200D02*
X14517200Y-13096800D01*
X14517200Y-12995200D02*
X14415600Y-13096800D01*
X14466400Y-12995200D02*
X14466400Y-13096800D01*
X14415600Y-13046000D02*
X14517200Y-13046000D01*
X10540000Y-5940000D02*
X10660000Y-6060000D01*
X10660000Y-5940000D02*
X10540000Y-6060000D01*
X10642427Y-6042427D02*
X10642427Y-5957573D01*
X10557573Y-5957573D01*
X10557573Y-6042427D01*
X10642427Y-6042427D01*
X10540000Y-6290000D02*
X10660000Y-6410000D01*
X10660000Y-6290000D02*
X10540000Y-6410000D01*
X10642427Y-6392427D02*
X10642427Y-6307573D01*
X10557573Y-6307573D01*
X10557573Y-6392427D01*
X10642427Y-6392427D01*
X10540000Y-6940000D02*
X10660000Y-7060000D01*
X10660000Y-6940000D02*
X10540000Y-7060000D01*
X10642427Y-7042427D02*
X10642427Y-6957573D01*
X10557573Y-6957573D01*
X10557573Y-7042427D01*
X10642427Y-7042427D01*
X10540000Y-7290000D02*
X10660000Y-7410000D01*
X10660000Y-7290000D02*
X10540000Y-7410000D01*
X10642427Y-7392427D02*
X10642427Y-7307573D01*
X10557573Y-7307573D01*
X10557573Y-7392427D01*
X10642427Y-7392427D01*
X11490000Y-5540000D02*
X11610000Y-5660000D01*
X11610000Y-5540000D02*
X11490000Y-5660000D01*
X11592427Y-5642427D02*
X11592427Y-5557573D01*
X11507573Y-5557573D01*
X11507573Y-5642427D01*
X11592427Y-5642427D01*
X11840000Y-5540000D02*
X11960000Y-5660000D01*
X11960000Y-5540000D02*
X11840000Y-5660000D01*
X11942427Y-5642427D02*
X11942427Y-5557573D01*
X11857573Y-5557573D01*
X11857573Y-5642427D01*
X11942427Y-5642427D01*
X12190000Y-5540000D02*
X12310000Y-5660000D01*
X12310000Y-5540000D02*
X12190000Y-5660000D01*
X12292427Y-5642427D02*
X12292427Y-5557573D01*
X12207573Y-5557573D01*
X12207573Y-5642427D01*
X12292427Y-5642427D01*
X12540000Y-5540000D02*
X12660000Y-5660000D01*
X12660000Y-5540000D02*
X12540000Y-5660000D01*
X12642427Y-5642427D02*
X12642427Y-5557573D01*
X12557573Y-5557573D01*
X12557573Y-5642427D01*
X12642427Y-5642427D01*
X13515000Y-5540000D02*
X13635000Y-5660000D01*
X13635000Y-5540000D02*
X13515000Y-5660000D01*
X13617427Y-5642427D02*
X13617427Y-5557573D01*
X13532573Y-5557573D01*
X13532573Y-5642427D01*
X13617427Y-5642427D01*
X13865000Y-5540000D02*
X13985000Y-5660000D01*
X13985000Y-5540000D02*
X13865000Y-5660000D01*
X13967427Y-5642427D02*
X13967427Y-5557573D01*
X13882573Y-5557573D01*
X13882573Y-5642427D01*
X13967427Y-5642427D01*
X14340000Y-6690000D02*
X14460000Y-6810000D01*
X14460000Y-6690000D02*
X14340000Y-6810000D01*
X14442427Y-6792427D02*
X14442427Y-6707573D01*
X14357573Y-6707573D01*
X14357573Y-6792427D01*
X14442427Y-6792427D01*
X14340000Y-7040000D02*
X14460000Y-7160000D01*
X14460000Y-7040000D02*
X14340000Y-7160000D01*
X14442427Y-7142427D02*
X14442427Y-7057573D01*
X14357573Y-7057573D01*
X14357573Y-7142427D01*
X14442427Y-7142427D01*
X14340000Y-8290000D02*
X14460000Y-8410000D01*
X14460000Y-8290000D02*
X14340000Y-8410000D01*
X14442427Y-8392427D02*
X14442427Y-8307573D01*
X14357573Y-8307573D01*
X14357573Y-8392427D01*
X14442427Y-8392427D01*
X14340000Y-8640000D02*
X14460000Y-8760000D01*
X14460000Y-8640000D02*
X14340000Y-8760000D01*
X14442427Y-8742427D02*
X14442427Y-8657573D01*
X14357573Y-8657573D01*
X14357573Y-8742427D01*
X14442427Y-8742427D01*
X11137262Y-7927500D02*
X11264262Y-8054500D01*
X11264262Y-7927500D02*
X11137262Y-8054500D01*
X11200762Y-8054500D02*
X11264262Y-7991000D01*
X11200762Y-7927500D01*
X11137262Y-7991000D01*
X11200762Y-8054500D01*
X11925000Y-6160000D02*
X11925000Y-6290000D01*
X11860000Y-6225000D02*
X11990000Y-6225000D01*
X11990000Y-6225000D02*
G75*
G03X11990000Y-6225000I-65000J0D01*
G01*
X11925000Y-8410000D02*
X11925000Y-8540000D01*
X11860000Y-8475000D02*
X11990000Y-8475000D01*
X11990000Y-8475000D02*
G75*
G03X11990000Y-8475000I-65000J0D01*
G01*
X10507764Y-5507764D02*
X10507764Y-5292236D01*
X10292236Y-5292236D01*
X10292236Y-5507764D01*
X10507764Y-5507764D01*
X10552400Y-5400000D02*
G75*
G03X10552400Y-5400000I-152400J0D01*
G01*
X10507764Y-9707764D02*
X10507764Y-9492236D01*
X10292236Y-9492236D01*
X10292236Y-9707764D01*
X10507764Y-9707764D01*
X10552400Y-9600000D02*
G75*
G03X10552400Y-9600000I-152400J0D01*
G01*
X10508164Y-10521764D02*
X10508164Y-10306236D01*
X10292636Y-10306236D01*
X10292636Y-10521764D01*
X10508164Y-10521764D01*
X10552800Y-10414000D02*
G75*
G03X10552800Y-10414000I-152400J0D01*
G01*
X10508164Y-14721764D02*
X10508164Y-14506236D01*
X10292636Y-14506236D01*
X10292636Y-14721764D01*
X10508164Y-14721764D01*
X10552800Y-14614000D02*
G75*
G03X10552800Y-14614000I-152400J0D01*
G01*
X14707764Y-5507764D02*
X14707764Y-5292236D01*
X14492236Y-5292236D01*
X14492236Y-5507764D01*
X14707764Y-5507764D01*
X14752400Y-5400000D02*
G75*
G03X14752400Y-5400000I-152400J0D01*
G01*
X14707764Y-9707764D02*
X14707764Y-9492236D01*
X14492236Y-9492236D01*
X14492236Y-9707764D01*
X14707764Y-9707764D01*
X14752400Y-9600000D02*
G75*
G03X14752400Y-9600000I-152400J0D01*
G01*
X14708164Y-10521764D02*
X14708164Y-10306236D01*
X14492636Y-10306236D01*
X14492636Y-10521764D01*
X14708164Y-10521764D01*
X14752800Y-10414000D02*
G75*
G03X14752800Y-10414000I-152400J0D01*
G01*
X14708164Y-14721764D02*
X14708164Y-14506236D01*
X14492636Y-14506236D01*
X14492636Y-14721764D01*
X14708164Y-14721764D01*
X14752800Y-14614000D02*
G75*
G03X14752800Y-14614000I-152400J0D01*
G01*
X13255000Y-8829992D02*
X13444992Y-8640000D01*
X13255000Y-8450008D01*
X13065008Y-8640000D01*
X13255000Y-8829992D01*
X13444992Y-8640000D02*
G75*
G03X13444992Y-8640000I-189992J0D01*
G01*
D13*
X10263929Y-15487214D02*
X10263929Y-15187214D01*
X10335357Y-15187214D01*
X10378214Y-15201500D01*
X10406786Y-15230071D01*
X10421071Y-15258643D01*
X10435357Y-15315786D01*
X10435357Y-15358643D01*
X10421071Y-15415786D01*
X10406786Y-15444357D01*
X10378214Y-15472929D01*
X10335357Y-15487214D01*
X10263929Y-15487214D01*
X10563929Y-15487214D02*
X10563929Y-15287214D01*
X10563929Y-15344357D02*
X10578214Y-15315786D01*
X10592500Y-15301500D01*
X10621071Y-15287214D01*
X10649643Y-15287214D01*
X10749643Y-15487214D02*
X10749643Y-15287214D01*
X10749643Y-15187214D02*
X10735357Y-15201500D01*
X10749643Y-15215786D01*
X10763929Y-15201500D01*
X10749643Y-15187214D01*
X10749643Y-15215786D01*
X10935357Y-15487214D02*
X10906786Y-15472929D01*
X10892500Y-15444357D01*
X10892500Y-15187214D01*
X11092500Y-15487214D02*
X11063929Y-15472929D01*
X11049643Y-15444357D01*
X11049643Y-15187214D01*
X11435357Y-15487214D02*
X11435357Y-15187214D01*
X11535357Y-15401500D01*
X11635357Y-15187214D01*
X11635357Y-15487214D01*
X11906786Y-15487214D02*
X11906786Y-15330071D01*
X11892500Y-15301500D01*
X11863928Y-15287214D01*
X11806786Y-15287214D01*
X11778214Y-15301500D01*
X11906786Y-15472929D02*
X11878214Y-15487214D01*
X11806786Y-15487214D01*
X11778214Y-15472929D01*
X11763928Y-15444357D01*
X11763928Y-15415786D01*
X11778214Y-15387214D01*
X11806786Y-15372929D01*
X11878214Y-15372929D01*
X11906786Y-15358643D01*
X12049643Y-15287214D02*
X12049643Y-15587214D01*
X12049643Y-15301500D02*
X12078214Y-15287214D01*
X12135357Y-15287214D01*
X12163928Y-15301500D01*
X12178214Y-15315786D01*
X12192500Y-15344357D01*
X12192500Y-15430071D01*
X12178214Y-15458643D01*
X12163928Y-15472929D01*
X12135357Y-15487214D01*
X12078214Y-15487214D01*
X12049643Y-15472929D01*
X12321071Y-15458643D02*
X12335357Y-15472929D01*
X12321071Y-15487214D01*
X12306786Y-15472929D01*
X12321071Y-15458643D01*
X12321071Y-15487214D01*
X12321071Y-15301500D02*
X12335357Y-15315786D01*
X12321071Y-15330071D01*
X12306786Y-15315786D01*
X12321071Y-15301500D01*
X12321071Y-15330071D01*
X9962500Y-15966500D02*
X9992500Y-15996500D01*
X9992500Y-15966500D02*
X9962500Y-15996500D01*
X10321071Y-15817214D02*
X10349643Y-15817214D01*
X10378214Y-15831500D01*
X10392500Y-15845786D01*
X10406786Y-15874357D01*
X10421071Y-15931500D01*
X10421071Y-16002929D01*
X10406786Y-16060071D01*
X10392500Y-16088643D01*
X10378214Y-16102929D01*
X10349643Y-16117214D01*
X10321071Y-16117214D01*
X10292500Y-16102929D01*
X10278214Y-16088643D01*
X10263929Y-16060071D01*
X10249643Y-16002929D01*
X10249643Y-15931500D01*
X10263929Y-15874357D01*
X10278214Y-15845786D01*
X10292500Y-15831500D01*
X10321071Y-15817214D01*
X10549643Y-16088643D02*
X10563929Y-16102929D01*
X10549643Y-16117214D01*
X10535357Y-16102929D01*
X10549643Y-16088643D01*
X10549643Y-16117214D01*
X10663928Y-15817214D02*
X10849643Y-15817214D01*
X10749643Y-15931500D01*
X10792500Y-15931500D01*
X10821071Y-15945786D01*
X10835357Y-15960071D01*
X10849643Y-15988643D01*
X10849643Y-16060071D01*
X10835357Y-16088643D01*
X10821071Y-16102929D01*
X10792500Y-16117214D01*
X10706786Y-16117214D01*
X10678214Y-16102929D01*
X10663928Y-16088643D01*
X11035357Y-15817214D02*
X11063929Y-15817214D01*
X11092500Y-15831500D01*
X11106786Y-15845786D01*
X11121071Y-15874357D01*
X11135357Y-15931500D01*
X11135357Y-16002929D01*
X11121071Y-16060071D01*
X11106786Y-16088643D01*
X11092500Y-16102929D01*
X11063929Y-16117214D01*
X11035357Y-16117214D01*
X11006786Y-16102929D01*
X10992500Y-16088643D01*
X10978214Y-16060071D01*
X10963929Y-16002929D01*
X10963929Y-15931500D01*
X10978214Y-15874357D01*
X10992500Y-15845786D01*
X11006786Y-15831500D01*
X11035357Y-15817214D01*
X11263928Y-16117214D02*
X11263928Y-15917214D01*
X11263928Y-15945786D02*
X11278214Y-15931500D01*
X11306786Y-15917214D01*
X11349643Y-15917214D01*
X11378214Y-15931500D01*
X11392500Y-15960071D01*
X11392500Y-16117214D01*
X11392500Y-15960071D02*
X11406786Y-15931500D01*
X11435357Y-15917214D01*
X11478214Y-15917214D01*
X11506786Y-15931500D01*
X11521071Y-15960071D01*
X11521071Y-16117214D01*
X11663928Y-16117214D02*
X11663928Y-15917214D01*
X11663928Y-15945786D02*
X11678214Y-15931500D01*
X11706786Y-15917214D01*
X11749643Y-15917214D01*
X11778214Y-15931500D01*
X11792500Y-15960071D01*
X11792500Y-16117214D01*
X11792500Y-15960071D02*
X11806786Y-15931500D01*
X11835357Y-15917214D01*
X11878214Y-15917214D01*
X11906786Y-15931500D01*
X11921071Y-15960071D01*
X11921071Y-16117214D01*
X12506786Y-15802929D02*
X12249643Y-16188643D01*
X12892500Y-15817214D02*
X12921071Y-15817214D01*
X12949643Y-15831500D01*
X12963928Y-15845786D01*
X12978214Y-15874357D01*
X12992500Y-15931500D01*
X12992500Y-16002929D01*
X12978214Y-16060071D01*
X12963928Y-16088643D01*
X12949643Y-16102929D01*
X12921071Y-16117214D01*
X12892500Y-16117214D01*
X12863928Y-16102929D01*
X12849643Y-16088643D01*
X12835357Y-16060071D01*
X12821071Y-16002929D01*
X12821071Y-15931500D01*
X12835357Y-15874357D01*
X12849643Y-15845786D01*
X12863928Y-15831500D01*
X12892500Y-15817214D01*
X13121071Y-16088643D02*
X13135357Y-16102929D01*
X13121071Y-16117214D01*
X13106786Y-16102929D01*
X13121071Y-16088643D01*
X13121071Y-16117214D01*
X13321071Y-15817214D02*
X13349643Y-15817214D01*
X13378214Y-15831500D01*
X13392500Y-15845786D01*
X13406785Y-15874357D01*
X13421071Y-15931500D01*
X13421071Y-16002929D01*
X13406785Y-16060071D01*
X13392500Y-16088643D01*
X13378214Y-16102929D01*
X13349643Y-16117214D01*
X13321071Y-16117214D01*
X13292500Y-16102929D01*
X13278214Y-16088643D01*
X13263928Y-16060071D01*
X13249643Y-16002929D01*
X13249643Y-15931500D01*
X13263928Y-15874357D01*
X13278214Y-15845786D01*
X13292500Y-15831500D01*
X13321071Y-15817214D01*
X13706785Y-16117214D02*
X13535357Y-16117214D01*
X13621071Y-16117214D02*
X13621071Y-15817214D01*
X13592500Y-15860071D01*
X13563928Y-15888643D01*
X13535357Y-15902929D01*
X13821071Y-15845786D02*
X13835357Y-15831500D01*
X13863928Y-15817214D01*
X13935357Y-15817214D01*
X13963928Y-15831500D01*
X13978214Y-15845786D01*
X13992500Y-15874357D01*
X13992500Y-15902929D01*
X13978214Y-15945786D01*
X13806785Y-16117214D01*
X13992500Y-16117214D01*
X14106786Y-15817214D02*
X14106786Y-15874357D01*
X14221071Y-15817214D02*
X14221071Y-15874357D01*
X14663928Y-16231500D02*
X14649643Y-16217214D01*
X14621071Y-16174357D01*
X14606785Y-16145786D01*
X14592500Y-16102929D01*
X14578214Y-16031500D01*
X14578214Y-15974357D01*
X14592500Y-15902929D01*
X14606785Y-15860071D01*
X14621071Y-15831500D01*
X14649643Y-15788643D01*
X14663928Y-15774357D01*
X14763928Y-15845786D02*
X14778214Y-15831500D01*
X14806785Y-15817214D01*
X14878214Y-15817214D01*
X14906785Y-15831500D01*
X14921071Y-15845786D01*
X14935357Y-15874357D01*
X14935357Y-15902929D01*
X14921071Y-15945786D01*
X14749643Y-16117214D01*
X14935357Y-16117214D01*
X15221071Y-16117214D02*
X15049643Y-16117214D01*
X15135357Y-16117214D02*
X15135357Y-15817214D01*
X15106785Y-15860071D01*
X15078214Y-15888643D01*
X15049643Y-15902929D01*
X15406785Y-15817214D02*
X15435357Y-15817214D01*
X15463928Y-15831500D01*
X15478214Y-15845786D01*
X15492500Y-15874357D01*
X15506785Y-15931500D01*
X15506785Y-16002929D01*
X15492500Y-16060071D01*
X15478214Y-16088643D01*
X15463928Y-16102929D01*
X15435357Y-16117214D01*
X15406785Y-16117214D01*
X15378214Y-16102929D01*
X15363928Y-16088643D01*
X15349643Y-16060071D01*
X15335357Y-16002929D01*
X15335357Y-15931500D01*
X15349643Y-15874357D01*
X15363928Y-15845786D01*
X15378214Y-15831500D01*
X15406785Y-15817214D01*
X15863928Y-16117214D02*
X15863928Y-15817214D01*
X15992500Y-16117214D02*
X15992500Y-15960071D01*
X15978214Y-15931500D01*
X15949643Y-15917214D01*
X15906785Y-15917214D01*
X15878214Y-15931500D01*
X15863928Y-15945786D01*
X16178214Y-16117214D02*
X16149643Y-16102929D01*
X16135357Y-16088643D01*
X16121071Y-16060071D01*
X16121071Y-15974357D01*
X16135357Y-15945786D01*
X16149643Y-15931500D01*
X16178214Y-15917214D01*
X16221071Y-15917214D01*
X16249643Y-15931500D01*
X16263928Y-15945786D01*
X16278214Y-15974357D01*
X16278214Y-16060071D01*
X16263928Y-16088643D01*
X16249643Y-16102929D01*
X16221071Y-16117214D01*
X16178214Y-16117214D01*
X16449643Y-16117214D02*
X16421071Y-16102929D01*
X16406786Y-16074357D01*
X16406786Y-15817214D01*
X16678214Y-16102929D02*
X16649643Y-16117214D01*
X16592500Y-16117214D01*
X16563928Y-16102929D01*
X16549643Y-16074357D01*
X16549643Y-15960071D01*
X16563928Y-15931500D01*
X16592500Y-15917214D01*
X16649643Y-15917214D01*
X16678214Y-15931500D01*
X16692500Y-15960071D01*
X16692500Y-15988643D01*
X16549643Y-16017214D01*
X16806786Y-16102929D02*
X16835357Y-16117214D01*
X16892500Y-16117214D01*
X16921071Y-16102929D01*
X16935357Y-16074357D01*
X16935357Y-16060071D01*
X16921071Y-16031500D01*
X16892500Y-16017214D01*
X16849643Y-16017214D01*
X16821071Y-16002929D01*
X16806786Y-15974357D01*
X16806786Y-15960071D01*
X16821071Y-15931500D01*
X16849643Y-15917214D01*
X16892500Y-15917214D01*
X16921071Y-15931500D01*
X17035357Y-16231500D02*
X17049643Y-16217214D01*
X17078214Y-16174357D01*
X17092500Y-16145786D01*
X17106786Y-16102929D01*
X17121071Y-16031500D01*
X17121071Y-15974357D01*
X17106786Y-15902929D01*
X17092500Y-15860071D01*
X17078214Y-15831500D01*
X17049643Y-15788643D01*
X17035357Y-15774357D01*
X9992500Y-16377500D02*
G75*
G03X9992500Y-16377500I-20000J0D01*
G01*
X10321071Y-16213214D02*
X10349643Y-16213214D01*
X10378214Y-16227500D01*
X10392500Y-16241786D01*
X10406786Y-16270357D01*
X10421071Y-16327500D01*
X10421071Y-16398929D01*
X10406786Y-16456071D01*
X10392500Y-16484643D01*
X10378214Y-16498929D01*
X10349643Y-16513214D01*
X10321071Y-16513214D01*
X10292500Y-16498929D01*
X10278214Y-16484643D01*
X10263929Y-16456071D01*
X10249643Y-16398929D01*
X10249643Y-16327500D01*
X10263929Y-16270357D01*
X10278214Y-16241786D01*
X10292500Y-16227500D01*
X10321071Y-16213214D01*
X10549643Y-16484643D02*
X10563929Y-16498929D01*
X10549643Y-16513214D01*
X10535357Y-16498929D01*
X10549643Y-16484643D01*
X10549643Y-16513214D01*
X10821071Y-16313214D02*
X10821071Y-16513214D01*
X10749643Y-16198929D02*
X10678214Y-16413214D01*
X10863928Y-16413214D01*
X11035357Y-16213214D02*
X11063929Y-16213214D01*
X11092500Y-16227500D01*
X11106786Y-16241786D01*
X11121071Y-16270357D01*
X11135357Y-16327500D01*
X11135357Y-16398929D01*
X11121071Y-16456071D01*
X11106786Y-16484643D01*
X11092500Y-16498929D01*
X11063929Y-16513214D01*
X11035357Y-16513214D01*
X11006786Y-16498929D01*
X10992500Y-16484643D01*
X10978214Y-16456071D01*
X10963929Y-16398929D01*
X10963929Y-16327500D01*
X10978214Y-16270357D01*
X10992500Y-16241786D01*
X11006786Y-16227500D01*
X11035357Y-16213214D01*
X11263928Y-16513214D02*
X11263928Y-16313214D01*
X11263928Y-16341786D02*
X11278214Y-16327500D01*
X11306786Y-16313214D01*
X11349643Y-16313214D01*
X11378214Y-16327500D01*
X11392500Y-16356071D01*
X11392500Y-16513214D01*
X11392500Y-16356071D02*
X11406786Y-16327500D01*
X11435357Y-16313214D01*
X11478214Y-16313214D01*
X11506786Y-16327500D01*
X11521071Y-16356071D01*
X11521071Y-16513214D01*
X11663928Y-16513214D02*
X11663928Y-16313214D01*
X11663928Y-16341786D02*
X11678214Y-16327500D01*
X11706786Y-16313214D01*
X11749643Y-16313214D01*
X11778214Y-16327500D01*
X11792500Y-16356071D01*
X11792500Y-16513214D01*
X11792500Y-16356071D02*
X11806786Y-16327500D01*
X11835357Y-16313214D01*
X11878214Y-16313214D01*
X11906786Y-16327500D01*
X11921071Y-16356071D01*
X11921071Y-16513214D01*
X12506786Y-16198929D02*
X12249643Y-16584643D01*
X12892500Y-16213214D02*
X12921071Y-16213214D01*
X12949643Y-16227500D01*
X12963928Y-16241786D01*
X12978214Y-16270357D01*
X12992500Y-16327500D01*
X12992500Y-16398929D01*
X12978214Y-16456071D01*
X12963928Y-16484643D01*
X12949643Y-16498929D01*
X12921071Y-16513214D01*
X12892500Y-16513214D01*
X12863928Y-16498929D01*
X12849643Y-16484643D01*
X12835357Y-16456071D01*
X12821071Y-16398929D01*
X12821071Y-16327500D01*
X12835357Y-16270357D01*
X12849643Y-16241786D01*
X12863928Y-16227500D01*
X12892500Y-16213214D01*
X13121071Y-16484643D02*
X13135357Y-16498929D01*
X13121071Y-16513214D01*
X13106786Y-16498929D01*
X13121071Y-16484643D01*
X13121071Y-16513214D01*
X13321071Y-16213214D02*
X13349643Y-16213214D01*
X13378214Y-16227500D01*
X13392500Y-16241786D01*
X13406785Y-16270357D01*
X13421071Y-16327500D01*
X13421071Y-16398929D01*
X13406785Y-16456071D01*
X13392500Y-16484643D01*
X13378214Y-16498929D01*
X13349643Y-16513214D01*
X13321071Y-16513214D01*
X13292500Y-16498929D01*
X13278214Y-16484643D01*
X13263928Y-16456071D01*
X13249643Y-16398929D01*
X13249643Y-16327500D01*
X13263928Y-16270357D01*
X13278214Y-16241786D01*
X13292500Y-16227500D01*
X13321071Y-16213214D01*
X13706785Y-16513214D02*
X13535357Y-16513214D01*
X13621071Y-16513214D02*
X13621071Y-16213214D01*
X13592500Y-16256071D01*
X13563928Y-16284643D01*
X13535357Y-16298929D01*
X13963928Y-16213214D02*
X13906785Y-16213214D01*
X13878214Y-16227500D01*
X13863928Y-16241786D01*
X13835357Y-16284643D01*
X13821071Y-16341786D01*
X13821071Y-16456071D01*
X13835357Y-16484643D01*
X13849643Y-16498929D01*
X13878214Y-16513214D01*
X13935357Y-16513214D01*
X13963928Y-16498929D01*
X13978214Y-16484643D01*
X13992500Y-16456071D01*
X13992500Y-16384643D01*
X13978214Y-16356071D01*
X13963928Y-16341786D01*
X13935357Y-16327500D01*
X13878214Y-16327500D01*
X13849643Y-16341786D01*
X13835357Y-16356071D01*
X13821071Y-16384643D01*
X14106786Y-16213214D02*
X14106786Y-16270357D01*
X14221071Y-16213214D02*
X14221071Y-16270357D01*
X14663928Y-16627500D02*
X14649643Y-16613214D01*
X14621071Y-16570357D01*
X14606785Y-16541786D01*
X14592500Y-16498929D01*
X14578214Y-16427500D01*
X14578214Y-16370357D01*
X14592500Y-16298929D01*
X14606785Y-16256071D01*
X14621071Y-16227500D01*
X14649643Y-16184643D01*
X14663928Y-16170357D01*
X14763928Y-16241786D02*
X14778214Y-16227500D01*
X14806785Y-16213214D01*
X14878214Y-16213214D01*
X14906785Y-16227500D01*
X14921071Y-16241786D01*
X14935357Y-16270357D01*
X14935357Y-16298929D01*
X14921071Y-16341786D01*
X14749643Y-16513214D01*
X14935357Y-16513214D01*
X15035357Y-16213214D02*
X15221071Y-16213214D01*
X15121071Y-16327500D01*
X15163928Y-16327500D01*
X15192500Y-16341786D01*
X15206785Y-16356071D01*
X15221071Y-16384643D01*
X15221071Y-16456071D01*
X15206785Y-16484643D01*
X15192500Y-16498929D01*
X15163928Y-16513214D01*
X15078214Y-16513214D01*
X15049643Y-16498929D01*
X15035357Y-16484643D01*
X15578214Y-16513214D02*
X15578214Y-16213214D01*
X15706785Y-16513214D02*
X15706785Y-16356071D01*
X15692500Y-16327500D01*
X15663928Y-16313214D01*
X15621071Y-16313214D01*
X15592500Y-16327500D01*
X15578214Y-16341786D01*
X15892500Y-16513214D02*
X15863928Y-16498929D01*
X15849643Y-16484643D01*
X15835357Y-16456071D01*
X15835357Y-16370357D01*
X15849643Y-16341786D01*
X15863928Y-16327500D01*
X15892500Y-16313214D01*
X15935357Y-16313214D01*
X15963928Y-16327500D01*
X15978214Y-16341786D01*
X15992500Y-16370357D01*
X15992500Y-16456071D01*
X15978214Y-16484643D01*
X15963928Y-16498929D01*
X15935357Y-16513214D01*
X15892500Y-16513214D01*
X16163928Y-16513214D02*
X16135357Y-16498929D01*
X16121071Y-16470357D01*
X16121071Y-16213214D01*
X16392500Y-16498929D02*
X16363928Y-16513214D01*
X16306786Y-16513214D01*
X16278214Y-16498929D01*
X16263928Y-16470357D01*
X16263928Y-16356071D01*
X16278214Y-16327500D01*
X16306786Y-16313214D01*
X16363928Y-16313214D01*
X16392500Y-16327500D01*
X16406786Y-16356071D01*
X16406786Y-16384643D01*
X16263928Y-16413214D01*
X16521071Y-16498929D02*
X16549643Y-16513214D01*
X16606786Y-16513214D01*
X16635357Y-16498929D01*
X16649643Y-16470357D01*
X16649643Y-16456071D01*
X16635357Y-16427500D01*
X16606786Y-16413214D01*
X16563928Y-16413214D01*
X16535357Y-16398929D01*
X16521071Y-16370357D01*
X16521071Y-16356071D01*
X16535357Y-16327500D01*
X16563928Y-16313214D01*
X16606786Y-16313214D01*
X16635357Y-16327500D01*
X16749643Y-16627500D02*
X16763928Y-16613214D01*
X16792500Y-16570357D01*
X16806786Y-16541786D01*
X16821071Y-16498929D01*
X16835357Y-16427500D01*
X16835357Y-16370357D01*
X16821071Y-16298929D01*
X16806786Y-16256071D01*
X16792500Y-16227500D01*
X16763928Y-16184643D01*
X16749643Y-16170357D01*
X9954400Y-16735400D02*
X9954400Y-16811600D01*
X9916300Y-16773500D02*
X9992500Y-16773500D01*
X10321071Y-16609214D02*
X10349643Y-16609214D01*
X10378214Y-16623500D01*
X10392500Y-16637786D01*
X10406786Y-16666357D01*
X10421071Y-16723500D01*
X10421071Y-16794929D01*
X10406786Y-16852072D01*
X10392500Y-16880643D01*
X10378214Y-16894929D01*
X10349643Y-16909214D01*
X10321071Y-16909214D01*
X10292500Y-16894929D01*
X10278214Y-16880643D01*
X10263929Y-16852072D01*
X10249643Y-16794929D01*
X10249643Y-16723500D01*
X10263929Y-16666357D01*
X10278214Y-16637786D01*
X10292500Y-16623500D01*
X10321071Y-16609214D01*
X10549643Y-16880643D02*
X10563929Y-16894929D01*
X10549643Y-16909214D01*
X10535357Y-16894929D01*
X10549643Y-16880643D01*
X10549643Y-16909214D01*
X10663928Y-16609214D02*
X10863928Y-16609214D01*
X10735357Y-16909214D01*
X11106786Y-16609214D02*
X11049643Y-16609214D01*
X11021071Y-16623500D01*
X11006786Y-16637786D01*
X10978214Y-16680643D01*
X10963929Y-16737786D01*
X10963929Y-16852072D01*
X10978214Y-16880643D01*
X10992500Y-16894929D01*
X11021071Y-16909214D01*
X11078214Y-16909214D01*
X11106786Y-16894929D01*
X11121071Y-16880643D01*
X11135357Y-16852072D01*
X11135357Y-16780643D01*
X11121071Y-16752071D01*
X11106786Y-16737786D01*
X11078214Y-16723500D01*
X11021071Y-16723500D01*
X10992500Y-16737786D01*
X10978214Y-16752071D01*
X10963929Y-16780643D01*
X11263928Y-16909214D02*
X11263928Y-16709214D01*
X11263928Y-16737786D02*
X11278214Y-16723500D01*
X11306786Y-16709214D01*
X11349643Y-16709214D01*
X11378214Y-16723500D01*
X11392500Y-16752071D01*
X11392500Y-16909214D01*
X11392500Y-16752071D02*
X11406786Y-16723500D01*
X11435357Y-16709214D01*
X11478214Y-16709214D01*
X11506786Y-16723500D01*
X11521071Y-16752071D01*
X11521071Y-16909214D01*
X11663928Y-16909214D02*
X11663928Y-16709214D01*
X11663928Y-16737786D02*
X11678214Y-16723500D01*
X11706786Y-16709214D01*
X11749643Y-16709214D01*
X11778214Y-16723500D01*
X11792500Y-16752071D01*
X11792500Y-16909214D01*
X11792500Y-16752071D02*
X11806786Y-16723500D01*
X11835357Y-16709214D01*
X11878214Y-16709214D01*
X11906786Y-16723500D01*
X11921071Y-16752071D01*
X11921071Y-16909214D01*
X12506786Y-16594929D02*
X12249643Y-16980643D01*
X12892500Y-16609214D02*
X12921071Y-16609214D01*
X12949643Y-16623500D01*
X12963928Y-16637786D01*
X12978214Y-16666357D01*
X12992500Y-16723500D01*
X12992500Y-16794929D01*
X12978214Y-16852072D01*
X12963928Y-16880643D01*
X12949643Y-16894929D01*
X12921071Y-16909214D01*
X12892500Y-16909214D01*
X12863928Y-16894929D01*
X12849643Y-16880643D01*
X12835357Y-16852072D01*
X12821071Y-16794929D01*
X12821071Y-16723500D01*
X12835357Y-16666357D01*
X12849643Y-16637786D01*
X12863928Y-16623500D01*
X12892500Y-16609214D01*
X13121071Y-16880643D02*
X13135357Y-16894929D01*
X13121071Y-16909214D01*
X13106786Y-16894929D01*
X13121071Y-16880643D01*
X13121071Y-16909214D01*
X13321071Y-16609214D02*
X13349643Y-16609214D01*
X13378214Y-16623500D01*
X13392500Y-16637786D01*
X13406785Y-16666357D01*
X13421071Y-16723500D01*
X13421071Y-16794929D01*
X13406785Y-16852072D01*
X13392500Y-16880643D01*
X13378214Y-16894929D01*
X13349643Y-16909214D01*
X13321071Y-16909214D01*
X13292500Y-16894929D01*
X13278214Y-16880643D01*
X13263928Y-16852072D01*
X13249643Y-16794929D01*
X13249643Y-16723500D01*
X13263928Y-16666357D01*
X13278214Y-16637786D01*
X13292500Y-16623500D01*
X13321071Y-16609214D01*
X13521071Y-16609214D02*
X13706785Y-16609214D01*
X13606785Y-16723500D01*
X13649643Y-16723500D01*
X13678214Y-16737786D01*
X13692500Y-16752071D01*
X13706785Y-16780643D01*
X13706785Y-16852072D01*
X13692500Y-16880643D01*
X13678214Y-16894929D01*
X13649643Y-16909214D01*
X13563928Y-16909214D01*
X13535357Y-16894929D01*
X13521071Y-16880643D01*
X13892500Y-16609214D02*
X13921071Y-16609214D01*
X13949643Y-16623500D01*
X13963928Y-16637786D01*
X13978214Y-16666357D01*
X13992500Y-16723500D01*
X13992500Y-16794929D01*
X13978214Y-16852072D01*
X13963928Y-16880643D01*
X13949643Y-16894929D01*
X13921071Y-16909214D01*
X13892500Y-16909214D01*
X13863928Y-16894929D01*
X13849643Y-16880643D01*
X13835357Y-16852072D01*
X13821071Y-16794929D01*
X13821071Y-16723500D01*
X13835357Y-16666357D01*
X13849643Y-16637786D01*
X13863928Y-16623500D01*
X13892500Y-16609214D01*
X14106786Y-16609214D02*
X14106786Y-16666357D01*
X14221071Y-16609214D02*
X14221071Y-16666357D01*
X14663928Y-17023500D02*
X14649643Y-17009214D01*
X14621071Y-16966357D01*
X14606785Y-16937786D01*
X14592500Y-16894929D01*
X14578214Y-16823500D01*
X14578214Y-16766357D01*
X14592500Y-16694929D01*
X14606785Y-16652071D01*
X14621071Y-16623500D01*
X14649643Y-16580643D01*
X14663928Y-16566357D01*
X14763928Y-16637786D02*
X14778214Y-16623500D01*
X14806785Y-16609214D01*
X14878214Y-16609214D01*
X14906785Y-16623500D01*
X14921071Y-16637786D01*
X14935357Y-16666357D01*
X14935357Y-16694929D01*
X14921071Y-16737786D01*
X14749643Y-16909214D01*
X14935357Y-16909214D01*
X15192500Y-16709214D02*
X15192500Y-16909214D01*
X15121071Y-16594929D02*
X15049643Y-16809214D01*
X15235357Y-16809214D01*
X15578214Y-16909214D02*
X15578214Y-16609214D01*
X15706785Y-16909214D02*
X15706785Y-16752071D01*
X15692500Y-16723500D01*
X15663928Y-16709214D01*
X15621071Y-16709214D01*
X15592500Y-16723500D01*
X15578214Y-16737786D01*
X15892500Y-16909214D02*
X15863928Y-16894929D01*
X15849643Y-16880643D01*
X15835357Y-16852072D01*
X15835357Y-16766357D01*
X15849643Y-16737786D01*
X15863928Y-16723500D01*
X15892500Y-16709214D01*
X15935357Y-16709214D01*
X15963928Y-16723500D01*
X15978214Y-16737786D01*
X15992500Y-16766357D01*
X15992500Y-16852072D01*
X15978214Y-16880643D01*
X15963928Y-16894929D01*
X15935357Y-16909214D01*
X15892500Y-16909214D01*
X16163928Y-16909214D02*
X16135357Y-16894929D01*
X16121071Y-16866357D01*
X16121071Y-16609214D01*
X16392500Y-16894929D02*
X16363928Y-16909214D01*
X16306786Y-16909214D01*
X16278214Y-16894929D01*
X16263928Y-16866357D01*
X16263928Y-16752071D01*
X16278214Y-16723500D01*
X16306786Y-16709214D01*
X16363928Y-16709214D01*
X16392500Y-16723500D01*
X16406786Y-16752071D01*
X16406786Y-16780643D01*
X16263928Y-16809214D01*
X16521071Y-16894929D02*
X16549643Y-16909214D01*
X16606786Y-16909214D01*
X16635357Y-16894929D01*
X16649643Y-16866357D01*
X16649643Y-16852072D01*
X16635357Y-16823500D01*
X16606786Y-16809214D01*
X16563928Y-16809214D01*
X16535357Y-16794929D01*
X16521071Y-16766357D01*
X16521071Y-16752071D01*
X16535357Y-16723500D01*
X16563928Y-16709214D01*
X16606786Y-16709214D01*
X16635357Y-16723500D01*
X16749643Y-17023500D02*
X16763928Y-17009214D01*
X16792500Y-16966357D01*
X16806786Y-16937786D01*
X16821071Y-16894929D01*
X16835357Y-16823500D01*
X16835357Y-16766357D01*
X16821071Y-16694929D01*
X16806786Y-16652071D01*
X16792500Y-16623500D01*
X16763928Y-16580643D01*
X16749643Y-16566357D01*
X9980597Y-17198237D02*
X9980597Y-17140763D01*
X9923123Y-17140763D01*
X9923123Y-17198237D01*
X9980597Y-17198237D01*
X10321071Y-17005214D02*
X10349643Y-17005214D01*
X10378214Y-17019500D01*
X10392500Y-17033786D01*
X10406786Y-17062357D01*
X10421071Y-17119500D01*
X10421071Y-17190929D01*
X10406786Y-17248072D01*
X10392500Y-17276643D01*
X10378214Y-17290929D01*
X10349643Y-17305214D01*
X10321071Y-17305214D01*
X10292500Y-17290929D01*
X10278214Y-17276643D01*
X10263929Y-17248072D01*
X10249643Y-17190929D01*
X10249643Y-17119500D01*
X10263929Y-17062357D01*
X10278214Y-17033786D01*
X10292500Y-17019500D01*
X10321071Y-17005214D01*
X10549643Y-17276643D02*
X10563929Y-17290929D01*
X10549643Y-17305214D01*
X10535357Y-17290929D01*
X10549643Y-17276643D01*
X10549643Y-17305214D01*
X10735357Y-17133786D02*
X10706786Y-17119500D01*
X10692500Y-17105214D01*
X10678214Y-17076643D01*
X10678214Y-17062357D01*
X10692500Y-17033786D01*
X10706786Y-17019500D01*
X10735357Y-17005214D01*
X10792500Y-17005214D01*
X10821071Y-17019500D01*
X10835357Y-17033786D01*
X10849643Y-17062357D01*
X10849643Y-17076643D01*
X10835357Y-17105214D01*
X10821071Y-17119500D01*
X10792500Y-17133786D01*
X10735357Y-17133786D01*
X10706786Y-17148072D01*
X10692500Y-17162357D01*
X10678214Y-17190929D01*
X10678214Y-17248072D01*
X10692500Y-17276643D01*
X10706786Y-17290929D01*
X10735357Y-17305214D01*
X10792500Y-17305214D01*
X10821071Y-17290929D01*
X10835357Y-17276643D01*
X10849643Y-17248072D01*
X10849643Y-17190929D01*
X10835357Y-17162357D01*
X10821071Y-17148072D01*
X10792500Y-17133786D01*
X11135357Y-17305214D02*
X10963929Y-17305214D01*
X11049643Y-17305214D02*
X11049643Y-17005214D01*
X11021071Y-17048072D01*
X10992500Y-17076643D01*
X10963929Y-17090929D01*
X11263928Y-17305214D02*
X11263928Y-17105214D01*
X11263928Y-17133786D02*
X11278214Y-17119500D01*
X11306786Y-17105214D01*
X11349643Y-17105214D01*
X11378214Y-17119500D01*
X11392500Y-17148072D01*
X11392500Y-17305214D01*
X11392500Y-17148072D02*
X11406786Y-17119500D01*
X11435357Y-17105214D01*
X11478214Y-17105214D01*
X11506786Y-17119500D01*
X11521071Y-17148072D01*
X11521071Y-17305214D01*
X11663928Y-17305214D02*
X11663928Y-17105214D01*
X11663928Y-17133786D02*
X11678214Y-17119500D01*
X11706786Y-17105214D01*
X11749643Y-17105214D01*
X11778214Y-17119500D01*
X11792500Y-17148072D01*
X11792500Y-17305214D01*
X11792500Y-17148072D02*
X11806786Y-17119500D01*
X11835357Y-17105214D01*
X11878214Y-17105214D01*
X11906786Y-17119500D01*
X11921071Y-17148072D01*
X11921071Y-17305214D01*
X12506786Y-16990929D02*
X12249643Y-17376643D01*
X12892500Y-17005214D02*
X12921071Y-17005214D01*
X12949643Y-17019500D01*
X12963928Y-17033786D01*
X12978214Y-17062357D01*
X12992500Y-17119500D01*
X12992500Y-17190929D01*
X12978214Y-17248072D01*
X12963928Y-17276643D01*
X12949643Y-17290929D01*
X12921071Y-17305214D01*
X12892500Y-17305214D01*
X12863928Y-17290929D01*
X12849643Y-17276643D01*
X12835357Y-17248072D01*
X12821071Y-17190929D01*
X12821071Y-17119500D01*
X12835357Y-17062357D01*
X12849643Y-17033786D01*
X12863928Y-17019500D01*
X12892500Y-17005214D01*
X13121071Y-17276643D02*
X13135357Y-17290929D01*
X13121071Y-17305214D01*
X13106786Y-17290929D01*
X13121071Y-17276643D01*
X13121071Y-17305214D01*
X13321071Y-17005214D02*
X13349643Y-17005214D01*
X13378214Y-17019500D01*
X13392500Y-17033786D01*
X13406785Y-17062357D01*
X13421071Y-17119500D01*
X13421071Y-17190929D01*
X13406785Y-17248072D01*
X13392500Y-17276643D01*
X13378214Y-17290929D01*
X13349643Y-17305214D01*
X13321071Y-17305214D01*
X13292500Y-17290929D01*
X13278214Y-17276643D01*
X13263928Y-17248072D01*
X13249643Y-17190929D01*
X13249643Y-17119500D01*
X13263928Y-17062357D01*
X13278214Y-17033786D01*
X13292500Y-17019500D01*
X13321071Y-17005214D01*
X13521071Y-17005214D02*
X13706785Y-17005214D01*
X13606785Y-17119500D01*
X13649643Y-17119500D01*
X13678214Y-17133786D01*
X13692500Y-17148072D01*
X13706785Y-17176643D01*
X13706785Y-17248072D01*
X13692500Y-17276643D01*
X13678214Y-17290929D01*
X13649643Y-17305214D01*
X13563928Y-17305214D01*
X13535357Y-17290929D01*
X13521071Y-17276643D01*
X13821071Y-17033786D02*
X13835357Y-17019500D01*
X13863928Y-17005214D01*
X13935357Y-17005214D01*
X13963928Y-17019500D01*
X13978214Y-17033786D01*
X13992500Y-17062357D01*
X13992500Y-17090929D01*
X13978214Y-17133786D01*
X13806785Y-17305214D01*
X13992500Y-17305214D01*
X14106786Y-17005214D02*
X14106786Y-17062357D01*
X14221071Y-17005214D02*
X14221071Y-17062357D01*
X14663928Y-17419500D02*
X14649643Y-17405214D01*
X14621071Y-17362357D01*
X14606785Y-17333786D01*
X14592500Y-17290929D01*
X14578214Y-17219500D01*
X14578214Y-17162357D01*
X14592500Y-17090929D01*
X14606785Y-17048072D01*
X14621071Y-17019500D01*
X14649643Y-16976643D01*
X14663928Y-16962357D01*
X14749643Y-17005214D02*
X14935357Y-17005214D01*
X14835357Y-17119500D01*
X14878214Y-17119500D01*
X14906785Y-17133786D01*
X14921071Y-17148072D01*
X14935357Y-17176643D01*
X14935357Y-17248072D01*
X14921071Y-17276643D01*
X14906785Y-17290929D01*
X14878214Y-17305214D01*
X14792500Y-17305214D01*
X14763928Y-17290929D01*
X14749643Y-17276643D01*
X15292500Y-17305214D02*
X15292500Y-17005214D01*
X15421071Y-17305214D02*
X15421071Y-17148072D01*
X15406785Y-17119500D01*
X15378214Y-17105214D01*
X15335357Y-17105214D01*
X15306785Y-17119500D01*
X15292500Y-17133786D01*
X15606785Y-17305214D02*
X15578214Y-17290929D01*
X15563928Y-17276643D01*
X15549643Y-17248072D01*
X15549643Y-17162357D01*
X15563928Y-17133786D01*
X15578214Y-17119500D01*
X15606785Y-17105214D01*
X15649643Y-17105214D01*
X15678214Y-17119500D01*
X15692500Y-17133786D01*
X15706785Y-17162357D01*
X15706785Y-17248072D01*
X15692500Y-17276643D01*
X15678214Y-17290929D01*
X15649643Y-17305214D01*
X15606785Y-17305214D01*
X15878214Y-17305214D02*
X15849643Y-17290929D01*
X15835357Y-17262357D01*
X15835357Y-17005214D01*
X16106786Y-17290929D02*
X16078214Y-17305214D01*
X16021071Y-17305214D01*
X15992500Y-17290929D01*
X15978214Y-17262357D01*
X15978214Y-17148072D01*
X15992500Y-17119500D01*
X16021071Y-17105214D01*
X16078214Y-17105214D01*
X16106786Y-17119500D01*
X16121071Y-17148072D01*
X16121071Y-17176643D01*
X15978214Y-17205214D01*
X16235357Y-17290929D02*
X16263928Y-17305214D01*
X16321071Y-17305214D01*
X16349643Y-17290929D01*
X16363928Y-17262357D01*
X16363928Y-17248072D01*
X16349643Y-17219500D01*
X16321071Y-17205214D01*
X16278214Y-17205214D01*
X16249643Y-17190929D01*
X16235357Y-17162357D01*
X16235357Y-17148072D01*
X16249643Y-17119500D01*
X16278214Y-17105214D01*
X16321071Y-17105214D01*
X16349643Y-17119500D01*
X16463928Y-17419500D02*
X16478214Y-17405214D01*
X16506786Y-17362357D01*
X16521071Y-17333786D01*
X16535357Y-17290929D01*
X16549643Y-17219500D01*
X16549643Y-17162357D01*
X16535357Y-17090929D01*
X16521071Y-17048072D01*
X16506786Y-17019500D01*
X16478214Y-16976643D01*
X16463928Y-16962357D01*
X9947500Y-17610500D02*
X9992500Y-17565500D01*
X9947500Y-17520500D01*
X9902500Y-17565500D01*
X9947500Y-17610500D01*
X10321071Y-17401214D02*
X10349643Y-17401214D01*
X10378214Y-17415500D01*
X10392500Y-17429786D01*
X10406786Y-17458357D01*
X10421071Y-17515500D01*
X10421071Y-17586929D01*
X10406786Y-17644072D01*
X10392500Y-17672643D01*
X10378214Y-17686929D01*
X10349643Y-17701214D01*
X10321071Y-17701214D01*
X10292500Y-17686929D01*
X10278214Y-17672643D01*
X10263929Y-17644072D01*
X10249643Y-17586929D01*
X10249643Y-17515500D01*
X10263929Y-17458357D01*
X10278214Y-17429786D01*
X10292500Y-17415500D01*
X10321071Y-17401214D01*
X10549643Y-17672643D02*
X10563929Y-17686929D01*
X10549643Y-17701214D01*
X10535357Y-17686929D01*
X10549643Y-17672643D01*
X10549643Y-17701214D01*
X10706786Y-17701214D02*
X10763928Y-17701214D01*
X10792500Y-17686929D01*
X10806786Y-17672643D01*
X10835357Y-17629786D01*
X10849643Y-17572643D01*
X10849643Y-17458357D01*
X10835357Y-17429786D01*
X10821071Y-17415500D01*
X10792500Y-17401214D01*
X10735357Y-17401214D01*
X10706786Y-17415500D01*
X10692500Y-17429786D01*
X10678214Y-17458357D01*
X10678214Y-17529786D01*
X10692500Y-17558357D01*
X10706786Y-17572643D01*
X10735357Y-17586929D01*
X10792500Y-17586929D01*
X10821071Y-17572643D01*
X10835357Y-17558357D01*
X10849643Y-17529786D01*
X11035357Y-17401214D02*
X11063929Y-17401214D01*
X11092500Y-17415500D01*
X11106786Y-17429786D01*
X11121071Y-17458357D01*
X11135357Y-17515500D01*
X11135357Y-17586929D01*
X11121071Y-17644072D01*
X11106786Y-17672643D01*
X11092500Y-17686929D01*
X11063929Y-17701214D01*
X11035357Y-17701214D01*
X11006786Y-17686929D01*
X10992500Y-17672643D01*
X10978214Y-17644072D01*
X10963929Y-17586929D01*
X10963929Y-17515500D01*
X10978214Y-17458357D01*
X10992500Y-17429786D01*
X11006786Y-17415500D01*
X11035357Y-17401214D01*
X11263928Y-17701214D02*
X11263928Y-17501214D01*
X11263928Y-17529786D02*
X11278214Y-17515500D01*
X11306786Y-17501214D01*
X11349643Y-17501214D01*
X11378214Y-17515500D01*
X11392500Y-17544072D01*
X11392500Y-17701214D01*
X11392500Y-17544072D02*
X11406786Y-17515500D01*
X11435357Y-17501214D01*
X11478214Y-17501214D01*
X11506786Y-17515500D01*
X11521071Y-17544072D01*
X11521071Y-17701214D01*
X11663928Y-17701214D02*
X11663928Y-17501214D01*
X11663928Y-17529786D02*
X11678214Y-17515500D01*
X11706786Y-17501214D01*
X11749643Y-17501214D01*
X11778214Y-17515500D01*
X11792500Y-17544072D01*
X11792500Y-17701214D01*
X11792500Y-17544072D02*
X11806786Y-17515500D01*
X11835357Y-17501214D01*
X11878214Y-17501214D01*
X11906786Y-17515500D01*
X11921071Y-17544072D01*
X11921071Y-17701214D01*
X12506786Y-17386929D02*
X12249643Y-17772643D01*
X12892500Y-17401214D02*
X12921071Y-17401214D01*
X12949643Y-17415500D01*
X12963928Y-17429786D01*
X12978214Y-17458357D01*
X12992500Y-17515500D01*
X12992500Y-17586929D01*
X12978214Y-17644072D01*
X12963928Y-17672643D01*
X12949643Y-17686929D01*
X12921071Y-17701214D01*
X12892500Y-17701214D01*
X12863928Y-17686929D01*
X12849643Y-17672643D01*
X12835357Y-17644072D01*
X12821071Y-17586929D01*
X12821071Y-17515500D01*
X12835357Y-17458357D01*
X12849643Y-17429786D01*
X12863928Y-17415500D01*
X12892500Y-17401214D01*
X13121071Y-17672643D02*
X13135357Y-17686929D01*
X13121071Y-17701214D01*
X13106786Y-17686929D01*
X13121071Y-17672643D01*
X13121071Y-17701214D01*
X13321071Y-17401214D02*
X13349643Y-17401214D01*
X13378214Y-17415500D01*
X13392500Y-17429786D01*
X13406785Y-17458357D01*
X13421071Y-17515500D01*
X13421071Y-17586929D01*
X13406785Y-17644072D01*
X13392500Y-17672643D01*
X13378214Y-17686929D01*
X13349643Y-17701214D01*
X13321071Y-17701214D01*
X13292500Y-17686929D01*
X13278214Y-17672643D01*
X13263928Y-17644072D01*
X13249643Y-17586929D01*
X13249643Y-17515500D01*
X13263928Y-17458357D01*
X13278214Y-17429786D01*
X13292500Y-17415500D01*
X13321071Y-17401214D01*
X13521071Y-17401214D02*
X13706785Y-17401214D01*
X13606785Y-17515500D01*
X13649643Y-17515500D01*
X13678214Y-17529786D01*
X13692500Y-17544072D01*
X13706785Y-17572643D01*
X13706785Y-17644072D01*
X13692500Y-17672643D01*
X13678214Y-17686929D01*
X13649643Y-17701214D01*
X13563928Y-17701214D01*
X13535357Y-17686929D01*
X13521071Y-17672643D01*
X13978214Y-17401214D02*
X13835357Y-17401214D01*
X13821071Y-17544072D01*
X13835357Y-17529786D01*
X13863928Y-17515500D01*
X13935357Y-17515500D01*
X13963928Y-17529786D01*
X13978214Y-17544072D01*
X13992500Y-17572643D01*
X13992500Y-17644072D01*
X13978214Y-17672643D01*
X13963928Y-17686929D01*
X13935357Y-17701214D01*
X13863928Y-17701214D01*
X13835357Y-17686929D01*
X13821071Y-17672643D01*
X14106786Y-17401214D02*
X14106786Y-17458357D01*
X14221071Y-17401214D02*
X14221071Y-17458357D01*
X14663928Y-17815500D02*
X14649643Y-17801214D01*
X14621071Y-17758357D01*
X14606785Y-17729786D01*
X14592500Y-17686929D01*
X14578214Y-17615500D01*
X14578214Y-17558357D01*
X14592500Y-17486929D01*
X14606785Y-17444072D01*
X14621071Y-17415500D01*
X14649643Y-17372643D01*
X14663928Y-17358357D01*
X14749643Y-17401214D02*
X14935357Y-17401214D01*
X14835357Y-17515500D01*
X14878214Y-17515500D01*
X14906785Y-17529786D01*
X14921071Y-17544072D01*
X14935357Y-17572643D01*
X14935357Y-17644072D01*
X14921071Y-17672643D01*
X14906785Y-17686929D01*
X14878214Y-17701214D01*
X14792500Y-17701214D01*
X14763928Y-17686929D01*
X14749643Y-17672643D01*
X15221071Y-17701214D02*
X15049643Y-17701214D01*
X15135357Y-17701214D02*
X15135357Y-17401214D01*
X15106785Y-17444072D01*
X15078214Y-17472643D01*
X15049643Y-17486929D01*
X15578214Y-17701214D02*
X15578214Y-17401214D01*
X15706785Y-17701214D02*
X15706785Y-17544072D01*
X15692500Y-17515500D01*
X15663928Y-17501214D01*
X15621071Y-17501214D01*
X15592500Y-17515500D01*
X15578214Y-17529786D01*
X15892500Y-17701214D02*
X15863928Y-17686929D01*
X15849643Y-17672643D01*
X15835357Y-17644072D01*
X15835357Y-17558357D01*
X15849643Y-17529786D01*
X15863928Y-17515500D01*
X15892500Y-17501214D01*
X15935357Y-17501214D01*
X15963928Y-17515500D01*
X15978214Y-17529786D01*
X15992500Y-17558357D01*
X15992500Y-17644072D01*
X15978214Y-17672643D01*
X15963928Y-17686929D01*
X15935357Y-17701214D01*
X15892500Y-17701214D01*
X16163928Y-17701214D02*
X16135357Y-17686929D01*
X16121071Y-17658357D01*
X16121071Y-17401214D01*
X16392500Y-17686929D02*
X16363928Y-17701214D01*
X16306786Y-17701214D01*
X16278214Y-17686929D01*
X16263928Y-17658357D01*
X16263928Y-17544072D01*
X16278214Y-17515500D01*
X16306786Y-17501214D01*
X16363928Y-17501214D01*
X16392500Y-17515500D01*
X16406786Y-17544072D01*
X16406786Y-17572643D01*
X16263928Y-17601214D01*
X16521071Y-17686929D02*
X16549643Y-17701214D01*
X16606786Y-17701214D01*
X16635357Y-17686929D01*
X16649643Y-17658357D01*
X16649643Y-17644072D01*
X16635357Y-17615500D01*
X16606786Y-17601214D01*
X16563928Y-17601214D01*
X16535357Y-17586929D01*
X16521071Y-17558357D01*
X16521071Y-17544072D01*
X16535357Y-17515500D01*
X16563928Y-17501214D01*
X16606786Y-17501214D01*
X16635357Y-17515500D01*
X16749643Y-17815500D02*
X16763928Y-17801214D01*
X16792500Y-17758357D01*
X16806786Y-17729786D01*
X16821071Y-17686929D01*
X16835357Y-17615500D01*
X16835357Y-17558357D01*
X16821071Y-17486929D01*
X16806786Y-17444072D01*
X16792500Y-17415500D01*
X16763928Y-17372643D01*
X16749643Y-17358357D01*
X9892424Y-17911462D02*
X9992500Y-18011538D01*
X9992500Y-17911462D02*
X9892424Y-18011538D01*
X9992500Y-17961500D02*
G75*
G03X9992500Y-17961500I-50038J0D01*
G01*
X10421071Y-18097214D02*
X10249643Y-18097214D01*
X10335357Y-18097214D02*
X10335357Y-17797214D01*
X10306786Y-17840072D01*
X10278214Y-17868643D01*
X10249643Y-17882929D01*
X10549643Y-18068643D02*
X10563929Y-18082929D01*
X10549643Y-18097214D01*
X10535357Y-18082929D01*
X10549643Y-18068643D01*
X10549643Y-18097214D01*
X10749643Y-17797214D02*
X10778214Y-17797214D01*
X10806786Y-17811500D01*
X10821071Y-17825786D01*
X10835357Y-17854357D01*
X10849643Y-17911500D01*
X10849643Y-17982929D01*
X10835357Y-18040072D01*
X10821071Y-18068643D01*
X10806786Y-18082929D01*
X10778214Y-18097214D01*
X10749643Y-18097214D01*
X10721071Y-18082929D01*
X10706786Y-18068643D01*
X10692500Y-18040072D01*
X10678214Y-17982929D01*
X10678214Y-17911500D01*
X10692500Y-17854357D01*
X10706786Y-17825786D01*
X10721071Y-17811500D01*
X10749643Y-17797214D01*
X11035357Y-17797214D02*
X11063929Y-17797214D01*
X11092500Y-17811500D01*
X11106786Y-17825786D01*
X11121071Y-17854357D01*
X11135357Y-17911500D01*
X11135357Y-17982929D01*
X11121071Y-18040072D01*
X11106786Y-18068643D01*
X11092500Y-18082929D01*
X11063929Y-18097214D01*
X11035357Y-18097214D01*
X11006786Y-18082929D01*
X10992500Y-18068643D01*
X10978214Y-18040072D01*
X10963929Y-17982929D01*
X10963929Y-17911500D01*
X10978214Y-17854357D01*
X10992500Y-17825786D01*
X11006786Y-17811500D01*
X11035357Y-17797214D01*
X11263928Y-18097214D02*
X11263928Y-17897214D01*
X11263928Y-17925786D02*
X11278214Y-17911500D01*
X11306786Y-17897214D01*
X11349643Y-17897214D01*
X11378214Y-17911500D01*
X11392500Y-17940072D01*
X11392500Y-18097214D01*
X11392500Y-17940072D02*
X11406786Y-17911500D01*
X11435357Y-17897214D01*
X11478214Y-17897214D01*
X11506786Y-17911500D01*
X11521071Y-17940072D01*
X11521071Y-18097214D01*
X11663928Y-18097214D02*
X11663928Y-17897214D01*
X11663928Y-17925786D02*
X11678214Y-17911500D01*
X11706786Y-17897214D01*
X11749643Y-17897214D01*
X11778214Y-17911500D01*
X11792500Y-17940072D01*
X11792500Y-18097214D01*
X11792500Y-17940072D02*
X11806786Y-17911500D01*
X11835357Y-17897214D01*
X11878214Y-17897214D01*
X11906786Y-17911500D01*
X11921071Y-17940072D01*
X11921071Y-18097214D01*
X12506786Y-17782929D02*
X12249643Y-18168643D01*
X12892500Y-17797214D02*
X12921071Y-17797214D01*
X12949643Y-17811500D01*
X12963928Y-17825786D01*
X12978214Y-17854357D01*
X12992500Y-17911500D01*
X12992500Y-17982929D01*
X12978214Y-18040072D01*
X12963928Y-18068643D01*
X12949643Y-18082929D01*
X12921071Y-18097214D01*
X12892500Y-18097214D01*
X12863928Y-18082929D01*
X12849643Y-18068643D01*
X12835357Y-18040072D01*
X12821071Y-17982929D01*
X12821071Y-17911500D01*
X12835357Y-17854357D01*
X12849643Y-17825786D01*
X12863928Y-17811500D01*
X12892500Y-17797214D01*
X13121071Y-18068643D02*
X13135357Y-18082929D01*
X13121071Y-18097214D01*
X13106786Y-18082929D01*
X13121071Y-18068643D01*
X13121071Y-18097214D01*
X13321071Y-17797214D02*
X13349643Y-17797214D01*
X13378214Y-17811500D01*
X13392500Y-17825786D01*
X13406785Y-17854357D01*
X13421071Y-17911500D01*
X13421071Y-17982929D01*
X13406785Y-18040072D01*
X13392500Y-18068643D01*
X13378214Y-18082929D01*
X13349643Y-18097214D01*
X13321071Y-18097214D01*
X13292500Y-18082929D01*
X13278214Y-18068643D01*
X13263928Y-18040072D01*
X13249643Y-17982929D01*
X13249643Y-17911500D01*
X13263928Y-17854357D01*
X13278214Y-17825786D01*
X13292500Y-17811500D01*
X13321071Y-17797214D01*
X13521071Y-17797214D02*
X13706785Y-17797214D01*
X13606785Y-17911500D01*
X13649643Y-17911500D01*
X13678214Y-17925786D01*
X13692500Y-17940072D01*
X13706785Y-17968643D01*
X13706785Y-18040072D01*
X13692500Y-18068643D01*
X13678214Y-18082929D01*
X13649643Y-18097214D01*
X13563928Y-18097214D01*
X13535357Y-18082929D01*
X13521071Y-18068643D01*
X13849643Y-18097214D02*
X13906785Y-18097214D01*
X13935357Y-18082929D01*
X13949643Y-18068643D01*
X13978214Y-18025786D01*
X13992500Y-17968643D01*
X13992500Y-17854357D01*
X13978214Y-17825786D01*
X13963928Y-17811500D01*
X13935357Y-17797214D01*
X13878214Y-17797214D01*
X13849643Y-17811500D01*
X13835357Y-17825786D01*
X13821071Y-17854357D01*
X13821071Y-17925786D01*
X13835357Y-17954357D01*
X13849643Y-17968643D01*
X13878214Y-17982929D01*
X13935357Y-17982929D01*
X13963928Y-17968643D01*
X13978214Y-17954357D01*
X13992500Y-17925786D01*
X14106786Y-17797214D02*
X14106786Y-17854357D01*
X14221071Y-17797214D02*
X14221071Y-17854357D01*
X14663928Y-18211500D02*
X14649643Y-18197214D01*
X14621071Y-18154357D01*
X14606785Y-18125786D01*
X14592500Y-18082929D01*
X14578214Y-18011500D01*
X14578214Y-17954357D01*
X14592500Y-17882929D01*
X14606785Y-17840072D01*
X14621071Y-17811500D01*
X14649643Y-17768643D01*
X14663928Y-17754357D01*
X14906785Y-17897214D02*
X14906785Y-18097214D01*
X14835357Y-17782929D02*
X14763928Y-17997214D01*
X14949643Y-17997214D01*
X15292500Y-18097214D02*
X15292500Y-17797214D01*
X15421071Y-18097214D02*
X15421071Y-17940072D01*
X15406785Y-17911500D01*
X15378214Y-17897214D01*
X15335357Y-17897214D01*
X15306785Y-17911500D01*
X15292500Y-17925786D01*
X15606785Y-18097214D02*
X15578214Y-18082929D01*
X15563928Y-18068643D01*
X15549643Y-18040072D01*
X15549643Y-17954357D01*
X15563928Y-17925786D01*
X15578214Y-17911500D01*
X15606785Y-17897214D01*
X15649643Y-17897214D01*
X15678214Y-17911500D01*
X15692500Y-17925786D01*
X15706785Y-17954357D01*
X15706785Y-18040072D01*
X15692500Y-18068643D01*
X15678214Y-18082929D01*
X15649643Y-18097214D01*
X15606785Y-18097214D01*
X15878214Y-18097214D02*
X15849643Y-18082929D01*
X15835357Y-18054357D01*
X15835357Y-17797214D01*
X16106786Y-18082929D02*
X16078214Y-18097214D01*
X16021071Y-18097214D01*
X15992500Y-18082929D01*
X15978214Y-18054357D01*
X15978214Y-17940072D01*
X15992500Y-17911500D01*
X16021071Y-17897214D01*
X16078214Y-17897214D01*
X16106786Y-17911500D01*
X16121071Y-17940072D01*
X16121071Y-17968643D01*
X15978214Y-17997214D01*
X16235357Y-18082929D02*
X16263928Y-18097214D01*
X16321071Y-18097214D01*
X16349643Y-18082929D01*
X16363928Y-18054357D01*
X16363928Y-18040072D01*
X16349643Y-18011500D01*
X16321071Y-17997214D01*
X16278214Y-17997214D01*
X16249643Y-17982929D01*
X16235357Y-17954357D01*
X16235357Y-17940072D01*
X16249643Y-17911500D01*
X16278214Y-17897214D01*
X16321071Y-17897214D01*
X16349643Y-17911500D01*
X16463928Y-18211500D02*
X16478214Y-18197214D01*
X16506786Y-18154357D01*
X16521071Y-18125786D01*
X16535357Y-18082929D01*
X16549643Y-18011500D01*
X16549643Y-17954357D01*
X16535357Y-17882929D01*
X16521071Y-17840072D01*
X16506786Y-17811500D01*
X16478214Y-17768643D01*
X16463928Y-17754357D01*
X9890900Y-18306700D02*
X9992500Y-18408300D01*
X9992500Y-18306700D02*
X9890900Y-18408300D01*
X9941700Y-18306700D02*
X9941700Y-18408300D01*
X9890900Y-18357500D02*
X9992500Y-18357500D01*
X10421071Y-18493214D02*
X10249643Y-18493214D01*
X10335357Y-18493214D02*
X10335357Y-18193214D01*
X10306786Y-18236072D01*
X10278214Y-18264643D01*
X10249643Y-18278929D01*
X10549643Y-18464643D02*
X10563929Y-18478929D01*
X10549643Y-18493214D01*
X10535357Y-18478929D01*
X10549643Y-18464643D01*
X10549643Y-18493214D01*
X10749643Y-18193214D02*
X10778214Y-18193214D01*
X10806786Y-18207500D01*
X10821071Y-18221786D01*
X10835357Y-18250357D01*
X10849643Y-18307500D01*
X10849643Y-18378929D01*
X10835357Y-18436072D01*
X10821071Y-18464643D01*
X10806786Y-18478929D01*
X10778214Y-18493214D01*
X10749643Y-18493214D01*
X10721071Y-18478929D01*
X10706786Y-18464643D01*
X10692500Y-18436072D01*
X10678214Y-18378929D01*
X10678214Y-18307500D01*
X10692500Y-18250357D01*
X10706786Y-18221786D01*
X10721071Y-18207500D01*
X10749643Y-18193214D01*
X10963929Y-18221786D02*
X10978214Y-18207500D01*
X11006786Y-18193214D01*
X11078214Y-18193214D01*
X11106786Y-18207500D01*
X11121071Y-18221786D01*
X11135357Y-18250357D01*
X11135357Y-18278929D01*
X11121071Y-18321786D01*
X10949643Y-18493214D01*
X11135357Y-18493214D01*
X11263928Y-18493214D02*
X11263928Y-18293214D01*
X11263928Y-18321786D02*
X11278214Y-18307500D01*
X11306786Y-18293214D01*
X11349643Y-18293214D01*
X11378214Y-18307500D01*
X11392500Y-18336072D01*
X11392500Y-18493214D01*
X11392500Y-18336072D02*
X11406786Y-18307500D01*
X11435357Y-18293214D01*
X11478214Y-18293214D01*
X11506786Y-18307500D01*
X11521071Y-18336072D01*
X11521071Y-18493214D01*
X11663928Y-18493214D02*
X11663928Y-18293214D01*
X11663928Y-18321786D02*
X11678214Y-18307500D01*
X11706786Y-18293214D01*
X11749643Y-18293214D01*
X11778214Y-18307500D01*
X11792500Y-18336072D01*
X11792500Y-18493214D01*
X11792500Y-18336072D02*
X11806786Y-18307500D01*
X11835357Y-18293214D01*
X11878214Y-18293214D01*
X11906786Y-18307500D01*
X11921071Y-18336072D01*
X11921071Y-18493214D01*
X12506786Y-18178929D02*
X12249643Y-18564643D01*
X12892500Y-18193214D02*
X12921071Y-18193214D01*
X12949643Y-18207500D01*
X12963928Y-18221786D01*
X12978214Y-18250357D01*
X12992500Y-18307500D01*
X12992500Y-18378929D01*
X12978214Y-18436072D01*
X12963928Y-18464643D01*
X12949643Y-18478929D01*
X12921071Y-18493214D01*
X12892500Y-18493214D01*
X12863928Y-18478929D01*
X12849643Y-18464643D01*
X12835357Y-18436072D01*
X12821071Y-18378929D01*
X12821071Y-18307500D01*
X12835357Y-18250357D01*
X12849643Y-18221786D01*
X12863928Y-18207500D01*
X12892500Y-18193214D01*
X13121071Y-18464643D02*
X13135357Y-18478929D01*
X13121071Y-18493214D01*
X13106786Y-18478929D01*
X13121071Y-18464643D01*
X13121071Y-18493214D01*
X13321071Y-18193214D02*
X13349643Y-18193214D01*
X13378214Y-18207500D01*
X13392500Y-18221786D01*
X13406785Y-18250357D01*
X13421071Y-18307500D01*
X13421071Y-18378929D01*
X13406785Y-18436072D01*
X13392500Y-18464643D01*
X13378214Y-18478929D01*
X13349643Y-18493214D01*
X13321071Y-18493214D01*
X13292500Y-18478929D01*
X13278214Y-18464643D01*
X13263928Y-18436072D01*
X13249643Y-18378929D01*
X13249643Y-18307500D01*
X13263928Y-18250357D01*
X13278214Y-18221786D01*
X13292500Y-18207500D01*
X13321071Y-18193214D01*
X13678214Y-18293214D02*
X13678214Y-18493214D01*
X13606785Y-18178929D02*
X13535357Y-18393214D01*
X13721071Y-18393214D01*
X13892500Y-18193214D02*
X13921071Y-18193214D01*
X13949643Y-18207500D01*
X13963928Y-18221786D01*
X13978214Y-18250357D01*
X13992500Y-18307500D01*
X13992500Y-18378929D01*
X13978214Y-18436072D01*
X13963928Y-18464643D01*
X13949643Y-18478929D01*
X13921071Y-18493214D01*
X13892500Y-18493214D01*
X13863928Y-18478929D01*
X13849643Y-18464643D01*
X13835357Y-18436072D01*
X13821071Y-18378929D01*
X13821071Y-18307500D01*
X13835357Y-18250357D01*
X13849643Y-18221786D01*
X13863928Y-18207500D01*
X13892500Y-18193214D01*
X14106786Y-18193214D02*
X14106786Y-18250357D01*
X14221071Y-18193214D02*
X14221071Y-18250357D01*
X14663928Y-18607500D02*
X14649643Y-18593214D01*
X14621071Y-18550357D01*
X14606785Y-18521786D01*
X14592500Y-18478929D01*
X14578214Y-18407500D01*
X14578214Y-18350357D01*
X14592500Y-18278929D01*
X14606785Y-18236072D01*
X14621071Y-18207500D01*
X14649643Y-18164643D01*
X14663928Y-18150357D01*
X14763928Y-18221786D02*
X14778214Y-18207500D01*
X14806785Y-18193214D01*
X14878214Y-18193214D01*
X14906785Y-18207500D01*
X14921071Y-18221786D01*
X14935357Y-18250357D01*
X14935357Y-18278929D01*
X14921071Y-18321786D01*
X14749643Y-18493214D01*
X14935357Y-18493214D01*
X15035357Y-18193214D02*
X15221071Y-18193214D01*
X15121071Y-18307500D01*
X15163928Y-18307500D01*
X15192500Y-18321786D01*
X15206785Y-18336072D01*
X15221071Y-18364643D01*
X15221071Y-18436072D01*
X15206785Y-18464643D01*
X15192500Y-18478929D01*
X15163928Y-18493214D01*
X15078214Y-18493214D01*
X15049643Y-18478929D01*
X15035357Y-18464643D01*
X15578214Y-18493214D02*
X15578214Y-18193214D01*
X15706785Y-18493214D02*
X15706785Y-18336072D01*
X15692500Y-18307500D01*
X15663928Y-18293214D01*
X15621071Y-18293214D01*
X15592500Y-18307500D01*
X15578214Y-18321786D01*
X15892500Y-18493214D02*
X15863928Y-18478929D01*
X15849643Y-18464643D01*
X15835357Y-18436072D01*
X15835357Y-18350357D01*
X15849643Y-18321786D01*
X15863928Y-18307500D01*
X15892500Y-18293214D01*
X15935357Y-18293214D01*
X15963928Y-18307500D01*
X15978214Y-18321786D01*
X15992500Y-18350357D01*
X15992500Y-18436072D01*
X15978214Y-18464643D01*
X15963928Y-18478929D01*
X15935357Y-18493214D01*
X15892500Y-18493214D01*
X16163928Y-18493214D02*
X16135357Y-18478929D01*
X16121071Y-18450357D01*
X16121071Y-18193214D01*
X16392500Y-18478929D02*
X16363928Y-18493214D01*
X16306786Y-18493214D01*
X16278214Y-18478929D01*
X16263928Y-18450357D01*
X16263928Y-18336072D01*
X16278214Y-18307500D01*
X16306786Y-18293214D01*
X16363928Y-18293214D01*
X16392500Y-18307500D01*
X16406786Y-18336072D01*
X16406786Y-18364643D01*
X16263928Y-18393214D01*
X16521071Y-18478929D02*
X16549643Y-18493214D01*
X16606786Y-18493214D01*
X16635357Y-18478929D01*
X16649643Y-18450357D01*
X16649643Y-18436072D01*
X16635357Y-18407500D01*
X16606786Y-18393214D01*
X16563928Y-18393214D01*
X16535357Y-18378929D01*
X16521071Y-18350357D01*
X16521071Y-18336072D01*
X16535357Y-18307500D01*
X16563928Y-18293214D01*
X16606786Y-18293214D01*
X16635357Y-18307500D01*
X16749643Y-18607500D02*
X16763928Y-18593214D01*
X16792500Y-18550357D01*
X16806786Y-18521786D01*
X16821071Y-18478929D01*
X16835357Y-18407500D01*
X16835357Y-18350357D01*
X16821071Y-18278929D01*
X16806786Y-18236072D01*
X16792500Y-18207500D01*
X16763928Y-18164643D01*
X16749643Y-18150357D01*
X9872500Y-18693500D02*
X9992500Y-18813500D01*
X9992500Y-18693500D02*
X9872500Y-18813500D01*
X9974927Y-18795927D02*
X9974927Y-18711073D01*
X9890073Y-18711073D01*
X9890073Y-18795927D01*
X9974927Y-18795927D01*
X10421071Y-18889214D02*
X10249643Y-18889214D01*
X10335357Y-18889214D02*
X10335357Y-18589214D01*
X10306786Y-18632072D01*
X10278214Y-18660643D01*
X10249643Y-18674929D01*
X10549643Y-18860643D02*
X10563929Y-18874929D01*
X10549643Y-18889214D01*
X10535357Y-18874929D01*
X10549643Y-18860643D01*
X10549643Y-18889214D01*
X10678214Y-18617786D02*
X10692500Y-18603500D01*
X10721071Y-18589214D01*
X10792500Y-18589214D01*
X10821071Y-18603500D01*
X10835357Y-18617786D01*
X10849643Y-18646357D01*
X10849643Y-18674929D01*
X10835357Y-18717786D01*
X10663928Y-18889214D01*
X10849643Y-18889214D01*
X11035357Y-18589214D02*
X11063929Y-18589214D01*
X11092500Y-18603500D01*
X11106786Y-18617786D01*
X11121071Y-18646357D01*
X11135357Y-18703500D01*
X11135357Y-18774929D01*
X11121071Y-18832072D01*
X11106786Y-18860643D01*
X11092500Y-18874929D01*
X11063929Y-18889214D01*
X11035357Y-18889214D01*
X11006786Y-18874929D01*
X10992500Y-18860643D01*
X10978214Y-18832072D01*
X10963929Y-18774929D01*
X10963929Y-18703500D01*
X10978214Y-18646357D01*
X10992500Y-18617786D01*
X11006786Y-18603500D01*
X11035357Y-18589214D01*
X11263928Y-18889214D02*
X11263928Y-18689214D01*
X11263928Y-18717786D02*
X11278214Y-18703500D01*
X11306786Y-18689214D01*
X11349643Y-18689214D01*
X11378214Y-18703500D01*
X11392500Y-18732072D01*
X11392500Y-18889214D01*
X11392500Y-18732072D02*
X11406786Y-18703500D01*
X11435357Y-18689214D01*
X11478214Y-18689214D01*
X11506786Y-18703500D01*
X11521071Y-18732072D01*
X11521071Y-18889214D01*
X11663928Y-18889214D02*
X11663928Y-18689214D01*
X11663928Y-18717786D02*
X11678214Y-18703500D01*
X11706786Y-18689214D01*
X11749643Y-18689214D01*
X11778214Y-18703500D01*
X11792500Y-18732072D01*
X11792500Y-18889214D01*
X11792500Y-18732072D02*
X11806786Y-18703500D01*
X11835357Y-18689214D01*
X11878214Y-18689214D01*
X11906786Y-18703500D01*
X11921071Y-18732072D01*
X11921071Y-18889214D01*
X12506786Y-18574929D02*
X12249643Y-18960643D01*
X12892500Y-18589214D02*
X12921071Y-18589214D01*
X12949643Y-18603500D01*
X12963928Y-18617786D01*
X12978214Y-18646357D01*
X12992500Y-18703500D01*
X12992500Y-18774929D01*
X12978214Y-18832072D01*
X12963928Y-18860643D01*
X12949643Y-18874929D01*
X12921071Y-18889214D01*
X12892500Y-18889214D01*
X12863928Y-18874929D01*
X12849643Y-18860643D01*
X12835357Y-18832072D01*
X12821071Y-18774929D01*
X12821071Y-18703500D01*
X12835357Y-18646357D01*
X12849643Y-18617786D01*
X12863928Y-18603500D01*
X12892500Y-18589214D01*
X13121071Y-18860643D02*
X13135357Y-18874929D01*
X13121071Y-18889214D01*
X13106786Y-18874929D01*
X13121071Y-18860643D01*
X13121071Y-18889214D01*
X13321071Y-18589214D02*
X13349643Y-18589214D01*
X13378214Y-18603500D01*
X13392500Y-18617786D01*
X13406785Y-18646357D01*
X13421071Y-18703500D01*
X13421071Y-18774929D01*
X13406785Y-18832072D01*
X13392500Y-18860643D01*
X13378214Y-18874929D01*
X13349643Y-18889214D01*
X13321071Y-18889214D01*
X13292500Y-18874929D01*
X13278214Y-18860643D01*
X13263928Y-18832072D01*
X13249643Y-18774929D01*
X13249643Y-18703500D01*
X13263928Y-18646357D01*
X13278214Y-18617786D01*
X13292500Y-18603500D01*
X13321071Y-18589214D01*
X13678214Y-18689214D02*
X13678214Y-18889214D01*
X13606785Y-18574929D02*
X13535357Y-18789214D01*
X13721071Y-18789214D01*
X13806785Y-18589214D02*
X14006785Y-18589214D01*
X13878214Y-18889214D01*
X14106786Y-18589214D02*
X14106786Y-18646357D01*
X14221071Y-18589214D02*
X14221071Y-18646357D01*
X14663928Y-19003500D02*
X14649643Y-18989214D01*
X14621071Y-18946357D01*
X14606785Y-18917786D01*
X14592500Y-18874929D01*
X14578214Y-18803500D01*
X14578214Y-18746357D01*
X14592500Y-18674929D01*
X14606785Y-18632072D01*
X14621071Y-18603500D01*
X14649643Y-18560643D01*
X14663928Y-18546357D01*
X14935357Y-18889214D02*
X14763928Y-18889214D01*
X14849643Y-18889214D02*
X14849643Y-18589214D01*
X14821071Y-18632072D01*
X14792500Y-18660643D01*
X14763928Y-18674929D01*
X15192500Y-18689214D02*
X15192500Y-18889214D01*
X15121071Y-18574929D02*
X15049643Y-18789214D01*
X15235357Y-18789214D01*
X15578214Y-18889214D02*
X15578214Y-18589214D01*
X15706785Y-18889214D02*
X15706785Y-18732072D01*
X15692500Y-18703500D01*
X15663928Y-18689214D01*
X15621071Y-18689214D01*
X15592500Y-18703500D01*
X15578214Y-18717786D01*
X15892500Y-18889214D02*
X15863928Y-18874929D01*
X15849643Y-18860643D01*
X15835357Y-18832072D01*
X15835357Y-18746357D01*
X15849643Y-18717786D01*
X15863928Y-18703500D01*
X15892500Y-18689214D01*
X15935357Y-18689214D01*
X15963928Y-18703500D01*
X15978214Y-18717786D01*
X15992500Y-18746357D01*
X15992500Y-18832072D01*
X15978214Y-18860643D01*
X15963928Y-18874929D01*
X15935357Y-18889214D01*
X15892500Y-18889214D01*
X16163928Y-18889214D02*
X16135357Y-18874929D01*
X16121071Y-18846357D01*
X16121071Y-18589214D01*
X16392500Y-18874929D02*
X16363928Y-18889214D01*
X16306786Y-18889214D01*
X16278214Y-18874929D01*
X16263928Y-18846357D01*
X16263928Y-18732072D01*
X16278214Y-18703500D01*
X16306786Y-18689214D01*
X16363928Y-18689214D01*
X16392500Y-18703500D01*
X16406786Y-18732072D01*
X16406786Y-18760643D01*
X16263928Y-18789214D01*
X16521071Y-18874929D02*
X16549643Y-18889214D01*
X16606786Y-18889214D01*
X16635357Y-18874929D01*
X16649643Y-18846357D01*
X16649643Y-18832072D01*
X16635357Y-18803500D01*
X16606786Y-18789214D01*
X16563928Y-18789214D01*
X16535357Y-18774929D01*
X16521071Y-18746357D01*
X16521071Y-18732072D01*
X16535357Y-18703500D01*
X16563928Y-18689214D01*
X16606786Y-18689214D01*
X16635357Y-18703500D01*
X16749643Y-19003500D02*
X16763928Y-18989214D01*
X16792500Y-18946357D01*
X16806786Y-18917786D01*
X16821071Y-18874929D01*
X16835357Y-18803500D01*
X16835357Y-18746357D01*
X16821071Y-18674929D01*
X16806786Y-18632072D01*
X16792500Y-18603500D01*
X16763928Y-18560643D01*
X16749643Y-18546357D01*
X9865500Y-19086000D02*
X9992500Y-19213000D01*
X9992500Y-19086000D02*
X9865500Y-19213000D01*
X9929000Y-19213000D02*
X9992500Y-19149500D01*
X9929000Y-19086000D01*
X9865500Y-19149500D01*
X9929000Y-19213000D01*
X10421071Y-19285214D02*
X10249643Y-19285214D01*
X10335357Y-19285214D02*
X10335357Y-18985214D01*
X10306786Y-19028072D01*
X10278214Y-19056643D01*
X10249643Y-19070929D01*
X10549643Y-19256643D02*
X10563929Y-19270929D01*
X10549643Y-19285214D01*
X10535357Y-19270929D01*
X10549643Y-19256643D01*
X10549643Y-19285214D01*
X10678214Y-19013786D02*
X10692500Y-18999500D01*
X10721071Y-18985214D01*
X10792500Y-18985214D01*
X10821071Y-18999500D01*
X10835357Y-19013786D01*
X10849643Y-19042357D01*
X10849643Y-19070929D01*
X10835357Y-19113786D01*
X10663928Y-19285214D01*
X10849643Y-19285214D01*
X10949643Y-18985214D02*
X11149643Y-18985214D01*
X11021071Y-19285214D01*
X11263928Y-19285214D02*
X11263928Y-19085214D01*
X11263928Y-19113786D02*
X11278214Y-19099500D01*
X11306786Y-19085214D01*
X11349643Y-19085214D01*
X11378214Y-19099500D01*
X11392500Y-19128072D01*
X11392500Y-19285214D01*
X11392500Y-19128072D02*
X11406786Y-19099500D01*
X11435357Y-19085214D01*
X11478214Y-19085214D01*
X11506786Y-19099500D01*
X11521071Y-19128072D01*
X11521071Y-19285214D01*
X11663928Y-19285214D02*
X11663928Y-19085214D01*
X11663928Y-19113786D02*
X11678214Y-19099500D01*
X11706786Y-19085214D01*
X11749643Y-19085214D01*
X11778214Y-19099500D01*
X11792500Y-19128072D01*
X11792500Y-19285214D01*
X11792500Y-19128072D02*
X11806786Y-19099500D01*
X11835357Y-19085214D01*
X11878214Y-19085214D01*
X11906786Y-19099500D01*
X11921071Y-19128072D01*
X11921071Y-19285214D01*
X12506786Y-18970929D02*
X12249643Y-19356643D01*
X12892500Y-18985214D02*
X12921071Y-18985214D01*
X12949643Y-18999500D01*
X12963928Y-19013786D01*
X12978214Y-19042357D01*
X12992500Y-19099500D01*
X12992500Y-19170929D01*
X12978214Y-19228072D01*
X12963928Y-19256643D01*
X12949643Y-19270929D01*
X12921071Y-19285214D01*
X12892500Y-19285214D01*
X12863928Y-19270929D01*
X12849643Y-19256643D01*
X12835357Y-19228072D01*
X12821071Y-19170929D01*
X12821071Y-19099500D01*
X12835357Y-19042357D01*
X12849643Y-19013786D01*
X12863928Y-18999500D01*
X12892500Y-18985214D01*
X13121071Y-19256643D02*
X13135357Y-19270929D01*
X13121071Y-19285214D01*
X13106786Y-19270929D01*
X13121071Y-19256643D01*
X13121071Y-19285214D01*
X13321071Y-18985214D02*
X13349643Y-18985214D01*
X13378214Y-18999500D01*
X13392500Y-19013786D01*
X13406785Y-19042357D01*
X13421071Y-19099500D01*
X13421071Y-19170929D01*
X13406785Y-19228072D01*
X13392500Y-19256643D01*
X13378214Y-19270929D01*
X13349643Y-19285214D01*
X13321071Y-19285214D01*
X13292500Y-19270929D01*
X13278214Y-19256643D01*
X13263928Y-19228072D01*
X13249643Y-19170929D01*
X13249643Y-19099500D01*
X13263928Y-19042357D01*
X13278214Y-19013786D01*
X13292500Y-18999500D01*
X13321071Y-18985214D01*
X13692500Y-18985214D02*
X13549643Y-18985214D01*
X13535357Y-19128072D01*
X13549643Y-19113786D01*
X13578214Y-19099500D01*
X13649643Y-19099500D01*
X13678214Y-19113786D01*
X13692500Y-19128072D01*
X13706785Y-19156643D01*
X13706785Y-19228072D01*
X13692500Y-19256643D01*
X13678214Y-19270929D01*
X13649643Y-19285214D01*
X13578214Y-19285214D01*
X13549643Y-19270929D01*
X13535357Y-19256643D01*
X13892500Y-18985214D02*
X13921071Y-18985214D01*
X13949643Y-18999500D01*
X13963928Y-19013786D01*
X13978214Y-19042357D01*
X13992500Y-19099500D01*
X13992500Y-19170929D01*
X13978214Y-19228072D01*
X13963928Y-19256643D01*
X13949643Y-19270929D01*
X13921071Y-19285214D01*
X13892500Y-19285214D01*
X13863928Y-19270929D01*
X13849643Y-19256643D01*
X13835357Y-19228072D01*
X13821071Y-19170929D01*
X13821071Y-19099500D01*
X13835357Y-19042357D01*
X13849643Y-19013786D01*
X13863928Y-18999500D01*
X13892500Y-18985214D01*
X14106786Y-18985214D02*
X14106786Y-19042357D01*
X14221071Y-18985214D02*
X14221071Y-19042357D01*
X14663928Y-19399500D02*
X14649643Y-19385214D01*
X14621071Y-19342357D01*
X14606785Y-19313786D01*
X14592500Y-19270929D01*
X14578214Y-19199500D01*
X14578214Y-19142357D01*
X14592500Y-19070929D01*
X14606785Y-19028072D01*
X14621071Y-18999500D01*
X14649643Y-18956643D01*
X14663928Y-18942357D01*
X14935357Y-19285214D02*
X14763928Y-19285214D01*
X14849643Y-19285214D02*
X14849643Y-18985214D01*
X14821071Y-19028072D01*
X14792500Y-19056643D01*
X14763928Y-19070929D01*
X15292500Y-19285214D02*
X15292500Y-18985214D01*
X15421071Y-19285214D02*
X15421071Y-19128072D01*
X15406785Y-19099500D01*
X15378214Y-19085214D01*
X15335357Y-19085214D01*
X15306785Y-19099500D01*
X15292500Y-19113786D01*
X15606785Y-19285214D02*
X15578214Y-19270929D01*
X15563928Y-19256643D01*
X15549643Y-19228072D01*
X15549643Y-19142357D01*
X15563928Y-19113786D01*
X15578214Y-19099500D01*
X15606785Y-19085214D01*
X15649643Y-19085214D01*
X15678214Y-19099500D01*
X15692500Y-19113786D01*
X15706785Y-19142357D01*
X15706785Y-19228072D01*
X15692500Y-19256643D01*
X15678214Y-19270929D01*
X15649643Y-19285214D01*
X15606785Y-19285214D01*
X15878214Y-19285214D02*
X15849643Y-19270929D01*
X15835357Y-19242357D01*
X15835357Y-18985214D01*
X16106786Y-19270929D02*
X16078214Y-19285214D01*
X16021071Y-19285214D01*
X15992500Y-19270929D01*
X15978214Y-19242357D01*
X15978214Y-19128072D01*
X15992500Y-19099500D01*
X16021071Y-19085214D01*
X16078214Y-19085214D01*
X16106786Y-19099500D01*
X16121071Y-19128072D01*
X16121071Y-19156643D01*
X15978214Y-19185214D01*
X16221071Y-19399500D02*
X16235357Y-19385214D01*
X16263928Y-19342357D01*
X16278214Y-19313786D01*
X16292500Y-19270929D01*
X16306786Y-19199500D01*
X16306786Y-19142357D01*
X16292500Y-19070929D01*
X16278214Y-19028072D01*
X16263928Y-18999500D01*
X16235357Y-18956643D01*
X16221071Y-18942357D01*
X9927500Y-19480500D02*
X9927500Y-19610500D01*
X9862500Y-19545500D02*
X9992500Y-19545500D01*
X9992500Y-19545500D02*
G75*
G03X9992500Y-19545500I-65000J0D01*
G01*
X10421071Y-19681214D02*
X10249643Y-19681214D01*
X10335357Y-19681214D02*
X10335357Y-19381214D01*
X10306786Y-19424072D01*
X10278214Y-19452643D01*
X10249643Y-19466929D01*
X10549643Y-19652643D02*
X10563929Y-19666929D01*
X10549643Y-19681214D01*
X10535357Y-19666929D01*
X10549643Y-19652643D01*
X10549643Y-19681214D01*
X10663928Y-19381214D02*
X10849643Y-19381214D01*
X10749643Y-19495500D01*
X10792500Y-19495500D01*
X10821071Y-19509786D01*
X10835357Y-19524072D01*
X10849643Y-19552643D01*
X10849643Y-19624072D01*
X10835357Y-19652643D01*
X10821071Y-19666929D01*
X10792500Y-19681214D01*
X10706786Y-19681214D01*
X10678214Y-19666929D01*
X10663928Y-19652643D01*
X11035357Y-19381214D02*
X11063929Y-19381214D01*
X11092500Y-19395500D01*
X11106786Y-19409786D01*
X11121071Y-19438357D01*
X11135357Y-19495500D01*
X11135357Y-19566929D01*
X11121071Y-19624072D01*
X11106786Y-19652643D01*
X11092500Y-19666929D01*
X11063929Y-19681214D01*
X11035357Y-19681214D01*
X11006786Y-19666929D01*
X10992500Y-19652643D01*
X10978214Y-19624072D01*
X10963929Y-19566929D01*
X10963929Y-19495500D01*
X10978214Y-19438357D01*
X10992500Y-19409786D01*
X11006786Y-19395500D01*
X11035357Y-19381214D01*
X11263928Y-19681214D02*
X11263928Y-19481214D01*
X11263928Y-19509786D02*
X11278214Y-19495500D01*
X11306786Y-19481214D01*
X11349643Y-19481214D01*
X11378214Y-19495500D01*
X11392500Y-19524072D01*
X11392500Y-19681214D01*
X11392500Y-19524072D02*
X11406786Y-19495500D01*
X11435357Y-19481214D01*
X11478214Y-19481214D01*
X11506786Y-19495500D01*
X11521071Y-19524072D01*
X11521071Y-19681214D01*
X11663928Y-19681214D02*
X11663928Y-19481214D01*
X11663928Y-19509786D02*
X11678214Y-19495500D01*
X11706786Y-19481214D01*
X11749643Y-19481214D01*
X11778214Y-19495500D01*
X11792500Y-19524072D01*
X11792500Y-19681214D01*
X11792500Y-19524072D02*
X11806786Y-19495500D01*
X11835357Y-19481214D01*
X11878214Y-19481214D01*
X11906786Y-19495500D01*
X11921071Y-19524072D01*
X11921071Y-19681214D01*
X12506786Y-19366929D02*
X12249643Y-19752643D01*
X12892500Y-19381214D02*
X12921071Y-19381214D01*
X12949643Y-19395500D01*
X12963928Y-19409786D01*
X12978214Y-19438357D01*
X12992500Y-19495500D01*
X12992500Y-19566929D01*
X12978214Y-19624072D01*
X12963928Y-19652643D01*
X12949643Y-19666929D01*
X12921071Y-19681214D01*
X12892500Y-19681214D01*
X12863928Y-19666929D01*
X12849643Y-19652643D01*
X12835357Y-19624072D01*
X12821071Y-19566929D01*
X12821071Y-19495500D01*
X12835357Y-19438357D01*
X12849643Y-19409786D01*
X12863928Y-19395500D01*
X12892500Y-19381214D01*
X13121071Y-19652643D02*
X13135357Y-19666929D01*
X13121071Y-19681214D01*
X13106786Y-19666929D01*
X13121071Y-19652643D01*
X13121071Y-19681214D01*
X13321071Y-19381214D02*
X13349643Y-19381214D01*
X13378214Y-19395500D01*
X13392500Y-19409786D01*
X13406785Y-19438357D01*
X13421071Y-19495500D01*
X13421071Y-19566929D01*
X13406785Y-19624072D01*
X13392500Y-19652643D01*
X13378214Y-19666929D01*
X13349643Y-19681214D01*
X13321071Y-19681214D01*
X13292500Y-19666929D01*
X13278214Y-19652643D01*
X13263928Y-19624072D01*
X13249643Y-19566929D01*
X13249643Y-19495500D01*
X13263928Y-19438357D01*
X13278214Y-19409786D01*
X13292500Y-19395500D01*
X13321071Y-19381214D01*
X13692500Y-19381214D02*
X13549643Y-19381214D01*
X13535357Y-19524072D01*
X13549643Y-19509786D01*
X13578214Y-19495500D01*
X13649643Y-19495500D01*
X13678214Y-19509786D01*
X13692500Y-19524072D01*
X13706785Y-19552643D01*
X13706785Y-19624072D01*
X13692500Y-19652643D01*
X13678214Y-19666929D01*
X13649643Y-19681214D01*
X13578214Y-19681214D01*
X13549643Y-19666929D01*
X13535357Y-19652643D01*
X13992500Y-19681214D02*
X13821071Y-19681214D01*
X13906785Y-19681214D02*
X13906785Y-19381214D01*
X13878214Y-19424072D01*
X13849643Y-19452643D01*
X13821071Y-19466929D01*
X14106786Y-19381214D02*
X14106786Y-19438357D01*
X14221071Y-19381214D02*
X14221071Y-19438357D01*
X14663928Y-19795500D02*
X14649643Y-19781214D01*
X14621071Y-19738357D01*
X14606785Y-19709786D01*
X14592500Y-19666929D01*
X14578214Y-19595500D01*
X14578214Y-19538357D01*
X14592500Y-19466929D01*
X14606785Y-19424072D01*
X14621071Y-19395500D01*
X14649643Y-19352643D01*
X14663928Y-19338357D01*
X14763928Y-19409786D02*
X14778214Y-19395500D01*
X14806785Y-19381214D01*
X14878214Y-19381214D01*
X14906785Y-19395500D01*
X14921071Y-19409786D01*
X14935357Y-19438357D01*
X14935357Y-19466929D01*
X14921071Y-19509786D01*
X14749643Y-19681214D01*
X14935357Y-19681214D01*
X15292500Y-19681214D02*
X15292500Y-19381214D01*
X15421071Y-19681214D02*
X15421071Y-19524072D01*
X15406785Y-19495500D01*
X15378214Y-19481214D01*
X15335357Y-19481214D01*
X15306785Y-19495500D01*
X15292500Y-19509786D01*
X15606785Y-19681214D02*
X15578214Y-19666929D01*
X15563928Y-19652643D01*
X15549643Y-19624072D01*
X15549643Y-19538357D01*
X15563928Y-19509786D01*
X15578214Y-19495500D01*
X15606785Y-19481214D01*
X15649643Y-19481214D01*
X15678214Y-19495500D01*
X15692500Y-19509786D01*
X15706785Y-19538357D01*
X15706785Y-19624072D01*
X15692500Y-19652643D01*
X15678214Y-19666929D01*
X15649643Y-19681214D01*
X15606785Y-19681214D01*
X15878214Y-19681214D02*
X15849643Y-19666929D01*
X15835357Y-19638357D01*
X15835357Y-19381214D01*
X16106786Y-19666929D02*
X16078214Y-19681214D01*
X16021071Y-19681214D01*
X15992500Y-19666929D01*
X15978214Y-19638357D01*
X15978214Y-19524072D01*
X15992500Y-19495500D01*
X16021071Y-19481214D01*
X16078214Y-19481214D01*
X16106786Y-19495500D01*
X16121071Y-19524072D01*
X16121071Y-19552643D01*
X15978214Y-19581214D01*
X16235357Y-19666929D02*
X16263928Y-19681214D01*
X16321071Y-19681214D01*
X16349643Y-19666929D01*
X16363928Y-19638357D01*
X16363928Y-19624072D01*
X16349643Y-19595500D01*
X16321071Y-19581214D01*
X16278214Y-19581214D01*
X16249643Y-19566929D01*
X16235357Y-19538357D01*
X16235357Y-19524072D01*
X16249643Y-19495500D01*
X16278214Y-19481214D01*
X16321071Y-19481214D01*
X16349643Y-19495500D01*
X16463928Y-19795500D02*
X16478214Y-19781214D01*
X16506786Y-19738357D01*
X16521071Y-19709786D01*
X16535357Y-19666929D01*
X16549643Y-19595500D01*
X16549643Y-19538357D01*
X16535357Y-19466929D01*
X16521071Y-19424072D01*
X16506786Y-19395500D01*
X16478214Y-19352643D01*
X16463928Y-19338357D01*
X9947864Y-20049264D02*
X9947864Y-19833736D01*
X9732336Y-19833736D01*
X9732336Y-20049264D01*
X9947864Y-20049264D01*
X9992500Y-19941500D02*
G75*
G03X9992500Y-19941500I-152400J0D01*
G01*
X10235357Y-19777214D02*
X10421071Y-19777214D01*
X10321071Y-19891500D01*
X10363929Y-19891500D01*
X10392500Y-19905786D01*
X10406786Y-19920072D01*
X10421071Y-19948643D01*
X10421071Y-20020072D01*
X10406786Y-20048643D01*
X10392500Y-20062929D01*
X10363929Y-20077214D01*
X10278214Y-20077214D01*
X10249643Y-20062929D01*
X10235357Y-20048643D01*
X10549643Y-20048643D02*
X10563929Y-20062929D01*
X10549643Y-20077214D01*
X10535357Y-20062929D01*
X10549643Y-20048643D01*
X10549643Y-20077214D01*
X10749643Y-19777214D02*
X10778214Y-19777214D01*
X10806786Y-19791500D01*
X10821071Y-19805786D01*
X10835357Y-19834357D01*
X10849643Y-19891500D01*
X10849643Y-19962929D01*
X10835357Y-20020072D01*
X10821071Y-20048643D01*
X10806786Y-20062929D01*
X10778214Y-20077214D01*
X10749643Y-20077214D01*
X10721071Y-20062929D01*
X10706786Y-20048643D01*
X10692500Y-20020072D01*
X10678214Y-19962929D01*
X10678214Y-19891500D01*
X10692500Y-19834357D01*
X10706786Y-19805786D01*
X10721071Y-19791500D01*
X10749643Y-19777214D01*
X11121071Y-19777214D02*
X10978214Y-19777214D01*
X10963929Y-19920072D01*
X10978214Y-19905786D01*
X11006786Y-19891500D01*
X11078214Y-19891500D01*
X11106786Y-19905786D01*
X11121071Y-19920072D01*
X11135357Y-19948643D01*
X11135357Y-20020072D01*
X11121071Y-20048643D01*
X11106786Y-20062929D01*
X11078214Y-20077214D01*
X11006786Y-20077214D01*
X10978214Y-20062929D01*
X10963929Y-20048643D01*
X11263928Y-20077214D02*
X11263928Y-19877214D01*
X11263928Y-19905786D02*
X11278214Y-19891500D01*
X11306786Y-19877214D01*
X11349643Y-19877214D01*
X11378214Y-19891500D01*
X11392500Y-19920072D01*
X11392500Y-20077214D01*
X11392500Y-19920072D02*
X11406786Y-19891500D01*
X11435357Y-19877214D01*
X11478214Y-19877214D01*
X11506786Y-19891500D01*
X11521071Y-19920072D01*
X11521071Y-20077214D01*
X11663928Y-20077214D02*
X11663928Y-19877214D01*
X11663928Y-19905786D02*
X11678214Y-19891500D01*
X11706786Y-19877214D01*
X11749643Y-19877214D01*
X11778214Y-19891500D01*
X11792500Y-19920072D01*
X11792500Y-20077214D01*
X11792500Y-19920072D02*
X11806786Y-19891500D01*
X11835357Y-19877214D01*
X11878214Y-19877214D01*
X11906786Y-19891500D01*
X11921071Y-19920072D01*
X11921071Y-20077214D01*
X12506786Y-19762929D02*
X12249643Y-20148643D01*
X12892500Y-19777214D02*
X12921071Y-19777214D01*
X12949643Y-19791500D01*
X12963928Y-19805786D01*
X12978214Y-19834357D01*
X12992500Y-19891500D01*
X12992500Y-19962929D01*
X12978214Y-20020072D01*
X12963928Y-20048643D01*
X12949643Y-20062929D01*
X12921071Y-20077214D01*
X12892500Y-20077214D01*
X12863928Y-20062929D01*
X12849643Y-20048643D01*
X12835357Y-20020072D01*
X12821071Y-19962929D01*
X12821071Y-19891500D01*
X12835357Y-19834357D01*
X12849643Y-19805786D01*
X12863928Y-19791500D01*
X12892500Y-19777214D01*
X13121071Y-20048643D02*
X13135357Y-20062929D01*
X13121071Y-20077214D01*
X13106786Y-20062929D01*
X13121071Y-20048643D01*
X13121071Y-20077214D01*
X13421071Y-20077214D02*
X13249643Y-20077214D01*
X13335357Y-20077214D02*
X13335357Y-19777214D01*
X13306785Y-19820072D01*
X13278214Y-19848643D01*
X13249643Y-19862929D01*
X13535357Y-19805786D02*
X13549643Y-19791500D01*
X13578214Y-19777214D01*
X13649643Y-19777214D01*
X13678214Y-19791500D01*
X13692500Y-19805786D01*
X13706785Y-19834357D01*
X13706785Y-19862929D01*
X13692500Y-19905786D01*
X13521071Y-20077214D01*
X13706785Y-20077214D01*
X13892500Y-19777214D02*
X13921071Y-19777214D01*
X13949643Y-19791500D01*
X13963928Y-19805786D01*
X13978214Y-19834357D01*
X13992500Y-19891500D01*
X13992500Y-19962929D01*
X13978214Y-20020072D01*
X13963928Y-20048643D01*
X13949643Y-20062929D01*
X13921071Y-20077214D01*
X13892500Y-20077214D01*
X13863928Y-20062929D01*
X13849643Y-20048643D01*
X13835357Y-20020072D01*
X13821071Y-19962929D01*
X13821071Y-19891500D01*
X13835357Y-19834357D01*
X13849643Y-19805786D01*
X13863928Y-19791500D01*
X13892500Y-19777214D01*
X14106786Y-19777214D02*
X14106786Y-19834357D01*
X14221071Y-19777214D02*
X14221071Y-19834357D01*
X14663928Y-20191500D02*
X14649643Y-20177214D01*
X14621071Y-20134357D01*
X14606785Y-20105786D01*
X14592500Y-20062929D01*
X14578214Y-19991500D01*
X14578214Y-19934357D01*
X14592500Y-19862929D01*
X14606785Y-19820072D01*
X14621071Y-19791500D01*
X14649643Y-19748643D01*
X14663928Y-19734357D01*
X14821071Y-19905786D02*
X14792500Y-19891500D01*
X14778214Y-19877214D01*
X14763928Y-19848643D01*
X14763928Y-19834357D01*
X14778214Y-19805786D01*
X14792500Y-19791500D01*
X14821071Y-19777214D01*
X14878214Y-19777214D01*
X14906785Y-19791500D01*
X14921071Y-19805786D01*
X14935357Y-19834357D01*
X14935357Y-19848643D01*
X14921071Y-19877214D01*
X14906785Y-19891500D01*
X14878214Y-19905786D01*
X14821071Y-19905786D01*
X14792500Y-19920072D01*
X14778214Y-19934357D01*
X14763928Y-19962929D01*
X14763928Y-20020072D01*
X14778214Y-20048643D01*
X14792500Y-20062929D01*
X14821071Y-20077214D01*
X14878214Y-20077214D01*
X14906785Y-20062929D01*
X14921071Y-20048643D01*
X14935357Y-20020072D01*
X14935357Y-19962929D01*
X14921071Y-19934357D01*
X14906785Y-19920072D01*
X14878214Y-19905786D01*
X15292500Y-20077214D02*
X15292500Y-19777214D01*
X15421071Y-20077214D02*
X15421071Y-19920072D01*
X15406785Y-19891500D01*
X15378214Y-19877214D01*
X15335357Y-19877214D01*
X15306785Y-19891500D01*
X15292500Y-19905786D01*
X15606785Y-20077214D02*
X15578214Y-20062929D01*
X15563928Y-20048643D01*
X15549643Y-20020072D01*
X15549643Y-19934357D01*
X15563928Y-19905786D01*
X15578214Y-19891500D01*
X15606785Y-19877214D01*
X15649643Y-19877214D01*
X15678214Y-19891500D01*
X15692500Y-19905786D01*
X15706785Y-19934357D01*
X15706785Y-20020072D01*
X15692500Y-20048643D01*
X15678214Y-20062929D01*
X15649643Y-20077214D01*
X15606785Y-20077214D01*
X15878214Y-20077214D02*
X15849643Y-20062929D01*
X15835357Y-20034357D01*
X15835357Y-19777214D01*
X16106786Y-20062929D02*
X16078214Y-20077214D01*
X16021071Y-20077214D01*
X15992500Y-20062929D01*
X15978214Y-20034357D01*
X15978214Y-19920072D01*
X15992500Y-19891500D01*
X16021071Y-19877214D01*
X16078214Y-19877214D01*
X16106786Y-19891500D01*
X16121071Y-19920072D01*
X16121071Y-19948643D01*
X15978214Y-19977214D01*
X16235357Y-20062929D02*
X16263928Y-20077214D01*
X16321071Y-20077214D01*
X16349643Y-20062929D01*
X16363928Y-20034357D01*
X16363928Y-20020072D01*
X16349643Y-19991500D01*
X16321071Y-19977214D01*
X16278214Y-19977214D01*
X16249643Y-19962929D01*
X16235357Y-19934357D01*
X16235357Y-19920072D01*
X16249643Y-19891500D01*
X16278214Y-19877214D01*
X16321071Y-19877214D01*
X16349643Y-19891500D01*
X16463928Y-20191500D02*
X16478214Y-20177214D01*
X16506786Y-20134357D01*
X16521071Y-20105786D01*
X16535357Y-20062929D01*
X16549643Y-19991500D01*
X16549643Y-19934357D01*
X16535357Y-19862929D01*
X16521071Y-19820072D01*
X16506786Y-19791500D01*
X16478214Y-19748643D01*
X16463928Y-19734357D01*
X9802508Y-20566292D02*
X9992500Y-20376300D01*
X9802508Y-20186308D01*
X9612516Y-20376300D01*
X9802508Y-20566292D01*
X9992500Y-20376300D02*
G75*
G03X9992500Y-20376300I-189992J0D01*
G01*
X10235357Y-20212014D02*
X10421071Y-20212014D01*
X10321071Y-20326300D01*
X10363929Y-20326300D01*
X10392500Y-20340586D01*
X10406786Y-20354872D01*
X10421071Y-20383443D01*
X10421071Y-20454872D01*
X10406786Y-20483443D01*
X10392500Y-20497729D01*
X10363929Y-20512014D01*
X10278214Y-20512014D01*
X10249643Y-20497729D01*
X10235357Y-20483443D01*
X10549643Y-20483443D02*
X10563929Y-20497729D01*
X10549643Y-20512014D01*
X10535357Y-20497729D01*
X10549643Y-20483443D01*
X10549643Y-20512014D01*
X10735357Y-20340586D02*
X10706786Y-20326300D01*
X10692500Y-20312014D01*
X10678214Y-20283443D01*
X10678214Y-20269157D01*
X10692500Y-20240586D01*
X10706786Y-20226300D01*
X10735357Y-20212014D01*
X10792500Y-20212014D01*
X10821071Y-20226300D01*
X10835357Y-20240586D01*
X10849643Y-20269157D01*
X10849643Y-20283443D01*
X10835357Y-20312014D01*
X10821071Y-20326300D01*
X10792500Y-20340586D01*
X10735357Y-20340586D01*
X10706786Y-20354872D01*
X10692500Y-20369157D01*
X10678214Y-20397729D01*
X10678214Y-20454872D01*
X10692500Y-20483443D01*
X10706786Y-20497729D01*
X10735357Y-20512014D01*
X10792500Y-20512014D01*
X10821071Y-20497729D01*
X10835357Y-20483443D01*
X10849643Y-20454872D01*
X10849643Y-20397729D01*
X10835357Y-20369157D01*
X10821071Y-20354872D01*
X10792500Y-20340586D01*
X11035357Y-20212014D02*
X11063929Y-20212014D01*
X11092500Y-20226300D01*
X11106786Y-20240586D01*
X11121071Y-20269157D01*
X11135357Y-20326300D01*
X11135357Y-20397729D01*
X11121071Y-20454872D01*
X11106786Y-20483443D01*
X11092500Y-20497729D01*
X11063929Y-20512014D01*
X11035357Y-20512014D01*
X11006786Y-20497729D01*
X10992500Y-20483443D01*
X10978214Y-20454872D01*
X10963929Y-20397729D01*
X10963929Y-20326300D01*
X10978214Y-20269157D01*
X10992500Y-20240586D01*
X11006786Y-20226300D01*
X11035357Y-20212014D01*
X11263928Y-20512014D02*
X11263928Y-20312014D01*
X11263928Y-20340586D02*
X11278214Y-20326300D01*
X11306786Y-20312014D01*
X11349643Y-20312014D01*
X11378214Y-20326300D01*
X11392500Y-20354872D01*
X11392500Y-20512014D01*
X11392500Y-20354872D02*
X11406786Y-20326300D01*
X11435357Y-20312014D01*
X11478214Y-20312014D01*
X11506786Y-20326300D01*
X11521071Y-20354872D01*
X11521071Y-20512014D01*
X11663928Y-20512014D02*
X11663928Y-20312014D01*
X11663928Y-20340586D02*
X11678214Y-20326300D01*
X11706786Y-20312014D01*
X11749643Y-20312014D01*
X11778214Y-20326300D01*
X11792500Y-20354872D01*
X11792500Y-20512014D01*
X11792500Y-20354872D02*
X11806786Y-20326300D01*
X11835357Y-20312014D01*
X11878214Y-20312014D01*
X11906786Y-20326300D01*
X11921071Y-20354872D01*
X11921071Y-20512014D01*
X12506786Y-20197729D02*
X12249643Y-20583443D01*
X12892500Y-20212014D02*
X12921071Y-20212014D01*
X12949643Y-20226300D01*
X12963928Y-20240586D01*
X12978214Y-20269157D01*
X12992500Y-20326300D01*
X12992500Y-20397729D01*
X12978214Y-20454872D01*
X12963928Y-20483443D01*
X12949643Y-20497729D01*
X12921071Y-20512014D01*
X12892500Y-20512014D01*
X12863928Y-20497729D01*
X12849643Y-20483443D01*
X12835357Y-20454872D01*
X12821071Y-20397729D01*
X12821071Y-20326300D01*
X12835357Y-20269157D01*
X12849643Y-20240586D01*
X12863928Y-20226300D01*
X12892500Y-20212014D01*
X13121071Y-20483443D02*
X13135357Y-20497729D01*
X13121071Y-20512014D01*
X13106786Y-20497729D01*
X13121071Y-20483443D01*
X13121071Y-20512014D01*
X13421071Y-20512014D02*
X13249643Y-20512014D01*
X13335357Y-20512014D02*
X13335357Y-20212014D01*
X13306785Y-20254872D01*
X13278214Y-20283443D01*
X13249643Y-20297729D01*
X13692500Y-20212014D02*
X13549643Y-20212014D01*
X13535357Y-20354872D01*
X13549643Y-20340586D01*
X13578214Y-20326300D01*
X13649643Y-20326300D01*
X13678214Y-20340586D01*
X13692500Y-20354872D01*
X13706785Y-20383443D01*
X13706785Y-20454872D01*
X13692500Y-20483443D01*
X13678214Y-20497729D01*
X13649643Y-20512014D01*
X13578214Y-20512014D01*
X13549643Y-20497729D01*
X13535357Y-20483443D01*
X13892500Y-20212014D02*
X13921071Y-20212014D01*
X13949643Y-20226300D01*
X13963928Y-20240586D01*
X13978214Y-20269157D01*
X13992500Y-20326300D01*
X13992500Y-20397729D01*
X13978214Y-20454872D01*
X13963928Y-20483443D01*
X13949643Y-20497729D01*
X13921071Y-20512014D01*
X13892500Y-20512014D01*
X13863928Y-20497729D01*
X13849643Y-20483443D01*
X13835357Y-20454872D01*
X13821071Y-20397729D01*
X13821071Y-20326300D01*
X13835357Y-20269157D01*
X13849643Y-20240586D01*
X13863928Y-20226300D01*
X13892500Y-20212014D01*
X14106786Y-20212014D02*
X14106786Y-20269157D01*
X14221071Y-20212014D02*
X14221071Y-20269157D01*
X14663928Y-20626300D02*
X14649643Y-20612014D01*
X14621071Y-20569157D01*
X14606785Y-20540586D01*
X14592500Y-20497729D01*
X14578214Y-20426300D01*
X14578214Y-20369157D01*
X14592500Y-20297729D01*
X14606785Y-20254872D01*
X14621071Y-20226300D01*
X14649643Y-20183443D01*
X14663928Y-20169157D01*
X14935357Y-20512014D02*
X14763928Y-20512014D01*
X14849643Y-20512014D02*
X14849643Y-20212014D01*
X14821071Y-20254872D01*
X14792500Y-20283443D01*
X14763928Y-20297729D01*
X15292500Y-20512014D02*
X15292500Y-20212014D01*
X15421071Y-20512014D02*
X15421071Y-20354872D01*
X15406785Y-20326300D01*
X15378214Y-20312014D01*
X15335357Y-20312014D01*
X15306785Y-20326300D01*
X15292500Y-20340586D01*
X15606785Y-20512014D02*
X15578214Y-20497729D01*
X15563928Y-20483443D01*
X15549643Y-20454872D01*
X15549643Y-20369157D01*
X15563928Y-20340586D01*
X15578214Y-20326300D01*
X15606785Y-20312014D01*
X15649643Y-20312014D01*
X15678214Y-20326300D01*
X15692500Y-20340586D01*
X15706785Y-20369157D01*
X15706785Y-20454872D01*
X15692500Y-20483443D01*
X15678214Y-20497729D01*
X15649643Y-20512014D01*
X15606785Y-20512014D01*
X15878214Y-20512014D02*
X15849643Y-20497729D01*
X15835357Y-20469157D01*
X15835357Y-20212014D01*
X16106786Y-20497729D02*
X16078214Y-20512014D01*
X16021071Y-20512014D01*
X15992500Y-20497729D01*
X15978214Y-20469157D01*
X15978214Y-20354872D01*
X15992500Y-20326300D01*
X16021071Y-20312014D01*
X16078214Y-20312014D01*
X16106786Y-20326300D01*
X16121071Y-20354872D01*
X16121071Y-20383443D01*
X15978214Y-20412014D01*
X16221071Y-20626300D02*
X16235357Y-20612014D01*
X16263928Y-20569157D01*
X16278214Y-20540586D01*
X16292500Y-20497729D01*
X16306786Y-20426300D01*
X16306786Y-20369157D01*
X16292500Y-20297729D01*
X16278214Y-20254872D01*
X16263928Y-20226300D01*
X16235357Y-20183443D01*
X16221071Y-20169157D01*
M02*
