G04 #@! TF.FileFunction,Copper,L1,Top,Signal*
%FSLAX46Y46*%
G04 Gerber Fmt 4.6, Leading zero omitted, Abs format (unit mm)*
G04 Created by KiCad (PCBNEW 4.0.5) date Thu Feb 16 16:16:09 2017*
%MOMM*%
%LPD*%
G01*
G04 APERTURE LIST*
%ADD10C,0.100000*%
%ADD11R,1.750000X1.750000*%
%ADD12C,1.750000*%
%ADD13C,0.600000*%
%ADD14O,1.699260X3.500120*%
%ADD15R,10.000000X15.750000*%
%ADD16C,1.524000*%
%ADD17C,3.000000*%
%ADD18R,3.600000X1.800000*%
%ADD19O,3.600000X1.800000*%
%ADD20C,1.998980*%
%ADD21R,1.998980X1.998980*%
%ADD22R,1.198880X1.198880*%
%ADD23R,2.032000X1.727200*%
%ADD24O,2.032000X1.727200*%
%ADD25R,1.500000X1.300000*%
%ADD26R,1.300000X1.500000*%
%ADD27R,1.800000X3.600000*%
%ADD28O,1.800000X3.600000*%
%ADD29C,4.064000*%
%ADD30R,0.600000X1.550000*%
%ADD31C,0.750000*%
%ADD32R,1.250000X1.500000*%
%ADD33R,0.910000X1.220000*%
%ADD34R,1.220000X0.910000*%
%ADD35R,1.727200X2.032000*%
%ADD36O,1.727200X2.032000*%
%ADD37R,1.600000X2.000000*%
%ADD38R,1.200000X0.600000*%
%ADD39R,0.600000X1.200000*%
%ADD40C,1.500000*%
%ADD41C,0.500000*%
%ADD42C,0.250000*%
%ADD43C,0.350000*%
%ADD44C,0.300000*%
G04 APERTURE END LIST*
D10*
D11*
X125050000Y-95175000D03*
D12*
X122550000Y-95175000D03*
X120050000Y-95175000D03*
X117550000Y-95175000D03*
D13*
X115000000Y-95000000D03*
X110000000Y-95000000D03*
X145000000Y-90000000D03*
X140000000Y-90000000D03*
X125000000Y-90000000D03*
X115000000Y-90000000D03*
X115000000Y-85000000D03*
X140000000Y-80000000D03*
X125000000Y-80000000D03*
X110000000Y-80000000D03*
X140000000Y-75000000D03*
X110000000Y-75000000D03*
X125000000Y-70000000D03*
X120000000Y-70000000D03*
X115000000Y-70000000D03*
X145000000Y-65000000D03*
X125000000Y-65000000D03*
X120000000Y-65000000D03*
X115000000Y-65000000D03*
X130000000Y-60000000D03*
X125000000Y-60000000D03*
X130000000Y-55000000D03*
X110000000Y-55000000D03*
D14*
X132550000Y-69636000D03*
X135090000Y-69636000D03*
X130010000Y-69636000D03*
D15*
X132550000Y-81550000D03*
D16*
X135550000Y-83136000D03*
X135550000Y-81136000D03*
X135550000Y-79136000D03*
X135550000Y-77136000D03*
X135550000Y-75136000D03*
X133550000Y-77136000D03*
X133550000Y-75136000D03*
X133550000Y-79136000D03*
X133550000Y-81136000D03*
X133550000Y-83136000D03*
X131550000Y-75136000D03*
X129550000Y-79136000D03*
X131550000Y-79136000D03*
X131550000Y-77136000D03*
X129550000Y-75136000D03*
X129550000Y-77136000D03*
X129550000Y-81136000D03*
X131550000Y-83136000D03*
X131550000Y-81136000D03*
X129550000Y-83136000D03*
X135550000Y-85136000D03*
X135550000Y-87636000D03*
X129550000Y-85136000D03*
X129550000Y-87636000D03*
D17*
X119250000Y-84750000D03*
X119250000Y-62250000D03*
D18*
X144000000Y-87000000D03*
D19*
X144000000Y-83500000D03*
D11*
X139775000Y-95175000D03*
D12*
X137275000Y-95175000D03*
X134775000Y-95175000D03*
X132275000Y-95175000D03*
D11*
X105200000Y-90000000D03*
D12*
X105200000Y-87500000D03*
X105200000Y-85000000D03*
X105200000Y-82500000D03*
X105200000Y-80000000D03*
D20*
X112007620Y-79910000D03*
D21*
X112007620Y-69750000D03*
D22*
X143450980Y-79150000D03*
X145549020Y-79150000D03*
X143401960Y-63000000D03*
X145500000Y-63000000D03*
D23*
X112000000Y-94620000D03*
D24*
X112000000Y-92080000D03*
X112000000Y-89540000D03*
X112000000Y-87000000D03*
X112000000Y-84460000D03*
D25*
X141900000Y-76750000D03*
X144600000Y-76750000D03*
X141900000Y-60500000D03*
X144600000Y-60500000D03*
D16*
X130790000Y-62000000D03*
X128250000Y-62000000D03*
X133330000Y-62000000D03*
D26*
X138500000Y-71350000D03*
X138500000Y-68650000D03*
D18*
X106000000Y-60000000D03*
D19*
X106000000Y-63500000D03*
D18*
X106000000Y-70000000D03*
D19*
X106000000Y-73500000D03*
D27*
X126000000Y-56000000D03*
D28*
X122500000Y-56000000D03*
X119000000Y-56000000D03*
X115500000Y-56000000D03*
D27*
X139250000Y-56000000D03*
D28*
X135750000Y-56000000D03*
D18*
X144000000Y-71000000D03*
D19*
X144000000Y-67500000D03*
D29*
X104000000Y-96000000D03*
X104000000Y-54000000D03*
X146000000Y-96000000D03*
X146000000Y-54000000D03*
D13*
X130004000Y-112640000D03*
X135004000Y-107640000D03*
X127504000Y-110140000D03*
X132504000Y-110140000D03*
X130004000Y-110140000D03*
X135004000Y-112640000D03*
X135004000Y-110140000D03*
X135004000Y-115140000D03*
X142504000Y-118640000D03*
X135004000Y-120940000D03*
X142504000Y-112640000D03*
X131254000Y-129640000D03*
X137504000Y-127640000D03*
X140004000Y-127640000D03*
X140004000Y-130140000D03*
X142504000Y-130140000D03*
X142504000Y-127640000D03*
X125004000Y-135140000D03*
X127504000Y-135140000D03*
X120004000Y-132640000D03*
X125004000Y-132640000D03*
X127504000Y-132640000D03*
X130004000Y-132640000D03*
X132504000Y-132640000D03*
X135004000Y-127640000D03*
X132504000Y-127640000D03*
X137504000Y-122640000D03*
X140004000Y-125140000D03*
X142504000Y-122640000D03*
X140004000Y-122640000D03*
X133004000Y-122640000D03*
X140004000Y-132640000D03*
X135004000Y-135140000D03*
D30*
X138909000Y-125940000D03*
X137639000Y-125940000D03*
X136369000Y-125940000D03*
X135099000Y-125940000D03*
X135099000Y-131340000D03*
X136369000Y-131340000D03*
X137639000Y-131340000D03*
X138909000Y-131340000D03*
D31*
X125404000Y-118940000D03*
X128804000Y-118940000D03*
X123504000Y-131140000D03*
X122504000Y-131140000D03*
D13*
X106504000Y-116140000D03*
X106504000Y-113640000D03*
X109004000Y-116140000D03*
X109004000Y-113640000D03*
X131004000Y-121140000D03*
X126004000Y-127140000D03*
X128004000Y-116140000D03*
X115504000Y-116140000D03*
X115504000Y-113640000D03*
X132504000Y-107640000D03*
X142504000Y-147640000D03*
X140004000Y-147640000D03*
X137504000Y-147640000D03*
X135004000Y-147640000D03*
X132504000Y-147640000D03*
X130004000Y-147640000D03*
X127504000Y-147640000D03*
X125004000Y-147640000D03*
X122504000Y-147640000D03*
X120004000Y-147640000D03*
X117504000Y-147640000D03*
X115004000Y-147640000D03*
X112504000Y-147640000D03*
X110004000Y-147640000D03*
X107504000Y-147640000D03*
X142504000Y-145140000D03*
X130004000Y-145140000D03*
X127504000Y-145140000D03*
X125004000Y-145140000D03*
X117504000Y-145140000D03*
X115004000Y-145140000D03*
X107504000Y-145140000D03*
X147504000Y-142640000D03*
X145004000Y-142640000D03*
X142504000Y-142640000D03*
X130004000Y-142640000D03*
X127504000Y-142640000D03*
X125004000Y-142640000D03*
X120004000Y-142640000D03*
X117504000Y-142640000D03*
X115004000Y-142640000D03*
X112504000Y-142640000D03*
X110004000Y-142640000D03*
X107504000Y-142640000D03*
X105004000Y-142640000D03*
X102504000Y-142640000D03*
X147504000Y-140140000D03*
X145004000Y-140140000D03*
X142504000Y-140140000D03*
X130004000Y-140140000D03*
X125004000Y-140140000D03*
X120004000Y-140140000D03*
X107504000Y-140140000D03*
X105004000Y-140140000D03*
X102504000Y-140140000D03*
X147504000Y-137640000D03*
X145004000Y-137640000D03*
X142504000Y-137640000D03*
X107504000Y-137640000D03*
X105004000Y-137640000D03*
X102504000Y-137640000D03*
X147504000Y-135140000D03*
X145004000Y-135140000D03*
X142504000Y-135140000D03*
X140004000Y-135140000D03*
X132504000Y-135140000D03*
X130004000Y-135140000D03*
X107504000Y-135140000D03*
X105004000Y-135140000D03*
X102504000Y-135140000D03*
X147504000Y-132640000D03*
X145004000Y-132640000D03*
X142504000Y-132640000D03*
X110004000Y-132640000D03*
X107504000Y-132640000D03*
X105004000Y-132640000D03*
X102504000Y-132640000D03*
X147504000Y-130140000D03*
X102504000Y-130140000D03*
X147504000Y-127640000D03*
X107504000Y-127640000D03*
X102504000Y-127640000D03*
X147504000Y-125140000D03*
X142504000Y-125140000D03*
X107504000Y-125140000D03*
X105004000Y-125140000D03*
X102504000Y-125140000D03*
X147504000Y-122640000D03*
X145004000Y-122640000D03*
X125004000Y-122640000D03*
X107504000Y-122640000D03*
X105004000Y-122640000D03*
X102504000Y-122640000D03*
X147504000Y-120140000D03*
X112504000Y-120140000D03*
X102504000Y-120140000D03*
X147504000Y-117640000D03*
X122504000Y-117640000D03*
X102504000Y-117640000D03*
X147504000Y-115140000D03*
X140004000Y-115140000D03*
X132504000Y-115140000D03*
X102504000Y-115140000D03*
X147504000Y-112640000D03*
X140004000Y-112640000D03*
X102504000Y-112640000D03*
X147504000Y-110140000D03*
X142504000Y-110140000D03*
X140004000Y-110140000D03*
X125004000Y-110140000D03*
X120004000Y-110140000D03*
X117504000Y-110140000D03*
X115004000Y-110140000D03*
X112504000Y-110140000D03*
X110004000Y-110140000D03*
X107504000Y-110140000D03*
X102504000Y-110140000D03*
X147504000Y-107640000D03*
X145004000Y-107640000D03*
X142504000Y-107640000D03*
X140004000Y-107640000D03*
X127504000Y-107640000D03*
X125004000Y-107640000D03*
X122504000Y-107640000D03*
X117504000Y-107640000D03*
X115004000Y-107640000D03*
X112504000Y-107640000D03*
X110004000Y-107640000D03*
X107504000Y-107640000D03*
X105004000Y-107640000D03*
X102504000Y-107640000D03*
X142504000Y-105140000D03*
X140004000Y-105140000D03*
X135004000Y-105140000D03*
X125004000Y-105140000D03*
X122504000Y-105140000D03*
X112504000Y-105140000D03*
X110004000Y-105140000D03*
X107504000Y-105140000D03*
X142504000Y-102640000D03*
X140004000Y-102640000D03*
X137504000Y-102640000D03*
X135004000Y-102640000D03*
X132504000Y-102640000D03*
X130004000Y-102640000D03*
X127504000Y-102640000D03*
X125004000Y-102640000D03*
X122504000Y-102640000D03*
X120004000Y-102640000D03*
X117504000Y-102640000D03*
X115004000Y-102640000D03*
X112504000Y-102640000D03*
X110004000Y-102640000D03*
X107504000Y-102640000D03*
D29*
X146004000Y-104140000D03*
X104004000Y-104140000D03*
X104004000Y-146140000D03*
X146004000Y-146140000D03*
D11*
X139664000Y-136920000D03*
D12*
X137164000Y-136920000D03*
X134664000Y-136920000D03*
X132164000Y-136920000D03*
D32*
X129664000Y-117170000D03*
X129664000Y-114670000D03*
D33*
X117179000Y-112420000D03*
X120449000Y-112420000D03*
X117194000Y-114920000D03*
X120464000Y-114920000D03*
D34*
X113514000Y-119285000D03*
X113514000Y-122555000D03*
D22*
X112713020Y-140920000D03*
X110614980Y-140920000D03*
X112664000Y-134920000D03*
X110565960Y-134920000D03*
X112664000Y-137920000D03*
X110565960Y-137920000D03*
D11*
X105164000Y-119920000D03*
D12*
X105164000Y-117420000D03*
X105164000Y-114920000D03*
X105164000Y-112420000D03*
X105164000Y-109920000D03*
D23*
X105164000Y-125380000D03*
D24*
X105164000Y-127920000D03*
X105164000Y-130460000D03*
D11*
X144664000Y-109920000D03*
D12*
X144664000Y-112420000D03*
X144664000Y-114920000D03*
X144664000Y-117420000D03*
X144664000Y-119920000D03*
D23*
X144664000Y-125380000D03*
D24*
X144664000Y-127920000D03*
X144664000Y-130460000D03*
D23*
X137664000Y-105380000D03*
D24*
X137664000Y-107920000D03*
X137664000Y-110460000D03*
X137664000Y-113000000D03*
X137664000Y-115540000D03*
X137664000Y-118080000D03*
D11*
X139664000Y-144920000D03*
D12*
X137164000Y-144920000D03*
X134664000Y-144920000D03*
X132164000Y-144920000D03*
D35*
X114124000Y-105420000D03*
D36*
X116664000Y-105420000D03*
X119204000Y-105420000D03*
D35*
X126624000Y-105420000D03*
D36*
X129164000Y-105420000D03*
X131704000Y-105420000D03*
D25*
X113514000Y-112420000D03*
X110814000Y-112420000D03*
X113514000Y-114920000D03*
X110814000Y-114920000D03*
X113514000Y-117420000D03*
X110814000Y-117420000D03*
X118014000Y-140920000D03*
X115314000Y-140920000D03*
X118014000Y-134920000D03*
X115314000Y-134920000D03*
X118014000Y-137920000D03*
X115314000Y-137920000D03*
D37*
X132664000Y-113220000D03*
X132664000Y-118620000D03*
D38*
X120754000Y-122340000D03*
X120754000Y-123140000D03*
X120754000Y-123940000D03*
X120754000Y-124740000D03*
X120754000Y-125540000D03*
X120754000Y-126340000D03*
X120754000Y-127140000D03*
X120754000Y-127940000D03*
D39*
X122204000Y-129390000D03*
X123004000Y-129390000D03*
X123804000Y-129390000D03*
X124604000Y-129390000D03*
X125404000Y-129390000D03*
X126204000Y-129390000D03*
X127004000Y-129390000D03*
X127804000Y-129390000D03*
D38*
X129254000Y-127940000D03*
X129254000Y-127140000D03*
X129254000Y-126340000D03*
X129254000Y-125540000D03*
X129254000Y-124740000D03*
X129254000Y-123940000D03*
X129254000Y-123140000D03*
X129254000Y-122340000D03*
D39*
X127804000Y-120890000D03*
X127004000Y-120890000D03*
X126204000Y-120890000D03*
X125404000Y-120890000D03*
X124604000Y-120890000D03*
X123804000Y-120890000D03*
X123004000Y-120890000D03*
X122204000Y-120890000D03*
D31*
X121504000Y-131140000D03*
D13*
X116020678Y-126478172D03*
X127512008Y-125145888D03*
X127514000Y-128095000D03*
X122264000Y-122120000D03*
X119536240Y-125566289D03*
X115534472Y-132627168D03*
X112504000Y-133140000D03*
X119520550Y-122262754D03*
X109664000Y-121420000D03*
X108664000Y-124720000D03*
X127864000Y-127120000D03*
X136373941Y-127431929D03*
X133664000Y-116420000D03*
X138894546Y-124480150D03*
X131003998Y-123913183D03*
X134037014Y-125919825D03*
X131004000Y-124782647D03*
X128015882Y-118067110D03*
X117512134Y-131871526D03*
X119526917Y-123862755D03*
X119029010Y-118389990D03*
X116488752Y-131908740D03*
X119514686Y-123062744D03*
D40*
X117550000Y-93937564D02*
X117550000Y-95175000D01*
X132275000Y-86675000D02*
X132275000Y-95175000D01*
X132550000Y-86400000D02*
X132275000Y-86675000D01*
X132550000Y-86400000D02*
X125087564Y-86400000D01*
X125087564Y-86400000D02*
X117550000Y-93937564D01*
D41*
X144000000Y-83500000D02*
X143100000Y-83500000D01*
X143100000Y-83500000D02*
X141900000Y-82300000D01*
X141900000Y-82300000D02*
X141900000Y-77900000D01*
X141900000Y-77900000D02*
X141900000Y-76750000D01*
D40*
X132550000Y-86400000D02*
X132550000Y-69636000D01*
X144000000Y-83500000D02*
X135450000Y-83500000D01*
X135450000Y-83500000D02*
X132550000Y-86400000D01*
D41*
X135876856Y-72436070D02*
X133100010Y-72436070D01*
X138500000Y-71350000D02*
X136962926Y-71350000D01*
X136962926Y-71350000D02*
X135876856Y-72436070D01*
X133100010Y-72436070D02*
X132550000Y-71886060D01*
X132550000Y-71886060D02*
X132550000Y-69636000D01*
X143000000Y-83500000D02*
X144000000Y-83500000D01*
X138500000Y-71350000D02*
X137350000Y-71350000D01*
D40*
X132164000Y-144920000D02*
X132164000Y-136920000D01*
D42*
X131664000Y-136420000D02*
X132164000Y-136920000D01*
X134664000Y-136920000D02*
X136369000Y-135215000D01*
X136369000Y-135215000D02*
X136369000Y-133809125D01*
X136369000Y-133809125D02*
X136369000Y-131340000D01*
D40*
X134664000Y-136920000D02*
X134664000Y-144920000D01*
D42*
X137164000Y-136920000D02*
X137164000Y-132840000D01*
X137164000Y-132840000D02*
X137639000Y-132365000D01*
X137639000Y-132365000D02*
X137639000Y-131340000D01*
D40*
X137164000Y-136920000D02*
X137164000Y-144920000D01*
X139775000Y-95175000D02*
X139775000Y-96042002D01*
X139775000Y-96042002D02*
X138367001Y-97450001D01*
X138367001Y-97450001D02*
X129700001Y-97450001D01*
X129700001Y-97450001D02*
X127425000Y-95175000D01*
X127425000Y-95175000D02*
X125050000Y-95175000D01*
X144000000Y-87000000D02*
X144000000Y-88392000D01*
X139775000Y-95175000D02*
X139775000Y-92617000D01*
X139775000Y-92617000D02*
X144000000Y-88392000D01*
X126000000Y-56000000D02*
X126000000Y-55000000D01*
X141119992Y-52649990D02*
X142567999Y-54097997D01*
X148450001Y-60159999D02*
X148450001Y-66500000D01*
X126000000Y-55000000D02*
X128350010Y-52649990D01*
X128350010Y-52649990D02*
X141119992Y-52649990D01*
X142567999Y-54097997D02*
X142567999Y-55647361D01*
X142567999Y-55647361D02*
X145370637Y-58449999D01*
X145370637Y-58449999D02*
X146740001Y-58449999D01*
X146740001Y-58449999D02*
X148450001Y-60159999D01*
D41*
X126000000Y-56000000D02*
X126000000Y-59750000D01*
X126000000Y-59750000D02*
X128250000Y-62000000D01*
X126000000Y-56000000D02*
X126000000Y-56900000D01*
D40*
X148500000Y-85800000D02*
X148500000Y-75600000D01*
X148450001Y-64000000D02*
X148450001Y-66500000D01*
X148450001Y-66500000D02*
X148450001Y-67449999D01*
X114250010Y-52649990D02*
X123549990Y-52649990D01*
X123549990Y-52649990D02*
X126000000Y-55100000D01*
X126000000Y-55100000D02*
X126000000Y-56000000D01*
X114250010Y-52649990D02*
X111000000Y-55900000D01*
X106000000Y-70000000D02*
X105100000Y-70000000D01*
X105100000Y-60000000D02*
X106000000Y-60000000D01*
X105100000Y-70000000D02*
X102649990Y-67549990D01*
X102649990Y-62450010D02*
X105100000Y-60000000D01*
X102649990Y-67549990D02*
X102649990Y-62450010D01*
X106900000Y-60000000D02*
X111000000Y-55900000D01*
X111000000Y-55900000D02*
X113000000Y-53900000D01*
X106000000Y-60000000D02*
X106900000Y-60000000D01*
D41*
X145500000Y-63000000D02*
X146599440Y-63000000D01*
X146599440Y-63000000D02*
X148450001Y-61149439D01*
X148450001Y-61149439D02*
X148450001Y-60600000D01*
D40*
X144900000Y-71000000D02*
X144000000Y-71000000D01*
X148450001Y-67449999D02*
X144900000Y-71000000D01*
D41*
X145549020Y-79150000D02*
X147150000Y-79150000D01*
X147150000Y-79150000D02*
X148500000Y-80500000D01*
D40*
X144900000Y-72000000D02*
X148500000Y-75600000D01*
X144000000Y-87000000D02*
X147300000Y-87000000D01*
X147300000Y-87000000D02*
X148500000Y-85800000D01*
D42*
X113514000Y-123971494D02*
X115720679Y-126178173D01*
X113514000Y-122555000D02*
X113514000Y-123971494D01*
X115720679Y-126178173D02*
X116020678Y-126478172D01*
X139664000Y-135440000D02*
X139664000Y-136920000D01*
X138904000Y-132370000D02*
X138904000Y-134680000D01*
X138904000Y-134680000D02*
X139664000Y-135440000D01*
X138909000Y-131340000D02*
X138909000Y-132365000D01*
X138909000Y-132365000D02*
X138904000Y-132370000D01*
X129704000Y-113240000D02*
X129664000Y-113280000D01*
X129664000Y-113280000D02*
X129664000Y-114670000D01*
X130969000Y-113240000D02*
X129704000Y-113240000D01*
X132664000Y-113220000D02*
X130989000Y-113220000D01*
X130989000Y-113220000D02*
X130969000Y-113240000D01*
X117391600Y-108840000D02*
X119291600Y-110740000D01*
X120449000Y-110985000D02*
X120204000Y-110740000D01*
X120204000Y-110740000D02*
X119291600Y-110740000D01*
X120449000Y-112420000D02*
X120449000Y-110985000D01*
X139664000Y-146045000D02*
X139604000Y-146105000D01*
X103414000Y-126340000D02*
X103414000Y-133920000D01*
X103404000Y-125440000D02*
X103414000Y-125450000D01*
X103414000Y-125450000D02*
X103414000Y-126340000D01*
X103464000Y-125380000D02*
X103404000Y-125440000D01*
X105164000Y-125380000D02*
X103464000Y-125380000D01*
X105164000Y-119920000D02*
X103524000Y-119920000D01*
X103524000Y-119920000D02*
X103404000Y-119800000D01*
X103404000Y-119800000D02*
X103404000Y-109680000D01*
X103404000Y-109680000D02*
X107664000Y-105420000D01*
X107664000Y-105420000D02*
X114124000Y-105420000D01*
X114124000Y-105420000D02*
X114124000Y-108060000D01*
X114124000Y-108060000D02*
X114904000Y-108840000D01*
X114904000Y-108840000D02*
X117391600Y-108840000D01*
X114124000Y-105420000D02*
X114124000Y-103460000D01*
X114124000Y-103460000D02*
X114144000Y-103440000D01*
X114144000Y-103440000D02*
X126504000Y-103440000D01*
X126504000Y-103440000D02*
X126624000Y-103560000D01*
X126624000Y-103560000D02*
X126624000Y-105420000D01*
X141704000Y-109920000D02*
X141704000Y-107440000D01*
X141704000Y-107440000D02*
X141704000Y-106840000D01*
X141704000Y-106040000D02*
X141704000Y-107440000D01*
X138704000Y-103040000D02*
X141704000Y-106040000D01*
X138604000Y-103040000D02*
X138704000Y-103040000D01*
X139404000Y-103840000D02*
X138704000Y-103140000D01*
X138704000Y-103140000D02*
X138604000Y-103040000D01*
X137664000Y-110460000D02*
X138930000Y-110460000D01*
X138604000Y-103040000D02*
X136304000Y-103040000D01*
X133604000Y-105740000D02*
X133604000Y-106975398D01*
X136304000Y-103040000D02*
X133604000Y-105740000D01*
X133604000Y-106975398D02*
X132664000Y-107915398D01*
X132664000Y-107915398D02*
X132664000Y-113220000D01*
X144664000Y-125380000D02*
X142964000Y-125380000D01*
X142964000Y-125380000D02*
X142504000Y-125840000D01*
X142504000Y-125840000D02*
X142604000Y-125740000D01*
X141404000Y-127740000D02*
X142504000Y-126640000D01*
X142504000Y-126640000D02*
X142504000Y-125840000D01*
X137874000Y-127740000D02*
X141404000Y-127740000D01*
X137639000Y-127505000D02*
X137874000Y-127740000D01*
X137639000Y-125940000D02*
X137639000Y-127505000D01*
X127804000Y-129390000D02*
X127804000Y-129690000D01*
X127214001Y-125443895D02*
X127512008Y-125145888D01*
X127214001Y-127795001D02*
X127214001Y-125443895D01*
X127514000Y-128095000D02*
X127214001Y-127795001D01*
X118404000Y-119340000D02*
X119954000Y-120890000D01*
X119954000Y-120890000D02*
X122204000Y-120890000D01*
X118404000Y-116275000D02*
X118404000Y-119340000D01*
X120464000Y-114920000D02*
X119759000Y-114920000D01*
X119759000Y-114920000D02*
X118404000Y-116275000D01*
X139664000Y-144920000D02*
X140789000Y-144920000D01*
X140789000Y-144920000D02*
X147164000Y-138545000D01*
X139664000Y-146045000D02*
X139664000Y-144920000D01*
D40*
X139664000Y-144920000D02*
X139664000Y-136920000D01*
D42*
X147164000Y-138545000D02*
X147164000Y-137602000D01*
X137947000Y-147762000D02*
X139664000Y-146045000D01*
X106289000Y-119920000D02*
X105164000Y-119920000D01*
X110019000Y-119920000D02*
X106289000Y-119920000D01*
X112654000Y-122555000D02*
X110019000Y-119920000D01*
X113514000Y-122555000D02*
X112654000Y-122555000D01*
X127804000Y-129390000D02*
X127804000Y-128385000D01*
X127804000Y-128385000D02*
X127514000Y-128095000D01*
X122264000Y-122120000D02*
X122264000Y-120950000D01*
X122264000Y-120950000D02*
X122204000Y-120890000D01*
X109284000Y-147762000D02*
X129858000Y-147762000D01*
X129858000Y-147762000D02*
X137947000Y-147762000D01*
X147164000Y-137602000D02*
X147164000Y-134920000D01*
X103414000Y-133920000D02*
X103414000Y-141892000D01*
X103414000Y-141892000D02*
X109284000Y-147762000D01*
X120449000Y-112420000D02*
X120449000Y-114905000D01*
X120449000Y-114905000D02*
X120464000Y-114920000D01*
X110565960Y-134920000D02*
X104414000Y-134920000D01*
X104414000Y-134920000D02*
X103414000Y-133920000D01*
X147164000Y-134920000D02*
X147164000Y-127727600D01*
X110565960Y-137920000D02*
X110565960Y-140870980D01*
X110565960Y-140870980D02*
X110614980Y-140920000D01*
X110565960Y-134920000D02*
X110565960Y-137920000D01*
X147164000Y-127727600D02*
X144816400Y-125380000D01*
X144816400Y-125380000D02*
X144664000Y-125380000D01*
X137664000Y-110460000D02*
X141164000Y-110460000D01*
X144664000Y-109920000D02*
X141704000Y-109920000D01*
X141704000Y-109920000D02*
X141164000Y-110460000D01*
X147414000Y-122782400D02*
X147414000Y-111545000D01*
X147414000Y-111545000D02*
X145789000Y-109920000D01*
X145789000Y-109920000D02*
X144664000Y-109920000D01*
X144816400Y-125380000D02*
X147414000Y-122782400D01*
X105164000Y-125380000D02*
X105164000Y-119920000D01*
D41*
X143450980Y-79150000D02*
X143450980Y-77899020D01*
X143450980Y-77899020D02*
X144600000Y-76750000D01*
X143401960Y-63000000D02*
X143401960Y-61698040D01*
X143401960Y-61698040D02*
X144600000Y-60500000D01*
D40*
X119250000Y-62250000D02*
X122500000Y-59000000D01*
X122500000Y-59000000D02*
X122500000Y-56000000D01*
D41*
X105200000Y-90000000D02*
X107227600Y-90000000D01*
X107227600Y-90000000D02*
X111847600Y-94620000D01*
X111847600Y-94620000D02*
X112000000Y-94620000D01*
X112000000Y-92080000D02*
X111847600Y-92080000D01*
X106437436Y-87500000D02*
X105200000Y-87500000D01*
X111847600Y-92080000D02*
X107267600Y-87500000D01*
X107267600Y-87500000D02*
X106437436Y-87500000D01*
X106437436Y-85000000D02*
X105200000Y-85000000D01*
X112000000Y-89540000D02*
X111847600Y-89540000D01*
X111847600Y-89540000D02*
X107307600Y-85000000D01*
X107307600Y-85000000D02*
X106437436Y-85000000D01*
X111847600Y-87000000D02*
X107497610Y-82650010D01*
X107497610Y-82650010D02*
X105200000Y-82650010D01*
X112000000Y-87000000D02*
X111847600Y-87000000D01*
X106437436Y-80000000D02*
X105200000Y-80000000D01*
X112000000Y-84460000D02*
X111847600Y-84460000D01*
X111847600Y-84460000D02*
X107387600Y-80000000D01*
X107387600Y-80000000D02*
X106437436Y-80000000D01*
D40*
X106000000Y-63500000D02*
X108000000Y-63500000D01*
X108000000Y-63500000D02*
X115500000Y-56000000D01*
X119000000Y-56000000D02*
X119000000Y-56900000D01*
X119000000Y-56900000D02*
X109458129Y-66441871D01*
X109458129Y-66441871D02*
X109458129Y-72041871D01*
X108000000Y-73500000D02*
X106000000Y-73500000D01*
X109458129Y-72041871D02*
X108000000Y-73500000D01*
D41*
X144000000Y-67500000D02*
X143100000Y-67500000D01*
X143100000Y-67500000D02*
X141900000Y-66300000D01*
X141900000Y-66300000D02*
X141900000Y-61650000D01*
X141900000Y-61650000D02*
X141900000Y-60500000D01*
X135090000Y-69636000D02*
X136076000Y-68650000D01*
X136076000Y-68650000D02*
X138500000Y-68650000D01*
D40*
X130010000Y-69636000D02*
X130010000Y-67500000D01*
X130010000Y-67500000D02*
X130010000Y-66385940D01*
X112007620Y-79910000D02*
X118794998Y-79910000D01*
X118794998Y-79910000D02*
X130010000Y-68694998D01*
X130010000Y-68694998D02*
X130010000Y-67500000D01*
X118794998Y-79910000D02*
X126954998Y-71750000D01*
X118794998Y-79910000D02*
X129068998Y-69636000D01*
X129068998Y-69636000D02*
X130010000Y-69636000D01*
X135750000Y-56000000D02*
X135750000Y-63001762D01*
X135750000Y-63001762D02*
X134439761Y-64312001D01*
X130010000Y-66385940D02*
X132083939Y-64312001D01*
X134439761Y-64312001D02*
X135642001Y-63109761D01*
X132083939Y-64312001D02*
X134439761Y-64312001D01*
D42*
X119562529Y-125540000D02*
X119536240Y-125566289D01*
X120754000Y-125540000D02*
X119562529Y-125540000D01*
X118014000Y-140020000D02*
X124294000Y-133740000D01*
X124294000Y-133740000D02*
X133999000Y-133740000D01*
X133999000Y-133740000D02*
X135099000Y-132640000D01*
X135099000Y-132640000D02*
X135099000Y-131340000D01*
X118014000Y-140920000D02*
X118014000Y-140020000D01*
X115834471Y-132927167D02*
X115534472Y-132627168D01*
X112504000Y-133140000D02*
X113016832Y-132627168D01*
X115110208Y-132627168D02*
X115534472Y-132627168D01*
X116864000Y-138870000D02*
X116864000Y-133956696D01*
X113016832Y-132627168D02*
X115110208Y-132627168D01*
X116864000Y-133956696D02*
X115834471Y-132927167D01*
X118014000Y-140020000D02*
X116864000Y-138870000D01*
X120754000Y-122340000D02*
X119597796Y-122340000D01*
X119597796Y-122340000D02*
X119520550Y-122262754D01*
X108664000Y-124720000D02*
X108664000Y-122420000D01*
X108664000Y-122420000D02*
X109664000Y-121420000D01*
X127864000Y-127120000D02*
X128684000Y-127940000D01*
X128684000Y-127940000D02*
X129254000Y-127940000D01*
X136369000Y-127426988D02*
X136373941Y-127431929D01*
X136369000Y-125940000D02*
X136369000Y-127426988D01*
X125488999Y-124745001D02*
X131614000Y-118620000D01*
X120754000Y-124740000D02*
X121604000Y-124740000D01*
X121609001Y-124745001D02*
X125488999Y-124745001D01*
X121604000Y-124740000D02*
X121609001Y-124745001D01*
X131614000Y-118620000D02*
X132664000Y-118620000D01*
X133664000Y-116420000D02*
X132664000Y-117420000D01*
X132664000Y-117420000D02*
X132664000Y-118620000D01*
X129664000Y-117170000D02*
X131414000Y-117170000D01*
X131414000Y-117170000D02*
X132664000Y-118420000D01*
X132664000Y-118420000D02*
X132664000Y-118620000D01*
X118499889Y-124220000D02*
X118911230Y-124631341D01*
X118911230Y-124631341D02*
X118911230Y-125976945D01*
X119274285Y-126340000D02*
X120754000Y-126340000D01*
X118911230Y-125976945D02*
X119274285Y-126340000D01*
X117753991Y-116030009D02*
X117753991Y-123474102D01*
X118064000Y-115720000D02*
X117753991Y-116030009D01*
X118064000Y-114165000D02*
X118064000Y-115720000D01*
X117753991Y-123474102D02*
X118499889Y-124220000D01*
X117179000Y-113280000D02*
X118064000Y-114165000D01*
X117179000Y-112420000D02*
X117179000Y-113280000D01*
X118499889Y-124220000D02*
X118499888Y-124220000D01*
X113514000Y-112420000D02*
X117179000Y-112420000D01*
X118461219Y-124817741D02*
X118461219Y-126456183D01*
X117194000Y-123550522D02*
X118461219Y-124817741D01*
X117194000Y-114920000D02*
X117194000Y-123550522D01*
X119145036Y-127140000D02*
X119904000Y-127140000D01*
X118461219Y-126456183D02*
X119145036Y-127140000D01*
X119904000Y-127140000D02*
X120754000Y-127140000D01*
X113514000Y-114920000D02*
X117194000Y-114920000D01*
X116664000Y-118720000D02*
X115364000Y-117420000D01*
X118011208Y-125067208D02*
X116664000Y-123720000D01*
X120754000Y-127940000D02*
X119258996Y-127940000D01*
X118011208Y-126692212D02*
X118011208Y-125067208D01*
X119258996Y-127940000D02*
X118011208Y-126692212D01*
X116664000Y-123720000D02*
X116664000Y-118720000D01*
X115364000Y-117420000D02*
X113514000Y-117420000D01*
X113514000Y-119285000D02*
X113514000Y-117420000D01*
X115314000Y-137920000D02*
X112664000Y-137920000D01*
X138909000Y-124494604D02*
X138894546Y-124480150D01*
X138909000Y-125940000D02*
X138909000Y-124494604D01*
X130977181Y-123940000D02*
X131003998Y-123913183D01*
X129254000Y-123940000D02*
X130977181Y-123940000D01*
X135099000Y-125940000D02*
X134057189Y-125940000D01*
X134057189Y-125940000D02*
X134037014Y-125919825D01*
X130961353Y-124740000D02*
X131004000Y-124782647D01*
X129254000Y-124740000D02*
X130961353Y-124740000D01*
X110814000Y-112420000D02*
X105164000Y-112420000D01*
X105164000Y-114920000D02*
X110814000Y-114920000D01*
X105164000Y-117420000D02*
X110814000Y-117420000D01*
X129254000Y-122340000D02*
X131254811Y-122340000D01*
X131254811Y-122340000D02*
X134304000Y-119290811D01*
X134304000Y-119290811D02*
X134304000Y-109540000D01*
X134304000Y-109540000D02*
X135924000Y-107920000D01*
X135924000Y-107920000D02*
X137664000Y-107920000D01*
X129254000Y-123140000D02*
X131091222Y-123140000D01*
X131091222Y-123140000D02*
X136322990Y-117908232D01*
X136322990Y-117908232D02*
X136322990Y-114188610D01*
X136322990Y-114188610D02*
X137511600Y-113000000D01*
X137511600Y-113000000D02*
X137664000Y-113000000D01*
X127004000Y-120890000D02*
X127004000Y-112730000D01*
X127004000Y-112730000D02*
X129004000Y-110730000D01*
X129004000Y-110730000D02*
X129004000Y-109640000D01*
X129004000Y-109640000D02*
X131704000Y-106940000D01*
X131704000Y-106940000D02*
X131704000Y-105420000D01*
X127715883Y-118367109D02*
X128015882Y-118067110D01*
X127004000Y-119078992D02*
X127715883Y-118367109D01*
X127004000Y-120890000D02*
X127004000Y-119078992D01*
X105164000Y-130460000D02*
X106824000Y-130460000D01*
X106824000Y-130460000D02*
X107564000Y-129720000D01*
X107564000Y-129720000D02*
X118584000Y-129720000D01*
X118584000Y-129720000D02*
X121004000Y-132140000D01*
X121004000Y-132140000D02*
X124004000Y-132140000D01*
X124004000Y-132140000D02*
X124604000Y-131540000D01*
X124604000Y-131540000D02*
X124604000Y-129390000D01*
X125404000Y-129390000D02*
X125404000Y-128540000D01*
X125404000Y-128540000D02*
X124934000Y-128070000D01*
X107630000Y-129120000D02*
X106430000Y-127920000D01*
X124934000Y-128070000D02*
X122038998Y-128070000D01*
X122038998Y-128070000D02*
X121288998Y-128820000D01*
X121288998Y-128820000D02*
X121264000Y-128820000D01*
X121264000Y-128820000D02*
X120964000Y-129120000D01*
X120964000Y-129120000D02*
X107630000Y-129120000D01*
X106430000Y-127920000D02*
X105164000Y-127920000D01*
X144664000Y-117420000D02*
X141524000Y-117420000D01*
X141524000Y-117420000D02*
X131804000Y-127140000D01*
X131804000Y-127140000D02*
X129254000Y-127140000D01*
X143789001Y-115794999D02*
X144664000Y-114920000D01*
X142793989Y-116790011D02*
X143789001Y-115794999D01*
X141517579Y-116790011D02*
X142793989Y-116790011D01*
X131967590Y-126340000D02*
X141517579Y-116790011D01*
X129254000Y-126340000D02*
X131967590Y-126340000D01*
X132037348Y-125540000D02*
X129254000Y-125540000D01*
X141237348Y-116340000D02*
X132037348Y-125540000D01*
X144664000Y-112420000D02*
X141237348Y-115846652D01*
X141237348Y-115846652D02*
X141237348Y-116340000D01*
X129254000Y-125540000D02*
X131608011Y-125540000D01*
X126204000Y-129390000D02*
X126204000Y-130240000D01*
X127304000Y-131340000D02*
X131754000Y-131340000D01*
X126204000Y-130240000D02*
X127304000Y-131340000D01*
X131754000Y-131340000D02*
X133954000Y-129140000D01*
X133954000Y-129140000D02*
X143304000Y-129140000D01*
X144624000Y-130460000D02*
X144664000Y-130460000D01*
X143304000Y-129140000D02*
X144624000Y-130460000D01*
X144664000Y-130460000D02*
X144664000Y-130300000D01*
X144664000Y-127920000D02*
X144224000Y-127920000D01*
X127504000Y-130740000D02*
X127004000Y-130240000D01*
X144224000Y-127920000D02*
X143454011Y-128689989D01*
X133767600Y-128689989D02*
X131717590Y-130740000D01*
X143454011Y-128689989D02*
X133767600Y-128689989D01*
X131717590Y-130740000D02*
X127504000Y-130740000D01*
X127004000Y-130240000D02*
X127004000Y-129390000D01*
X129164000Y-105420000D02*
X129164000Y-108440000D01*
X128304000Y-110530000D02*
X128304000Y-109300000D01*
X128304000Y-109300000D02*
X129164000Y-108440000D01*
X128304000Y-110530000D02*
X126204000Y-112630000D01*
X126204000Y-112630000D02*
X126204000Y-120890000D01*
X117812133Y-132171525D02*
X117512134Y-131871526D01*
X119089001Y-133448393D02*
X117812133Y-132171525D01*
X119089001Y-135944999D02*
X119089001Y-133448393D01*
X118014000Y-137020000D02*
X119089001Y-135944999D01*
X118014000Y-137920000D02*
X118014000Y-137020000D01*
X120754000Y-123940000D02*
X119604162Y-123940000D01*
X119604162Y-123940000D02*
X119526917Y-123862755D01*
X119453274Y-118389990D02*
X119029010Y-118389990D01*
X123004000Y-120040000D02*
X121353990Y-118389990D01*
X123004000Y-120890000D02*
X123004000Y-120040000D01*
X121353990Y-118389990D02*
X119453274Y-118389990D01*
X116788751Y-132208739D02*
X116488752Y-131908740D01*
X118014000Y-133433988D02*
X116788751Y-132208739D01*
X118014000Y-134920000D02*
X118014000Y-133433988D01*
X119591942Y-123140000D02*
X119514686Y-123062744D01*
X120754000Y-123140000D02*
X119591942Y-123140000D01*
X119204000Y-106686000D02*
X124604000Y-112086000D01*
X124604000Y-120890000D02*
X124604000Y-114570000D01*
X119204000Y-105420000D02*
X119204000Y-106686000D01*
X124604000Y-112086000D02*
X124604000Y-114570000D01*
X116664000Y-105420000D02*
X116664000Y-105572400D01*
X116664000Y-105572400D02*
X123804000Y-112712400D01*
X123804000Y-112712400D02*
X123804000Y-120040000D01*
X123804000Y-120040000D02*
X123804000Y-120890000D01*
X112713020Y-140920000D02*
X115314000Y-140920000D01*
X115314000Y-134920000D02*
X112664000Y-134920000D01*
X122204000Y-129390000D02*
X122204000Y-130440000D01*
X122204000Y-130440000D02*
X121504000Y-131140000D01*
X123004000Y-130640000D02*
X123004000Y-129390000D01*
X122504000Y-131140000D02*
X123004000Y-130640000D01*
X123804000Y-129390000D02*
X123804000Y-130840000D01*
X123804000Y-130840000D02*
X123504000Y-131140000D01*
X128804000Y-118940000D02*
X128804000Y-120440000D01*
X128804000Y-120440000D02*
X128354000Y-120890000D01*
X128354000Y-120890000D02*
X127804000Y-120890000D01*
X125404000Y-120890000D02*
X125404000Y-118940000D01*
D43*
G36*
X149242000Y-99242000D02*
X100758000Y-99242000D01*
X100758000Y-89125000D01*
X103483838Y-89125000D01*
X103483838Y-90875000D01*
X103541364Y-91180727D01*
X103722049Y-91461518D01*
X103997741Y-91649890D01*
X104325000Y-91716162D01*
X106075000Y-91716162D01*
X106380727Y-91658636D01*
X106661518Y-91477951D01*
X106849890Y-91202259D01*
X106859942Y-91152622D01*
X110142838Y-94435518D01*
X110142838Y-95483600D01*
X110200364Y-95789327D01*
X110381049Y-96070118D01*
X110656741Y-96258490D01*
X110984000Y-96324762D01*
X113016000Y-96324762D01*
X113321727Y-96267236D01*
X113602518Y-96086551D01*
X113790890Y-95810859D01*
X113857162Y-95483600D01*
X113857162Y-93756400D01*
X113799636Y-93450673D01*
X113618951Y-93169882D01*
X113504379Y-93091598D01*
X113748530Y-92726199D01*
X113877067Y-92080000D01*
X113748530Y-91433801D01*
X113382488Y-90885979D01*
X113268777Y-90810000D01*
X113382488Y-90734021D01*
X113748530Y-90186199D01*
X113877067Y-89540000D01*
X113748530Y-88893801D01*
X113382488Y-88345979D01*
X113268777Y-88270000D01*
X113382488Y-88194021D01*
X113748530Y-87646199D01*
X113877067Y-87000000D01*
X113748530Y-86353801D01*
X113382488Y-85805979D01*
X113268777Y-85730000D01*
X113382488Y-85654021D01*
X113678877Y-85210442D01*
X116924598Y-85210442D01*
X117277812Y-86065286D01*
X117931274Y-86719889D01*
X118785500Y-87074595D01*
X119710442Y-87075402D01*
X120565286Y-86722188D01*
X121219889Y-86068726D01*
X121574595Y-85214500D01*
X121575402Y-84289558D01*
X121222188Y-83434714D01*
X120568726Y-82780111D01*
X119714500Y-82425405D01*
X118789558Y-82424598D01*
X117934714Y-82777812D01*
X117280111Y-83431274D01*
X116925405Y-84285500D01*
X116924598Y-85210442D01*
X113678877Y-85210442D01*
X113748530Y-85106199D01*
X113877067Y-84460000D01*
X113748530Y-83813801D01*
X113382488Y-83265979D01*
X112834666Y-82899937D01*
X112188467Y-82771400D01*
X111811533Y-82771400D01*
X111701222Y-82793342D01*
X109179201Y-80271321D01*
X110182814Y-80271321D01*
X110459991Y-80942140D01*
X110972780Y-81455826D01*
X111643114Y-81734173D01*
X112368941Y-81734806D01*
X112973517Y-81485000D01*
X118794998Y-81485000D01*
X119397725Y-81365110D01*
X119908691Y-81023693D01*
X126708838Y-74223546D01*
X126708838Y-84825000D01*
X125087564Y-84825000D01*
X124484837Y-84944890D01*
X123973871Y-85286307D01*
X116436307Y-92823871D01*
X116094890Y-93334837D01*
X116094890Y-93334838D01*
X115975000Y-93937564D01*
X115975000Y-94535044D01*
X115850296Y-94835366D01*
X115849706Y-95511667D01*
X116107970Y-96136715D01*
X116585770Y-96615350D01*
X117210366Y-96874704D01*
X117886667Y-96875294D01*
X118511715Y-96617030D01*
X118900581Y-96228843D01*
X119166312Y-96495038D01*
X119738735Y-96732729D01*
X120358546Y-96733270D01*
X120931383Y-96496578D01*
X121300259Y-96128345D01*
X121666312Y-96495038D01*
X122238735Y-96732729D01*
X122858546Y-96733270D01*
X123431383Y-96496578D01*
X123565322Y-96362872D01*
X123595981Y-96436889D01*
X123788112Y-96629019D01*
X124039143Y-96733000D01*
X124800250Y-96733000D01*
X124971000Y-96562250D01*
X124971000Y-95254000D01*
X125129000Y-95254000D01*
X125129000Y-96562250D01*
X125299750Y-96733000D01*
X126060857Y-96733000D01*
X126311888Y-96629019D01*
X126504019Y-96436889D01*
X126608000Y-96185857D01*
X126608000Y-95424750D01*
X126437250Y-95254000D01*
X125129000Y-95254000D01*
X124971000Y-95254000D01*
X124951000Y-95254000D01*
X124951000Y-95096000D01*
X124971000Y-95096000D01*
X124971000Y-93787750D01*
X125129000Y-93787750D01*
X125129000Y-95096000D01*
X126437250Y-95096000D01*
X126608000Y-94925250D01*
X126608000Y-94164143D01*
X126504019Y-93913111D01*
X126311888Y-93720981D01*
X126060857Y-93617000D01*
X125299750Y-93617000D01*
X125129000Y-93787750D01*
X124971000Y-93787750D01*
X124800250Y-93617000D01*
X124039143Y-93617000D01*
X123788112Y-93720981D01*
X123595981Y-93913111D01*
X123565410Y-93986915D01*
X123433688Y-93854962D01*
X122861265Y-93617271D01*
X122241454Y-93616730D01*
X121668617Y-93853422D01*
X121299741Y-94221655D01*
X120933688Y-93854962D01*
X120361265Y-93617271D01*
X120097909Y-93617041D01*
X125739950Y-87975000D01*
X126708838Y-87975000D01*
X126708838Y-89425000D01*
X126766364Y-89730727D01*
X126947049Y-90011518D01*
X127222741Y-90199890D01*
X127550000Y-90266162D01*
X130700000Y-90266162D01*
X130700000Y-94535044D01*
X130575296Y-94835366D01*
X130574706Y-95511667D01*
X130832970Y-96136715D01*
X131310770Y-96615350D01*
X131935366Y-96874704D01*
X132611667Y-96875294D01*
X133236715Y-96617030D01*
X133625581Y-96228843D01*
X133891312Y-96495038D01*
X134463735Y-96732729D01*
X135083546Y-96733270D01*
X135656383Y-96496578D01*
X136025259Y-96128345D01*
X136391312Y-96495038D01*
X136963735Y-96732729D01*
X137583546Y-96733270D01*
X138156383Y-96496578D01*
X138290322Y-96362872D01*
X138320981Y-96436889D01*
X138513112Y-96629019D01*
X138764143Y-96733000D01*
X139525250Y-96733000D01*
X139696000Y-96562250D01*
X139696000Y-95254000D01*
X139854000Y-95254000D01*
X139854000Y-96562250D01*
X140024750Y-96733000D01*
X140785857Y-96733000D01*
X141036888Y-96629019D01*
X141229019Y-96436889D01*
X141333000Y-96185857D01*
X141333000Y-95424750D01*
X141162250Y-95254000D01*
X139854000Y-95254000D01*
X139696000Y-95254000D01*
X139676000Y-95254000D01*
X139676000Y-95096000D01*
X139696000Y-95096000D01*
X139696000Y-93787750D01*
X139854000Y-93787750D01*
X139854000Y-95096000D01*
X141162250Y-95096000D01*
X141333000Y-94925250D01*
X141333000Y-94164143D01*
X141229019Y-93913111D01*
X141036888Y-93720981D01*
X140785857Y-93617000D01*
X140024750Y-93617000D01*
X139854000Y-93787750D01*
X139696000Y-93787750D01*
X139525250Y-93617000D01*
X138764143Y-93617000D01*
X138513112Y-93720981D01*
X138320981Y-93913111D01*
X138290410Y-93986915D01*
X138158688Y-93854962D01*
X137586265Y-93617271D01*
X136966454Y-93616730D01*
X136393617Y-93853422D01*
X136024741Y-94221655D01*
X135658688Y-93854962D01*
X135086265Y-93617271D01*
X134466454Y-93616730D01*
X133893617Y-93853422D01*
X133850000Y-93896963D01*
X133850000Y-90266162D01*
X137550000Y-90266162D01*
X137855727Y-90208636D01*
X138136518Y-90027951D01*
X138324890Y-89752259D01*
X138391162Y-89425000D01*
X138391162Y-87249750D01*
X141517000Y-87249750D01*
X141517000Y-88035857D01*
X141620981Y-88286888D01*
X141813111Y-88479019D01*
X142064143Y-88583000D01*
X143750250Y-88583000D01*
X143921000Y-88412250D01*
X143921000Y-87079000D01*
X144079000Y-87079000D01*
X144079000Y-88412250D01*
X144249750Y-88583000D01*
X145935857Y-88583000D01*
X146186889Y-88479019D01*
X146379019Y-88286888D01*
X146483000Y-88035857D01*
X146483000Y-87249750D01*
X146312250Y-87079000D01*
X144079000Y-87079000D01*
X143921000Y-87079000D01*
X141687750Y-87079000D01*
X141517000Y-87249750D01*
X138391162Y-87249750D01*
X138391162Y-85964143D01*
X141517000Y-85964143D01*
X141517000Y-86750250D01*
X141687750Y-86921000D01*
X143921000Y-86921000D01*
X143921000Y-85587750D01*
X144079000Y-85587750D01*
X144079000Y-86921000D01*
X146312250Y-86921000D01*
X146483000Y-86750250D01*
X146483000Y-85964143D01*
X146379019Y-85713112D01*
X146186889Y-85520981D01*
X145935857Y-85417000D01*
X144249750Y-85417000D01*
X144079000Y-85587750D01*
X143921000Y-85587750D01*
X143750250Y-85417000D01*
X142064143Y-85417000D01*
X141813111Y-85520981D01*
X141620981Y-85713112D01*
X141517000Y-85964143D01*
X138391162Y-85964143D01*
X138391162Y-85075000D01*
X142360469Y-85075000D01*
X142388444Y-85093692D01*
X143048573Y-85225000D01*
X144951427Y-85225000D01*
X145611556Y-85093692D01*
X146171186Y-84719759D01*
X146545119Y-84160129D01*
X146676427Y-83500000D01*
X146545119Y-82839871D01*
X146171186Y-82280241D01*
X145611556Y-81906308D01*
X144951427Y-81775000D01*
X143048573Y-81775000D01*
X142975000Y-81789635D01*
X142975000Y-80590602D01*
X144050420Y-80590602D01*
X144356147Y-80533076D01*
X144630488Y-80356541D01*
X144813723Y-80432440D01*
X145299270Y-80432440D01*
X145470020Y-80261690D01*
X145470020Y-79229000D01*
X145628020Y-79229000D01*
X145628020Y-80261690D01*
X145798770Y-80432440D01*
X146284317Y-80432440D01*
X146535348Y-80328459D01*
X146727479Y-80136329D01*
X146831460Y-79885297D01*
X146831460Y-79399750D01*
X146660710Y-79229000D01*
X145628020Y-79229000D01*
X145470020Y-79229000D01*
X145450020Y-79229000D01*
X145450020Y-79071000D01*
X145470020Y-79071000D01*
X145470020Y-79051000D01*
X145628020Y-79051000D01*
X145628020Y-79071000D01*
X146660710Y-79071000D01*
X146831460Y-78900250D01*
X146831460Y-78414703D01*
X146727479Y-78163671D01*
X146535348Y-77971541D01*
X146284317Y-77867560D01*
X146029027Y-77867560D01*
X146124890Y-77727259D01*
X146191162Y-77400000D01*
X146191162Y-76100000D01*
X146133636Y-75794273D01*
X145952951Y-75513482D01*
X145677259Y-75325110D01*
X145350000Y-75258838D01*
X143850000Y-75258838D01*
X143544273Y-75316364D01*
X143263482Y-75497049D01*
X143252476Y-75513157D01*
X142977259Y-75325110D01*
X142650000Y-75258838D01*
X141150000Y-75258838D01*
X140844273Y-75316364D01*
X140563482Y-75497049D01*
X140375110Y-75772741D01*
X140308838Y-76100000D01*
X140308838Y-77400000D01*
X140366364Y-77705727D01*
X140547049Y-77986518D01*
X140822741Y-78174890D01*
X140825000Y-78175347D01*
X140825000Y-81925000D01*
X138391162Y-81925000D01*
X138391162Y-73675000D01*
X138333636Y-73369273D01*
X138152951Y-73088482D01*
X137937341Y-72941162D01*
X139150000Y-72941162D01*
X139455727Y-72883636D01*
X139736518Y-72702951D01*
X139924890Y-72427259D01*
X139991162Y-72100000D01*
X139991162Y-71249750D01*
X141517000Y-71249750D01*
X141517000Y-72035857D01*
X141620981Y-72286888D01*
X141813111Y-72479019D01*
X142064143Y-72583000D01*
X143750250Y-72583000D01*
X143921000Y-72412250D01*
X143921000Y-71079000D01*
X144079000Y-71079000D01*
X144079000Y-72412250D01*
X144249750Y-72583000D01*
X145935857Y-72583000D01*
X146186889Y-72479019D01*
X146379019Y-72286888D01*
X146483000Y-72035857D01*
X146483000Y-71249750D01*
X146312250Y-71079000D01*
X144079000Y-71079000D01*
X143921000Y-71079000D01*
X141687750Y-71079000D01*
X141517000Y-71249750D01*
X139991162Y-71249750D01*
X139991162Y-70600000D01*
X139933636Y-70294273D01*
X139752951Y-70013482D01*
X139736843Y-70002476D01*
X139763034Y-69964143D01*
X141517000Y-69964143D01*
X141517000Y-70750250D01*
X141687750Y-70921000D01*
X143921000Y-70921000D01*
X143921000Y-69587750D01*
X144079000Y-69587750D01*
X144079000Y-70921000D01*
X146312250Y-70921000D01*
X146483000Y-70750250D01*
X146483000Y-69964143D01*
X146379019Y-69713112D01*
X146186889Y-69520981D01*
X145935857Y-69417000D01*
X144249750Y-69417000D01*
X144079000Y-69587750D01*
X143921000Y-69587750D01*
X143750250Y-69417000D01*
X142064143Y-69417000D01*
X141813111Y-69520981D01*
X141620981Y-69713112D01*
X141517000Y-69964143D01*
X139763034Y-69964143D01*
X139924890Y-69727259D01*
X139991162Y-69400000D01*
X139991162Y-67900000D01*
X139933636Y-67594273D01*
X139752951Y-67313482D01*
X139477259Y-67125110D01*
X139150000Y-67058838D01*
X137850000Y-67058838D01*
X137544273Y-67116364D01*
X137263482Y-67297049D01*
X137075110Y-67572741D01*
X137074653Y-67575000D01*
X136323601Y-67575000D01*
X136274142Y-67500980D01*
X135730853Y-67137966D01*
X135090000Y-67010492D01*
X134449147Y-67137966D01*
X133905858Y-67500980D01*
X133820000Y-67629476D01*
X133734142Y-67500980D01*
X133190853Y-67137966D01*
X132550000Y-67010492D01*
X131909147Y-67137966D01*
X131585000Y-67354554D01*
X131585000Y-67038326D01*
X132736325Y-65887001D01*
X134439761Y-65887001D01*
X135042488Y-65767111D01*
X135553454Y-65425694D01*
X136863693Y-64115455D01*
X137205110Y-63604488D01*
X137325000Y-63001762D01*
X137325000Y-59850000D01*
X140308838Y-59850000D01*
X140308838Y-61150000D01*
X140366364Y-61455727D01*
X140547049Y-61736518D01*
X140822741Y-61924890D01*
X140825000Y-61925347D01*
X140825000Y-66300000D01*
X140906830Y-66711385D01*
X141106686Y-67010492D01*
X141139860Y-67060140D01*
X141366071Y-67286351D01*
X141323573Y-67500000D01*
X141454881Y-68160129D01*
X141828814Y-68719759D01*
X142388444Y-69093692D01*
X143048573Y-69225000D01*
X144951427Y-69225000D01*
X145611556Y-69093692D01*
X146171186Y-68719759D01*
X146545119Y-68160129D01*
X146676427Y-67500000D01*
X146545119Y-66839871D01*
X146171186Y-66280241D01*
X145611556Y-65906308D01*
X144951427Y-65775000D01*
X143048573Y-65775000D01*
X142975000Y-65789635D01*
X142975000Y-64440602D01*
X144001400Y-64440602D01*
X144307127Y-64383076D01*
X144581468Y-64206541D01*
X144764703Y-64282440D01*
X145250250Y-64282440D01*
X145421000Y-64111690D01*
X145421000Y-63079000D01*
X145579000Y-63079000D01*
X145579000Y-64111690D01*
X145749750Y-64282440D01*
X146235297Y-64282440D01*
X146486328Y-64178459D01*
X146678459Y-63986329D01*
X146782440Y-63735297D01*
X146782440Y-63249750D01*
X146611690Y-63079000D01*
X145579000Y-63079000D01*
X145421000Y-63079000D01*
X145401000Y-63079000D01*
X145401000Y-62921000D01*
X145421000Y-62921000D01*
X145421000Y-62901000D01*
X145579000Y-62901000D01*
X145579000Y-62921000D01*
X146611690Y-62921000D01*
X146782440Y-62750250D01*
X146782440Y-62264703D01*
X146678459Y-62013671D01*
X146486328Y-61821541D01*
X146235297Y-61717560D01*
X145960700Y-61717560D01*
X146124890Y-61477259D01*
X146191162Y-61150000D01*
X146191162Y-59850000D01*
X146133636Y-59544273D01*
X145952951Y-59263482D01*
X145677259Y-59075110D01*
X145350000Y-59008838D01*
X143850000Y-59008838D01*
X143544273Y-59066364D01*
X143263482Y-59247049D01*
X143252476Y-59263157D01*
X142977259Y-59075110D01*
X142650000Y-59008838D01*
X141150000Y-59008838D01*
X140844273Y-59066364D01*
X140563482Y-59247049D01*
X140375110Y-59522741D01*
X140308838Y-59850000D01*
X137325000Y-59850000D01*
X137325000Y-57639531D01*
X137343692Y-57611556D01*
X137475000Y-56951427D01*
X137475000Y-55048573D01*
X137343692Y-54388444D01*
X137217778Y-54200000D01*
X137508838Y-54200000D01*
X137508838Y-57800000D01*
X137566364Y-58105727D01*
X137747049Y-58386518D01*
X138022741Y-58574890D01*
X138350000Y-58641162D01*
X140150000Y-58641162D01*
X140455727Y-58583636D01*
X140736518Y-58402951D01*
X140924890Y-58127259D01*
X140991162Y-57800000D01*
X140991162Y-54200000D01*
X140933636Y-53894273D01*
X140752951Y-53613482D01*
X140477259Y-53425110D01*
X140150000Y-53358838D01*
X138350000Y-53358838D01*
X138044273Y-53416364D01*
X137763482Y-53597049D01*
X137575110Y-53872741D01*
X137508838Y-54200000D01*
X137217778Y-54200000D01*
X136969759Y-53828814D01*
X136410129Y-53454881D01*
X135750000Y-53323573D01*
X135089871Y-53454881D01*
X134530241Y-53828814D01*
X134156308Y-54388444D01*
X134025000Y-55048573D01*
X134025000Y-56951427D01*
X134156308Y-57611556D01*
X134175000Y-57639531D01*
X134175000Y-60632497D01*
X133647059Y-60413276D01*
X133015711Y-60412725D01*
X132432211Y-60653823D01*
X131985392Y-61099863D01*
X131951623Y-61181187D01*
X131765214Y-61136509D01*
X130901723Y-62000000D01*
X130915865Y-62014142D01*
X130804142Y-62125865D01*
X130790000Y-62111723D01*
X129926509Y-62975214D01*
X129989169Y-63236652D01*
X130523375Y-63448983D01*
X130722433Y-63446121D01*
X128896307Y-65272247D01*
X128554890Y-65783213D01*
X128534245Y-65887001D01*
X128435000Y-66385940D01*
X128435000Y-68042612D01*
X118142612Y-78335000D01*
X112972201Y-78335000D01*
X112372126Y-78085827D01*
X111646299Y-78085194D01*
X110975480Y-78362371D01*
X110461794Y-78875160D01*
X110183447Y-79545494D01*
X110182814Y-80271321D01*
X109179201Y-80271321D01*
X108147740Y-79239860D01*
X108131487Y-79229000D01*
X107798985Y-79006830D01*
X107387600Y-78925000D01*
X106528943Y-78925000D01*
X106164230Y-78559650D01*
X105539634Y-78300296D01*
X104863333Y-78299706D01*
X104238285Y-78557970D01*
X103759650Y-79035770D01*
X103500296Y-79660366D01*
X103499706Y-80336667D01*
X103757970Y-80961715D01*
X104045836Y-81250084D01*
X103759650Y-81535770D01*
X103500296Y-82160366D01*
X103499706Y-82836667D01*
X103757970Y-83461715D01*
X104045836Y-83750084D01*
X103759650Y-84035770D01*
X103500296Y-84660366D01*
X103499706Y-85336667D01*
X103757970Y-85961715D01*
X104045836Y-86250084D01*
X103759650Y-86535770D01*
X103500296Y-87160366D01*
X103499706Y-87836667D01*
X103757970Y-88461715D01*
X103787020Y-88490816D01*
X103738482Y-88522049D01*
X103550110Y-88797741D01*
X103483838Y-89125000D01*
X100758000Y-89125000D01*
X100758000Y-70249750D01*
X103517000Y-70249750D01*
X103517000Y-71035857D01*
X103620981Y-71286888D01*
X103813111Y-71479019D01*
X104064143Y-71583000D01*
X105750250Y-71583000D01*
X105921000Y-71412250D01*
X105921000Y-70079000D01*
X103687750Y-70079000D01*
X103517000Y-70249750D01*
X100758000Y-70249750D01*
X100758000Y-68964143D01*
X103517000Y-68964143D01*
X103517000Y-69750250D01*
X103687750Y-69921000D01*
X105921000Y-69921000D01*
X105921000Y-68587750D01*
X105750250Y-68417000D01*
X104064143Y-68417000D01*
X103813111Y-68520981D01*
X103620981Y-68713112D01*
X103517000Y-68964143D01*
X100758000Y-68964143D01*
X100758000Y-63500000D01*
X103323573Y-63500000D01*
X103454881Y-64160129D01*
X103828814Y-64719759D01*
X104388444Y-65093692D01*
X105048573Y-65225000D01*
X106951427Y-65225000D01*
X107611556Y-65093692D01*
X107639531Y-65075000D01*
X108000000Y-65075000D01*
X108602727Y-64955110D01*
X108948628Y-64723986D01*
X108344436Y-65328178D01*
X108003019Y-65839144D01*
X107989659Y-65906308D01*
X107883129Y-66441871D01*
X107883129Y-68417000D01*
X106249750Y-68417000D01*
X106079000Y-68587750D01*
X106079000Y-69921000D01*
X106099000Y-69921000D01*
X106099000Y-70079000D01*
X106079000Y-70079000D01*
X106079000Y-71412250D01*
X106249750Y-71583000D01*
X107689614Y-71583000D01*
X107406996Y-71865618D01*
X106951427Y-71775000D01*
X105048573Y-71775000D01*
X104388444Y-71906308D01*
X103828814Y-72280241D01*
X103454881Y-72839871D01*
X103323573Y-73500000D01*
X103454881Y-74160129D01*
X103828814Y-74719759D01*
X104388444Y-75093692D01*
X105048573Y-75225000D01*
X106951427Y-75225000D01*
X107611556Y-75093692D01*
X107639531Y-75075000D01*
X108000000Y-75075000D01*
X108602727Y-74955110D01*
X109113693Y-74613693D01*
X109824771Y-73902615D01*
X117216648Y-73902615D01*
X117525501Y-74650098D01*
X118096894Y-75222489D01*
X118843837Y-75532647D01*
X119652615Y-75533352D01*
X120400098Y-75224499D01*
X120972489Y-74653106D01*
X121282647Y-73906163D01*
X121283352Y-73097385D01*
X120974499Y-72349902D01*
X120403106Y-71777511D01*
X119656163Y-71467353D01*
X118847385Y-71466648D01*
X118099902Y-71775501D01*
X117527511Y-72346894D01*
X117217353Y-73093837D01*
X117216648Y-73902615D01*
X109824771Y-73902615D01*
X110571822Y-73155564D01*
X110913239Y-72644597D01*
X111033129Y-72041871D01*
X111033129Y-71590652D01*
X113007110Y-71590652D01*
X113312837Y-71533126D01*
X113593628Y-71352441D01*
X113782000Y-71076749D01*
X113848272Y-70749490D01*
X113848272Y-68750510D01*
X113790746Y-68444783D01*
X113610061Y-68163992D01*
X113334369Y-67975620D01*
X113007110Y-67909348D01*
X111033129Y-67909348D01*
X111033129Y-67094257D01*
X115416944Y-62710442D01*
X116924598Y-62710442D01*
X117277812Y-63565286D01*
X117931274Y-64219889D01*
X118785500Y-64574595D01*
X119710442Y-64575402D01*
X120565286Y-64222188D01*
X121219889Y-63568726D01*
X121466336Y-62975214D01*
X127386509Y-62975214D01*
X127449169Y-63236652D01*
X127983375Y-63448983D01*
X128558172Y-63440718D01*
X129050831Y-63236652D01*
X129113491Y-62975214D01*
X128250000Y-62111723D01*
X127386509Y-62975214D01*
X121466336Y-62975214D01*
X121574595Y-62714500D01*
X121575086Y-62152300D01*
X121994011Y-61733375D01*
X126801017Y-61733375D01*
X126809282Y-62308172D01*
X127013348Y-62800831D01*
X127274786Y-62863491D01*
X128138277Y-62000000D01*
X128361723Y-62000000D01*
X129225214Y-62863491D01*
X129486652Y-62800831D01*
X129519312Y-62718661D01*
X129553348Y-62800831D01*
X129814786Y-62863491D01*
X130678277Y-62000000D01*
X129814786Y-61136509D01*
X129553348Y-61199169D01*
X129520688Y-61281339D01*
X129486652Y-61199169D01*
X129225214Y-61136509D01*
X128361723Y-62000000D01*
X128138277Y-62000000D01*
X127274786Y-61136509D01*
X127013348Y-61199169D01*
X126801017Y-61733375D01*
X121994011Y-61733375D01*
X122702600Y-61024786D01*
X127386509Y-61024786D01*
X128250000Y-61888277D01*
X129113491Y-61024786D01*
X129926509Y-61024786D01*
X130790000Y-61888277D01*
X131653491Y-61024786D01*
X131590831Y-60763348D01*
X131056625Y-60551017D01*
X130481828Y-60559282D01*
X129989169Y-60763348D01*
X129926509Y-61024786D01*
X129113491Y-61024786D01*
X129050831Y-60763348D01*
X128516625Y-60551017D01*
X127941828Y-60559282D01*
X127449169Y-60763348D01*
X127386509Y-61024786D01*
X122702600Y-61024786D01*
X123613693Y-60113693D01*
X123955110Y-59602727D01*
X124075000Y-59000000D01*
X124075000Y-57639531D01*
X124093692Y-57611556D01*
X124225000Y-56951427D01*
X124225000Y-56249750D01*
X124417000Y-56249750D01*
X124417000Y-57935857D01*
X124520981Y-58186889D01*
X124713112Y-58379019D01*
X124964143Y-58483000D01*
X125750250Y-58483000D01*
X125921000Y-58312250D01*
X125921000Y-56079000D01*
X126079000Y-56079000D01*
X126079000Y-58312250D01*
X126249750Y-58483000D01*
X127035857Y-58483000D01*
X127286888Y-58379019D01*
X127479019Y-58186889D01*
X127583000Y-57935857D01*
X127583000Y-56249750D01*
X127412250Y-56079000D01*
X126079000Y-56079000D01*
X125921000Y-56079000D01*
X124587750Y-56079000D01*
X124417000Y-56249750D01*
X124225000Y-56249750D01*
X124225000Y-55048573D01*
X124093692Y-54388444D01*
X123877001Y-54064143D01*
X124417000Y-54064143D01*
X124417000Y-55750250D01*
X124587750Y-55921000D01*
X125921000Y-55921000D01*
X125921000Y-53687750D01*
X126079000Y-53687750D01*
X126079000Y-55921000D01*
X127412250Y-55921000D01*
X127583000Y-55750250D01*
X127583000Y-54064143D01*
X127479019Y-53813111D01*
X127286888Y-53620981D01*
X127035857Y-53517000D01*
X126249750Y-53517000D01*
X126079000Y-53687750D01*
X125921000Y-53687750D01*
X125750250Y-53517000D01*
X124964143Y-53517000D01*
X124713112Y-53620981D01*
X124520981Y-53813111D01*
X124417000Y-54064143D01*
X123877001Y-54064143D01*
X123719759Y-53828814D01*
X123160129Y-53454881D01*
X122500000Y-53323573D01*
X121839871Y-53454881D01*
X121280241Y-53828814D01*
X120906308Y-54388444D01*
X120775000Y-55048573D01*
X120775000Y-56951427D01*
X120906308Y-57611556D01*
X120925000Y-57639531D01*
X120925000Y-58347614D01*
X119347529Y-59925085D01*
X118789558Y-59924598D01*
X117934714Y-60277812D01*
X117280111Y-60931274D01*
X116925405Y-61785500D01*
X116924598Y-62710442D01*
X115416944Y-62710442D01*
X119562934Y-58564452D01*
X119660129Y-58545119D01*
X120219759Y-58171186D01*
X120593692Y-57611556D01*
X120725000Y-56951427D01*
X120725000Y-55048573D01*
X120593692Y-54388444D01*
X120219759Y-53828814D01*
X119660129Y-53454881D01*
X119000000Y-53323573D01*
X118339871Y-53454881D01*
X117780241Y-53828814D01*
X117406308Y-54388444D01*
X117275000Y-55048573D01*
X117275000Y-56397614D01*
X117225000Y-56447614D01*
X117225000Y-55048573D01*
X117093692Y-54388444D01*
X116719759Y-53828814D01*
X116160129Y-53454881D01*
X115500000Y-53323573D01*
X114839871Y-53454881D01*
X114280241Y-53828814D01*
X113906308Y-54388444D01*
X113775000Y-55048573D01*
X113775000Y-55497614D01*
X108483000Y-60789614D01*
X108483000Y-60249750D01*
X108312250Y-60079000D01*
X106079000Y-60079000D01*
X106079000Y-61412250D01*
X106249750Y-61583000D01*
X107689614Y-61583000D01*
X107406996Y-61865618D01*
X106951427Y-61775000D01*
X105048573Y-61775000D01*
X104388444Y-61906308D01*
X103828814Y-62280241D01*
X103454881Y-62839871D01*
X103323573Y-63500000D01*
X100758000Y-63500000D01*
X100758000Y-60249750D01*
X103517000Y-60249750D01*
X103517000Y-61035857D01*
X103620981Y-61286888D01*
X103813111Y-61479019D01*
X104064143Y-61583000D01*
X105750250Y-61583000D01*
X105921000Y-61412250D01*
X105921000Y-60079000D01*
X103687750Y-60079000D01*
X103517000Y-60249750D01*
X100758000Y-60249750D01*
X100758000Y-58964143D01*
X103517000Y-58964143D01*
X103517000Y-59750250D01*
X103687750Y-59921000D01*
X105921000Y-59921000D01*
X105921000Y-58587750D01*
X106079000Y-58587750D01*
X106079000Y-59921000D01*
X108312250Y-59921000D01*
X108483000Y-59750250D01*
X108483000Y-58964143D01*
X108379019Y-58713112D01*
X108186889Y-58520981D01*
X107935857Y-58417000D01*
X106249750Y-58417000D01*
X106079000Y-58587750D01*
X105921000Y-58587750D01*
X105750250Y-58417000D01*
X104064143Y-58417000D01*
X103813111Y-58520981D01*
X103620981Y-58713112D01*
X103517000Y-58964143D01*
X100758000Y-58964143D01*
X100758000Y-50758000D01*
X149242000Y-50758000D01*
X149242000Y-99242000D01*
X149242000Y-99242000D01*
G37*
X149242000Y-99242000D02*
X100758000Y-99242000D01*
X100758000Y-89125000D01*
X103483838Y-89125000D01*
X103483838Y-90875000D01*
X103541364Y-91180727D01*
X103722049Y-91461518D01*
X103997741Y-91649890D01*
X104325000Y-91716162D01*
X106075000Y-91716162D01*
X106380727Y-91658636D01*
X106661518Y-91477951D01*
X106849890Y-91202259D01*
X106859942Y-91152622D01*
X110142838Y-94435518D01*
X110142838Y-95483600D01*
X110200364Y-95789327D01*
X110381049Y-96070118D01*
X110656741Y-96258490D01*
X110984000Y-96324762D01*
X113016000Y-96324762D01*
X113321727Y-96267236D01*
X113602518Y-96086551D01*
X113790890Y-95810859D01*
X113857162Y-95483600D01*
X113857162Y-93756400D01*
X113799636Y-93450673D01*
X113618951Y-93169882D01*
X113504379Y-93091598D01*
X113748530Y-92726199D01*
X113877067Y-92080000D01*
X113748530Y-91433801D01*
X113382488Y-90885979D01*
X113268777Y-90810000D01*
X113382488Y-90734021D01*
X113748530Y-90186199D01*
X113877067Y-89540000D01*
X113748530Y-88893801D01*
X113382488Y-88345979D01*
X113268777Y-88270000D01*
X113382488Y-88194021D01*
X113748530Y-87646199D01*
X113877067Y-87000000D01*
X113748530Y-86353801D01*
X113382488Y-85805979D01*
X113268777Y-85730000D01*
X113382488Y-85654021D01*
X113678877Y-85210442D01*
X116924598Y-85210442D01*
X117277812Y-86065286D01*
X117931274Y-86719889D01*
X118785500Y-87074595D01*
X119710442Y-87075402D01*
X120565286Y-86722188D01*
X121219889Y-86068726D01*
X121574595Y-85214500D01*
X121575402Y-84289558D01*
X121222188Y-83434714D01*
X120568726Y-82780111D01*
X119714500Y-82425405D01*
X118789558Y-82424598D01*
X117934714Y-82777812D01*
X117280111Y-83431274D01*
X116925405Y-84285500D01*
X116924598Y-85210442D01*
X113678877Y-85210442D01*
X113748530Y-85106199D01*
X113877067Y-84460000D01*
X113748530Y-83813801D01*
X113382488Y-83265979D01*
X112834666Y-82899937D01*
X112188467Y-82771400D01*
X111811533Y-82771400D01*
X111701222Y-82793342D01*
X109179201Y-80271321D01*
X110182814Y-80271321D01*
X110459991Y-80942140D01*
X110972780Y-81455826D01*
X111643114Y-81734173D01*
X112368941Y-81734806D01*
X112973517Y-81485000D01*
X118794998Y-81485000D01*
X119397725Y-81365110D01*
X119908691Y-81023693D01*
X126708838Y-74223546D01*
X126708838Y-84825000D01*
X125087564Y-84825000D01*
X124484837Y-84944890D01*
X123973871Y-85286307D01*
X116436307Y-92823871D01*
X116094890Y-93334837D01*
X116094890Y-93334838D01*
X115975000Y-93937564D01*
X115975000Y-94535044D01*
X115850296Y-94835366D01*
X115849706Y-95511667D01*
X116107970Y-96136715D01*
X116585770Y-96615350D01*
X117210366Y-96874704D01*
X117886667Y-96875294D01*
X118511715Y-96617030D01*
X118900581Y-96228843D01*
X119166312Y-96495038D01*
X119738735Y-96732729D01*
X120358546Y-96733270D01*
X120931383Y-96496578D01*
X121300259Y-96128345D01*
X121666312Y-96495038D01*
X122238735Y-96732729D01*
X122858546Y-96733270D01*
X123431383Y-96496578D01*
X123565322Y-96362872D01*
X123595981Y-96436889D01*
X123788112Y-96629019D01*
X124039143Y-96733000D01*
X124800250Y-96733000D01*
X124971000Y-96562250D01*
X124971000Y-95254000D01*
X125129000Y-95254000D01*
X125129000Y-96562250D01*
X125299750Y-96733000D01*
X126060857Y-96733000D01*
X126311888Y-96629019D01*
X126504019Y-96436889D01*
X126608000Y-96185857D01*
X126608000Y-95424750D01*
X126437250Y-95254000D01*
X125129000Y-95254000D01*
X124971000Y-95254000D01*
X124951000Y-95254000D01*
X124951000Y-95096000D01*
X124971000Y-95096000D01*
X124971000Y-93787750D01*
X125129000Y-93787750D01*
X125129000Y-95096000D01*
X126437250Y-95096000D01*
X126608000Y-94925250D01*
X126608000Y-94164143D01*
X126504019Y-93913111D01*
X126311888Y-93720981D01*
X126060857Y-93617000D01*
X125299750Y-93617000D01*
X125129000Y-93787750D01*
X124971000Y-93787750D01*
X124800250Y-93617000D01*
X124039143Y-93617000D01*
X123788112Y-93720981D01*
X123595981Y-93913111D01*
X123565410Y-93986915D01*
X123433688Y-93854962D01*
X122861265Y-93617271D01*
X122241454Y-93616730D01*
X121668617Y-93853422D01*
X121299741Y-94221655D01*
X120933688Y-93854962D01*
X120361265Y-93617271D01*
X120097909Y-93617041D01*
X125739950Y-87975000D01*
X126708838Y-87975000D01*
X126708838Y-89425000D01*
X126766364Y-89730727D01*
X126947049Y-90011518D01*
X127222741Y-90199890D01*
X127550000Y-90266162D01*
X130700000Y-90266162D01*
X130700000Y-94535044D01*
X130575296Y-94835366D01*
X130574706Y-95511667D01*
X130832970Y-96136715D01*
X131310770Y-96615350D01*
X131935366Y-96874704D01*
X132611667Y-96875294D01*
X133236715Y-96617030D01*
X133625581Y-96228843D01*
X133891312Y-96495038D01*
X134463735Y-96732729D01*
X135083546Y-96733270D01*
X135656383Y-96496578D01*
X136025259Y-96128345D01*
X136391312Y-96495038D01*
X136963735Y-96732729D01*
X137583546Y-96733270D01*
X138156383Y-96496578D01*
X138290322Y-96362872D01*
X138320981Y-96436889D01*
X138513112Y-96629019D01*
X138764143Y-96733000D01*
X139525250Y-96733000D01*
X139696000Y-96562250D01*
X139696000Y-95254000D01*
X139854000Y-95254000D01*
X139854000Y-96562250D01*
X140024750Y-96733000D01*
X140785857Y-96733000D01*
X141036888Y-96629019D01*
X141229019Y-96436889D01*
X141333000Y-96185857D01*
X141333000Y-95424750D01*
X141162250Y-95254000D01*
X139854000Y-95254000D01*
X139696000Y-95254000D01*
X139676000Y-95254000D01*
X139676000Y-95096000D01*
X139696000Y-95096000D01*
X139696000Y-93787750D01*
X139854000Y-93787750D01*
X139854000Y-95096000D01*
X141162250Y-95096000D01*
X141333000Y-94925250D01*
X141333000Y-94164143D01*
X141229019Y-93913111D01*
X141036888Y-93720981D01*
X140785857Y-93617000D01*
X140024750Y-93617000D01*
X139854000Y-93787750D01*
X139696000Y-93787750D01*
X139525250Y-93617000D01*
X138764143Y-93617000D01*
X138513112Y-93720981D01*
X138320981Y-93913111D01*
X138290410Y-93986915D01*
X138158688Y-93854962D01*
X137586265Y-93617271D01*
X136966454Y-93616730D01*
X136393617Y-93853422D01*
X136024741Y-94221655D01*
X135658688Y-93854962D01*
X135086265Y-93617271D01*
X134466454Y-93616730D01*
X133893617Y-93853422D01*
X133850000Y-93896963D01*
X133850000Y-90266162D01*
X137550000Y-90266162D01*
X137855727Y-90208636D01*
X138136518Y-90027951D01*
X138324890Y-89752259D01*
X138391162Y-89425000D01*
X138391162Y-87249750D01*
X141517000Y-87249750D01*
X141517000Y-88035857D01*
X141620981Y-88286888D01*
X141813111Y-88479019D01*
X142064143Y-88583000D01*
X143750250Y-88583000D01*
X143921000Y-88412250D01*
X143921000Y-87079000D01*
X144079000Y-87079000D01*
X144079000Y-88412250D01*
X144249750Y-88583000D01*
X145935857Y-88583000D01*
X146186889Y-88479019D01*
X146379019Y-88286888D01*
X146483000Y-88035857D01*
X146483000Y-87249750D01*
X146312250Y-87079000D01*
X144079000Y-87079000D01*
X143921000Y-87079000D01*
X141687750Y-87079000D01*
X141517000Y-87249750D01*
X138391162Y-87249750D01*
X138391162Y-85964143D01*
X141517000Y-85964143D01*
X141517000Y-86750250D01*
X141687750Y-86921000D01*
X143921000Y-86921000D01*
X143921000Y-85587750D01*
X144079000Y-85587750D01*
X144079000Y-86921000D01*
X146312250Y-86921000D01*
X146483000Y-86750250D01*
X146483000Y-85964143D01*
X146379019Y-85713112D01*
X146186889Y-85520981D01*
X145935857Y-85417000D01*
X144249750Y-85417000D01*
X144079000Y-85587750D01*
X143921000Y-85587750D01*
X143750250Y-85417000D01*
X142064143Y-85417000D01*
X141813111Y-85520981D01*
X141620981Y-85713112D01*
X141517000Y-85964143D01*
X138391162Y-85964143D01*
X138391162Y-85075000D01*
X142360469Y-85075000D01*
X142388444Y-85093692D01*
X143048573Y-85225000D01*
X144951427Y-85225000D01*
X145611556Y-85093692D01*
X146171186Y-84719759D01*
X146545119Y-84160129D01*
X146676427Y-83500000D01*
X146545119Y-82839871D01*
X146171186Y-82280241D01*
X145611556Y-81906308D01*
X144951427Y-81775000D01*
X143048573Y-81775000D01*
X142975000Y-81789635D01*
X142975000Y-80590602D01*
X144050420Y-80590602D01*
X144356147Y-80533076D01*
X144630488Y-80356541D01*
X144813723Y-80432440D01*
X145299270Y-80432440D01*
X145470020Y-80261690D01*
X145470020Y-79229000D01*
X145628020Y-79229000D01*
X145628020Y-80261690D01*
X145798770Y-80432440D01*
X146284317Y-80432440D01*
X146535348Y-80328459D01*
X146727479Y-80136329D01*
X146831460Y-79885297D01*
X146831460Y-79399750D01*
X146660710Y-79229000D01*
X145628020Y-79229000D01*
X145470020Y-79229000D01*
X145450020Y-79229000D01*
X145450020Y-79071000D01*
X145470020Y-79071000D01*
X145470020Y-79051000D01*
X145628020Y-79051000D01*
X145628020Y-79071000D01*
X146660710Y-79071000D01*
X146831460Y-78900250D01*
X146831460Y-78414703D01*
X146727479Y-78163671D01*
X146535348Y-77971541D01*
X146284317Y-77867560D01*
X146029027Y-77867560D01*
X146124890Y-77727259D01*
X146191162Y-77400000D01*
X146191162Y-76100000D01*
X146133636Y-75794273D01*
X145952951Y-75513482D01*
X145677259Y-75325110D01*
X145350000Y-75258838D01*
X143850000Y-75258838D01*
X143544273Y-75316364D01*
X143263482Y-75497049D01*
X143252476Y-75513157D01*
X142977259Y-75325110D01*
X142650000Y-75258838D01*
X141150000Y-75258838D01*
X140844273Y-75316364D01*
X140563482Y-75497049D01*
X140375110Y-75772741D01*
X140308838Y-76100000D01*
X140308838Y-77400000D01*
X140366364Y-77705727D01*
X140547049Y-77986518D01*
X140822741Y-78174890D01*
X140825000Y-78175347D01*
X140825000Y-81925000D01*
X138391162Y-81925000D01*
X138391162Y-73675000D01*
X138333636Y-73369273D01*
X138152951Y-73088482D01*
X137937341Y-72941162D01*
X139150000Y-72941162D01*
X139455727Y-72883636D01*
X139736518Y-72702951D01*
X139924890Y-72427259D01*
X139991162Y-72100000D01*
X139991162Y-71249750D01*
X141517000Y-71249750D01*
X141517000Y-72035857D01*
X141620981Y-72286888D01*
X141813111Y-72479019D01*
X142064143Y-72583000D01*
X143750250Y-72583000D01*
X143921000Y-72412250D01*
X143921000Y-71079000D01*
X144079000Y-71079000D01*
X144079000Y-72412250D01*
X144249750Y-72583000D01*
X145935857Y-72583000D01*
X146186889Y-72479019D01*
X146379019Y-72286888D01*
X146483000Y-72035857D01*
X146483000Y-71249750D01*
X146312250Y-71079000D01*
X144079000Y-71079000D01*
X143921000Y-71079000D01*
X141687750Y-71079000D01*
X141517000Y-71249750D01*
X139991162Y-71249750D01*
X139991162Y-70600000D01*
X139933636Y-70294273D01*
X139752951Y-70013482D01*
X139736843Y-70002476D01*
X139763034Y-69964143D01*
X141517000Y-69964143D01*
X141517000Y-70750250D01*
X141687750Y-70921000D01*
X143921000Y-70921000D01*
X143921000Y-69587750D01*
X144079000Y-69587750D01*
X144079000Y-70921000D01*
X146312250Y-70921000D01*
X146483000Y-70750250D01*
X146483000Y-69964143D01*
X146379019Y-69713112D01*
X146186889Y-69520981D01*
X145935857Y-69417000D01*
X144249750Y-69417000D01*
X144079000Y-69587750D01*
X143921000Y-69587750D01*
X143750250Y-69417000D01*
X142064143Y-69417000D01*
X141813111Y-69520981D01*
X141620981Y-69713112D01*
X141517000Y-69964143D01*
X139763034Y-69964143D01*
X139924890Y-69727259D01*
X139991162Y-69400000D01*
X139991162Y-67900000D01*
X139933636Y-67594273D01*
X139752951Y-67313482D01*
X139477259Y-67125110D01*
X139150000Y-67058838D01*
X137850000Y-67058838D01*
X137544273Y-67116364D01*
X137263482Y-67297049D01*
X137075110Y-67572741D01*
X137074653Y-67575000D01*
X136323601Y-67575000D01*
X136274142Y-67500980D01*
X135730853Y-67137966D01*
X135090000Y-67010492D01*
X134449147Y-67137966D01*
X133905858Y-67500980D01*
X133820000Y-67629476D01*
X133734142Y-67500980D01*
X133190853Y-67137966D01*
X132550000Y-67010492D01*
X131909147Y-67137966D01*
X131585000Y-67354554D01*
X131585000Y-67038326D01*
X132736325Y-65887001D01*
X134439761Y-65887001D01*
X135042488Y-65767111D01*
X135553454Y-65425694D01*
X136863693Y-64115455D01*
X137205110Y-63604488D01*
X137325000Y-63001762D01*
X137325000Y-59850000D01*
X140308838Y-59850000D01*
X140308838Y-61150000D01*
X140366364Y-61455727D01*
X140547049Y-61736518D01*
X140822741Y-61924890D01*
X140825000Y-61925347D01*
X140825000Y-66300000D01*
X140906830Y-66711385D01*
X141106686Y-67010492D01*
X141139860Y-67060140D01*
X141366071Y-67286351D01*
X141323573Y-67500000D01*
X141454881Y-68160129D01*
X141828814Y-68719759D01*
X142388444Y-69093692D01*
X143048573Y-69225000D01*
X144951427Y-69225000D01*
X145611556Y-69093692D01*
X146171186Y-68719759D01*
X146545119Y-68160129D01*
X146676427Y-67500000D01*
X146545119Y-66839871D01*
X146171186Y-66280241D01*
X145611556Y-65906308D01*
X144951427Y-65775000D01*
X143048573Y-65775000D01*
X142975000Y-65789635D01*
X142975000Y-64440602D01*
X144001400Y-64440602D01*
X144307127Y-64383076D01*
X144581468Y-64206541D01*
X144764703Y-64282440D01*
X145250250Y-64282440D01*
X145421000Y-64111690D01*
X145421000Y-63079000D01*
X145579000Y-63079000D01*
X145579000Y-64111690D01*
X145749750Y-64282440D01*
X146235297Y-64282440D01*
X146486328Y-64178459D01*
X146678459Y-63986329D01*
X146782440Y-63735297D01*
X146782440Y-63249750D01*
X146611690Y-63079000D01*
X145579000Y-63079000D01*
X145421000Y-63079000D01*
X145401000Y-63079000D01*
X145401000Y-62921000D01*
X145421000Y-62921000D01*
X145421000Y-62901000D01*
X145579000Y-62901000D01*
X145579000Y-62921000D01*
X146611690Y-62921000D01*
X146782440Y-62750250D01*
X146782440Y-62264703D01*
X146678459Y-62013671D01*
X146486328Y-61821541D01*
X146235297Y-61717560D01*
X145960700Y-61717560D01*
X146124890Y-61477259D01*
X146191162Y-61150000D01*
X146191162Y-59850000D01*
X146133636Y-59544273D01*
X145952951Y-59263482D01*
X145677259Y-59075110D01*
X145350000Y-59008838D01*
X143850000Y-59008838D01*
X143544273Y-59066364D01*
X143263482Y-59247049D01*
X143252476Y-59263157D01*
X142977259Y-59075110D01*
X142650000Y-59008838D01*
X141150000Y-59008838D01*
X140844273Y-59066364D01*
X140563482Y-59247049D01*
X140375110Y-59522741D01*
X140308838Y-59850000D01*
X137325000Y-59850000D01*
X137325000Y-57639531D01*
X137343692Y-57611556D01*
X137475000Y-56951427D01*
X137475000Y-55048573D01*
X137343692Y-54388444D01*
X137217778Y-54200000D01*
X137508838Y-54200000D01*
X137508838Y-57800000D01*
X137566364Y-58105727D01*
X137747049Y-58386518D01*
X138022741Y-58574890D01*
X138350000Y-58641162D01*
X140150000Y-58641162D01*
X140455727Y-58583636D01*
X140736518Y-58402951D01*
X140924890Y-58127259D01*
X140991162Y-57800000D01*
X140991162Y-54200000D01*
X140933636Y-53894273D01*
X140752951Y-53613482D01*
X140477259Y-53425110D01*
X140150000Y-53358838D01*
X138350000Y-53358838D01*
X138044273Y-53416364D01*
X137763482Y-53597049D01*
X137575110Y-53872741D01*
X137508838Y-54200000D01*
X137217778Y-54200000D01*
X136969759Y-53828814D01*
X136410129Y-53454881D01*
X135750000Y-53323573D01*
X135089871Y-53454881D01*
X134530241Y-53828814D01*
X134156308Y-54388444D01*
X134025000Y-55048573D01*
X134025000Y-56951427D01*
X134156308Y-57611556D01*
X134175000Y-57639531D01*
X134175000Y-60632497D01*
X133647059Y-60413276D01*
X133015711Y-60412725D01*
X132432211Y-60653823D01*
X131985392Y-61099863D01*
X131951623Y-61181187D01*
X131765214Y-61136509D01*
X130901723Y-62000000D01*
X130915865Y-62014142D01*
X130804142Y-62125865D01*
X130790000Y-62111723D01*
X129926509Y-62975214D01*
X129989169Y-63236652D01*
X130523375Y-63448983D01*
X130722433Y-63446121D01*
X128896307Y-65272247D01*
X128554890Y-65783213D01*
X128534245Y-65887001D01*
X128435000Y-66385940D01*
X128435000Y-68042612D01*
X118142612Y-78335000D01*
X112972201Y-78335000D01*
X112372126Y-78085827D01*
X111646299Y-78085194D01*
X110975480Y-78362371D01*
X110461794Y-78875160D01*
X110183447Y-79545494D01*
X110182814Y-80271321D01*
X109179201Y-80271321D01*
X108147740Y-79239860D01*
X108131487Y-79229000D01*
X107798985Y-79006830D01*
X107387600Y-78925000D01*
X106528943Y-78925000D01*
X106164230Y-78559650D01*
X105539634Y-78300296D01*
X104863333Y-78299706D01*
X104238285Y-78557970D01*
X103759650Y-79035770D01*
X103500296Y-79660366D01*
X103499706Y-80336667D01*
X103757970Y-80961715D01*
X104045836Y-81250084D01*
X103759650Y-81535770D01*
X103500296Y-82160366D01*
X103499706Y-82836667D01*
X103757970Y-83461715D01*
X104045836Y-83750084D01*
X103759650Y-84035770D01*
X103500296Y-84660366D01*
X103499706Y-85336667D01*
X103757970Y-85961715D01*
X104045836Y-86250084D01*
X103759650Y-86535770D01*
X103500296Y-87160366D01*
X103499706Y-87836667D01*
X103757970Y-88461715D01*
X103787020Y-88490816D01*
X103738482Y-88522049D01*
X103550110Y-88797741D01*
X103483838Y-89125000D01*
X100758000Y-89125000D01*
X100758000Y-70249750D01*
X103517000Y-70249750D01*
X103517000Y-71035857D01*
X103620981Y-71286888D01*
X103813111Y-71479019D01*
X104064143Y-71583000D01*
X105750250Y-71583000D01*
X105921000Y-71412250D01*
X105921000Y-70079000D01*
X103687750Y-70079000D01*
X103517000Y-70249750D01*
X100758000Y-70249750D01*
X100758000Y-68964143D01*
X103517000Y-68964143D01*
X103517000Y-69750250D01*
X103687750Y-69921000D01*
X105921000Y-69921000D01*
X105921000Y-68587750D01*
X105750250Y-68417000D01*
X104064143Y-68417000D01*
X103813111Y-68520981D01*
X103620981Y-68713112D01*
X103517000Y-68964143D01*
X100758000Y-68964143D01*
X100758000Y-63500000D01*
X103323573Y-63500000D01*
X103454881Y-64160129D01*
X103828814Y-64719759D01*
X104388444Y-65093692D01*
X105048573Y-65225000D01*
X106951427Y-65225000D01*
X107611556Y-65093692D01*
X107639531Y-65075000D01*
X108000000Y-65075000D01*
X108602727Y-64955110D01*
X108948628Y-64723986D01*
X108344436Y-65328178D01*
X108003019Y-65839144D01*
X107989659Y-65906308D01*
X107883129Y-66441871D01*
X107883129Y-68417000D01*
X106249750Y-68417000D01*
X106079000Y-68587750D01*
X106079000Y-69921000D01*
X106099000Y-69921000D01*
X106099000Y-70079000D01*
X106079000Y-70079000D01*
X106079000Y-71412250D01*
X106249750Y-71583000D01*
X107689614Y-71583000D01*
X107406996Y-71865618D01*
X106951427Y-71775000D01*
X105048573Y-71775000D01*
X104388444Y-71906308D01*
X103828814Y-72280241D01*
X103454881Y-72839871D01*
X103323573Y-73500000D01*
X103454881Y-74160129D01*
X103828814Y-74719759D01*
X104388444Y-75093692D01*
X105048573Y-75225000D01*
X106951427Y-75225000D01*
X107611556Y-75093692D01*
X107639531Y-75075000D01*
X108000000Y-75075000D01*
X108602727Y-74955110D01*
X109113693Y-74613693D01*
X109824771Y-73902615D01*
X117216648Y-73902615D01*
X117525501Y-74650098D01*
X118096894Y-75222489D01*
X118843837Y-75532647D01*
X119652615Y-75533352D01*
X120400098Y-75224499D01*
X120972489Y-74653106D01*
X121282647Y-73906163D01*
X121283352Y-73097385D01*
X120974499Y-72349902D01*
X120403106Y-71777511D01*
X119656163Y-71467353D01*
X118847385Y-71466648D01*
X118099902Y-71775501D01*
X117527511Y-72346894D01*
X117217353Y-73093837D01*
X117216648Y-73902615D01*
X109824771Y-73902615D01*
X110571822Y-73155564D01*
X110913239Y-72644597D01*
X111033129Y-72041871D01*
X111033129Y-71590652D01*
X113007110Y-71590652D01*
X113312837Y-71533126D01*
X113593628Y-71352441D01*
X113782000Y-71076749D01*
X113848272Y-70749490D01*
X113848272Y-68750510D01*
X113790746Y-68444783D01*
X113610061Y-68163992D01*
X113334369Y-67975620D01*
X113007110Y-67909348D01*
X111033129Y-67909348D01*
X111033129Y-67094257D01*
X115416944Y-62710442D01*
X116924598Y-62710442D01*
X117277812Y-63565286D01*
X117931274Y-64219889D01*
X118785500Y-64574595D01*
X119710442Y-64575402D01*
X120565286Y-64222188D01*
X121219889Y-63568726D01*
X121466336Y-62975214D01*
X127386509Y-62975214D01*
X127449169Y-63236652D01*
X127983375Y-63448983D01*
X128558172Y-63440718D01*
X129050831Y-63236652D01*
X129113491Y-62975214D01*
X128250000Y-62111723D01*
X127386509Y-62975214D01*
X121466336Y-62975214D01*
X121574595Y-62714500D01*
X121575086Y-62152300D01*
X121994011Y-61733375D01*
X126801017Y-61733375D01*
X126809282Y-62308172D01*
X127013348Y-62800831D01*
X127274786Y-62863491D01*
X128138277Y-62000000D01*
X128361723Y-62000000D01*
X129225214Y-62863491D01*
X129486652Y-62800831D01*
X129519312Y-62718661D01*
X129553348Y-62800831D01*
X129814786Y-62863491D01*
X130678277Y-62000000D01*
X129814786Y-61136509D01*
X129553348Y-61199169D01*
X129520688Y-61281339D01*
X129486652Y-61199169D01*
X129225214Y-61136509D01*
X128361723Y-62000000D01*
X128138277Y-62000000D01*
X127274786Y-61136509D01*
X127013348Y-61199169D01*
X126801017Y-61733375D01*
X121994011Y-61733375D01*
X122702600Y-61024786D01*
X127386509Y-61024786D01*
X128250000Y-61888277D01*
X129113491Y-61024786D01*
X129926509Y-61024786D01*
X130790000Y-61888277D01*
X131653491Y-61024786D01*
X131590831Y-60763348D01*
X131056625Y-60551017D01*
X130481828Y-60559282D01*
X129989169Y-60763348D01*
X129926509Y-61024786D01*
X129113491Y-61024786D01*
X129050831Y-60763348D01*
X128516625Y-60551017D01*
X127941828Y-60559282D01*
X127449169Y-60763348D01*
X127386509Y-61024786D01*
X122702600Y-61024786D01*
X123613693Y-60113693D01*
X123955110Y-59602727D01*
X124075000Y-59000000D01*
X124075000Y-57639531D01*
X124093692Y-57611556D01*
X124225000Y-56951427D01*
X124225000Y-56249750D01*
X124417000Y-56249750D01*
X124417000Y-57935857D01*
X124520981Y-58186889D01*
X124713112Y-58379019D01*
X124964143Y-58483000D01*
X125750250Y-58483000D01*
X125921000Y-58312250D01*
X125921000Y-56079000D01*
X126079000Y-56079000D01*
X126079000Y-58312250D01*
X126249750Y-58483000D01*
X127035857Y-58483000D01*
X127286888Y-58379019D01*
X127479019Y-58186889D01*
X127583000Y-57935857D01*
X127583000Y-56249750D01*
X127412250Y-56079000D01*
X126079000Y-56079000D01*
X125921000Y-56079000D01*
X124587750Y-56079000D01*
X124417000Y-56249750D01*
X124225000Y-56249750D01*
X124225000Y-55048573D01*
X124093692Y-54388444D01*
X123877001Y-54064143D01*
X124417000Y-54064143D01*
X124417000Y-55750250D01*
X124587750Y-55921000D01*
X125921000Y-55921000D01*
X125921000Y-53687750D01*
X126079000Y-53687750D01*
X126079000Y-55921000D01*
X127412250Y-55921000D01*
X127583000Y-55750250D01*
X127583000Y-54064143D01*
X127479019Y-53813111D01*
X127286888Y-53620981D01*
X127035857Y-53517000D01*
X126249750Y-53517000D01*
X126079000Y-53687750D01*
X125921000Y-53687750D01*
X125750250Y-53517000D01*
X124964143Y-53517000D01*
X124713112Y-53620981D01*
X124520981Y-53813111D01*
X124417000Y-54064143D01*
X123877001Y-54064143D01*
X123719759Y-53828814D01*
X123160129Y-53454881D01*
X122500000Y-53323573D01*
X121839871Y-53454881D01*
X121280241Y-53828814D01*
X120906308Y-54388444D01*
X120775000Y-55048573D01*
X120775000Y-56951427D01*
X120906308Y-57611556D01*
X120925000Y-57639531D01*
X120925000Y-58347614D01*
X119347529Y-59925085D01*
X118789558Y-59924598D01*
X117934714Y-60277812D01*
X117280111Y-60931274D01*
X116925405Y-61785500D01*
X116924598Y-62710442D01*
X115416944Y-62710442D01*
X119562934Y-58564452D01*
X119660129Y-58545119D01*
X120219759Y-58171186D01*
X120593692Y-57611556D01*
X120725000Y-56951427D01*
X120725000Y-55048573D01*
X120593692Y-54388444D01*
X120219759Y-53828814D01*
X119660129Y-53454881D01*
X119000000Y-53323573D01*
X118339871Y-53454881D01*
X117780241Y-53828814D01*
X117406308Y-54388444D01*
X117275000Y-55048573D01*
X117275000Y-56397614D01*
X117225000Y-56447614D01*
X117225000Y-55048573D01*
X117093692Y-54388444D01*
X116719759Y-53828814D01*
X116160129Y-53454881D01*
X115500000Y-53323573D01*
X114839871Y-53454881D01*
X114280241Y-53828814D01*
X113906308Y-54388444D01*
X113775000Y-55048573D01*
X113775000Y-55497614D01*
X108483000Y-60789614D01*
X108483000Y-60249750D01*
X108312250Y-60079000D01*
X106079000Y-60079000D01*
X106079000Y-61412250D01*
X106249750Y-61583000D01*
X107689614Y-61583000D01*
X107406996Y-61865618D01*
X106951427Y-61775000D01*
X105048573Y-61775000D01*
X104388444Y-61906308D01*
X103828814Y-62280241D01*
X103454881Y-62839871D01*
X103323573Y-63500000D01*
X100758000Y-63500000D01*
X100758000Y-60249750D01*
X103517000Y-60249750D01*
X103517000Y-61035857D01*
X103620981Y-61286888D01*
X103813111Y-61479019D01*
X104064143Y-61583000D01*
X105750250Y-61583000D01*
X105921000Y-61412250D01*
X105921000Y-60079000D01*
X103687750Y-60079000D01*
X103517000Y-60249750D01*
X100758000Y-60249750D01*
X100758000Y-58964143D01*
X103517000Y-58964143D01*
X103517000Y-59750250D01*
X103687750Y-59921000D01*
X105921000Y-59921000D01*
X105921000Y-58587750D01*
X106079000Y-58587750D01*
X106079000Y-59921000D01*
X108312250Y-59921000D01*
X108483000Y-59750250D01*
X108483000Y-58964143D01*
X108379019Y-58713112D01*
X108186889Y-58520981D01*
X107935857Y-58417000D01*
X106249750Y-58417000D01*
X106079000Y-58587750D01*
X105921000Y-58587750D01*
X105750250Y-58417000D01*
X104064143Y-58417000D01*
X103813111Y-58520981D01*
X103620981Y-58713112D01*
X103517000Y-58964143D01*
X100758000Y-58964143D01*
X100758000Y-50758000D01*
X149242000Y-50758000D01*
X149242000Y-99242000D01*
D44*
G36*
X149529000Y-149665000D02*
X100479000Y-149665000D01*
X100479000Y-141188500D01*
X109357540Y-141188500D01*
X109357540Y-141650325D01*
X109457715Y-141892167D01*
X109642813Y-142077266D01*
X109884656Y-142177440D01*
X110346480Y-142177440D01*
X110510980Y-142012940D01*
X110510980Y-141024000D01*
X109522040Y-141024000D01*
X109357540Y-141188500D01*
X100479000Y-141188500D01*
X100479000Y-140189675D01*
X109357540Y-140189675D01*
X109357540Y-140651500D01*
X109522040Y-140816000D01*
X110510980Y-140816000D01*
X110510980Y-139827060D01*
X110718980Y-139827060D01*
X110718980Y-140816000D01*
X110738980Y-140816000D01*
X110738980Y-141024000D01*
X110718980Y-141024000D01*
X110718980Y-142012940D01*
X110883480Y-142177440D01*
X111345304Y-142177440D01*
X111587147Y-142077266D01*
X111772245Y-141892167D01*
X111813698Y-141792091D01*
X111821240Y-141803812D01*
X111954909Y-141895144D01*
X112113580Y-141927276D01*
X113312460Y-141927276D01*
X113460691Y-141899384D01*
X113596832Y-141811780D01*
X113688164Y-141678111D01*
X113720296Y-141519440D01*
X113720296Y-141445000D01*
X114156164Y-141445000D01*
X114156164Y-141570000D01*
X114184056Y-141718231D01*
X114271660Y-141854372D01*
X114405329Y-141945704D01*
X114564000Y-141977836D01*
X116064000Y-141977836D01*
X116212231Y-141949944D01*
X116348372Y-141862340D01*
X116439704Y-141728671D01*
X116471836Y-141570000D01*
X116471836Y-140270000D01*
X116443944Y-140121769D01*
X116356340Y-139985628D01*
X116222671Y-139894296D01*
X116064000Y-139862164D01*
X114564000Y-139862164D01*
X114415769Y-139890056D01*
X114279628Y-139977660D01*
X114188296Y-140111329D01*
X114156164Y-140270000D01*
X114156164Y-140395000D01*
X113720296Y-140395000D01*
X113720296Y-140320560D01*
X113692404Y-140172329D01*
X113604800Y-140036188D01*
X113471131Y-139944856D01*
X113312460Y-139912724D01*
X112113580Y-139912724D01*
X111965349Y-139940616D01*
X111829208Y-140028220D01*
X111814474Y-140049783D01*
X111772245Y-139947833D01*
X111587147Y-139762734D01*
X111345304Y-139662560D01*
X110883480Y-139662560D01*
X110718980Y-139827060D01*
X110510980Y-139827060D01*
X110346480Y-139662560D01*
X109884656Y-139662560D01*
X109642813Y-139762734D01*
X109457715Y-139947833D01*
X109357540Y-140189675D01*
X100479000Y-140189675D01*
X100479000Y-138188500D01*
X109308520Y-138188500D01*
X109308520Y-138650325D01*
X109408695Y-138892167D01*
X109593793Y-139077266D01*
X109835636Y-139177440D01*
X110297460Y-139177440D01*
X110461960Y-139012940D01*
X110461960Y-138024000D01*
X109473020Y-138024000D01*
X109308520Y-138188500D01*
X100479000Y-138188500D01*
X100479000Y-137189675D01*
X109308520Y-137189675D01*
X109308520Y-137651500D01*
X109473020Y-137816000D01*
X110461960Y-137816000D01*
X110461960Y-136827060D01*
X110297460Y-136662560D01*
X109835636Y-136662560D01*
X109593793Y-136762734D01*
X109408695Y-136947833D01*
X109308520Y-137189675D01*
X100479000Y-137189675D01*
X100479000Y-135188500D01*
X109308520Y-135188500D01*
X109308520Y-135650325D01*
X109408695Y-135892167D01*
X109593793Y-136077266D01*
X109835636Y-136177440D01*
X110297460Y-136177440D01*
X110461960Y-136012940D01*
X110461960Y-135024000D01*
X109473020Y-135024000D01*
X109308520Y-135188500D01*
X100479000Y-135188500D01*
X100479000Y-134189675D01*
X109308520Y-134189675D01*
X109308520Y-134651500D01*
X109473020Y-134816000D01*
X110461960Y-134816000D01*
X110461960Y-133827060D01*
X110669960Y-133827060D01*
X110669960Y-134816000D01*
X110689960Y-134816000D01*
X110689960Y-135024000D01*
X110669960Y-135024000D01*
X110669960Y-136012940D01*
X110834460Y-136177440D01*
X111296284Y-136177440D01*
X111538127Y-136077266D01*
X111723225Y-135892167D01*
X111764678Y-135792091D01*
X111772220Y-135803812D01*
X111905889Y-135895144D01*
X112064560Y-135927276D01*
X113263440Y-135927276D01*
X113411671Y-135899384D01*
X113547812Y-135811780D01*
X113639144Y-135678111D01*
X113671276Y-135519440D01*
X113671276Y-135445000D01*
X114156164Y-135445000D01*
X114156164Y-135570000D01*
X114184056Y-135718231D01*
X114271660Y-135854372D01*
X114405329Y-135945704D01*
X114564000Y-135977836D01*
X116064000Y-135977836D01*
X116212231Y-135949944D01*
X116339000Y-135868371D01*
X116339000Y-136973780D01*
X116222671Y-136894296D01*
X116064000Y-136862164D01*
X114564000Y-136862164D01*
X114415769Y-136890056D01*
X114279628Y-136977660D01*
X114188296Y-137111329D01*
X114156164Y-137270000D01*
X114156164Y-137395000D01*
X113671276Y-137395000D01*
X113671276Y-137320560D01*
X113643384Y-137172329D01*
X113555780Y-137036188D01*
X113422111Y-136944856D01*
X113263440Y-136912724D01*
X112064560Y-136912724D01*
X111916329Y-136940616D01*
X111780188Y-137028220D01*
X111765454Y-137049783D01*
X111723225Y-136947833D01*
X111538127Y-136762734D01*
X111296284Y-136662560D01*
X110834460Y-136662560D01*
X110669960Y-136827060D01*
X110669960Y-137816000D01*
X110689960Y-137816000D01*
X110689960Y-138024000D01*
X110669960Y-138024000D01*
X110669960Y-139012940D01*
X110834460Y-139177440D01*
X111296284Y-139177440D01*
X111538127Y-139077266D01*
X111723225Y-138892167D01*
X111764678Y-138792091D01*
X111772220Y-138803812D01*
X111905889Y-138895144D01*
X112064560Y-138927276D01*
X113263440Y-138927276D01*
X113411671Y-138899384D01*
X113547812Y-138811780D01*
X113639144Y-138678111D01*
X113671276Y-138519440D01*
X113671276Y-138445000D01*
X114156164Y-138445000D01*
X114156164Y-138570000D01*
X114184056Y-138718231D01*
X114271660Y-138854372D01*
X114405329Y-138945704D01*
X114564000Y-138977836D01*
X116064000Y-138977836D01*
X116212231Y-138949944D01*
X116339000Y-138868371D01*
X116339000Y-138870000D01*
X116378963Y-139070909D01*
X116492769Y-139241231D01*
X117137504Y-139885966D01*
X117115769Y-139890056D01*
X116979628Y-139977660D01*
X116888296Y-140111329D01*
X116856164Y-140270000D01*
X116856164Y-141570000D01*
X116884056Y-141718231D01*
X116971660Y-141854372D01*
X117105329Y-141945704D01*
X117264000Y-141977836D01*
X118764000Y-141977836D01*
X118912231Y-141949944D01*
X119048372Y-141862340D01*
X119139704Y-141728671D01*
X119171836Y-141570000D01*
X119171836Y-140270000D01*
X119143944Y-140121769D01*
X119056340Y-139985628D01*
X118922671Y-139894296D01*
X118888987Y-139887475D01*
X124511462Y-134265000D01*
X133999000Y-134265000D01*
X134199909Y-134225037D01*
X134370231Y-134111231D01*
X135470231Y-133011231D01*
X135584037Y-132840909D01*
X135624000Y-132640000D01*
X135624000Y-132445545D01*
X135683372Y-132407340D01*
X135734055Y-132333162D01*
X135776660Y-132399372D01*
X135844000Y-132445383D01*
X135844000Y-134997538D01*
X135114870Y-135726668D01*
X134918726Y-135645222D01*
X134411499Y-135644779D01*
X133942714Y-135838477D01*
X133583738Y-136196827D01*
X133495172Y-136410117D01*
X133372760Y-136113857D01*
X132972251Y-135712649D01*
X132448693Y-135495248D01*
X131881794Y-135494754D01*
X131357857Y-135711240D01*
X130956649Y-136111749D01*
X130739248Y-136635307D01*
X130738754Y-137202206D01*
X130864000Y-137505325D01*
X130864000Y-144334872D01*
X130739248Y-144635307D01*
X130738754Y-145202206D01*
X130955240Y-145726143D01*
X131355749Y-146127351D01*
X131879307Y-146344752D01*
X132446206Y-146345246D01*
X132970143Y-146128760D01*
X133371351Y-145728251D01*
X133495186Y-145430025D01*
X133582477Y-145641286D01*
X133940827Y-146000262D01*
X134409274Y-146194778D01*
X134916501Y-146195221D01*
X135385286Y-146001523D01*
X135744262Y-145643173D01*
X135914178Y-145233970D01*
X136082477Y-145641286D01*
X136440827Y-146000262D01*
X136909274Y-146194778D01*
X137416501Y-146195221D01*
X137885286Y-146001523D01*
X138244262Y-145643173D01*
X138438778Y-145174726D01*
X138439221Y-144667499D01*
X138314000Y-144364441D01*
X138314000Y-137475225D01*
X138438778Y-137174726D01*
X138439221Y-136667499D01*
X138245523Y-136198714D01*
X137887173Y-135839738D01*
X137689000Y-135757449D01*
X137689000Y-133057462D01*
X138010231Y-132736231D01*
X138124037Y-132565909D01*
X138124920Y-132561472D01*
X138236273Y-132672825D01*
X138478115Y-132773000D01*
X138640500Y-132773000D01*
X138805000Y-132608500D01*
X138805000Y-131444000D01*
X139013000Y-131444000D01*
X139013000Y-132608500D01*
X139177500Y-132773000D01*
X139339885Y-132773000D01*
X139581727Y-132672825D01*
X139766826Y-132487727D01*
X139867000Y-132245884D01*
X139867000Y-131608500D01*
X139702500Y-131444000D01*
X139013000Y-131444000D01*
X138805000Y-131444000D01*
X138785000Y-131444000D01*
X138785000Y-131236000D01*
X138805000Y-131236000D01*
X138805000Y-130071500D01*
X139013000Y-130071500D01*
X139013000Y-131236000D01*
X139702500Y-131236000D01*
X139867000Y-131071500D01*
X139867000Y-130434116D01*
X139766826Y-130192273D01*
X139581727Y-130007175D01*
X139339885Y-129907000D01*
X139177500Y-129907000D01*
X139013000Y-130071500D01*
X138805000Y-130071500D01*
X138640500Y-129907000D01*
X138478115Y-129907000D01*
X138236273Y-130007175D01*
X138061480Y-130181967D01*
X137939000Y-130157164D01*
X137339000Y-130157164D01*
X137190769Y-130185056D01*
X137054628Y-130272660D01*
X137003945Y-130346838D01*
X136961340Y-130280628D01*
X136827671Y-130189296D01*
X136669000Y-130157164D01*
X136069000Y-130157164D01*
X135920769Y-130185056D01*
X135784628Y-130272660D01*
X135733945Y-130346838D01*
X135691340Y-130280628D01*
X135557671Y-130189296D01*
X135399000Y-130157164D01*
X134799000Y-130157164D01*
X134650769Y-130185056D01*
X134514628Y-130272660D01*
X134423296Y-130406329D01*
X134391164Y-130565000D01*
X134391164Y-132115000D01*
X134419056Y-132263231D01*
X134506660Y-132399372D01*
X134560428Y-132436110D01*
X133781538Y-133215000D01*
X124294000Y-133215000D01*
X124093091Y-133254963D01*
X123922769Y-133368769D01*
X119171836Y-138119702D01*
X119171836Y-137270000D01*
X119143944Y-137121769D01*
X119056340Y-136985628D01*
X118922671Y-136894296D01*
X118888987Y-136887475D01*
X119460232Y-136316230D01*
X119574038Y-136145908D01*
X119614001Y-135944999D01*
X119614001Y-133448393D01*
X119574038Y-133247484D01*
X119460232Y-133077162D01*
X118212171Y-131829101D01*
X118212255Y-131732898D01*
X118105911Y-131475526D01*
X117909170Y-131278441D01*
X117651984Y-131171648D01*
X117373506Y-131171405D01*
X117116134Y-131277749D01*
X116981807Y-131411842D01*
X116885788Y-131315655D01*
X116628602Y-131208862D01*
X116350124Y-131208619D01*
X116092752Y-131314963D01*
X115895667Y-131511704D01*
X115788874Y-131768890D01*
X115788694Y-131974782D01*
X115674322Y-131927290D01*
X115395844Y-131927047D01*
X115138472Y-132033391D01*
X115069575Y-132102168D01*
X113016832Y-132102168D01*
X112815923Y-132142131D01*
X112645601Y-132255937D01*
X112461575Y-132439963D01*
X112365372Y-132439879D01*
X112108000Y-132546223D01*
X111910915Y-132742964D01*
X111804122Y-133000150D01*
X111803879Y-133278628D01*
X111910223Y-133536000D01*
X112106964Y-133733085D01*
X112364150Y-133839878D01*
X112642628Y-133840121D01*
X112900000Y-133733777D01*
X113097085Y-133537036D01*
X113203878Y-133279850D01*
X113203963Y-133182499D01*
X113234294Y-133152168D01*
X115069470Y-133152168D01*
X115137436Y-133220253D01*
X115394622Y-133327046D01*
X115491973Y-133327131D01*
X116027006Y-133862164D01*
X114564000Y-133862164D01*
X114415769Y-133890056D01*
X114279628Y-133977660D01*
X114188296Y-134111329D01*
X114156164Y-134270000D01*
X114156164Y-134395000D01*
X113671276Y-134395000D01*
X113671276Y-134320560D01*
X113643384Y-134172329D01*
X113555780Y-134036188D01*
X113422111Y-133944856D01*
X113263440Y-133912724D01*
X112064560Y-133912724D01*
X111916329Y-133940616D01*
X111780188Y-134028220D01*
X111765454Y-134049783D01*
X111723225Y-133947833D01*
X111538127Y-133762734D01*
X111296284Y-133662560D01*
X110834460Y-133662560D01*
X110669960Y-133827060D01*
X110461960Y-133827060D01*
X110297460Y-133662560D01*
X109835636Y-133662560D01*
X109593793Y-133762734D01*
X109408695Y-133947833D01*
X109308520Y-134189675D01*
X100479000Y-134189675D01*
X100479000Y-127920000D01*
X103720259Y-127920000D01*
X103816445Y-128403559D01*
X104090359Y-128813500D01*
X104500300Y-129087414D01*
X104983859Y-129183600D01*
X105344141Y-129183600D01*
X105827700Y-129087414D01*
X106237641Y-128813500D01*
X106375187Y-128607649D01*
X107154538Y-129387000D01*
X106606538Y-129935000D01*
X106483865Y-129935000D01*
X106237641Y-129566500D01*
X105827700Y-129292586D01*
X105344141Y-129196400D01*
X104983859Y-129196400D01*
X104500300Y-129292586D01*
X104090359Y-129566500D01*
X103816445Y-129976441D01*
X103720259Y-130460000D01*
X103816445Y-130943559D01*
X104090359Y-131353500D01*
X104500300Y-131627414D01*
X104983859Y-131723600D01*
X105344141Y-131723600D01*
X105827700Y-131627414D01*
X106237641Y-131353500D01*
X106483865Y-130985000D01*
X106824000Y-130985000D01*
X107024909Y-130945037D01*
X107195231Y-130831231D01*
X107781462Y-130245000D01*
X118366538Y-130245000D01*
X120632769Y-132511231D01*
X120803091Y-132625037D01*
X121004000Y-132665000D01*
X124004000Y-132665000D01*
X124204909Y-132625037D01*
X124375231Y-132511231D01*
X124975231Y-131911231D01*
X125089037Y-131740909D01*
X125129000Y-131540000D01*
X125129000Y-130397836D01*
X125704000Y-130397836D01*
X125710165Y-130396676D01*
X125718963Y-130440909D01*
X125832769Y-130611231D01*
X126932769Y-131711231D01*
X127103091Y-131825037D01*
X127304000Y-131865000D01*
X131754000Y-131865000D01*
X131954909Y-131825037D01*
X132125231Y-131711231D01*
X134171462Y-129665000D01*
X143086538Y-129665000D01*
X143349103Y-129927565D01*
X143316445Y-129976441D01*
X143220259Y-130460000D01*
X143316445Y-130943559D01*
X143590359Y-131353500D01*
X144000300Y-131627414D01*
X144483859Y-131723600D01*
X144844141Y-131723600D01*
X145327700Y-131627414D01*
X145737641Y-131353500D01*
X146011555Y-130943559D01*
X146107741Y-130460000D01*
X146011555Y-129976441D01*
X145737641Y-129566500D01*
X145327700Y-129292586D01*
X144844141Y-129196400D01*
X144483859Y-129196400D01*
X144166074Y-129259612D01*
X143980940Y-129074478D01*
X144000300Y-129087414D01*
X144483859Y-129183600D01*
X144844141Y-129183600D01*
X145327700Y-129087414D01*
X145737641Y-128813500D01*
X146011555Y-128403559D01*
X146107741Y-127920000D01*
X146011555Y-127436441D01*
X145737641Y-127026500D01*
X145327700Y-126752586D01*
X144844141Y-126656400D01*
X144483859Y-126656400D01*
X144000300Y-126752586D01*
X143590359Y-127026500D01*
X143316445Y-127436441D01*
X143220259Y-127920000D01*
X143263608Y-128137930D01*
X143236549Y-128164989D01*
X133767600Y-128164989D01*
X133566691Y-128204952D01*
X133396369Y-128318758D01*
X131500128Y-130215000D01*
X128723016Y-130215000D01*
X128762000Y-130120884D01*
X128762000Y-129658500D01*
X128597500Y-129494000D01*
X127908000Y-129494000D01*
X127908000Y-129514000D01*
X127711836Y-129514000D01*
X127711836Y-128790000D01*
X127700000Y-128727098D01*
X127700000Y-128296500D01*
X127535500Y-128132000D01*
X127373115Y-128132000D01*
X127131273Y-128232175D01*
X126981283Y-128382164D01*
X126704000Y-128382164D01*
X126600329Y-128401671D01*
X126504000Y-128382164D01*
X125904000Y-128382164D01*
X125897835Y-128383324D01*
X125889037Y-128339091D01*
X125775231Y-128168769D01*
X125305231Y-127698769D01*
X125134909Y-127584963D01*
X124934000Y-127545000D01*
X122038998Y-127545000D01*
X121838089Y-127584963D01*
X121761153Y-127636370D01*
X121742329Y-127536329D01*
X121761836Y-127440000D01*
X121761836Y-126840000D01*
X121742329Y-126736329D01*
X121761836Y-126640000D01*
X121761836Y-126040000D01*
X121742329Y-125936329D01*
X121761836Y-125840000D01*
X121761836Y-125270001D01*
X125488999Y-125270001D01*
X125689908Y-125230038D01*
X125860230Y-125116232D01*
X128260464Y-122715998D01*
X128265671Y-122743671D01*
X128246164Y-122840000D01*
X128246164Y-123440000D01*
X128265671Y-123543671D01*
X128246164Y-123640000D01*
X128246164Y-124240000D01*
X128265671Y-124343671D01*
X128246164Y-124440000D01*
X128246164Y-125040000D01*
X128265671Y-125143671D01*
X128246164Y-125240000D01*
X128246164Y-125840000D01*
X128265671Y-125943671D01*
X128246164Y-126040000D01*
X128246164Y-126520740D01*
X128003850Y-126420122D01*
X127725372Y-126419879D01*
X127468000Y-126526223D01*
X127270915Y-126722964D01*
X127164122Y-126980150D01*
X127163879Y-127258628D01*
X127270223Y-127516000D01*
X127466964Y-127713085D01*
X127724150Y-127819878D01*
X127821501Y-127819963D01*
X128133538Y-128132000D01*
X128072500Y-128132000D01*
X127908000Y-128296500D01*
X127908000Y-129286000D01*
X128597500Y-129286000D01*
X128762000Y-129121500D01*
X128762000Y-128659116D01*
X128757328Y-128647836D01*
X129854000Y-128647836D01*
X130002231Y-128619944D01*
X130138372Y-128532340D01*
X130229704Y-128398671D01*
X130261836Y-128240000D01*
X130261836Y-127665000D01*
X131804000Y-127665000D01*
X132004909Y-127625037D01*
X132175231Y-127511231D01*
X133422010Y-126264452D01*
X133443237Y-126315825D01*
X133639978Y-126512910D01*
X133897164Y-126619703D01*
X134175642Y-126619946D01*
X134391164Y-126530894D01*
X134391164Y-126715000D01*
X134419056Y-126863231D01*
X134506660Y-126999372D01*
X134640329Y-127090704D01*
X134799000Y-127122836D01*
X135399000Y-127122836D01*
X135547231Y-127094944D01*
X135683372Y-127007340D01*
X135734055Y-126933162D01*
X135776660Y-126999372D01*
X135800275Y-127015508D01*
X135780856Y-127034893D01*
X135674063Y-127292079D01*
X135673820Y-127570557D01*
X135780164Y-127827929D01*
X135976905Y-128025014D01*
X136234091Y-128131807D01*
X136512569Y-128132050D01*
X136769941Y-128025706D01*
X136967026Y-127828965D01*
X137073819Y-127571779D01*
X137074041Y-127317464D01*
X137208115Y-127373000D01*
X137370500Y-127373000D01*
X137535000Y-127208500D01*
X137535000Y-126044000D01*
X137515000Y-126044000D01*
X137515000Y-125836000D01*
X137535000Y-125836000D01*
X137535000Y-124671500D01*
X137743000Y-124671500D01*
X137743000Y-125836000D01*
X137763000Y-125836000D01*
X137763000Y-126044000D01*
X137743000Y-126044000D01*
X137743000Y-127208500D01*
X137907500Y-127373000D01*
X138069885Y-127373000D01*
X138311727Y-127272825D01*
X138486520Y-127098033D01*
X138609000Y-127122836D01*
X139209000Y-127122836D01*
X139357231Y-127094944D01*
X139493372Y-127007340D01*
X139584704Y-126873671D01*
X139616836Y-126715000D01*
X139616836Y-125165000D01*
X139588944Y-125016769D01*
X139501340Y-124880628D01*
X139489548Y-124872571D01*
X139594424Y-124620000D01*
X139594667Y-124341522D01*
X139488323Y-124084150D01*
X139291582Y-123887065D01*
X139034396Y-123780272D01*
X138755918Y-123780029D01*
X138498546Y-123886373D01*
X138301461Y-124083114D01*
X138194668Y-124340300D01*
X138194478Y-124558608D01*
X138069885Y-124507000D01*
X137907500Y-124507000D01*
X137743000Y-124671500D01*
X137535000Y-124671500D01*
X137370500Y-124507000D01*
X137208115Y-124507000D01*
X136966273Y-124607175D01*
X136791480Y-124781967D01*
X136669000Y-124757164D01*
X136069000Y-124757164D01*
X135920769Y-124785056D01*
X135784628Y-124872660D01*
X135733945Y-124946838D01*
X135691340Y-124880628D01*
X135557671Y-124789296D01*
X135399000Y-124757164D01*
X134929298Y-124757164D01*
X141741462Y-117945000D01*
X143501373Y-117945000D01*
X143582477Y-118141286D01*
X143940827Y-118500262D01*
X144154117Y-118588828D01*
X143857857Y-118711240D01*
X143456649Y-119111749D01*
X143239248Y-119635307D01*
X143238754Y-120202206D01*
X143455240Y-120726143D01*
X143855749Y-121127351D01*
X144379307Y-121344752D01*
X144946206Y-121345246D01*
X145470143Y-121128760D01*
X145871351Y-120728251D01*
X146088752Y-120204693D01*
X146089246Y-119637794D01*
X145872760Y-119113857D01*
X145472251Y-118712649D01*
X145174025Y-118588814D01*
X145385286Y-118501523D01*
X145744262Y-118143173D01*
X145938778Y-117674726D01*
X145939221Y-117167499D01*
X145745523Y-116698714D01*
X145387173Y-116339738D01*
X144977970Y-116169822D01*
X145385286Y-116001523D01*
X145744262Y-115643173D01*
X145938778Y-115174726D01*
X145939221Y-114667499D01*
X145745523Y-114198714D01*
X145387173Y-113839738D01*
X144977970Y-113669822D01*
X145385286Y-113501523D01*
X145744262Y-113143173D01*
X145938778Y-112674726D01*
X145939221Y-112167499D01*
X145745523Y-111698714D01*
X145387173Y-111339738D01*
X144918726Y-111145222D01*
X144411499Y-111144779D01*
X143942714Y-111338477D01*
X143583738Y-111696827D01*
X143389222Y-112165274D01*
X143388779Y-112672501D01*
X143470721Y-112870817D01*
X140866117Y-115475421D01*
X140752311Y-115645743D01*
X140712348Y-115846652D01*
X140712348Y-116122538D01*
X139049199Y-117785687D01*
X139011555Y-117596441D01*
X138737641Y-117186500D01*
X138327700Y-116912586D01*
X137844141Y-116816400D01*
X137483859Y-116816400D01*
X137000300Y-116912586D01*
X136847990Y-117014356D01*
X136847990Y-116605644D01*
X137000300Y-116707414D01*
X137483859Y-116803600D01*
X137844141Y-116803600D01*
X138327700Y-116707414D01*
X138737641Y-116433500D01*
X139011555Y-116023559D01*
X139107741Y-115540000D01*
X139011555Y-115056441D01*
X138737641Y-114646500D01*
X138327700Y-114372586D01*
X137844141Y-114276400D01*
X137483859Y-114276400D01*
X137000300Y-114372586D01*
X136847990Y-114474356D01*
X136847990Y-114406072D01*
X137072322Y-114181740D01*
X137483859Y-114263600D01*
X137844141Y-114263600D01*
X138327700Y-114167414D01*
X138737641Y-113893500D01*
X139011555Y-113483559D01*
X139107741Y-113000000D01*
X139011555Y-112516441D01*
X138737641Y-112106500D01*
X138327700Y-111832586D01*
X137844141Y-111736400D01*
X137483859Y-111736400D01*
X137000300Y-111832586D01*
X136590359Y-112106500D01*
X136316445Y-112516441D01*
X136220259Y-113000000D01*
X136311324Y-113457814D01*
X135951759Y-113817379D01*
X135837953Y-113987701D01*
X135797990Y-114188610D01*
X135797990Y-117690770D01*
X134829000Y-118659760D01*
X134829000Y-109757462D01*
X136141462Y-108445000D01*
X136344135Y-108445000D01*
X136590359Y-108813500D01*
X137000300Y-109087414D01*
X137483859Y-109183600D01*
X137844141Y-109183600D01*
X138327700Y-109087414D01*
X138737641Y-108813500D01*
X139011555Y-108403559D01*
X139107741Y-107920000D01*
X139011555Y-107436441D01*
X138737641Y-107026500D01*
X138327700Y-106752586D01*
X137844141Y-106656400D01*
X137483859Y-106656400D01*
X137000300Y-106752586D01*
X136590359Y-107026500D01*
X136344135Y-107395000D01*
X135924000Y-107395000D01*
X135723091Y-107434963D01*
X135552769Y-107548769D01*
X133932769Y-109168769D01*
X133818963Y-109339091D01*
X133779000Y-109540000D01*
X133779000Y-111638264D01*
X133594885Y-111562000D01*
X132932500Y-111562000D01*
X132768000Y-111726500D01*
X132768000Y-113116000D01*
X132788000Y-113116000D01*
X132788000Y-113324000D01*
X132768000Y-113324000D01*
X132768000Y-114713500D01*
X132932500Y-114878000D01*
X133594885Y-114878000D01*
X133779000Y-114801736D01*
X133779000Y-115720100D01*
X133525372Y-115719879D01*
X133268000Y-115826223D01*
X133070915Y-116022964D01*
X132964122Y-116280150D01*
X132964037Y-116377501D01*
X132292769Y-117048769D01*
X132189613Y-117203151D01*
X131785231Y-116798769D01*
X131614909Y-116684963D01*
X131414000Y-116645000D01*
X130696836Y-116645000D01*
X130696836Y-116420000D01*
X130668944Y-116271769D01*
X130581340Y-116135628D01*
X130467894Y-116058114D01*
X130661727Y-115977825D01*
X130846826Y-115792727D01*
X130947000Y-115550884D01*
X130947000Y-114938500D01*
X130782500Y-114774000D01*
X129768000Y-114774000D01*
X129768000Y-114794000D01*
X129560000Y-114794000D01*
X129560000Y-114774000D01*
X128545500Y-114774000D01*
X128381000Y-114938500D01*
X128381000Y-115550884D01*
X128481174Y-115792727D01*
X128666273Y-115977825D01*
X128861688Y-116058769D01*
X128754628Y-116127660D01*
X128663296Y-116261329D01*
X128631164Y-116420000D01*
X128631164Y-117723156D01*
X128609659Y-117671110D01*
X128412918Y-117474025D01*
X128155732Y-117367232D01*
X127877254Y-117366989D01*
X127619882Y-117473333D01*
X127529000Y-117564056D01*
X127529000Y-113789116D01*
X128381000Y-113789116D01*
X128381000Y-114401500D01*
X128545500Y-114566000D01*
X129560000Y-114566000D01*
X129560000Y-113426500D01*
X129768000Y-113426500D01*
X129768000Y-114566000D01*
X130782500Y-114566000D01*
X130947000Y-114401500D01*
X130947000Y-113789116D01*
X130846826Y-113547273D01*
X130788053Y-113488500D01*
X131206000Y-113488500D01*
X131206000Y-114350884D01*
X131306174Y-114592727D01*
X131491273Y-114777825D01*
X131733115Y-114878000D01*
X132395500Y-114878000D01*
X132560000Y-114713500D01*
X132560000Y-113324000D01*
X131370500Y-113324000D01*
X131206000Y-113488500D01*
X130788053Y-113488500D01*
X130661727Y-113362175D01*
X130419885Y-113262000D01*
X129932500Y-113262000D01*
X129768000Y-113426500D01*
X129560000Y-113426500D01*
X129395500Y-113262000D01*
X128908115Y-113262000D01*
X128666273Y-113362175D01*
X128481174Y-113547273D01*
X128381000Y-113789116D01*
X127529000Y-113789116D01*
X127529000Y-112947462D01*
X128387346Y-112089116D01*
X131206000Y-112089116D01*
X131206000Y-112951500D01*
X131370500Y-113116000D01*
X132560000Y-113116000D01*
X132560000Y-111726500D01*
X132395500Y-111562000D01*
X131733115Y-111562000D01*
X131491273Y-111662175D01*
X131306174Y-111847273D01*
X131206000Y-112089116D01*
X128387346Y-112089116D01*
X129375231Y-111101231D01*
X129489037Y-110930909D01*
X129529000Y-110730000D01*
X129529000Y-109857462D01*
X132075231Y-107311231D01*
X132189037Y-107140909D01*
X132229000Y-106940000D01*
X132229000Y-106739865D01*
X132597500Y-106493641D01*
X132871414Y-106083700D01*
X132967600Y-105600141D01*
X132967600Y-105239859D01*
X132871414Y-104756300D01*
X132711118Y-104516400D01*
X136240164Y-104516400D01*
X136240164Y-106243600D01*
X136268056Y-106391831D01*
X136355660Y-106527972D01*
X136489329Y-106619304D01*
X136648000Y-106651436D01*
X138680000Y-106651436D01*
X138828231Y-106623544D01*
X138964372Y-106535940D01*
X139055704Y-106402271D01*
X139087836Y-106243600D01*
X139087836Y-104516400D01*
X139059944Y-104368169D01*
X138972340Y-104232028D01*
X138838671Y-104140696D01*
X138680000Y-104108564D01*
X136648000Y-104108564D01*
X136499769Y-104136456D01*
X136363628Y-104224060D01*
X136272296Y-104357729D01*
X136240164Y-104516400D01*
X132711118Y-104516400D01*
X132597500Y-104346359D01*
X132187559Y-104072445D01*
X131704000Y-103976259D01*
X131220441Y-104072445D01*
X130810500Y-104346359D01*
X130536586Y-104756300D01*
X130440400Y-105239859D01*
X130440400Y-105600141D01*
X130536586Y-106083700D01*
X130810500Y-106493641D01*
X131168613Y-106732925D01*
X129689000Y-108212538D01*
X129689000Y-106739865D01*
X130057500Y-106493641D01*
X130331414Y-106083700D01*
X130427600Y-105600141D01*
X130427600Y-105239859D01*
X130331414Y-104756300D01*
X130057500Y-104346359D01*
X129647559Y-104072445D01*
X129164000Y-103976259D01*
X128680441Y-104072445D01*
X128270500Y-104346359D01*
X127996586Y-104756300D01*
X127900400Y-105239859D01*
X127900400Y-105600141D01*
X127996586Y-106083700D01*
X128270500Y-106493641D01*
X128639000Y-106739865D01*
X128639000Y-108222538D01*
X127932769Y-108928769D01*
X127818963Y-109099091D01*
X127779000Y-109300000D01*
X127779000Y-110312538D01*
X125832769Y-112258769D01*
X125718963Y-112429091D01*
X125679000Y-112630000D01*
X125679000Y-118215033D01*
X125558833Y-118165135D01*
X125250519Y-118164866D01*
X125129000Y-118215077D01*
X125129000Y-112086000D01*
X125089037Y-111885091D01*
X124975231Y-111714769D01*
X119891649Y-106631187D01*
X120097500Y-106493641D01*
X120371414Y-106083700D01*
X120467600Y-105600141D01*
X120467600Y-105239859D01*
X120371414Y-104756300D01*
X120097500Y-104346359D01*
X119687559Y-104072445D01*
X119204000Y-103976259D01*
X118720441Y-104072445D01*
X118310500Y-104346359D01*
X118036586Y-104756300D01*
X117940400Y-105239859D01*
X117940400Y-105600141D01*
X118036586Y-106083700D01*
X118275859Y-106441797D01*
X117845740Y-106011678D01*
X117927600Y-105600141D01*
X117927600Y-105239859D01*
X117831414Y-104756300D01*
X117557500Y-104346359D01*
X117147559Y-104072445D01*
X116664000Y-103976259D01*
X116180441Y-104072445D01*
X115770500Y-104346359D01*
X115496586Y-104756300D01*
X115400400Y-105239859D01*
X115400400Y-105600141D01*
X115496586Y-106083700D01*
X115770500Y-106493641D01*
X116180441Y-106767555D01*
X116664000Y-106863741D01*
X117121814Y-106772676D01*
X123279000Y-112929862D01*
X123279000Y-119572538D01*
X121725221Y-118018759D01*
X121554899Y-117904953D01*
X121353990Y-117864990D01*
X119494012Y-117864990D01*
X119426046Y-117796905D01*
X119168860Y-117690112D01*
X118890382Y-117689869D01*
X118633010Y-117796213D01*
X118435925Y-117992954D01*
X118329132Y-118250140D01*
X118328889Y-118528618D01*
X118435233Y-118785990D01*
X118631974Y-118983075D01*
X118889160Y-119089868D01*
X119167638Y-119090111D01*
X119425010Y-118983767D01*
X119493907Y-118914990D01*
X121136528Y-118914990D01*
X121853538Y-119632000D01*
X121773115Y-119632000D01*
X121531273Y-119732175D01*
X121346174Y-119917273D01*
X121246000Y-120159116D01*
X121246000Y-120621500D01*
X121410500Y-120786000D01*
X122100000Y-120786000D01*
X122100000Y-120766000D01*
X122296164Y-120766000D01*
X122296164Y-121490000D01*
X122308000Y-121552902D01*
X122308000Y-121983500D01*
X122472500Y-122148000D01*
X122634885Y-122148000D01*
X122876727Y-122047825D01*
X123026717Y-121897836D01*
X123304000Y-121897836D01*
X123407671Y-121878329D01*
X123504000Y-121897836D01*
X124104000Y-121897836D01*
X124207671Y-121878329D01*
X124304000Y-121897836D01*
X124904000Y-121897836D01*
X125007671Y-121878329D01*
X125104000Y-121897836D01*
X125704000Y-121897836D01*
X125807671Y-121878329D01*
X125904000Y-121897836D01*
X126504000Y-121897836D01*
X126607671Y-121878329D01*
X126704000Y-121897836D01*
X127304000Y-121897836D01*
X127407671Y-121878329D01*
X127504000Y-121897836D01*
X127593702Y-121897836D01*
X125271537Y-124220001D01*
X121761836Y-124220001D01*
X121761836Y-123640000D01*
X121742329Y-123536329D01*
X121761836Y-123440000D01*
X121761836Y-122840000D01*
X121742329Y-122736329D01*
X121761836Y-122640000D01*
X121761836Y-122143328D01*
X121773115Y-122148000D01*
X121935500Y-122148000D01*
X122100000Y-121983500D01*
X122100000Y-120994000D01*
X121410500Y-120994000D01*
X121246000Y-121158500D01*
X121246000Y-121620884D01*
X121250672Y-121632164D01*
X120154000Y-121632164D01*
X120005769Y-121660056D01*
X119946233Y-121698366D01*
X119917586Y-121669669D01*
X119660400Y-121562876D01*
X119381922Y-121562633D01*
X119124550Y-121668977D01*
X118927465Y-121865718D01*
X118820672Y-122122904D01*
X118820429Y-122401382D01*
X118926773Y-122658754D01*
X118927669Y-122659651D01*
X118921601Y-122665708D01*
X118814808Y-122922894D01*
X118814565Y-123201372D01*
X118920909Y-123458744D01*
X118932081Y-123469936D01*
X118827039Y-123722905D01*
X118826968Y-123804617D01*
X118278991Y-123256640D01*
X118278991Y-116247471D01*
X118435231Y-116091231D01*
X118549037Y-115920909D01*
X118589000Y-115720000D01*
X118589000Y-115188500D01*
X119351000Y-115188500D01*
X119351000Y-115660885D01*
X119451175Y-115902727D01*
X119636273Y-116087826D01*
X119878116Y-116188000D01*
X120195500Y-116188000D01*
X120360000Y-116023500D01*
X120360000Y-115024000D01*
X120568000Y-115024000D01*
X120568000Y-116023500D01*
X120732500Y-116188000D01*
X121049884Y-116188000D01*
X121291727Y-116087826D01*
X121476825Y-115902727D01*
X121577000Y-115660885D01*
X121577000Y-115188500D01*
X121412500Y-115024000D01*
X120568000Y-115024000D01*
X120360000Y-115024000D01*
X119515500Y-115024000D01*
X119351000Y-115188500D01*
X118589000Y-115188500D01*
X118589000Y-114165000D01*
X118549037Y-113964091D01*
X118435231Y-113793769D01*
X117936813Y-113295351D01*
X118009704Y-113188671D01*
X118041836Y-113030000D01*
X118041836Y-112688500D01*
X119336000Y-112688500D01*
X119336000Y-113160885D01*
X119436175Y-113402727D01*
X119621273Y-113587826D01*
X119827160Y-113673107D01*
X119636273Y-113752174D01*
X119451175Y-113937273D01*
X119351000Y-114179115D01*
X119351000Y-114651500D01*
X119515500Y-114816000D01*
X120360000Y-114816000D01*
X120360000Y-113816500D01*
X120206000Y-113662500D01*
X120345000Y-113523500D01*
X120345000Y-112524000D01*
X120553000Y-112524000D01*
X120553000Y-113523500D01*
X120707000Y-113677500D01*
X120568000Y-113816500D01*
X120568000Y-114816000D01*
X121412500Y-114816000D01*
X121577000Y-114651500D01*
X121577000Y-114179115D01*
X121476825Y-113937273D01*
X121291727Y-113752174D01*
X121085840Y-113666893D01*
X121276727Y-113587826D01*
X121461825Y-113402727D01*
X121562000Y-113160885D01*
X121562000Y-112688500D01*
X121397500Y-112524000D01*
X120553000Y-112524000D01*
X120345000Y-112524000D01*
X119500500Y-112524000D01*
X119336000Y-112688500D01*
X118041836Y-112688500D01*
X118041836Y-111810000D01*
X118017208Y-111679115D01*
X119336000Y-111679115D01*
X119336000Y-112151500D01*
X119500500Y-112316000D01*
X120345000Y-112316000D01*
X120345000Y-111316500D01*
X120553000Y-111316500D01*
X120553000Y-112316000D01*
X121397500Y-112316000D01*
X121562000Y-112151500D01*
X121562000Y-111679115D01*
X121461825Y-111437273D01*
X121276727Y-111252174D01*
X121034884Y-111152000D01*
X120717500Y-111152000D01*
X120553000Y-111316500D01*
X120345000Y-111316500D01*
X120180500Y-111152000D01*
X119863116Y-111152000D01*
X119621273Y-111252174D01*
X119436175Y-111437273D01*
X119336000Y-111679115D01*
X118017208Y-111679115D01*
X118013944Y-111661769D01*
X117926340Y-111525628D01*
X117792671Y-111434296D01*
X117634000Y-111402164D01*
X116724000Y-111402164D01*
X116575769Y-111430056D01*
X116439628Y-111517660D01*
X116348296Y-111651329D01*
X116316164Y-111810000D01*
X116316164Y-111895000D01*
X114671836Y-111895000D01*
X114671836Y-111770000D01*
X114643944Y-111621769D01*
X114556340Y-111485628D01*
X114422671Y-111394296D01*
X114264000Y-111362164D01*
X112764000Y-111362164D01*
X112615769Y-111390056D01*
X112479628Y-111477660D01*
X112388296Y-111611329D01*
X112356164Y-111770000D01*
X112356164Y-113070000D01*
X112384056Y-113218231D01*
X112471660Y-113354372D01*
X112605329Y-113445704D01*
X112764000Y-113477836D01*
X114264000Y-113477836D01*
X114412231Y-113449944D01*
X114548372Y-113362340D01*
X114639704Y-113228671D01*
X114671836Y-113070000D01*
X114671836Y-112945000D01*
X116316164Y-112945000D01*
X116316164Y-113030000D01*
X116344056Y-113178231D01*
X116431660Y-113314372D01*
X116565329Y-113405704D01*
X116683775Y-113429690D01*
X116693963Y-113480909D01*
X116807769Y-113651231D01*
X117058702Y-113902164D01*
X116739000Y-113902164D01*
X116590769Y-113930056D01*
X116454628Y-114017660D01*
X116363296Y-114151329D01*
X116331164Y-114310000D01*
X116331164Y-114395000D01*
X114671836Y-114395000D01*
X114671836Y-114270000D01*
X114643944Y-114121769D01*
X114556340Y-113985628D01*
X114422671Y-113894296D01*
X114264000Y-113862164D01*
X112764000Y-113862164D01*
X112615769Y-113890056D01*
X112479628Y-113977660D01*
X112388296Y-114111329D01*
X112356164Y-114270000D01*
X112356164Y-115570000D01*
X112384056Y-115718231D01*
X112471660Y-115854372D01*
X112605329Y-115945704D01*
X112764000Y-115977836D01*
X114264000Y-115977836D01*
X114412231Y-115949944D01*
X114548372Y-115862340D01*
X114639704Y-115728671D01*
X114671836Y-115570000D01*
X114671836Y-115445000D01*
X116331164Y-115445000D01*
X116331164Y-115530000D01*
X116359056Y-115678231D01*
X116446660Y-115814372D01*
X116580329Y-115905704D01*
X116669000Y-115923661D01*
X116669000Y-117982538D01*
X115735231Y-117048769D01*
X115564909Y-116934963D01*
X115364000Y-116895000D01*
X114671836Y-116895000D01*
X114671836Y-116770000D01*
X114643944Y-116621769D01*
X114556340Y-116485628D01*
X114422671Y-116394296D01*
X114264000Y-116362164D01*
X112764000Y-116362164D01*
X112615769Y-116390056D01*
X112479628Y-116477660D01*
X112388296Y-116611329D01*
X112356164Y-116770000D01*
X112356164Y-118070000D01*
X112384056Y-118218231D01*
X112471660Y-118354372D01*
X112605329Y-118445704D01*
X112724902Y-118469918D01*
X112619628Y-118537660D01*
X112528296Y-118671329D01*
X112496164Y-118830000D01*
X112496164Y-119740000D01*
X112524056Y-119888231D01*
X112611660Y-120024372D01*
X112745329Y-120115704D01*
X112904000Y-120147836D01*
X114124000Y-120147836D01*
X114272231Y-120119944D01*
X114408372Y-120032340D01*
X114499704Y-119898671D01*
X114531836Y-119740000D01*
X114531836Y-118830000D01*
X114503944Y-118681769D01*
X114416340Y-118545628D01*
X114305652Y-118469998D01*
X114412231Y-118449944D01*
X114548372Y-118362340D01*
X114639704Y-118228671D01*
X114671836Y-118070000D01*
X114671836Y-117945000D01*
X115146538Y-117945000D01*
X116139000Y-118937462D01*
X116139000Y-123720000D01*
X116178963Y-123920909D01*
X116292769Y-124091231D01*
X117486208Y-125284670D01*
X117486208Y-126692212D01*
X117526171Y-126893121D01*
X117639977Y-127063443D01*
X118887765Y-128311231D01*
X119058087Y-128425037D01*
X119258996Y-128465000D01*
X119823455Y-128465000D01*
X119861660Y-128524372D01*
X119965028Y-128595000D01*
X107847462Y-128595000D01*
X106801231Y-127548769D01*
X106630909Y-127434963D01*
X106492121Y-127407357D01*
X106237641Y-127026500D01*
X105827700Y-126752586D01*
X105344141Y-126656400D01*
X104983859Y-126656400D01*
X104500300Y-126752586D01*
X104090359Y-127026500D01*
X103816445Y-127436441D01*
X103720259Y-127920000D01*
X100479000Y-127920000D01*
X100479000Y-124858628D01*
X107963879Y-124858628D01*
X108070223Y-125116000D01*
X108266964Y-125313085D01*
X108524150Y-125419878D01*
X108802628Y-125420121D01*
X109060000Y-125313777D01*
X109257085Y-125117036D01*
X109363878Y-124859850D01*
X109364121Y-124581372D01*
X109257777Y-124324000D01*
X109189000Y-124255103D01*
X109189000Y-122823500D01*
X112246000Y-122823500D01*
X112246000Y-123140884D01*
X112346174Y-123382727D01*
X112531273Y-123567825D01*
X112773115Y-123668000D01*
X113245500Y-123668000D01*
X113410000Y-123503500D01*
X113410000Y-122659000D01*
X113618000Y-122659000D01*
X113618000Y-123503500D01*
X113782500Y-123668000D01*
X114254885Y-123668000D01*
X114496727Y-123567825D01*
X114681826Y-123382727D01*
X114782000Y-123140884D01*
X114782000Y-122823500D01*
X114617500Y-122659000D01*
X113618000Y-122659000D01*
X113410000Y-122659000D01*
X112410500Y-122659000D01*
X112246000Y-122823500D01*
X109189000Y-122823500D01*
X109189000Y-122637462D01*
X109706425Y-122120037D01*
X109802628Y-122120121D01*
X110060000Y-122013777D01*
X110104739Y-121969116D01*
X112246000Y-121969116D01*
X112246000Y-122286500D01*
X112410500Y-122451000D01*
X113410000Y-122451000D01*
X113410000Y-121606500D01*
X113618000Y-121606500D01*
X113618000Y-122451000D01*
X114617500Y-122451000D01*
X114782000Y-122286500D01*
X114782000Y-121969116D01*
X114681826Y-121727273D01*
X114496727Y-121542175D01*
X114254885Y-121442000D01*
X113782500Y-121442000D01*
X113618000Y-121606500D01*
X113410000Y-121606500D01*
X113245500Y-121442000D01*
X112773115Y-121442000D01*
X112531273Y-121542175D01*
X112346174Y-121727273D01*
X112246000Y-121969116D01*
X110104739Y-121969116D01*
X110257085Y-121817036D01*
X110363878Y-121559850D01*
X110364121Y-121281372D01*
X110257777Y-121024000D01*
X110061036Y-120826915D01*
X109803850Y-120720122D01*
X109525372Y-120719879D01*
X109268000Y-120826223D01*
X109070915Y-121022964D01*
X108964122Y-121280150D01*
X108964037Y-121377501D01*
X108292769Y-122048769D01*
X108178963Y-122219091D01*
X108139000Y-122420000D01*
X108139000Y-124254998D01*
X108070915Y-124322964D01*
X107964122Y-124580150D01*
X107963879Y-124858628D01*
X100479000Y-124858628D01*
X100479000Y-110202206D01*
X103738754Y-110202206D01*
X103955240Y-110726143D01*
X104355749Y-111127351D01*
X104653975Y-111251186D01*
X104442714Y-111338477D01*
X104083738Y-111696827D01*
X103889222Y-112165274D01*
X103888779Y-112672501D01*
X104082477Y-113141286D01*
X104440827Y-113500262D01*
X104850030Y-113670178D01*
X104442714Y-113838477D01*
X104083738Y-114196827D01*
X103889222Y-114665274D01*
X103888779Y-115172501D01*
X104082477Y-115641286D01*
X104440827Y-116000262D01*
X104850030Y-116170178D01*
X104442714Y-116338477D01*
X104083738Y-116696827D01*
X103889222Y-117165274D01*
X103888779Y-117672501D01*
X104082477Y-118141286D01*
X104440827Y-118500262D01*
X104909274Y-118694778D01*
X105416501Y-118695221D01*
X105885286Y-118501523D01*
X106244262Y-118143173D01*
X106326551Y-117945000D01*
X109656164Y-117945000D01*
X109656164Y-118070000D01*
X109684056Y-118218231D01*
X109771660Y-118354372D01*
X109905329Y-118445704D01*
X110064000Y-118477836D01*
X111564000Y-118477836D01*
X111712231Y-118449944D01*
X111848372Y-118362340D01*
X111939704Y-118228671D01*
X111971836Y-118070000D01*
X111971836Y-116770000D01*
X111943944Y-116621769D01*
X111856340Y-116485628D01*
X111722671Y-116394296D01*
X111564000Y-116362164D01*
X110064000Y-116362164D01*
X109915769Y-116390056D01*
X109779628Y-116477660D01*
X109688296Y-116611329D01*
X109656164Y-116770000D01*
X109656164Y-116895000D01*
X106326627Y-116895000D01*
X106245523Y-116698714D01*
X105887173Y-116339738D01*
X105477970Y-116169822D01*
X105885286Y-116001523D01*
X106244262Y-115643173D01*
X106326551Y-115445000D01*
X109656164Y-115445000D01*
X109656164Y-115570000D01*
X109684056Y-115718231D01*
X109771660Y-115854372D01*
X109905329Y-115945704D01*
X110064000Y-115977836D01*
X111564000Y-115977836D01*
X111712231Y-115949944D01*
X111848372Y-115862340D01*
X111939704Y-115728671D01*
X111971836Y-115570000D01*
X111971836Y-114270000D01*
X111943944Y-114121769D01*
X111856340Y-113985628D01*
X111722671Y-113894296D01*
X111564000Y-113862164D01*
X110064000Y-113862164D01*
X109915769Y-113890056D01*
X109779628Y-113977660D01*
X109688296Y-114111329D01*
X109656164Y-114270000D01*
X109656164Y-114395000D01*
X106326627Y-114395000D01*
X106245523Y-114198714D01*
X105887173Y-113839738D01*
X105477970Y-113669822D01*
X105885286Y-113501523D01*
X106244262Y-113143173D01*
X106326551Y-112945000D01*
X109656164Y-112945000D01*
X109656164Y-113070000D01*
X109684056Y-113218231D01*
X109771660Y-113354372D01*
X109905329Y-113445704D01*
X110064000Y-113477836D01*
X111564000Y-113477836D01*
X111712231Y-113449944D01*
X111848372Y-113362340D01*
X111939704Y-113228671D01*
X111971836Y-113070000D01*
X111971836Y-111770000D01*
X111943944Y-111621769D01*
X111856340Y-111485628D01*
X111722671Y-111394296D01*
X111564000Y-111362164D01*
X110064000Y-111362164D01*
X109915769Y-111390056D01*
X109779628Y-111477660D01*
X109688296Y-111611329D01*
X109656164Y-111770000D01*
X109656164Y-111895000D01*
X106326627Y-111895000D01*
X106245523Y-111698714D01*
X105887173Y-111339738D01*
X105673883Y-111251172D01*
X105970143Y-111128760D01*
X106371351Y-110728251D01*
X106588752Y-110204693D01*
X106589246Y-109637794D01*
X106372760Y-109113857D01*
X105972251Y-108712649D01*
X105448693Y-108495248D01*
X104881794Y-108494754D01*
X104357857Y-108711240D01*
X103956649Y-109111749D01*
X103739248Y-109635307D01*
X103738754Y-110202206D01*
X100479000Y-110202206D01*
X100479000Y-100615000D01*
X149529000Y-100615000D01*
X149529000Y-149665000D01*
X149529000Y-149665000D01*
G37*
X149529000Y-149665000D02*
X100479000Y-149665000D01*
X100479000Y-141188500D01*
X109357540Y-141188500D01*
X109357540Y-141650325D01*
X109457715Y-141892167D01*
X109642813Y-142077266D01*
X109884656Y-142177440D01*
X110346480Y-142177440D01*
X110510980Y-142012940D01*
X110510980Y-141024000D01*
X109522040Y-141024000D01*
X109357540Y-141188500D01*
X100479000Y-141188500D01*
X100479000Y-140189675D01*
X109357540Y-140189675D01*
X109357540Y-140651500D01*
X109522040Y-140816000D01*
X110510980Y-140816000D01*
X110510980Y-139827060D01*
X110718980Y-139827060D01*
X110718980Y-140816000D01*
X110738980Y-140816000D01*
X110738980Y-141024000D01*
X110718980Y-141024000D01*
X110718980Y-142012940D01*
X110883480Y-142177440D01*
X111345304Y-142177440D01*
X111587147Y-142077266D01*
X111772245Y-141892167D01*
X111813698Y-141792091D01*
X111821240Y-141803812D01*
X111954909Y-141895144D01*
X112113580Y-141927276D01*
X113312460Y-141927276D01*
X113460691Y-141899384D01*
X113596832Y-141811780D01*
X113688164Y-141678111D01*
X113720296Y-141519440D01*
X113720296Y-141445000D01*
X114156164Y-141445000D01*
X114156164Y-141570000D01*
X114184056Y-141718231D01*
X114271660Y-141854372D01*
X114405329Y-141945704D01*
X114564000Y-141977836D01*
X116064000Y-141977836D01*
X116212231Y-141949944D01*
X116348372Y-141862340D01*
X116439704Y-141728671D01*
X116471836Y-141570000D01*
X116471836Y-140270000D01*
X116443944Y-140121769D01*
X116356340Y-139985628D01*
X116222671Y-139894296D01*
X116064000Y-139862164D01*
X114564000Y-139862164D01*
X114415769Y-139890056D01*
X114279628Y-139977660D01*
X114188296Y-140111329D01*
X114156164Y-140270000D01*
X114156164Y-140395000D01*
X113720296Y-140395000D01*
X113720296Y-140320560D01*
X113692404Y-140172329D01*
X113604800Y-140036188D01*
X113471131Y-139944856D01*
X113312460Y-139912724D01*
X112113580Y-139912724D01*
X111965349Y-139940616D01*
X111829208Y-140028220D01*
X111814474Y-140049783D01*
X111772245Y-139947833D01*
X111587147Y-139762734D01*
X111345304Y-139662560D01*
X110883480Y-139662560D01*
X110718980Y-139827060D01*
X110510980Y-139827060D01*
X110346480Y-139662560D01*
X109884656Y-139662560D01*
X109642813Y-139762734D01*
X109457715Y-139947833D01*
X109357540Y-140189675D01*
X100479000Y-140189675D01*
X100479000Y-138188500D01*
X109308520Y-138188500D01*
X109308520Y-138650325D01*
X109408695Y-138892167D01*
X109593793Y-139077266D01*
X109835636Y-139177440D01*
X110297460Y-139177440D01*
X110461960Y-139012940D01*
X110461960Y-138024000D01*
X109473020Y-138024000D01*
X109308520Y-138188500D01*
X100479000Y-138188500D01*
X100479000Y-137189675D01*
X109308520Y-137189675D01*
X109308520Y-137651500D01*
X109473020Y-137816000D01*
X110461960Y-137816000D01*
X110461960Y-136827060D01*
X110297460Y-136662560D01*
X109835636Y-136662560D01*
X109593793Y-136762734D01*
X109408695Y-136947833D01*
X109308520Y-137189675D01*
X100479000Y-137189675D01*
X100479000Y-135188500D01*
X109308520Y-135188500D01*
X109308520Y-135650325D01*
X109408695Y-135892167D01*
X109593793Y-136077266D01*
X109835636Y-136177440D01*
X110297460Y-136177440D01*
X110461960Y-136012940D01*
X110461960Y-135024000D01*
X109473020Y-135024000D01*
X109308520Y-135188500D01*
X100479000Y-135188500D01*
X100479000Y-134189675D01*
X109308520Y-134189675D01*
X109308520Y-134651500D01*
X109473020Y-134816000D01*
X110461960Y-134816000D01*
X110461960Y-133827060D01*
X110669960Y-133827060D01*
X110669960Y-134816000D01*
X110689960Y-134816000D01*
X110689960Y-135024000D01*
X110669960Y-135024000D01*
X110669960Y-136012940D01*
X110834460Y-136177440D01*
X111296284Y-136177440D01*
X111538127Y-136077266D01*
X111723225Y-135892167D01*
X111764678Y-135792091D01*
X111772220Y-135803812D01*
X111905889Y-135895144D01*
X112064560Y-135927276D01*
X113263440Y-135927276D01*
X113411671Y-135899384D01*
X113547812Y-135811780D01*
X113639144Y-135678111D01*
X113671276Y-135519440D01*
X113671276Y-135445000D01*
X114156164Y-135445000D01*
X114156164Y-135570000D01*
X114184056Y-135718231D01*
X114271660Y-135854372D01*
X114405329Y-135945704D01*
X114564000Y-135977836D01*
X116064000Y-135977836D01*
X116212231Y-135949944D01*
X116339000Y-135868371D01*
X116339000Y-136973780D01*
X116222671Y-136894296D01*
X116064000Y-136862164D01*
X114564000Y-136862164D01*
X114415769Y-136890056D01*
X114279628Y-136977660D01*
X114188296Y-137111329D01*
X114156164Y-137270000D01*
X114156164Y-137395000D01*
X113671276Y-137395000D01*
X113671276Y-137320560D01*
X113643384Y-137172329D01*
X113555780Y-137036188D01*
X113422111Y-136944856D01*
X113263440Y-136912724D01*
X112064560Y-136912724D01*
X111916329Y-136940616D01*
X111780188Y-137028220D01*
X111765454Y-137049783D01*
X111723225Y-136947833D01*
X111538127Y-136762734D01*
X111296284Y-136662560D01*
X110834460Y-136662560D01*
X110669960Y-136827060D01*
X110669960Y-137816000D01*
X110689960Y-137816000D01*
X110689960Y-138024000D01*
X110669960Y-138024000D01*
X110669960Y-139012940D01*
X110834460Y-139177440D01*
X111296284Y-139177440D01*
X111538127Y-139077266D01*
X111723225Y-138892167D01*
X111764678Y-138792091D01*
X111772220Y-138803812D01*
X111905889Y-138895144D01*
X112064560Y-138927276D01*
X113263440Y-138927276D01*
X113411671Y-138899384D01*
X113547812Y-138811780D01*
X113639144Y-138678111D01*
X113671276Y-138519440D01*
X113671276Y-138445000D01*
X114156164Y-138445000D01*
X114156164Y-138570000D01*
X114184056Y-138718231D01*
X114271660Y-138854372D01*
X114405329Y-138945704D01*
X114564000Y-138977836D01*
X116064000Y-138977836D01*
X116212231Y-138949944D01*
X116339000Y-138868371D01*
X116339000Y-138870000D01*
X116378963Y-139070909D01*
X116492769Y-139241231D01*
X117137504Y-139885966D01*
X117115769Y-139890056D01*
X116979628Y-139977660D01*
X116888296Y-140111329D01*
X116856164Y-140270000D01*
X116856164Y-141570000D01*
X116884056Y-141718231D01*
X116971660Y-141854372D01*
X117105329Y-141945704D01*
X117264000Y-141977836D01*
X118764000Y-141977836D01*
X118912231Y-141949944D01*
X119048372Y-141862340D01*
X119139704Y-141728671D01*
X119171836Y-141570000D01*
X119171836Y-140270000D01*
X119143944Y-140121769D01*
X119056340Y-139985628D01*
X118922671Y-139894296D01*
X118888987Y-139887475D01*
X124511462Y-134265000D01*
X133999000Y-134265000D01*
X134199909Y-134225037D01*
X134370231Y-134111231D01*
X135470231Y-133011231D01*
X135584037Y-132840909D01*
X135624000Y-132640000D01*
X135624000Y-132445545D01*
X135683372Y-132407340D01*
X135734055Y-132333162D01*
X135776660Y-132399372D01*
X135844000Y-132445383D01*
X135844000Y-134997538D01*
X135114870Y-135726668D01*
X134918726Y-135645222D01*
X134411499Y-135644779D01*
X133942714Y-135838477D01*
X133583738Y-136196827D01*
X133495172Y-136410117D01*
X133372760Y-136113857D01*
X132972251Y-135712649D01*
X132448693Y-135495248D01*
X131881794Y-135494754D01*
X131357857Y-135711240D01*
X130956649Y-136111749D01*
X130739248Y-136635307D01*
X130738754Y-137202206D01*
X130864000Y-137505325D01*
X130864000Y-144334872D01*
X130739248Y-144635307D01*
X130738754Y-145202206D01*
X130955240Y-145726143D01*
X131355749Y-146127351D01*
X131879307Y-146344752D01*
X132446206Y-146345246D01*
X132970143Y-146128760D01*
X133371351Y-145728251D01*
X133495186Y-145430025D01*
X133582477Y-145641286D01*
X133940827Y-146000262D01*
X134409274Y-146194778D01*
X134916501Y-146195221D01*
X135385286Y-146001523D01*
X135744262Y-145643173D01*
X135914178Y-145233970D01*
X136082477Y-145641286D01*
X136440827Y-146000262D01*
X136909274Y-146194778D01*
X137416501Y-146195221D01*
X137885286Y-146001523D01*
X138244262Y-145643173D01*
X138438778Y-145174726D01*
X138439221Y-144667499D01*
X138314000Y-144364441D01*
X138314000Y-137475225D01*
X138438778Y-137174726D01*
X138439221Y-136667499D01*
X138245523Y-136198714D01*
X137887173Y-135839738D01*
X137689000Y-135757449D01*
X137689000Y-133057462D01*
X138010231Y-132736231D01*
X138124037Y-132565909D01*
X138124920Y-132561472D01*
X138236273Y-132672825D01*
X138478115Y-132773000D01*
X138640500Y-132773000D01*
X138805000Y-132608500D01*
X138805000Y-131444000D01*
X139013000Y-131444000D01*
X139013000Y-132608500D01*
X139177500Y-132773000D01*
X139339885Y-132773000D01*
X139581727Y-132672825D01*
X139766826Y-132487727D01*
X139867000Y-132245884D01*
X139867000Y-131608500D01*
X139702500Y-131444000D01*
X139013000Y-131444000D01*
X138805000Y-131444000D01*
X138785000Y-131444000D01*
X138785000Y-131236000D01*
X138805000Y-131236000D01*
X138805000Y-130071500D01*
X139013000Y-130071500D01*
X139013000Y-131236000D01*
X139702500Y-131236000D01*
X139867000Y-131071500D01*
X139867000Y-130434116D01*
X139766826Y-130192273D01*
X139581727Y-130007175D01*
X139339885Y-129907000D01*
X139177500Y-129907000D01*
X139013000Y-130071500D01*
X138805000Y-130071500D01*
X138640500Y-129907000D01*
X138478115Y-129907000D01*
X138236273Y-130007175D01*
X138061480Y-130181967D01*
X137939000Y-130157164D01*
X137339000Y-130157164D01*
X137190769Y-130185056D01*
X137054628Y-130272660D01*
X137003945Y-130346838D01*
X136961340Y-130280628D01*
X136827671Y-130189296D01*
X136669000Y-130157164D01*
X136069000Y-130157164D01*
X135920769Y-130185056D01*
X135784628Y-130272660D01*
X135733945Y-130346838D01*
X135691340Y-130280628D01*
X135557671Y-130189296D01*
X135399000Y-130157164D01*
X134799000Y-130157164D01*
X134650769Y-130185056D01*
X134514628Y-130272660D01*
X134423296Y-130406329D01*
X134391164Y-130565000D01*
X134391164Y-132115000D01*
X134419056Y-132263231D01*
X134506660Y-132399372D01*
X134560428Y-132436110D01*
X133781538Y-133215000D01*
X124294000Y-133215000D01*
X124093091Y-133254963D01*
X123922769Y-133368769D01*
X119171836Y-138119702D01*
X119171836Y-137270000D01*
X119143944Y-137121769D01*
X119056340Y-136985628D01*
X118922671Y-136894296D01*
X118888987Y-136887475D01*
X119460232Y-136316230D01*
X119574038Y-136145908D01*
X119614001Y-135944999D01*
X119614001Y-133448393D01*
X119574038Y-133247484D01*
X119460232Y-133077162D01*
X118212171Y-131829101D01*
X118212255Y-131732898D01*
X118105911Y-131475526D01*
X117909170Y-131278441D01*
X117651984Y-131171648D01*
X117373506Y-131171405D01*
X117116134Y-131277749D01*
X116981807Y-131411842D01*
X116885788Y-131315655D01*
X116628602Y-131208862D01*
X116350124Y-131208619D01*
X116092752Y-131314963D01*
X115895667Y-131511704D01*
X115788874Y-131768890D01*
X115788694Y-131974782D01*
X115674322Y-131927290D01*
X115395844Y-131927047D01*
X115138472Y-132033391D01*
X115069575Y-132102168D01*
X113016832Y-132102168D01*
X112815923Y-132142131D01*
X112645601Y-132255937D01*
X112461575Y-132439963D01*
X112365372Y-132439879D01*
X112108000Y-132546223D01*
X111910915Y-132742964D01*
X111804122Y-133000150D01*
X111803879Y-133278628D01*
X111910223Y-133536000D01*
X112106964Y-133733085D01*
X112364150Y-133839878D01*
X112642628Y-133840121D01*
X112900000Y-133733777D01*
X113097085Y-133537036D01*
X113203878Y-133279850D01*
X113203963Y-133182499D01*
X113234294Y-133152168D01*
X115069470Y-133152168D01*
X115137436Y-133220253D01*
X115394622Y-133327046D01*
X115491973Y-133327131D01*
X116027006Y-133862164D01*
X114564000Y-133862164D01*
X114415769Y-133890056D01*
X114279628Y-133977660D01*
X114188296Y-134111329D01*
X114156164Y-134270000D01*
X114156164Y-134395000D01*
X113671276Y-134395000D01*
X113671276Y-134320560D01*
X113643384Y-134172329D01*
X113555780Y-134036188D01*
X113422111Y-133944856D01*
X113263440Y-133912724D01*
X112064560Y-133912724D01*
X111916329Y-133940616D01*
X111780188Y-134028220D01*
X111765454Y-134049783D01*
X111723225Y-133947833D01*
X111538127Y-133762734D01*
X111296284Y-133662560D01*
X110834460Y-133662560D01*
X110669960Y-133827060D01*
X110461960Y-133827060D01*
X110297460Y-133662560D01*
X109835636Y-133662560D01*
X109593793Y-133762734D01*
X109408695Y-133947833D01*
X109308520Y-134189675D01*
X100479000Y-134189675D01*
X100479000Y-127920000D01*
X103720259Y-127920000D01*
X103816445Y-128403559D01*
X104090359Y-128813500D01*
X104500300Y-129087414D01*
X104983859Y-129183600D01*
X105344141Y-129183600D01*
X105827700Y-129087414D01*
X106237641Y-128813500D01*
X106375187Y-128607649D01*
X107154538Y-129387000D01*
X106606538Y-129935000D01*
X106483865Y-129935000D01*
X106237641Y-129566500D01*
X105827700Y-129292586D01*
X105344141Y-129196400D01*
X104983859Y-129196400D01*
X104500300Y-129292586D01*
X104090359Y-129566500D01*
X103816445Y-129976441D01*
X103720259Y-130460000D01*
X103816445Y-130943559D01*
X104090359Y-131353500D01*
X104500300Y-131627414D01*
X104983859Y-131723600D01*
X105344141Y-131723600D01*
X105827700Y-131627414D01*
X106237641Y-131353500D01*
X106483865Y-130985000D01*
X106824000Y-130985000D01*
X107024909Y-130945037D01*
X107195231Y-130831231D01*
X107781462Y-130245000D01*
X118366538Y-130245000D01*
X120632769Y-132511231D01*
X120803091Y-132625037D01*
X121004000Y-132665000D01*
X124004000Y-132665000D01*
X124204909Y-132625037D01*
X124375231Y-132511231D01*
X124975231Y-131911231D01*
X125089037Y-131740909D01*
X125129000Y-131540000D01*
X125129000Y-130397836D01*
X125704000Y-130397836D01*
X125710165Y-130396676D01*
X125718963Y-130440909D01*
X125832769Y-130611231D01*
X126932769Y-131711231D01*
X127103091Y-131825037D01*
X127304000Y-131865000D01*
X131754000Y-131865000D01*
X131954909Y-131825037D01*
X132125231Y-131711231D01*
X134171462Y-129665000D01*
X143086538Y-129665000D01*
X143349103Y-129927565D01*
X143316445Y-129976441D01*
X143220259Y-130460000D01*
X143316445Y-130943559D01*
X143590359Y-131353500D01*
X144000300Y-131627414D01*
X144483859Y-131723600D01*
X144844141Y-131723600D01*
X145327700Y-131627414D01*
X145737641Y-131353500D01*
X146011555Y-130943559D01*
X146107741Y-130460000D01*
X146011555Y-129976441D01*
X145737641Y-129566500D01*
X145327700Y-129292586D01*
X144844141Y-129196400D01*
X144483859Y-129196400D01*
X144166074Y-129259612D01*
X143980940Y-129074478D01*
X144000300Y-129087414D01*
X144483859Y-129183600D01*
X144844141Y-129183600D01*
X145327700Y-129087414D01*
X145737641Y-128813500D01*
X146011555Y-128403559D01*
X146107741Y-127920000D01*
X146011555Y-127436441D01*
X145737641Y-127026500D01*
X145327700Y-126752586D01*
X144844141Y-126656400D01*
X144483859Y-126656400D01*
X144000300Y-126752586D01*
X143590359Y-127026500D01*
X143316445Y-127436441D01*
X143220259Y-127920000D01*
X143263608Y-128137930D01*
X143236549Y-128164989D01*
X133767600Y-128164989D01*
X133566691Y-128204952D01*
X133396369Y-128318758D01*
X131500128Y-130215000D01*
X128723016Y-130215000D01*
X128762000Y-130120884D01*
X128762000Y-129658500D01*
X128597500Y-129494000D01*
X127908000Y-129494000D01*
X127908000Y-129514000D01*
X127711836Y-129514000D01*
X127711836Y-128790000D01*
X127700000Y-128727098D01*
X127700000Y-128296500D01*
X127535500Y-128132000D01*
X127373115Y-128132000D01*
X127131273Y-128232175D01*
X126981283Y-128382164D01*
X126704000Y-128382164D01*
X126600329Y-128401671D01*
X126504000Y-128382164D01*
X125904000Y-128382164D01*
X125897835Y-128383324D01*
X125889037Y-128339091D01*
X125775231Y-128168769D01*
X125305231Y-127698769D01*
X125134909Y-127584963D01*
X124934000Y-127545000D01*
X122038998Y-127545000D01*
X121838089Y-127584963D01*
X121761153Y-127636370D01*
X121742329Y-127536329D01*
X121761836Y-127440000D01*
X121761836Y-126840000D01*
X121742329Y-126736329D01*
X121761836Y-126640000D01*
X121761836Y-126040000D01*
X121742329Y-125936329D01*
X121761836Y-125840000D01*
X121761836Y-125270001D01*
X125488999Y-125270001D01*
X125689908Y-125230038D01*
X125860230Y-125116232D01*
X128260464Y-122715998D01*
X128265671Y-122743671D01*
X128246164Y-122840000D01*
X128246164Y-123440000D01*
X128265671Y-123543671D01*
X128246164Y-123640000D01*
X128246164Y-124240000D01*
X128265671Y-124343671D01*
X128246164Y-124440000D01*
X128246164Y-125040000D01*
X128265671Y-125143671D01*
X128246164Y-125240000D01*
X128246164Y-125840000D01*
X128265671Y-125943671D01*
X128246164Y-126040000D01*
X128246164Y-126520740D01*
X128003850Y-126420122D01*
X127725372Y-126419879D01*
X127468000Y-126526223D01*
X127270915Y-126722964D01*
X127164122Y-126980150D01*
X127163879Y-127258628D01*
X127270223Y-127516000D01*
X127466964Y-127713085D01*
X127724150Y-127819878D01*
X127821501Y-127819963D01*
X128133538Y-128132000D01*
X128072500Y-128132000D01*
X127908000Y-128296500D01*
X127908000Y-129286000D01*
X128597500Y-129286000D01*
X128762000Y-129121500D01*
X128762000Y-128659116D01*
X128757328Y-128647836D01*
X129854000Y-128647836D01*
X130002231Y-128619944D01*
X130138372Y-128532340D01*
X130229704Y-128398671D01*
X130261836Y-128240000D01*
X130261836Y-127665000D01*
X131804000Y-127665000D01*
X132004909Y-127625037D01*
X132175231Y-127511231D01*
X133422010Y-126264452D01*
X133443237Y-126315825D01*
X133639978Y-126512910D01*
X133897164Y-126619703D01*
X134175642Y-126619946D01*
X134391164Y-126530894D01*
X134391164Y-126715000D01*
X134419056Y-126863231D01*
X134506660Y-126999372D01*
X134640329Y-127090704D01*
X134799000Y-127122836D01*
X135399000Y-127122836D01*
X135547231Y-127094944D01*
X135683372Y-127007340D01*
X135734055Y-126933162D01*
X135776660Y-126999372D01*
X135800275Y-127015508D01*
X135780856Y-127034893D01*
X135674063Y-127292079D01*
X135673820Y-127570557D01*
X135780164Y-127827929D01*
X135976905Y-128025014D01*
X136234091Y-128131807D01*
X136512569Y-128132050D01*
X136769941Y-128025706D01*
X136967026Y-127828965D01*
X137073819Y-127571779D01*
X137074041Y-127317464D01*
X137208115Y-127373000D01*
X137370500Y-127373000D01*
X137535000Y-127208500D01*
X137535000Y-126044000D01*
X137515000Y-126044000D01*
X137515000Y-125836000D01*
X137535000Y-125836000D01*
X137535000Y-124671500D01*
X137743000Y-124671500D01*
X137743000Y-125836000D01*
X137763000Y-125836000D01*
X137763000Y-126044000D01*
X137743000Y-126044000D01*
X137743000Y-127208500D01*
X137907500Y-127373000D01*
X138069885Y-127373000D01*
X138311727Y-127272825D01*
X138486520Y-127098033D01*
X138609000Y-127122836D01*
X139209000Y-127122836D01*
X139357231Y-127094944D01*
X139493372Y-127007340D01*
X139584704Y-126873671D01*
X139616836Y-126715000D01*
X139616836Y-125165000D01*
X139588944Y-125016769D01*
X139501340Y-124880628D01*
X139489548Y-124872571D01*
X139594424Y-124620000D01*
X139594667Y-124341522D01*
X139488323Y-124084150D01*
X139291582Y-123887065D01*
X139034396Y-123780272D01*
X138755918Y-123780029D01*
X138498546Y-123886373D01*
X138301461Y-124083114D01*
X138194668Y-124340300D01*
X138194478Y-124558608D01*
X138069885Y-124507000D01*
X137907500Y-124507000D01*
X137743000Y-124671500D01*
X137535000Y-124671500D01*
X137370500Y-124507000D01*
X137208115Y-124507000D01*
X136966273Y-124607175D01*
X136791480Y-124781967D01*
X136669000Y-124757164D01*
X136069000Y-124757164D01*
X135920769Y-124785056D01*
X135784628Y-124872660D01*
X135733945Y-124946838D01*
X135691340Y-124880628D01*
X135557671Y-124789296D01*
X135399000Y-124757164D01*
X134929298Y-124757164D01*
X141741462Y-117945000D01*
X143501373Y-117945000D01*
X143582477Y-118141286D01*
X143940827Y-118500262D01*
X144154117Y-118588828D01*
X143857857Y-118711240D01*
X143456649Y-119111749D01*
X143239248Y-119635307D01*
X143238754Y-120202206D01*
X143455240Y-120726143D01*
X143855749Y-121127351D01*
X144379307Y-121344752D01*
X144946206Y-121345246D01*
X145470143Y-121128760D01*
X145871351Y-120728251D01*
X146088752Y-120204693D01*
X146089246Y-119637794D01*
X145872760Y-119113857D01*
X145472251Y-118712649D01*
X145174025Y-118588814D01*
X145385286Y-118501523D01*
X145744262Y-118143173D01*
X145938778Y-117674726D01*
X145939221Y-117167499D01*
X145745523Y-116698714D01*
X145387173Y-116339738D01*
X144977970Y-116169822D01*
X145385286Y-116001523D01*
X145744262Y-115643173D01*
X145938778Y-115174726D01*
X145939221Y-114667499D01*
X145745523Y-114198714D01*
X145387173Y-113839738D01*
X144977970Y-113669822D01*
X145385286Y-113501523D01*
X145744262Y-113143173D01*
X145938778Y-112674726D01*
X145939221Y-112167499D01*
X145745523Y-111698714D01*
X145387173Y-111339738D01*
X144918726Y-111145222D01*
X144411499Y-111144779D01*
X143942714Y-111338477D01*
X143583738Y-111696827D01*
X143389222Y-112165274D01*
X143388779Y-112672501D01*
X143470721Y-112870817D01*
X140866117Y-115475421D01*
X140752311Y-115645743D01*
X140712348Y-115846652D01*
X140712348Y-116122538D01*
X139049199Y-117785687D01*
X139011555Y-117596441D01*
X138737641Y-117186500D01*
X138327700Y-116912586D01*
X137844141Y-116816400D01*
X137483859Y-116816400D01*
X137000300Y-116912586D01*
X136847990Y-117014356D01*
X136847990Y-116605644D01*
X137000300Y-116707414D01*
X137483859Y-116803600D01*
X137844141Y-116803600D01*
X138327700Y-116707414D01*
X138737641Y-116433500D01*
X139011555Y-116023559D01*
X139107741Y-115540000D01*
X139011555Y-115056441D01*
X138737641Y-114646500D01*
X138327700Y-114372586D01*
X137844141Y-114276400D01*
X137483859Y-114276400D01*
X137000300Y-114372586D01*
X136847990Y-114474356D01*
X136847990Y-114406072D01*
X137072322Y-114181740D01*
X137483859Y-114263600D01*
X137844141Y-114263600D01*
X138327700Y-114167414D01*
X138737641Y-113893500D01*
X139011555Y-113483559D01*
X139107741Y-113000000D01*
X139011555Y-112516441D01*
X138737641Y-112106500D01*
X138327700Y-111832586D01*
X137844141Y-111736400D01*
X137483859Y-111736400D01*
X137000300Y-111832586D01*
X136590359Y-112106500D01*
X136316445Y-112516441D01*
X136220259Y-113000000D01*
X136311324Y-113457814D01*
X135951759Y-113817379D01*
X135837953Y-113987701D01*
X135797990Y-114188610D01*
X135797990Y-117690770D01*
X134829000Y-118659760D01*
X134829000Y-109757462D01*
X136141462Y-108445000D01*
X136344135Y-108445000D01*
X136590359Y-108813500D01*
X137000300Y-109087414D01*
X137483859Y-109183600D01*
X137844141Y-109183600D01*
X138327700Y-109087414D01*
X138737641Y-108813500D01*
X139011555Y-108403559D01*
X139107741Y-107920000D01*
X139011555Y-107436441D01*
X138737641Y-107026500D01*
X138327700Y-106752586D01*
X137844141Y-106656400D01*
X137483859Y-106656400D01*
X137000300Y-106752586D01*
X136590359Y-107026500D01*
X136344135Y-107395000D01*
X135924000Y-107395000D01*
X135723091Y-107434963D01*
X135552769Y-107548769D01*
X133932769Y-109168769D01*
X133818963Y-109339091D01*
X133779000Y-109540000D01*
X133779000Y-111638264D01*
X133594885Y-111562000D01*
X132932500Y-111562000D01*
X132768000Y-111726500D01*
X132768000Y-113116000D01*
X132788000Y-113116000D01*
X132788000Y-113324000D01*
X132768000Y-113324000D01*
X132768000Y-114713500D01*
X132932500Y-114878000D01*
X133594885Y-114878000D01*
X133779000Y-114801736D01*
X133779000Y-115720100D01*
X133525372Y-115719879D01*
X133268000Y-115826223D01*
X133070915Y-116022964D01*
X132964122Y-116280150D01*
X132964037Y-116377501D01*
X132292769Y-117048769D01*
X132189613Y-117203151D01*
X131785231Y-116798769D01*
X131614909Y-116684963D01*
X131414000Y-116645000D01*
X130696836Y-116645000D01*
X130696836Y-116420000D01*
X130668944Y-116271769D01*
X130581340Y-116135628D01*
X130467894Y-116058114D01*
X130661727Y-115977825D01*
X130846826Y-115792727D01*
X130947000Y-115550884D01*
X130947000Y-114938500D01*
X130782500Y-114774000D01*
X129768000Y-114774000D01*
X129768000Y-114794000D01*
X129560000Y-114794000D01*
X129560000Y-114774000D01*
X128545500Y-114774000D01*
X128381000Y-114938500D01*
X128381000Y-115550884D01*
X128481174Y-115792727D01*
X128666273Y-115977825D01*
X128861688Y-116058769D01*
X128754628Y-116127660D01*
X128663296Y-116261329D01*
X128631164Y-116420000D01*
X128631164Y-117723156D01*
X128609659Y-117671110D01*
X128412918Y-117474025D01*
X128155732Y-117367232D01*
X127877254Y-117366989D01*
X127619882Y-117473333D01*
X127529000Y-117564056D01*
X127529000Y-113789116D01*
X128381000Y-113789116D01*
X128381000Y-114401500D01*
X128545500Y-114566000D01*
X129560000Y-114566000D01*
X129560000Y-113426500D01*
X129768000Y-113426500D01*
X129768000Y-114566000D01*
X130782500Y-114566000D01*
X130947000Y-114401500D01*
X130947000Y-113789116D01*
X130846826Y-113547273D01*
X130788053Y-113488500D01*
X131206000Y-113488500D01*
X131206000Y-114350884D01*
X131306174Y-114592727D01*
X131491273Y-114777825D01*
X131733115Y-114878000D01*
X132395500Y-114878000D01*
X132560000Y-114713500D01*
X132560000Y-113324000D01*
X131370500Y-113324000D01*
X131206000Y-113488500D01*
X130788053Y-113488500D01*
X130661727Y-113362175D01*
X130419885Y-113262000D01*
X129932500Y-113262000D01*
X129768000Y-113426500D01*
X129560000Y-113426500D01*
X129395500Y-113262000D01*
X128908115Y-113262000D01*
X128666273Y-113362175D01*
X128481174Y-113547273D01*
X128381000Y-113789116D01*
X127529000Y-113789116D01*
X127529000Y-112947462D01*
X128387346Y-112089116D01*
X131206000Y-112089116D01*
X131206000Y-112951500D01*
X131370500Y-113116000D01*
X132560000Y-113116000D01*
X132560000Y-111726500D01*
X132395500Y-111562000D01*
X131733115Y-111562000D01*
X131491273Y-111662175D01*
X131306174Y-111847273D01*
X131206000Y-112089116D01*
X128387346Y-112089116D01*
X129375231Y-111101231D01*
X129489037Y-110930909D01*
X129529000Y-110730000D01*
X129529000Y-109857462D01*
X132075231Y-107311231D01*
X132189037Y-107140909D01*
X132229000Y-106940000D01*
X132229000Y-106739865D01*
X132597500Y-106493641D01*
X132871414Y-106083700D01*
X132967600Y-105600141D01*
X132967600Y-105239859D01*
X132871414Y-104756300D01*
X132711118Y-104516400D01*
X136240164Y-104516400D01*
X136240164Y-106243600D01*
X136268056Y-106391831D01*
X136355660Y-106527972D01*
X136489329Y-106619304D01*
X136648000Y-106651436D01*
X138680000Y-106651436D01*
X138828231Y-106623544D01*
X138964372Y-106535940D01*
X139055704Y-106402271D01*
X139087836Y-106243600D01*
X139087836Y-104516400D01*
X139059944Y-104368169D01*
X138972340Y-104232028D01*
X138838671Y-104140696D01*
X138680000Y-104108564D01*
X136648000Y-104108564D01*
X136499769Y-104136456D01*
X136363628Y-104224060D01*
X136272296Y-104357729D01*
X136240164Y-104516400D01*
X132711118Y-104516400D01*
X132597500Y-104346359D01*
X132187559Y-104072445D01*
X131704000Y-103976259D01*
X131220441Y-104072445D01*
X130810500Y-104346359D01*
X130536586Y-104756300D01*
X130440400Y-105239859D01*
X130440400Y-105600141D01*
X130536586Y-106083700D01*
X130810500Y-106493641D01*
X131168613Y-106732925D01*
X129689000Y-108212538D01*
X129689000Y-106739865D01*
X130057500Y-106493641D01*
X130331414Y-106083700D01*
X130427600Y-105600141D01*
X130427600Y-105239859D01*
X130331414Y-104756300D01*
X130057500Y-104346359D01*
X129647559Y-104072445D01*
X129164000Y-103976259D01*
X128680441Y-104072445D01*
X128270500Y-104346359D01*
X127996586Y-104756300D01*
X127900400Y-105239859D01*
X127900400Y-105600141D01*
X127996586Y-106083700D01*
X128270500Y-106493641D01*
X128639000Y-106739865D01*
X128639000Y-108222538D01*
X127932769Y-108928769D01*
X127818963Y-109099091D01*
X127779000Y-109300000D01*
X127779000Y-110312538D01*
X125832769Y-112258769D01*
X125718963Y-112429091D01*
X125679000Y-112630000D01*
X125679000Y-118215033D01*
X125558833Y-118165135D01*
X125250519Y-118164866D01*
X125129000Y-118215077D01*
X125129000Y-112086000D01*
X125089037Y-111885091D01*
X124975231Y-111714769D01*
X119891649Y-106631187D01*
X120097500Y-106493641D01*
X120371414Y-106083700D01*
X120467600Y-105600141D01*
X120467600Y-105239859D01*
X120371414Y-104756300D01*
X120097500Y-104346359D01*
X119687559Y-104072445D01*
X119204000Y-103976259D01*
X118720441Y-104072445D01*
X118310500Y-104346359D01*
X118036586Y-104756300D01*
X117940400Y-105239859D01*
X117940400Y-105600141D01*
X118036586Y-106083700D01*
X118275859Y-106441797D01*
X117845740Y-106011678D01*
X117927600Y-105600141D01*
X117927600Y-105239859D01*
X117831414Y-104756300D01*
X117557500Y-104346359D01*
X117147559Y-104072445D01*
X116664000Y-103976259D01*
X116180441Y-104072445D01*
X115770500Y-104346359D01*
X115496586Y-104756300D01*
X115400400Y-105239859D01*
X115400400Y-105600141D01*
X115496586Y-106083700D01*
X115770500Y-106493641D01*
X116180441Y-106767555D01*
X116664000Y-106863741D01*
X117121814Y-106772676D01*
X123279000Y-112929862D01*
X123279000Y-119572538D01*
X121725221Y-118018759D01*
X121554899Y-117904953D01*
X121353990Y-117864990D01*
X119494012Y-117864990D01*
X119426046Y-117796905D01*
X119168860Y-117690112D01*
X118890382Y-117689869D01*
X118633010Y-117796213D01*
X118435925Y-117992954D01*
X118329132Y-118250140D01*
X118328889Y-118528618D01*
X118435233Y-118785990D01*
X118631974Y-118983075D01*
X118889160Y-119089868D01*
X119167638Y-119090111D01*
X119425010Y-118983767D01*
X119493907Y-118914990D01*
X121136528Y-118914990D01*
X121853538Y-119632000D01*
X121773115Y-119632000D01*
X121531273Y-119732175D01*
X121346174Y-119917273D01*
X121246000Y-120159116D01*
X121246000Y-120621500D01*
X121410500Y-120786000D01*
X122100000Y-120786000D01*
X122100000Y-120766000D01*
X122296164Y-120766000D01*
X122296164Y-121490000D01*
X122308000Y-121552902D01*
X122308000Y-121983500D01*
X122472500Y-122148000D01*
X122634885Y-122148000D01*
X122876727Y-122047825D01*
X123026717Y-121897836D01*
X123304000Y-121897836D01*
X123407671Y-121878329D01*
X123504000Y-121897836D01*
X124104000Y-121897836D01*
X124207671Y-121878329D01*
X124304000Y-121897836D01*
X124904000Y-121897836D01*
X125007671Y-121878329D01*
X125104000Y-121897836D01*
X125704000Y-121897836D01*
X125807671Y-121878329D01*
X125904000Y-121897836D01*
X126504000Y-121897836D01*
X126607671Y-121878329D01*
X126704000Y-121897836D01*
X127304000Y-121897836D01*
X127407671Y-121878329D01*
X127504000Y-121897836D01*
X127593702Y-121897836D01*
X125271537Y-124220001D01*
X121761836Y-124220001D01*
X121761836Y-123640000D01*
X121742329Y-123536329D01*
X121761836Y-123440000D01*
X121761836Y-122840000D01*
X121742329Y-122736329D01*
X121761836Y-122640000D01*
X121761836Y-122143328D01*
X121773115Y-122148000D01*
X121935500Y-122148000D01*
X122100000Y-121983500D01*
X122100000Y-120994000D01*
X121410500Y-120994000D01*
X121246000Y-121158500D01*
X121246000Y-121620884D01*
X121250672Y-121632164D01*
X120154000Y-121632164D01*
X120005769Y-121660056D01*
X119946233Y-121698366D01*
X119917586Y-121669669D01*
X119660400Y-121562876D01*
X119381922Y-121562633D01*
X119124550Y-121668977D01*
X118927465Y-121865718D01*
X118820672Y-122122904D01*
X118820429Y-122401382D01*
X118926773Y-122658754D01*
X118927669Y-122659651D01*
X118921601Y-122665708D01*
X118814808Y-122922894D01*
X118814565Y-123201372D01*
X118920909Y-123458744D01*
X118932081Y-123469936D01*
X118827039Y-123722905D01*
X118826968Y-123804617D01*
X118278991Y-123256640D01*
X118278991Y-116247471D01*
X118435231Y-116091231D01*
X118549037Y-115920909D01*
X118589000Y-115720000D01*
X118589000Y-115188500D01*
X119351000Y-115188500D01*
X119351000Y-115660885D01*
X119451175Y-115902727D01*
X119636273Y-116087826D01*
X119878116Y-116188000D01*
X120195500Y-116188000D01*
X120360000Y-116023500D01*
X120360000Y-115024000D01*
X120568000Y-115024000D01*
X120568000Y-116023500D01*
X120732500Y-116188000D01*
X121049884Y-116188000D01*
X121291727Y-116087826D01*
X121476825Y-115902727D01*
X121577000Y-115660885D01*
X121577000Y-115188500D01*
X121412500Y-115024000D01*
X120568000Y-115024000D01*
X120360000Y-115024000D01*
X119515500Y-115024000D01*
X119351000Y-115188500D01*
X118589000Y-115188500D01*
X118589000Y-114165000D01*
X118549037Y-113964091D01*
X118435231Y-113793769D01*
X117936813Y-113295351D01*
X118009704Y-113188671D01*
X118041836Y-113030000D01*
X118041836Y-112688500D01*
X119336000Y-112688500D01*
X119336000Y-113160885D01*
X119436175Y-113402727D01*
X119621273Y-113587826D01*
X119827160Y-113673107D01*
X119636273Y-113752174D01*
X119451175Y-113937273D01*
X119351000Y-114179115D01*
X119351000Y-114651500D01*
X119515500Y-114816000D01*
X120360000Y-114816000D01*
X120360000Y-113816500D01*
X120206000Y-113662500D01*
X120345000Y-113523500D01*
X120345000Y-112524000D01*
X120553000Y-112524000D01*
X120553000Y-113523500D01*
X120707000Y-113677500D01*
X120568000Y-113816500D01*
X120568000Y-114816000D01*
X121412500Y-114816000D01*
X121577000Y-114651500D01*
X121577000Y-114179115D01*
X121476825Y-113937273D01*
X121291727Y-113752174D01*
X121085840Y-113666893D01*
X121276727Y-113587826D01*
X121461825Y-113402727D01*
X121562000Y-113160885D01*
X121562000Y-112688500D01*
X121397500Y-112524000D01*
X120553000Y-112524000D01*
X120345000Y-112524000D01*
X119500500Y-112524000D01*
X119336000Y-112688500D01*
X118041836Y-112688500D01*
X118041836Y-111810000D01*
X118017208Y-111679115D01*
X119336000Y-111679115D01*
X119336000Y-112151500D01*
X119500500Y-112316000D01*
X120345000Y-112316000D01*
X120345000Y-111316500D01*
X120553000Y-111316500D01*
X120553000Y-112316000D01*
X121397500Y-112316000D01*
X121562000Y-112151500D01*
X121562000Y-111679115D01*
X121461825Y-111437273D01*
X121276727Y-111252174D01*
X121034884Y-111152000D01*
X120717500Y-111152000D01*
X120553000Y-111316500D01*
X120345000Y-111316500D01*
X120180500Y-111152000D01*
X119863116Y-111152000D01*
X119621273Y-111252174D01*
X119436175Y-111437273D01*
X119336000Y-111679115D01*
X118017208Y-111679115D01*
X118013944Y-111661769D01*
X117926340Y-111525628D01*
X117792671Y-111434296D01*
X117634000Y-111402164D01*
X116724000Y-111402164D01*
X116575769Y-111430056D01*
X116439628Y-111517660D01*
X116348296Y-111651329D01*
X116316164Y-111810000D01*
X116316164Y-111895000D01*
X114671836Y-111895000D01*
X114671836Y-111770000D01*
X114643944Y-111621769D01*
X114556340Y-111485628D01*
X114422671Y-111394296D01*
X114264000Y-111362164D01*
X112764000Y-111362164D01*
X112615769Y-111390056D01*
X112479628Y-111477660D01*
X112388296Y-111611329D01*
X112356164Y-111770000D01*
X112356164Y-113070000D01*
X112384056Y-113218231D01*
X112471660Y-113354372D01*
X112605329Y-113445704D01*
X112764000Y-113477836D01*
X114264000Y-113477836D01*
X114412231Y-113449944D01*
X114548372Y-113362340D01*
X114639704Y-113228671D01*
X114671836Y-113070000D01*
X114671836Y-112945000D01*
X116316164Y-112945000D01*
X116316164Y-113030000D01*
X116344056Y-113178231D01*
X116431660Y-113314372D01*
X116565329Y-113405704D01*
X116683775Y-113429690D01*
X116693963Y-113480909D01*
X116807769Y-113651231D01*
X117058702Y-113902164D01*
X116739000Y-113902164D01*
X116590769Y-113930056D01*
X116454628Y-114017660D01*
X116363296Y-114151329D01*
X116331164Y-114310000D01*
X116331164Y-114395000D01*
X114671836Y-114395000D01*
X114671836Y-114270000D01*
X114643944Y-114121769D01*
X114556340Y-113985628D01*
X114422671Y-113894296D01*
X114264000Y-113862164D01*
X112764000Y-113862164D01*
X112615769Y-113890056D01*
X112479628Y-113977660D01*
X112388296Y-114111329D01*
X112356164Y-114270000D01*
X112356164Y-115570000D01*
X112384056Y-115718231D01*
X112471660Y-115854372D01*
X112605329Y-115945704D01*
X112764000Y-115977836D01*
X114264000Y-115977836D01*
X114412231Y-115949944D01*
X114548372Y-115862340D01*
X114639704Y-115728671D01*
X114671836Y-115570000D01*
X114671836Y-115445000D01*
X116331164Y-115445000D01*
X116331164Y-115530000D01*
X116359056Y-115678231D01*
X116446660Y-115814372D01*
X116580329Y-115905704D01*
X116669000Y-115923661D01*
X116669000Y-117982538D01*
X115735231Y-117048769D01*
X115564909Y-116934963D01*
X115364000Y-116895000D01*
X114671836Y-116895000D01*
X114671836Y-116770000D01*
X114643944Y-116621769D01*
X114556340Y-116485628D01*
X114422671Y-116394296D01*
X114264000Y-116362164D01*
X112764000Y-116362164D01*
X112615769Y-116390056D01*
X112479628Y-116477660D01*
X112388296Y-116611329D01*
X112356164Y-116770000D01*
X112356164Y-118070000D01*
X112384056Y-118218231D01*
X112471660Y-118354372D01*
X112605329Y-118445704D01*
X112724902Y-118469918D01*
X112619628Y-118537660D01*
X112528296Y-118671329D01*
X112496164Y-118830000D01*
X112496164Y-119740000D01*
X112524056Y-119888231D01*
X112611660Y-120024372D01*
X112745329Y-120115704D01*
X112904000Y-120147836D01*
X114124000Y-120147836D01*
X114272231Y-120119944D01*
X114408372Y-120032340D01*
X114499704Y-119898671D01*
X114531836Y-119740000D01*
X114531836Y-118830000D01*
X114503944Y-118681769D01*
X114416340Y-118545628D01*
X114305652Y-118469998D01*
X114412231Y-118449944D01*
X114548372Y-118362340D01*
X114639704Y-118228671D01*
X114671836Y-118070000D01*
X114671836Y-117945000D01*
X115146538Y-117945000D01*
X116139000Y-118937462D01*
X116139000Y-123720000D01*
X116178963Y-123920909D01*
X116292769Y-124091231D01*
X117486208Y-125284670D01*
X117486208Y-126692212D01*
X117526171Y-126893121D01*
X117639977Y-127063443D01*
X118887765Y-128311231D01*
X119058087Y-128425037D01*
X119258996Y-128465000D01*
X119823455Y-128465000D01*
X119861660Y-128524372D01*
X119965028Y-128595000D01*
X107847462Y-128595000D01*
X106801231Y-127548769D01*
X106630909Y-127434963D01*
X106492121Y-127407357D01*
X106237641Y-127026500D01*
X105827700Y-126752586D01*
X105344141Y-126656400D01*
X104983859Y-126656400D01*
X104500300Y-126752586D01*
X104090359Y-127026500D01*
X103816445Y-127436441D01*
X103720259Y-127920000D01*
X100479000Y-127920000D01*
X100479000Y-124858628D01*
X107963879Y-124858628D01*
X108070223Y-125116000D01*
X108266964Y-125313085D01*
X108524150Y-125419878D01*
X108802628Y-125420121D01*
X109060000Y-125313777D01*
X109257085Y-125117036D01*
X109363878Y-124859850D01*
X109364121Y-124581372D01*
X109257777Y-124324000D01*
X109189000Y-124255103D01*
X109189000Y-122823500D01*
X112246000Y-122823500D01*
X112246000Y-123140884D01*
X112346174Y-123382727D01*
X112531273Y-123567825D01*
X112773115Y-123668000D01*
X113245500Y-123668000D01*
X113410000Y-123503500D01*
X113410000Y-122659000D01*
X113618000Y-122659000D01*
X113618000Y-123503500D01*
X113782500Y-123668000D01*
X114254885Y-123668000D01*
X114496727Y-123567825D01*
X114681826Y-123382727D01*
X114782000Y-123140884D01*
X114782000Y-122823500D01*
X114617500Y-122659000D01*
X113618000Y-122659000D01*
X113410000Y-122659000D01*
X112410500Y-122659000D01*
X112246000Y-122823500D01*
X109189000Y-122823500D01*
X109189000Y-122637462D01*
X109706425Y-122120037D01*
X109802628Y-122120121D01*
X110060000Y-122013777D01*
X110104739Y-121969116D01*
X112246000Y-121969116D01*
X112246000Y-122286500D01*
X112410500Y-122451000D01*
X113410000Y-122451000D01*
X113410000Y-121606500D01*
X113618000Y-121606500D01*
X113618000Y-122451000D01*
X114617500Y-122451000D01*
X114782000Y-122286500D01*
X114782000Y-121969116D01*
X114681826Y-121727273D01*
X114496727Y-121542175D01*
X114254885Y-121442000D01*
X113782500Y-121442000D01*
X113618000Y-121606500D01*
X113410000Y-121606500D01*
X113245500Y-121442000D01*
X112773115Y-121442000D01*
X112531273Y-121542175D01*
X112346174Y-121727273D01*
X112246000Y-121969116D01*
X110104739Y-121969116D01*
X110257085Y-121817036D01*
X110363878Y-121559850D01*
X110364121Y-121281372D01*
X110257777Y-121024000D01*
X110061036Y-120826915D01*
X109803850Y-120720122D01*
X109525372Y-120719879D01*
X109268000Y-120826223D01*
X109070915Y-121022964D01*
X108964122Y-121280150D01*
X108964037Y-121377501D01*
X108292769Y-122048769D01*
X108178963Y-122219091D01*
X108139000Y-122420000D01*
X108139000Y-124254998D01*
X108070915Y-124322964D01*
X107964122Y-124580150D01*
X107963879Y-124858628D01*
X100479000Y-124858628D01*
X100479000Y-110202206D01*
X103738754Y-110202206D01*
X103955240Y-110726143D01*
X104355749Y-111127351D01*
X104653975Y-111251186D01*
X104442714Y-111338477D01*
X104083738Y-111696827D01*
X103889222Y-112165274D01*
X103888779Y-112672501D01*
X104082477Y-113141286D01*
X104440827Y-113500262D01*
X104850030Y-113670178D01*
X104442714Y-113838477D01*
X104083738Y-114196827D01*
X103889222Y-114665274D01*
X103888779Y-115172501D01*
X104082477Y-115641286D01*
X104440827Y-116000262D01*
X104850030Y-116170178D01*
X104442714Y-116338477D01*
X104083738Y-116696827D01*
X103889222Y-117165274D01*
X103888779Y-117672501D01*
X104082477Y-118141286D01*
X104440827Y-118500262D01*
X104909274Y-118694778D01*
X105416501Y-118695221D01*
X105885286Y-118501523D01*
X106244262Y-118143173D01*
X106326551Y-117945000D01*
X109656164Y-117945000D01*
X109656164Y-118070000D01*
X109684056Y-118218231D01*
X109771660Y-118354372D01*
X109905329Y-118445704D01*
X110064000Y-118477836D01*
X111564000Y-118477836D01*
X111712231Y-118449944D01*
X111848372Y-118362340D01*
X111939704Y-118228671D01*
X111971836Y-118070000D01*
X111971836Y-116770000D01*
X111943944Y-116621769D01*
X111856340Y-116485628D01*
X111722671Y-116394296D01*
X111564000Y-116362164D01*
X110064000Y-116362164D01*
X109915769Y-116390056D01*
X109779628Y-116477660D01*
X109688296Y-116611329D01*
X109656164Y-116770000D01*
X109656164Y-116895000D01*
X106326627Y-116895000D01*
X106245523Y-116698714D01*
X105887173Y-116339738D01*
X105477970Y-116169822D01*
X105885286Y-116001523D01*
X106244262Y-115643173D01*
X106326551Y-115445000D01*
X109656164Y-115445000D01*
X109656164Y-115570000D01*
X109684056Y-115718231D01*
X109771660Y-115854372D01*
X109905329Y-115945704D01*
X110064000Y-115977836D01*
X111564000Y-115977836D01*
X111712231Y-115949944D01*
X111848372Y-115862340D01*
X111939704Y-115728671D01*
X111971836Y-115570000D01*
X111971836Y-114270000D01*
X111943944Y-114121769D01*
X111856340Y-113985628D01*
X111722671Y-113894296D01*
X111564000Y-113862164D01*
X110064000Y-113862164D01*
X109915769Y-113890056D01*
X109779628Y-113977660D01*
X109688296Y-114111329D01*
X109656164Y-114270000D01*
X109656164Y-114395000D01*
X106326627Y-114395000D01*
X106245523Y-114198714D01*
X105887173Y-113839738D01*
X105477970Y-113669822D01*
X105885286Y-113501523D01*
X106244262Y-113143173D01*
X106326551Y-112945000D01*
X109656164Y-112945000D01*
X109656164Y-113070000D01*
X109684056Y-113218231D01*
X109771660Y-113354372D01*
X109905329Y-113445704D01*
X110064000Y-113477836D01*
X111564000Y-113477836D01*
X111712231Y-113449944D01*
X111848372Y-113362340D01*
X111939704Y-113228671D01*
X111971836Y-113070000D01*
X111971836Y-111770000D01*
X111943944Y-111621769D01*
X111856340Y-111485628D01*
X111722671Y-111394296D01*
X111564000Y-111362164D01*
X110064000Y-111362164D01*
X109915769Y-111390056D01*
X109779628Y-111477660D01*
X109688296Y-111611329D01*
X109656164Y-111770000D01*
X109656164Y-111895000D01*
X106326627Y-111895000D01*
X106245523Y-111698714D01*
X105887173Y-111339738D01*
X105673883Y-111251172D01*
X105970143Y-111128760D01*
X106371351Y-110728251D01*
X106588752Y-110204693D01*
X106589246Y-109637794D01*
X106372760Y-109113857D01*
X105972251Y-108712649D01*
X105448693Y-108495248D01*
X104881794Y-108494754D01*
X104357857Y-108711240D01*
X103956649Y-109111749D01*
X103739248Y-109635307D01*
X103738754Y-110202206D01*
X100479000Y-110202206D01*
X100479000Y-100615000D01*
X149529000Y-100615000D01*
X149529000Y-149665000D01*
G36*
X136590359Y-118973500D02*
X137000300Y-119247414D01*
X137483859Y-119343600D01*
X137491286Y-119343600D01*
X131819886Y-125015000D01*
X131665467Y-125015000D01*
X131703878Y-124922497D01*
X131704121Y-124644019D01*
X131597777Y-124386647D01*
X131559217Y-124348019D01*
X131597083Y-124310219D01*
X131703876Y-124053033D01*
X131704119Y-123774555D01*
X131597775Y-123517183D01*
X131527200Y-123446484D01*
X136353968Y-118619716D01*
X136590359Y-118973500D01*
X136590359Y-118973500D01*
G37*
X136590359Y-118973500D02*
X137000300Y-119247414D01*
X137483859Y-119343600D01*
X137491286Y-119343600D01*
X131819886Y-125015000D01*
X131665467Y-125015000D01*
X131703878Y-124922497D01*
X131704121Y-124644019D01*
X131597777Y-124386647D01*
X131559217Y-124348019D01*
X131597083Y-124310219D01*
X131703876Y-124053033D01*
X131704119Y-123774555D01*
X131597775Y-123517183D01*
X131527200Y-123446484D01*
X136353968Y-118619716D01*
X136590359Y-118973500D01*
G36*
X131456164Y-119620000D02*
X131484056Y-119768231D01*
X131571660Y-119904372D01*
X131705329Y-119995704D01*
X131864000Y-120027836D01*
X132824513Y-120027836D01*
X131037349Y-121815000D01*
X130184545Y-121815000D01*
X130146340Y-121755628D01*
X130012671Y-121664296D01*
X129854000Y-121632164D01*
X129344298Y-121632164D01*
X131456164Y-119520298D01*
X131456164Y-119620000D01*
X131456164Y-119620000D01*
G37*
X131456164Y-119620000D02*
X131484056Y-119768231D01*
X131571660Y-119904372D01*
X131705329Y-119995704D01*
X131864000Y-120027836D01*
X132824513Y-120027836D01*
X131037349Y-121815000D01*
X130184545Y-121815000D01*
X130146340Y-121755628D01*
X130012671Y-121664296D01*
X129854000Y-121632164D01*
X129344298Y-121632164D01*
X131456164Y-119520298D01*
X131456164Y-119620000D01*
M02*
