G04 #@! TF.FileFunction,Other,User*
%FSLAX46Y46*%
G04 Gerber Fmt 4.6, Leading zero omitted, Abs format (unit mm)*
G04 Created by KiCad (PCBNEW 4.0.5) date Thu Feb 16 16:16:10 2017*
%MOMM*%
%LPD*%
G01*
G04 APERTURE LIST*
%ADD10C,0.100000*%
%ADD11C,0.050000*%
G04 APERTURE END LIST*
D10*
D11*
X128000000Y-98025000D02*
X128000000Y-91275000D01*
X128000000Y-91275000D02*
X114650000Y-91275000D01*
X114650000Y-91275000D02*
X114650000Y-98025000D01*
X114650000Y-98025000D02*
X128000000Y-98025000D01*
X121199611Y-61996989D02*
G75*
G03X117300000Y-62000000I-1949611J-253011D01*
G01*
X117300389Y-85003011D02*
G75*
G03X121200000Y-85000000I1949611J253011D01*
G01*
X124300000Y-85000000D02*
X121200000Y-85000000D01*
X124300000Y-62000000D02*
X124300000Y-85000000D01*
X114200000Y-85000000D02*
X114200000Y-62000000D01*
X117300000Y-85000000D02*
X114200000Y-85000000D01*
X117300000Y-62000000D02*
X114200000Y-62000000D01*
X121200000Y-62000000D02*
X124300000Y-62000000D01*
X141700000Y-90050000D02*
X152500000Y-90050000D01*
X152500000Y-90050000D02*
X152500000Y-80550000D01*
X152500000Y-80550000D02*
X141700000Y-80550000D01*
X141700000Y-80550000D02*
X141700000Y-90050000D01*
X142725000Y-98025000D02*
X142725000Y-91275000D01*
X142725000Y-91275000D02*
X129375000Y-91275000D01*
X129375000Y-91275000D02*
X129375000Y-98025000D01*
X129375000Y-98025000D02*
X142725000Y-98025000D01*
X102350000Y-92950000D02*
X109100000Y-92950000D01*
X109100000Y-92950000D02*
X109100000Y-77100000D01*
X109100000Y-77100000D02*
X102350000Y-77100000D01*
X102350000Y-77100000D02*
X102350000Y-92950000D01*
X142600000Y-80100000D02*
X142600000Y-78200000D01*
X142600000Y-78200000D02*
X146400000Y-78200000D01*
X146400000Y-78200000D02*
X146400000Y-80100000D01*
X146400000Y-80100000D02*
X142600000Y-80100000D01*
X142550980Y-63950000D02*
X142550980Y-62050000D01*
X142550980Y-62050000D02*
X146350980Y-62050000D01*
X146350980Y-62050000D02*
X146350980Y-63950000D01*
X146350980Y-63950000D02*
X142550980Y-63950000D01*
X140850000Y-75750000D02*
X145650000Y-75750000D01*
X140850000Y-77750000D02*
X145650000Y-77750000D01*
X140850000Y-75750000D02*
X140850000Y-77750000D01*
X145650000Y-75750000D02*
X145650000Y-77750000D01*
X140850000Y-59500000D02*
X145650000Y-59500000D01*
X140850000Y-61500000D02*
X145650000Y-61500000D01*
X140850000Y-59500000D02*
X140850000Y-61500000D01*
X145650000Y-59500000D02*
X145650000Y-61500000D01*
X137500000Y-72400000D02*
X137500000Y-67600000D01*
X139500000Y-72400000D02*
X139500000Y-67600000D01*
X137500000Y-72400000D02*
X139500000Y-72400000D01*
X137500000Y-67600000D02*
X139500000Y-67600000D01*
X108300000Y-56950000D02*
X97500000Y-56950000D01*
X97500000Y-56950000D02*
X97500000Y-66450000D01*
X97500000Y-66450000D02*
X108300000Y-66450000D01*
X108300000Y-66450000D02*
X108300000Y-56950000D01*
X108300000Y-66950000D02*
X97500000Y-66950000D01*
X97500000Y-66950000D02*
X97500000Y-76450000D01*
X97500000Y-76450000D02*
X108300000Y-76450000D01*
X108300000Y-76450000D02*
X108300000Y-66950000D01*
X129050000Y-58300000D02*
X129050000Y-47500000D01*
X129050000Y-47500000D02*
X112550000Y-47500000D01*
X112550000Y-47500000D02*
X112550000Y-58300000D01*
X112550000Y-58300000D02*
X129050000Y-58300000D01*
X142300000Y-58300000D02*
X142300000Y-47500000D01*
X142300000Y-47500000D02*
X132800000Y-47500000D01*
X132800000Y-47500000D02*
X132800000Y-58300000D01*
X132800000Y-58300000D02*
X142300000Y-58300000D01*
X141700000Y-74050000D02*
X152500000Y-74050000D01*
X152500000Y-74050000D02*
X152500000Y-64550000D01*
X152500000Y-64550000D02*
X141700000Y-64550000D01*
X141700000Y-64550000D02*
X141700000Y-74050000D01*
X139754000Y-124890000D02*
X134254000Y-124890000D01*
X139754000Y-132390000D02*
X134254000Y-132390000D01*
X139754000Y-124890000D02*
X139754000Y-132390000D01*
X134254000Y-124890000D02*
X134254000Y-132390000D01*
X142614000Y-139770000D02*
X142614000Y-133020000D01*
X142614000Y-133020000D02*
X129264000Y-133020000D01*
X129264000Y-133020000D02*
X129264000Y-139770000D01*
X129264000Y-139770000D02*
X142614000Y-139770000D01*
X128664000Y-118220000D02*
X128664000Y-113620000D01*
X130664000Y-118220000D02*
X130664000Y-113620000D01*
X128664000Y-118220000D02*
X130664000Y-118220000D01*
X128664000Y-113620000D02*
X130664000Y-113620000D01*
X116564000Y-111370000D02*
X121064000Y-111370000D01*
X121064000Y-111370000D02*
X121064000Y-113470000D01*
X121064000Y-113470000D02*
X116564000Y-113470000D01*
X116564000Y-111370000D02*
X116564000Y-113470000D01*
X116579000Y-113870000D02*
X121079000Y-113870000D01*
X121079000Y-113870000D02*
X121079000Y-115970000D01*
X121079000Y-115970000D02*
X116579000Y-115970000D01*
X116579000Y-113870000D02*
X116579000Y-115970000D01*
X114564000Y-118670000D02*
X114564000Y-123170000D01*
X114564000Y-123170000D02*
X112464000Y-123170000D01*
X112464000Y-123170000D02*
X112464000Y-118670000D01*
X114564000Y-118670000D02*
X112464000Y-118670000D01*
X113564000Y-139970000D02*
X113564000Y-141870000D01*
X113564000Y-141870000D02*
X109764000Y-141870000D01*
X109764000Y-141870000D02*
X109764000Y-139970000D01*
X109764000Y-139970000D02*
X113564000Y-139970000D01*
X113514980Y-133970000D02*
X113514980Y-135870000D01*
X113514980Y-135870000D02*
X109714980Y-135870000D01*
X109714980Y-135870000D02*
X109714980Y-133970000D01*
X109714980Y-133970000D02*
X113514980Y-133970000D01*
X113514980Y-136970000D02*
X113514980Y-138870000D01*
X113514980Y-138870000D02*
X109714980Y-138870000D01*
X109714980Y-138870000D02*
X109714980Y-136970000D01*
X109714980Y-136970000D02*
X113514980Y-136970000D01*
X102314000Y-122870000D02*
X109064000Y-122870000D01*
X109064000Y-122870000D02*
X109064000Y-107020000D01*
X109064000Y-107020000D02*
X102314000Y-107020000D01*
X102314000Y-107020000D02*
X102314000Y-122870000D01*
X103414000Y-123630000D02*
X103414000Y-132230000D01*
X106914000Y-123630000D02*
X106914000Y-132230000D01*
X103414000Y-123630000D02*
X106914000Y-123630000D01*
X103414000Y-132230000D02*
X106914000Y-132230000D01*
X147514000Y-106970000D02*
X140764000Y-106970000D01*
X140764000Y-106970000D02*
X140764000Y-122820000D01*
X140764000Y-122820000D02*
X147514000Y-122820000D01*
X147514000Y-122820000D02*
X147514000Y-106970000D01*
X142914000Y-123630000D02*
X142914000Y-132230000D01*
X146414000Y-123630000D02*
X146414000Y-132230000D01*
X142914000Y-123630000D02*
X146414000Y-123630000D01*
X142914000Y-132230000D02*
X146414000Y-132230000D01*
X135914000Y-103630000D02*
X135914000Y-119830000D01*
X139414000Y-103630000D02*
X139414000Y-119830000D01*
X135914000Y-103630000D02*
X139414000Y-103630000D01*
X135914000Y-119830000D02*
X139414000Y-119830000D01*
X142614000Y-147770000D02*
X142614000Y-141020000D01*
X142614000Y-141020000D02*
X129264000Y-141020000D01*
X129264000Y-141020000D02*
X129264000Y-147770000D01*
X129264000Y-147770000D02*
X142614000Y-147770000D01*
X112374000Y-107170000D02*
X120974000Y-107170000D01*
X112374000Y-103670000D02*
X120974000Y-103670000D01*
X112374000Y-107170000D02*
X112374000Y-103670000D01*
X120974000Y-107170000D02*
X120974000Y-103670000D01*
X124874000Y-107170000D02*
X133474000Y-107170000D01*
X124874000Y-103670000D02*
X133474000Y-103670000D01*
X124874000Y-107170000D02*
X124874000Y-103670000D01*
X133474000Y-107170000D02*
X133474000Y-103670000D01*
X114564000Y-113420000D02*
X109764000Y-113420000D01*
X114564000Y-111420000D02*
X109764000Y-111420000D01*
X114564000Y-113420000D02*
X114564000Y-111420000D01*
X109764000Y-113420000D02*
X109764000Y-111420000D01*
X114564000Y-115920000D02*
X109764000Y-115920000D01*
X114564000Y-113920000D02*
X109764000Y-113920000D01*
X114564000Y-115920000D02*
X114564000Y-113920000D01*
X109764000Y-115920000D02*
X109764000Y-113920000D01*
X114564000Y-118420000D02*
X109764000Y-118420000D01*
X114564000Y-116420000D02*
X109764000Y-116420000D01*
X114564000Y-118420000D02*
X114564000Y-116420000D01*
X109764000Y-118420000D02*
X109764000Y-116420000D01*
X119064000Y-141920000D02*
X114264000Y-141920000D01*
X119064000Y-139920000D02*
X114264000Y-139920000D01*
X119064000Y-141920000D02*
X119064000Y-139920000D01*
X114264000Y-141920000D02*
X114264000Y-139920000D01*
X119064000Y-135920000D02*
X114264000Y-135920000D01*
X119064000Y-133920000D02*
X114264000Y-133920000D01*
X119064000Y-135920000D02*
X119064000Y-133920000D01*
X114264000Y-135920000D02*
X114264000Y-133920000D01*
X119064000Y-138920000D02*
X114264000Y-138920000D01*
X119064000Y-136920000D02*
X114264000Y-136920000D01*
X119064000Y-138920000D02*
X119064000Y-136920000D01*
X114264000Y-138920000D02*
X114264000Y-136920000D01*
X130664000Y-119870000D02*
X130664000Y-111970000D01*
X130664000Y-111970000D02*
X134664000Y-111970000D01*
X134664000Y-111970000D02*
X134664000Y-119870000D01*
X134664000Y-119870000D02*
X130664000Y-119870000D01*
X119904000Y-120040000D02*
X119904000Y-130240000D01*
X130104000Y-120040000D02*
X130104000Y-130240000D01*
X119904000Y-120040000D02*
X130104000Y-120040000D01*
X119904000Y-130240000D02*
X130104000Y-130240000D01*
M02*
