M48
;DRILL file {KiCad 4.0.5} date Thu Feb 16 15:30:18 2017
;FORMAT={-:-/ absolute / metric / decimal}
FMAT,2
METRIC,TZ
T1C0.300
T2C0.400
T3C0.762
T4C0.813
T5C0.900
T6C1.001
T7C1.016
T8C1.200
T9C1.270
T10C1.300
T11C3.048
T12C3.800
%
G90
G05
M71
T1
X110.Y-55.
X110.Y-75.
X110.Y-80.
X110.Y-95.
X115.Y-65.
X115.Y-70.
X115.Y-85.
X115.Y-90.
X115.Y-95.
X120.Y-65.
X120.Y-70.
X125.Y-60.
X125.Y-65.
X125.Y-70.
X125.Y-80.
X125.Y-90.
X130.Y-55.
X130.Y-60.
X140.Y-75.
X140.Y-80.
X140.Y-90.
X145.Y-65.
X145.Y-90.
X152.65Y-57.5
X152.65Y-60.
X152.65Y-62.5
X152.65Y-65.
X152.65Y-67.5
X152.65Y-70.
X152.65Y-72.5
X152.65Y-75.
X152.65Y-77.5
X152.65Y-80.
X152.65Y-82.5
X152.65Y-85.
X152.65Y-87.5
X152.65Y-90.
X152.65Y-92.5
X155.15Y-57.5
X155.15Y-72.5
X155.15Y-75.
X155.15Y-82.5
X155.15Y-85.
X155.15Y-87.5
X155.15Y-90.
X155.15Y-92.5
X156.65Y-63.5
X156.65Y-66.
X157.65Y-52.5
X157.65Y-55.
X157.65Y-57.5
X157.65Y-60.
X157.65Y-72.5
X157.65Y-75.
X157.65Y-77.5
X157.65Y-82.5
X157.65Y-85.
X157.65Y-87.5
X157.65Y-90.
X157.65Y-92.5
X157.65Y-95.
X157.65Y-97.5
X159.15Y-63.5
X159.15Y-66.
X160.15Y-52.5
X160.15Y-55.
X160.15Y-57.5
X160.15Y-60.
X160.15Y-82.5
X160.15Y-92.5
X160.15Y-97.5
X162.65Y-52.5
X162.65Y-55.
X162.65Y-57.5
X162.65Y-60.
X162.65Y-70.
X162.65Y-92.5
X162.65Y-97.5
X165.15Y-52.5
X165.15Y-57.5
X165.15Y-60.
X165.15Y-92.5
X165.15Y-95.
X165.15Y-97.5
X165.65Y-63.5
X165.65Y-66.
X167.65Y-52.5
X167.65Y-57.5
X167.65Y-60.
X167.65Y-92.5
X167.65Y-95.
X167.65Y-97.5
X170.15Y-52.5
X170.15Y-60.
X170.15Y-82.5
X170.15Y-90.
X170.15Y-92.5
X170.15Y-97.5
X172.65Y-52.5
X172.65Y-55.
X172.65Y-57.5
X172.65Y-67.5
X172.65Y-97.5
X175.15Y-52.5
X175.15Y-55.
X175.15Y-57.5
X175.15Y-60.
X175.15Y-72.5
X175.15Y-82.5
X175.15Y-85.
X175.15Y-90.
X175.15Y-92.5
X175.15Y-95.
X175.15Y-97.5
X176.15Y-77.
X177.65Y-52.5
X177.65Y-57.5
X177.65Y-60.
X177.65Y-82.5
X177.65Y-85.
X177.65Y-92.5
X177.65Y-95.
X177.65Y-97.5
X178.15Y-66.
X180.15Y-52.5
X180.15Y-60.
X180.15Y-62.5
X180.15Y-82.5
X180.15Y-85.
X180.15Y-90.
X180.15Y-92.5
X180.15Y-95.
X180.15Y-97.5
X181.15Y-71.
X181.4Y-79.5
X182.65Y-52.5
X182.65Y-57.5
X182.65Y-60.
X182.65Y-65.
X182.65Y-77.5
X182.65Y-82.5
X182.65Y-85.
X182.65Y-97.5
X183.15Y-72.5
X185.15Y-52.5
X185.15Y-55.
X185.15Y-57.5
X185.15Y-60.
X185.15Y-62.5
X185.15Y-65.
X185.15Y-70.8
X185.15Y-77.5
X185.15Y-85.
X185.15Y-97.5
X187.65Y-52.5
X187.65Y-72.5
X187.65Y-77.5
X187.65Y-97.5
X190.15Y-52.5
X190.15Y-55.
X190.15Y-57.5
X190.15Y-60.
X190.15Y-62.5
X190.15Y-65.
X190.15Y-72.5
X190.15Y-75.
X190.15Y-77.5
X190.15Y-80.
X190.15Y-82.5
X190.15Y-85.
X190.15Y-97.5
X192.65Y-52.5
X192.65Y-55.
X192.65Y-57.5
X192.65Y-60.
X192.65Y-62.5
X192.65Y-68.5
X192.65Y-72.5
X192.65Y-75.
X192.65Y-77.5
X192.65Y-80.
X192.65Y-82.5
X192.65Y-85.
X192.65Y-87.5
X192.65Y-90.
X192.65Y-92.5
X192.65Y-95.
X192.65Y-97.5
X195.15Y-57.5
X195.15Y-72.5
X195.15Y-82.5
X195.15Y-85.
X195.15Y-87.5
X195.15Y-90.
X195.15Y-92.5
X197.65Y-57.5
X197.65Y-60.
X197.65Y-62.5
X197.65Y-65.
X197.65Y-67.5
X197.65Y-70.
X197.65Y-72.5
X197.65Y-75.
X197.65Y-77.5
X197.65Y-80.
X197.65Y-82.5
X197.65Y-85.
X197.65Y-87.5
X197.65Y-90.
X197.65Y-92.5
T2
X158.81Y-74.58
X159.81Y-71.28
X162.65Y-83.
X165.68Y-82.487
X166.167Y-76.338
X166.635Y-81.769
X167.658Y-81.732
X169.175Y-68.25
X169.661Y-72.923
X169.667Y-72.123
X169.673Y-73.723
X169.682Y-75.426
X172.41Y-71.98
X177.658Y-75.006
X177.66Y-77.955
X178.01Y-76.98
X178.162Y-67.927
X181.15Y-73.773
X181.15Y-74.643
X183.81Y-66.28
X184.183Y-75.78
X186.52Y-77.292
X189.041Y-74.34
T3
X129.55Y-75.136
X129.55Y-77.136
X129.55Y-79.136
X129.55Y-81.136
X129.55Y-83.136
X129.55Y-85.136
X129.55Y-87.636
X131.55Y-75.136
X131.55Y-77.136
X131.55Y-79.136
X131.55Y-81.136
X131.55Y-83.136
X133.55Y-75.136
X133.55Y-77.136
X133.55Y-79.136
X133.55Y-81.136
X133.55Y-83.136
X135.55Y-75.136
X135.55Y-77.136
X135.55Y-79.136
X135.55Y-81.136
X135.55Y-83.136
X135.55Y-85.136
X135.55Y-87.636
T4
X128.25Y-62.
X130.79Y-62.
X133.33Y-62.
T5
X105.2Y-80.
X105.2Y-82.5
X105.2Y-85.
X105.2Y-87.5
X105.2Y-90.
X117.55Y-95.175
X120.05Y-95.175
X122.55Y-95.175
X125.05Y-95.175
X132.275Y-95.175
X134.775Y-95.175
X137.275Y-95.175
X139.775Y-95.175
X155.31Y-59.78
X155.31Y-62.28
X155.31Y-64.78
X155.31Y-67.28
X155.31Y-69.78
X182.31Y-86.78
X182.31Y-94.78
X184.81Y-86.78
X184.81Y-94.78
X187.31Y-86.78
X187.31Y-94.78
X189.81Y-86.78
X189.81Y-94.78
X194.81Y-59.78
X194.81Y-62.28
X194.81Y-64.78
X194.81Y-67.28
X194.81Y-69.78
T6
X112.008Y-69.75
X130.01Y-69.636
X132.55Y-69.636
X135.09Y-69.636
T7
X112.Y-84.46
X112.Y-87.
X112.Y-89.54
X112.Y-92.08
X112.Y-94.62
X155.31Y-75.24
X155.31Y-77.78
X155.31Y-80.32
X164.27Y-55.28
X166.81Y-55.28
X169.35Y-55.28
X176.77Y-55.28
X179.31Y-55.28
X181.85Y-55.28
X187.81Y-55.24
X187.81Y-57.78
X187.81Y-60.32
X187.81Y-62.86
X187.81Y-65.4
X187.81Y-67.94
X194.81Y-75.24
X194.81Y-77.78
X194.81Y-80.32
T8
X106.Y-60.
X106.Y-63.5
X106.Y-70.
X106.Y-73.5
X115.5Y-56.
X119.Y-56.
X122.5Y-56.
X126.Y-56.
X135.75Y-56.
X139.25Y-56.
X143.65Y-66.75
X143.65Y-70.25
X143.65Y-82.75
X143.65Y-86.25
T9
X112.008Y-79.91
T10
X119.25Y-62.25
X119.25Y-84.75
T11
X104.Y-54.
X104.Y-96.
X146.Y-54.
X146.Y-96.
X154.15Y-54.
X154.15Y-96.
X196.15Y-54.
X196.15Y-96.
T12
X132.55Y-86.4
T0
M30
