%FSLAX45Y45*%
G04 Gerber Fmt 4.5, Leading zero omitted, Abs format (unit mm)*
G04 Created by KiCad (PCBNEW 4.0.5) date Thu Feb 16 15:30:19 2017*
%MOMM*%
%LPD*%
G01*
G04 APERTURE LIST*
%ADD10C,0.127000*%
%ADD11C,0.150000*%
%ADD12C,0.200000*%
%ADD13C,0.300000*%
G04 APERTURE END LIST*
D10*
D11*
X15000000Y-5000000D02*
X10000000Y-5000000D01*
X15000000Y-10000000D02*
X15000000Y-5000000D01*
X10000000Y-10000000D02*
X15000000Y-10000000D01*
X10000000Y-5000000D02*
X10000000Y-10000000D01*
X15015000Y-10000000D02*
X20015000Y-10000000D01*
X15015000Y-5000000D02*
X15015000Y-10000000D01*
X20015000Y-5000000D02*
X15015000Y-5000000D01*
X20015000Y-10000000D02*
X20015000Y-5000000D01*
D12*
X10985000Y-5485000D02*
X11015000Y-5515000D01*
X11015000Y-5485000D02*
X10985000Y-5515000D01*
X10985000Y-7485000D02*
X11015000Y-7515000D01*
X11015000Y-7485000D02*
X10985000Y-7515000D01*
X10985000Y-7985000D02*
X11015000Y-8015000D01*
X11015000Y-7985000D02*
X10985000Y-8015000D01*
X10985000Y-9485000D02*
X11015000Y-9515000D01*
X11015000Y-9485000D02*
X10985000Y-9515000D01*
X11485000Y-6485000D02*
X11515000Y-6515000D01*
X11515000Y-6485000D02*
X11485000Y-6515000D01*
X11485000Y-6985000D02*
X11515000Y-7015000D01*
X11515000Y-6985000D02*
X11485000Y-7015000D01*
X11485000Y-8485000D02*
X11515000Y-8515000D01*
X11515000Y-8485000D02*
X11485000Y-8515000D01*
X11485000Y-8985000D02*
X11515000Y-9015000D01*
X11515000Y-8985000D02*
X11485000Y-9015000D01*
X11485000Y-9485000D02*
X11515000Y-9515000D01*
X11515000Y-9485000D02*
X11485000Y-9515000D01*
X11985000Y-6485000D02*
X12015000Y-6515000D01*
X12015000Y-6485000D02*
X11985000Y-6515000D01*
X11985000Y-6985000D02*
X12015000Y-7015000D01*
X12015000Y-6985000D02*
X11985000Y-7015000D01*
X12485000Y-5985000D02*
X12515000Y-6015000D01*
X12515000Y-5985000D02*
X12485000Y-6015000D01*
X12485000Y-6485000D02*
X12515000Y-6515000D01*
X12515000Y-6485000D02*
X12485000Y-6515000D01*
X12485000Y-6985000D02*
X12515000Y-7015000D01*
X12515000Y-6985000D02*
X12485000Y-7015000D01*
X12485000Y-7985000D02*
X12515000Y-8015000D01*
X12515000Y-7985000D02*
X12485000Y-8015000D01*
X12485000Y-8985000D02*
X12515000Y-9015000D01*
X12515000Y-8985000D02*
X12485000Y-9015000D01*
X12985000Y-5485000D02*
X13015000Y-5515000D01*
X13015000Y-5485000D02*
X12985000Y-5515000D01*
X12985000Y-5985000D02*
X13015000Y-6015000D01*
X13015000Y-5985000D02*
X12985000Y-6015000D01*
X13985000Y-7485000D02*
X14015000Y-7515000D01*
X14015000Y-7485000D02*
X13985000Y-7515000D01*
X13985000Y-7985000D02*
X14015000Y-8015000D01*
X14015000Y-7985000D02*
X13985000Y-8015000D01*
X13985000Y-8985000D02*
X14015000Y-9015000D01*
X14015000Y-8985000D02*
X13985000Y-9015000D01*
X14485000Y-6485000D02*
X14515000Y-6515000D01*
X14515000Y-6485000D02*
X14485000Y-6515000D01*
X14485000Y-8985000D02*
X14515000Y-9015000D01*
X14515000Y-8985000D02*
X14485000Y-9015000D01*
X15250000Y-5735000D02*
X15280000Y-5765000D01*
X15280000Y-5735000D02*
X15250000Y-5765000D01*
X15250000Y-5985000D02*
X15280000Y-6015000D01*
X15280000Y-5985000D02*
X15250000Y-6015000D01*
X15250000Y-6235000D02*
X15280000Y-6265000D01*
X15280000Y-6235000D02*
X15250000Y-6265000D01*
X15250000Y-6485000D02*
X15280000Y-6515000D01*
X15280000Y-6485000D02*
X15250000Y-6515000D01*
X15250000Y-6735000D02*
X15280000Y-6765000D01*
X15280000Y-6735000D02*
X15250000Y-6765000D01*
X15250000Y-6985000D02*
X15280000Y-7015000D01*
X15280000Y-6985000D02*
X15250000Y-7015000D01*
X15250000Y-7235000D02*
X15280000Y-7265000D01*
X15280000Y-7235000D02*
X15250000Y-7265000D01*
X15250000Y-7485000D02*
X15280000Y-7515000D01*
X15280000Y-7485000D02*
X15250000Y-7515000D01*
X15250000Y-7735000D02*
X15280000Y-7765000D01*
X15280000Y-7735000D02*
X15250000Y-7765000D01*
X15250000Y-7985000D02*
X15280000Y-8015000D01*
X15280000Y-7985000D02*
X15250000Y-8015000D01*
X15250000Y-8235000D02*
X15280000Y-8265000D01*
X15280000Y-8235000D02*
X15250000Y-8265000D01*
X15250000Y-8485000D02*
X15280000Y-8515000D01*
X15280000Y-8485000D02*
X15250000Y-8515000D01*
X15250000Y-8735000D02*
X15280000Y-8765000D01*
X15280000Y-8735000D02*
X15250000Y-8765000D01*
X15250000Y-8985000D02*
X15280000Y-9015000D01*
X15280000Y-8985000D02*
X15250000Y-9015000D01*
X15250000Y-9235000D02*
X15280000Y-9265000D01*
X15280000Y-9235000D02*
X15250000Y-9265000D01*
X15500000Y-5735000D02*
X15530000Y-5765000D01*
X15530000Y-5735000D02*
X15500000Y-5765000D01*
X15500000Y-7235000D02*
X15530000Y-7265000D01*
X15530000Y-7235000D02*
X15500000Y-7265000D01*
X15500000Y-7485000D02*
X15530000Y-7515000D01*
X15530000Y-7485000D02*
X15500000Y-7515000D01*
X15500000Y-8235000D02*
X15530000Y-8265000D01*
X15530000Y-8235000D02*
X15500000Y-8265000D01*
X15500000Y-8485000D02*
X15530000Y-8515000D01*
X15530000Y-8485000D02*
X15500000Y-8515000D01*
X15500000Y-8735000D02*
X15530000Y-8765000D01*
X15530000Y-8735000D02*
X15500000Y-8765000D01*
X15500000Y-8985000D02*
X15530000Y-9015000D01*
X15530000Y-8985000D02*
X15500000Y-9015000D01*
X15500000Y-9235000D02*
X15530000Y-9265000D01*
X15530000Y-9235000D02*
X15500000Y-9265000D01*
X15650000Y-6335000D02*
X15680000Y-6365000D01*
X15680000Y-6335000D02*
X15650000Y-6365000D01*
X15650000Y-6585000D02*
X15680000Y-6615000D01*
X15680000Y-6585000D02*
X15650000Y-6615000D01*
X15750000Y-5235000D02*
X15780000Y-5265000D01*
X15780000Y-5235000D02*
X15750000Y-5265000D01*
X15750000Y-5485000D02*
X15780000Y-5515000D01*
X15780000Y-5485000D02*
X15750000Y-5515000D01*
X15750000Y-5735000D02*
X15780000Y-5765000D01*
X15780000Y-5735000D02*
X15750000Y-5765000D01*
X15750000Y-5985000D02*
X15780000Y-6015000D01*
X15780000Y-5985000D02*
X15750000Y-6015000D01*
X15750000Y-7235000D02*
X15780000Y-7265000D01*
X15780000Y-7235000D02*
X15750000Y-7265000D01*
X15750000Y-7485000D02*
X15780000Y-7515000D01*
X15780000Y-7485000D02*
X15750000Y-7515000D01*
X15750000Y-7735000D02*
X15780000Y-7765000D01*
X15780000Y-7735000D02*
X15750000Y-7765000D01*
X15750000Y-8235000D02*
X15780000Y-8265000D01*
X15780000Y-8235000D02*
X15750000Y-8265000D01*
X15750000Y-8485000D02*
X15780000Y-8515000D01*
X15780000Y-8485000D02*
X15750000Y-8515000D01*
X15750000Y-8735000D02*
X15780000Y-8765000D01*
X15780000Y-8735000D02*
X15750000Y-8765000D01*
X15750000Y-8985000D02*
X15780000Y-9015000D01*
X15780000Y-8985000D02*
X15750000Y-9015000D01*
X15750000Y-9235000D02*
X15780000Y-9265000D01*
X15780000Y-9235000D02*
X15750000Y-9265000D01*
X15750000Y-9485000D02*
X15780000Y-9515000D01*
X15780000Y-9485000D02*
X15750000Y-9515000D01*
X15750000Y-9735000D02*
X15780000Y-9765000D01*
X15780000Y-9735000D02*
X15750000Y-9765000D01*
X15900000Y-6335000D02*
X15930000Y-6365000D01*
X15930000Y-6335000D02*
X15900000Y-6365000D01*
X15900000Y-6585000D02*
X15930000Y-6615000D01*
X15930000Y-6585000D02*
X15900000Y-6615000D01*
X16000000Y-5235000D02*
X16030000Y-5265000D01*
X16030000Y-5235000D02*
X16000000Y-5265000D01*
X16000000Y-5485000D02*
X16030000Y-5515000D01*
X16030000Y-5485000D02*
X16000000Y-5515000D01*
X16000000Y-5735000D02*
X16030000Y-5765000D01*
X16030000Y-5735000D02*
X16000000Y-5765000D01*
X16000000Y-5985000D02*
X16030000Y-6015000D01*
X16030000Y-5985000D02*
X16000000Y-6015000D01*
X16000000Y-8235000D02*
X16030000Y-8265000D01*
X16030000Y-8235000D02*
X16000000Y-8265000D01*
X16000000Y-9235000D02*
X16030000Y-9265000D01*
X16030000Y-9235000D02*
X16000000Y-9265000D01*
X16000000Y-9735000D02*
X16030000Y-9765000D01*
X16030000Y-9735000D02*
X16000000Y-9765000D01*
X16250000Y-5235000D02*
X16280000Y-5265000D01*
X16280000Y-5235000D02*
X16250000Y-5265000D01*
X16250000Y-5485000D02*
X16280000Y-5515000D01*
X16280000Y-5485000D02*
X16250000Y-5515000D01*
X16250000Y-5735000D02*
X16280000Y-5765000D01*
X16280000Y-5735000D02*
X16250000Y-5765000D01*
X16250000Y-5985000D02*
X16280000Y-6015000D01*
X16280000Y-5985000D02*
X16250000Y-6015000D01*
X16250000Y-6985000D02*
X16280000Y-7015000D01*
X16280000Y-6985000D02*
X16250000Y-7015000D01*
X16250000Y-9235000D02*
X16280000Y-9265000D01*
X16280000Y-9235000D02*
X16250000Y-9265000D01*
X16250000Y-9735000D02*
X16280000Y-9765000D01*
X16280000Y-9735000D02*
X16250000Y-9765000D01*
X16500000Y-5235000D02*
X16530000Y-5265000D01*
X16530000Y-5235000D02*
X16500000Y-5265000D01*
X16500000Y-5735000D02*
X16530000Y-5765000D01*
X16530000Y-5735000D02*
X16500000Y-5765000D01*
X16500000Y-5985000D02*
X16530000Y-6015000D01*
X16530000Y-5985000D02*
X16500000Y-6015000D01*
X16500000Y-9235000D02*
X16530000Y-9265000D01*
X16530000Y-9235000D02*
X16500000Y-9265000D01*
X16500000Y-9485000D02*
X16530000Y-9515000D01*
X16530000Y-9485000D02*
X16500000Y-9515000D01*
X16500000Y-9735000D02*
X16530000Y-9765000D01*
X16530000Y-9735000D02*
X16500000Y-9765000D01*
X16550000Y-6335000D02*
X16580000Y-6365000D01*
X16580000Y-6335000D02*
X16550000Y-6365000D01*
X16550000Y-6585000D02*
X16580000Y-6615000D01*
X16580000Y-6585000D02*
X16550000Y-6615000D01*
X16750000Y-5235000D02*
X16780000Y-5265000D01*
X16780000Y-5235000D02*
X16750000Y-5265000D01*
X16750000Y-5735000D02*
X16780000Y-5765000D01*
X16780000Y-5735000D02*
X16750000Y-5765000D01*
X16750000Y-5985000D02*
X16780000Y-6015000D01*
X16780000Y-5985000D02*
X16750000Y-6015000D01*
X16750000Y-9235000D02*
X16780000Y-9265000D01*
X16780000Y-9235000D02*
X16750000Y-9265000D01*
X16750000Y-9485000D02*
X16780000Y-9515000D01*
X16780000Y-9485000D02*
X16750000Y-9515000D01*
X16750000Y-9735000D02*
X16780000Y-9765000D01*
X16780000Y-9735000D02*
X16750000Y-9765000D01*
X17000000Y-5235000D02*
X17030000Y-5265000D01*
X17030000Y-5235000D02*
X17000000Y-5265000D01*
X17000000Y-5985000D02*
X17030000Y-6015000D01*
X17030000Y-5985000D02*
X17000000Y-6015000D01*
X17000000Y-8235000D02*
X17030000Y-8265000D01*
X17030000Y-8235000D02*
X17000000Y-8265000D01*
X17000000Y-8985000D02*
X17030000Y-9015000D01*
X17030000Y-8985000D02*
X17000000Y-9015000D01*
X17000000Y-9235000D02*
X17030000Y-9265000D01*
X17030000Y-9235000D02*
X17000000Y-9265000D01*
X17000000Y-9735000D02*
X17030000Y-9765000D01*
X17030000Y-9735000D02*
X17000000Y-9765000D01*
X17250000Y-5235000D02*
X17280000Y-5265000D01*
X17280000Y-5235000D02*
X17250000Y-5265000D01*
X17250000Y-5485000D02*
X17280000Y-5515000D01*
X17280000Y-5485000D02*
X17250000Y-5515000D01*
X17250000Y-5735000D02*
X17280000Y-5765000D01*
X17280000Y-5735000D02*
X17250000Y-5765000D01*
X17250000Y-6735000D02*
X17280000Y-6765000D01*
X17280000Y-6735000D02*
X17250000Y-6765000D01*
X17250000Y-9735000D02*
X17280000Y-9765000D01*
X17280000Y-9735000D02*
X17250000Y-9765000D01*
X17500000Y-5235000D02*
X17530000Y-5265000D01*
X17530000Y-5235000D02*
X17500000Y-5265000D01*
X17500000Y-5485000D02*
X17530000Y-5515000D01*
X17530000Y-5485000D02*
X17500000Y-5515000D01*
X17500000Y-5735000D02*
X17530000Y-5765000D01*
X17530000Y-5735000D02*
X17500000Y-5765000D01*
X17500000Y-5985000D02*
X17530000Y-6015000D01*
X17530000Y-5985000D02*
X17500000Y-6015000D01*
X17500000Y-7235000D02*
X17530000Y-7265000D01*
X17530000Y-7235000D02*
X17500000Y-7265000D01*
X17500000Y-8235000D02*
X17530000Y-8265000D01*
X17530000Y-8235000D02*
X17500000Y-8265000D01*
X17500000Y-8485000D02*
X17530000Y-8515000D01*
X17530000Y-8485000D02*
X17500000Y-8515000D01*
X17500000Y-8985000D02*
X17530000Y-9015000D01*
X17530000Y-8985000D02*
X17500000Y-9015000D01*
X17500000Y-9235000D02*
X17530000Y-9265000D01*
X17530000Y-9235000D02*
X17500000Y-9265000D01*
X17500000Y-9485000D02*
X17530000Y-9515000D01*
X17530000Y-9485000D02*
X17500000Y-9515000D01*
X17500000Y-9735000D02*
X17530000Y-9765000D01*
X17530000Y-9735000D02*
X17500000Y-9765000D01*
X17600000Y-7685000D02*
X17630000Y-7715000D01*
X17630000Y-7685000D02*
X17600000Y-7715000D01*
X17750000Y-5235000D02*
X17780000Y-5265000D01*
X17780000Y-5235000D02*
X17750000Y-5265000D01*
X17750000Y-5735000D02*
X17780000Y-5765000D01*
X17780000Y-5735000D02*
X17750000Y-5765000D01*
X17750000Y-5985000D02*
X17780000Y-6015000D01*
X17780000Y-5985000D02*
X17750000Y-6015000D01*
X17750000Y-8235000D02*
X17780000Y-8265000D01*
X17780000Y-8235000D02*
X17750000Y-8265000D01*
X17750000Y-8485000D02*
X17780000Y-8515000D01*
X17780000Y-8485000D02*
X17750000Y-8515000D01*
X17750000Y-9235000D02*
X17780000Y-9265000D01*
X17780000Y-9235000D02*
X17750000Y-9265000D01*
X17750000Y-9485000D02*
X17780000Y-9515000D01*
X17780000Y-9485000D02*
X17750000Y-9515000D01*
X17750000Y-9735000D02*
X17780000Y-9765000D01*
X17780000Y-9735000D02*
X17750000Y-9765000D01*
X17800000Y-6585000D02*
X17830000Y-6615000D01*
X17830000Y-6585000D02*
X17800000Y-6615000D01*
X18000000Y-5235000D02*
X18030000Y-5265000D01*
X18030000Y-5235000D02*
X18000000Y-5265000D01*
X18000000Y-5985000D02*
X18030000Y-6015000D01*
X18030000Y-5985000D02*
X18000000Y-6015000D01*
X18000000Y-6235000D02*
X18030000Y-6265000D01*
X18030000Y-6235000D02*
X18000000Y-6265000D01*
X18000000Y-8235000D02*
X18030000Y-8265000D01*
X18030000Y-8235000D02*
X18000000Y-8265000D01*
X18000000Y-8485000D02*
X18030000Y-8515000D01*
X18030000Y-8485000D02*
X18000000Y-8515000D01*
X18000000Y-8985000D02*
X18030000Y-9015000D01*
X18030000Y-8985000D02*
X18000000Y-9015000D01*
X18000000Y-9235000D02*
X18030000Y-9265000D01*
X18030000Y-9235000D02*
X18000000Y-9265000D01*
X18000000Y-9485000D02*
X18030000Y-9515000D01*
X18030000Y-9485000D02*
X18000000Y-9515000D01*
X18000000Y-9735000D02*
X18030000Y-9765000D01*
X18030000Y-9735000D02*
X18000000Y-9765000D01*
X18100000Y-7085000D02*
X18130000Y-7115000D01*
X18130000Y-7085000D02*
X18100000Y-7115000D01*
X18125000Y-7935000D02*
X18155000Y-7965000D01*
X18155000Y-7935000D02*
X18125000Y-7965000D01*
X18250000Y-5235000D02*
X18280000Y-5265000D01*
X18280000Y-5235000D02*
X18250000Y-5265000D01*
X18250000Y-5735000D02*
X18280000Y-5765000D01*
X18280000Y-5735000D02*
X18250000Y-5765000D01*
X18250000Y-5985000D02*
X18280000Y-6015000D01*
X18280000Y-5985000D02*
X18250000Y-6015000D01*
X18250000Y-6485000D02*
X18280000Y-6515000D01*
X18280000Y-6485000D02*
X18250000Y-6515000D01*
X18250000Y-7735000D02*
X18280000Y-7765000D01*
X18280000Y-7735000D02*
X18250000Y-7765000D01*
X18250000Y-8235000D02*
X18280000Y-8265000D01*
X18280000Y-8235000D02*
X18250000Y-8265000D01*
X18250000Y-8485000D02*
X18280000Y-8515000D01*
X18280000Y-8485000D02*
X18250000Y-8515000D01*
X18250000Y-9735000D02*
X18280000Y-9765000D01*
X18280000Y-9735000D02*
X18250000Y-9765000D01*
X18300000Y-7235000D02*
X18330000Y-7265000D01*
X18330000Y-7235000D02*
X18300000Y-7265000D01*
X18500000Y-5235000D02*
X18530000Y-5265000D01*
X18530000Y-5235000D02*
X18500000Y-5265000D01*
X18500000Y-5485000D02*
X18530000Y-5515000D01*
X18530000Y-5485000D02*
X18500000Y-5515000D01*
X18500000Y-5735000D02*
X18530000Y-5765000D01*
X18530000Y-5735000D02*
X18500000Y-5765000D01*
X18500000Y-5985000D02*
X18530000Y-6015000D01*
X18530000Y-5985000D02*
X18500000Y-6015000D01*
X18500000Y-6235000D02*
X18530000Y-6265000D01*
X18530000Y-6235000D02*
X18500000Y-6265000D01*
X18500000Y-6485000D02*
X18530000Y-6515000D01*
X18530000Y-6485000D02*
X18500000Y-6515000D01*
X18500000Y-7065000D02*
X18530000Y-7095000D01*
X18530000Y-7065000D02*
X18500000Y-7095000D01*
X18500000Y-7735000D02*
X18530000Y-7765000D01*
X18530000Y-7735000D02*
X18500000Y-7765000D01*
X18500000Y-8485000D02*
X18530000Y-8515000D01*
X18530000Y-8485000D02*
X18500000Y-8515000D01*
X18500000Y-9735000D02*
X18530000Y-9765000D01*
X18530000Y-9735000D02*
X18500000Y-9765000D01*
X18750000Y-5235000D02*
X18780000Y-5265000D01*
X18780000Y-5235000D02*
X18750000Y-5265000D01*
X18750000Y-7235000D02*
X18780000Y-7265000D01*
X18780000Y-7235000D02*
X18750000Y-7265000D01*
X18750000Y-7735000D02*
X18780000Y-7765000D01*
X18780000Y-7735000D02*
X18750000Y-7765000D01*
X18750000Y-9735000D02*
X18780000Y-9765000D01*
X18780000Y-9735000D02*
X18750000Y-9765000D01*
X19000000Y-5235000D02*
X19030000Y-5265000D01*
X19030000Y-5235000D02*
X19000000Y-5265000D01*
X19000000Y-5485000D02*
X19030000Y-5515000D01*
X19030000Y-5485000D02*
X19000000Y-5515000D01*
X19000000Y-5735000D02*
X19030000Y-5765000D01*
X19030000Y-5735000D02*
X19000000Y-5765000D01*
X19000000Y-5985000D02*
X19030000Y-6015000D01*
X19030000Y-5985000D02*
X19000000Y-6015000D01*
X19000000Y-6235000D02*
X19030000Y-6265000D01*
X19030000Y-6235000D02*
X19000000Y-6265000D01*
X19000000Y-6485000D02*
X19030000Y-6515000D01*
X19030000Y-6485000D02*
X19000000Y-6515000D01*
X19000000Y-7235000D02*
X19030000Y-7265000D01*
X19030000Y-7235000D02*
X19000000Y-7265000D01*
X19000000Y-7485000D02*
X19030000Y-7515000D01*
X19030000Y-7485000D02*
X19000000Y-7515000D01*
X19000000Y-7735000D02*
X19030000Y-7765000D01*
X19030000Y-7735000D02*
X19000000Y-7765000D01*
X19000000Y-7985000D02*
X19030000Y-8015000D01*
X19030000Y-7985000D02*
X19000000Y-8015000D01*
X19000000Y-8235000D02*
X19030000Y-8265000D01*
X19030000Y-8235000D02*
X19000000Y-8265000D01*
X19000000Y-8485000D02*
X19030000Y-8515000D01*
X19030000Y-8485000D02*
X19000000Y-8515000D01*
X19000000Y-9735000D02*
X19030000Y-9765000D01*
X19030000Y-9735000D02*
X19000000Y-9765000D01*
X19250000Y-5235000D02*
X19280000Y-5265000D01*
X19280000Y-5235000D02*
X19250000Y-5265000D01*
X19250000Y-5485000D02*
X19280000Y-5515000D01*
X19280000Y-5485000D02*
X19250000Y-5515000D01*
X19250000Y-5735000D02*
X19280000Y-5765000D01*
X19280000Y-5735000D02*
X19250000Y-5765000D01*
X19250000Y-5985000D02*
X19280000Y-6015000D01*
X19280000Y-5985000D02*
X19250000Y-6015000D01*
X19250000Y-6235000D02*
X19280000Y-6265000D01*
X19280000Y-6235000D02*
X19250000Y-6265000D01*
X19250000Y-6835000D02*
X19280000Y-6865000D01*
X19280000Y-6835000D02*
X19250000Y-6865000D01*
X19250000Y-7235000D02*
X19280000Y-7265000D01*
X19280000Y-7235000D02*
X19250000Y-7265000D01*
X19250000Y-7485000D02*
X19280000Y-7515000D01*
X19280000Y-7485000D02*
X19250000Y-7515000D01*
X19250000Y-7735000D02*
X19280000Y-7765000D01*
X19280000Y-7735000D02*
X19250000Y-7765000D01*
X19250000Y-7985000D02*
X19280000Y-8015000D01*
X19280000Y-7985000D02*
X19250000Y-8015000D01*
X19250000Y-8235000D02*
X19280000Y-8265000D01*
X19280000Y-8235000D02*
X19250000Y-8265000D01*
X19250000Y-8485000D02*
X19280000Y-8515000D01*
X19280000Y-8485000D02*
X19250000Y-8515000D01*
X19250000Y-8735000D02*
X19280000Y-8765000D01*
X19280000Y-8735000D02*
X19250000Y-8765000D01*
X19250000Y-8985000D02*
X19280000Y-9015000D01*
X19280000Y-8985000D02*
X19250000Y-9015000D01*
X19250000Y-9235000D02*
X19280000Y-9265000D01*
X19280000Y-9235000D02*
X19250000Y-9265000D01*
X19250000Y-9485000D02*
X19280000Y-9515000D01*
X19280000Y-9485000D02*
X19250000Y-9515000D01*
X19250000Y-9735000D02*
X19280000Y-9765000D01*
X19280000Y-9735000D02*
X19250000Y-9765000D01*
X19500000Y-5735000D02*
X19530000Y-5765000D01*
X19530000Y-5735000D02*
X19500000Y-5765000D01*
X19500000Y-7235000D02*
X19530000Y-7265000D01*
X19530000Y-7235000D02*
X19500000Y-7265000D01*
X19500000Y-8235000D02*
X19530000Y-8265000D01*
X19530000Y-8235000D02*
X19500000Y-8265000D01*
X19500000Y-8485000D02*
X19530000Y-8515000D01*
X19530000Y-8485000D02*
X19500000Y-8515000D01*
X19500000Y-8735000D02*
X19530000Y-8765000D01*
X19530000Y-8735000D02*
X19500000Y-8765000D01*
X19500000Y-8985000D02*
X19530000Y-9015000D01*
X19530000Y-8985000D02*
X19500000Y-9015000D01*
X19500000Y-9235000D02*
X19530000Y-9265000D01*
X19530000Y-9235000D02*
X19500000Y-9265000D01*
X19750000Y-5735000D02*
X19780000Y-5765000D01*
X19780000Y-5735000D02*
X19750000Y-5765000D01*
X19750000Y-5985000D02*
X19780000Y-6015000D01*
X19780000Y-5985000D02*
X19750000Y-6015000D01*
X19750000Y-6235000D02*
X19780000Y-6265000D01*
X19780000Y-6235000D02*
X19750000Y-6265000D01*
X19750000Y-6485000D02*
X19780000Y-6515000D01*
X19780000Y-6485000D02*
X19750000Y-6515000D01*
X19750000Y-6735000D02*
X19780000Y-6765000D01*
X19780000Y-6735000D02*
X19750000Y-6765000D01*
X19750000Y-6985000D02*
X19780000Y-7015000D01*
X19780000Y-6985000D02*
X19750000Y-7015000D01*
X19750000Y-7235000D02*
X19780000Y-7265000D01*
X19780000Y-7235000D02*
X19750000Y-7265000D01*
X19750000Y-7485000D02*
X19780000Y-7515000D01*
X19780000Y-7485000D02*
X19750000Y-7515000D01*
X19750000Y-7735000D02*
X19780000Y-7765000D01*
X19780000Y-7735000D02*
X19750000Y-7765000D01*
X19750000Y-7985000D02*
X19780000Y-8015000D01*
X19780000Y-7985000D02*
X19750000Y-8015000D01*
X19750000Y-8235000D02*
X19780000Y-8265000D01*
X19780000Y-8235000D02*
X19750000Y-8265000D01*
X19750000Y-8485000D02*
X19780000Y-8515000D01*
X19780000Y-8485000D02*
X19750000Y-8515000D01*
X19750000Y-8735000D02*
X19780000Y-8765000D01*
X19780000Y-8735000D02*
X19750000Y-8765000D01*
X19750000Y-8985000D02*
X19780000Y-9015000D01*
X19780000Y-8985000D02*
X19750000Y-9015000D01*
X19750000Y-9235000D02*
X19780000Y-9265000D01*
X19780000Y-9235000D02*
X19750000Y-9265000D01*
X15901000Y-7458000D02*
G75*
G03X15901000Y-7458000I-20000J0D01*
G01*
X16001000Y-7128000D02*
G75*
G03X16001000Y-7128000I-20000J0D01*
G01*
X16285000Y-8300000D02*
G75*
G03X16285000Y-8300000I-20000J0D01*
G01*
X16588047Y-8248717D02*
G75*
G03X16588047Y-8248717I-20000J0D01*
G01*
X16636668Y-7633817D02*
G75*
G03X16636668Y-7633817I-20000J0D01*
G01*
X16683475Y-8176874D02*
G75*
G03X16683475Y-8176874I-20000J0D01*
G01*
X16785813Y-8173153D02*
G75*
G03X16785813Y-8173153I-20000J0D01*
G01*
X16937501Y-6824999D02*
G75*
G03X16937501Y-6824999I-20000J0D01*
G01*
X16986069Y-7292274D02*
G75*
G03X16986069Y-7292274I-20000J0D01*
G01*
X16986655Y-7212275D02*
G75*
G03X16986655Y-7212275I-20000J0D01*
G01*
X16987292Y-7372275D02*
G75*
G03X16987292Y-7372275I-20000J0D01*
G01*
X16988224Y-7542629D02*
G75*
G03X16988224Y-7542629I-20000J0D01*
G01*
X17261000Y-7198000D02*
G75*
G03X17261000Y-7198000I-20000J0D01*
G01*
X17785801Y-7500589D02*
G75*
G03X17785801Y-7500589I-20000J0D01*
G01*
X17786000Y-7795500D02*
G75*
G03X17786000Y-7795500I-20000J0D01*
G01*
X17821000Y-7698000D02*
G75*
G03X17821000Y-7698000I-20000J0D01*
G01*
X17836188Y-6792711D02*
G75*
G03X17836188Y-6792711I-20000J0D01*
G01*
X18135000Y-7377318D02*
G75*
G03X18135000Y-7377318I-20000J0D01*
G01*
X18135000Y-7464265D02*
G75*
G03X18135000Y-7464265I-20000J0D01*
G01*
X18401000Y-6628000D02*
G75*
G03X18401000Y-6628000I-20000J0D01*
G01*
X18438301Y-7577982D02*
G75*
G03X18438301Y-7577982I-20000J0D01*
G01*
X18671994Y-7729193D02*
G75*
G03X18671994Y-7729193I-20000J0D01*
G01*
X18924055Y-7434015D02*
G75*
G03X18924055Y-7434015I-20000J0D01*
G01*
X12955000Y-7475500D02*
X12955000Y-7551700D01*
X12916900Y-7513600D02*
X12993100Y-7513600D01*
X12955000Y-7675500D02*
X12955000Y-7751700D01*
X12916900Y-7713600D02*
X12993100Y-7713600D01*
X12955000Y-7875500D02*
X12955000Y-7951700D01*
X12916900Y-7913600D02*
X12993100Y-7913600D01*
X12955000Y-8075500D02*
X12955000Y-8151700D01*
X12916900Y-8113600D02*
X12993100Y-8113600D01*
X12955000Y-8275500D02*
X12955000Y-8351700D01*
X12916900Y-8313600D02*
X12993100Y-8313600D01*
X12955000Y-8475500D02*
X12955000Y-8551700D01*
X12916900Y-8513600D02*
X12993100Y-8513600D01*
X12955000Y-8725500D02*
X12955000Y-8801700D01*
X12916900Y-8763600D02*
X12993100Y-8763600D01*
X13155000Y-7475500D02*
X13155000Y-7551700D01*
X13116900Y-7513600D02*
X13193100Y-7513600D01*
X13155000Y-7675500D02*
X13155000Y-7751700D01*
X13116900Y-7713600D02*
X13193100Y-7713600D01*
X13155000Y-7875500D02*
X13155000Y-7951700D01*
X13116900Y-7913600D02*
X13193100Y-7913600D01*
X13155000Y-8075500D02*
X13155000Y-8151700D01*
X13116900Y-8113600D02*
X13193100Y-8113600D01*
X13155000Y-8275500D02*
X13155000Y-8351700D01*
X13116900Y-8313600D02*
X13193100Y-8313600D01*
X13355000Y-7475500D02*
X13355000Y-7551700D01*
X13316900Y-7513600D02*
X13393100Y-7513600D01*
X13355000Y-7675500D02*
X13355000Y-7751700D01*
X13316900Y-7713600D02*
X13393100Y-7713600D01*
X13355000Y-7875500D02*
X13355000Y-7951700D01*
X13316900Y-7913600D02*
X13393100Y-7913600D01*
X13355000Y-8075500D02*
X13355000Y-8151700D01*
X13316900Y-8113600D02*
X13393100Y-8113600D01*
X13355000Y-8275500D02*
X13355000Y-8351700D01*
X13316900Y-8313600D02*
X13393100Y-8313600D01*
X13555000Y-7475500D02*
X13555000Y-7551700D01*
X13516900Y-7513600D02*
X13593100Y-7513600D01*
X13555000Y-7675500D02*
X13555000Y-7751700D01*
X13516900Y-7713600D02*
X13593100Y-7713600D01*
X13555000Y-7875500D02*
X13555000Y-7951700D01*
X13516900Y-7913600D02*
X13593100Y-7913600D01*
X13555000Y-8075500D02*
X13555000Y-8151700D01*
X13516900Y-8113600D02*
X13593100Y-8113600D01*
X13555000Y-8275500D02*
X13555000Y-8351700D01*
X13516900Y-8313600D02*
X13593100Y-8313600D01*
X13555000Y-8475500D02*
X13555000Y-8551700D01*
X13516900Y-8513600D02*
X13593100Y-8513600D01*
X13555000Y-8725500D02*
X13555000Y-8801700D01*
X13516900Y-8763600D02*
X13593100Y-8763600D01*
X12853737Y-6228737D02*
X12853737Y-6171263D01*
X12796263Y-6171263D01*
X12796263Y-6228737D01*
X12853737Y-6228737D01*
X13107737Y-6228737D02*
X13107737Y-6171263D01*
X13050263Y-6171263D01*
X13050263Y-6228737D01*
X13107737Y-6228737D01*
X13361737Y-6228737D02*
X13361737Y-6171263D01*
X13304263Y-6171263D01*
X13304263Y-6228737D01*
X13361737Y-6228737D01*
X10520000Y-8045000D02*
X10565000Y-8000000D01*
X10520000Y-7955000D01*
X10475000Y-8000000D01*
X10520000Y-8045000D01*
X10520000Y-8295000D02*
X10565000Y-8250000D01*
X10520000Y-8205000D01*
X10475000Y-8250000D01*
X10520000Y-8295000D01*
X10520000Y-8545000D02*
X10565000Y-8500000D01*
X10520000Y-8455000D01*
X10475000Y-8500000D01*
X10520000Y-8545000D01*
X10520000Y-8795000D02*
X10565000Y-8750000D01*
X10520000Y-8705000D01*
X10475000Y-8750000D01*
X10520000Y-8795000D01*
X10520000Y-9045000D02*
X10565000Y-9000000D01*
X10520000Y-8955000D01*
X10475000Y-9000000D01*
X10520000Y-9045000D01*
X11755000Y-9562500D02*
X11800000Y-9517500D01*
X11755000Y-9472500D01*
X11710000Y-9517500D01*
X11755000Y-9562500D01*
X12005000Y-9562500D02*
X12050000Y-9517500D01*
X12005000Y-9472500D01*
X11960000Y-9517500D01*
X12005000Y-9562500D01*
X12255000Y-9562500D02*
X12300000Y-9517500D01*
X12255000Y-9472500D01*
X12210000Y-9517500D01*
X12255000Y-9562500D01*
X12505000Y-9562500D02*
X12550000Y-9517500D01*
X12505000Y-9472500D01*
X12460000Y-9517500D01*
X12505000Y-9562500D01*
X13227500Y-9562500D02*
X13272500Y-9517500D01*
X13227500Y-9472500D01*
X13182500Y-9517500D01*
X13227500Y-9562500D01*
X13477500Y-9562500D02*
X13522500Y-9517500D01*
X13477500Y-9472500D01*
X13432500Y-9517500D01*
X13477500Y-9562500D01*
X13727500Y-9562500D02*
X13772500Y-9517500D01*
X13727500Y-9472500D01*
X13682500Y-9517500D01*
X13727500Y-9562500D01*
X13977500Y-9562500D02*
X14022500Y-9517500D01*
X13977500Y-9472500D01*
X13932500Y-9517500D01*
X13977500Y-9562500D01*
X15531000Y-6023000D02*
X15576000Y-5978000D01*
X15531000Y-5933000D01*
X15486000Y-5978000D01*
X15531000Y-6023000D01*
X15531000Y-6273000D02*
X15576000Y-6228000D01*
X15531000Y-6183000D01*
X15486000Y-6228000D01*
X15531000Y-6273000D01*
X15531000Y-6523000D02*
X15576000Y-6478000D01*
X15531000Y-6433000D01*
X15486000Y-6478000D01*
X15531000Y-6523000D01*
X15531000Y-6773000D02*
X15576000Y-6728000D01*
X15531000Y-6683000D01*
X15486000Y-6728000D01*
X15531000Y-6773000D01*
X15531000Y-7023000D02*
X15576000Y-6978000D01*
X15531000Y-6933000D01*
X15486000Y-6978000D01*
X15531000Y-7023000D01*
X18231000Y-8723000D02*
X18276000Y-8678000D01*
X18231000Y-8633000D01*
X18186000Y-8678000D01*
X18231000Y-8723000D01*
X18231000Y-9523000D02*
X18276000Y-9478000D01*
X18231000Y-9433000D01*
X18186000Y-9478000D01*
X18231000Y-9523000D01*
X18481000Y-8723000D02*
X18526000Y-8678000D01*
X18481000Y-8633000D01*
X18436000Y-8678000D01*
X18481000Y-8723000D01*
X18481000Y-9523000D02*
X18526000Y-9478000D01*
X18481000Y-9433000D01*
X18436000Y-9478000D01*
X18481000Y-9523000D01*
X18731000Y-8723000D02*
X18776000Y-8678000D01*
X18731000Y-8633000D01*
X18686000Y-8678000D01*
X18731000Y-8723000D01*
X18731000Y-9523000D02*
X18776000Y-9478000D01*
X18731000Y-9433000D01*
X18686000Y-9478000D01*
X18731000Y-9523000D01*
X18981000Y-8723000D02*
X19026000Y-8678000D01*
X18981000Y-8633000D01*
X18936000Y-8678000D01*
X18981000Y-8723000D01*
X18981000Y-9523000D02*
X19026000Y-9478000D01*
X18981000Y-9433000D01*
X18936000Y-9478000D01*
X18981000Y-9523000D01*
X19481000Y-6023000D02*
X19526000Y-5978000D01*
X19481000Y-5933000D01*
X19436000Y-5978000D01*
X19481000Y-6023000D01*
X19481000Y-6273000D02*
X19526000Y-6228000D01*
X19481000Y-6183000D01*
X19436000Y-6228000D01*
X19481000Y-6273000D01*
X19481000Y-6523000D02*
X19526000Y-6478000D01*
X19481000Y-6433000D01*
X19436000Y-6478000D01*
X19481000Y-6523000D01*
X19481000Y-6773000D02*
X19526000Y-6728000D01*
X19481000Y-6683000D01*
X19436000Y-6728000D01*
X19481000Y-6773000D01*
X19481000Y-7023000D02*
X19526000Y-6978000D01*
X19481000Y-6933000D01*
X19436000Y-6978000D01*
X19481000Y-7023000D01*
X11150724Y-6924962D02*
X11250800Y-7025038D01*
X11250800Y-6924962D02*
X11150724Y-7025038D01*
X11250800Y-6975000D02*
G75*
G03X11250800Y-6975000I-50038J0D01*
G01*
X12950962Y-6913562D02*
X13051038Y-7013638D01*
X13051038Y-6913562D02*
X12950962Y-7013638D01*
X13051038Y-6963600D02*
G75*
G03X13051038Y-6963600I-50038J0D01*
G01*
X13204962Y-6913562D02*
X13305038Y-7013638D01*
X13305038Y-6913562D02*
X13204962Y-7013638D01*
X13305038Y-6963600D02*
G75*
G03X13305038Y-6963600I-50038J0D01*
G01*
X13458962Y-6913562D02*
X13559038Y-7013638D01*
X13559038Y-6913562D02*
X13458962Y-7013638D01*
X13559038Y-6963600D02*
G75*
G03X13559038Y-6963600I-50038J0D01*
G01*
X11149200Y-8395200D02*
X11250800Y-8496800D01*
X11250800Y-8395200D02*
X11149200Y-8496800D01*
X11200000Y-8395200D02*
X11200000Y-8496800D01*
X11149200Y-8446000D02*
X11250800Y-8446000D01*
X11149200Y-8649200D02*
X11250800Y-8750800D01*
X11250800Y-8649200D02*
X11149200Y-8750800D01*
X11200000Y-8649200D02*
X11200000Y-8750800D01*
X11149200Y-8700000D02*
X11250800Y-8700000D01*
X11149200Y-8903200D02*
X11250800Y-9004800D01*
X11250800Y-8903200D02*
X11149200Y-9004800D01*
X11200000Y-8903200D02*
X11200000Y-9004800D01*
X11149200Y-8954000D02*
X11250800Y-8954000D01*
X11149200Y-9157200D02*
X11250800Y-9258800D01*
X11250800Y-9157200D02*
X11149200Y-9258800D01*
X11200000Y-9157200D02*
X11200000Y-9258800D01*
X11149200Y-9208000D02*
X11250800Y-9208000D01*
X11149200Y-9411200D02*
X11250800Y-9512800D01*
X11250800Y-9411200D02*
X11149200Y-9512800D01*
X11200000Y-9411200D02*
X11200000Y-9512800D01*
X11149200Y-9462000D02*
X11250800Y-9462000D01*
X15480200Y-7473200D02*
X15581800Y-7574800D01*
X15581800Y-7473200D02*
X15480200Y-7574800D01*
X15531000Y-7473200D02*
X15531000Y-7574800D01*
X15480200Y-7524000D02*
X15581800Y-7524000D01*
X15480200Y-7727200D02*
X15581800Y-7828800D01*
X15581800Y-7727200D02*
X15480200Y-7828800D01*
X15531000Y-7727200D02*
X15531000Y-7828800D01*
X15480200Y-7778000D02*
X15581800Y-7778000D01*
X15480200Y-7981200D02*
X15581800Y-8082800D01*
X15581800Y-7981200D02*
X15480200Y-8082800D01*
X15531000Y-7981200D02*
X15531000Y-8082800D01*
X15480200Y-8032000D02*
X15581800Y-8032000D01*
X16376200Y-5477200D02*
X16477800Y-5578800D01*
X16477800Y-5477200D02*
X16376200Y-5578800D01*
X16427000Y-5477200D02*
X16427000Y-5578800D01*
X16376200Y-5528000D02*
X16477800Y-5528000D01*
X16630200Y-5477200D02*
X16731800Y-5578800D01*
X16731800Y-5477200D02*
X16630200Y-5578800D01*
X16681000Y-5477200D02*
X16681000Y-5578800D01*
X16630200Y-5528000D02*
X16731800Y-5528000D01*
X16884200Y-5477200D02*
X16985800Y-5578800D01*
X16985800Y-5477200D02*
X16884200Y-5578800D01*
X16935000Y-5477200D02*
X16935000Y-5578800D01*
X16884200Y-5528000D02*
X16985800Y-5528000D01*
X17626200Y-5477200D02*
X17727800Y-5578800D01*
X17727800Y-5477200D02*
X17626200Y-5578800D01*
X17677000Y-5477200D02*
X17677000Y-5578800D01*
X17626200Y-5528000D02*
X17727800Y-5528000D01*
X17880200Y-5477200D02*
X17981800Y-5578800D01*
X17981800Y-5477200D02*
X17880200Y-5578800D01*
X17931000Y-5477200D02*
X17931000Y-5578800D01*
X17880200Y-5528000D02*
X17981800Y-5528000D01*
X18134200Y-5477200D02*
X18235800Y-5578800D01*
X18235800Y-5477200D02*
X18134200Y-5578800D01*
X18185000Y-5477200D02*
X18185000Y-5578800D01*
X18134200Y-5528000D02*
X18235800Y-5528000D01*
X18730200Y-5473200D02*
X18831800Y-5574800D01*
X18831800Y-5473200D02*
X18730200Y-5574800D01*
X18781000Y-5473200D02*
X18781000Y-5574800D01*
X18730200Y-5524000D02*
X18831800Y-5524000D01*
X18730200Y-5727200D02*
X18831800Y-5828800D01*
X18831800Y-5727200D02*
X18730200Y-5828800D01*
X18781000Y-5727200D02*
X18781000Y-5828800D01*
X18730200Y-5778000D02*
X18831800Y-5778000D01*
X18730200Y-5981200D02*
X18831800Y-6082800D01*
X18831800Y-5981200D02*
X18730200Y-6082800D01*
X18781000Y-5981200D02*
X18781000Y-6082800D01*
X18730200Y-6032000D02*
X18831800Y-6032000D01*
X18730200Y-6235200D02*
X18831800Y-6336800D01*
X18831800Y-6235200D02*
X18730200Y-6336800D01*
X18781000Y-6235200D02*
X18781000Y-6336800D01*
X18730200Y-6286000D02*
X18831800Y-6286000D01*
X18730200Y-6489200D02*
X18831800Y-6590800D01*
X18831800Y-6489200D02*
X18730200Y-6590800D01*
X18781000Y-6489200D02*
X18781000Y-6590800D01*
X18730200Y-6540000D02*
X18831800Y-6540000D01*
X18730200Y-6743200D02*
X18831800Y-6844800D01*
X18831800Y-6743200D02*
X18730200Y-6844800D01*
X18781000Y-6743200D02*
X18781000Y-6844800D01*
X18730200Y-6794000D02*
X18831800Y-6794000D01*
X19430200Y-7473200D02*
X19531800Y-7574800D01*
X19531800Y-7473200D02*
X19430200Y-7574800D01*
X19481000Y-7473200D02*
X19481000Y-7574800D01*
X19430200Y-7524000D02*
X19531800Y-7524000D01*
X19430200Y-7727200D02*
X19531800Y-7828800D01*
X19531800Y-7727200D02*
X19430200Y-7828800D01*
X19481000Y-7727200D02*
X19481000Y-7828800D01*
X19430200Y-7778000D02*
X19531800Y-7778000D01*
X19430200Y-7981200D02*
X19531800Y-8082800D01*
X19531800Y-7981200D02*
X19430200Y-8082800D01*
X19481000Y-7981200D02*
X19481000Y-8082800D01*
X19430200Y-8032000D02*
X19531800Y-8032000D01*
X10540000Y-5940000D02*
X10660000Y-6060000D01*
X10660000Y-5940000D02*
X10540000Y-6060000D01*
X10642427Y-6042427D02*
X10642427Y-5957573D01*
X10557573Y-5957573D01*
X10557573Y-6042427D01*
X10642427Y-6042427D01*
X10540000Y-6290000D02*
X10660000Y-6410000D01*
X10660000Y-6290000D02*
X10540000Y-6410000D01*
X10642427Y-6392427D02*
X10642427Y-6307573D01*
X10557573Y-6307573D01*
X10557573Y-6392427D01*
X10642427Y-6392427D01*
X10540000Y-6940000D02*
X10660000Y-7060000D01*
X10660000Y-6940000D02*
X10540000Y-7060000D01*
X10642427Y-7042427D02*
X10642427Y-6957573D01*
X10557573Y-6957573D01*
X10557573Y-7042427D01*
X10642427Y-7042427D01*
X10540000Y-7290000D02*
X10660000Y-7410000D01*
X10660000Y-7290000D02*
X10540000Y-7410000D01*
X10642427Y-7392427D02*
X10642427Y-7307573D01*
X10557573Y-7307573D01*
X10557573Y-7392427D01*
X10642427Y-7392427D01*
X11490000Y-5540000D02*
X11610000Y-5660000D01*
X11610000Y-5540000D02*
X11490000Y-5660000D01*
X11592427Y-5642427D02*
X11592427Y-5557573D01*
X11507573Y-5557573D01*
X11507573Y-5642427D01*
X11592427Y-5642427D01*
X11840000Y-5540000D02*
X11960000Y-5660000D01*
X11960000Y-5540000D02*
X11840000Y-5660000D01*
X11942427Y-5642427D02*
X11942427Y-5557573D01*
X11857573Y-5557573D01*
X11857573Y-5642427D01*
X11942427Y-5642427D01*
X12190000Y-5540000D02*
X12310000Y-5660000D01*
X12310000Y-5540000D02*
X12190000Y-5660000D01*
X12292427Y-5642427D02*
X12292427Y-5557573D01*
X12207573Y-5557573D01*
X12207573Y-5642427D01*
X12292427Y-5642427D01*
X12540000Y-5540000D02*
X12660000Y-5660000D01*
X12660000Y-5540000D02*
X12540000Y-5660000D01*
X12642427Y-5642427D02*
X12642427Y-5557573D01*
X12557573Y-5557573D01*
X12557573Y-5642427D01*
X12642427Y-5642427D01*
X13515000Y-5540000D02*
X13635000Y-5660000D01*
X13635000Y-5540000D02*
X13515000Y-5660000D01*
X13617427Y-5642427D02*
X13617427Y-5557573D01*
X13532573Y-5557573D01*
X13532573Y-5642427D01*
X13617427Y-5642427D01*
X13865000Y-5540000D02*
X13985000Y-5660000D01*
X13985000Y-5540000D02*
X13865000Y-5660000D01*
X13967427Y-5642427D02*
X13967427Y-5557573D01*
X13882573Y-5557573D01*
X13882573Y-5642427D01*
X13967427Y-5642427D01*
X14305000Y-6615000D02*
X14425000Y-6735000D01*
X14425000Y-6615000D02*
X14305000Y-6735000D01*
X14407427Y-6717427D02*
X14407427Y-6632573D01*
X14322573Y-6632573D01*
X14322573Y-6717427D01*
X14407427Y-6717427D01*
X14305000Y-6965000D02*
X14425000Y-7085000D01*
X14425000Y-6965000D02*
X14305000Y-7085000D01*
X14407427Y-7067427D02*
X14407427Y-6982573D01*
X14322573Y-6982573D01*
X14322573Y-7067427D01*
X14407427Y-7067427D01*
X14305000Y-8215000D02*
X14425000Y-8335000D01*
X14425000Y-8215000D02*
X14305000Y-8335000D01*
X14407427Y-8317427D02*
X14407427Y-8232573D01*
X14322573Y-8232573D01*
X14322573Y-8317427D01*
X14407427Y-8317427D01*
X14305000Y-8565000D02*
X14425000Y-8685000D01*
X14425000Y-8565000D02*
X14305000Y-8685000D01*
X14407427Y-8667427D02*
X14407427Y-8582573D01*
X14322573Y-8582573D01*
X14322573Y-8667427D01*
X14407427Y-8667427D01*
X11137262Y-7927500D02*
X11264262Y-8054500D01*
X11264262Y-7927500D02*
X11137262Y-8054500D01*
X11200762Y-8054500D02*
X11264262Y-7991000D01*
X11200762Y-7927500D01*
X11137262Y-7991000D01*
X11200762Y-8054500D01*
X11925000Y-6160000D02*
X11925000Y-6290000D01*
X11860000Y-6225000D02*
X11990000Y-6225000D01*
X11990000Y-6225000D02*
G75*
G03X11990000Y-6225000I-65000J0D01*
G01*
X11925000Y-8410000D02*
X11925000Y-8540000D01*
X11860000Y-8475000D02*
X11990000Y-8475000D01*
X11990000Y-8475000D02*
G75*
G03X11990000Y-8475000I-65000J0D01*
G01*
X10507764Y-5507764D02*
X10507764Y-5292236D01*
X10292236Y-5292236D01*
X10292236Y-5507764D01*
X10507764Y-5507764D01*
X10552400Y-5400000D02*
G75*
G03X10552400Y-5400000I-152400J0D01*
G01*
X10507764Y-9707764D02*
X10507764Y-9492236D01*
X10292236Y-9492236D01*
X10292236Y-9707764D01*
X10507764Y-9707764D01*
X10552400Y-9600000D02*
G75*
G03X10552400Y-9600000I-152400J0D01*
G01*
X14707764Y-5507764D02*
X14707764Y-5292236D01*
X14492236Y-5292236D01*
X14492236Y-5507764D01*
X14707764Y-5507764D01*
X14752400Y-5400000D02*
G75*
G03X14752400Y-5400000I-152400J0D01*
G01*
X14707764Y-9707764D02*
X14707764Y-9492236D01*
X14492236Y-9492236D01*
X14492236Y-9707764D01*
X14707764Y-9707764D01*
X14752400Y-9600000D02*
G75*
G03X14752400Y-9600000I-152400J0D01*
G01*
X15522764Y-5507764D02*
X15522764Y-5292236D01*
X15307236Y-5292236D01*
X15307236Y-5507764D01*
X15522764Y-5507764D01*
X15567400Y-5400000D02*
G75*
G03X15567400Y-5400000I-152400J0D01*
G01*
X15522764Y-9707764D02*
X15522764Y-9492236D01*
X15307236Y-9492236D01*
X15307236Y-9707764D01*
X15522764Y-9707764D01*
X15567400Y-9600000D02*
G75*
G03X15567400Y-9600000I-152400J0D01*
G01*
X19722764Y-5507764D02*
X19722764Y-5292236D01*
X19507236Y-5292236D01*
X19507236Y-5507764D01*
X19722764Y-5507764D01*
X19767400Y-5400000D02*
G75*
G03X19767400Y-5400000I-152400J0D01*
G01*
X19722764Y-9707764D02*
X19722764Y-9492236D01*
X19507236Y-9492236D01*
X19507236Y-9707764D01*
X19722764Y-9707764D01*
X19767400Y-9600000D02*
G75*
G03X19767400Y-9600000I-152400J0D01*
G01*
X13255000Y-8829992D02*
X13444992Y-8640000D01*
X13255000Y-8450008D01*
X13065008Y-8640000D01*
X13255000Y-8829992D01*
X13444992Y-8640000D02*
G75*
G03X13444992Y-8640000I-189992J0D01*
G01*
D13*
X10263929Y-10473214D02*
X10263929Y-10173214D01*
X10335357Y-10173214D01*
X10378214Y-10187500D01*
X10406786Y-10216072D01*
X10421071Y-10244643D01*
X10435357Y-10301786D01*
X10435357Y-10344643D01*
X10421071Y-10401786D01*
X10406786Y-10430357D01*
X10378214Y-10458929D01*
X10335357Y-10473214D01*
X10263929Y-10473214D01*
X10563929Y-10473214D02*
X10563929Y-10273214D01*
X10563929Y-10330357D02*
X10578214Y-10301786D01*
X10592500Y-10287500D01*
X10621071Y-10273214D01*
X10649643Y-10273214D01*
X10749643Y-10473214D02*
X10749643Y-10273214D01*
X10749643Y-10173214D02*
X10735357Y-10187500D01*
X10749643Y-10201786D01*
X10763929Y-10187500D01*
X10749643Y-10173214D01*
X10749643Y-10201786D01*
X10935357Y-10473214D02*
X10906786Y-10458929D01*
X10892500Y-10430357D01*
X10892500Y-10173214D01*
X11092500Y-10473214D02*
X11063929Y-10458929D01*
X11049643Y-10430357D01*
X11049643Y-10173214D01*
X11435357Y-10473214D02*
X11435357Y-10173214D01*
X11535357Y-10387500D01*
X11635357Y-10173214D01*
X11635357Y-10473214D01*
X11906786Y-10473214D02*
X11906786Y-10316072D01*
X11892500Y-10287500D01*
X11863928Y-10273214D01*
X11806786Y-10273214D01*
X11778214Y-10287500D01*
X11906786Y-10458929D02*
X11878214Y-10473214D01*
X11806786Y-10473214D01*
X11778214Y-10458929D01*
X11763928Y-10430357D01*
X11763928Y-10401786D01*
X11778214Y-10373214D01*
X11806786Y-10358929D01*
X11878214Y-10358929D01*
X11906786Y-10344643D01*
X12049643Y-10273214D02*
X12049643Y-10573214D01*
X12049643Y-10287500D02*
X12078214Y-10273214D01*
X12135357Y-10273214D01*
X12163928Y-10287500D01*
X12178214Y-10301786D01*
X12192500Y-10330357D01*
X12192500Y-10416072D01*
X12178214Y-10444643D01*
X12163928Y-10458929D01*
X12135357Y-10473214D01*
X12078214Y-10473214D01*
X12049643Y-10458929D01*
X12321071Y-10444643D02*
X12335357Y-10458929D01*
X12321071Y-10473214D01*
X12306786Y-10458929D01*
X12321071Y-10444643D01*
X12321071Y-10473214D01*
X12321071Y-10287500D02*
X12335357Y-10301786D01*
X12321071Y-10316072D01*
X12306786Y-10301786D01*
X12321071Y-10287500D01*
X12321071Y-10316072D01*
X9962500Y-10952500D02*
X9992500Y-10982500D01*
X9992500Y-10952500D02*
X9962500Y-10982500D01*
X10321071Y-10803214D02*
X10349643Y-10803214D01*
X10378214Y-10817500D01*
X10392500Y-10831786D01*
X10406786Y-10860357D01*
X10421071Y-10917500D01*
X10421071Y-10988929D01*
X10406786Y-11046072D01*
X10392500Y-11074643D01*
X10378214Y-11088929D01*
X10349643Y-11103214D01*
X10321071Y-11103214D01*
X10292500Y-11088929D01*
X10278214Y-11074643D01*
X10263929Y-11046072D01*
X10249643Y-10988929D01*
X10249643Y-10917500D01*
X10263929Y-10860357D01*
X10278214Y-10831786D01*
X10292500Y-10817500D01*
X10321071Y-10803214D01*
X10549643Y-11074643D02*
X10563929Y-11088929D01*
X10549643Y-11103214D01*
X10535357Y-11088929D01*
X10549643Y-11074643D01*
X10549643Y-11103214D01*
X10663928Y-10803214D02*
X10849643Y-10803214D01*
X10749643Y-10917500D01*
X10792500Y-10917500D01*
X10821071Y-10931786D01*
X10835357Y-10946072D01*
X10849643Y-10974643D01*
X10849643Y-11046072D01*
X10835357Y-11074643D01*
X10821071Y-11088929D01*
X10792500Y-11103214D01*
X10706786Y-11103214D01*
X10678214Y-11088929D01*
X10663928Y-11074643D01*
X11035357Y-10803214D02*
X11063929Y-10803214D01*
X11092500Y-10817500D01*
X11106786Y-10831786D01*
X11121071Y-10860357D01*
X11135357Y-10917500D01*
X11135357Y-10988929D01*
X11121071Y-11046072D01*
X11106786Y-11074643D01*
X11092500Y-11088929D01*
X11063929Y-11103214D01*
X11035357Y-11103214D01*
X11006786Y-11088929D01*
X10992500Y-11074643D01*
X10978214Y-11046072D01*
X10963929Y-10988929D01*
X10963929Y-10917500D01*
X10978214Y-10860357D01*
X10992500Y-10831786D01*
X11006786Y-10817500D01*
X11035357Y-10803214D01*
X11263928Y-11103214D02*
X11263928Y-10903214D01*
X11263928Y-10931786D02*
X11278214Y-10917500D01*
X11306786Y-10903214D01*
X11349643Y-10903214D01*
X11378214Y-10917500D01*
X11392500Y-10946072D01*
X11392500Y-11103214D01*
X11392500Y-10946072D02*
X11406786Y-10917500D01*
X11435357Y-10903214D01*
X11478214Y-10903214D01*
X11506786Y-10917500D01*
X11521071Y-10946072D01*
X11521071Y-11103214D01*
X11663928Y-11103214D02*
X11663928Y-10903214D01*
X11663928Y-10931786D02*
X11678214Y-10917500D01*
X11706786Y-10903214D01*
X11749643Y-10903214D01*
X11778214Y-10917500D01*
X11792500Y-10946072D01*
X11792500Y-11103214D01*
X11792500Y-10946072D02*
X11806786Y-10917500D01*
X11835357Y-10903214D01*
X11878214Y-10903214D01*
X11906786Y-10917500D01*
X11921071Y-10946072D01*
X11921071Y-11103214D01*
X12506786Y-10788929D02*
X12249643Y-11174643D01*
X12892500Y-10803214D02*
X12921071Y-10803214D01*
X12949643Y-10817500D01*
X12963928Y-10831786D01*
X12978214Y-10860357D01*
X12992500Y-10917500D01*
X12992500Y-10988929D01*
X12978214Y-11046072D01*
X12963928Y-11074643D01*
X12949643Y-11088929D01*
X12921071Y-11103214D01*
X12892500Y-11103214D01*
X12863928Y-11088929D01*
X12849643Y-11074643D01*
X12835357Y-11046072D01*
X12821071Y-10988929D01*
X12821071Y-10917500D01*
X12835357Y-10860357D01*
X12849643Y-10831786D01*
X12863928Y-10817500D01*
X12892500Y-10803214D01*
X13121071Y-11074643D02*
X13135357Y-11088929D01*
X13121071Y-11103214D01*
X13106786Y-11088929D01*
X13121071Y-11074643D01*
X13121071Y-11103214D01*
X13321071Y-10803214D02*
X13349643Y-10803214D01*
X13378214Y-10817500D01*
X13392500Y-10831786D01*
X13406785Y-10860357D01*
X13421071Y-10917500D01*
X13421071Y-10988929D01*
X13406785Y-11046072D01*
X13392500Y-11074643D01*
X13378214Y-11088929D01*
X13349643Y-11103214D01*
X13321071Y-11103214D01*
X13292500Y-11088929D01*
X13278214Y-11074643D01*
X13263928Y-11046072D01*
X13249643Y-10988929D01*
X13249643Y-10917500D01*
X13263928Y-10860357D01*
X13278214Y-10831786D01*
X13292500Y-10817500D01*
X13321071Y-10803214D01*
X13706785Y-11103214D02*
X13535357Y-11103214D01*
X13621071Y-11103214D02*
X13621071Y-10803214D01*
X13592500Y-10846072D01*
X13563928Y-10874643D01*
X13535357Y-10888929D01*
X13821071Y-10831786D02*
X13835357Y-10817500D01*
X13863928Y-10803214D01*
X13935357Y-10803214D01*
X13963928Y-10817500D01*
X13978214Y-10831786D01*
X13992500Y-10860357D01*
X13992500Y-10888929D01*
X13978214Y-10931786D01*
X13806785Y-11103214D01*
X13992500Y-11103214D01*
X14106786Y-10803214D02*
X14106786Y-10860357D01*
X14221071Y-10803214D02*
X14221071Y-10860357D01*
X14663928Y-11217500D02*
X14649643Y-11203214D01*
X14621071Y-11160357D01*
X14606785Y-11131786D01*
X14592500Y-11088929D01*
X14578214Y-11017500D01*
X14578214Y-10960357D01*
X14592500Y-10888929D01*
X14606785Y-10846072D01*
X14621071Y-10817500D01*
X14649643Y-10774643D01*
X14663928Y-10760357D01*
X14763928Y-10831786D02*
X14778214Y-10817500D01*
X14806785Y-10803214D01*
X14878214Y-10803214D01*
X14906785Y-10817500D01*
X14921071Y-10831786D01*
X14935357Y-10860357D01*
X14935357Y-10888929D01*
X14921071Y-10931786D01*
X14749643Y-11103214D01*
X14935357Y-11103214D01*
X15221071Y-11103214D02*
X15049643Y-11103214D01*
X15135357Y-11103214D02*
X15135357Y-10803214D01*
X15106785Y-10846072D01*
X15078214Y-10874643D01*
X15049643Y-10888929D01*
X15406785Y-10803214D02*
X15435357Y-10803214D01*
X15463928Y-10817500D01*
X15478214Y-10831786D01*
X15492500Y-10860357D01*
X15506785Y-10917500D01*
X15506785Y-10988929D01*
X15492500Y-11046072D01*
X15478214Y-11074643D01*
X15463928Y-11088929D01*
X15435357Y-11103214D01*
X15406785Y-11103214D01*
X15378214Y-11088929D01*
X15363928Y-11074643D01*
X15349643Y-11046072D01*
X15335357Y-10988929D01*
X15335357Y-10917500D01*
X15349643Y-10860357D01*
X15363928Y-10831786D01*
X15378214Y-10817500D01*
X15406785Y-10803214D01*
X15863928Y-11103214D02*
X15863928Y-10803214D01*
X15992500Y-11103214D02*
X15992500Y-10946072D01*
X15978214Y-10917500D01*
X15949643Y-10903214D01*
X15906785Y-10903214D01*
X15878214Y-10917500D01*
X15863928Y-10931786D01*
X16178214Y-11103214D02*
X16149643Y-11088929D01*
X16135357Y-11074643D01*
X16121071Y-11046072D01*
X16121071Y-10960357D01*
X16135357Y-10931786D01*
X16149643Y-10917500D01*
X16178214Y-10903214D01*
X16221071Y-10903214D01*
X16249643Y-10917500D01*
X16263928Y-10931786D01*
X16278214Y-10960357D01*
X16278214Y-11046072D01*
X16263928Y-11074643D01*
X16249643Y-11088929D01*
X16221071Y-11103214D01*
X16178214Y-11103214D01*
X16449643Y-11103214D02*
X16421071Y-11088929D01*
X16406786Y-11060357D01*
X16406786Y-10803214D01*
X16678214Y-11088929D02*
X16649643Y-11103214D01*
X16592500Y-11103214D01*
X16563928Y-11088929D01*
X16549643Y-11060357D01*
X16549643Y-10946072D01*
X16563928Y-10917500D01*
X16592500Y-10903214D01*
X16649643Y-10903214D01*
X16678214Y-10917500D01*
X16692500Y-10946072D01*
X16692500Y-10974643D01*
X16549643Y-11003214D01*
X16806786Y-11088929D02*
X16835357Y-11103214D01*
X16892500Y-11103214D01*
X16921071Y-11088929D01*
X16935357Y-11060357D01*
X16935357Y-11046072D01*
X16921071Y-11017500D01*
X16892500Y-11003214D01*
X16849643Y-11003214D01*
X16821071Y-10988929D01*
X16806786Y-10960357D01*
X16806786Y-10946072D01*
X16821071Y-10917500D01*
X16849643Y-10903214D01*
X16892500Y-10903214D01*
X16921071Y-10917500D01*
X17035357Y-11217500D02*
X17049643Y-11203214D01*
X17078214Y-11160357D01*
X17092500Y-11131786D01*
X17106786Y-11088929D01*
X17121071Y-11017500D01*
X17121071Y-10960357D01*
X17106786Y-10888929D01*
X17092500Y-10846072D01*
X17078214Y-10817500D01*
X17049643Y-10774643D01*
X17035357Y-10760357D01*
X9992500Y-11363500D02*
G75*
G03X9992500Y-11363500I-20000J0D01*
G01*
X10321071Y-11199214D02*
X10349643Y-11199214D01*
X10378214Y-11213500D01*
X10392500Y-11227786D01*
X10406786Y-11256357D01*
X10421071Y-11313500D01*
X10421071Y-11384929D01*
X10406786Y-11442071D01*
X10392500Y-11470643D01*
X10378214Y-11484929D01*
X10349643Y-11499214D01*
X10321071Y-11499214D01*
X10292500Y-11484929D01*
X10278214Y-11470643D01*
X10263929Y-11442071D01*
X10249643Y-11384929D01*
X10249643Y-11313500D01*
X10263929Y-11256357D01*
X10278214Y-11227786D01*
X10292500Y-11213500D01*
X10321071Y-11199214D01*
X10549643Y-11470643D02*
X10563929Y-11484929D01*
X10549643Y-11499214D01*
X10535357Y-11484929D01*
X10549643Y-11470643D01*
X10549643Y-11499214D01*
X10821071Y-11299214D02*
X10821071Y-11499214D01*
X10749643Y-11184929D02*
X10678214Y-11399214D01*
X10863928Y-11399214D01*
X11035357Y-11199214D02*
X11063929Y-11199214D01*
X11092500Y-11213500D01*
X11106786Y-11227786D01*
X11121071Y-11256357D01*
X11135357Y-11313500D01*
X11135357Y-11384929D01*
X11121071Y-11442071D01*
X11106786Y-11470643D01*
X11092500Y-11484929D01*
X11063929Y-11499214D01*
X11035357Y-11499214D01*
X11006786Y-11484929D01*
X10992500Y-11470643D01*
X10978214Y-11442071D01*
X10963929Y-11384929D01*
X10963929Y-11313500D01*
X10978214Y-11256357D01*
X10992500Y-11227786D01*
X11006786Y-11213500D01*
X11035357Y-11199214D01*
X11263928Y-11499214D02*
X11263928Y-11299214D01*
X11263928Y-11327786D02*
X11278214Y-11313500D01*
X11306786Y-11299214D01*
X11349643Y-11299214D01*
X11378214Y-11313500D01*
X11392500Y-11342071D01*
X11392500Y-11499214D01*
X11392500Y-11342071D02*
X11406786Y-11313500D01*
X11435357Y-11299214D01*
X11478214Y-11299214D01*
X11506786Y-11313500D01*
X11521071Y-11342071D01*
X11521071Y-11499214D01*
X11663928Y-11499214D02*
X11663928Y-11299214D01*
X11663928Y-11327786D02*
X11678214Y-11313500D01*
X11706786Y-11299214D01*
X11749643Y-11299214D01*
X11778214Y-11313500D01*
X11792500Y-11342071D01*
X11792500Y-11499214D01*
X11792500Y-11342071D02*
X11806786Y-11313500D01*
X11835357Y-11299214D01*
X11878214Y-11299214D01*
X11906786Y-11313500D01*
X11921071Y-11342071D01*
X11921071Y-11499214D01*
X12506786Y-11184929D02*
X12249643Y-11570643D01*
X12892500Y-11199214D02*
X12921071Y-11199214D01*
X12949643Y-11213500D01*
X12963928Y-11227786D01*
X12978214Y-11256357D01*
X12992500Y-11313500D01*
X12992500Y-11384929D01*
X12978214Y-11442071D01*
X12963928Y-11470643D01*
X12949643Y-11484929D01*
X12921071Y-11499214D01*
X12892500Y-11499214D01*
X12863928Y-11484929D01*
X12849643Y-11470643D01*
X12835357Y-11442071D01*
X12821071Y-11384929D01*
X12821071Y-11313500D01*
X12835357Y-11256357D01*
X12849643Y-11227786D01*
X12863928Y-11213500D01*
X12892500Y-11199214D01*
X13121071Y-11470643D02*
X13135357Y-11484929D01*
X13121071Y-11499214D01*
X13106786Y-11484929D01*
X13121071Y-11470643D01*
X13121071Y-11499214D01*
X13321071Y-11199214D02*
X13349643Y-11199214D01*
X13378214Y-11213500D01*
X13392500Y-11227786D01*
X13406785Y-11256357D01*
X13421071Y-11313500D01*
X13421071Y-11384929D01*
X13406785Y-11442071D01*
X13392500Y-11470643D01*
X13378214Y-11484929D01*
X13349643Y-11499214D01*
X13321071Y-11499214D01*
X13292500Y-11484929D01*
X13278214Y-11470643D01*
X13263928Y-11442071D01*
X13249643Y-11384929D01*
X13249643Y-11313500D01*
X13263928Y-11256357D01*
X13278214Y-11227786D01*
X13292500Y-11213500D01*
X13321071Y-11199214D01*
X13706785Y-11499214D02*
X13535357Y-11499214D01*
X13621071Y-11499214D02*
X13621071Y-11199214D01*
X13592500Y-11242071D01*
X13563928Y-11270643D01*
X13535357Y-11284929D01*
X13963928Y-11199214D02*
X13906785Y-11199214D01*
X13878214Y-11213500D01*
X13863928Y-11227786D01*
X13835357Y-11270643D01*
X13821071Y-11327786D01*
X13821071Y-11442071D01*
X13835357Y-11470643D01*
X13849643Y-11484929D01*
X13878214Y-11499214D01*
X13935357Y-11499214D01*
X13963928Y-11484929D01*
X13978214Y-11470643D01*
X13992500Y-11442071D01*
X13992500Y-11370643D01*
X13978214Y-11342071D01*
X13963928Y-11327786D01*
X13935357Y-11313500D01*
X13878214Y-11313500D01*
X13849643Y-11327786D01*
X13835357Y-11342071D01*
X13821071Y-11370643D01*
X14106786Y-11199214D02*
X14106786Y-11256357D01*
X14221071Y-11199214D02*
X14221071Y-11256357D01*
X14663928Y-11613500D02*
X14649643Y-11599214D01*
X14621071Y-11556357D01*
X14606785Y-11527786D01*
X14592500Y-11484929D01*
X14578214Y-11413500D01*
X14578214Y-11356357D01*
X14592500Y-11284929D01*
X14606785Y-11242071D01*
X14621071Y-11213500D01*
X14649643Y-11170643D01*
X14663928Y-11156357D01*
X14763928Y-11227786D02*
X14778214Y-11213500D01*
X14806785Y-11199214D01*
X14878214Y-11199214D01*
X14906785Y-11213500D01*
X14921071Y-11227786D01*
X14935357Y-11256357D01*
X14935357Y-11284929D01*
X14921071Y-11327786D01*
X14749643Y-11499214D01*
X14935357Y-11499214D01*
X15035357Y-11199214D02*
X15221071Y-11199214D01*
X15121071Y-11313500D01*
X15163928Y-11313500D01*
X15192500Y-11327786D01*
X15206785Y-11342071D01*
X15221071Y-11370643D01*
X15221071Y-11442071D01*
X15206785Y-11470643D01*
X15192500Y-11484929D01*
X15163928Y-11499214D01*
X15078214Y-11499214D01*
X15049643Y-11484929D01*
X15035357Y-11470643D01*
X15578214Y-11499214D02*
X15578214Y-11199214D01*
X15706785Y-11499214D02*
X15706785Y-11342071D01*
X15692500Y-11313500D01*
X15663928Y-11299214D01*
X15621071Y-11299214D01*
X15592500Y-11313500D01*
X15578214Y-11327786D01*
X15892500Y-11499214D02*
X15863928Y-11484929D01*
X15849643Y-11470643D01*
X15835357Y-11442071D01*
X15835357Y-11356357D01*
X15849643Y-11327786D01*
X15863928Y-11313500D01*
X15892500Y-11299214D01*
X15935357Y-11299214D01*
X15963928Y-11313500D01*
X15978214Y-11327786D01*
X15992500Y-11356357D01*
X15992500Y-11442071D01*
X15978214Y-11470643D01*
X15963928Y-11484929D01*
X15935357Y-11499214D01*
X15892500Y-11499214D01*
X16163928Y-11499214D02*
X16135357Y-11484929D01*
X16121071Y-11456357D01*
X16121071Y-11199214D01*
X16392500Y-11484929D02*
X16363928Y-11499214D01*
X16306786Y-11499214D01*
X16278214Y-11484929D01*
X16263928Y-11456357D01*
X16263928Y-11342071D01*
X16278214Y-11313500D01*
X16306786Y-11299214D01*
X16363928Y-11299214D01*
X16392500Y-11313500D01*
X16406786Y-11342071D01*
X16406786Y-11370643D01*
X16263928Y-11399214D01*
X16521071Y-11484929D02*
X16549643Y-11499214D01*
X16606786Y-11499214D01*
X16635357Y-11484929D01*
X16649643Y-11456357D01*
X16649643Y-11442071D01*
X16635357Y-11413500D01*
X16606786Y-11399214D01*
X16563928Y-11399214D01*
X16535357Y-11384929D01*
X16521071Y-11356357D01*
X16521071Y-11342071D01*
X16535357Y-11313500D01*
X16563928Y-11299214D01*
X16606786Y-11299214D01*
X16635357Y-11313500D01*
X16749643Y-11613500D02*
X16763928Y-11599214D01*
X16792500Y-11556357D01*
X16806786Y-11527786D01*
X16821071Y-11484929D01*
X16835357Y-11413500D01*
X16835357Y-11356357D01*
X16821071Y-11284929D01*
X16806786Y-11242071D01*
X16792500Y-11213500D01*
X16763928Y-11170643D01*
X16749643Y-11156357D01*
X9954400Y-11721400D02*
X9954400Y-11797600D01*
X9916300Y-11759500D02*
X9992500Y-11759500D01*
X10321071Y-11595214D02*
X10349643Y-11595214D01*
X10378214Y-11609500D01*
X10392500Y-11623786D01*
X10406786Y-11652357D01*
X10421071Y-11709500D01*
X10421071Y-11780929D01*
X10406786Y-11838071D01*
X10392500Y-11866643D01*
X10378214Y-11880929D01*
X10349643Y-11895214D01*
X10321071Y-11895214D01*
X10292500Y-11880929D01*
X10278214Y-11866643D01*
X10263929Y-11838071D01*
X10249643Y-11780929D01*
X10249643Y-11709500D01*
X10263929Y-11652357D01*
X10278214Y-11623786D01*
X10292500Y-11609500D01*
X10321071Y-11595214D01*
X10549643Y-11866643D02*
X10563929Y-11880929D01*
X10549643Y-11895214D01*
X10535357Y-11880929D01*
X10549643Y-11866643D01*
X10549643Y-11895214D01*
X10663928Y-11595214D02*
X10863928Y-11595214D01*
X10735357Y-11895214D01*
X11106786Y-11595214D02*
X11049643Y-11595214D01*
X11021071Y-11609500D01*
X11006786Y-11623786D01*
X10978214Y-11666643D01*
X10963929Y-11723786D01*
X10963929Y-11838071D01*
X10978214Y-11866643D01*
X10992500Y-11880929D01*
X11021071Y-11895214D01*
X11078214Y-11895214D01*
X11106786Y-11880929D01*
X11121071Y-11866643D01*
X11135357Y-11838071D01*
X11135357Y-11766643D01*
X11121071Y-11738071D01*
X11106786Y-11723786D01*
X11078214Y-11709500D01*
X11021071Y-11709500D01*
X10992500Y-11723786D01*
X10978214Y-11738071D01*
X10963929Y-11766643D01*
X11263928Y-11895214D02*
X11263928Y-11695214D01*
X11263928Y-11723786D02*
X11278214Y-11709500D01*
X11306786Y-11695214D01*
X11349643Y-11695214D01*
X11378214Y-11709500D01*
X11392500Y-11738071D01*
X11392500Y-11895214D01*
X11392500Y-11738071D02*
X11406786Y-11709500D01*
X11435357Y-11695214D01*
X11478214Y-11695214D01*
X11506786Y-11709500D01*
X11521071Y-11738071D01*
X11521071Y-11895214D01*
X11663928Y-11895214D02*
X11663928Y-11695214D01*
X11663928Y-11723786D02*
X11678214Y-11709500D01*
X11706786Y-11695214D01*
X11749643Y-11695214D01*
X11778214Y-11709500D01*
X11792500Y-11738071D01*
X11792500Y-11895214D01*
X11792500Y-11738071D02*
X11806786Y-11709500D01*
X11835357Y-11695214D01*
X11878214Y-11695214D01*
X11906786Y-11709500D01*
X11921071Y-11738071D01*
X11921071Y-11895214D01*
X12506786Y-11580929D02*
X12249643Y-11966643D01*
X12892500Y-11595214D02*
X12921071Y-11595214D01*
X12949643Y-11609500D01*
X12963928Y-11623786D01*
X12978214Y-11652357D01*
X12992500Y-11709500D01*
X12992500Y-11780929D01*
X12978214Y-11838071D01*
X12963928Y-11866643D01*
X12949643Y-11880929D01*
X12921071Y-11895214D01*
X12892500Y-11895214D01*
X12863928Y-11880929D01*
X12849643Y-11866643D01*
X12835357Y-11838071D01*
X12821071Y-11780929D01*
X12821071Y-11709500D01*
X12835357Y-11652357D01*
X12849643Y-11623786D01*
X12863928Y-11609500D01*
X12892500Y-11595214D01*
X13121071Y-11866643D02*
X13135357Y-11880929D01*
X13121071Y-11895214D01*
X13106786Y-11880929D01*
X13121071Y-11866643D01*
X13121071Y-11895214D01*
X13321071Y-11595214D02*
X13349643Y-11595214D01*
X13378214Y-11609500D01*
X13392500Y-11623786D01*
X13406785Y-11652357D01*
X13421071Y-11709500D01*
X13421071Y-11780929D01*
X13406785Y-11838071D01*
X13392500Y-11866643D01*
X13378214Y-11880929D01*
X13349643Y-11895214D01*
X13321071Y-11895214D01*
X13292500Y-11880929D01*
X13278214Y-11866643D01*
X13263928Y-11838071D01*
X13249643Y-11780929D01*
X13249643Y-11709500D01*
X13263928Y-11652357D01*
X13278214Y-11623786D01*
X13292500Y-11609500D01*
X13321071Y-11595214D01*
X13521071Y-11595214D02*
X13706785Y-11595214D01*
X13606785Y-11709500D01*
X13649643Y-11709500D01*
X13678214Y-11723786D01*
X13692500Y-11738071D01*
X13706785Y-11766643D01*
X13706785Y-11838071D01*
X13692500Y-11866643D01*
X13678214Y-11880929D01*
X13649643Y-11895214D01*
X13563928Y-11895214D01*
X13535357Y-11880929D01*
X13521071Y-11866643D01*
X13892500Y-11595214D02*
X13921071Y-11595214D01*
X13949643Y-11609500D01*
X13963928Y-11623786D01*
X13978214Y-11652357D01*
X13992500Y-11709500D01*
X13992500Y-11780929D01*
X13978214Y-11838071D01*
X13963928Y-11866643D01*
X13949643Y-11880929D01*
X13921071Y-11895214D01*
X13892500Y-11895214D01*
X13863928Y-11880929D01*
X13849643Y-11866643D01*
X13835357Y-11838071D01*
X13821071Y-11780929D01*
X13821071Y-11709500D01*
X13835357Y-11652357D01*
X13849643Y-11623786D01*
X13863928Y-11609500D01*
X13892500Y-11595214D01*
X14106786Y-11595214D02*
X14106786Y-11652357D01*
X14221071Y-11595214D02*
X14221071Y-11652357D01*
X14663928Y-12009500D02*
X14649643Y-11995214D01*
X14621071Y-11952357D01*
X14606785Y-11923786D01*
X14592500Y-11880929D01*
X14578214Y-11809500D01*
X14578214Y-11752357D01*
X14592500Y-11680929D01*
X14606785Y-11638071D01*
X14621071Y-11609500D01*
X14649643Y-11566643D01*
X14663928Y-11552357D01*
X14763928Y-11623786D02*
X14778214Y-11609500D01*
X14806785Y-11595214D01*
X14878214Y-11595214D01*
X14906785Y-11609500D01*
X14921071Y-11623786D01*
X14935357Y-11652357D01*
X14935357Y-11680929D01*
X14921071Y-11723786D01*
X14749643Y-11895214D01*
X14935357Y-11895214D01*
X15192500Y-11695214D02*
X15192500Y-11895214D01*
X15121071Y-11580929D02*
X15049643Y-11795214D01*
X15235357Y-11795214D01*
X15578214Y-11895214D02*
X15578214Y-11595214D01*
X15706785Y-11895214D02*
X15706785Y-11738071D01*
X15692500Y-11709500D01*
X15663928Y-11695214D01*
X15621071Y-11695214D01*
X15592500Y-11709500D01*
X15578214Y-11723786D01*
X15892500Y-11895214D02*
X15863928Y-11880929D01*
X15849643Y-11866643D01*
X15835357Y-11838071D01*
X15835357Y-11752357D01*
X15849643Y-11723786D01*
X15863928Y-11709500D01*
X15892500Y-11695214D01*
X15935357Y-11695214D01*
X15963928Y-11709500D01*
X15978214Y-11723786D01*
X15992500Y-11752357D01*
X15992500Y-11838071D01*
X15978214Y-11866643D01*
X15963928Y-11880929D01*
X15935357Y-11895214D01*
X15892500Y-11895214D01*
X16163928Y-11895214D02*
X16135357Y-11880929D01*
X16121071Y-11852357D01*
X16121071Y-11595214D01*
X16392500Y-11880929D02*
X16363928Y-11895214D01*
X16306786Y-11895214D01*
X16278214Y-11880929D01*
X16263928Y-11852357D01*
X16263928Y-11738071D01*
X16278214Y-11709500D01*
X16306786Y-11695214D01*
X16363928Y-11695214D01*
X16392500Y-11709500D01*
X16406786Y-11738071D01*
X16406786Y-11766643D01*
X16263928Y-11795214D01*
X16521071Y-11880929D02*
X16549643Y-11895214D01*
X16606786Y-11895214D01*
X16635357Y-11880929D01*
X16649643Y-11852357D01*
X16649643Y-11838071D01*
X16635357Y-11809500D01*
X16606786Y-11795214D01*
X16563928Y-11795214D01*
X16535357Y-11780929D01*
X16521071Y-11752357D01*
X16521071Y-11738071D01*
X16535357Y-11709500D01*
X16563928Y-11695214D01*
X16606786Y-11695214D01*
X16635357Y-11709500D01*
X16749643Y-12009500D02*
X16763928Y-11995214D01*
X16792500Y-11952357D01*
X16806786Y-11923786D01*
X16821071Y-11880929D01*
X16835357Y-11809500D01*
X16835357Y-11752357D01*
X16821071Y-11680929D01*
X16806786Y-11638071D01*
X16792500Y-11609500D01*
X16763928Y-11566643D01*
X16749643Y-11552357D01*
X9980597Y-12184237D02*
X9980597Y-12126763D01*
X9923123Y-12126763D01*
X9923123Y-12184237D01*
X9980597Y-12184237D01*
X10321071Y-11991214D02*
X10349643Y-11991214D01*
X10378214Y-12005500D01*
X10392500Y-12019786D01*
X10406786Y-12048357D01*
X10421071Y-12105500D01*
X10421071Y-12176929D01*
X10406786Y-12234071D01*
X10392500Y-12262643D01*
X10378214Y-12276929D01*
X10349643Y-12291214D01*
X10321071Y-12291214D01*
X10292500Y-12276929D01*
X10278214Y-12262643D01*
X10263929Y-12234071D01*
X10249643Y-12176929D01*
X10249643Y-12105500D01*
X10263929Y-12048357D01*
X10278214Y-12019786D01*
X10292500Y-12005500D01*
X10321071Y-11991214D01*
X10549643Y-12262643D02*
X10563929Y-12276929D01*
X10549643Y-12291214D01*
X10535357Y-12276929D01*
X10549643Y-12262643D01*
X10549643Y-12291214D01*
X10735357Y-12119786D02*
X10706786Y-12105500D01*
X10692500Y-12091214D01*
X10678214Y-12062643D01*
X10678214Y-12048357D01*
X10692500Y-12019786D01*
X10706786Y-12005500D01*
X10735357Y-11991214D01*
X10792500Y-11991214D01*
X10821071Y-12005500D01*
X10835357Y-12019786D01*
X10849643Y-12048357D01*
X10849643Y-12062643D01*
X10835357Y-12091214D01*
X10821071Y-12105500D01*
X10792500Y-12119786D01*
X10735357Y-12119786D01*
X10706786Y-12134071D01*
X10692500Y-12148357D01*
X10678214Y-12176929D01*
X10678214Y-12234071D01*
X10692500Y-12262643D01*
X10706786Y-12276929D01*
X10735357Y-12291214D01*
X10792500Y-12291214D01*
X10821071Y-12276929D01*
X10835357Y-12262643D01*
X10849643Y-12234071D01*
X10849643Y-12176929D01*
X10835357Y-12148357D01*
X10821071Y-12134071D01*
X10792500Y-12119786D01*
X11135357Y-12291214D02*
X10963929Y-12291214D01*
X11049643Y-12291214D02*
X11049643Y-11991214D01*
X11021071Y-12034071D01*
X10992500Y-12062643D01*
X10963929Y-12076929D01*
X11263928Y-12291214D02*
X11263928Y-12091214D01*
X11263928Y-12119786D02*
X11278214Y-12105500D01*
X11306786Y-12091214D01*
X11349643Y-12091214D01*
X11378214Y-12105500D01*
X11392500Y-12134071D01*
X11392500Y-12291214D01*
X11392500Y-12134071D02*
X11406786Y-12105500D01*
X11435357Y-12091214D01*
X11478214Y-12091214D01*
X11506786Y-12105500D01*
X11521071Y-12134071D01*
X11521071Y-12291214D01*
X11663928Y-12291214D02*
X11663928Y-12091214D01*
X11663928Y-12119786D02*
X11678214Y-12105500D01*
X11706786Y-12091214D01*
X11749643Y-12091214D01*
X11778214Y-12105500D01*
X11792500Y-12134071D01*
X11792500Y-12291214D01*
X11792500Y-12134071D02*
X11806786Y-12105500D01*
X11835357Y-12091214D01*
X11878214Y-12091214D01*
X11906786Y-12105500D01*
X11921071Y-12134071D01*
X11921071Y-12291214D01*
X12506786Y-11976929D02*
X12249643Y-12362643D01*
X12892500Y-11991214D02*
X12921071Y-11991214D01*
X12949643Y-12005500D01*
X12963928Y-12019786D01*
X12978214Y-12048357D01*
X12992500Y-12105500D01*
X12992500Y-12176929D01*
X12978214Y-12234071D01*
X12963928Y-12262643D01*
X12949643Y-12276929D01*
X12921071Y-12291214D01*
X12892500Y-12291214D01*
X12863928Y-12276929D01*
X12849643Y-12262643D01*
X12835357Y-12234071D01*
X12821071Y-12176929D01*
X12821071Y-12105500D01*
X12835357Y-12048357D01*
X12849643Y-12019786D01*
X12863928Y-12005500D01*
X12892500Y-11991214D01*
X13121071Y-12262643D02*
X13135357Y-12276929D01*
X13121071Y-12291214D01*
X13106786Y-12276929D01*
X13121071Y-12262643D01*
X13121071Y-12291214D01*
X13321071Y-11991214D02*
X13349643Y-11991214D01*
X13378214Y-12005500D01*
X13392500Y-12019786D01*
X13406785Y-12048357D01*
X13421071Y-12105500D01*
X13421071Y-12176929D01*
X13406785Y-12234071D01*
X13392500Y-12262643D01*
X13378214Y-12276929D01*
X13349643Y-12291214D01*
X13321071Y-12291214D01*
X13292500Y-12276929D01*
X13278214Y-12262643D01*
X13263928Y-12234071D01*
X13249643Y-12176929D01*
X13249643Y-12105500D01*
X13263928Y-12048357D01*
X13278214Y-12019786D01*
X13292500Y-12005500D01*
X13321071Y-11991214D01*
X13521071Y-11991214D02*
X13706785Y-11991214D01*
X13606785Y-12105500D01*
X13649643Y-12105500D01*
X13678214Y-12119786D01*
X13692500Y-12134071D01*
X13706785Y-12162643D01*
X13706785Y-12234071D01*
X13692500Y-12262643D01*
X13678214Y-12276929D01*
X13649643Y-12291214D01*
X13563928Y-12291214D01*
X13535357Y-12276929D01*
X13521071Y-12262643D01*
X13821071Y-12019786D02*
X13835357Y-12005500D01*
X13863928Y-11991214D01*
X13935357Y-11991214D01*
X13963928Y-12005500D01*
X13978214Y-12019786D01*
X13992500Y-12048357D01*
X13992500Y-12076929D01*
X13978214Y-12119786D01*
X13806785Y-12291214D01*
X13992500Y-12291214D01*
X14106786Y-11991214D02*
X14106786Y-12048357D01*
X14221071Y-11991214D02*
X14221071Y-12048357D01*
X14663928Y-12405500D02*
X14649643Y-12391214D01*
X14621071Y-12348357D01*
X14606785Y-12319786D01*
X14592500Y-12276929D01*
X14578214Y-12205500D01*
X14578214Y-12148357D01*
X14592500Y-12076929D01*
X14606785Y-12034071D01*
X14621071Y-12005500D01*
X14649643Y-11962643D01*
X14663928Y-11948357D01*
X14749643Y-11991214D02*
X14935357Y-11991214D01*
X14835357Y-12105500D01*
X14878214Y-12105500D01*
X14906785Y-12119786D01*
X14921071Y-12134071D01*
X14935357Y-12162643D01*
X14935357Y-12234071D01*
X14921071Y-12262643D01*
X14906785Y-12276929D01*
X14878214Y-12291214D01*
X14792500Y-12291214D01*
X14763928Y-12276929D01*
X14749643Y-12262643D01*
X15292500Y-12291214D02*
X15292500Y-11991214D01*
X15421071Y-12291214D02*
X15421071Y-12134071D01*
X15406785Y-12105500D01*
X15378214Y-12091214D01*
X15335357Y-12091214D01*
X15306785Y-12105500D01*
X15292500Y-12119786D01*
X15606785Y-12291214D02*
X15578214Y-12276929D01*
X15563928Y-12262643D01*
X15549643Y-12234071D01*
X15549643Y-12148357D01*
X15563928Y-12119786D01*
X15578214Y-12105500D01*
X15606785Y-12091214D01*
X15649643Y-12091214D01*
X15678214Y-12105500D01*
X15692500Y-12119786D01*
X15706785Y-12148357D01*
X15706785Y-12234071D01*
X15692500Y-12262643D01*
X15678214Y-12276929D01*
X15649643Y-12291214D01*
X15606785Y-12291214D01*
X15878214Y-12291214D02*
X15849643Y-12276929D01*
X15835357Y-12248357D01*
X15835357Y-11991214D01*
X16106786Y-12276929D02*
X16078214Y-12291214D01*
X16021071Y-12291214D01*
X15992500Y-12276929D01*
X15978214Y-12248357D01*
X15978214Y-12134071D01*
X15992500Y-12105500D01*
X16021071Y-12091214D01*
X16078214Y-12091214D01*
X16106786Y-12105500D01*
X16121071Y-12134071D01*
X16121071Y-12162643D01*
X15978214Y-12191214D01*
X16235357Y-12276929D02*
X16263928Y-12291214D01*
X16321071Y-12291214D01*
X16349643Y-12276929D01*
X16363928Y-12248357D01*
X16363928Y-12234071D01*
X16349643Y-12205500D01*
X16321071Y-12191214D01*
X16278214Y-12191214D01*
X16249643Y-12176929D01*
X16235357Y-12148357D01*
X16235357Y-12134071D01*
X16249643Y-12105500D01*
X16278214Y-12091214D01*
X16321071Y-12091214D01*
X16349643Y-12105500D01*
X16463928Y-12405500D02*
X16478214Y-12391214D01*
X16506786Y-12348357D01*
X16521071Y-12319786D01*
X16535357Y-12276929D01*
X16549643Y-12205500D01*
X16549643Y-12148357D01*
X16535357Y-12076929D01*
X16521071Y-12034071D01*
X16506786Y-12005500D01*
X16478214Y-11962643D01*
X16463928Y-11948357D01*
X9947500Y-12596500D02*
X9992500Y-12551500D01*
X9947500Y-12506500D01*
X9902500Y-12551500D01*
X9947500Y-12596500D01*
X10321071Y-12387214D02*
X10349643Y-12387214D01*
X10378214Y-12401500D01*
X10392500Y-12415786D01*
X10406786Y-12444357D01*
X10421071Y-12501500D01*
X10421071Y-12572929D01*
X10406786Y-12630071D01*
X10392500Y-12658643D01*
X10378214Y-12672929D01*
X10349643Y-12687214D01*
X10321071Y-12687214D01*
X10292500Y-12672929D01*
X10278214Y-12658643D01*
X10263929Y-12630071D01*
X10249643Y-12572929D01*
X10249643Y-12501500D01*
X10263929Y-12444357D01*
X10278214Y-12415786D01*
X10292500Y-12401500D01*
X10321071Y-12387214D01*
X10549643Y-12658643D02*
X10563929Y-12672929D01*
X10549643Y-12687214D01*
X10535357Y-12672929D01*
X10549643Y-12658643D01*
X10549643Y-12687214D01*
X10706786Y-12687214D02*
X10763928Y-12687214D01*
X10792500Y-12672929D01*
X10806786Y-12658643D01*
X10835357Y-12615786D01*
X10849643Y-12558643D01*
X10849643Y-12444357D01*
X10835357Y-12415786D01*
X10821071Y-12401500D01*
X10792500Y-12387214D01*
X10735357Y-12387214D01*
X10706786Y-12401500D01*
X10692500Y-12415786D01*
X10678214Y-12444357D01*
X10678214Y-12515786D01*
X10692500Y-12544357D01*
X10706786Y-12558643D01*
X10735357Y-12572929D01*
X10792500Y-12572929D01*
X10821071Y-12558643D01*
X10835357Y-12544357D01*
X10849643Y-12515786D01*
X11035357Y-12387214D02*
X11063929Y-12387214D01*
X11092500Y-12401500D01*
X11106786Y-12415786D01*
X11121071Y-12444357D01*
X11135357Y-12501500D01*
X11135357Y-12572929D01*
X11121071Y-12630071D01*
X11106786Y-12658643D01*
X11092500Y-12672929D01*
X11063929Y-12687214D01*
X11035357Y-12687214D01*
X11006786Y-12672929D01*
X10992500Y-12658643D01*
X10978214Y-12630071D01*
X10963929Y-12572929D01*
X10963929Y-12501500D01*
X10978214Y-12444357D01*
X10992500Y-12415786D01*
X11006786Y-12401500D01*
X11035357Y-12387214D01*
X11263928Y-12687214D02*
X11263928Y-12487214D01*
X11263928Y-12515786D02*
X11278214Y-12501500D01*
X11306786Y-12487214D01*
X11349643Y-12487214D01*
X11378214Y-12501500D01*
X11392500Y-12530071D01*
X11392500Y-12687214D01*
X11392500Y-12530071D02*
X11406786Y-12501500D01*
X11435357Y-12487214D01*
X11478214Y-12487214D01*
X11506786Y-12501500D01*
X11521071Y-12530071D01*
X11521071Y-12687214D01*
X11663928Y-12687214D02*
X11663928Y-12487214D01*
X11663928Y-12515786D02*
X11678214Y-12501500D01*
X11706786Y-12487214D01*
X11749643Y-12487214D01*
X11778214Y-12501500D01*
X11792500Y-12530071D01*
X11792500Y-12687214D01*
X11792500Y-12530071D02*
X11806786Y-12501500D01*
X11835357Y-12487214D01*
X11878214Y-12487214D01*
X11906786Y-12501500D01*
X11921071Y-12530071D01*
X11921071Y-12687214D01*
X12506786Y-12372929D02*
X12249643Y-12758643D01*
X12892500Y-12387214D02*
X12921071Y-12387214D01*
X12949643Y-12401500D01*
X12963928Y-12415786D01*
X12978214Y-12444357D01*
X12992500Y-12501500D01*
X12992500Y-12572929D01*
X12978214Y-12630071D01*
X12963928Y-12658643D01*
X12949643Y-12672929D01*
X12921071Y-12687214D01*
X12892500Y-12687214D01*
X12863928Y-12672929D01*
X12849643Y-12658643D01*
X12835357Y-12630071D01*
X12821071Y-12572929D01*
X12821071Y-12501500D01*
X12835357Y-12444357D01*
X12849643Y-12415786D01*
X12863928Y-12401500D01*
X12892500Y-12387214D01*
X13121071Y-12658643D02*
X13135357Y-12672929D01*
X13121071Y-12687214D01*
X13106786Y-12672929D01*
X13121071Y-12658643D01*
X13121071Y-12687214D01*
X13321071Y-12387214D02*
X13349643Y-12387214D01*
X13378214Y-12401500D01*
X13392500Y-12415786D01*
X13406785Y-12444357D01*
X13421071Y-12501500D01*
X13421071Y-12572929D01*
X13406785Y-12630071D01*
X13392500Y-12658643D01*
X13378214Y-12672929D01*
X13349643Y-12687214D01*
X13321071Y-12687214D01*
X13292500Y-12672929D01*
X13278214Y-12658643D01*
X13263928Y-12630071D01*
X13249643Y-12572929D01*
X13249643Y-12501500D01*
X13263928Y-12444357D01*
X13278214Y-12415786D01*
X13292500Y-12401500D01*
X13321071Y-12387214D01*
X13521071Y-12387214D02*
X13706785Y-12387214D01*
X13606785Y-12501500D01*
X13649643Y-12501500D01*
X13678214Y-12515786D01*
X13692500Y-12530071D01*
X13706785Y-12558643D01*
X13706785Y-12630071D01*
X13692500Y-12658643D01*
X13678214Y-12672929D01*
X13649643Y-12687214D01*
X13563928Y-12687214D01*
X13535357Y-12672929D01*
X13521071Y-12658643D01*
X13978214Y-12387214D02*
X13835357Y-12387214D01*
X13821071Y-12530071D01*
X13835357Y-12515786D01*
X13863928Y-12501500D01*
X13935357Y-12501500D01*
X13963928Y-12515786D01*
X13978214Y-12530071D01*
X13992500Y-12558643D01*
X13992500Y-12630071D01*
X13978214Y-12658643D01*
X13963928Y-12672929D01*
X13935357Y-12687214D01*
X13863928Y-12687214D01*
X13835357Y-12672929D01*
X13821071Y-12658643D01*
X14106786Y-12387214D02*
X14106786Y-12444357D01*
X14221071Y-12387214D02*
X14221071Y-12444357D01*
X14663928Y-12801500D02*
X14649643Y-12787214D01*
X14621071Y-12744357D01*
X14606785Y-12715786D01*
X14592500Y-12672929D01*
X14578214Y-12601500D01*
X14578214Y-12544357D01*
X14592500Y-12472929D01*
X14606785Y-12430071D01*
X14621071Y-12401500D01*
X14649643Y-12358643D01*
X14663928Y-12344357D01*
X14749643Y-12387214D02*
X14935357Y-12387214D01*
X14835357Y-12501500D01*
X14878214Y-12501500D01*
X14906785Y-12515786D01*
X14921071Y-12530071D01*
X14935357Y-12558643D01*
X14935357Y-12630071D01*
X14921071Y-12658643D01*
X14906785Y-12672929D01*
X14878214Y-12687214D01*
X14792500Y-12687214D01*
X14763928Y-12672929D01*
X14749643Y-12658643D01*
X15221071Y-12687214D02*
X15049643Y-12687214D01*
X15135357Y-12687214D02*
X15135357Y-12387214D01*
X15106785Y-12430071D01*
X15078214Y-12458643D01*
X15049643Y-12472929D01*
X15578214Y-12687214D02*
X15578214Y-12387214D01*
X15706785Y-12687214D02*
X15706785Y-12530071D01*
X15692500Y-12501500D01*
X15663928Y-12487214D01*
X15621071Y-12487214D01*
X15592500Y-12501500D01*
X15578214Y-12515786D01*
X15892500Y-12687214D02*
X15863928Y-12672929D01*
X15849643Y-12658643D01*
X15835357Y-12630071D01*
X15835357Y-12544357D01*
X15849643Y-12515786D01*
X15863928Y-12501500D01*
X15892500Y-12487214D01*
X15935357Y-12487214D01*
X15963928Y-12501500D01*
X15978214Y-12515786D01*
X15992500Y-12544357D01*
X15992500Y-12630071D01*
X15978214Y-12658643D01*
X15963928Y-12672929D01*
X15935357Y-12687214D01*
X15892500Y-12687214D01*
X16163928Y-12687214D02*
X16135357Y-12672929D01*
X16121071Y-12644357D01*
X16121071Y-12387214D01*
X16392500Y-12672929D02*
X16363928Y-12687214D01*
X16306786Y-12687214D01*
X16278214Y-12672929D01*
X16263928Y-12644357D01*
X16263928Y-12530071D01*
X16278214Y-12501500D01*
X16306786Y-12487214D01*
X16363928Y-12487214D01*
X16392500Y-12501500D01*
X16406786Y-12530071D01*
X16406786Y-12558643D01*
X16263928Y-12587214D01*
X16521071Y-12672929D02*
X16549643Y-12687214D01*
X16606786Y-12687214D01*
X16635357Y-12672929D01*
X16649643Y-12644357D01*
X16649643Y-12630071D01*
X16635357Y-12601500D01*
X16606786Y-12587214D01*
X16563928Y-12587214D01*
X16535357Y-12572929D01*
X16521071Y-12544357D01*
X16521071Y-12530071D01*
X16535357Y-12501500D01*
X16563928Y-12487214D01*
X16606786Y-12487214D01*
X16635357Y-12501500D01*
X16749643Y-12801500D02*
X16763928Y-12787214D01*
X16792500Y-12744357D01*
X16806786Y-12715786D01*
X16821071Y-12672929D01*
X16835357Y-12601500D01*
X16835357Y-12544357D01*
X16821071Y-12472929D01*
X16806786Y-12430071D01*
X16792500Y-12401500D01*
X16763928Y-12358643D01*
X16749643Y-12344357D01*
X9892424Y-12897462D02*
X9992500Y-12997538D01*
X9992500Y-12897462D02*
X9892424Y-12997538D01*
X9992500Y-12947500D02*
G75*
G03X9992500Y-12947500I-50038J0D01*
G01*
X10421071Y-13083214D02*
X10249643Y-13083214D01*
X10335357Y-13083214D02*
X10335357Y-12783214D01*
X10306786Y-12826071D01*
X10278214Y-12854643D01*
X10249643Y-12868929D01*
X10549643Y-13054643D02*
X10563929Y-13068929D01*
X10549643Y-13083214D01*
X10535357Y-13068929D01*
X10549643Y-13054643D01*
X10549643Y-13083214D01*
X10749643Y-12783214D02*
X10778214Y-12783214D01*
X10806786Y-12797500D01*
X10821071Y-12811786D01*
X10835357Y-12840357D01*
X10849643Y-12897500D01*
X10849643Y-12968929D01*
X10835357Y-13026071D01*
X10821071Y-13054643D01*
X10806786Y-13068929D01*
X10778214Y-13083214D01*
X10749643Y-13083214D01*
X10721071Y-13068929D01*
X10706786Y-13054643D01*
X10692500Y-13026071D01*
X10678214Y-12968929D01*
X10678214Y-12897500D01*
X10692500Y-12840357D01*
X10706786Y-12811786D01*
X10721071Y-12797500D01*
X10749643Y-12783214D01*
X11035357Y-12783214D02*
X11063929Y-12783214D01*
X11092500Y-12797500D01*
X11106786Y-12811786D01*
X11121071Y-12840357D01*
X11135357Y-12897500D01*
X11135357Y-12968929D01*
X11121071Y-13026071D01*
X11106786Y-13054643D01*
X11092500Y-13068929D01*
X11063929Y-13083214D01*
X11035357Y-13083214D01*
X11006786Y-13068929D01*
X10992500Y-13054643D01*
X10978214Y-13026071D01*
X10963929Y-12968929D01*
X10963929Y-12897500D01*
X10978214Y-12840357D01*
X10992500Y-12811786D01*
X11006786Y-12797500D01*
X11035357Y-12783214D01*
X11263928Y-13083214D02*
X11263928Y-12883214D01*
X11263928Y-12911786D02*
X11278214Y-12897500D01*
X11306786Y-12883214D01*
X11349643Y-12883214D01*
X11378214Y-12897500D01*
X11392500Y-12926071D01*
X11392500Y-13083214D01*
X11392500Y-12926071D02*
X11406786Y-12897500D01*
X11435357Y-12883214D01*
X11478214Y-12883214D01*
X11506786Y-12897500D01*
X11521071Y-12926071D01*
X11521071Y-13083214D01*
X11663928Y-13083214D02*
X11663928Y-12883214D01*
X11663928Y-12911786D02*
X11678214Y-12897500D01*
X11706786Y-12883214D01*
X11749643Y-12883214D01*
X11778214Y-12897500D01*
X11792500Y-12926071D01*
X11792500Y-13083214D01*
X11792500Y-12926071D02*
X11806786Y-12897500D01*
X11835357Y-12883214D01*
X11878214Y-12883214D01*
X11906786Y-12897500D01*
X11921071Y-12926071D01*
X11921071Y-13083214D01*
X12506786Y-12768929D02*
X12249643Y-13154643D01*
X12892500Y-12783214D02*
X12921071Y-12783214D01*
X12949643Y-12797500D01*
X12963928Y-12811786D01*
X12978214Y-12840357D01*
X12992500Y-12897500D01*
X12992500Y-12968929D01*
X12978214Y-13026071D01*
X12963928Y-13054643D01*
X12949643Y-13068929D01*
X12921071Y-13083214D01*
X12892500Y-13083214D01*
X12863928Y-13068929D01*
X12849643Y-13054643D01*
X12835357Y-13026071D01*
X12821071Y-12968929D01*
X12821071Y-12897500D01*
X12835357Y-12840357D01*
X12849643Y-12811786D01*
X12863928Y-12797500D01*
X12892500Y-12783214D01*
X13121071Y-13054643D02*
X13135357Y-13068929D01*
X13121071Y-13083214D01*
X13106786Y-13068929D01*
X13121071Y-13054643D01*
X13121071Y-13083214D01*
X13321071Y-12783214D02*
X13349643Y-12783214D01*
X13378214Y-12797500D01*
X13392500Y-12811786D01*
X13406785Y-12840357D01*
X13421071Y-12897500D01*
X13421071Y-12968929D01*
X13406785Y-13026071D01*
X13392500Y-13054643D01*
X13378214Y-13068929D01*
X13349643Y-13083214D01*
X13321071Y-13083214D01*
X13292500Y-13068929D01*
X13278214Y-13054643D01*
X13263928Y-13026071D01*
X13249643Y-12968929D01*
X13249643Y-12897500D01*
X13263928Y-12840357D01*
X13278214Y-12811786D01*
X13292500Y-12797500D01*
X13321071Y-12783214D01*
X13521071Y-12783214D02*
X13706785Y-12783214D01*
X13606785Y-12897500D01*
X13649643Y-12897500D01*
X13678214Y-12911786D01*
X13692500Y-12926071D01*
X13706785Y-12954643D01*
X13706785Y-13026071D01*
X13692500Y-13054643D01*
X13678214Y-13068929D01*
X13649643Y-13083214D01*
X13563928Y-13083214D01*
X13535357Y-13068929D01*
X13521071Y-13054643D01*
X13849643Y-13083214D02*
X13906785Y-13083214D01*
X13935357Y-13068929D01*
X13949643Y-13054643D01*
X13978214Y-13011786D01*
X13992500Y-12954643D01*
X13992500Y-12840357D01*
X13978214Y-12811786D01*
X13963928Y-12797500D01*
X13935357Y-12783214D01*
X13878214Y-12783214D01*
X13849643Y-12797500D01*
X13835357Y-12811786D01*
X13821071Y-12840357D01*
X13821071Y-12911786D01*
X13835357Y-12940357D01*
X13849643Y-12954643D01*
X13878214Y-12968929D01*
X13935357Y-12968929D01*
X13963928Y-12954643D01*
X13978214Y-12940357D01*
X13992500Y-12911786D01*
X14106786Y-12783214D02*
X14106786Y-12840357D01*
X14221071Y-12783214D02*
X14221071Y-12840357D01*
X14663928Y-13197500D02*
X14649643Y-13183214D01*
X14621071Y-13140357D01*
X14606785Y-13111786D01*
X14592500Y-13068929D01*
X14578214Y-12997500D01*
X14578214Y-12940357D01*
X14592500Y-12868929D01*
X14606785Y-12826071D01*
X14621071Y-12797500D01*
X14649643Y-12754643D01*
X14663928Y-12740357D01*
X14906785Y-12883214D02*
X14906785Y-13083214D01*
X14835357Y-12768929D02*
X14763928Y-12983214D01*
X14949643Y-12983214D01*
X15292500Y-13083214D02*
X15292500Y-12783214D01*
X15421071Y-13083214D02*
X15421071Y-12926071D01*
X15406785Y-12897500D01*
X15378214Y-12883214D01*
X15335357Y-12883214D01*
X15306785Y-12897500D01*
X15292500Y-12911786D01*
X15606785Y-13083214D02*
X15578214Y-13068929D01*
X15563928Y-13054643D01*
X15549643Y-13026071D01*
X15549643Y-12940357D01*
X15563928Y-12911786D01*
X15578214Y-12897500D01*
X15606785Y-12883214D01*
X15649643Y-12883214D01*
X15678214Y-12897500D01*
X15692500Y-12911786D01*
X15706785Y-12940357D01*
X15706785Y-13026071D01*
X15692500Y-13054643D01*
X15678214Y-13068929D01*
X15649643Y-13083214D01*
X15606785Y-13083214D01*
X15878214Y-13083214D02*
X15849643Y-13068929D01*
X15835357Y-13040357D01*
X15835357Y-12783214D01*
X16106786Y-13068929D02*
X16078214Y-13083214D01*
X16021071Y-13083214D01*
X15992500Y-13068929D01*
X15978214Y-13040357D01*
X15978214Y-12926071D01*
X15992500Y-12897500D01*
X16021071Y-12883214D01*
X16078214Y-12883214D01*
X16106786Y-12897500D01*
X16121071Y-12926071D01*
X16121071Y-12954643D01*
X15978214Y-12983214D01*
X16235357Y-13068929D02*
X16263928Y-13083214D01*
X16321071Y-13083214D01*
X16349643Y-13068929D01*
X16363928Y-13040357D01*
X16363928Y-13026071D01*
X16349643Y-12997500D01*
X16321071Y-12983214D01*
X16278214Y-12983214D01*
X16249643Y-12968929D01*
X16235357Y-12940357D01*
X16235357Y-12926071D01*
X16249643Y-12897500D01*
X16278214Y-12883214D01*
X16321071Y-12883214D01*
X16349643Y-12897500D01*
X16463928Y-13197500D02*
X16478214Y-13183214D01*
X16506786Y-13140357D01*
X16521071Y-13111786D01*
X16535357Y-13068929D01*
X16549643Y-12997500D01*
X16549643Y-12940357D01*
X16535357Y-12868929D01*
X16521071Y-12826071D01*
X16506786Y-12797500D01*
X16478214Y-12754643D01*
X16463928Y-12740357D01*
X9890900Y-13292700D02*
X9992500Y-13394300D01*
X9992500Y-13292700D02*
X9890900Y-13394300D01*
X9941700Y-13292700D02*
X9941700Y-13394300D01*
X9890900Y-13343500D02*
X9992500Y-13343500D01*
X10421071Y-13479214D02*
X10249643Y-13479214D01*
X10335357Y-13479214D02*
X10335357Y-13179214D01*
X10306786Y-13222071D01*
X10278214Y-13250643D01*
X10249643Y-13264929D01*
X10549643Y-13450643D02*
X10563929Y-13464929D01*
X10549643Y-13479214D01*
X10535357Y-13464929D01*
X10549643Y-13450643D01*
X10549643Y-13479214D01*
X10749643Y-13179214D02*
X10778214Y-13179214D01*
X10806786Y-13193500D01*
X10821071Y-13207786D01*
X10835357Y-13236357D01*
X10849643Y-13293500D01*
X10849643Y-13364929D01*
X10835357Y-13422071D01*
X10821071Y-13450643D01*
X10806786Y-13464929D01*
X10778214Y-13479214D01*
X10749643Y-13479214D01*
X10721071Y-13464929D01*
X10706786Y-13450643D01*
X10692500Y-13422071D01*
X10678214Y-13364929D01*
X10678214Y-13293500D01*
X10692500Y-13236357D01*
X10706786Y-13207786D01*
X10721071Y-13193500D01*
X10749643Y-13179214D01*
X10963929Y-13207786D02*
X10978214Y-13193500D01*
X11006786Y-13179214D01*
X11078214Y-13179214D01*
X11106786Y-13193500D01*
X11121071Y-13207786D01*
X11135357Y-13236357D01*
X11135357Y-13264929D01*
X11121071Y-13307786D01*
X10949643Y-13479214D01*
X11135357Y-13479214D01*
X11263928Y-13479214D02*
X11263928Y-13279214D01*
X11263928Y-13307786D02*
X11278214Y-13293500D01*
X11306786Y-13279214D01*
X11349643Y-13279214D01*
X11378214Y-13293500D01*
X11392500Y-13322071D01*
X11392500Y-13479214D01*
X11392500Y-13322071D02*
X11406786Y-13293500D01*
X11435357Y-13279214D01*
X11478214Y-13279214D01*
X11506786Y-13293500D01*
X11521071Y-13322071D01*
X11521071Y-13479214D01*
X11663928Y-13479214D02*
X11663928Y-13279214D01*
X11663928Y-13307786D02*
X11678214Y-13293500D01*
X11706786Y-13279214D01*
X11749643Y-13279214D01*
X11778214Y-13293500D01*
X11792500Y-13322071D01*
X11792500Y-13479214D01*
X11792500Y-13322071D02*
X11806786Y-13293500D01*
X11835357Y-13279214D01*
X11878214Y-13279214D01*
X11906786Y-13293500D01*
X11921071Y-13322071D01*
X11921071Y-13479214D01*
X12506786Y-13164929D02*
X12249643Y-13550643D01*
X12892500Y-13179214D02*
X12921071Y-13179214D01*
X12949643Y-13193500D01*
X12963928Y-13207786D01*
X12978214Y-13236357D01*
X12992500Y-13293500D01*
X12992500Y-13364929D01*
X12978214Y-13422071D01*
X12963928Y-13450643D01*
X12949643Y-13464929D01*
X12921071Y-13479214D01*
X12892500Y-13479214D01*
X12863928Y-13464929D01*
X12849643Y-13450643D01*
X12835357Y-13422071D01*
X12821071Y-13364929D01*
X12821071Y-13293500D01*
X12835357Y-13236357D01*
X12849643Y-13207786D01*
X12863928Y-13193500D01*
X12892500Y-13179214D01*
X13121071Y-13450643D02*
X13135357Y-13464929D01*
X13121071Y-13479214D01*
X13106786Y-13464929D01*
X13121071Y-13450643D01*
X13121071Y-13479214D01*
X13321071Y-13179214D02*
X13349643Y-13179214D01*
X13378214Y-13193500D01*
X13392500Y-13207786D01*
X13406785Y-13236357D01*
X13421071Y-13293500D01*
X13421071Y-13364929D01*
X13406785Y-13422071D01*
X13392500Y-13450643D01*
X13378214Y-13464929D01*
X13349643Y-13479214D01*
X13321071Y-13479214D01*
X13292500Y-13464929D01*
X13278214Y-13450643D01*
X13263928Y-13422071D01*
X13249643Y-13364929D01*
X13249643Y-13293500D01*
X13263928Y-13236357D01*
X13278214Y-13207786D01*
X13292500Y-13193500D01*
X13321071Y-13179214D01*
X13678214Y-13279214D02*
X13678214Y-13479214D01*
X13606785Y-13164929D02*
X13535357Y-13379214D01*
X13721071Y-13379214D01*
X13892500Y-13179214D02*
X13921071Y-13179214D01*
X13949643Y-13193500D01*
X13963928Y-13207786D01*
X13978214Y-13236357D01*
X13992500Y-13293500D01*
X13992500Y-13364929D01*
X13978214Y-13422071D01*
X13963928Y-13450643D01*
X13949643Y-13464929D01*
X13921071Y-13479214D01*
X13892500Y-13479214D01*
X13863928Y-13464929D01*
X13849643Y-13450643D01*
X13835357Y-13422071D01*
X13821071Y-13364929D01*
X13821071Y-13293500D01*
X13835357Y-13236357D01*
X13849643Y-13207786D01*
X13863928Y-13193500D01*
X13892500Y-13179214D01*
X14106786Y-13179214D02*
X14106786Y-13236357D01*
X14221071Y-13179214D02*
X14221071Y-13236357D01*
X14663928Y-13593500D02*
X14649643Y-13579214D01*
X14621071Y-13536357D01*
X14606785Y-13507786D01*
X14592500Y-13464929D01*
X14578214Y-13393500D01*
X14578214Y-13336357D01*
X14592500Y-13264929D01*
X14606785Y-13222071D01*
X14621071Y-13193500D01*
X14649643Y-13150643D01*
X14663928Y-13136357D01*
X14763928Y-13207786D02*
X14778214Y-13193500D01*
X14806785Y-13179214D01*
X14878214Y-13179214D01*
X14906785Y-13193500D01*
X14921071Y-13207786D01*
X14935357Y-13236357D01*
X14935357Y-13264929D01*
X14921071Y-13307786D01*
X14749643Y-13479214D01*
X14935357Y-13479214D01*
X15035357Y-13179214D02*
X15221071Y-13179214D01*
X15121071Y-13293500D01*
X15163928Y-13293500D01*
X15192500Y-13307786D01*
X15206785Y-13322071D01*
X15221071Y-13350643D01*
X15221071Y-13422071D01*
X15206785Y-13450643D01*
X15192500Y-13464929D01*
X15163928Y-13479214D01*
X15078214Y-13479214D01*
X15049643Y-13464929D01*
X15035357Y-13450643D01*
X15578214Y-13479214D02*
X15578214Y-13179214D01*
X15706785Y-13479214D02*
X15706785Y-13322071D01*
X15692500Y-13293500D01*
X15663928Y-13279214D01*
X15621071Y-13279214D01*
X15592500Y-13293500D01*
X15578214Y-13307786D01*
X15892500Y-13479214D02*
X15863928Y-13464929D01*
X15849643Y-13450643D01*
X15835357Y-13422071D01*
X15835357Y-13336357D01*
X15849643Y-13307786D01*
X15863928Y-13293500D01*
X15892500Y-13279214D01*
X15935357Y-13279214D01*
X15963928Y-13293500D01*
X15978214Y-13307786D01*
X15992500Y-13336357D01*
X15992500Y-13422071D01*
X15978214Y-13450643D01*
X15963928Y-13464929D01*
X15935357Y-13479214D01*
X15892500Y-13479214D01*
X16163928Y-13479214D02*
X16135357Y-13464929D01*
X16121071Y-13436357D01*
X16121071Y-13179214D01*
X16392500Y-13464929D02*
X16363928Y-13479214D01*
X16306786Y-13479214D01*
X16278214Y-13464929D01*
X16263928Y-13436357D01*
X16263928Y-13322071D01*
X16278214Y-13293500D01*
X16306786Y-13279214D01*
X16363928Y-13279214D01*
X16392500Y-13293500D01*
X16406786Y-13322071D01*
X16406786Y-13350643D01*
X16263928Y-13379214D01*
X16521071Y-13464929D02*
X16549643Y-13479214D01*
X16606786Y-13479214D01*
X16635357Y-13464929D01*
X16649643Y-13436357D01*
X16649643Y-13422071D01*
X16635357Y-13393500D01*
X16606786Y-13379214D01*
X16563928Y-13379214D01*
X16535357Y-13364929D01*
X16521071Y-13336357D01*
X16521071Y-13322071D01*
X16535357Y-13293500D01*
X16563928Y-13279214D01*
X16606786Y-13279214D01*
X16635357Y-13293500D01*
X16749643Y-13593500D02*
X16763928Y-13579214D01*
X16792500Y-13536357D01*
X16806786Y-13507786D01*
X16821071Y-13464929D01*
X16835357Y-13393500D01*
X16835357Y-13336357D01*
X16821071Y-13264929D01*
X16806786Y-13222071D01*
X16792500Y-13193500D01*
X16763928Y-13150643D01*
X16749643Y-13136357D01*
X9872500Y-13679500D02*
X9992500Y-13799500D01*
X9992500Y-13679500D02*
X9872500Y-13799500D01*
X9974927Y-13781927D02*
X9974927Y-13697073D01*
X9890073Y-13697073D01*
X9890073Y-13781927D01*
X9974927Y-13781927D01*
X10421071Y-13875214D02*
X10249643Y-13875214D01*
X10335357Y-13875214D02*
X10335357Y-13575214D01*
X10306786Y-13618071D01*
X10278214Y-13646643D01*
X10249643Y-13660929D01*
X10549643Y-13846643D02*
X10563929Y-13860929D01*
X10549643Y-13875214D01*
X10535357Y-13860929D01*
X10549643Y-13846643D01*
X10549643Y-13875214D01*
X10678214Y-13603786D02*
X10692500Y-13589500D01*
X10721071Y-13575214D01*
X10792500Y-13575214D01*
X10821071Y-13589500D01*
X10835357Y-13603786D01*
X10849643Y-13632357D01*
X10849643Y-13660929D01*
X10835357Y-13703786D01*
X10663928Y-13875214D01*
X10849643Y-13875214D01*
X11035357Y-13575214D02*
X11063929Y-13575214D01*
X11092500Y-13589500D01*
X11106786Y-13603786D01*
X11121071Y-13632357D01*
X11135357Y-13689500D01*
X11135357Y-13760929D01*
X11121071Y-13818071D01*
X11106786Y-13846643D01*
X11092500Y-13860929D01*
X11063929Y-13875214D01*
X11035357Y-13875214D01*
X11006786Y-13860929D01*
X10992500Y-13846643D01*
X10978214Y-13818071D01*
X10963929Y-13760929D01*
X10963929Y-13689500D01*
X10978214Y-13632357D01*
X10992500Y-13603786D01*
X11006786Y-13589500D01*
X11035357Y-13575214D01*
X11263928Y-13875214D02*
X11263928Y-13675214D01*
X11263928Y-13703786D02*
X11278214Y-13689500D01*
X11306786Y-13675214D01*
X11349643Y-13675214D01*
X11378214Y-13689500D01*
X11392500Y-13718071D01*
X11392500Y-13875214D01*
X11392500Y-13718071D02*
X11406786Y-13689500D01*
X11435357Y-13675214D01*
X11478214Y-13675214D01*
X11506786Y-13689500D01*
X11521071Y-13718071D01*
X11521071Y-13875214D01*
X11663928Y-13875214D02*
X11663928Y-13675214D01*
X11663928Y-13703786D02*
X11678214Y-13689500D01*
X11706786Y-13675214D01*
X11749643Y-13675214D01*
X11778214Y-13689500D01*
X11792500Y-13718071D01*
X11792500Y-13875214D01*
X11792500Y-13718071D02*
X11806786Y-13689500D01*
X11835357Y-13675214D01*
X11878214Y-13675214D01*
X11906786Y-13689500D01*
X11921071Y-13718071D01*
X11921071Y-13875214D01*
X12506786Y-13560929D02*
X12249643Y-13946643D01*
X12892500Y-13575214D02*
X12921071Y-13575214D01*
X12949643Y-13589500D01*
X12963928Y-13603786D01*
X12978214Y-13632357D01*
X12992500Y-13689500D01*
X12992500Y-13760929D01*
X12978214Y-13818071D01*
X12963928Y-13846643D01*
X12949643Y-13860929D01*
X12921071Y-13875214D01*
X12892500Y-13875214D01*
X12863928Y-13860929D01*
X12849643Y-13846643D01*
X12835357Y-13818071D01*
X12821071Y-13760929D01*
X12821071Y-13689500D01*
X12835357Y-13632357D01*
X12849643Y-13603786D01*
X12863928Y-13589500D01*
X12892500Y-13575214D01*
X13121071Y-13846643D02*
X13135357Y-13860929D01*
X13121071Y-13875214D01*
X13106786Y-13860929D01*
X13121071Y-13846643D01*
X13121071Y-13875214D01*
X13321071Y-13575214D02*
X13349643Y-13575214D01*
X13378214Y-13589500D01*
X13392500Y-13603786D01*
X13406785Y-13632357D01*
X13421071Y-13689500D01*
X13421071Y-13760929D01*
X13406785Y-13818071D01*
X13392500Y-13846643D01*
X13378214Y-13860929D01*
X13349643Y-13875214D01*
X13321071Y-13875214D01*
X13292500Y-13860929D01*
X13278214Y-13846643D01*
X13263928Y-13818071D01*
X13249643Y-13760929D01*
X13249643Y-13689500D01*
X13263928Y-13632357D01*
X13278214Y-13603786D01*
X13292500Y-13589500D01*
X13321071Y-13575214D01*
X13678214Y-13675214D02*
X13678214Y-13875214D01*
X13606785Y-13560929D02*
X13535357Y-13775214D01*
X13721071Y-13775214D01*
X13806785Y-13575214D02*
X14006785Y-13575214D01*
X13878214Y-13875214D01*
X14106786Y-13575214D02*
X14106786Y-13632357D01*
X14221071Y-13575214D02*
X14221071Y-13632357D01*
X14663928Y-13989500D02*
X14649643Y-13975214D01*
X14621071Y-13932357D01*
X14606785Y-13903786D01*
X14592500Y-13860929D01*
X14578214Y-13789500D01*
X14578214Y-13732357D01*
X14592500Y-13660929D01*
X14606785Y-13618071D01*
X14621071Y-13589500D01*
X14649643Y-13546643D01*
X14663928Y-13532357D01*
X14935357Y-13875214D02*
X14763928Y-13875214D01*
X14849643Y-13875214D02*
X14849643Y-13575214D01*
X14821071Y-13618071D01*
X14792500Y-13646643D01*
X14763928Y-13660929D01*
X15192500Y-13675214D02*
X15192500Y-13875214D01*
X15121071Y-13560929D02*
X15049643Y-13775214D01*
X15235357Y-13775214D01*
X15578214Y-13875214D02*
X15578214Y-13575214D01*
X15706785Y-13875214D02*
X15706785Y-13718071D01*
X15692500Y-13689500D01*
X15663928Y-13675214D01*
X15621071Y-13675214D01*
X15592500Y-13689500D01*
X15578214Y-13703786D01*
X15892500Y-13875214D02*
X15863928Y-13860929D01*
X15849643Y-13846643D01*
X15835357Y-13818071D01*
X15835357Y-13732357D01*
X15849643Y-13703786D01*
X15863928Y-13689500D01*
X15892500Y-13675214D01*
X15935357Y-13675214D01*
X15963928Y-13689500D01*
X15978214Y-13703786D01*
X15992500Y-13732357D01*
X15992500Y-13818071D01*
X15978214Y-13846643D01*
X15963928Y-13860929D01*
X15935357Y-13875214D01*
X15892500Y-13875214D01*
X16163928Y-13875214D02*
X16135357Y-13860929D01*
X16121071Y-13832357D01*
X16121071Y-13575214D01*
X16392500Y-13860929D02*
X16363928Y-13875214D01*
X16306786Y-13875214D01*
X16278214Y-13860929D01*
X16263928Y-13832357D01*
X16263928Y-13718071D01*
X16278214Y-13689500D01*
X16306786Y-13675214D01*
X16363928Y-13675214D01*
X16392500Y-13689500D01*
X16406786Y-13718071D01*
X16406786Y-13746643D01*
X16263928Y-13775214D01*
X16521071Y-13860929D02*
X16549643Y-13875214D01*
X16606786Y-13875214D01*
X16635357Y-13860929D01*
X16649643Y-13832357D01*
X16649643Y-13818071D01*
X16635357Y-13789500D01*
X16606786Y-13775214D01*
X16563928Y-13775214D01*
X16535357Y-13760929D01*
X16521071Y-13732357D01*
X16521071Y-13718071D01*
X16535357Y-13689500D01*
X16563928Y-13675214D01*
X16606786Y-13675214D01*
X16635357Y-13689500D01*
X16749643Y-13989500D02*
X16763928Y-13975214D01*
X16792500Y-13932357D01*
X16806786Y-13903786D01*
X16821071Y-13860929D01*
X16835357Y-13789500D01*
X16835357Y-13732357D01*
X16821071Y-13660929D01*
X16806786Y-13618071D01*
X16792500Y-13589500D01*
X16763928Y-13546643D01*
X16749643Y-13532357D01*
X9865500Y-14072000D02*
X9992500Y-14199000D01*
X9992500Y-14072000D02*
X9865500Y-14199000D01*
X9929000Y-14199000D02*
X9992500Y-14135500D01*
X9929000Y-14072000D01*
X9865500Y-14135500D01*
X9929000Y-14199000D01*
X10421071Y-14271214D02*
X10249643Y-14271214D01*
X10335357Y-14271214D02*
X10335357Y-13971214D01*
X10306786Y-14014071D01*
X10278214Y-14042643D01*
X10249643Y-14056929D01*
X10549643Y-14242643D02*
X10563929Y-14256929D01*
X10549643Y-14271214D01*
X10535357Y-14256929D01*
X10549643Y-14242643D01*
X10549643Y-14271214D01*
X10678214Y-13999786D02*
X10692500Y-13985500D01*
X10721071Y-13971214D01*
X10792500Y-13971214D01*
X10821071Y-13985500D01*
X10835357Y-13999786D01*
X10849643Y-14028357D01*
X10849643Y-14056929D01*
X10835357Y-14099786D01*
X10663928Y-14271214D01*
X10849643Y-14271214D01*
X10949643Y-13971214D02*
X11149643Y-13971214D01*
X11021071Y-14271214D01*
X11263928Y-14271214D02*
X11263928Y-14071214D01*
X11263928Y-14099786D02*
X11278214Y-14085500D01*
X11306786Y-14071214D01*
X11349643Y-14071214D01*
X11378214Y-14085500D01*
X11392500Y-14114071D01*
X11392500Y-14271214D01*
X11392500Y-14114071D02*
X11406786Y-14085500D01*
X11435357Y-14071214D01*
X11478214Y-14071214D01*
X11506786Y-14085500D01*
X11521071Y-14114071D01*
X11521071Y-14271214D01*
X11663928Y-14271214D02*
X11663928Y-14071214D01*
X11663928Y-14099786D02*
X11678214Y-14085500D01*
X11706786Y-14071214D01*
X11749643Y-14071214D01*
X11778214Y-14085500D01*
X11792500Y-14114071D01*
X11792500Y-14271214D01*
X11792500Y-14114071D02*
X11806786Y-14085500D01*
X11835357Y-14071214D01*
X11878214Y-14071214D01*
X11906786Y-14085500D01*
X11921071Y-14114071D01*
X11921071Y-14271214D01*
X12506786Y-13956929D02*
X12249643Y-14342643D01*
X12892500Y-13971214D02*
X12921071Y-13971214D01*
X12949643Y-13985500D01*
X12963928Y-13999786D01*
X12978214Y-14028357D01*
X12992500Y-14085500D01*
X12992500Y-14156929D01*
X12978214Y-14214071D01*
X12963928Y-14242643D01*
X12949643Y-14256929D01*
X12921071Y-14271214D01*
X12892500Y-14271214D01*
X12863928Y-14256929D01*
X12849643Y-14242643D01*
X12835357Y-14214071D01*
X12821071Y-14156929D01*
X12821071Y-14085500D01*
X12835357Y-14028357D01*
X12849643Y-13999786D01*
X12863928Y-13985500D01*
X12892500Y-13971214D01*
X13121071Y-14242643D02*
X13135357Y-14256929D01*
X13121071Y-14271214D01*
X13106786Y-14256929D01*
X13121071Y-14242643D01*
X13121071Y-14271214D01*
X13321071Y-13971214D02*
X13349643Y-13971214D01*
X13378214Y-13985500D01*
X13392500Y-13999786D01*
X13406785Y-14028357D01*
X13421071Y-14085500D01*
X13421071Y-14156929D01*
X13406785Y-14214071D01*
X13392500Y-14242643D01*
X13378214Y-14256929D01*
X13349643Y-14271214D01*
X13321071Y-14271214D01*
X13292500Y-14256929D01*
X13278214Y-14242643D01*
X13263928Y-14214071D01*
X13249643Y-14156929D01*
X13249643Y-14085500D01*
X13263928Y-14028357D01*
X13278214Y-13999786D01*
X13292500Y-13985500D01*
X13321071Y-13971214D01*
X13692500Y-13971214D02*
X13549643Y-13971214D01*
X13535357Y-14114071D01*
X13549643Y-14099786D01*
X13578214Y-14085500D01*
X13649643Y-14085500D01*
X13678214Y-14099786D01*
X13692500Y-14114071D01*
X13706785Y-14142643D01*
X13706785Y-14214071D01*
X13692500Y-14242643D01*
X13678214Y-14256929D01*
X13649643Y-14271214D01*
X13578214Y-14271214D01*
X13549643Y-14256929D01*
X13535357Y-14242643D01*
X13892500Y-13971214D02*
X13921071Y-13971214D01*
X13949643Y-13985500D01*
X13963928Y-13999786D01*
X13978214Y-14028357D01*
X13992500Y-14085500D01*
X13992500Y-14156929D01*
X13978214Y-14214071D01*
X13963928Y-14242643D01*
X13949643Y-14256929D01*
X13921071Y-14271214D01*
X13892500Y-14271214D01*
X13863928Y-14256929D01*
X13849643Y-14242643D01*
X13835357Y-14214071D01*
X13821071Y-14156929D01*
X13821071Y-14085500D01*
X13835357Y-14028357D01*
X13849643Y-13999786D01*
X13863928Y-13985500D01*
X13892500Y-13971214D01*
X14106786Y-13971214D02*
X14106786Y-14028357D01*
X14221071Y-13971214D02*
X14221071Y-14028357D01*
X14663928Y-14385500D02*
X14649643Y-14371214D01*
X14621071Y-14328357D01*
X14606785Y-14299786D01*
X14592500Y-14256929D01*
X14578214Y-14185500D01*
X14578214Y-14128357D01*
X14592500Y-14056929D01*
X14606785Y-14014071D01*
X14621071Y-13985500D01*
X14649643Y-13942643D01*
X14663928Y-13928357D01*
X14935357Y-14271214D02*
X14763928Y-14271214D01*
X14849643Y-14271214D02*
X14849643Y-13971214D01*
X14821071Y-14014071D01*
X14792500Y-14042643D01*
X14763928Y-14056929D01*
X15292500Y-14271214D02*
X15292500Y-13971214D01*
X15421071Y-14271214D02*
X15421071Y-14114071D01*
X15406785Y-14085500D01*
X15378214Y-14071214D01*
X15335357Y-14071214D01*
X15306785Y-14085500D01*
X15292500Y-14099786D01*
X15606785Y-14271214D02*
X15578214Y-14256929D01*
X15563928Y-14242643D01*
X15549643Y-14214071D01*
X15549643Y-14128357D01*
X15563928Y-14099786D01*
X15578214Y-14085500D01*
X15606785Y-14071214D01*
X15649643Y-14071214D01*
X15678214Y-14085500D01*
X15692500Y-14099786D01*
X15706785Y-14128357D01*
X15706785Y-14214071D01*
X15692500Y-14242643D01*
X15678214Y-14256929D01*
X15649643Y-14271214D01*
X15606785Y-14271214D01*
X15878214Y-14271214D02*
X15849643Y-14256929D01*
X15835357Y-14228357D01*
X15835357Y-13971214D01*
X16106786Y-14256929D02*
X16078214Y-14271214D01*
X16021071Y-14271214D01*
X15992500Y-14256929D01*
X15978214Y-14228357D01*
X15978214Y-14114071D01*
X15992500Y-14085500D01*
X16021071Y-14071214D01*
X16078214Y-14071214D01*
X16106786Y-14085500D01*
X16121071Y-14114071D01*
X16121071Y-14142643D01*
X15978214Y-14171214D01*
X16221071Y-14385500D02*
X16235357Y-14371214D01*
X16263928Y-14328357D01*
X16278214Y-14299786D01*
X16292500Y-14256929D01*
X16306786Y-14185500D01*
X16306786Y-14128357D01*
X16292500Y-14056929D01*
X16278214Y-14014071D01*
X16263928Y-13985500D01*
X16235357Y-13942643D01*
X16221071Y-13928357D01*
X9927500Y-14466500D02*
X9927500Y-14596500D01*
X9862500Y-14531500D02*
X9992500Y-14531500D01*
X9992500Y-14531500D02*
G75*
G03X9992500Y-14531500I-65000J0D01*
G01*
X10421071Y-14667214D02*
X10249643Y-14667214D01*
X10335357Y-14667214D02*
X10335357Y-14367214D01*
X10306786Y-14410071D01*
X10278214Y-14438643D01*
X10249643Y-14452929D01*
X10549643Y-14638643D02*
X10563929Y-14652929D01*
X10549643Y-14667214D01*
X10535357Y-14652929D01*
X10549643Y-14638643D01*
X10549643Y-14667214D01*
X10663928Y-14367214D02*
X10849643Y-14367214D01*
X10749643Y-14481500D01*
X10792500Y-14481500D01*
X10821071Y-14495786D01*
X10835357Y-14510071D01*
X10849643Y-14538643D01*
X10849643Y-14610071D01*
X10835357Y-14638643D01*
X10821071Y-14652929D01*
X10792500Y-14667214D01*
X10706786Y-14667214D01*
X10678214Y-14652929D01*
X10663928Y-14638643D01*
X11035357Y-14367214D02*
X11063929Y-14367214D01*
X11092500Y-14381500D01*
X11106786Y-14395786D01*
X11121071Y-14424357D01*
X11135357Y-14481500D01*
X11135357Y-14552929D01*
X11121071Y-14610071D01*
X11106786Y-14638643D01*
X11092500Y-14652929D01*
X11063929Y-14667214D01*
X11035357Y-14667214D01*
X11006786Y-14652929D01*
X10992500Y-14638643D01*
X10978214Y-14610071D01*
X10963929Y-14552929D01*
X10963929Y-14481500D01*
X10978214Y-14424357D01*
X10992500Y-14395786D01*
X11006786Y-14381500D01*
X11035357Y-14367214D01*
X11263928Y-14667214D02*
X11263928Y-14467214D01*
X11263928Y-14495786D02*
X11278214Y-14481500D01*
X11306786Y-14467214D01*
X11349643Y-14467214D01*
X11378214Y-14481500D01*
X11392500Y-14510071D01*
X11392500Y-14667214D01*
X11392500Y-14510071D02*
X11406786Y-14481500D01*
X11435357Y-14467214D01*
X11478214Y-14467214D01*
X11506786Y-14481500D01*
X11521071Y-14510071D01*
X11521071Y-14667214D01*
X11663928Y-14667214D02*
X11663928Y-14467214D01*
X11663928Y-14495786D02*
X11678214Y-14481500D01*
X11706786Y-14467214D01*
X11749643Y-14467214D01*
X11778214Y-14481500D01*
X11792500Y-14510071D01*
X11792500Y-14667214D01*
X11792500Y-14510071D02*
X11806786Y-14481500D01*
X11835357Y-14467214D01*
X11878214Y-14467214D01*
X11906786Y-14481500D01*
X11921071Y-14510071D01*
X11921071Y-14667214D01*
X12506786Y-14352929D02*
X12249643Y-14738643D01*
X12892500Y-14367214D02*
X12921071Y-14367214D01*
X12949643Y-14381500D01*
X12963928Y-14395786D01*
X12978214Y-14424357D01*
X12992500Y-14481500D01*
X12992500Y-14552929D01*
X12978214Y-14610071D01*
X12963928Y-14638643D01*
X12949643Y-14652929D01*
X12921071Y-14667214D01*
X12892500Y-14667214D01*
X12863928Y-14652929D01*
X12849643Y-14638643D01*
X12835357Y-14610071D01*
X12821071Y-14552929D01*
X12821071Y-14481500D01*
X12835357Y-14424357D01*
X12849643Y-14395786D01*
X12863928Y-14381500D01*
X12892500Y-14367214D01*
X13121071Y-14638643D02*
X13135357Y-14652929D01*
X13121071Y-14667214D01*
X13106786Y-14652929D01*
X13121071Y-14638643D01*
X13121071Y-14667214D01*
X13321071Y-14367214D02*
X13349643Y-14367214D01*
X13378214Y-14381500D01*
X13392500Y-14395786D01*
X13406785Y-14424357D01*
X13421071Y-14481500D01*
X13421071Y-14552929D01*
X13406785Y-14610071D01*
X13392500Y-14638643D01*
X13378214Y-14652929D01*
X13349643Y-14667214D01*
X13321071Y-14667214D01*
X13292500Y-14652929D01*
X13278214Y-14638643D01*
X13263928Y-14610071D01*
X13249643Y-14552929D01*
X13249643Y-14481500D01*
X13263928Y-14424357D01*
X13278214Y-14395786D01*
X13292500Y-14381500D01*
X13321071Y-14367214D01*
X13692500Y-14367214D02*
X13549643Y-14367214D01*
X13535357Y-14510071D01*
X13549643Y-14495786D01*
X13578214Y-14481500D01*
X13649643Y-14481500D01*
X13678214Y-14495786D01*
X13692500Y-14510071D01*
X13706785Y-14538643D01*
X13706785Y-14610071D01*
X13692500Y-14638643D01*
X13678214Y-14652929D01*
X13649643Y-14667214D01*
X13578214Y-14667214D01*
X13549643Y-14652929D01*
X13535357Y-14638643D01*
X13992500Y-14667214D02*
X13821071Y-14667214D01*
X13906785Y-14667214D02*
X13906785Y-14367214D01*
X13878214Y-14410071D01*
X13849643Y-14438643D01*
X13821071Y-14452929D01*
X14106786Y-14367214D02*
X14106786Y-14424357D01*
X14221071Y-14367214D02*
X14221071Y-14424357D01*
X14663928Y-14781500D02*
X14649643Y-14767214D01*
X14621071Y-14724357D01*
X14606785Y-14695786D01*
X14592500Y-14652929D01*
X14578214Y-14581500D01*
X14578214Y-14524357D01*
X14592500Y-14452929D01*
X14606785Y-14410071D01*
X14621071Y-14381500D01*
X14649643Y-14338643D01*
X14663928Y-14324357D01*
X14763928Y-14395786D02*
X14778214Y-14381500D01*
X14806785Y-14367214D01*
X14878214Y-14367214D01*
X14906785Y-14381500D01*
X14921071Y-14395786D01*
X14935357Y-14424357D01*
X14935357Y-14452929D01*
X14921071Y-14495786D01*
X14749643Y-14667214D01*
X14935357Y-14667214D01*
X15292500Y-14667214D02*
X15292500Y-14367214D01*
X15421071Y-14667214D02*
X15421071Y-14510071D01*
X15406785Y-14481500D01*
X15378214Y-14467214D01*
X15335357Y-14467214D01*
X15306785Y-14481500D01*
X15292500Y-14495786D01*
X15606785Y-14667214D02*
X15578214Y-14652929D01*
X15563928Y-14638643D01*
X15549643Y-14610071D01*
X15549643Y-14524357D01*
X15563928Y-14495786D01*
X15578214Y-14481500D01*
X15606785Y-14467214D01*
X15649643Y-14467214D01*
X15678214Y-14481500D01*
X15692500Y-14495786D01*
X15706785Y-14524357D01*
X15706785Y-14610071D01*
X15692500Y-14638643D01*
X15678214Y-14652929D01*
X15649643Y-14667214D01*
X15606785Y-14667214D01*
X15878214Y-14667214D02*
X15849643Y-14652929D01*
X15835357Y-14624357D01*
X15835357Y-14367214D01*
X16106786Y-14652929D02*
X16078214Y-14667214D01*
X16021071Y-14667214D01*
X15992500Y-14652929D01*
X15978214Y-14624357D01*
X15978214Y-14510071D01*
X15992500Y-14481500D01*
X16021071Y-14467214D01*
X16078214Y-14467214D01*
X16106786Y-14481500D01*
X16121071Y-14510071D01*
X16121071Y-14538643D01*
X15978214Y-14567214D01*
X16235357Y-14652929D02*
X16263928Y-14667214D01*
X16321071Y-14667214D01*
X16349643Y-14652929D01*
X16363928Y-14624357D01*
X16363928Y-14610071D01*
X16349643Y-14581500D01*
X16321071Y-14567214D01*
X16278214Y-14567214D01*
X16249643Y-14552929D01*
X16235357Y-14524357D01*
X16235357Y-14510071D01*
X16249643Y-14481500D01*
X16278214Y-14467214D01*
X16321071Y-14467214D01*
X16349643Y-14481500D01*
X16463928Y-14781500D02*
X16478214Y-14767214D01*
X16506786Y-14724357D01*
X16521071Y-14695786D01*
X16535357Y-14652929D01*
X16549643Y-14581500D01*
X16549643Y-14524357D01*
X16535357Y-14452929D01*
X16521071Y-14410071D01*
X16506786Y-14381500D01*
X16478214Y-14338643D01*
X16463928Y-14324357D01*
X9947864Y-15035264D02*
X9947864Y-14819736D01*
X9732336Y-14819736D01*
X9732336Y-15035264D01*
X9947864Y-15035264D01*
X9992500Y-14927500D02*
G75*
G03X9992500Y-14927500I-152400J0D01*
G01*
X10235357Y-14763214D02*
X10421071Y-14763214D01*
X10321071Y-14877500D01*
X10363929Y-14877500D01*
X10392500Y-14891786D01*
X10406786Y-14906071D01*
X10421071Y-14934643D01*
X10421071Y-15006071D01*
X10406786Y-15034643D01*
X10392500Y-15048929D01*
X10363929Y-15063214D01*
X10278214Y-15063214D01*
X10249643Y-15048929D01*
X10235357Y-15034643D01*
X10549643Y-15034643D02*
X10563929Y-15048929D01*
X10549643Y-15063214D01*
X10535357Y-15048929D01*
X10549643Y-15034643D01*
X10549643Y-15063214D01*
X10749643Y-14763214D02*
X10778214Y-14763214D01*
X10806786Y-14777500D01*
X10821071Y-14791786D01*
X10835357Y-14820357D01*
X10849643Y-14877500D01*
X10849643Y-14948929D01*
X10835357Y-15006071D01*
X10821071Y-15034643D01*
X10806786Y-15048929D01*
X10778214Y-15063214D01*
X10749643Y-15063214D01*
X10721071Y-15048929D01*
X10706786Y-15034643D01*
X10692500Y-15006071D01*
X10678214Y-14948929D01*
X10678214Y-14877500D01*
X10692500Y-14820357D01*
X10706786Y-14791786D01*
X10721071Y-14777500D01*
X10749643Y-14763214D01*
X11121071Y-14763214D02*
X10978214Y-14763214D01*
X10963929Y-14906071D01*
X10978214Y-14891786D01*
X11006786Y-14877500D01*
X11078214Y-14877500D01*
X11106786Y-14891786D01*
X11121071Y-14906071D01*
X11135357Y-14934643D01*
X11135357Y-15006071D01*
X11121071Y-15034643D01*
X11106786Y-15048929D01*
X11078214Y-15063214D01*
X11006786Y-15063214D01*
X10978214Y-15048929D01*
X10963929Y-15034643D01*
X11263928Y-15063214D02*
X11263928Y-14863214D01*
X11263928Y-14891786D02*
X11278214Y-14877500D01*
X11306786Y-14863214D01*
X11349643Y-14863214D01*
X11378214Y-14877500D01*
X11392500Y-14906071D01*
X11392500Y-15063214D01*
X11392500Y-14906071D02*
X11406786Y-14877500D01*
X11435357Y-14863214D01*
X11478214Y-14863214D01*
X11506786Y-14877500D01*
X11521071Y-14906071D01*
X11521071Y-15063214D01*
X11663928Y-15063214D02*
X11663928Y-14863214D01*
X11663928Y-14891786D02*
X11678214Y-14877500D01*
X11706786Y-14863214D01*
X11749643Y-14863214D01*
X11778214Y-14877500D01*
X11792500Y-14906071D01*
X11792500Y-15063214D01*
X11792500Y-14906071D02*
X11806786Y-14877500D01*
X11835357Y-14863214D01*
X11878214Y-14863214D01*
X11906786Y-14877500D01*
X11921071Y-14906071D01*
X11921071Y-15063214D01*
X12506786Y-14748929D02*
X12249643Y-15134643D01*
X12892500Y-14763214D02*
X12921071Y-14763214D01*
X12949643Y-14777500D01*
X12963928Y-14791786D01*
X12978214Y-14820357D01*
X12992500Y-14877500D01*
X12992500Y-14948929D01*
X12978214Y-15006071D01*
X12963928Y-15034643D01*
X12949643Y-15048929D01*
X12921071Y-15063214D01*
X12892500Y-15063214D01*
X12863928Y-15048929D01*
X12849643Y-15034643D01*
X12835357Y-15006071D01*
X12821071Y-14948929D01*
X12821071Y-14877500D01*
X12835357Y-14820357D01*
X12849643Y-14791786D01*
X12863928Y-14777500D01*
X12892500Y-14763214D01*
X13121071Y-15034643D02*
X13135357Y-15048929D01*
X13121071Y-15063214D01*
X13106786Y-15048929D01*
X13121071Y-15034643D01*
X13121071Y-15063214D01*
X13421071Y-15063214D02*
X13249643Y-15063214D01*
X13335357Y-15063214D02*
X13335357Y-14763214D01*
X13306785Y-14806071D01*
X13278214Y-14834643D01*
X13249643Y-14848929D01*
X13535357Y-14791786D02*
X13549643Y-14777500D01*
X13578214Y-14763214D01*
X13649643Y-14763214D01*
X13678214Y-14777500D01*
X13692500Y-14791786D01*
X13706785Y-14820357D01*
X13706785Y-14848929D01*
X13692500Y-14891786D01*
X13521071Y-15063214D01*
X13706785Y-15063214D01*
X13892500Y-14763214D02*
X13921071Y-14763214D01*
X13949643Y-14777500D01*
X13963928Y-14791786D01*
X13978214Y-14820357D01*
X13992500Y-14877500D01*
X13992500Y-14948929D01*
X13978214Y-15006071D01*
X13963928Y-15034643D01*
X13949643Y-15048929D01*
X13921071Y-15063214D01*
X13892500Y-15063214D01*
X13863928Y-15048929D01*
X13849643Y-15034643D01*
X13835357Y-15006071D01*
X13821071Y-14948929D01*
X13821071Y-14877500D01*
X13835357Y-14820357D01*
X13849643Y-14791786D01*
X13863928Y-14777500D01*
X13892500Y-14763214D01*
X14106786Y-14763214D02*
X14106786Y-14820357D01*
X14221071Y-14763214D02*
X14221071Y-14820357D01*
X14663928Y-15177500D02*
X14649643Y-15163214D01*
X14621071Y-15120357D01*
X14606785Y-15091786D01*
X14592500Y-15048929D01*
X14578214Y-14977500D01*
X14578214Y-14920357D01*
X14592500Y-14848929D01*
X14606785Y-14806071D01*
X14621071Y-14777500D01*
X14649643Y-14734643D01*
X14663928Y-14720357D01*
X14821071Y-14891786D02*
X14792500Y-14877500D01*
X14778214Y-14863214D01*
X14763928Y-14834643D01*
X14763928Y-14820357D01*
X14778214Y-14791786D01*
X14792500Y-14777500D01*
X14821071Y-14763214D01*
X14878214Y-14763214D01*
X14906785Y-14777500D01*
X14921071Y-14791786D01*
X14935357Y-14820357D01*
X14935357Y-14834643D01*
X14921071Y-14863214D01*
X14906785Y-14877500D01*
X14878214Y-14891786D01*
X14821071Y-14891786D01*
X14792500Y-14906071D01*
X14778214Y-14920357D01*
X14763928Y-14948929D01*
X14763928Y-15006071D01*
X14778214Y-15034643D01*
X14792500Y-15048929D01*
X14821071Y-15063214D01*
X14878214Y-15063214D01*
X14906785Y-15048929D01*
X14921071Y-15034643D01*
X14935357Y-15006071D01*
X14935357Y-14948929D01*
X14921071Y-14920357D01*
X14906785Y-14906071D01*
X14878214Y-14891786D01*
X15292500Y-15063214D02*
X15292500Y-14763214D01*
X15421071Y-15063214D02*
X15421071Y-14906071D01*
X15406785Y-14877500D01*
X15378214Y-14863214D01*
X15335357Y-14863214D01*
X15306785Y-14877500D01*
X15292500Y-14891786D01*
X15606785Y-15063214D02*
X15578214Y-15048929D01*
X15563928Y-15034643D01*
X15549643Y-15006071D01*
X15549643Y-14920357D01*
X15563928Y-14891786D01*
X15578214Y-14877500D01*
X15606785Y-14863214D01*
X15649643Y-14863214D01*
X15678214Y-14877500D01*
X15692500Y-14891786D01*
X15706785Y-14920357D01*
X15706785Y-15006071D01*
X15692500Y-15034643D01*
X15678214Y-15048929D01*
X15649643Y-15063214D01*
X15606785Y-15063214D01*
X15878214Y-15063214D02*
X15849643Y-15048929D01*
X15835357Y-15020357D01*
X15835357Y-14763214D01*
X16106786Y-15048929D02*
X16078214Y-15063214D01*
X16021071Y-15063214D01*
X15992500Y-15048929D01*
X15978214Y-15020357D01*
X15978214Y-14906071D01*
X15992500Y-14877500D01*
X16021071Y-14863214D01*
X16078214Y-14863214D01*
X16106786Y-14877500D01*
X16121071Y-14906071D01*
X16121071Y-14934643D01*
X15978214Y-14963214D01*
X16235357Y-15048929D02*
X16263928Y-15063214D01*
X16321071Y-15063214D01*
X16349643Y-15048929D01*
X16363928Y-15020357D01*
X16363928Y-15006071D01*
X16349643Y-14977500D01*
X16321071Y-14963214D01*
X16278214Y-14963214D01*
X16249643Y-14948929D01*
X16235357Y-14920357D01*
X16235357Y-14906071D01*
X16249643Y-14877500D01*
X16278214Y-14863214D01*
X16321071Y-14863214D01*
X16349643Y-14877500D01*
X16463928Y-15177500D02*
X16478214Y-15163214D01*
X16506786Y-15120357D01*
X16521071Y-15091786D01*
X16535357Y-15048929D01*
X16549643Y-14977500D01*
X16549643Y-14920357D01*
X16535357Y-14848929D01*
X16521071Y-14806071D01*
X16506786Y-14777500D01*
X16478214Y-14734643D01*
X16463928Y-14720357D01*
X9802508Y-15552292D02*
X9992500Y-15362300D01*
X9802508Y-15172308D01*
X9612516Y-15362300D01*
X9802508Y-15552292D01*
X9992500Y-15362300D02*
G75*
G03X9992500Y-15362300I-189992J0D01*
G01*
X10235357Y-15198014D02*
X10421071Y-15198014D01*
X10321071Y-15312300D01*
X10363929Y-15312300D01*
X10392500Y-15326586D01*
X10406786Y-15340871D01*
X10421071Y-15369443D01*
X10421071Y-15440871D01*
X10406786Y-15469443D01*
X10392500Y-15483729D01*
X10363929Y-15498014D01*
X10278214Y-15498014D01*
X10249643Y-15483729D01*
X10235357Y-15469443D01*
X10549643Y-15469443D02*
X10563929Y-15483729D01*
X10549643Y-15498014D01*
X10535357Y-15483729D01*
X10549643Y-15469443D01*
X10549643Y-15498014D01*
X10735357Y-15326586D02*
X10706786Y-15312300D01*
X10692500Y-15298014D01*
X10678214Y-15269443D01*
X10678214Y-15255157D01*
X10692500Y-15226586D01*
X10706786Y-15212300D01*
X10735357Y-15198014D01*
X10792500Y-15198014D01*
X10821071Y-15212300D01*
X10835357Y-15226586D01*
X10849643Y-15255157D01*
X10849643Y-15269443D01*
X10835357Y-15298014D01*
X10821071Y-15312300D01*
X10792500Y-15326586D01*
X10735357Y-15326586D01*
X10706786Y-15340871D01*
X10692500Y-15355157D01*
X10678214Y-15383729D01*
X10678214Y-15440871D01*
X10692500Y-15469443D01*
X10706786Y-15483729D01*
X10735357Y-15498014D01*
X10792500Y-15498014D01*
X10821071Y-15483729D01*
X10835357Y-15469443D01*
X10849643Y-15440871D01*
X10849643Y-15383729D01*
X10835357Y-15355157D01*
X10821071Y-15340871D01*
X10792500Y-15326586D01*
X11035357Y-15198014D02*
X11063929Y-15198014D01*
X11092500Y-15212300D01*
X11106786Y-15226586D01*
X11121071Y-15255157D01*
X11135357Y-15312300D01*
X11135357Y-15383729D01*
X11121071Y-15440871D01*
X11106786Y-15469443D01*
X11092500Y-15483729D01*
X11063929Y-15498014D01*
X11035357Y-15498014D01*
X11006786Y-15483729D01*
X10992500Y-15469443D01*
X10978214Y-15440871D01*
X10963929Y-15383729D01*
X10963929Y-15312300D01*
X10978214Y-15255157D01*
X10992500Y-15226586D01*
X11006786Y-15212300D01*
X11035357Y-15198014D01*
X11263928Y-15498014D02*
X11263928Y-15298014D01*
X11263928Y-15326586D02*
X11278214Y-15312300D01*
X11306786Y-15298014D01*
X11349643Y-15298014D01*
X11378214Y-15312300D01*
X11392500Y-15340871D01*
X11392500Y-15498014D01*
X11392500Y-15340871D02*
X11406786Y-15312300D01*
X11435357Y-15298014D01*
X11478214Y-15298014D01*
X11506786Y-15312300D01*
X11521071Y-15340871D01*
X11521071Y-15498014D01*
X11663928Y-15498014D02*
X11663928Y-15298014D01*
X11663928Y-15326586D02*
X11678214Y-15312300D01*
X11706786Y-15298014D01*
X11749643Y-15298014D01*
X11778214Y-15312300D01*
X11792500Y-15340871D01*
X11792500Y-15498014D01*
X11792500Y-15340871D02*
X11806786Y-15312300D01*
X11835357Y-15298014D01*
X11878214Y-15298014D01*
X11906786Y-15312300D01*
X11921071Y-15340871D01*
X11921071Y-15498014D01*
X12506786Y-15183729D02*
X12249643Y-15569443D01*
X12892500Y-15198014D02*
X12921071Y-15198014D01*
X12949643Y-15212300D01*
X12963928Y-15226586D01*
X12978214Y-15255157D01*
X12992500Y-15312300D01*
X12992500Y-15383729D01*
X12978214Y-15440871D01*
X12963928Y-15469443D01*
X12949643Y-15483729D01*
X12921071Y-15498014D01*
X12892500Y-15498014D01*
X12863928Y-15483729D01*
X12849643Y-15469443D01*
X12835357Y-15440871D01*
X12821071Y-15383729D01*
X12821071Y-15312300D01*
X12835357Y-15255157D01*
X12849643Y-15226586D01*
X12863928Y-15212300D01*
X12892500Y-15198014D01*
X13121071Y-15469443D02*
X13135357Y-15483729D01*
X13121071Y-15498014D01*
X13106786Y-15483729D01*
X13121071Y-15469443D01*
X13121071Y-15498014D01*
X13421071Y-15498014D02*
X13249643Y-15498014D01*
X13335357Y-15498014D02*
X13335357Y-15198014D01*
X13306785Y-15240871D01*
X13278214Y-15269443D01*
X13249643Y-15283729D01*
X13692500Y-15198014D02*
X13549643Y-15198014D01*
X13535357Y-15340871D01*
X13549643Y-15326586D01*
X13578214Y-15312300D01*
X13649643Y-15312300D01*
X13678214Y-15326586D01*
X13692500Y-15340871D01*
X13706785Y-15369443D01*
X13706785Y-15440871D01*
X13692500Y-15469443D01*
X13678214Y-15483729D01*
X13649643Y-15498014D01*
X13578214Y-15498014D01*
X13549643Y-15483729D01*
X13535357Y-15469443D01*
X13892500Y-15198014D02*
X13921071Y-15198014D01*
X13949643Y-15212300D01*
X13963928Y-15226586D01*
X13978214Y-15255157D01*
X13992500Y-15312300D01*
X13992500Y-15383729D01*
X13978214Y-15440871D01*
X13963928Y-15469443D01*
X13949643Y-15483729D01*
X13921071Y-15498014D01*
X13892500Y-15498014D01*
X13863928Y-15483729D01*
X13849643Y-15469443D01*
X13835357Y-15440871D01*
X13821071Y-15383729D01*
X13821071Y-15312300D01*
X13835357Y-15255157D01*
X13849643Y-15226586D01*
X13863928Y-15212300D01*
X13892500Y-15198014D01*
X14106786Y-15198014D02*
X14106786Y-15255157D01*
X14221071Y-15198014D02*
X14221071Y-15255157D01*
X14663928Y-15612300D02*
X14649643Y-15598014D01*
X14621071Y-15555157D01*
X14606785Y-15526586D01*
X14592500Y-15483729D01*
X14578214Y-15412300D01*
X14578214Y-15355157D01*
X14592500Y-15283729D01*
X14606785Y-15240871D01*
X14621071Y-15212300D01*
X14649643Y-15169443D01*
X14663928Y-15155157D01*
X14935357Y-15498014D02*
X14763928Y-15498014D01*
X14849643Y-15498014D02*
X14849643Y-15198014D01*
X14821071Y-15240871D01*
X14792500Y-15269443D01*
X14763928Y-15283729D01*
X15292500Y-15498014D02*
X15292500Y-15198014D01*
X15421071Y-15498014D02*
X15421071Y-15340871D01*
X15406785Y-15312300D01*
X15378214Y-15298014D01*
X15335357Y-15298014D01*
X15306785Y-15312300D01*
X15292500Y-15326586D01*
X15606785Y-15498014D02*
X15578214Y-15483729D01*
X15563928Y-15469443D01*
X15549643Y-15440871D01*
X15549643Y-15355157D01*
X15563928Y-15326586D01*
X15578214Y-15312300D01*
X15606785Y-15298014D01*
X15649643Y-15298014D01*
X15678214Y-15312300D01*
X15692500Y-15326586D01*
X15706785Y-15355157D01*
X15706785Y-15440871D01*
X15692500Y-15469443D01*
X15678214Y-15483729D01*
X15649643Y-15498014D01*
X15606785Y-15498014D01*
X15878214Y-15498014D02*
X15849643Y-15483729D01*
X15835357Y-15455157D01*
X15835357Y-15198014D01*
X16106786Y-15483729D02*
X16078214Y-15498014D01*
X16021071Y-15498014D01*
X15992500Y-15483729D01*
X15978214Y-15455157D01*
X15978214Y-15340871D01*
X15992500Y-15312300D01*
X16021071Y-15298014D01*
X16078214Y-15298014D01*
X16106786Y-15312300D01*
X16121071Y-15340871D01*
X16121071Y-15369443D01*
X15978214Y-15398014D01*
X16221071Y-15612300D02*
X16235357Y-15598014D01*
X16263928Y-15555157D01*
X16278214Y-15526586D01*
X16292500Y-15483729D01*
X16306786Y-15412300D01*
X16306786Y-15355157D01*
X16292500Y-15283729D01*
X16278214Y-15240871D01*
X16263928Y-15212300D01*
X16235357Y-15169443D01*
X16221071Y-15155157D01*
M02*
