G04 #@! TF.FileFunction,Soldermask,Top*
%FSLAX46Y46*%
G04 Gerber Fmt 4.6, Leading zero omitted, Abs format (unit mm)*
G04 Created by KiCad (PCBNEW 4.0.5) date Thu Feb 16 15:30:16 2017*
%MOMM*%
%LPD*%
G01*
G04 APERTURE LIST*
%ADD10C,0.100000*%
%ADD11R,2.150000X2.150000*%
%ADD12C,2.150000*%
%ADD13O,2.099260X3.900120*%
%ADD14R,10.400000X16.150000*%
%ADD15C,1.924000*%
%ADD16C,3.400000*%
%ADD17C,3.100000*%
%ADD18R,4.000000X2.200000*%
%ADD19O,4.000000X2.200000*%
%ADD20C,2.398980*%
%ADD21R,2.398980X2.398980*%
%ADD22R,1.598880X1.598880*%
%ADD23R,2.432000X2.127200*%
%ADD24O,2.432000X2.127200*%
%ADD25R,1.900000X1.700000*%
%ADD26R,1.700000X1.900000*%
%ADD27R,2.200000X4.000000*%
%ADD28O,2.200000X4.000000*%
%ADD29C,4.464000*%
%ADD30R,1.000000X1.950000*%
%ADD31C,1.150000*%
%ADD32R,1.650000X1.900000*%
%ADD33R,1.310000X1.620000*%
%ADD34R,1.620000X1.310000*%
%ADD35R,2.127200X2.432000*%
%ADD36O,2.127200X2.432000*%
%ADD37R,2.000000X2.400000*%
%ADD38R,1.600000X1.000000*%
%ADD39R,1.000000X1.600000*%
G04 APERTURE END LIST*
D10*
D11*
X125050000Y-95175000D03*
D12*
X122550000Y-95175000D03*
X120050000Y-95175000D03*
X117550000Y-95175000D03*
D13*
X132550000Y-69636000D03*
X135090000Y-69636000D03*
X130010000Y-69636000D03*
D14*
X132550000Y-81550000D03*
D15*
X135550000Y-83136000D03*
X135550000Y-81136000D03*
X135550000Y-79136000D03*
X135550000Y-77136000D03*
X135550000Y-75136000D03*
X133550000Y-77136000D03*
X133550000Y-75136000D03*
X133550000Y-79136000D03*
X133550000Y-81136000D03*
X133550000Y-83136000D03*
X131550000Y-75136000D03*
X129550000Y-79136000D03*
X131550000Y-79136000D03*
X131550000Y-77136000D03*
X129550000Y-75136000D03*
X129550000Y-77136000D03*
X129550000Y-81136000D03*
X131550000Y-83136000D03*
X131550000Y-81136000D03*
X129550000Y-83136000D03*
X135550000Y-85136000D03*
X135550000Y-87636000D03*
X129550000Y-85136000D03*
X129550000Y-87636000D03*
D16*
X119250000Y-84750000D03*
X119250000Y-62250000D03*
D17*
X119250000Y-73500000D03*
D18*
X143650000Y-86250000D03*
D19*
X143650000Y-82750000D03*
D11*
X139775000Y-95175000D03*
D12*
X137275000Y-95175000D03*
X134775000Y-95175000D03*
X132275000Y-95175000D03*
D11*
X105200000Y-90000000D03*
D12*
X105200000Y-87500000D03*
X105200000Y-85000000D03*
X105200000Y-82500000D03*
X105200000Y-80000000D03*
D20*
X112007620Y-79910000D03*
D21*
X112007620Y-69750000D03*
D22*
X143450980Y-79150000D03*
X145549020Y-79150000D03*
X143401960Y-63000000D03*
X145500000Y-63000000D03*
D23*
X112000000Y-94620000D03*
D24*
X112000000Y-92080000D03*
X112000000Y-89540000D03*
X112000000Y-87000000D03*
X112000000Y-84460000D03*
D25*
X141900000Y-76750000D03*
X144600000Y-76750000D03*
X141900000Y-60500000D03*
X144600000Y-60500000D03*
D15*
X130790000Y-62000000D03*
X128250000Y-62000000D03*
X133330000Y-62000000D03*
D26*
X138500000Y-71350000D03*
X138500000Y-68650000D03*
D18*
X106000000Y-60000000D03*
D19*
X106000000Y-63500000D03*
D18*
X106000000Y-70000000D03*
D19*
X106000000Y-73500000D03*
D27*
X126000000Y-56000000D03*
D28*
X122500000Y-56000000D03*
X119000000Y-56000000D03*
X115500000Y-56000000D03*
D27*
X139250000Y-56000000D03*
D28*
X135750000Y-56000000D03*
D18*
X143650000Y-70250000D03*
D19*
X143650000Y-66750000D03*
D29*
X104000000Y-96000000D03*
X104000000Y-54000000D03*
X146000000Y-96000000D03*
X146000000Y-54000000D03*
D30*
X189055000Y-75800000D03*
X187785000Y-75800000D03*
X186515000Y-75800000D03*
X185245000Y-75800000D03*
X185245000Y-81200000D03*
X186515000Y-81200000D03*
X187785000Y-81200000D03*
X189055000Y-81200000D03*
D31*
X175550000Y-68800000D03*
X178950000Y-68800000D03*
X173650000Y-81000000D03*
X172650000Y-81000000D03*
D29*
X196150000Y-54000000D03*
X154150000Y-54000000D03*
X154150000Y-96000000D03*
X196150000Y-96000000D03*
D11*
X189810000Y-86780000D03*
D12*
X187310000Y-86780000D03*
X184810000Y-86780000D03*
X182310000Y-86780000D03*
D32*
X179810000Y-67030000D03*
X179810000Y-64530000D03*
D33*
X167325000Y-62280000D03*
X170595000Y-62280000D03*
X167340000Y-64780000D03*
X170610000Y-64780000D03*
D34*
X163660000Y-69145000D03*
X163660000Y-72415000D03*
D22*
X162859020Y-90780000D03*
X160760980Y-90780000D03*
X162810000Y-84780000D03*
X160711960Y-84780000D03*
X162810000Y-87780000D03*
X160711960Y-87780000D03*
D11*
X155310000Y-69780000D03*
D12*
X155310000Y-67280000D03*
X155310000Y-64780000D03*
X155310000Y-62280000D03*
X155310000Y-59780000D03*
D23*
X155310000Y-75240000D03*
D24*
X155310000Y-77780000D03*
X155310000Y-80320000D03*
D11*
X194810000Y-59780000D03*
D12*
X194810000Y-62280000D03*
X194810000Y-64780000D03*
X194810000Y-67280000D03*
X194810000Y-69780000D03*
D23*
X194810000Y-75240000D03*
D24*
X194810000Y-77780000D03*
X194810000Y-80320000D03*
D23*
X187810000Y-55240000D03*
D24*
X187810000Y-57780000D03*
X187810000Y-60320000D03*
X187810000Y-62860000D03*
X187810000Y-65400000D03*
X187810000Y-67940000D03*
D11*
X189810000Y-94780000D03*
D12*
X187310000Y-94780000D03*
X184810000Y-94780000D03*
X182310000Y-94780000D03*
D35*
X164270000Y-55280000D03*
D36*
X166810000Y-55280000D03*
X169350000Y-55280000D03*
D35*
X176770000Y-55280000D03*
D36*
X179310000Y-55280000D03*
X181850000Y-55280000D03*
D25*
X163660000Y-62280000D03*
X160960000Y-62280000D03*
X163660000Y-64780000D03*
X160960000Y-64780000D03*
X163660000Y-67280000D03*
X160960000Y-67280000D03*
X168160000Y-90780000D03*
X165460000Y-90780000D03*
X168160000Y-84780000D03*
X165460000Y-84780000D03*
X168160000Y-87780000D03*
X165460000Y-87780000D03*
D37*
X182810000Y-63080000D03*
X182810000Y-68480000D03*
D38*
X170900000Y-72200000D03*
X170900000Y-73000000D03*
X170900000Y-73800000D03*
X170900000Y-74600000D03*
X170900000Y-75400000D03*
X170900000Y-76200000D03*
X170900000Y-77000000D03*
X170900000Y-77800000D03*
D39*
X172350000Y-79250000D03*
X173150000Y-79250000D03*
X173950000Y-79250000D03*
X174750000Y-79250000D03*
X175550000Y-79250000D03*
X176350000Y-79250000D03*
X177150000Y-79250000D03*
X177950000Y-79250000D03*
D38*
X179400000Y-77800000D03*
X179400000Y-77000000D03*
X179400000Y-76200000D03*
X179400000Y-75400000D03*
X179400000Y-74600000D03*
X179400000Y-73800000D03*
X179400000Y-73000000D03*
X179400000Y-72200000D03*
D39*
X177950000Y-70750000D03*
X177150000Y-70750000D03*
X176350000Y-70750000D03*
X175550000Y-70750000D03*
X174750000Y-70750000D03*
X173950000Y-70750000D03*
X173150000Y-70750000D03*
X172350000Y-70750000D03*
D31*
X171650000Y-81000000D03*
M02*
