G04 #@! TF.FileFunction,Legend,Bot*
%FSLAX46Y46*%
G04 Gerber Fmt 4.6, Leading zero omitted, Abs format (unit mm)*
G04 Created by KiCad (PCBNEW 4.0.5) date Thu Feb 16 15:30:16 2017*
%MOMM*%
%LPD*%
G01*
G04 APERTURE LIST*
%ADD10C,0.100000*%
%ADD11C,0.175000*%
%ADD12C,0.300000*%
%ADD13C,0.150000*%
G04 APERTURE END LIST*
D10*
D11*
X137316663Y-59816667D02*
X137316663Y-59116667D01*
X137016663Y-59816667D02*
X137016663Y-59450000D01*
X137049997Y-59383333D01*
X137116663Y-59350000D01*
X137216663Y-59350000D01*
X137283330Y-59383333D01*
X137316663Y-59416667D01*
X136783330Y-59350000D02*
X136516664Y-59350000D01*
X136683330Y-59116667D02*
X136683330Y-59716667D01*
X136649997Y-59783333D01*
X136583330Y-59816667D01*
X136516664Y-59816667D01*
X136383330Y-59350000D02*
X136116664Y-59350000D01*
X136283330Y-59116667D02*
X136283330Y-59716667D01*
X136249997Y-59783333D01*
X136183330Y-59816667D01*
X136116664Y-59816667D01*
X135883330Y-59350000D02*
X135883330Y-60050000D01*
X135883330Y-59383333D02*
X135816664Y-59350000D01*
X135683330Y-59350000D01*
X135616664Y-59383333D01*
X135583330Y-59416667D01*
X135549997Y-59483333D01*
X135549997Y-59683333D01*
X135583330Y-59750000D01*
X135616664Y-59783333D01*
X135683330Y-59816667D01*
X135816664Y-59816667D01*
X135883330Y-59783333D01*
X135283331Y-59783333D02*
X135216664Y-59816667D01*
X135083331Y-59816667D01*
X135016664Y-59783333D01*
X134983331Y-59716667D01*
X134983331Y-59683333D01*
X135016664Y-59616667D01*
X135083331Y-59583333D01*
X135183331Y-59583333D01*
X135249997Y-59550000D01*
X135283331Y-59483333D01*
X135283331Y-59450000D01*
X135249997Y-59383333D01*
X135183331Y-59350000D01*
X135083331Y-59350000D01*
X135016664Y-59383333D01*
X134683330Y-59750000D02*
X134649997Y-59783333D01*
X134683330Y-59816667D01*
X134716664Y-59783333D01*
X134683330Y-59750000D01*
X134683330Y-59816667D01*
X134683330Y-59383333D02*
X134649997Y-59416667D01*
X134683330Y-59450000D01*
X134716664Y-59416667D01*
X134683330Y-59383333D01*
X134683330Y-59450000D01*
X133849997Y-59083333D02*
X134449997Y-59983333D01*
X133116664Y-59083333D02*
X133716664Y-59983333D01*
X132583331Y-59350000D02*
X132583331Y-59916667D01*
X132616665Y-59983333D01*
X132649998Y-60016667D01*
X132716665Y-60050000D01*
X132816665Y-60050000D01*
X132883331Y-60016667D01*
X132583331Y-59783333D02*
X132649998Y-59816667D01*
X132783331Y-59816667D01*
X132849998Y-59783333D01*
X132883331Y-59750000D01*
X132916665Y-59683333D01*
X132916665Y-59483333D01*
X132883331Y-59416667D01*
X132849998Y-59383333D01*
X132783331Y-59350000D01*
X132649998Y-59350000D01*
X132583331Y-59383333D01*
X132249998Y-59816667D02*
X132249998Y-59350000D01*
X132249998Y-59116667D02*
X132283332Y-59150000D01*
X132249998Y-59183333D01*
X132216665Y-59150000D01*
X132249998Y-59116667D01*
X132249998Y-59183333D01*
X132016665Y-59350000D02*
X131749999Y-59350000D01*
X131916665Y-59116667D02*
X131916665Y-59716667D01*
X131883332Y-59783333D01*
X131816665Y-59816667D01*
X131749999Y-59816667D01*
X131516665Y-59816667D02*
X131516665Y-59116667D01*
X131216665Y-59816667D02*
X131216665Y-59450000D01*
X131249999Y-59383333D01*
X131316665Y-59350000D01*
X131416665Y-59350000D01*
X131483332Y-59383333D01*
X131516665Y-59416667D01*
X130583332Y-59350000D02*
X130583332Y-59816667D01*
X130883332Y-59350000D02*
X130883332Y-59716667D01*
X130849999Y-59783333D01*
X130783332Y-59816667D01*
X130683332Y-59816667D01*
X130616666Y-59783333D01*
X130583332Y-59750000D01*
X130249999Y-59816667D02*
X130249999Y-59116667D01*
X130249999Y-59383333D02*
X130183333Y-59350000D01*
X130049999Y-59350000D01*
X129983333Y-59383333D01*
X129949999Y-59416667D01*
X129916666Y-59483333D01*
X129916666Y-59683333D01*
X129949999Y-59750000D01*
X129983333Y-59783333D01*
X130049999Y-59816667D01*
X130183333Y-59816667D01*
X130249999Y-59783333D01*
X129616666Y-59750000D02*
X129583333Y-59783333D01*
X129616666Y-59816667D01*
X129650000Y-59783333D01*
X129616666Y-59750000D01*
X129616666Y-59816667D01*
X128983333Y-59783333D02*
X129050000Y-59816667D01*
X129183333Y-59816667D01*
X129250000Y-59783333D01*
X129283333Y-59750000D01*
X129316667Y-59683333D01*
X129316667Y-59483333D01*
X129283333Y-59416667D01*
X129250000Y-59383333D01*
X129183333Y-59350000D01*
X129050000Y-59350000D01*
X128983333Y-59383333D01*
X128583333Y-59816667D02*
X128650000Y-59783333D01*
X128683333Y-59750000D01*
X128716667Y-59683333D01*
X128716667Y-59483333D01*
X128683333Y-59416667D01*
X128650000Y-59383333D01*
X128583333Y-59350000D01*
X128483333Y-59350000D01*
X128416667Y-59383333D01*
X128383333Y-59416667D01*
X128350000Y-59483333D01*
X128350000Y-59683333D01*
X128383333Y-59750000D01*
X128416667Y-59783333D01*
X128483333Y-59816667D01*
X128583333Y-59816667D01*
X128050000Y-59816667D02*
X128050000Y-59350000D01*
X128050000Y-59416667D02*
X128016667Y-59383333D01*
X127950000Y-59350000D01*
X127850000Y-59350000D01*
X127783334Y-59383333D01*
X127750000Y-59450000D01*
X127750000Y-59816667D01*
X127750000Y-59450000D02*
X127716667Y-59383333D01*
X127650000Y-59350000D01*
X127550000Y-59350000D01*
X127483334Y-59383333D01*
X127450000Y-59450000D01*
X127450000Y-59816667D01*
X126616667Y-59083333D02*
X127216667Y-59983333D01*
X126383334Y-59816667D02*
X126383334Y-59116667D01*
X126116668Y-59116667D01*
X126050001Y-59150000D01*
X126016668Y-59183333D01*
X125983334Y-59250000D01*
X125983334Y-59350000D01*
X126016668Y-59416667D01*
X126050001Y-59450000D01*
X126116668Y-59483333D01*
X126383334Y-59483333D01*
X125683334Y-59816667D02*
X125683334Y-59116667D01*
X125383334Y-59816667D02*
X125383334Y-59450000D01*
X125416668Y-59383333D01*
X125483334Y-59350000D01*
X125583334Y-59350000D01*
X125650001Y-59383333D01*
X125683334Y-59416667D01*
X124950001Y-59816667D02*
X125016668Y-59783333D01*
X125050001Y-59750000D01*
X125083335Y-59683333D01*
X125083335Y-59483333D01*
X125050001Y-59416667D01*
X125016668Y-59383333D01*
X124950001Y-59350000D01*
X124850001Y-59350000D01*
X124783335Y-59383333D01*
X124750001Y-59416667D01*
X124716668Y-59483333D01*
X124716668Y-59683333D01*
X124750001Y-59750000D01*
X124783335Y-59783333D01*
X124850001Y-59816667D01*
X124950001Y-59816667D01*
X124150002Y-59783333D02*
X124216668Y-59816667D01*
X124350002Y-59816667D01*
X124416668Y-59783333D01*
X124450002Y-59716667D01*
X124450002Y-59450000D01*
X124416668Y-59383333D01*
X124350002Y-59350000D01*
X124216668Y-59350000D01*
X124150002Y-59383333D01*
X124116668Y-59450000D01*
X124116668Y-59516667D01*
X124450002Y-59583333D01*
X123816668Y-59350000D02*
X123816668Y-59816667D01*
X123816668Y-59416667D02*
X123783335Y-59383333D01*
X123716668Y-59350000D01*
X123616668Y-59350000D01*
X123550002Y-59383333D01*
X123516668Y-59450000D01*
X123516668Y-59816667D01*
X123183335Y-59816667D02*
X123183335Y-59350000D01*
X123183335Y-59116667D02*
X123216669Y-59150000D01*
X123183335Y-59183333D01*
X123150002Y-59150000D01*
X123183335Y-59116667D01*
X123183335Y-59183333D01*
X122916669Y-59816667D02*
X122550002Y-59350000D01*
X122916669Y-59350000D02*
X122550002Y-59816667D01*
X121883335Y-59816667D02*
X122116669Y-59483333D01*
X122283335Y-59816667D02*
X122283335Y-59116667D01*
X122016669Y-59116667D01*
X121950002Y-59150000D01*
X121916669Y-59183333D01*
X121883335Y-59250000D01*
X121883335Y-59350000D01*
X121916669Y-59416667D01*
X121950002Y-59450000D01*
X122016669Y-59483333D01*
X122283335Y-59483333D01*
X121483335Y-59816667D02*
X121550002Y-59783333D01*
X121583335Y-59750000D01*
X121616669Y-59683333D01*
X121616669Y-59483333D01*
X121583335Y-59416667D01*
X121550002Y-59383333D01*
X121483335Y-59350000D01*
X121383335Y-59350000D01*
X121316669Y-59383333D01*
X121283335Y-59416667D01*
X121250002Y-59483333D01*
X121250002Y-59683333D01*
X121283335Y-59750000D01*
X121316669Y-59783333D01*
X121383335Y-59816667D01*
X121483335Y-59816667D01*
X120950002Y-59816667D02*
X120950002Y-59116667D01*
X120950002Y-59383333D02*
X120883336Y-59350000D01*
X120750002Y-59350000D01*
X120683336Y-59383333D01*
X120650002Y-59416667D01*
X120616669Y-59483333D01*
X120616669Y-59683333D01*
X120650002Y-59750000D01*
X120683336Y-59783333D01*
X120750002Y-59816667D01*
X120883336Y-59816667D01*
X120950002Y-59783333D01*
X120216669Y-59816667D02*
X120283336Y-59783333D01*
X120316669Y-59750000D01*
X120350003Y-59683333D01*
X120350003Y-59483333D01*
X120316669Y-59416667D01*
X120283336Y-59383333D01*
X120216669Y-59350000D01*
X120116669Y-59350000D01*
X120050003Y-59383333D01*
X120016669Y-59416667D01*
X119983336Y-59483333D01*
X119983336Y-59683333D01*
X120016669Y-59750000D01*
X120050003Y-59783333D01*
X120116669Y-59816667D01*
X120216669Y-59816667D01*
X119783336Y-59350000D02*
X119516670Y-59350000D01*
X119683336Y-59116667D02*
X119683336Y-59716667D01*
X119650003Y-59783333D01*
X119583336Y-59816667D01*
X119516670Y-59816667D01*
X119283336Y-59816667D02*
X119283336Y-59350000D01*
X119283336Y-59116667D02*
X119316670Y-59150000D01*
X119283336Y-59183333D01*
X119250003Y-59150000D01*
X119283336Y-59116667D01*
X119283336Y-59183333D01*
X118950003Y-59816667D02*
X118950003Y-59116667D01*
X118883337Y-59550000D02*
X118683337Y-59816667D01*
X118683337Y-59350000D02*
X118950003Y-59616667D01*
X117883336Y-59083333D02*
X118483336Y-59983333D01*
X117350003Y-59816667D02*
X117350003Y-59450000D01*
X117383337Y-59383333D01*
X117450003Y-59350000D01*
X117583337Y-59350000D01*
X117650003Y-59383333D01*
X117350003Y-59783333D02*
X117416670Y-59816667D01*
X117583337Y-59816667D01*
X117650003Y-59783333D01*
X117683337Y-59716667D01*
X117683337Y-59650000D01*
X117650003Y-59583333D01*
X117583337Y-59550000D01*
X117416670Y-59550000D01*
X117350003Y-59516667D01*
X116916670Y-59816667D02*
X116983337Y-59783333D01*
X117016670Y-59716667D01*
X117016670Y-59116667D01*
X116650003Y-59816667D02*
X116650003Y-59350000D01*
X116650003Y-59116667D02*
X116683337Y-59150000D01*
X116650003Y-59183333D01*
X116616670Y-59150000D01*
X116650003Y-59116667D01*
X116650003Y-59183333D01*
X116316670Y-59816667D02*
X116316670Y-59350000D01*
X116316670Y-59416667D02*
X116283337Y-59383333D01*
X116216670Y-59350000D01*
X116116670Y-59350000D01*
X116050004Y-59383333D01*
X116016670Y-59450000D01*
X116016670Y-59816667D01*
X116016670Y-59450000D02*
X115983337Y-59383333D01*
X115916670Y-59350000D01*
X115816670Y-59350000D01*
X115750004Y-59383333D01*
X115716670Y-59450000D01*
X115716670Y-59816667D01*
X115383337Y-59550000D02*
X114850004Y-59550000D01*
X114250004Y-59783333D02*
X114316670Y-59816667D01*
X114450004Y-59816667D01*
X114516670Y-59783333D01*
X114550004Y-59716667D01*
X114550004Y-59450000D01*
X114516670Y-59383333D01*
X114450004Y-59350000D01*
X114316670Y-59350000D01*
X114250004Y-59383333D01*
X114216670Y-59450000D01*
X114216670Y-59516667D01*
X114550004Y-59583333D01*
X113816670Y-59816667D02*
X113883337Y-59783333D01*
X113916670Y-59716667D01*
X113916670Y-59116667D01*
X113283337Y-59783333D02*
X113350003Y-59816667D01*
X113483337Y-59816667D01*
X113550003Y-59783333D01*
X113583337Y-59716667D01*
X113583337Y-59450000D01*
X113550003Y-59383333D01*
X113483337Y-59350000D01*
X113350003Y-59350000D01*
X113283337Y-59383333D01*
X113250003Y-59450000D01*
X113250003Y-59516667D01*
X113583337Y-59583333D01*
X112650003Y-59783333D02*
X112716670Y-59816667D01*
X112850003Y-59816667D01*
X112916670Y-59783333D01*
X112950003Y-59750000D01*
X112983337Y-59683333D01*
X112983337Y-59483333D01*
X112950003Y-59416667D01*
X112916670Y-59383333D01*
X112850003Y-59350000D01*
X112716670Y-59350000D01*
X112650003Y-59383333D01*
D12*
X143892857Y-52428571D02*
X143892857Y-50928571D01*
X143321429Y-50928571D01*
X143178571Y-51000000D01*
X143107143Y-51071429D01*
X143035714Y-51214286D01*
X143035714Y-51428571D01*
X143107143Y-51571429D01*
X143178571Y-51642857D01*
X143321429Y-51714286D01*
X143892857Y-51714286D01*
X142392857Y-52428571D02*
X142392857Y-50928571D01*
X141750000Y-52428571D02*
X141750000Y-51642857D01*
X141821429Y-51500000D01*
X141964286Y-51428571D01*
X142178571Y-51428571D01*
X142321429Y-51500000D01*
X142392857Y-51571429D01*
X140821428Y-52428571D02*
X140964286Y-52357143D01*
X141035714Y-52285714D01*
X141107143Y-52142857D01*
X141107143Y-51714286D01*
X141035714Y-51571429D01*
X140964286Y-51500000D01*
X140821428Y-51428571D01*
X140607143Y-51428571D01*
X140464286Y-51500000D01*
X140392857Y-51571429D01*
X140321428Y-51714286D01*
X140321428Y-52142857D01*
X140392857Y-52285714D01*
X140464286Y-52357143D01*
X140607143Y-52428571D01*
X140821428Y-52428571D01*
X139107143Y-52357143D02*
X139250000Y-52428571D01*
X139535714Y-52428571D01*
X139678571Y-52357143D01*
X139750000Y-52214286D01*
X139750000Y-51642857D01*
X139678571Y-51500000D01*
X139535714Y-51428571D01*
X139250000Y-51428571D01*
X139107143Y-51500000D01*
X139035714Y-51642857D01*
X139035714Y-51785714D01*
X139750000Y-51928571D01*
X138392857Y-51428571D02*
X138392857Y-52428571D01*
X138392857Y-51571429D02*
X138321429Y-51500000D01*
X138178571Y-51428571D01*
X137964286Y-51428571D01*
X137821429Y-51500000D01*
X137750000Y-51642857D01*
X137750000Y-52428571D01*
X137035714Y-52428571D02*
X137035714Y-51428571D01*
X137035714Y-50928571D02*
X137107143Y-51000000D01*
X137035714Y-51071429D01*
X136964286Y-51000000D01*
X137035714Y-50928571D01*
X137035714Y-51071429D01*
X136464285Y-52428571D02*
X135678571Y-51428571D01*
X136464285Y-51428571D02*
X135678571Y-52428571D01*
X133107142Y-52428571D02*
X133607142Y-51714286D01*
X133964285Y-52428571D02*
X133964285Y-50928571D01*
X133392857Y-50928571D01*
X133249999Y-51000000D01*
X133178571Y-51071429D01*
X133107142Y-51214286D01*
X133107142Y-51428571D01*
X133178571Y-51571429D01*
X133249999Y-51642857D01*
X133392857Y-51714286D01*
X133964285Y-51714286D01*
X132249999Y-52428571D02*
X132392857Y-52357143D01*
X132464285Y-52285714D01*
X132535714Y-52142857D01*
X132535714Y-51714286D01*
X132464285Y-51571429D01*
X132392857Y-51500000D01*
X132249999Y-51428571D01*
X132035714Y-51428571D01*
X131892857Y-51500000D01*
X131821428Y-51571429D01*
X131749999Y-51714286D01*
X131749999Y-52142857D01*
X131821428Y-52285714D01*
X131892857Y-52357143D01*
X132035714Y-52428571D01*
X132249999Y-52428571D01*
X131107142Y-52428571D02*
X131107142Y-50928571D01*
X131107142Y-51500000D02*
X130964285Y-51428571D01*
X130678571Y-51428571D01*
X130535714Y-51500000D01*
X130464285Y-51571429D01*
X130392856Y-51714286D01*
X130392856Y-52142857D01*
X130464285Y-52285714D01*
X130535714Y-52357143D01*
X130678571Y-52428571D01*
X130964285Y-52428571D01*
X131107142Y-52357143D01*
X129535713Y-52428571D02*
X129678571Y-52357143D01*
X129749999Y-52285714D01*
X129821428Y-52142857D01*
X129821428Y-51714286D01*
X129749999Y-51571429D01*
X129678571Y-51500000D01*
X129535713Y-51428571D01*
X129321428Y-51428571D01*
X129178571Y-51500000D01*
X129107142Y-51571429D01*
X129035713Y-51714286D01*
X129035713Y-52142857D01*
X129107142Y-52285714D01*
X129178571Y-52357143D01*
X129321428Y-52428571D01*
X129535713Y-52428571D01*
X128607142Y-51428571D02*
X128035713Y-51428571D01*
X128392856Y-50928571D02*
X128392856Y-52214286D01*
X128321428Y-52357143D01*
X128178570Y-52428571D01*
X128035713Y-52428571D01*
X127535713Y-52428571D02*
X127535713Y-51428571D01*
X127535713Y-50928571D02*
X127607142Y-51000000D01*
X127535713Y-51071429D01*
X127464285Y-51000000D01*
X127535713Y-50928571D01*
X127535713Y-51071429D01*
X126821427Y-52428571D02*
X126821427Y-50928571D01*
X126678570Y-51857143D02*
X126249999Y-52428571D01*
X126249999Y-51428571D02*
X126821427Y-52000000D01*
X124464284Y-51857143D02*
X123321427Y-51857143D01*
X120607141Y-52285714D02*
X120678570Y-52357143D01*
X120892856Y-52428571D01*
X121035713Y-52428571D01*
X121249998Y-52357143D01*
X121392856Y-52214286D01*
X121464284Y-52071429D01*
X121535713Y-51785714D01*
X121535713Y-51571429D01*
X121464284Y-51285714D01*
X121392856Y-51142857D01*
X121249998Y-51000000D01*
X121035713Y-50928571D01*
X120892856Y-50928571D01*
X120678570Y-51000000D01*
X120607141Y-51071429D01*
X119321427Y-52428571D02*
X119321427Y-51642857D01*
X119392856Y-51500000D01*
X119535713Y-51428571D01*
X119821427Y-51428571D01*
X119964284Y-51500000D01*
X119321427Y-52357143D02*
X119464284Y-52428571D01*
X119821427Y-52428571D01*
X119964284Y-52357143D01*
X120035713Y-52214286D01*
X120035713Y-52071429D01*
X119964284Y-51928571D01*
X119821427Y-51857143D01*
X119464284Y-51857143D01*
X119321427Y-51785714D01*
X118607141Y-52428571D02*
X118607141Y-51428571D01*
X118607141Y-51714286D02*
X118535713Y-51571429D01*
X118464284Y-51500000D01*
X118321427Y-51428571D01*
X118178570Y-51428571D01*
X117892856Y-51428571D02*
X117321427Y-51428571D01*
X117678570Y-50928571D02*
X117678570Y-52214286D01*
X117607142Y-52357143D01*
X117464284Y-52428571D01*
X117321427Y-52428571D01*
X116249999Y-52357143D02*
X116392856Y-52428571D01*
X116678570Y-52428571D01*
X116821427Y-52357143D01*
X116892856Y-52214286D01*
X116892856Y-51642857D01*
X116821427Y-51500000D01*
X116678570Y-51428571D01*
X116392856Y-51428571D01*
X116249999Y-51500000D01*
X116178570Y-51642857D01*
X116178570Y-51785714D01*
X116892856Y-51928571D01*
X114464285Y-52000000D02*
X113749999Y-52000000D01*
X114607142Y-52428571D02*
X114107142Y-50928571D01*
X113607142Y-52428571D01*
X112892856Y-52428571D02*
X113035714Y-52357143D01*
X113107142Y-52214286D01*
X113107142Y-50928571D01*
X112321428Y-52428571D02*
X112321428Y-51428571D01*
X112321428Y-50928571D02*
X112392857Y-51000000D01*
X112321428Y-51071429D01*
X112250000Y-51000000D01*
X112321428Y-50928571D01*
X112321428Y-51071429D01*
X111607142Y-52428571D02*
X111607142Y-51428571D01*
X111607142Y-51571429D02*
X111535714Y-51500000D01*
X111392856Y-51428571D01*
X111178571Y-51428571D01*
X111035714Y-51500000D01*
X110964285Y-51642857D01*
X110964285Y-52428571D01*
X110964285Y-51642857D02*
X110892856Y-51500000D01*
X110749999Y-51428571D01*
X110535714Y-51428571D01*
X110392856Y-51500000D01*
X110321428Y-51642857D01*
X110321428Y-52428571D01*
X108392857Y-50928571D02*
X108535714Y-51214286D01*
X106964285Y-52428571D02*
X107821428Y-52428571D01*
X107392856Y-52428571D02*
X107392856Y-50928571D01*
X107535713Y-51142857D01*
X107678571Y-51285714D01*
X107821428Y-51357143D01*
X106464285Y-50928571D02*
X105464285Y-50928571D01*
X106107142Y-52428571D01*
D11*
X180316663Y-98816667D02*
X180316663Y-98116667D01*
X180016663Y-98816667D02*
X180016663Y-98450000D01*
X180049997Y-98383333D01*
X180116663Y-98350000D01*
X180216663Y-98350000D01*
X180283330Y-98383333D01*
X180316663Y-98416667D01*
X179783330Y-98350000D02*
X179516664Y-98350000D01*
X179683330Y-98116667D02*
X179683330Y-98716667D01*
X179649997Y-98783333D01*
X179583330Y-98816667D01*
X179516664Y-98816667D01*
X179383330Y-98350000D02*
X179116664Y-98350000D01*
X179283330Y-98116667D02*
X179283330Y-98716667D01*
X179249997Y-98783333D01*
X179183330Y-98816667D01*
X179116664Y-98816667D01*
X178883330Y-98350000D02*
X178883330Y-99050000D01*
X178883330Y-98383333D02*
X178816664Y-98350000D01*
X178683330Y-98350000D01*
X178616664Y-98383333D01*
X178583330Y-98416667D01*
X178549997Y-98483333D01*
X178549997Y-98683333D01*
X178583330Y-98750000D01*
X178616664Y-98783333D01*
X178683330Y-98816667D01*
X178816664Y-98816667D01*
X178883330Y-98783333D01*
X178283331Y-98783333D02*
X178216664Y-98816667D01*
X178083331Y-98816667D01*
X178016664Y-98783333D01*
X177983331Y-98716667D01*
X177983331Y-98683333D01*
X178016664Y-98616667D01*
X178083331Y-98583333D01*
X178183331Y-98583333D01*
X178249997Y-98550000D01*
X178283331Y-98483333D01*
X178283331Y-98450000D01*
X178249997Y-98383333D01*
X178183331Y-98350000D01*
X178083331Y-98350000D01*
X178016664Y-98383333D01*
X177683330Y-98750000D02*
X177649997Y-98783333D01*
X177683330Y-98816667D01*
X177716664Y-98783333D01*
X177683330Y-98750000D01*
X177683330Y-98816667D01*
X177683330Y-98383333D02*
X177649997Y-98416667D01*
X177683330Y-98450000D01*
X177716664Y-98416667D01*
X177683330Y-98383333D01*
X177683330Y-98450000D01*
X176849997Y-98083333D02*
X177449997Y-98983333D01*
X176116664Y-98083333D02*
X176716664Y-98983333D01*
X175583331Y-98350000D02*
X175583331Y-98916667D01*
X175616665Y-98983333D01*
X175649998Y-99016667D01*
X175716665Y-99050000D01*
X175816665Y-99050000D01*
X175883331Y-99016667D01*
X175583331Y-98783333D02*
X175649998Y-98816667D01*
X175783331Y-98816667D01*
X175849998Y-98783333D01*
X175883331Y-98750000D01*
X175916665Y-98683333D01*
X175916665Y-98483333D01*
X175883331Y-98416667D01*
X175849998Y-98383333D01*
X175783331Y-98350000D01*
X175649998Y-98350000D01*
X175583331Y-98383333D01*
X175249998Y-98816667D02*
X175249998Y-98350000D01*
X175249998Y-98116667D02*
X175283332Y-98150000D01*
X175249998Y-98183333D01*
X175216665Y-98150000D01*
X175249998Y-98116667D01*
X175249998Y-98183333D01*
X175016665Y-98350000D02*
X174749999Y-98350000D01*
X174916665Y-98116667D02*
X174916665Y-98716667D01*
X174883332Y-98783333D01*
X174816665Y-98816667D01*
X174749999Y-98816667D01*
X174516665Y-98816667D02*
X174516665Y-98116667D01*
X174216665Y-98816667D02*
X174216665Y-98450000D01*
X174249999Y-98383333D01*
X174316665Y-98350000D01*
X174416665Y-98350000D01*
X174483332Y-98383333D01*
X174516665Y-98416667D01*
X173583332Y-98350000D02*
X173583332Y-98816667D01*
X173883332Y-98350000D02*
X173883332Y-98716667D01*
X173849999Y-98783333D01*
X173783332Y-98816667D01*
X173683332Y-98816667D01*
X173616666Y-98783333D01*
X173583332Y-98750000D01*
X173249999Y-98816667D02*
X173249999Y-98116667D01*
X173249999Y-98383333D02*
X173183333Y-98350000D01*
X173049999Y-98350000D01*
X172983333Y-98383333D01*
X172949999Y-98416667D01*
X172916666Y-98483333D01*
X172916666Y-98683333D01*
X172949999Y-98750000D01*
X172983333Y-98783333D01*
X173049999Y-98816667D01*
X173183333Y-98816667D01*
X173249999Y-98783333D01*
X172616666Y-98750000D02*
X172583333Y-98783333D01*
X172616666Y-98816667D01*
X172650000Y-98783333D01*
X172616666Y-98750000D01*
X172616666Y-98816667D01*
X171983333Y-98783333D02*
X172050000Y-98816667D01*
X172183333Y-98816667D01*
X172250000Y-98783333D01*
X172283333Y-98750000D01*
X172316667Y-98683333D01*
X172316667Y-98483333D01*
X172283333Y-98416667D01*
X172250000Y-98383333D01*
X172183333Y-98350000D01*
X172050000Y-98350000D01*
X171983333Y-98383333D01*
X171583333Y-98816667D02*
X171650000Y-98783333D01*
X171683333Y-98750000D01*
X171716667Y-98683333D01*
X171716667Y-98483333D01*
X171683333Y-98416667D01*
X171650000Y-98383333D01*
X171583333Y-98350000D01*
X171483333Y-98350000D01*
X171416667Y-98383333D01*
X171383333Y-98416667D01*
X171350000Y-98483333D01*
X171350000Y-98683333D01*
X171383333Y-98750000D01*
X171416667Y-98783333D01*
X171483333Y-98816667D01*
X171583333Y-98816667D01*
X171050000Y-98816667D02*
X171050000Y-98350000D01*
X171050000Y-98416667D02*
X171016667Y-98383333D01*
X170950000Y-98350000D01*
X170850000Y-98350000D01*
X170783334Y-98383333D01*
X170750000Y-98450000D01*
X170750000Y-98816667D01*
X170750000Y-98450000D02*
X170716667Y-98383333D01*
X170650000Y-98350000D01*
X170550000Y-98350000D01*
X170483334Y-98383333D01*
X170450000Y-98450000D01*
X170450000Y-98816667D01*
X169616667Y-98083333D02*
X170216667Y-98983333D01*
X169383334Y-98816667D02*
X169383334Y-98116667D01*
X169116668Y-98116667D01*
X169050001Y-98150000D01*
X169016668Y-98183333D01*
X168983334Y-98250000D01*
X168983334Y-98350000D01*
X169016668Y-98416667D01*
X169050001Y-98450000D01*
X169116668Y-98483333D01*
X169383334Y-98483333D01*
X168683334Y-98816667D02*
X168683334Y-98116667D01*
X168383334Y-98816667D02*
X168383334Y-98450000D01*
X168416668Y-98383333D01*
X168483334Y-98350000D01*
X168583334Y-98350000D01*
X168650001Y-98383333D01*
X168683334Y-98416667D01*
X167950001Y-98816667D02*
X168016668Y-98783333D01*
X168050001Y-98750000D01*
X168083335Y-98683333D01*
X168083335Y-98483333D01*
X168050001Y-98416667D01*
X168016668Y-98383333D01*
X167950001Y-98350000D01*
X167850001Y-98350000D01*
X167783335Y-98383333D01*
X167750001Y-98416667D01*
X167716668Y-98483333D01*
X167716668Y-98683333D01*
X167750001Y-98750000D01*
X167783335Y-98783333D01*
X167850001Y-98816667D01*
X167950001Y-98816667D01*
X167150002Y-98783333D02*
X167216668Y-98816667D01*
X167350002Y-98816667D01*
X167416668Y-98783333D01*
X167450002Y-98716667D01*
X167450002Y-98450000D01*
X167416668Y-98383333D01*
X167350002Y-98350000D01*
X167216668Y-98350000D01*
X167150002Y-98383333D01*
X167116668Y-98450000D01*
X167116668Y-98516667D01*
X167450002Y-98583333D01*
X166816668Y-98350000D02*
X166816668Y-98816667D01*
X166816668Y-98416667D02*
X166783335Y-98383333D01*
X166716668Y-98350000D01*
X166616668Y-98350000D01*
X166550002Y-98383333D01*
X166516668Y-98450000D01*
X166516668Y-98816667D01*
X166183335Y-98816667D02*
X166183335Y-98350000D01*
X166183335Y-98116667D02*
X166216669Y-98150000D01*
X166183335Y-98183333D01*
X166150002Y-98150000D01*
X166183335Y-98116667D01*
X166183335Y-98183333D01*
X165916669Y-98816667D02*
X165550002Y-98350000D01*
X165916669Y-98350000D02*
X165550002Y-98816667D01*
X164883335Y-98816667D02*
X165116669Y-98483333D01*
X165283335Y-98816667D02*
X165283335Y-98116667D01*
X165016669Y-98116667D01*
X164950002Y-98150000D01*
X164916669Y-98183333D01*
X164883335Y-98250000D01*
X164883335Y-98350000D01*
X164916669Y-98416667D01*
X164950002Y-98450000D01*
X165016669Y-98483333D01*
X165283335Y-98483333D01*
X164483335Y-98816667D02*
X164550002Y-98783333D01*
X164583335Y-98750000D01*
X164616669Y-98683333D01*
X164616669Y-98483333D01*
X164583335Y-98416667D01*
X164550002Y-98383333D01*
X164483335Y-98350000D01*
X164383335Y-98350000D01*
X164316669Y-98383333D01*
X164283335Y-98416667D01*
X164250002Y-98483333D01*
X164250002Y-98683333D01*
X164283335Y-98750000D01*
X164316669Y-98783333D01*
X164383335Y-98816667D01*
X164483335Y-98816667D01*
X163950002Y-98816667D02*
X163950002Y-98116667D01*
X163950002Y-98383333D02*
X163883336Y-98350000D01*
X163750002Y-98350000D01*
X163683336Y-98383333D01*
X163650002Y-98416667D01*
X163616669Y-98483333D01*
X163616669Y-98683333D01*
X163650002Y-98750000D01*
X163683336Y-98783333D01*
X163750002Y-98816667D01*
X163883336Y-98816667D01*
X163950002Y-98783333D01*
X163216669Y-98816667D02*
X163283336Y-98783333D01*
X163316669Y-98750000D01*
X163350003Y-98683333D01*
X163350003Y-98483333D01*
X163316669Y-98416667D01*
X163283336Y-98383333D01*
X163216669Y-98350000D01*
X163116669Y-98350000D01*
X163050003Y-98383333D01*
X163016669Y-98416667D01*
X162983336Y-98483333D01*
X162983336Y-98683333D01*
X163016669Y-98750000D01*
X163050003Y-98783333D01*
X163116669Y-98816667D01*
X163216669Y-98816667D01*
X162783336Y-98350000D02*
X162516670Y-98350000D01*
X162683336Y-98116667D02*
X162683336Y-98716667D01*
X162650003Y-98783333D01*
X162583336Y-98816667D01*
X162516670Y-98816667D01*
X162283336Y-98816667D02*
X162283336Y-98350000D01*
X162283336Y-98116667D02*
X162316670Y-98150000D01*
X162283336Y-98183333D01*
X162250003Y-98150000D01*
X162283336Y-98116667D01*
X162283336Y-98183333D01*
X161950003Y-98816667D02*
X161950003Y-98116667D01*
X161883337Y-98550000D02*
X161683337Y-98816667D01*
X161683337Y-98350000D02*
X161950003Y-98616667D01*
X160883336Y-98083333D02*
X161483336Y-98983333D01*
X160650003Y-98816667D02*
X160650003Y-98116667D01*
X160583337Y-98550000D02*
X160383337Y-98816667D01*
X160383337Y-98350000D02*
X160650003Y-98616667D01*
X160083336Y-98816667D02*
X160083336Y-98350000D01*
X160083336Y-98116667D02*
X160116670Y-98150000D01*
X160083336Y-98183333D01*
X160050003Y-98150000D01*
X160083336Y-98116667D01*
X160083336Y-98183333D01*
X159816670Y-98350000D02*
X159683337Y-98816667D01*
X159550003Y-98483333D01*
X159416670Y-98816667D01*
X159283337Y-98350000D01*
X159016670Y-98816667D02*
X159016670Y-98350000D01*
X159016670Y-98116667D02*
X159050004Y-98150000D01*
X159016670Y-98183333D01*
X158983337Y-98150000D01*
X159016670Y-98116667D01*
X159016670Y-98183333D01*
X158683337Y-98550000D02*
X158150004Y-98550000D01*
X157550004Y-98783333D02*
X157616670Y-98816667D01*
X157750004Y-98816667D01*
X157816670Y-98783333D01*
X157850004Y-98716667D01*
X157850004Y-98450000D01*
X157816670Y-98383333D01*
X157750004Y-98350000D01*
X157616670Y-98350000D01*
X157550004Y-98383333D01*
X157516670Y-98450000D01*
X157516670Y-98516667D01*
X157850004Y-98583333D01*
X157116670Y-98816667D02*
X157183337Y-98783333D01*
X157216670Y-98716667D01*
X157216670Y-98116667D01*
X156583337Y-98783333D02*
X156650003Y-98816667D01*
X156783337Y-98816667D01*
X156850003Y-98783333D01*
X156883337Y-98716667D01*
X156883337Y-98450000D01*
X156850003Y-98383333D01*
X156783337Y-98350000D01*
X156650003Y-98350000D01*
X156583337Y-98383333D01*
X156550003Y-98450000D01*
X156550003Y-98516667D01*
X156883337Y-98583333D01*
X155950003Y-98783333D02*
X156016670Y-98816667D01*
X156150003Y-98816667D01*
X156216670Y-98783333D01*
X156250003Y-98750000D01*
X156283337Y-98683333D01*
X156283337Y-98483333D01*
X156250003Y-98416667D01*
X156216670Y-98383333D01*
X156150003Y-98350000D01*
X156016670Y-98350000D01*
X155950003Y-98383333D01*
D13*
X143400000Y-76475000D02*
X144600000Y-76475000D01*
X144600000Y-74725000D02*
X143400000Y-74725000D01*
X141250000Y-67650000D02*
X141250000Y-70350000D01*
X139750000Y-67650000D02*
X139750000Y-70350000D01*
X140650000Y-69150000D02*
X140400000Y-69150000D01*
X140400000Y-69150000D02*
X140550000Y-69000000D01*
X140150000Y-68900000D02*
X140850000Y-68900000D01*
X140500000Y-69250000D02*
X140500000Y-69600000D01*
X140500000Y-68900000D02*
X140150000Y-69250000D01*
X140150000Y-69250000D02*
X140850000Y-69250000D01*
X140850000Y-69250000D02*
X140500000Y-68900000D01*
X139750000Y-86700000D02*
X139750000Y-84000000D01*
X141250000Y-86700000D02*
X141250000Y-84000000D01*
X140350000Y-85200000D02*
X140600000Y-85200000D01*
X140600000Y-85200000D02*
X140450000Y-85350000D01*
X140850000Y-85450000D02*
X140150000Y-85450000D01*
X140500000Y-85100000D02*
X140500000Y-84750000D01*
X140500000Y-85450000D02*
X140850000Y-85100000D01*
X140850000Y-85100000D02*
X140150000Y-85100000D01*
X140150000Y-85100000D02*
X140500000Y-85450000D01*
X143400000Y-79875000D02*
X144600000Y-79875000D01*
X144600000Y-78125000D02*
X143400000Y-78125000D01*
X127850000Y-68000000D02*
X127850000Y-69000000D01*
X126150000Y-69000000D02*
X126150000Y-68000000D01*
X131000000Y-65150000D02*
X132000000Y-65150000D01*
X132000000Y-66850000D02*
X131000000Y-66850000D01*
X110450000Y-94620000D02*
X110450000Y-96170000D01*
X110450000Y-96170000D02*
X113550000Y-96170000D01*
X113550000Y-96170000D02*
X113550000Y-94620000D01*
X113270000Y-93350000D02*
X113270000Y-83190000D01*
X113270000Y-83190000D02*
X110730000Y-83190000D01*
X110730000Y-83190000D02*
X110730000Y-93350000D01*
X113270000Y-93350000D02*
X110730000Y-93350000D01*
X176460000Y-89980000D02*
X176460000Y-88980000D01*
X178160000Y-88980000D02*
X178160000Y-89980000D01*
X170780000Y-84660000D02*
X171780000Y-84660000D01*
X171780000Y-86360000D02*
X170780000Y-86360000D01*
X165460000Y-89980000D02*
X165460000Y-88980000D01*
X167160000Y-88980000D02*
X167160000Y-89980000D01*
X159810000Y-84680000D02*
X160810000Y-84680000D01*
X160810000Y-86380000D02*
X159810000Y-86380000D01*
X159531106Y-74187512D02*
X159531106Y-75387512D01*
X161281106Y-75387512D02*
X161281106Y-74187512D01*
X161688572Y-74187512D02*
X161688572Y-75387512D01*
X163438572Y-75387512D02*
X163438572Y-74187512D01*
X173685000Y-65480000D02*
X173685000Y-64280000D01*
X171935000Y-64280000D02*
X171935000Y-65480000D01*
X169935000Y-64280000D02*
X169935000Y-65480000D01*
X171685000Y-65480000D02*
X171685000Y-64280000D01*
X168968000Y-90017112D02*
X168968000Y-86969112D01*
X168968000Y-86969112D02*
X176080000Y-86969112D01*
X176080000Y-86969112D02*
X176080000Y-90017112D01*
X168968000Y-93065112D02*
X168968000Y-93827112D01*
X168968000Y-93827112D02*
X170492000Y-96113112D01*
X170492000Y-96113112D02*
X174556000Y-96113112D01*
X174556000Y-96113112D02*
X176080000Y-93827112D01*
X176080000Y-93827112D02*
X176080000Y-93065112D01*
X157964000Y-90025112D02*
X157964000Y-86977112D01*
X157964000Y-86977112D02*
X165076000Y-86977112D01*
X165076000Y-86977112D02*
X165076000Y-90025112D01*
X157964000Y-93073112D02*
X157964000Y-93835112D01*
X157964000Y-93835112D02*
X159488000Y-96121112D01*
X159488000Y-96121112D02*
X163552000Y-96121112D01*
X163552000Y-96121112D02*
X165076000Y-93835112D01*
X165076000Y-93835112D02*
X165076000Y-93073112D01*
X168710000Y-75930000D02*
X169710000Y-75930000D01*
X169710000Y-77630000D02*
X168710000Y-77630000D01*
X168710000Y-78430000D02*
X169710000Y-78430000D01*
X169710000Y-80130000D02*
X168710000Y-80130000D01*
X173360000Y-76280000D02*
X173360000Y-75280000D01*
X175060000Y-75280000D02*
X175060000Y-76280000D01*
X171310000Y-71630000D02*
X170310000Y-71630000D01*
X170310000Y-69930000D02*
X171310000Y-69930000D01*
X178560000Y-79080000D02*
X178560000Y-78080000D01*
X180260000Y-78080000D02*
X180260000Y-79080000D01*
X140666666Y-76052381D02*
X141000000Y-75576190D01*
X141238095Y-76052381D02*
X141238095Y-75052381D01*
X140857142Y-75052381D01*
X140761904Y-75100000D01*
X140714285Y-75147619D01*
X140666666Y-75242857D01*
X140666666Y-75385714D01*
X140714285Y-75480952D01*
X140761904Y-75528571D01*
X140857142Y-75576190D01*
X141238095Y-75576190D01*
X140333333Y-75052381D02*
X139714285Y-75052381D01*
X140047619Y-75433333D01*
X139904761Y-75433333D01*
X139809523Y-75480952D01*
X139761904Y-75528571D01*
X139714285Y-75623810D01*
X139714285Y-75861905D01*
X139761904Y-75957143D01*
X139809523Y-76004762D01*
X139904761Y-76052381D01*
X140190476Y-76052381D01*
X140285714Y-76004762D01*
X140333333Y-75957143D01*
X141238095Y-66903361D02*
X141238095Y-65903361D01*
X141000000Y-65903361D01*
X140857142Y-65950980D01*
X140761904Y-66046218D01*
X140714285Y-66141456D01*
X140666666Y-66331932D01*
X140666666Y-66474790D01*
X140714285Y-66665266D01*
X140761904Y-66760504D01*
X140857142Y-66855742D01*
X141000000Y-66903361D01*
X141238095Y-66903361D01*
X140333333Y-65903361D02*
X139714285Y-65903361D01*
X140047619Y-66284313D01*
X139904761Y-66284313D01*
X139809523Y-66331932D01*
X139761904Y-66379551D01*
X139714285Y-66474790D01*
X139714285Y-66712885D01*
X139761904Y-66808123D01*
X139809523Y-66855742D01*
X139904761Y-66903361D01*
X140190476Y-66903361D01*
X140285714Y-66855742D01*
X140333333Y-66808123D01*
X141338095Y-88302381D02*
X141338095Y-87302381D01*
X141100000Y-87302381D01*
X140957142Y-87350000D01*
X140861904Y-87445238D01*
X140814285Y-87540476D01*
X140766666Y-87730952D01*
X140766666Y-87873810D01*
X140814285Y-88064286D01*
X140861904Y-88159524D01*
X140957142Y-88254762D01*
X141100000Y-88302381D01*
X141338095Y-88302381D01*
X140385714Y-87397619D02*
X140338095Y-87350000D01*
X140242857Y-87302381D01*
X140004761Y-87302381D01*
X139909523Y-87350000D01*
X139861904Y-87397619D01*
X139814285Y-87492857D01*
X139814285Y-87588095D01*
X139861904Y-87730952D01*
X140433333Y-88302381D01*
X139814285Y-88302381D01*
X140916666Y-79452381D02*
X141250000Y-78976190D01*
X141488095Y-79452381D02*
X141488095Y-78452381D01*
X141107142Y-78452381D01*
X141011904Y-78500000D01*
X140964285Y-78547619D01*
X140916666Y-78642857D01*
X140916666Y-78785714D01*
X140964285Y-78880952D01*
X141011904Y-78928571D01*
X141107142Y-78976190D01*
X141488095Y-78976190D01*
X140535714Y-78547619D02*
X140488095Y-78500000D01*
X140392857Y-78452381D01*
X140154761Y-78452381D01*
X140059523Y-78500000D01*
X140011904Y-78547619D01*
X139964285Y-78642857D01*
X139964285Y-78738095D01*
X140011904Y-78880952D01*
X140583333Y-79452381D01*
X139964285Y-79452381D01*
X125166666Y-68857143D02*
X125214285Y-68904762D01*
X125357142Y-68952381D01*
X125452380Y-68952381D01*
X125595238Y-68904762D01*
X125690476Y-68809524D01*
X125738095Y-68714286D01*
X125785714Y-68523810D01*
X125785714Y-68380952D01*
X125738095Y-68190476D01*
X125690476Y-68095238D01*
X125595238Y-68000000D01*
X125452380Y-67952381D01*
X125357142Y-67952381D01*
X125214285Y-68000000D01*
X125166666Y-68047619D01*
X124214285Y-68952381D02*
X124785714Y-68952381D01*
X124500000Y-68952381D02*
X124500000Y-67952381D01*
X124595238Y-68095238D01*
X124690476Y-68190476D01*
X124785714Y-68238095D01*
X134666666Y-66357143D02*
X134714285Y-66404762D01*
X134857142Y-66452381D01*
X134952380Y-66452381D01*
X135095238Y-66404762D01*
X135190476Y-66309524D01*
X135238095Y-66214286D01*
X135285714Y-66023810D01*
X135285714Y-65880952D01*
X135238095Y-65690476D01*
X135190476Y-65595238D01*
X135095238Y-65500000D01*
X134952380Y-65452381D01*
X134857142Y-65452381D01*
X134714285Y-65500000D01*
X134666666Y-65547619D01*
X134285714Y-65547619D02*
X134238095Y-65500000D01*
X134142857Y-65452381D01*
X133904761Y-65452381D01*
X133809523Y-65500000D01*
X133761904Y-65547619D01*
X133714285Y-65642857D01*
X133714285Y-65738095D01*
X133761904Y-65880952D01*
X134333333Y-66452381D01*
X133714285Y-66452381D01*
X112738095Y-97952381D02*
X112738095Y-96952381D01*
X112357142Y-96952381D01*
X112261904Y-97000000D01*
X112214285Y-97047619D01*
X112166666Y-97142857D01*
X112166666Y-97285714D01*
X112214285Y-97380952D01*
X112261904Y-97428571D01*
X112357142Y-97476190D01*
X112738095Y-97476190D01*
X111309523Y-97285714D02*
X111309523Y-97952381D01*
X111547619Y-96904762D02*
X111785714Y-97619048D01*
X111166666Y-97619048D01*
X177976666Y-93127143D02*
X178024285Y-93174762D01*
X178167142Y-93222381D01*
X178262380Y-93222381D01*
X178405238Y-93174762D01*
X178500476Y-93079524D01*
X178548095Y-92984286D01*
X178595714Y-92793810D01*
X178595714Y-92650952D01*
X178548095Y-92460476D01*
X178500476Y-92365238D01*
X178405238Y-92270000D01*
X178262380Y-92222381D01*
X178167142Y-92222381D01*
X178024285Y-92270000D01*
X177976666Y-92317619D01*
X177024285Y-93222381D02*
X177595714Y-93222381D01*
X177310000Y-93222381D02*
X177310000Y-92222381D01*
X177405238Y-92365238D01*
X177500476Y-92460476D01*
X177595714Y-92508095D01*
X171516666Y-84057143D02*
X171564285Y-84104762D01*
X171707142Y-84152381D01*
X171802380Y-84152381D01*
X171945238Y-84104762D01*
X172040476Y-84009524D01*
X172088095Y-83914286D01*
X172135714Y-83723810D01*
X172135714Y-83580952D01*
X172088095Y-83390476D01*
X172040476Y-83295238D01*
X171945238Y-83200000D01*
X171802380Y-83152381D01*
X171707142Y-83152381D01*
X171564285Y-83200000D01*
X171516666Y-83247619D01*
X171135714Y-83247619D02*
X171088095Y-83200000D01*
X170992857Y-83152381D01*
X170754761Y-83152381D01*
X170659523Y-83200000D01*
X170611904Y-83247619D01*
X170564285Y-83342857D01*
X170564285Y-83438095D01*
X170611904Y-83580952D01*
X171183333Y-84152381D01*
X170564285Y-84152381D01*
X166976666Y-93087143D02*
X167024285Y-93134762D01*
X167167142Y-93182381D01*
X167262380Y-93182381D01*
X167405238Y-93134762D01*
X167500476Y-93039524D01*
X167548095Y-92944286D01*
X167595714Y-92753810D01*
X167595714Y-92610952D01*
X167548095Y-92420476D01*
X167500476Y-92325238D01*
X167405238Y-92230000D01*
X167262380Y-92182381D01*
X167167142Y-92182381D01*
X167024285Y-92230000D01*
X166976666Y-92277619D01*
X166643333Y-92182381D02*
X166024285Y-92182381D01*
X166357619Y-92563333D01*
X166214761Y-92563333D01*
X166119523Y-92610952D01*
X166071904Y-92658571D01*
X166024285Y-92753810D01*
X166024285Y-92991905D01*
X166071904Y-93087143D01*
X166119523Y-93134762D01*
X166214761Y-93182381D01*
X166500476Y-93182381D01*
X166595714Y-93134762D01*
X166643333Y-93087143D01*
X160516666Y-84137143D02*
X160564285Y-84184762D01*
X160707142Y-84232381D01*
X160802380Y-84232381D01*
X160945238Y-84184762D01*
X161040476Y-84089524D01*
X161088095Y-83994286D01*
X161135714Y-83803810D01*
X161135714Y-83660952D01*
X161088095Y-83470476D01*
X161040476Y-83375238D01*
X160945238Y-83280000D01*
X160802380Y-83232381D01*
X160707142Y-83232381D01*
X160564285Y-83280000D01*
X160516666Y-83327619D01*
X159659523Y-83565714D02*
X159659523Y-84232381D01*
X159897619Y-83184762D02*
X160135714Y-83899048D01*
X159516666Y-83899048D01*
X160576666Y-78432381D02*
X160910000Y-77956190D01*
X161148095Y-78432381D02*
X161148095Y-77432381D01*
X160767142Y-77432381D01*
X160671904Y-77480000D01*
X160624285Y-77527619D01*
X160576666Y-77622857D01*
X160576666Y-77765714D01*
X160624285Y-77860952D01*
X160671904Y-77908571D01*
X160767142Y-77956190D01*
X161148095Y-77956190D01*
X159671904Y-77432381D02*
X160148095Y-77432381D01*
X160195714Y-77908571D01*
X160148095Y-77860952D01*
X160052857Y-77813333D01*
X159814761Y-77813333D01*
X159719523Y-77860952D01*
X159671904Y-77908571D01*
X159624285Y-78003810D01*
X159624285Y-78241905D01*
X159671904Y-78337143D01*
X159719523Y-78384762D01*
X159814761Y-78432381D01*
X160052857Y-78432381D01*
X160148095Y-78384762D01*
X160195714Y-78337143D01*
X162776666Y-78432381D02*
X163110000Y-77956190D01*
X163348095Y-78432381D02*
X163348095Y-77432381D01*
X162967142Y-77432381D01*
X162871904Y-77480000D01*
X162824285Y-77527619D01*
X162776666Y-77622857D01*
X162776666Y-77765714D01*
X162824285Y-77860952D01*
X162871904Y-77908571D01*
X162967142Y-77956190D01*
X163348095Y-77956190D01*
X161919523Y-77432381D02*
X162110000Y-77432381D01*
X162205238Y-77480000D01*
X162252857Y-77527619D01*
X162348095Y-77670476D01*
X162395714Y-77860952D01*
X162395714Y-78241905D01*
X162348095Y-78337143D01*
X162300476Y-78384762D01*
X162205238Y-78432381D01*
X162014761Y-78432381D01*
X161919523Y-78384762D01*
X161871904Y-78337143D01*
X161824285Y-78241905D01*
X161824285Y-78003810D01*
X161871904Y-77908571D01*
X161919523Y-77860952D01*
X162014761Y-77813333D01*
X162205238Y-77813333D01*
X162300476Y-77860952D01*
X162348095Y-77908571D01*
X162395714Y-78003810D01*
X173016666Y-68552381D02*
X173350000Y-68076190D01*
X173588095Y-68552381D02*
X173588095Y-67552381D01*
X173207142Y-67552381D01*
X173111904Y-67600000D01*
X173064285Y-67647619D01*
X173016666Y-67742857D01*
X173016666Y-67885714D01*
X173064285Y-67980952D01*
X173111904Y-68028571D01*
X173207142Y-68076190D01*
X173588095Y-68076190D01*
X172540476Y-68552381D02*
X172350000Y-68552381D01*
X172254761Y-68504762D01*
X172207142Y-68457143D01*
X172111904Y-68314286D01*
X172064285Y-68123810D01*
X172064285Y-67742857D01*
X172111904Y-67647619D01*
X172159523Y-67600000D01*
X172254761Y-67552381D01*
X172445238Y-67552381D01*
X172540476Y-67600000D01*
X172588095Y-67647619D01*
X172635714Y-67742857D01*
X172635714Y-67980952D01*
X172588095Y-68076190D01*
X172540476Y-68123810D01*
X172445238Y-68171429D01*
X172254761Y-68171429D01*
X172159523Y-68123810D01*
X172111904Y-68076190D01*
X172064285Y-67980952D01*
X170792857Y-68552381D02*
X171126191Y-68076190D01*
X171364286Y-68552381D02*
X171364286Y-67552381D01*
X170983333Y-67552381D01*
X170888095Y-67600000D01*
X170840476Y-67647619D01*
X170792857Y-67742857D01*
X170792857Y-67885714D01*
X170840476Y-67980952D01*
X170888095Y-68028571D01*
X170983333Y-68076190D01*
X171364286Y-68076190D01*
X169840476Y-68552381D02*
X170411905Y-68552381D01*
X170126191Y-68552381D02*
X170126191Y-67552381D01*
X170221429Y-67695238D01*
X170316667Y-67790476D01*
X170411905Y-67838095D01*
X169221429Y-67552381D02*
X169126190Y-67552381D01*
X169030952Y-67600000D01*
X168983333Y-67647619D01*
X168935714Y-67742857D01*
X168888095Y-67933333D01*
X168888095Y-68171429D01*
X168935714Y-68361905D01*
X168983333Y-68457143D01*
X169030952Y-68504762D01*
X169126190Y-68552381D01*
X169221429Y-68552381D01*
X169316667Y-68504762D01*
X169364286Y-68457143D01*
X169411905Y-68361905D01*
X169459524Y-68171429D01*
X169459524Y-67933333D01*
X169411905Y-67742857D01*
X169364286Y-67647619D01*
X169316667Y-67600000D01*
X169221429Y-67552381D01*
X173271905Y-96432381D02*
X173271905Y-97241905D01*
X173224286Y-97337143D01*
X173176667Y-97384762D01*
X173081429Y-97432381D01*
X172890952Y-97432381D01*
X172795714Y-97384762D01*
X172748095Y-97337143D01*
X172700476Y-97241905D01*
X172700476Y-96432381D01*
X171700476Y-97432381D02*
X172271905Y-97432381D01*
X171986191Y-97432381D02*
X171986191Y-96432381D01*
X172081429Y-96575238D01*
X172176667Y-96670476D01*
X172271905Y-96718095D01*
X162271905Y-96532381D02*
X162271905Y-97341905D01*
X162224286Y-97437143D01*
X162176667Y-97484762D01*
X162081429Y-97532381D01*
X161890952Y-97532381D01*
X161795714Y-97484762D01*
X161748095Y-97437143D01*
X161700476Y-97341905D01*
X161700476Y-96532381D01*
X161271905Y-96627619D02*
X161224286Y-96580000D01*
X161129048Y-96532381D01*
X160890952Y-96532381D01*
X160795714Y-96580000D01*
X160748095Y-96627619D01*
X160700476Y-96722857D01*
X160700476Y-96818095D01*
X160748095Y-96960952D01*
X161319524Y-97532381D01*
X160700476Y-97532381D01*
X166016666Y-77157143D02*
X166064285Y-77204762D01*
X166207142Y-77252381D01*
X166302380Y-77252381D01*
X166445238Y-77204762D01*
X166540476Y-77109524D01*
X166588095Y-77014286D01*
X166635714Y-76823810D01*
X166635714Y-76680952D01*
X166588095Y-76490476D01*
X166540476Y-76395238D01*
X166445238Y-76300000D01*
X166302380Y-76252381D01*
X166207142Y-76252381D01*
X166064285Y-76300000D01*
X166016666Y-76347619D01*
X165159523Y-76252381D02*
X165350000Y-76252381D01*
X165445238Y-76300000D01*
X165492857Y-76347619D01*
X165588095Y-76490476D01*
X165635714Y-76680952D01*
X165635714Y-77061905D01*
X165588095Y-77157143D01*
X165540476Y-77204762D01*
X165445238Y-77252381D01*
X165254761Y-77252381D01*
X165159523Y-77204762D01*
X165111904Y-77157143D01*
X165064285Y-77061905D01*
X165064285Y-76823810D01*
X165111904Y-76728571D01*
X165159523Y-76680952D01*
X165254761Y-76633333D01*
X165445238Y-76633333D01*
X165540476Y-76680952D01*
X165588095Y-76728571D01*
X165635714Y-76823810D01*
X166016666Y-79657143D02*
X166064285Y-79704762D01*
X166207142Y-79752381D01*
X166302380Y-79752381D01*
X166445238Y-79704762D01*
X166540476Y-79609524D01*
X166588095Y-79514286D01*
X166635714Y-79323810D01*
X166635714Y-79180952D01*
X166588095Y-78990476D01*
X166540476Y-78895238D01*
X166445238Y-78800000D01*
X166302380Y-78752381D01*
X166207142Y-78752381D01*
X166064285Y-78800000D01*
X166016666Y-78847619D01*
X165683333Y-78752381D02*
X165016666Y-78752381D01*
X165445238Y-79752381D01*
X174376666Y-79157143D02*
X174424285Y-79204762D01*
X174567142Y-79252381D01*
X174662380Y-79252381D01*
X174805238Y-79204762D01*
X174900476Y-79109524D01*
X174948095Y-79014286D01*
X174995714Y-78823810D01*
X174995714Y-78680952D01*
X174948095Y-78490476D01*
X174900476Y-78395238D01*
X174805238Y-78300000D01*
X174662380Y-78252381D01*
X174567142Y-78252381D01*
X174424285Y-78300000D01*
X174376666Y-78347619D01*
X173805238Y-78680952D02*
X173900476Y-78633333D01*
X173948095Y-78585714D01*
X173995714Y-78490476D01*
X173995714Y-78442857D01*
X173948095Y-78347619D01*
X173900476Y-78300000D01*
X173805238Y-78252381D01*
X173614761Y-78252381D01*
X173519523Y-78300000D01*
X173471904Y-78347619D01*
X173424285Y-78442857D01*
X173424285Y-78490476D01*
X173471904Y-78585714D01*
X173519523Y-78633333D01*
X173614761Y-78680952D01*
X173805238Y-78680952D01*
X173900476Y-78728571D01*
X173948095Y-78776190D01*
X173995714Y-78871429D01*
X173995714Y-79061905D01*
X173948095Y-79157143D01*
X173900476Y-79204762D01*
X173805238Y-79252381D01*
X173614761Y-79252381D01*
X173519523Y-79204762D01*
X173471904Y-79157143D01*
X173424285Y-79061905D01*
X173424285Y-78871429D01*
X173471904Y-78776190D01*
X173519523Y-78728571D01*
X173614761Y-78680952D01*
X170976666Y-72957143D02*
X171024285Y-73004762D01*
X171167142Y-73052381D01*
X171262380Y-73052381D01*
X171405238Y-73004762D01*
X171500476Y-72909524D01*
X171548095Y-72814286D01*
X171595714Y-72623810D01*
X171595714Y-72480952D01*
X171548095Y-72290476D01*
X171500476Y-72195238D01*
X171405238Y-72100000D01*
X171262380Y-72052381D01*
X171167142Y-72052381D01*
X171024285Y-72100000D01*
X170976666Y-72147619D01*
X170500476Y-73052381D02*
X170310000Y-73052381D01*
X170214761Y-73004762D01*
X170167142Y-72957143D01*
X170071904Y-72814286D01*
X170024285Y-72623810D01*
X170024285Y-72242857D01*
X170071904Y-72147619D01*
X170119523Y-72100000D01*
X170214761Y-72052381D01*
X170405238Y-72052381D01*
X170500476Y-72100000D01*
X170548095Y-72147619D01*
X170595714Y-72242857D01*
X170595714Y-72480952D01*
X170548095Y-72576190D01*
X170500476Y-72623810D01*
X170405238Y-72671429D01*
X170214761Y-72671429D01*
X170119523Y-72623810D01*
X170071904Y-72576190D01*
X170024285Y-72480952D01*
X180092857Y-81957143D02*
X180140476Y-82004762D01*
X180283333Y-82052381D01*
X180378571Y-82052381D01*
X180521429Y-82004762D01*
X180616667Y-81909524D01*
X180664286Y-81814286D01*
X180711905Y-81623810D01*
X180711905Y-81480952D01*
X180664286Y-81290476D01*
X180616667Y-81195238D01*
X180521429Y-81100000D01*
X180378571Y-81052381D01*
X180283333Y-81052381D01*
X180140476Y-81100000D01*
X180092857Y-81147619D01*
X179140476Y-82052381D02*
X179711905Y-82052381D01*
X179426191Y-82052381D02*
X179426191Y-81052381D01*
X179521429Y-81195238D01*
X179616667Y-81290476D01*
X179711905Y-81338095D01*
X178521429Y-81052381D02*
X178426190Y-81052381D01*
X178330952Y-81100000D01*
X178283333Y-81147619D01*
X178235714Y-81242857D01*
X178188095Y-81433333D01*
X178188095Y-81671429D01*
X178235714Y-81861905D01*
X178283333Y-81957143D01*
X178330952Y-82004762D01*
X178426190Y-82052381D01*
X178521429Y-82052381D01*
X178616667Y-82004762D01*
X178664286Y-81957143D01*
X178711905Y-81861905D01*
X178759524Y-81671429D01*
X178759524Y-81433333D01*
X178711905Y-81242857D01*
X178664286Y-81147619D01*
X178616667Y-81100000D01*
X178521429Y-81052381D01*
M02*
