G04 #@! TF.FileFunction,Copper,L2,Bot,Signal*
%FSLAX46Y46*%
G04 Gerber Fmt 4.6, Leading zero omitted, Abs format (unit mm)*
G04 Created by KiCad (PCBNEW 4.0.5) date Thu Feb 16 15:30:16 2017*
%MOMM*%
%LPD*%
G01*
G04 APERTURE LIST*
%ADD10C,0.100000*%
%ADD11R,1.750000X1.750000*%
%ADD12C,1.750000*%
%ADD13C,0.600000*%
%ADD14O,1.699260X3.500120*%
%ADD15R,10.000000X15.750000*%
%ADD16C,1.524000*%
%ADD17R,1.500000X1.300000*%
%ADD18R,1.198880X1.198880*%
%ADD19C,3.000000*%
%ADD20R,3.600000X1.800000*%
%ADD21O,3.600000X1.800000*%
%ADD22R,1.250000X1.500000*%
%ADD23R,1.500000X1.250000*%
%ADD24C,1.998980*%
%ADD25R,1.998980X1.998980*%
%ADD26R,2.032000X1.727200*%
%ADD27O,2.032000X1.727200*%
%ADD28R,1.800000X3.600000*%
%ADD29O,1.800000X3.600000*%
%ADD30C,4.064000*%
%ADD31R,1.727200X2.032000*%
%ADD32O,1.727200X2.032000*%
%ADD33R,1.300000X1.500000*%
%ADD34R,3.657600X2.032000*%
%ADD35R,1.016000X2.032000*%
%ADD36C,0.500000*%
%ADD37C,0.250000*%
%ADD38C,1.500000*%
%ADD39C,0.350000*%
G04 APERTURE END LIST*
D10*
D11*
X125050000Y-95175000D03*
D12*
X122550000Y-95175000D03*
X120050000Y-95175000D03*
X117550000Y-95175000D03*
D13*
X115000000Y-95000000D03*
X110000000Y-95000000D03*
X145000000Y-90000000D03*
X140000000Y-90000000D03*
X125000000Y-90000000D03*
X115000000Y-90000000D03*
X115000000Y-85000000D03*
X140000000Y-80000000D03*
X125000000Y-80000000D03*
X110000000Y-80000000D03*
X140000000Y-75000000D03*
X110000000Y-75000000D03*
X125000000Y-70000000D03*
X120000000Y-70000000D03*
X115000000Y-70000000D03*
X145000000Y-65000000D03*
X125000000Y-65000000D03*
X120000000Y-65000000D03*
X115000000Y-65000000D03*
X130000000Y-60000000D03*
X125000000Y-60000000D03*
X130000000Y-55000000D03*
X110000000Y-55000000D03*
D14*
X132550000Y-69636000D03*
X135090000Y-69636000D03*
X130010000Y-69636000D03*
D15*
X132550000Y-81550000D03*
D16*
X135550000Y-83136000D03*
X135550000Y-81136000D03*
X135550000Y-79136000D03*
X135550000Y-77136000D03*
X135550000Y-75136000D03*
X133550000Y-77136000D03*
X133550000Y-75136000D03*
X133550000Y-79136000D03*
X133550000Y-81136000D03*
X133550000Y-83136000D03*
X131550000Y-75136000D03*
X129550000Y-79136000D03*
X131550000Y-79136000D03*
X131550000Y-77136000D03*
X129550000Y-75136000D03*
X129550000Y-77136000D03*
X129550000Y-81136000D03*
X131550000Y-83136000D03*
X131550000Y-81136000D03*
X129550000Y-83136000D03*
X135550000Y-85136000D03*
X135550000Y-87636000D03*
X129550000Y-85136000D03*
X129550000Y-87636000D03*
D17*
X145350000Y-75600000D03*
X142650000Y-75600000D03*
D18*
X140500000Y-70299020D03*
X140500000Y-68200980D03*
X140500000Y-84050980D03*
X140500000Y-86149020D03*
D17*
X145350000Y-79000000D03*
X142650000Y-79000000D03*
D19*
X119250000Y-84750000D03*
X119250000Y-62250000D03*
D20*
X143650000Y-86250000D03*
D21*
X143650000Y-82750000D03*
D11*
X139775000Y-95175000D03*
D12*
X137275000Y-95175000D03*
X134775000Y-95175000D03*
X132275000Y-95175000D03*
D11*
X105200000Y-90000000D03*
D12*
X105200000Y-87500000D03*
X105200000Y-85000000D03*
X105200000Y-82500000D03*
X105200000Y-80000000D03*
D22*
X127000000Y-69750000D03*
X127000000Y-67250000D03*
D23*
X132750000Y-66000000D03*
X130250000Y-66000000D03*
D24*
X112007620Y-79910000D03*
D25*
X112007620Y-69750000D03*
D26*
X112000000Y-94620000D03*
D27*
X112000000Y-92080000D03*
X112000000Y-89540000D03*
X112000000Y-87000000D03*
X112000000Y-84460000D03*
D16*
X130790000Y-62000000D03*
X128250000Y-62000000D03*
X133330000Y-62000000D03*
D20*
X106000000Y-60000000D03*
D21*
X106000000Y-63500000D03*
D20*
X106000000Y-70000000D03*
D21*
X106000000Y-73500000D03*
D28*
X126000000Y-56000000D03*
D29*
X122500000Y-56000000D03*
X119000000Y-56000000D03*
X115500000Y-56000000D03*
D28*
X139250000Y-56000000D03*
D29*
X135750000Y-56000000D03*
D20*
X143650000Y-70250000D03*
D21*
X143650000Y-66750000D03*
D30*
X104000000Y-96000000D03*
X104000000Y-54000000D03*
X146000000Y-96000000D03*
X146000000Y-54000000D03*
D13*
X180150000Y-62500000D03*
X185150000Y-57500000D03*
X177650000Y-60000000D03*
X182650000Y-60000000D03*
X180150000Y-60000000D03*
X185150000Y-62500000D03*
X185150000Y-60000000D03*
X185150000Y-65000000D03*
X192650000Y-68500000D03*
X185150000Y-70800000D03*
X192650000Y-62500000D03*
X181400000Y-79500000D03*
X187650000Y-77500000D03*
X190150000Y-77500000D03*
X190150000Y-80000000D03*
X192650000Y-80000000D03*
X192650000Y-77500000D03*
X175150000Y-85000000D03*
X177650000Y-85000000D03*
X170150000Y-82500000D03*
X175150000Y-82500000D03*
X177650000Y-82500000D03*
X180150000Y-82500000D03*
X182650000Y-82500000D03*
X185150000Y-77500000D03*
X182650000Y-77500000D03*
X187650000Y-72500000D03*
X190150000Y-75000000D03*
X192650000Y-72500000D03*
X190150000Y-72500000D03*
X183150000Y-72500000D03*
X190150000Y-82500000D03*
X185150000Y-85000000D03*
X156650000Y-66000000D03*
X156650000Y-63500000D03*
X159150000Y-66000000D03*
X159150000Y-63500000D03*
X181150000Y-71000000D03*
X176150000Y-77000000D03*
X178150000Y-66000000D03*
X165650000Y-66000000D03*
X165650000Y-63500000D03*
X182650000Y-57500000D03*
X192650000Y-97500000D03*
X190150000Y-97500000D03*
X187650000Y-97500000D03*
X185150000Y-97500000D03*
X182650000Y-97500000D03*
X180150000Y-97500000D03*
X177650000Y-97500000D03*
X175150000Y-97500000D03*
X172650000Y-97500000D03*
X170150000Y-97500000D03*
X167650000Y-97500000D03*
X165150000Y-97500000D03*
X162650000Y-97500000D03*
X160150000Y-97500000D03*
X157650000Y-97500000D03*
X192650000Y-95000000D03*
X180150000Y-95000000D03*
X177650000Y-95000000D03*
X175150000Y-95000000D03*
X167650000Y-95000000D03*
X165150000Y-95000000D03*
X157650000Y-95000000D03*
X197650000Y-92500000D03*
X195150000Y-92500000D03*
X192650000Y-92500000D03*
X180150000Y-92500000D03*
X177650000Y-92500000D03*
X175150000Y-92500000D03*
X170150000Y-92500000D03*
X167650000Y-92500000D03*
X165150000Y-92500000D03*
X162650000Y-92500000D03*
X160150000Y-92500000D03*
X157650000Y-92500000D03*
X155150000Y-92500000D03*
X152650000Y-92500000D03*
X197650000Y-90000000D03*
X195150000Y-90000000D03*
X192650000Y-90000000D03*
X180150000Y-90000000D03*
X175150000Y-90000000D03*
X170150000Y-90000000D03*
X157650000Y-90000000D03*
X155150000Y-90000000D03*
X152650000Y-90000000D03*
X197650000Y-87500000D03*
X195150000Y-87500000D03*
X192650000Y-87500000D03*
X157650000Y-87500000D03*
X155150000Y-87500000D03*
X152650000Y-87500000D03*
X197650000Y-85000000D03*
X195150000Y-85000000D03*
X192650000Y-85000000D03*
X190150000Y-85000000D03*
X182650000Y-85000000D03*
X180150000Y-85000000D03*
X157650000Y-85000000D03*
X155150000Y-85000000D03*
X152650000Y-85000000D03*
X197650000Y-82500000D03*
X195150000Y-82500000D03*
X192650000Y-82500000D03*
X160150000Y-82500000D03*
X157650000Y-82500000D03*
X155150000Y-82500000D03*
X152650000Y-82500000D03*
X197650000Y-80000000D03*
X152650000Y-80000000D03*
X197650000Y-77500000D03*
X157650000Y-77500000D03*
X152650000Y-77500000D03*
X197650000Y-75000000D03*
X192650000Y-75000000D03*
X157650000Y-75000000D03*
X155150000Y-75000000D03*
X152650000Y-75000000D03*
X197650000Y-72500000D03*
X195150000Y-72500000D03*
X175150000Y-72500000D03*
X157650000Y-72500000D03*
X155150000Y-72500000D03*
X152650000Y-72500000D03*
X197650000Y-70000000D03*
X162650000Y-70000000D03*
X152650000Y-70000000D03*
X197650000Y-67500000D03*
X172650000Y-67500000D03*
X152650000Y-67500000D03*
X197650000Y-65000000D03*
X190150000Y-65000000D03*
X182650000Y-65000000D03*
X152650000Y-65000000D03*
X197650000Y-62500000D03*
X190150000Y-62500000D03*
X152650000Y-62500000D03*
X197650000Y-60000000D03*
X192650000Y-60000000D03*
X190150000Y-60000000D03*
X175150000Y-60000000D03*
X170150000Y-60000000D03*
X167650000Y-60000000D03*
X165150000Y-60000000D03*
X162650000Y-60000000D03*
X160150000Y-60000000D03*
X157650000Y-60000000D03*
X152650000Y-60000000D03*
X197650000Y-57500000D03*
X195150000Y-57500000D03*
X192650000Y-57500000D03*
X190150000Y-57500000D03*
X177650000Y-57500000D03*
X175150000Y-57500000D03*
X172650000Y-57500000D03*
X167650000Y-57500000D03*
X165150000Y-57500000D03*
X162650000Y-57500000D03*
X160150000Y-57500000D03*
X157650000Y-57500000D03*
X155150000Y-57500000D03*
X152650000Y-57500000D03*
X192650000Y-55000000D03*
X190150000Y-55000000D03*
X185150000Y-55000000D03*
X175150000Y-55000000D03*
X172650000Y-55000000D03*
X162650000Y-55000000D03*
X160150000Y-55000000D03*
X157650000Y-55000000D03*
X192650000Y-52500000D03*
X190150000Y-52500000D03*
X187650000Y-52500000D03*
X185150000Y-52500000D03*
X182650000Y-52500000D03*
X180150000Y-52500000D03*
X177650000Y-52500000D03*
X175150000Y-52500000D03*
X172650000Y-52500000D03*
X170150000Y-52500000D03*
X167650000Y-52500000D03*
X165150000Y-52500000D03*
X162650000Y-52500000D03*
X160150000Y-52500000D03*
X157650000Y-52500000D03*
D30*
X196150000Y-54000000D03*
X154150000Y-54000000D03*
X154150000Y-96000000D03*
X196150000Y-96000000D03*
D11*
X189810000Y-86780000D03*
D12*
X187310000Y-86780000D03*
X184810000Y-86780000D03*
X182310000Y-86780000D03*
D22*
X177310000Y-88230000D03*
X177310000Y-90730000D03*
D23*
X172530000Y-85510000D03*
X170030000Y-85510000D03*
D22*
X166310000Y-88230000D03*
X166310000Y-90730000D03*
D23*
X161560000Y-85530000D03*
X159060000Y-85530000D03*
D11*
X155310000Y-69780000D03*
D12*
X155310000Y-67280000D03*
X155310000Y-64780000D03*
X155310000Y-62280000D03*
X155310000Y-59780000D03*
D26*
X155310000Y-75240000D03*
D27*
X155310000Y-77780000D03*
X155310000Y-80320000D03*
D11*
X194810000Y-59780000D03*
D12*
X194810000Y-62280000D03*
X194810000Y-64780000D03*
X194810000Y-67280000D03*
X194810000Y-69780000D03*
D26*
X194810000Y-75240000D03*
D27*
X194810000Y-77780000D03*
X194810000Y-80320000D03*
D26*
X187810000Y-55240000D03*
D27*
X187810000Y-57780000D03*
X187810000Y-60320000D03*
X187810000Y-62860000D03*
X187810000Y-65400000D03*
X187810000Y-67940000D03*
D11*
X189810000Y-94780000D03*
D12*
X187310000Y-94780000D03*
X184810000Y-94780000D03*
X182310000Y-94780000D03*
D31*
X164270000Y-55280000D03*
D32*
X166810000Y-55280000D03*
X169350000Y-55280000D03*
D31*
X176770000Y-55280000D03*
D32*
X179310000Y-55280000D03*
X181850000Y-55280000D03*
D33*
X160406106Y-76137512D03*
X160406106Y-73437512D03*
X162563572Y-76137512D03*
X162563572Y-73437512D03*
X172810000Y-63530000D03*
X172810000Y-66230000D03*
X170810000Y-66230000D03*
X170810000Y-63530000D03*
D34*
X172524000Y-94843112D03*
D35*
X172524000Y-88239112D03*
X174810000Y-88239112D03*
X170238000Y-88239112D03*
D34*
X161520000Y-94851112D03*
D35*
X161520000Y-88247112D03*
X163806000Y-88247112D03*
X159234000Y-88247112D03*
D23*
X170460000Y-76780000D03*
X167960000Y-76780000D03*
X170460000Y-79280000D03*
X167960000Y-79280000D03*
D22*
X174210000Y-74530000D03*
X174210000Y-77030000D03*
D23*
X169560000Y-70780000D03*
X172060000Y-70780000D03*
D22*
X179410000Y-77330000D03*
X179410000Y-79830000D03*
D13*
X166166678Y-76338172D03*
X177658008Y-75005888D03*
X177660000Y-77955000D03*
X172410000Y-71980000D03*
X169682240Y-75426289D03*
X165680472Y-82487168D03*
X162650000Y-83000000D03*
X169666550Y-72122754D03*
X159810000Y-71280000D03*
X158810000Y-74580000D03*
X178010000Y-76980000D03*
X186519941Y-77291929D03*
X183810000Y-66280000D03*
X189040546Y-74340150D03*
X181149998Y-73773183D03*
X184183014Y-75779825D03*
X181150000Y-74642647D03*
X178161882Y-67927110D03*
X167658134Y-81731526D03*
X169672917Y-73722755D03*
X169175010Y-68249990D03*
X166634752Y-81768740D03*
X169660686Y-72922744D03*
D36*
X145350000Y-79000000D02*
X145350000Y-82150000D01*
X145350000Y-82150000D02*
X144000000Y-83500000D01*
X132550000Y-69636000D02*
X132550000Y-66200000D01*
X132550000Y-66200000D02*
X132750000Y-66000000D01*
X177310000Y-88230000D02*
X180860000Y-88230000D01*
X177310000Y-88230000D02*
X174819112Y-88230000D01*
X174819112Y-88230000D02*
X174810000Y-88239112D01*
X174810888Y-88240000D02*
X174810000Y-88239112D01*
X180860000Y-88230000D02*
X182310000Y-86780000D01*
X134775000Y-96293868D02*
X134775000Y-95056432D01*
X127318393Y-92231420D02*
X129400011Y-94313038D01*
X120050000Y-95056432D02*
X120050000Y-93818996D01*
X120050000Y-93818996D02*
X121637576Y-92231420D01*
X121637576Y-92231420D02*
X127318393Y-92231420D01*
X129400011Y-94313038D02*
X129400011Y-96549808D01*
X129400011Y-96549808D02*
X130081635Y-97231432D01*
X130081635Y-97231432D02*
X133837436Y-97231432D01*
X133837436Y-97231432D02*
X134775000Y-96293868D01*
X126765001Y-93131431D02*
X123237565Y-93131431D01*
X137275000Y-96293868D02*
X135337436Y-98231432D01*
X135337436Y-98231432D02*
X129681595Y-98231432D01*
X123237565Y-93131431D02*
X122550000Y-93818996D01*
X137275000Y-95056432D02*
X137275000Y-96293868D01*
X122550000Y-93818996D02*
X122550000Y-95056432D01*
X128500000Y-94866430D02*
X126765001Y-93131431D01*
X129681595Y-98231432D02*
X128500000Y-97049837D01*
X128500000Y-97049837D02*
X128500000Y-94866430D01*
X144000000Y-87000000D02*
X141350980Y-87000000D01*
X141350980Y-87000000D02*
X140500000Y-86149020D01*
X140500000Y-68200980D02*
X141200980Y-68200980D01*
X141200980Y-68200980D02*
X144000000Y-71000000D01*
X127000000Y-67250000D02*
X127000000Y-67125000D01*
X127000000Y-67125000D02*
X128250000Y-65875000D01*
X128250000Y-65875000D02*
X128250000Y-65250000D01*
X130250000Y-66000000D02*
X129000000Y-66000000D01*
X129000000Y-66000000D02*
X128250000Y-65250000D01*
X128250000Y-65250000D02*
X128250000Y-63077630D01*
X128250000Y-63077630D02*
X128250000Y-62000000D01*
X128250000Y-62000000D02*
X130790000Y-62000000D01*
X168015000Y-88900000D02*
X168675888Y-88239112D01*
X167435000Y-90730000D02*
X168015000Y-90150000D01*
X166310000Y-90730000D02*
X167435000Y-90730000D01*
X168015000Y-90150000D02*
X168015000Y-88900000D01*
X168675888Y-88239112D02*
X170238000Y-88239112D01*
D37*
X166466677Y-76638171D02*
X166166678Y-76338172D01*
X166608506Y-76780000D02*
X166466677Y-76638171D01*
X167960000Y-76780000D02*
X166608506Y-76780000D01*
X174632120Y-71980000D02*
X177358009Y-74705889D01*
X172410000Y-71980000D02*
X174632120Y-71980000D01*
X177358009Y-74705889D02*
X177658008Y-75005888D01*
X188715000Y-97000000D02*
X180598086Y-97000000D01*
X180598086Y-97000000D02*
X177310000Y-93711914D01*
X189810000Y-94780000D02*
X189810000Y-95905000D01*
X189810000Y-95905000D02*
X188715000Y-97000000D01*
D36*
X166310000Y-90730000D02*
X166310000Y-92160000D01*
X166310000Y-92160000D02*
X170750000Y-96600000D01*
X177310000Y-93711914D02*
X177310000Y-91980000D01*
X170750000Y-96600000D02*
X174421914Y-96600000D01*
X174421914Y-96600000D02*
X177310000Y-93711914D01*
X177310000Y-91980000D02*
X177310000Y-90730000D01*
D37*
X164270000Y-55280000D02*
X164270000Y-57890000D01*
X164270000Y-57890000D02*
X169910000Y-63530000D01*
X169910000Y-63530000D02*
X170810000Y-63530000D01*
X176735000Y-77030000D02*
X177660000Y-77955000D01*
X177660000Y-77955000D02*
X179410000Y-79705000D01*
X174210000Y-77030000D02*
X176735000Y-77030000D01*
X179410000Y-79705000D02*
X179410000Y-79830000D01*
X167960000Y-79280000D02*
X167960000Y-76780000D01*
X172060000Y-70780000D02*
X172060000Y-71630000D01*
X172060000Y-71630000D02*
X172410000Y-71980000D01*
D36*
X159234000Y-88247112D02*
X159234000Y-89763112D01*
X159234000Y-89763112D02*
X157810000Y-91187112D01*
X157810000Y-91187112D02*
X157810000Y-95155914D01*
X157810000Y-95155914D02*
X159171199Y-96517113D01*
X159171199Y-96517113D02*
X163868801Y-96517113D01*
X163868801Y-96517113D02*
X166310000Y-94075914D01*
X166310000Y-94075914D02*
X166310000Y-91980000D01*
X166310000Y-91980000D02*
X166310000Y-90730000D01*
X159234000Y-88247112D02*
X159234000Y-85704000D01*
X159234000Y-85704000D02*
X159060000Y-85530000D01*
X170238000Y-88239112D02*
X170238000Y-85718000D01*
X170238000Y-85718000D02*
X170030000Y-85510000D01*
D38*
X119250000Y-84750000D02*
X116349999Y-81849999D01*
X116349999Y-81849999D02*
X116349999Y-76591869D01*
X116349999Y-76591869D02*
X112007620Y-72249490D01*
X112007620Y-72249490D02*
X112007620Y-69750000D01*
D36*
X142650000Y-79000000D02*
X142650000Y-80150000D01*
X142650000Y-80150000D02*
X140500000Y-82300000D01*
X140500000Y-82300000D02*
X140500000Y-82951540D01*
X140500000Y-82951540D02*
X140500000Y-84050980D01*
X140650000Y-83800980D02*
X140500000Y-83950980D01*
X142650000Y-75600000D02*
X142550000Y-75600000D01*
X142550000Y-75600000D02*
X140500000Y-73550000D01*
X140500000Y-73550000D02*
X140500000Y-72650000D01*
X140500000Y-72650000D02*
X140500000Y-70299020D01*
X145350000Y-75600000D02*
X145350000Y-74450000D01*
X145350000Y-74450000D02*
X146700001Y-73099999D01*
X146700001Y-73099999D02*
X146700001Y-69300001D01*
X144900000Y-67500000D02*
X144000000Y-67500000D01*
X146700001Y-69300001D02*
X144900000Y-67500000D01*
D38*
X139250000Y-62750000D02*
X144000000Y-67500000D01*
X139250000Y-62750000D02*
X139250000Y-56000000D01*
D36*
X135750000Y-66725940D02*
X135750000Y-64420000D01*
X135750000Y-64420000D02*
X133330000Y-62000000D01*
X135090000Y-69636000D02*
X135090000Y-67385940D01*
X135090000Y-67385940D02*
X135750000Y-66725940D01*
X135104000Y-69650000D02*
X135090000Y-69636000D01*
X135090000Y-69636000D02*
X135090000Y-70536430D01*
X135040000Y-69586000D02*
X135090000Y-69636000D01*
D37*
X135180000Y-69546000D02*
X135090000Y-69636000D01*
D36*
X129896000Y-69750000D02*
X130010000Y-69636000D01*
X127000000Y-69750000D02*
X129896000Y-69750000D01*
X129874000Y-69500000D02*
X130010000Y-69636000D01*
D37*
X130275000Y-69371000D02*
X130010000Y-69636000D01*
X170460000Y-75905000D02*
X169981289Y-75426289D01*
X169981289Y-75426289D02*
X169682240Y-75426289D01*
X170460000Y-76780000D02*
X170460000Y-75905000D01*
X187810000Y-55240000D02*
X186410000Y-55240000D01*
X186410000Y-55240000D02*
X178120000Y-63530000D01*
X178120000Y-63530000D02*
X173710000Y-63530000D01*
X173710000Y-63530000D02*
X172810000Y-63530000D01*
X165680472Y-82487168D02*
X168556836Y-82487168D01*
X170460000Y-80584004D02*
X169150000Y-81894004D01*
X168556836Y-82487168D02*
X169150000Y-81894004D01*
X170460000Y-79280000D02*
X170460000Y-80584004D01*
D36*
X161560000Y-83500000D02*
X161560000Y-80891406D01*
X161560000Y-85530000D02*
X161560000Y-83500000D01*
D37*
X161560000Y-83500000D02*
X162150000Y-83500000D01*
X162150000Y-83500000D02*
X162650000Y-83000000D01*
X160406106Y-76137512D02*
X160406106Y-76037512D01*
X169560000Y-70780000D02*
X169560000Y-72016204D01*
X169560000Y-72016204D02*
X169666550Y-72122754D01*
X172178766Y-74530000D02*
X169771520Y-72122754D01*
X174210000Y-74530000D02*
X172178766Y-74530000D01*
X169771520Y-72122754D02*
X169666550Y-72122754D01*
X159810000Y-71280000D02*
X163810000Y-71280000D01*
X163810000Y-71280000D02*
X170484999Y-64605001D01*
X170484999Y-64605001D02*
X171834999Y-64605001D01*
X171834999Y-64605001D02*
X172810000Y-63630000D01*
X172810000Y-63630000D02*
X172810000Y-63530000D01*
X160406106Y-76137512D02*
X160367512Y-76137512D01*
X160367512Y-76137512D02*
X158810000Y-74580000D01*
D36*
X161560000Y-85530000D02*
X161560000Y-77291406D01*
X161560000Y-77291406D02*
X160406106Y-76137512D01*
D37*
X178360000Y-77330000D02*
X178010000Y-76980000D01*
X179410000Y-77330000D02*
X178360000Y-77330000D01*
X175560000Y-74530000D02*
X178010000Y-76980000D01*
X174210000Y-74530000D02*
X175560000Y-74530000D01*
X174210000Y-74530000D02*
X174210000Y-74655000D01*
X174210000Y-74655000D02*
X170460000Y-78405000D01*
X170460000Y-78405000D02*
X170460000Y-79280000D01*
X170460000Y-78405000D02*
X173010000Y-75855000D01*
X170460000Y-79280000D02*
X170460000Y-76780000D01*
D36*
X161685000Y-85530000D02*
X161560000Y-85530000D01*
X161520000Y-88247112D02*
X161520000Y-94851112D01*
X161520000Y-88247112D02*
X161520000Y-85570000D01*
X161520000Y-85570000D02*
X161560000Y-85530000D01*
X179450000Y-69200000D02*
X167951084Y-69200000D01*
X180150000Y-69200000D02*
X179450000Y-69200000D01*
X194810000Y-69780000D02*
X181150000Y-69780000D01*
X179450000Y-69200000D02*
X180570000Y-69200000D01*
X180570000Y-69200000D02*
X181150000Y-69780000D01*
X163713572Y-73437512D02*
X167451084Y-69700000D01*
X167951084Y-69200000D02*
X167451084Y-69700000D01*
X167451084Y-69700000D02*
X167646085Y-69504999D01*
X162563572Y-73437512D02*
X163713572Y-73437512D01*
X157810000Y-62280000D02*
X157810000Y-69380000D01*
X157810000Y-69380000D02*
X157810000Y-70280000D01*
X160406106Y-73437512D02*
X160406106Y-73337512D01*
X160406106Y-73337512D02*
X157810000Y-70741406D01*
X157810000Y-70741406D02*
X157810000Y-69380000D01*
X160406106Y-73437512D02*
X162563572Y-73437512D01*
X155310000Y-59780000D02*
X157810000Y-62280000D01*
D37*
X186219942Y-77591928D02*
X186519941Y-77291929D01*
X175040000Y-84000000D02*
X179811870Y-84000000D01*
X173530000Y-85510000D02*
X175040000Y-84000000D01*
X172530000Y-85510000D02*
X173530000Y-85510000D01*
X179811870Y-84000000D02*
X186219942Y-77591928D01*
D36*
X164659799Y-83822201D02*
X170717201Y-83822201D01*
X170717201Y-83822201D02*
X172405000Y-85510000D01*
X172405000Y-85510000D02*
X172530000Y-85510000D01*
X170798996Y-83903996D02*
X171675000Y-84780000D01*
X172524000Y-94843112D02*
X172524000Y-88239112D01*
X162563572Y-76137512D02*
X162563572Y-81725974D01*
X162563572Y-81725974D02*
X164659799Y-83822201D01*
X164659799Y-83822201D02*
X163806000Y-84676000D01*
X163806000Y-84676000D02*
X163806000Y-88247112D01*
X172405000Y-85510000D02*
X171675000Y-84780000D01*
X171675000Y-84780000D02*
X170950010Y-84055010D01*
X166310000Y-88230000D02*
X163823112Y-88230000D01*
X163823112Y-88230000D02*
X163806000Y-88247112D01*
X163838888Y-88280000D02*
X163806000Y-88247112D01*
X172524000Y-88239112D02*
X172524000Y-89755112D01*
X172524000Y-88239112D02*
X172524000Y-85516000D01*
D37*
X183810000Y-66280000D02*
X186930000Y-66280000D01*
X186930000Y-66280000D02*
X187810000Y-65400000D01*
X188740547Y-74040151D02*
X189040546Y-74340150D01*
X188473579Y-73773183D02*
X188740547Y-74040151D01*
X181149998Y-73773183D02*
X188473579Y-73773183D01*
X181150000Y-74642647D02*
X182287178Y-75779825D01*
X182287178Y-75779825D02*
X183758750Y-75779825D01*
X183758750Y-75779825D02*
X184183014Y-75779825D01*
X178174772Y-67940000D02*
X178161882Y-67927110D01*
X187810000Y-67940000D02*
X178174772Y-67940000D01*
X194810000Y-77780000D02*
X194657600Y-77780000D01*
X165010000Y-79083392D02*
X167358135Y-81431527D01*
X169672917Y-73722755D02*
X165967245Y-73722755D01*
X165967245Y-73722755D02*
X165010000Y-74680000D01*
X167358135Y-81431527D02*
X167658134Y-81731526D01*
X165010000Y-74680000D02*
X165010000Y-79083392D01*
X170810000Y-66350446D02*
X170810000Y-66615000D01*
X169475009Y-67949991D02*
X169175010Y-68249990D01*
X170810000Y-66615000D02*
X169475009Y-67949991D01*
X170810000Y-66230000D02*
X172810000Y-66230000D01*
X166334753Y-81468741D02*
X166634752Y-81768740D01*
X164559989Y-74493600D02*
X164559989Y-79693977D01*
X166130845Y-72922744D02*
X164559989Y-74493600D01*
X164559989Y-79693977D02*
X166334753Y-81468741D01*
X169660686Y-72922744D02*
X166130845Y-72922744D01*
D39*
G36*
X149242000Y-99242000D02*
X100758000Y-99242000D01*
X100758000Y-89125000D01*
X103483838Y-89125000D01*
X103483838Y-90875000D01*
X103541364Y-91180727D01*
X103722049Y-91461518D01*
X103997741Y-91649890D01*
X104325000Y-91716162D01*
X106075000Y-91716162D01*
X106380727Y-91658636D01*
X106661518Y-91477951D01*
X106849890Y-91202259D01*
X106916162Y-90875000D01*
X106916162Y-89125000D01*
X106858636Y-88819273D01*
X106677951Y-88538482D01*
X106611471Y-88493058D01*
X106640350Y-88464230D01*
X106899704Y-87839634D01*
X106900294Y-87163333D01*
X106642030Y-86538285D01*
X106354164Y-86249916D01*
X106640350Y-85964230D01*
X106899704Y-85339634D01*
X106900294Y-84663333D01*
X106816279Y-84460000D01*
X110122933Y-84460000D01*
X110251470Y-85106199D01*
X110617512Y-85654021D01*
X110731223Y-85730000D01*
X110617512Y-85805979D01*
X110251470Y-86353801D01*
X110122933Y-87000000D01*
X110251470Y-87646199D01*
X110617512Y-88194021D01*
X110731223Y-88270000D01*
X110617512Y-88345979D01*
X110251470Y-88893801D01*
X110122933Y-89540000D01*
X110251470Y-90186199D01*
X110617512Y-90734021D01*
X110731223Y-90810000D01*
X110617512Y-90885979D01*
X110251470Y-91433801D01*
X110122933Y-92080000D01*
X110251470Y-92726199D01*
X110495014Y-93090689D01*
X110397482Y-93153449D01*
X110209110Y-93429141D01*
X110142838Y-93756400D01*
X110142838Y-95483600D01*
X110200364Y-95789327D01*
X110381049Y-96070118D01*
X110656741Y-96258490D01*
X110984000Y-96324762D01*
X113016000Y-96324762D01*
X113321727Y-96267236D01*
X113602518Y-96086551D01*
X113790890Y-95810859D01*
X113851478Y-95511667D01*
X115849706Y-95511667D01*
X116107970Y-96136715D01*
X116585770Y-96615350D01*
X117210366Y-96874704D01*
X117886667Y-96875294D01*
X118511715Y-96617030D01*
X118900581Y-96228843D01*
X119166312Y-96495038D01*
X119738735Y-96732729D01*
X120358546Y-96733270D01*
X120931383Y-96496578D01*
X121300259Y-96128345D01*
X121666312Y-96495038D01*
X122238735Y-96732729D01*
X122858546Y-96733270D01*
X123431383Y-96496578D01*
X123565322Y-96362872D01*
X123595981Y-96436889D01*
X123788112Y-96629019D01*
X124039143Y-96733000D01*
X124800250Y-96733000D01*
X124971000Y-96562250D01*
X124971000Y-95254000D01*
X125129000Y-95254000D01*
X125129000Y-96562250D01*
X125299750Y-96733000D01*
X126060857Y-96733000D01*
X126311888Y-96629019D01*
X126504019Y-96436889D01*
X126608000Y-96185857D01*
X126608000Y-95424750D01*
X126437250Y-95254000D01*
X125129000Y-95254000D01*
X124971000Y-95254000D01*
X124951000Y-95254000D01*
X124951000Y-95096000D01*
X124971000Y-95096000D01*
X124971000Y-95076000D01*
X125129000Y-95076000D01*
X125129000Y-95096000D01*
X126437250Y-95096000D01*
X126608000Y-94925250D01*
X126608000Y-94293892D01*
X127567000Y-95252892D01*
X127567000Y-97049832D01*
X127566999Y-97049837D01*
X127638020Y-97406881D01*
X127840269Y-97709568D01*
X129021862Y-98891160D01*
X129021864Y-98891163D01*
X129324551Y-99093412D01*
X129383789Y-99105195D01*
X129681595Y-99164433D01*
X129681600Y-99164432D01*
X135337431Y-99164432D01*
X135337436Y-99164433D01*
X135694480Y-99093412D01*
X135997167Y-98891163D01*
X137934728Y-96953601D01*
X137934731Y-96953599D01*
X138136980Y-96650912D01*
X138170477Y-96482508D01*
X138290322Y-96362872D01*
X138320981Y-96436889D01*
X138513112Y-96629019D01*
X138764143Y-96733000D01*
X139525250Y-96733000D01*
X139696000Y-96562250D01*
X139696000Y-95254000D01*
X139854000Y-95254000D01*
X139854000Y-96562250D01*
X140024750Y-96733000D01*
X140785857Y-96733000D01*
X141036888Y-96629019D01*
X141229019Y-96436889D01*
X141333000Y-96185857D01*
X141333000Y-95424750D01*
X141162250Y-95254000D01*
X139854000Y-95254000D01*
X139696000Y-95254000D01*
X139676000Y-95254000D01*
X139676000Y-95096000D01*
X139696000Y-95096000D01*
X139696000Y-93787750D01*
X139854000Y-93787750D01*
X139854000Y-95096000D01*
X141162250Y-95096000D01*
X141333000Y-94925250D01*
X141333000Y-94164143D01*
X141229019Y-93913111D01*
X141036888Y-93720981D01*
X140785857Y-93617000D01*
X140024750Y-93617000D01*
X139854000Y-93787750D01*
X139696000Y-93787750D01*
X139525250Y-93617000D01*
X138764143Y-93617000D01*
X138513112Y-93720981D01*
X138320981Y-93913111D01*
X138290410Y-93986915D01*
X138158688Y-93854962D01*
X137586265Y-93617271D01*
X136966454Y-93616730D01*
X136393617Y-93853422D01*
X136024741Y-94221655D01*
X135658688Y-93854962D01*
X135086265Y-93617271D01*
X134466454Y-93616730D01*
X133893617Y-93853422D01*
X133625238Y-94121333D01*
X133239230Y-93734650D01*
X132614634Y-93475296D01*
X131938333Y-93474706D01*
X131313285Y-93732970D01*
X130834650Y-94210770D01*
X130575296Y-94835366D01*
X130574706Y-95511667D01*
X130832970Y-96136715D01*
X130994405Y-96298432D01*
X130468097Y-96298432D01*
X130333011Y-96163346D01*
X130333011Y-94313038D01*
X130261991Y-93955994D01*
X130059742Y-93653307D01*
X130059739Y-93653305D01*
X127978124Y-91571689D01*
X127675437Y-91369440D01*
X127318393Y-91298419D01*
X127318388Y-91298420D01*
X121637581Y-91298420D01*
X121637576Y-91298419D01*
X121339770Y-91357657D01*
X121280532Y-91369440D01*
X120977845Y-91571689D01*
X120977843Y-91571692D01*
X119390269Y-93159265D01*
X119188020Y-93461952D01*
X119116999Y-93818996D01*
X119117000Y-93819001D01*
X119117000Y-93904949D01*
X118900238Y-94121333D01*
X118514230Y-93734650D01*
X117889634Y-93475296D01*
X117213333Y-93474706D01*
X116588285Y-93732970D01*
X116109650Y-94210770D01*
X115850296Y-94835366D01*
X115849706Y-95511667D01*
X113851478Y-95511667D01*
X113857162Y-95483600D01*
X113857162Y-93756400D01*
X113799636Y-93450673D01*
X113618951Y-93169882D01*
X113504379Y-93091598D01*
X113748530Y-92726199D01*
X113877067Y-92080000D01*
X113748530Y-91433801D01*
X113382488Y-90885979D01*
X113268777Y-90810000D01*
X113382488Y-90734021D01*
X113748530Y-90186199D01*
X113877067Y-89540000D01*
X113748530Y-88893801D01*
X113382488Y-88345979D01*
X113268777Y-88270000D01*
X113382488Y-88194021D01*
X113748530Y-87646199D01*
X113877067Y-87000000D01*
X113748530Y-86353801D01*
X113382488Y-85805979D01*
X113268777Y-85730000D01*
X113382488Y-85654021D01*
X113748530Y-85106199D01*
X113877067Y-84460000D01*
X113748530Y-83813801D01*
X113382488Y-83265979D01*
X112834666Y-82899937D01*
X112188467Y-82771400D01*
X111811533Y-82771400D01*
X111165334Y-82899937D01*
X110617512Y-83265979D01*
X110251470Y-83813801D01*
X110122933Y-84460000D01*
X106816279Y-84460000D01*
X106642030Y-84038285D01*
X106354164Y-83749916D01*
X106640350Y-83464230D01*
X106899704Y-82839634D01*
X106900294Y-82163333D01*
X106642030Y-81538285D01*
X106354164Y-81249916D01*
X106640350Y-80964230D01*
X106899704Y-80339634D01*
X106899763Y-80271321D01*
X110182814Y-80271321D01*
X110459991Y-80942140D01*
X110972780Y-81455826D01*
X111643114Y-81734173D01*
X112368941Y-81734806D01*
X113039760Y-81457629D01*
X113553446Y-80944840D01*
X113831793Y-80274506D01*
X113832426Y-79548679D01*
X113555249Y-78877860D01*
X113042460Y-78364174D01*
X112372126Y-78085827D01*
X111646299Y-78085194D01*
X110975480Y-78362371D01*
X110461794Y-78875160D01*
X110183447Y-79545494D01*
X110182814Y-80271321D01*
X106899763Y-80271321D01*
X106900294Y-79663333D01*
X106642030Y-79038285D01*
X106164230Y-78559650D01*
X105539634Y-78300296D01*
X104863333Y-78299706D01*
X104238285Y-78557970D01*
X103759650Y-79035770D01*
X103500296Y-79660366D01*
X103499706Y-80336667D01*
X103757970Y-80961715D01*
X104045836Y-81250084D01*
X103759650Y-81535770D01*
X103500296Y-82160366D01*
X103499706Y-82836667D01*
X103757970Y-83461715D01*
X104045836Y-83750084D01*
X103759650Y-84035770D01*
X103500296Y-84660366D01*
X103499706Y-85336667D01*
X103757970Y-85961715D01*
X104045836Y-86250084D01*
X103759650Y-86535770D01*
X103500296Y-87160366D01*
X103499706Y-87836667D01*
X103757970Y-88461715D01*
X103787020Y-88490816D01*
X103738482Y-88522049D01*
X103550110Y-88797741D01*
X103483838Y-89125000D01*
X100758000Y-89125000D01*
X100758000Y-73500000D01*
X103323573Y-73500000D01*
X103454881Y-74160129D01*
X103828814Y-74719759D01*
X104388444Y-75093692D01*
X105048573Y-75225000D01*
X106951427Y-75225000D01*
X107611556Y-75093692D01*
X108171186Y-74719759D01*
X108545119Y-74160129D01*
X108676427Y-73500000D01*
X108545119Y-72839871D01*
X108171186Y-72280241D01*
X107611556Y-71906308D01*
X106951427Y-71775000D01*
X105048573Y-71775000D01*
X104388444Y-71906308D01*
X103828814Y-72280241D01*
X103454881Y-72839871D01*
X103323573Y-73500000D01*
X100758000Y-73500000D01*
X100758000Y-70249750D01*
X103517000Y-70249750D01*
X103517000Y-71035857D01*
X103620981Y-71286888D01*
X103813111Y-71479019D01*
X104064143Y-71583000D01*
X105750250Y-71583000D01*
X105921000Y-71412250D01*
X105921000Y-70079000D01*
X106079000Y-70079000D01*
X106079000Y-71412250D01*
X106249750Y-71583000D01*
X107935857Y-71583000D01*
X108186889Y-71479019D01*
X108379019Y-71286888D01*
X108483000Y-71035857D01*
X108483000Y-70249750D01*
X108312250Y-70079000D01*
X106079000Y-70079000D01*
X105921000Y-70079000D01*
X103687750Y-70079000D01*
X103517000Y-70249750D01*
X100758000Y-70249750D01*
X100758000Y-68964143D01*
X103517000Y-68964143D01*
X103517000Y-69750250D01*
X103687750Y-69921000D01*
X105921000Y-69921000D01*
X105921000Y-68587750D01*
X106079000Y-68587750D01*
X106079000Y-69921000D01*
X108312250Y-69921000D01*
X108483000Y-69750250D01*
X108483000Y-68964143D01*
X108394510Y-68750510D01*
X110166968Y-68750510D01*
X110166968Y-70749490D01*
X110224494Y-71055217D01*
X110405179Y-71336008D01*
X110432620Y-71354758D01*
X110432620Y-72249490D01*
X110552510Y-72852217D01*
X110893927Y-73363183D01*
X114774999Y-77244255D01*
X114774999Y-81849999D01*
X114894889Y-82452726D01*
X115236306Y-82963692D01*
X116925085Y-84652471D01*
X116924598Y-85210442D01*
X117277812Y-86065286D01*
X117931274Y-86719889D01*
X118785500Y-87074595D01*
X119710442Y-87075402D01*
X120565286Y-86722188D01*
X121219889Y-86068726D01*
X121574595Y-85214500D01*
X121575402Y-84289558D01*
X121222188Y-83434714D01*
X120568726Y-82780111D01*
X119714500Y-82425405D01*
X119152300Y-82424914D01*
X117924999Y-81197613D01*
X117924999Y-76591869D01*
X117805109Y-75989143D01*
X117805109Y-75989142D01*
X117463692Y-75478176D01*
X115888131Y-73902615D01*
X117216648Y-73902615D01*
X117525501Y-74650098D01*
X118096894Y-75222489D01*
X118843837Y-75532647D01*
X119652615Y-75533352D01*
X120400098Y-75224499D01*
X120972489Y-74653106D01*
X121282647Y-73906163D01*
X121282848Y-73675000D01*
X126708838Y-73675000D01*
X126708838Y-89425000D01*
X126766364Y-89730727D01*
X126947049Y-90011518D01*
X127222741Y-90199890D01*
X127550000Y-90266162D01*
X137550000Y-90266162D01*
X137855727Y-90208636D01*
X138136518Y-90027951D01*
X138324890Y-89752259D01*
X138391162Y-89425000D01*
X138391162Y-86398770D01*
X139217560Y-86398770D01*
X139217560Y-86884317D01*
X139321541Y-87135348D01*
X139513671Y-87327479D01*
X139764703Y-87431460D01*
X140250250Y-87431460D01*
X140421000Y-87260710D01*
X140421000Y-86228020D01*
X139388310Y-86228020D01*
X139217560Y-86398770D01*
X138391162Y-86398770D01*
X138391162Y-83451540D01*
X139059398Y-83451540D01*
X139059398Y-84650420D01*
X139116924Y-84956147D01*
X139293459Y-85230488D01*
X139217560Y-85413723D01*
X139217560Y-85899270D01*
X139388310Y-86070020D01*
X140421000Y-86070020D01*
X140421000Y-86050020D01*
X140579000Y-86050020D01*
X140579000Y-86070020D01*
X140599000Y-86070020D01*
X140599000Y-86228020D01*
X140579000Y-86228020D01*
X140579000Y-87260710D01*
X140749750Y-87431460D01*
X141235297Y-87431460D01*
X141486329Y-87327479D01*
X141517000Y-87296808D01*
X141517000Y-88035857D01*
X141620981Y-88286888D01*
X141813111Y-88479019D01*
X142064143Y-88583000D01*
X143750250Y-88583000D01*
X143921000Y-88412250D01*
X143921000Y-87079000D01*
X144079000Y-87079000D01*
X144079000Y-88412250D01*
X144249750Y-88583000D01*
X145935857Y-88583000D01*
X146186889Y-88479019D01*
X146379019Y-88286888D01*
X146483000Y-88035857D01*
X146483000Y-87249750D01*
X146312250Y-87079000D01*
X144079000Y-87079000D01*
X143921000Y-87079000D01*
X143901000Y-87079000D01*
X143901000Y-86921000D01*
X143921000Y-86921000D01*
X143921000Y-85587750D01*
X144079000Y-85587750D01*
X144079000Y-86921000D01*
X146312250Y-86921000D01*
X146483000Y-86750250D01*
X146483000Y-85964143D01*
X146379019Y-85713112D01*
X146186889Y-85520981D01*
X145935857Y-85417000D01*
X144249750Y-85417000D01*
X144079000Y-85587750D01*
X143921000Y-85587750D01*
X143750250Y-85417000D01*
X142064143Y-85417000D01*
X141813111Y-85520981D01*
X141782440Y-85551652D01*
X141782440Y-85413723D01*
X141704674Y-85225980D01*
X141874330Y-84977679D01*
X141914911Y-84777287D01*
X142388444Y-85093692D01*
X143048573Y-85225000D01*
X144951427Y-85225000D01*
X145611556Y-85093692D01*
X146171186Y-84719759D01*
X146545119Y-84160129D01*
X146676427Y-83500000D01*
X146545119Y-82839871D01*
X146346811Y-82543082D01*
X146425000Y-82150000D01*
X146425000Y-80421234D01*
X146686518Y-80252951D01*
X146874890Y-79977259D01*
X146941162Y-79650000D01*
X146941162Y-78350000D01*
X146883636Y-78044273D01*
X146702951Y-77763482D01*
X146427259Y-77575110D01*
X146100000Y-77508838D01*
X144600000Y-77508838D01*
X144294273Y-77566364D01*
X144013482Y-77747049D01*
X144002476Y-77763157D01*
X143727259Y-77575110D01*
X143400000Y-77508838D01*
X141900000Y-77508838D01*
X141594273Y-77566364D01*
X141313482Y-77747049D01*
X141125110Y-78022741D01*
X141058838Y-78350000D01*
X141058838Y-79650000D01*
X141116364Y-79955727D01*
X141197658Y-80082062D01*
X139739860Y-81539860D01*
X139506830Y-81888615D01*
X139425000Y-82300000D01*
X139425000Y-82777189D01*
X139314042Y-82848589D01*
X139125670Y-83124281D01*
X139059398Y-83451540D01*
X138391162Y-83451540D01*
X138391162Y-73675000D01*
X138333636Y-73369273D01*
X138152951Y-73088482D01*
X137877259Y-72900110D01*
X137550000Y-72833838D01*
X127550000Y-72833838D01*
X127244273Y-72891364D01*
X126963482Y-73072049D01*
X126775110Y-73347741D01*
X126708838Y-73675000D01*
X121282848Y-73675000D01*
X121283352Y-73097385D01*
X120974499Y-72349902D01*
X120403106Y-71777511D01*
X119656163Y-71467353D01*
X118847385Y-71466648D01*
X118099902Y-71775501D01*
X117527511Y-72346894D01*
X117217353Y-73093837D01*
X117216648Y-73902615D01*
X115888131Y-73902615D01*
X113582620Y-71597104D01*
X113582620Y-71359524D01*
X113593628Y-71352441D01*
X113782000Y-71076749D01*
X113848272Y-70749490D01*
X113848272Y-69000000D01*
X125533838Y-69000000D01*
X125533838Y-70500000D01*
X125591364Y-70805727D01*
X125772049Y-71086518D01*
X126047741Y-71274890D01*
X126375000Y-71341162D01*
X127625000Y-71341162D01*
X127930727Y-71283636D01*
X128211518Y-71102951D01*
X128386952Y-70846195D01*
X128462844Y-71227731D01*
X128825858Y-71771020D01*
X129369147Y-72134034D01*
X130010000Y-72261508D01*
X130650853Y-72134034D01*
X131194142Y-71771020D01*
X131280000Y-71642524D01*
X131365858Y-71771020D01*
X131909147Y-72134034D01*
X132550000Y-72261508D01*
X133190853Y-72134034D01*
X133734142Y-71771020D01*
X133820000Y-71642524D01*
X133905858Y-71771020D01*
X134449147Y-72134034D01*
X135090000Y-72261508D01*
X135730853Y-72134034D01*
X136274142Y-71771020D01*
X136637156Y-71227731D01*
X136764630Y-70586878D01*
X136764630Y-68685122D01*
X136637156Y-68044269D01*
X136362701Y-67633519D01*
X136510140Y-67486080D01*
X136523768Y-67465683D01*
X139217560Y-67465683D01*
X139217560Y-67951230D01*
X139388310Y-68121980D01*
X140421000Y-68121980D01*
X140421000Y-67089290D01*
X140250250Y-66918540D01*
X139764703Y-66918540D01*
X139513671Y-67022521D01*
X139321541Y-67214652D01*
X139217560Y-67465683D01*
X136523768Y-67465683D01*
X136629129Y-67308000D01*
X136743170Y-67137325D01*
X136825000Y-66725940D01*
X136825000Y-64420000D01*
X136743170Y-64008615D01*
X136510140Y-63659860D01*
X134916943Y-62066663D01*
X134917275Y-61685711D01*
X134676177Y-61102211D01*
X134230137Y-60655392D01*
X133647059Y-60413276D01*
X133015711Y-60412725D01*
X132432211Y-60653823D01*
X131985392Y-61099863D01*
X131951623Y-61181187D01*
X131765214Y-61136509D01*
X130901723Y-62000000D01*
X131765214Y-62863491D01*
X131951230Y-62818908D01*
X131983823Y-62897789D01*
X132429863Y-63344608D01*
X133012941Y-63586724D01*
X133396779Y-63587059D01*
X134675000Y-64865280D01*
X134675000Y-66280660D01*
X134341162Y-66614498D01*
X134341162Y-65375000D01*
X134283636Y-65069273D01*
X134102951Y-64788482D01*
X133827259Y-64600110D01*
X133500000Y-64533838D01*
X132000000Y-64533838D01*
X131694273Y-64591364D01*
X131413482Y-64772049D01*
X131392973Y-64802066D01*
X131386888Y-64795981D01*
X131135857Y-64692000D01*
X130499750Y-64692000D01*
X130329000Y-64862750D01*
X130329000Y-65921000D01*
X130349000Y-65921000D01*
X130349000Y-66079000D01*
X130329000Y-66079000D01*
X130329000Y-66099000D01*
X130171000Y-66099000D01*
X130171000Y-66079000D01*
X128987750Y-66079000D01*
X128817000Y-66249750D01*
X128817000Y-66760857D01*
X128920981Y-67011889D01*
X129113112Y-67204019D01*
X129210141Y-67244210D01*
X128825858Y-67500980D01*
X128462844Y-68044269D01*
X128351280Y-68605139D01*
X128227951Y-68413482D01*
X128197934Y-68392973D01*
X128204019Y-68386888D01*
X128308000Y-68135857D01*
X128308000Y-67499750D01*
X128137250Y-67329000D01*
X127079000Y-67329000D01*
X127079000Y-67349000D01*
X126921000Y-67349000D01*
X126921000Y-67329000D01*
X125862750Y-67329000D01*
X125692000Y-67499750D01*
X125692000Y-68135857D01*
X125795981Y-68386888D01*
X125799227Y-68390134D01*
X125788482Y-68397049D01*
X125600110Y-68672741D01*
X125533838Y-69000000D01*
X113848272Y-69000000D01*
X113848272Y-68750510D01*
X113790746Y-68444783D01*
X113610061Y-68163992D01*
X113334369Y-67975620D01*
X113007110Y-67909348D01*
X111008130Y-67909348D01*
X110702403Y-67966874D01*
X110421612Y-68147559D01*
X110233240Y-68423251D01*
X110166968Y-68750510D01*
X108394510Y-68750510D01*
X108379019Y-68713112D01*
X108186889Y-68520981D01*
X107935857Y-68417000D01*
X106249750Y-68417000D01*
X106079000Y-68587750D01*
X105921000Y-68587750D01*
X105750250Y-68417000D01*
X104064143Y-68417000D01*
X103813111Y-68520981D01*
X103620981Y-68713112D01*
X103517000Y-68964143D01*
X100758000Y-68964143D01*
X100758000Y-66364143D01*
X125692000Y-66364143D01*
X125692000Y-67000250D01*
X125862750Y-67171000D01*
X126921000Y-67171000D01*
X126921000Y-65987750D01*
X127079000Y-65987750D01*
X127079000Y-67171000D01*
X128137250Y-67171000D01*
X128308000Y-67000250D01*
X128308000Y-66364143D01*
X128204019Y-66113112D01*
X128011889Y-65920981D01*
X127760857Y-65817000D01*
X127249750Y-65817000D01*
X127079000Y-65987750D01*
X126921000Y-65987750D01*
X126750250Y-65817000D01*
X126239143Y-65817000D01*
X125988111Y-65920981D01*
X125795981Y-66113112D01*
X125692000Y-66364143D01*
X100758000Y-66364143D01*
X100758000Y-65239143D01*
X128817000Y-65239143D01*
X128817000Y-65750250D01*
X128987750Y-65921000D01*
X130171000Y-65921000D01*
X130171000Y-64862750D01*
X130000250Y-64692000D01*
X129364143Y-64692000D01*
X129113112Y-64795981D01*
X128920981Y-64988111D01*
X128817000Y-65239143D01*
X100758000Y-65239143D01*
X100758000Y-63500000D01*
X103323573Y-63500000D01*
X103454881Y-64160129D01*
X103828814Y-64719759D01*
X104388444Y-65093692D01*
X105048573Y-65225000D01*
X106951427Y-65225000D01*
X107611556Y-65093692D01*
X108171186Y-64719759D01*
X108545119Y-64160129D01*
X108676427Y-63500000D01*
X108545119Y-62839871D01*
X108458638Y-62710442D01*
X116924598Y-62710442D01*
X117277812Y-63565286D01*
X117931274Y-64219889D01*
X118785500Y-64574595D01*
X119710442Y-64575402D01*
X120565286Y-64222188D01*
X121219889Y-63568726D01*
X121466336Y-62975214D01*
X127386509Y-62975214D01*
X127449169Y-63236652D01*
X127983375Y-63448983D01*
X128558172Y-63440718D01*
X129050831Y-63236652D01*
X129113491Y-62975214D01*
X129926509Y-62975214D01*
X129989169Y-63236652D01*
X130523375Y-63448983D01*
X131098172Y-63440718D01*
X131590831Y-63236652D01*
X131653491Y-62975214D01*
X130790000Y-62111723D01*
X129926509Y-62975214D01*
X129113491Y-62975214D01*
X128250000Y-62111723D01*
X127386509Y-62975214D01*
X121466336Y-62975214D01*
X121574595Y-62714500D01*
X121575402Y-61789558D01*
X121552188Y-61733375D01*
X126801017Y-61733375D01*
X126809282Y-62308172D01*
X127013348Y-62800831D01*
X127274786Y-62863491D01*
X128138277Y-62000000D01*
X128361723Y-62000000D01*
X129225214Y-62863491D01*
X129486652Y-62800831D01*
X129519312Y-62718661D01*
X129553348Y-62800831D01*
X129814786Y-62863491D01*
X130678277Y-62000000D01*
X129814786Y-61136509D01*
X129553348Y-61199169D01*
X129520688Y-61281339D01*
X129486652Y-61199169D01*
X129225214Y-61136509D01*
X128361723Y-62000000D01*
X128138277Y-62000000D01*
X127274786Y-61136509D01*
X127013348Y-61199169D01*
X126801017Y-61733375D01*
X121552188Y-61733375D01*
X121259405Y-61024786D01*
X127386509Y-61024786D01*
X128250000Y-61888277D01*
X129113491Y-61024786D01*
X129926509Y-61024786D01*
X130790000Y-61888277D01*
X131653491Y-61024786D01*
X131590831Y-60763348D01*
X131056625Y-60551017D01*
X130481828Y-60559282D01*
X129989169Y-60763348D01*
X129926509Y-61024786D01*
X129113491Y-61024786D01*
X129050831Y-60763348D01*
X128516625Y-60551017D01*
X127941828Y-60559282D01*
X127449169Y-60763348D01*
X127386509Y-61024786D01*
X121259405Y-61024786D01*
X121222188Y-60934714D01*
X120568726Y-60280111D01*
X119714500Y-59925405D01*
X118789558Y-59924598D01*
X117934714Y-60277812D01*
X117280111Y-60931274D01*
X116925405Y-61785500D01*
X116924598Y-62710442D01*
X108458638Y-62710442D01*
X108171186Y-62280241D01*
X107611556Y-61906308D01*
X106951427Y-61775000D01*
X105048573Y-61775000D01*
X104388444Y-61906308D01*
X103828814Y-62280241D01*
X103454881Y-62839871D01*
X103323573Y-63500000D01*
X100758000Y-63500000D01*
X100758000Y-60249750D01*
X103517000Y-60249750D01*
X103517000Y-61035857D01*
X103620981Y-61286888D01*
X103813111Y-61479019D01*
X104064143Y-61583000D01*
X105750250Y-61583000D01*
X105921000Y-61412250D01*
X105921000Y-60079000D01*
X106079000Y-60079000D01*
X106079000Y-61412250D01*
X106249750Y-61583000D01*
X107935857Y-61583000D01*
X108186889Y-61479019D01*
X108379019Y-61286888D01*
X108483000Y-61035857D01*
X108483000Y-60249750D01*
X108312250Y-60079000D01*
X106079000Y-60079000D01*
X105921000Y-60079000D01*
X103687750Y-60079000D01*
X103517000Y-60249750D01*
X100758000Y-60249750D01*
X100758000Y-58964143D01*
X103517000Y-58964143D01*
X103517000Y-59750250D01*
X103687750Y-59921000D01*
X105921000Y-59921000D01*
X105921000Y-58587750D01*
X106079000Y-58587750D01*
X106079000Y-59921000D01*
X108312250Y-59921000D01*
X108483000Y-59750250D01*
X108483000Y-58964143D01*
X108379019Y-58713112D01*
X108186889Y-58520981D01*
X107935857Y-58417000D01*
X106249750Y-58417000D01*
X106079000Y-58587750D01*
X105921000Y-58587750D01*
X105750250Y-58417000D01*
X104064143Y-58417000D01*
X103813111Y-58520981D01*
X103620981Y-58713112D01*
X103517000Y-58964143D01*
X100758000Y-58964143D01*
X100758000Y-55048573D01*
X113775000Y-55048573D01*
X113775000Y-56951427D01*
X113906308Y-57611556D01*
X114280241Y-58171186D01*
X114839871Y-58545119D01*
X115500000Y-58676427D01*
X116160129Y-58545119D01*
X116719759Y-58171186D01*
X117093692Y-57611556D01*
X117225000Y-56951427D01*
X117225000Y-55048573D01*
X117275000Y-55048573D01*
X117275000Y-56951427D01*
X117406308Y-57611556D01*
X117780241Y-58171186D01*
X118339871Y-58545119D01*
X119000000Y-58676427D01*
X119660129Y-58545119D01*
X120219759Y-58171186D01*
X120593692Y-57611556D01*
X120725000Y-56951427D01*
X120725000Y-55048573D01*
X120775000Y-55048573D01*
X120775000Y-56951427D01*
X120906308Y-57611556D01*
X121280241Y-58171186D01*
X121839871Y-58545119D01*
X122500000Y-58676427D01*
X123160129Y-58545119D01*
X123719759Y-58171186D01*
X124093692Y-57611556D01*
X124225000Y-56951427D01*
X124225000Y-56249750D01*
X124417000Y-56249750D01*
X124417000Y-57935857D01*
X124520981Y-58186889D01*
X124713112Y-58379019D01*
X124964143Y-58483000D01*
X125750250Y-58483000D01*
X125921000Y-58312250D01*
X125921000Y-56079000D01*
X126079000Y-56079000D01*
X126079000Y-58312250D01*
X126249750Y-58483000D01*
X127035857Y-58483000D01*
X127286888Y-58379019D01*
X127479019Y-58186889D01*
X127583000Y-57935857D01*
X127583000Y-56249750D01*
X127412250Y-56079000D01*
X126079000Y-56079000D01*
X125921000Y-56079000D01*
X124587750Y-56079000D01*
X124417000Y-56249750D01*
X124225000Y-56249750D01*
X124225000Y-55048573D01*
X124093692Y-54388444D01*
X123877001Y-54064143D01*
X124417000Y-54064143D01*
X124417000Y-55750250D01*
X124587750Y-55921000D01*
X125921000Y-55921000D01*
X125921000Y-53687750D01*
X126079000Y-53687750D01*
X126079000Y-55921000D01*
X127412250Y-55921000D01*
X127583000Y-55750250D01*
X127583000Y-55048573D01*
X134025000Y-55048573D01*
X134025000Y-56951427D01*
X134156308Y-57611556D01*
X134530241Y-58171186D01*
X135089871Y-58545119D01*
X135750000Y-58676427D01*
X136410129Y-58545119D01*
X136969759Y-58171186D01*
X137343692Y-57611556D01*
X137475000Y-56951427D01*
X137475000Y-55048573D01*
X137343692Y-54388444D01*
X137217778Y-54200000D01*
X137508838Y-54200000D01*
X137508838Y-57800000D01*
X137566364Y-58105727D01*
X137675000Y-58274551D01*
X137675000Y-62750000D01*
X137794890Y-63352727D01*
X138136307Y-63863693D01*
X141191154Y-66918540D01*
X140749750Y-66918540D01*
X140579000Y-67089290D01*
X140579000Y-68121980D01*
X140599000Y-68121980D01*
X140599000Y-68279980D01*
X140579000Y-68279980D01*
X140579000Y-68299980D01*
X140421000Y-68299980D01*
X140421000Y-68279980D01*
X139388310Y-68279980D01*
X139217560Y-68450730D01*
X139217560Y-68936277D01*
X139295326Y-69124020D01*
X139125670Y-69372321D01*
X139059398Y-69699580D01*
X139059398Y-70898460D01*
X139116924Y-71204187D01*
X139297609Y-71484978D01*
X139425000Y-71572020D01*
X139425000Y-73550000D01*
X139506830Y-73961385D01*
X139558434Y-74038616D01*
X139739860Y-74310140D01*
X141058838Y-75629118D01*
X141058838Y-76250000D01*
X141116364Y-76555727D01*
X141297049Y-76836518D01*
X141572741Y-77024890D01*
X141900000Y-77091162D01*
X143400000Y-77091162D01*
X143705727Y-77033636D01*
X143986518Y-76852951D01*
X143997524Y-76836843D01*
X144272741Y-77024890D01*
X144600000Y-77091162D01*
X146100000Y-77091162D01*
X146405727Y-77033636D01*
X146686518Y-76852951D01*
X146874890Y-76577259D01*
X146941162Y-76250000D01*
X146941162Y-74950000D01*
X146883636Y-74644273D01*
X146802342Y-74517938D01*
X147460141Y-73860139D01*
X147693172Y-73511383D01*
X147775001Y-73099999D01*
X147775001Y-69300001D01*
X147693171Y-68888616D01*
X147460141Y-68539861D01*
X146633929Y-67713649D01*
X146676427Y-67500000D01*
X146545119Y-66839871D01*
X146171186Y-66280241D01*
X145611556Y-65906308D01*
X144951427Y-65775000D01*
X144502386Y-65775000D01*
X140825000Y-62097614D01*
X140825000Y-58273453D01*
X140924890Y-58127259D01*
X140991162Y-57800000D01*
X140991162Y-54200000D01*
X140933636Y-53894273D01*
X140752951Y-53613482D01*
X140477259Y-53425110D01*
X140150000Y-53358838D01*
X138350000Y-53358838D01*
X138044273Y-53416364D01*
X137763482Y-53597049D01*
X137575110Y-53872741D01*
X137508838Y-54200000D01*
X137217778Y-54200000D01*
X136969759Y-53828814D01*
X136410129Y-53454881D01*
X135750000Y-53323573D01*
X135089871Y-53454881D01*
X134530241Y-53828814D01*
X134156308Y-54388444D01*
X134025000Y-55048573D01*
X127583000Y-55048573D01*
X127583000Y-54064143D01*
X127479019Y-53813111D01*
X127286888Y-53620981D01*
X127035857Y-53517000D01*
X126249750Y-53517000D01*
X126079000Y-53687750D01*
X125921000Y-53687750D01*
X125750250Y-53517000D01*
X124964143Y-53517000D01*
X124713112Y-53620981D01*
X124520981Y-53813111D01*
X124417000Y-54064143D01*
X123877001Y-54064143D01*
X123719759Y-53828814D01*
X123160129Y-53454881D01*
X122500000Y-53323573D01*
X121839871Y-53454881D01*
X121280241Y-53828814D01*
X120906308Y-54388444D01*
X120775000Y-55048573D01*
X120725000Y-55048573D01*
X120593692Y-54388444D01*
X120219759Y-53828814D01*
X119660129Y-53454881D01*
X119000000Y-53323573D01*
X118339871Y-53454881D01*
X117780241Y-53828814D01*
X117406308Y-54388444D01*
X117275000Y-55048573D01*
X117225000Y-55048573D01*
X117093692Y-54388444D01*
X116719759Y-53828814D01*
X116160129Y-53454881D01*
X115500000Y-53323573D01*
X114839871Y-53454881D01*
X114280241Y-53828814D01*
X113906308Y-54388444D01*
X113775000Y-55048573D01*
X100758000Y-55048573D01*
X100758000Y-50758000D01*
X149242000Y-50758000D01*
X149242000Y-99242000D01*
X149242000Y-99242000D01*
G37*
X149242000Y-99242000D02*
X100758000Y-99242000D01*
X100758000Y-89125000D01*
X103483838Y-89125000D01*
X103483838Y-90875000D01*
X103541364Y-91180727D01*
X103722049Y-91461518D01*
X103997741Y-91649890D01*
X104325000Y-91716162D01*
X106075000Y-91716162D01*
X106380727Y-91658636D01*
X106661518Y-91477951D01*
X106849890Y-91202259D01*
X106916162Y-90875000D01*
X106916162Y-89125000D01*
X106858636Y-88819273D01*
X106677951Y-88538482D01*
X106611471Y-88493058D01*
X106640350Y-88464230D01*
X106899704Y-87839634D01*
X106900294Y-87163333D01*
X106642030Y-86538285D01*
X106354164Y-86249916D01*
X106640350Y-85964230D01*
X106899704Y-85339634D01*
X106900294Y-84663333D01*
X106816279Y-84460000D01*
X110122933Y-84460000D01*
X110251470Y-85106199D01*
X110617512Y-85654021D01*
X110731223Y-85730000D01*
X110617512Y-85805979D01*
X110251470Y-86353801D01*
X110122933Y-87000000D01*
X110251470Y-87646199D01*
X110617512Y-88194021D01*
X110731223Y-88270000D01*
X110617512Y-88345979D01*
X110251470Y-88893801D01*
X110122933Y-89540000D01*
X110251470Y-90186199D01*
X110617512Y-90734021D01*
X110731223Y-90810000D01*
X110617512Y-90885979D01*
X110251470Y-91433801D01*
X110122933Y-92080000D01*
X110251470Y-92726199D01*
X110495014Y-93090689D01*
X110397482Y-93153449D01*
X110209110Y-93429141D01*
X110142838Y-93756400D01*
X110142838Y-95483600D01*
X110200364Y-95789327D01*
X110381049Y-96070118D01*
X110656741Y-96258490D01*
X110984000Y-96324762D01*
X113016000Y-96324762D01*
X113321727Y-96267236D01*
X113602518Y-96086551D01*
X113790890Y-95810859D01*
X113851478Y-95511667D01*
X115849706Y-95511667D01*
X116107970Y-96136715D01*
X116585770Y-96615350D01*
X117210366Y-96874704D01*
X117886667Y-96875294D01*
X118511715Y-96617030D01*
X118900581Y-96228843D01*
X119166312Y-96495038D01*
X119738735Y-96732729D01*
X120358546Y-96733270D01*
X120931383Y-96496578D01*
X121300259Y-96128345D01*
X121666312Y-96495038D01*
X122238735Y-96732729D01*
X122858546Y-96733270D01*
X123431383Y-96496578D01*
X123565322Y-96362872D01*
X123595981Y-96436889D01*
X123788112Y-96629019D01*
X124039143Y-96733000D01*
X124800250Y-96733000D01*
X124971000Y-96562250D01*
X124971000Y-95254000D01*
X125129000Y-95254000D01*
X125129000Y-96562250D01*
X125299750Y-96733000D01*
X126060857Y-96733000D01*
X126311888Y-96629019D01*
X126504019Y-96436889D01*
X126608000Y-96185857D01*
X126608000Y-95424750D01*
X126437250Y-95254000D01*
X125129000Y-95254000D01*
X124971000Y-95254000D01*
X124951000Y-95254000D01*
X124951000Y-95096000D01*
X124971000Y-95096000D01*
X124971000Y-95076000D01*
X125129000Y-95076000D01*
X125129000Y-95096000D01*
X126437250Y-95096000D01*
X126608000Y-94925250D01*
X126608000Y-94293892D01*
X127567000Y-95252892D01*
X127567000Y-97049832D01*
X127566999Y-97049837D01*
X127638020Y-97406881D01*
X127840269Y-97709568D01*
X129021862Y-98891160D01*
X129021864Y-98891163D01*
X129324551Y-99093412D01*
X129383789Y-99105195D01*
X129681595Y-99164433D01*
X129681600Y-99164432D01*
X135337431Y-99164432D01*
X135337436Y-99164433D01*
X135694480Y-99093412D01*
X135997167Y-98891163D01*
X137934728Y-96953601D01*
X137934731Y-96953599D01*
X138136980Y-96650912D01*
X138170477Y-96482508D01*
X138290322Y-96362872D01*
X138320981Y-96436889D01*
X138513112Y-96629019D01*
X138764143Y-96733000D01*
X139525250Y-96733000D01*
X139696000Y-96562250D01*
X139696000Y-95254000D01*
X139854000Y-95254000D01*
X139854000Y-96562250D01*
X140024750Y-96733000D01*
X140785857Y-96733000D01*
X141036888Y-96629019D01*
X141229019Y-96436889D01*
X141333000Y-96185857D01*
X141333000Y-95424750D01*
X141162250Y-95254000D01*
X139854000Y-95254000D01*
X139696000Y-95254000D01*
X139676000Y-95254000D01*
X139676000Y-95096000D01*
X139696000Y-95096000D01*
X139696000Y-93787750D01*
X139854000Y-93787750D01*
X139854000Y-95096000D01*
X141162250Y-95096000D01*
X141333000Y-94925250D01*
X141333000Y-94164143D01*
X141229019Y-93913111D01*
X141036888Y-93720981D01*
X140785857Y-93617000D01*
X140024750Y-93617000D01*
X139854000Y-93787750D01*
X139696000Y-93787750D01*
X139525250Y-93617000D01*
X138764143Y-93617000D01*
X138513112Y-93720981D01*
X138320981Y-93913111D01*
X138290410Y-93986915D01*
X138158688Y-93854962D01*
X137586265Y-93617271D01*
X136966454Y-93616730D01*
X136393617Y-93853422D01*
X136024741Y-94221655D01*
X135658688Y-93854962D01*
X135086265Y-93617271D01*
X134466454Y-93616730D01*
X133893617Y-93853422D01*
X133625238Y-94121333D01*
X133239230Y-93734650D01*
X132614634Y-93475296D01*
X131938333Y-93474706D01*
X131313285Y-93732970D01*
X130834650Y-94210770D01*
X130575296Y-94835366D01*
X130574706Y-95511667D01*
X130832970Y-96136715D01*
X130994405Y-96298432D01*
X130468097Y-96298432D01*
X130333011Y-96163346D01*
X130333011Y-94313038D01*
X130261991Y-93955994D01*
X130059742Y-93653307D01*
X130059739Y-93653305D01*
X127978124Y-91571689D01*
X127675437Y-91369440D01*
X127318393Y-91298419D01*
X127318388Y-91298420D01*
X121637581Y-91298420D01*
X121637576Y-91298419D01*
X121339770Y-91357657D01*
X121280532Y-91369440D01*
X120977845Y-91571689D01*
X120977843Y-91571692D01*
X119390269Y-93159265D01*
X119188020Y-93461952D01*
X119116999Y-93818996D01*
X119117000Y-93819001D01*
X119117000Y-93904949D01*
X118900238Y-94121333D01*
X118514230Y-93734650D01*
X117889634Y-93475296D01*
X117213333Y-93474706D01*
X116588285Y-93732970D01*
X116109650Y-94210770D01*
X115850296Y-94835366D01*
X115849706Y-95511667D01*
X113851478Y-95511667D01*
X113857162Y-95483600D01*
X113857162Y-93756400D01*
X113799636Y-93450673D01*
X113618951Y-93169882D01*
X113504379Y-93091598D01*
X113748530Y-92726199D01*
X113877067Y-92080000D01*
X113748530Y-91433801D01*
X113382488Y-90885979D01*
X113268777Y-90810000D01*
X113382488Y-90734021D01*
X113748530Y-90186199D01*
X113877067Y-89540000D01*
X113748530Y-88893801D01*
X113382488Y-88345979D01*
X113268777Y-88270000D01*
X113382488Y-88194021D01*
X113748530Y-87646199D01*
X113877067Y-87000000D01*
X113748530Y-86353801D01*
X113382488Y-85805979D01*
X113268777Y-85730000D01*
X113382488Y-85654021D01*
X113748530Y-85106199D01*
X113877067Y-84460000D01*
X113748530Y-83813801D01*
X113382488Y-83265979D01*
X112834666Y-82899937D01*
X112188467Y-82771400D01*
X111811533Y-82771400D01*
X111165334Y-82899937D01*
X110617512Y-83265979D01*
X110251470Y-83813801D01*
X110122933Y-84460000D01*
X106816279Y-84460000D01*
X106642030Y-84038285D01*
X106354164Y-83749916D01*
X106640350Y-83464230D01*
X106899704Y-82839634D01*
X106900294Y-82163333D01*
X106642030Y-81538285D01*
X106354164Y-81249916D01*
X106640350Y-80964230D01*
X106899704Y-80339634D01*
X106899763Y-80271321D01*
X110182814Y-80271321D01*
X110459991Y-80942140D01*
X110972780Y-81455826D01*
X111643114Y-81734173D01*
X112368941Y-81734806D01*
X113039760Y-81457629D01*
X113553446Y-80944840D01*
X113831793Y-80274506D01*
X113832426Y-79548679D01*
X113555249Y-78877860D01*
X113042460Y-78364174D01*
X112372126Y-78085827D01*
X111646299Y-78085194D01*
X110975480Y-78362371D01*
X110461794Y-78875160D01*
X110183447Y-79545494D01*
X110182814Y-80271321D01*
X106899763Y-80271321D01*
X106900294Y-79663333D01*
X106642030Y-79038285D01*
X106164230Y-78559650D01*
X105539634Y-78300296D01*
X104863333Y-78299706D01*
X104238285Y-78557970D01*
X103759650Y-79035770D01*
X103500296Y-79660366D01*
X103499706Y-80336667D01*
X103757970Y-80961715D01*
X104045836Y-81250084D01*
X103759650Y-81535770D01*
X103500296Y-82160366D01*
X103499706Y-82836667D01*
X103757970Y-83461715D01*
X104045836Y-83750084D01*
X103759650Y-84035770D01*
X103500296Y-84660366D01*
X103499706Y-85336667D01*
X103757970Y-85961715D01*
X104045836Y-86250084D01*
X103759650Y-86535770D01*
X103500296Y-87160366D01*
X103499706Y-87836667D01*
X103757970Y-88461715D01*
X103787020Y-88490816D01*
X103738482Y-88522049D01*
X103550110Y-88797741D01*
X103483838Y-89125000D01*
X100758000Y-89125000D01*
X100758000Y-73500000D01*
X103323573Y-73500000D01*
X103454881Y-74160129D01*
X103828814Y-74719759D01*
X104388444Y-75093692D01*
X105048573Y-75225000D01*
X106951427Y-75225000D01*
X107611556Y-75093692D01*
X108171186Y-74719759D01*
X108545119Y-74160129D01*
X108676427Y-73500000D01*
X108545119Y-72839871D01*
X108171186Y-72280241D01*
X107611556Y-71906308D01*
X106951427Y-71775000D01*
X105048573Y-71775000D01*
X104388444Y-71906308D01*
X103828814Y-72280241D01*
X103454881Y-72839871D01*
X103323573Y-73500000D01*
X100758000Y-73500000D01*
X100758000Y-70249750D01*
X103517000Y-70249750D01*
X103517000Y-71035857D01*
X103620981Y-71286888D01*
X103813111Y-71479019D01*
X104064143Y-71583000D01*
X105750250Y-71583000D01*
X105921000Y-71412250D01*
X105921000Y-70079000D01*
X106079000Y-70079000D01*
X106079000Y-71412250D01*
X106249750Y-71583000D01*
X107935857Y-71583000D01*
X108186889Y-71479019D01*
X108379019Y-71286888D01*
X108483000Y-71035857D01*
X108483000Y-70249750D01*
X108312250Y-70079000D01*
X106079000Y-70079000D01*
X105921000Y-70079000D01*
X103687750Y-70079000D01*
X103517000Y-70249750D01*
X100758000Y-70249750D01*
X100758000Y-68964143D01*
X103517000Y-68964143D01*
X103517000Y-69750250D01*
X103687750Y-69921000D01*
X105921000Y-69921000D01*
X105921000Y-68587750D01*
X106079000Y-68587750D01*
X106079000Y-69921000D01*
X108312250Y-69921000D01*
X108483000Y-69750250D01*
X108483000Y-68964143D01*
X108394510Y-68750510D01*
X110166968Y-68750510D01*
X110166968Y-70749490D01*
X110224494Y-71055217D01*
X110405179Y-71336008D01*
X110432620Y-71354758D01*
X110432620Y-72249490D01*
X110552510Y-72852217D01*
X110893927Y-73363183D01*
X114774999Y-77244255D01*
X114774999Y-81849999D01*
X114894889Y-82452726D01*
X115236306Y-82963692D01*
X116925085Y-84652471D01*
X116924598Y-85210442D01*
X117277812Y-86065286D01*
X117931274Y-86719889D01*
X118785500Y-87074595D01*
X119710442Y-87075402D01*
X120565286Y-86722188D01*
X121219889Y-86068726D01*
X121574595Y-85214500D01*
X121575402Y-84289558D01*
X121222188Y-83434714D01*
X120568726Y-82780111D01*
X119714500Y-82425405D01*
X119152300Y-82424914D01*
X117924999Y-81197613D01*
X117924999Y-76591869D01*
X117805109Y-75989143D01*
X117805109Y-75989142D01*
X117463692Y-75478176D01*
X115888131Y-73902615D01*
X117216648Y-73902615D01*
X117525501Y-74650098D01*
X118096894Y-75222489D01*
X118843837Y-75532647D01*
X119652615Y-75533352D01*
X120400098Y-75224499D01*
X120972489Y-74653106D01*
X121282647Y-73906163D01*
X121282848Y-73675000D01*
X126708838Y-73675000D01*
X126708838Y-89425000D01*
X126766364Y-89730727D01*
X126947049Y-90011518D01*
X127222741Y-90199890D01*
X127550000Y-90266162D01*
X137550000Y-90266162D01*
X137855727Y-90208636D01*
X138136518Y-90027951D01*
X138324890Y-89752259D01*
X138391162Y-89425000D01*
X138391162Y-86398770D01*
X139217560Y-86398770D01*
X139217560Y-86884317D01*
X139321541Y-87135348D01*
X139513671Y-87327479D01*
X139764703Y-87431460D01*
X140250250Y-87431460D01*
X140421000Y-87260710D01*
X140421000Y-86228020D01*
X139388310Y-86228020D01*
X139217560Y-86398770D01*
X138391162Y-86398770D01*
X138391162Y-83451540D01*
X139059398Y-83451540D01*
X139059398Y-84650420D01*
X139116924Y-84956147D01*
X139293459Y-85230488D01*
X139217560Y-85413723D01*
X139217560Y-85899270D01*
X139388310Y-86070020D01*
X140421000Y-86070020D01*
X140421000Y-86050020D01*
X140579000Y-86050020D01*
X140579000Y-86070020D01*
X140599000Y-86070020D01*
X140599000Y-86228020D01*
X140579000Y-86228020D01*
X140579000Y-87260710D01*
X140749750Y-87431460D01*
X141235297Y-87431460D01*
X141486329Y-87327479D01*
X141517000Y-87296808D01*
X141517000Y-88035857D01*
X141620981Y-88286888D01*
X141813111Y-88479019D01*
X142064143Y-88583000D01*
X143750250Y-88583000D01*
X143921000Y-88412250D01*
X143921000Y-87079000D01*
X144079000Y-87079000D01*
X144079000Y-88412250D01*
X144249750Y-88583000D01*
X145935857Y-88583000D01*
X146186889Y-88479019D01*
X146379019Y-88286888D01*
X146483000Y-88035857D01*
X146483000Y-87249750D01*
X146312250Y-87079000D01*
X144079000Y-87079000D01*
X143921000Y-87079000D01*
X143901000Y-87079000D01*
X143901000Y-86921000D01*
X143921000Y-86921000D01*
X143921000Y-85587750D01*
X144079000Y-85587750D01*
X144079000Y-86921000D01*
X146312250Y-86921000D01*
X146483000Y-86750250D01*
X146483000Y-85964143D01*
X146379019Y-85713112D01*
X146186889Y-85520981D01*
X145935857Y-85417000D01*
X144249750Y-85417000D01*
X144079000Y-85587750D01*
X143921000Y-85587750D01*
X143750250Y-85417000D01*
X142064143Y-85417000D01*
X141813111Y-85520981D01*
X141782440Y-85551652D01*
X141782440Y-85413723D01*
X141704674Y-85225980D01*
X141874330Y-84977679D01*
X141914911Y-84777287D01*
X142388444Y-85093692D01*
X143048573Y-85225000D01*
X144951427Y-85225000D01*
X145611556Y-85093692D01*
X146171186Y-84719759D01*
X146545119Y-84160129D01*
X146676427Y-83500000D01*
X146545119Y-82839871D01*
X146346811Y-82543082D01*
X146425000Y-82150000D01*
X146425000Y-80421234D01*
X146686518Y-80252951D01*
X146874890Y-79977259D01*
X146941162Y-79650000D01*
X146941162Y-78350000D01*
X146883636Y-78044273D01*
X146702951Y-77763482D01*
X146427259Y-77575110D01*
X146100000Y-77508838D01*
X144600000Y-77508838D01*
X144294273Y-77566364D01*
X144013482Y-77747049D01*
X144002476Y-77763157D01*
X143727259Y-77575110D01*
X143400000Y-77508838D01*
X141900000Y-77508838D01*
X141594273Y-77566364D01*
X141313482Y-77747049D01*
X141125110Y-78022741D01*
X141058838Y-78350000D01*
X141058838Y-79650000D01*
X141116364Y-79955727D01*
X141197658Y-80082062D01*
X139739860Y-81539860D01*
X139506830Y-81888615D01*
X139425000Y-82300000D01*
X139425000Y-82777189D01*
X139314042Y-82848589D01*
X139125670Y-83124281D01*
X139059398Y-83451540D01*
X138391162Y-83451540D01*
X138391162Y-73675000D01*
X138333636Y-73369273D01*
X138152951Y-73088482D01*
X137877259Y-72900110D01*
X137550000Y-72833838D01*
X127550000Y-72833838D01*
X127244273Y-72891364D01*
X126963482Y-73072049D01*
X126775110Y-73347741D01*
X126708838Y-73675000D01*
X121282848Y-73675000D01*
X121283352Y-73097385D01*
X120974499Y-72349902D01*
X120403106Y-71777511D01*
X119656163Y-71467353D01*
X118847385Y-71466648D01*
X118099902Y-71775501D01*
X117527511Y-72346894D01*
X117217353Y-73093837D01*
X117216648Y-73902615D01*
X115888131Y-73902615D01*
X113582620Y-71597104D01*
X113582620Y-71359524D01*
X113593628Y-71352441D01*
X113782000Y-71076749D01*
X113848272Y-70749490D01*
X113848272Y-69000000D01*
X125533838Y-69000000D01*
X125533838Y-70500000D01*
X125591364Y-70805727D01*
X125772049Y-71086518D01*
X126047741Y-71274890D01*
X126375000Y-71341162D01*
X127625000Y-71341162D01*
X127930727Y-71283636D01*
X128211518Y-71102951D01*
X128386952Y-70846195D01*
X128462844Y-71227731D01*
X128825858Y-71771020D01*
X129369147Y-72134034D01*
X130010000Y-72261508D01*
X130650853Y-72134034D01*
X131194142Y-71771020D01*
X131280000Y-71642524D01*
X131365858Y-71771020D01*
X131909147Y-72134034D01*
X132550000Y-72261508D01*
X133190853Y-72134034D01*
X133734142Y-71771020D01*
X133820000Y-71642524D01*
X133905858Y-71771020D01*
X134449147Y-72134034D01*
X135090000Y-72261508D01*
X135730853Y-72134034D01*
X136274142Y-71771020D01*
X136637156Y-71227731D01*
X136764630Y-70586878D01*
X136764630Y-68685122D01*
X136637156Y-68044269D01*
X136362701Y-67633519D01*
X136510140Y-67486080D01*
X136523768Y-67465683D01*
X139217560Y-67465683D01*
X139217560Y-67951230D01*
X139388310Y-68121980D01*
X140421000Y-68121980D01*
X140421000Y-67089290D01*
X140250250Y-66918540D01*
X139764703Y-66918540D01*
X139513671Y-67022521D01*
X139321541Y-67214652D01*
X139217560Y-67465683D01*
X136523768Y-67465683D01*
X136629129Y-67308000D01*
X136743170Y-67137325D01*
X136825000Y-66725940D01*
X136825000Y-64420000D01*
X136743170Y-64008615D01*
X136510140Y-63659860D01*
X134916943Y-62066663D01*
X134917275Y-61685711D01*
X134676177Y-61102211D01*
X134230137Y-60655392D01*
X133647059Y-60413276D01*
X133015711Y-60412725D01*
X132432211Y-60653823D01*
X131985392Y-61099863D01*
X131951623Y-61181187D01*
X131765214Y-61136509D01*
X130901723Y-62000000D01*
X131765214Y-62863491D01*
X131951230Y-62818908D01*
X131983823Y-62897789D01*
X132429863Y-63344608D01*
X133012941Y-63586724D01*
X133396779Y-63587059D01*
X134675000Y-64865280D01*
X134675000Y-66280660D01*
X134341162Y-66614498D01*
X134341162Y-65375000D01*
X134283636Y-65069273D01*
X134102951Y-64788482D01*
X133827259Y-64600110D01*
X133500000Y-64533838D01*
X132000000Y-64533838D01*
X131694273Y-64591364D01*
X131413482Y-64772049D01*
X131392973Y-64802066D01*
X131386888Y-64795981D01*
X131135857Y-64692000D01*
X130499750Y-64692000D01*
X130329000Y-64862750D01*
X130329000Y-65921000D01*
X130349000Y-65921000D01*
X130349000Y-66079000D01*
X130329000Y-66079000D01*
X130329000Y-66099000D01*
X130171000Y-66099000D01*
X130171000Y-66079000D01*
X128987750Y-66079000D01*
X128817000Y-66249750D01*
X128817000Y-66760857D01*
X128920981Y-67011889D01*
X129113112Y-67204019D01*
X129210141Y-67244210D01*
X128825858Y-67500980D01*
X128462844Y-68044269D01*
X128351280Y-68605139D01*
X128227951Y-68413482D01*
X128197934Y-68392973D01*
X128204019Y-68386888D01*
X128308000Y-68135857D01*
X128308000Y-67499750D01*
X128137250Y-67329000D01*
X127079000Y-67329000D01*
X127079000Y-67349000D01*
X126921000Y-67349000D01*
X126921000Y-67329000D01*
X125862750Y-67329000D01*
X125692000Y-67499750D01*
X125692000Y-68135857D01*
X125795981Y-68386888D01*
X125799227Y-68390134D01*
X125788482Y-68397049D01*
X125600110Y-68672741D01*
X125533838Y-69000000D01*
X113848272Y-69000000D01*
X113848272Y-68750510D01*
X113790746Y-68444783D01*
X113610061Y-68163992D01*
X113334369Y-67975620D01*
X113007110Y-67909348D01*
X111008130Y-67909348D01*
X110702403Y-67966874D01*
X110421612Y-68147559D01*
X110233240Y-68423251D01*
X110166968Y-68750510D01*
X108394510Y-68750510D01*
X108379019Y-68713112D01*
X108186889Y-68520981D01*
X107935857Y-68417000D01*
X106249750Y-68417000D01*
X106079000Y-68587750D01*
X105921000Y-68587750D01*
X105750250Y-68417000D01*
X104064143Y-68417000D01*
X103813111Y-68520981D01*
X103620981Y-68713112D01*
X103517000Y-68964143D01*
X100758000Y-68964143D01*
X100758000Y-66364143D01*
X125692000Y-66364143D01*
X125692000Y-67000250D01*
X125862750Y-67171000D01*
X126921000Y-67171000D01*
X126921000Y-65987750D01*
X127079000Y-65987750D01*
X127079000Y-67171000D01*
X128137250Y-67171000D01*
X128308000Y-67000250D01*
X128308000Y-66364143D01*
X128204019Y-66113112D01*
X128011889Y-65920981D01*
X127760857Y-65817000D01*
X127249750Y-65817000D01*
X127079000Y-65987750D01*
X126921000Y-65987750D01*
X126750250Y-65817000D01*
X126239143Y-65817000D01*
X125988111Y-65920981D01*
X125795981Y-66113112D01*
X125692000Y-66364143D01*
X100758000Y-66364143D01*
X100758000Y-65239143D01*
X128817000Y-65239143D01*
X128817000Y-65750250D01*
X128987750Y-65921000D01*
X130171000Y-65921000D01*
X130171000Y-64862750D01*
X130000250Y-64692000D01*
X129364143Y-64692000D01*
X129113112Y-64795981D01*
X128920981Y-64988111D01*
X128817000Y-65239143D01*
X100758000Y-65239143D01*
X100758000Y-63500000D01*
X103323573Y-63500000D01*
X103454881Y-64160129D01*
X103828814Y-64719759D01*
X104388444Y-65093692D01*
X105048573Y-65225000D01*
X106951427Y-65225000D01*
X107611556Y-65093692D01*
X108171186Y-64719759D01*
X108545119Y-64160129D01*
X108676427Y-63500000D01*
X108545119Y-62839871D01*
X108458638Y-62710442D01*
X116924598Y-62710442D01*
X117277812Y-63565286D01*
X117931274Y-64219889D01*
X118785500Y-64574595D01*
X119710442Y-64575402D01*
X120565286Y-64222188D01*
X121219889Y-63568726D01*
X121466336Y-62975214D01*
X127386509Y-62975214D01*
X127449169Y-63236652D01*
X127983375Y-63448983D01*
X128558172Y-63440718D01*
X129050831Y-63236652D01*
X129113491Y-62975214D01*
X129926509Y-62975214D01*
X129989169Y-63236652D01*
X130523375Y-63448983D01*
X131098172Y-63440718D01*
X131590831Y-63236652D01*
X131653491Y-62975214D01*
X130790000Y-62111723D01*
X129926509Y-62975214D01*
X129113491Y-62975214D01*
X128250000Y-62111723D01*
X127386509Y-62975214D01*
X121466336Y-62975214D01*
X121574595Y-62714500D01*
X121575402Y-61789558D01*
X121552188Y-61733375D01*
X126801017Y-61733375D01*
X126809282Y-62308172D01*
X127013348Y-62800831D01*
X127274786Y-62863491D01*
X128138277Y-62000000D01*
X128361723Y-62000000D01*
X129225214Y-62863491D01*
X129486652Y-62800831D01*
X129519312Y-62718661D01*
X129553348Y-62800831D01*
X129814786Y-62863491D01*
X130678277Y-62000000D01*
X129814786Y-61136509D01*
X129553348Y-61199169D01*
X129520688Y-61281339D01*
X129486652Y-61199169D01*
X129225214Y-61136509D01*
X128361723Y-62000000D01*
X128138277Y-62000000D01*
X127274786Y-61136509D01*
X127013348Y-61199169D01*
X126801017Y-61733375D01*
X121552188Y-61733375D01*
X121259405Y-61024786D01*
X127386509Y-61024786D01*
X128250000Y-61888277D01*
X129113491Y-61024786D01*
X129926509Y-61024786D01*
X130790000Y-61888277D01*
X131653491Y-61024786D01*
X131590831Y-60763348D01*
X131056625Y-60551017D01*
X130481828Y-60559282D01*
X129989169Y-60763348D01*
X129926509Y-61024786D01*
X129113491Y-61024786D01*
X129050831Y-60763348D01*
X128516625Y-60551017D01*
X127941828Y-60559282D01*
X127449169Y-60763348D01*
X127386509Y-61024786D01*
X121259405Y-61024786D01*
X121222188Y-60934714D01*
X120568726Y-60280111D01*
X119714500Y-59925405D01*
X118789558Y-59924598D01*
X117934714Y-60277812D01*
X117280111Y-60931274D01*
X116925405Y-61785500D01*
X116924598Y-62710442D01*
X108458638Y-62710442D01*
X108171186Y-62280241D01*
X107611556Y-61906308D01*
X106951427Y-61775000D01*
X105048573Y-61775000D01*
X104388444Y-61906308D01*
X103828814Y-62280241D01*
X103454881Y-62839871D01*
X103323573Y-63500000D01*
X100758000Y-63500000D01*
X100758000Y-60249750D01*
X103517000Y-60249750D01*
X103517000Y-61035857D01*
X103620981Y-61286888D01*
X103813111Y-61479019D01*
X104064143Y-61583000D01*
X105750250Y-61583000D01*
X105921000Y-61412250D01*
X105921000Y-60079000D01*
X106079000Y-60079000D01*
X106079000Y-61412250D01*
X106249750Y-61583000D01*
X107935857Y-61583000D01*
X108186889Y-61479019D01*
X108379019Y-61286888D01*
X108483000Y-61035857D01*
X108483000Y-60249750D01*
X108312250Y-60079000D01*
X106079000Y-60079000D01*
X105921000Y-60079000D01*
X103687750Y-60079000D01*
X103517000Y-60249750D01*
X100758000Y-60249750D01*
X100758000Y-58964143D01*
X103517000Y-58964143D01*
X103517000Y-59750250D01*
X103687750Y-59921000D01*
X105921000Y-59921000D01*
X105921000Y-58587750D01*
X106079000Y-58587750D01*
X106079000Y-59921000D01*
X108312250Y-59921000D01*
X108483000Y-59750250D01*
X108483000Y-58964143D01*
X108379019Y-58713112D01*
X108186889Y-58520981D01*
X107935857Y-58417000D01*
X106249750Y-58417000D01*
X106079000Y-58587750D01*
X105921000Y-58587750D01*
X105750250Y-58417000D01*
X104064143Y-58417000D01*
X103813111Y-58520981D01*
X103620981Y-58713112D01*
X103517000Y-58964143D01*
X100758000Y-58964143D01*
X100758000Y-55048573D01*
X113775000Y-55048573D01*
X113775000Y-56951427D01*
X113906308Y-57611556D01*
X114280241Y-58171186D01*
X114839871Y-58545119D01*
X115500000Y-58676427D01*
X116160129Y-58545119D01*
X116719759Y-58171186D01*
X117093692Y-57611556D01*
X117225000Y-56951427D01*
X117225000Y-55048573D01*
X117275000Y-55048573D01*
X117275000Y-56951427D01*
X117406308Y-57611556D01*
X117780241Y-58171186D01*
X118339871Y-58545119D01*
X119000000Y-58676427D01*
X119660129Y-58545119D01*
X120219759Y-58171186D01*
X120593692Y-57611556D01*
X120725000Y-56951427D01*
X120725000Y-55048573D01*
X120775000Y-55048573D01*
X120775000Y-56951427D01*
X120906308Y-57611556D01*
X121280241Y-58171186D01*
X121839871Y-58545119D01*
X122500000Y-58676427D01*
X123160129Y-58545119D01*
X123719759Y-58171186D01*
X124093692Y-57611556D01*
X124225000Y-56951427D01*
X124225000Y-56249750D01*
X124417000Y-56249750D01*
X124417000Y-57935857D01*
X124520981Y-58186889D01*
X124713112Y-58379019D01*
X124964143Y-58483000D01*
X125750250Y-58483000D01*
X125921000Y-58312250D01*
X125921000Y-56079000D01*
X126079000Y-56079000D01*
X126079000Y-58312250D01*
X126249750Y-58483000D01*
X127035857Y-58483000D01*
X127286888Y-58379019D01*
X127479019Y-58186889D01*
X127583000Y-57935857D01*
X127583000Y-56249750D01*
X127412250Y-56079000D01*
X126079000Y-56079000D01*
X125921000Y-56079000D01*
X124587750Y-56079000D01*
X124417000Y-56249750D01*
X124225000Y-56249750D01*
X124225000Y-55048573D01*
X124093692Y-54388444D01*
X123877001Y-54064143D01*
X124417000Y-54064143D01*
X124417000Y-55750250D01*
X124587750Y-55921000D01*
X125921000Y-55921000D01*
X125921000Y-53687750D01*
X126079000Y-53687750D01*
X126079000Y-55921000D01*
X127412250Y-55921000D01*
X127583000Y-55750250D01*
X127583000Y-55048573D01*
X134025000Y-55048573D01*
X134025000Y-56951427D01*
X134156308Y-57611556D01*
X134530241Y-58171186D01*
X135089871Y-58545119D01*
X135750000Y-58676427D01*
X136410129Y-58545119D01*
X136969759Y-58171186D01*
X137343692Y-57611556D01*
X137475000Y-56951427D01*
X137475000Y-55048573D01*
X137343692Y-54388444D01*
X137217778Y-54200000D01*
X137508838Y-54200000D01*
X137508838Y-57800000D01*
X137566364Y-58105727D01*
X137675000Y-58274551D01*
X137675000Y-62750000D01*
X137794890Y-63352727D01*
X138136307Y-63863693D01*
X141191154Y-66918540D01*
X140749750Y-66918540D01*
X140579000Y-67089290D01*
X140579000Y-68121980D01*
X140599000Y-68121980D01*
X140599000Y-68279980D01*
X140579000Y-68279980D01*
X140579000Y-68299980D01*
X140421000Y-68299980D01*
X140421000Y-68279980D01*
X139388310Y-68279980D01*
X139217560Y-68450730D01*
X139217560Y-68936277D01*
X139295326Y-69124020D01*
X139125670Y-69372321D01*
X139059398Y-69699580D01*
X139059398Y-70898460D01*
X139116924Y-71204187D01*
X139297609Y-71484978D01*
X139425000Y-71572020D01*
X139425000Y-73550000D01*
X139506830Y-73961385D01*
X139558434Y-74038616D01*
X139739860Y-74310140D01*
X141058838Y-75629118D01*
X141058838Y-76250000D01*
X141116364Y-76555727D01*
X141297049Y-76836518D01*
X141572741Y-77024890D01*
X141900000Y-77091162D01*
X143400000Y-77091162D01*
X143705727Y-77033636D01*
X143986518Y-76852951D01*
X143997524Y-76836843D01*
X144272741Y-77024890D01*
X144600000Y-77091162D01*
X146100000Y-77091162D01*
X146405727Y-77033636D01*
X146686518Y-76852951D01*
X146874890Y-76577259D01*
X146941162Y-76250000D01*
X146941162Y-74950000D01*
X146883636Y-74644273D01*
X146802342Y-74517938D01*
X147460141Y-73860139D01*
X147693172Y-73511383D01*
X147775001Y-73099999D01*
X147775001Y-69300001D01*
X147693171Y-68888616D01*
X147460141Y-68539861D01*
X146633929Y-67713649D01*
X146676427Y-67500000D01*
X146545119Y-66839871D01*
X146171186Y-66280241D01*
X145611556Y-65906308D01*
X144951427Y-65775000D01*
X144502386Y-65775000D01*
X140825000Y-62097614D01*
X140825000Y-58273453D01*
X140924890Y-58127259D01*
X140991162Y-57800000D01*
X140991162Y-54200000D01*
X140933636Y-53894273D01*
X140752951Y-53613482D01*
X140477259Y-53425110D01*
X140150000Y-53358838D01*
X138350000Y-53358838D01*
X138044273Y-53416364D01*
X137763482Y-53597049D01*
X137575110Y-53872741D01*
X137508838Y-54200000D01*
X137217778Y-54200000D01*
X136969759Y-53828814D01*
X136410129Y-53454881D01*
X135750000Y-53323573D01*
X135089871Y-53454881D01*
X134530241Y-53828814D01*
X134156308Y-54388444D01*
X134025000Y-55048573D01*
X127583000Y-55048573D01*
X127583000Y-54064143D01*
X127479019Y-53813111D01*
X127286888Y-53620981D01*
X127035857Y-53517000D01*
X126249750Y-53517000D01*
X126079000Y-53687750D01*
X125921000Y-53687750D01*
X125750250Y-53517000D01*
X124964143Y-53517000D01*
X124713112Y-53620981D01*
X124520981Y-53813111D01*
X124417000Y-54064143D01*
X123877001Y-54064143D01*
X123719759Y-53828814D01*
X123160129Y-53454881D01*
X122500000Y-53323573D01*
X121839871Y-53454881D01*
X121280241Y-53828814D01*
X120906308Y-54388444D01*
X120775000Y-55048573D01*
X120725000Y-55048573D01*
X120593692Y-54388444D01*
X120219759Y-53828814D01*
X119660129Y-53454881D01*
X119000000Y-53323573D01*
X118339871Y-53454881D01*
X117780241Y-53828814D01*
X117406308Y-54388444D01*
X117275000Y-55048573D01*
X117225000Y-55048573D01*
X117093692Y-54388444D01*
X116719759Y-53828814D01*
X116160129Y-53454881D01*
X115500000Y-53323573D01*
X114839871Y-53454881D01*
X114280241Y-53828814D01*
X113906308Y-54388444D01*
X113775000Y-55048573D01*
X100758000Y-55048573D01*
X100758000Y-50758000D01*
X149242000Y-50758000D01*
X149242000Y-99242000D01*
G36*
X141828814Y-68719759D02*
X142388444Y-69093692D01*
X143048573Y-69225000D01*
X144951427Y-69225000D01*
X145079287Y-69199567D01*
X145296720Y-69417000D01*
X144249750Y-69417000D01*
X144079000Y-69587750D01*
X144079000Y-70921000D01*
X144099000Y-70921000D01*
X144099000Y-71079000D01*
X144079000Y-71079000D01*
X144079000Y-72412250D01*
X144249750Y-72583000D01*
X145625001Y-72583000D01*
X145625001Y-72654719D01*
X144589860Y-73689860D01*
X144356830Y-74038615D01*
X144332863Y-74159103D01*
X144294273Y-74166364D01*
X144013482Y-74347049D01*
X144002476Y-74363157D01*
X143727259Y-74175110D01*
X143400000Y-74108838D01*
X142579118Y-74108838D01*
X141575000Y-73104720D01*
X141575000Y-72175881D01*
X141620981Y-72286888D01*
X141813111Y-72479019D01*
X142064143Y-72583000D01*
X143750250Y-72583000D01*
X143921000Y-72412250D01*
X143921000Y-71079000D01*
X143901000Y-71079000D01*
X143901000Y-70921000D01*
X143921000Y-70921000D01*
X143921000Y-69587750D01*
X143750250Y-69417000D01*
X142064143Y-69417000D01*
X141900208Y-69484904D01*
X141883076Y-69393853D01*
X141706541Y-69119512D01*
X141782440Y-68936277D01*
X141782440Y-68650355D01*
X141828814Y-68719759D01*
X141828814Y-68719759D01*
G37*
X141828814Y-68719759D02*
X142388444Y-69093692D01*
X143048573Y-69225000D01*
X144951427Y-69225000D01*
X145079287Y-69199567D01*
X145296720Y-69417000D01*
X144249750Y-69417000D01*
X144079000Y-69587750D01*
X144079000Y-70921000D01*
X144099000Y-70921000D01*
X144099000Y-71079000D01*
X144079000Y-71079000D01*
X144079000Y-72412250D01*
X144249750Y-72583000D01*
X145625001Y-72583000D01*
X145625001Y-72654719D01*
X144589860Y-73689860D01*
X144356830Y-74038615D01*
X144332863Y-74159103D01*
X144294273Y-74166364D01*
X144013482Y-74347049D01*
X144002476Y-74363157D01*
X143727259Y-74175110D01*
X143400000Y-74108838D01*
X142579118Y-74108838D01*
X141575000Y-73104720D01*
X141575000Y-72175881D01*
X141620981Y-72286888D01*
X141813111Y-72479019D01*
X142064143Y-72583000D01*
X143750250Y-72583000D01*
X143921000Y-72412250D01*
X143921000Y-71079000D01*
X143901000Y-71079000D01*
X143901000Y-70921000D01*
X143921000Y-70921000D01*
X143921000Y-69587750D01*
X143750250Y-69417000D01*
X142064143Y-69417000D01*
X141900208Y-69484904D01*
X141883076Y-69393853D01*
X141706541Y-69119512D01*
X141782440Y-68936277D01*
X141782440Y-68650355D01*
X141828814Y-68719759D01*
D37*
G36*
X199700000Y-99550000D02*
X150600000Y-99550000D01*
X150600000Y-88534362D01*
X158093000Y-88534362D01*
X158093000Y-89389024D01*
X158189369Y-89621678D01*
X158367435Y-89799744D01*
X158600089Y-89896112D01*
X158946750Y-89896112D01*
X159105000Y-89737862D01*
X159105000Y-88376112D01*
X159363000Y-88376112D01*
X159363000Y-89737862D01*
X159521250Y-89896112D01*
X159867911Y-89896112D01*
X160100565Y-89799744D01*
X160278631Y-89621678D01*
X160375000Y-89389024D01*
X160375000Y-88534362D01*
X160216750Y-88376112D01*
X159363000Y-88376112D01*
X159105000Y-88376112D01*
X158251250Y-88376112D01*
X158093000Y-88534362D01*
X150600000Y-88534362D01*
X150600000Y-84779088D01*
X157677000Y-84779088D01*
X157677000Y-85242750D01*
X157835250Y-85401000D01*
X158931000Y-85401000D01*
X158931000Y-84430250D01*
X158772750Y-84272000D01*
X158184089Y-84272000D01*
X157951435Y-84368368D01*
X157773369Y-84546434D01*
X157677000Y-84779088D01*
X150600000Y-84779088D01*
X150600000Y-80320000D01*
X153891749Y-80320000D01*
X153986032Y-80793992D01*
X154254527Y-81195822D01*
X154656357Y-81464317D01*
X155130349Y-81558600D01*
X155489651Y-81558600D01*
X155963643Y-81464317D01*
X156365473Y-81195822D01*
X156633968Y-80793992D01*
X156728251Y-80320000D01*
X156633968Y-79846008D01*
X156365473Y-79444178D01*
X155963643Y-79175683D01*
X155489651Y-79081400D01*
X155130349Y-79081400D01*
X154656357Y-79175683D01*
X154254527Y-79444178D01*
X153986032Y-79846008D01*
X153891749Y-80320000D01*
X150600000Y-80320000D01*
X150600000Y-77780000D01*
X153891749Y-77780000D01*
X153986032Y-78253992D01*
X154254527Y-78655822D01*
X154656357Y-78924317D01*
X155130349Y-79018600D01*
X155489651Y-79018600D01*
X155963643Y-78924317D01*
X156365473Y-78655822D01*
X156633968Y-78253992D01*
X156728251Y-77780000D01*
X156633968Y-77306008D01*
X156365473Y-76904178D01*
X155963643Y-76635683D01*
X155489651Y-76541400D01*
X155130349Y-76541400D01*
X154656357Y-76635683D01*
X154254527Y-76904178D01*
X153986032Y-77306008D01*
X153891749Y-77780000D01*
X150600000Y-77780000D01*
X150600000Y-60057256D01*
X153909757Y-60057256D01*
X154122445Y-60572000D01*
X154515928Y-60966170D01*
X154865302Y-61111243D01*
X154602857Y-61219684D01*
X154250919Y-61571007D01*
X154060217Y-62030269D01*
X154059783Y-62527550D01*
X154249684Y-62987143D01*
X154601007Y-63339081D01*
X155060269Y-63529783D01*
X155062445Y-63529785D01*
X154602857Y-63719684D01*
X154250919Y-64071007D01*
X154060217Y-64530269D01*
X154059783Y-65027550D01*
X154249684Y-65487143D01*
X154601007Y-65839081D01*
X155060269Y-66029783D01*
X155062445Y-66029785D01*
X154602857Y-66219684D01*
X154250919Y-66571007D01*
X154060217Y-67030269D01*
X154059783Y-67527550D01*
X154249684Y-67987143D01*
X154601007Y-68339081D01*
X155060269Y-68529783D01*
X155557550Y-68530217D01*
X156017143Y-68340316D01*
X156369081Y-67988993D01*
X156559783Y-67529731D01*
X156560217Y-67032450D01*
X156370316Y-66572857D01*
X156018993Y-66220919D01*
X155559731Y-66030217D01*
X155557555Y-66030215D01*
X156017143Y-65840316D01*
X156369081Y-65488993D01*
X156559783Y-65029731D01*
X156560217Y-64532450D01*
X156370316Y-64072857D01*
X156018993Y-63720919D01*
X155559731Y-63530217D01*
X155557555Y-63530215D01*
X156017143Y-63340316D01*
X156369081Y-62988993D01*
X156559783Y-62529731D01*
X156560135Y-62126151D01*
X157035000Y-62601016D01*
X157035000Y-70741406D01*
X157093993Y-71037986D01*
X157261992Y-71289414D01*
X159220821Y-73248243D01*
X159220821Y-74036111D01*
X159192856Y-74008097D01*
X158944855Y-73905117D01*
X158676323Y-73904883D01*
X158428143Y-74007429D01*
X158238097Y-74197144D01*
X158135117Y-74445145D01*
X158134883Y-74713677D01*
X158237429Y-74961857D01*
X158427144Y-75151903D01*
X158675145Y-75254883D01*
X158777866Y-75254973D01*
X159373760Y-75850867D01*
X159373760Y-76887512D01*
X159399908Y-77026478D01*
X159482037Y-77154111D01*
X159607352Y-77239735D01*
X159756106Y-77269858D01*
X160654569Y-77269858D01*
X160935000Y-77550289D01*
X160935000Y-84522654D01*
X160810000Y-84522654D01*
X160671034Y-84548802D01*
X160543401Y-84630931D01*
X160457777Y-84756246D01*
X160443000Y-84829218D01*
X160443000Y-84779088D01*
X160346631Y-84546434D01*
X160168565Y-84368368D01*
X159935911Y-84272000D01*
X159347250Y-84272000D01*
X159189000Y-84430250D01*
X159189000Y-85401000D01*
X159209000Y-85401000D01*
X159209000Y-85659000D01*
X159189000Y-85659000D01*
X159189000Y-85679000D01*
X158931000Y-85679000D01*
X158931000Y-85659000D01*
X157835250Y-85659000D01*
X157677000Y-85817250D01*
X157677000Y-86280912D01*
X157773369Y-86513566D01*
X157951435Y-86691632D01*
X158184089Y-86788000D01*
X158273915Y-86788000D01*
X158189369Y-86872546D01*
X158093000Y-87105200D01*
X158093000Y-87959862D01*
X158251250Y-88118112D01*
X159105000Y-88118112D01*
X159105000Y-88098112D01*
X159363000Y-88098112D01*
X159363000Y-88118112D01*
X160216750Y-88118112D01*
X160375000Y-87959862D01*
X160375000Y-87105200D01*
X160278631Y-86872546D01*
X160118468Y-86712383D01*
X160168565Y-86691632D01*
X160346631Y-86513566D01*
X160443000Y-86280912D01*
X160443000Y-86236558D01*
X160453802Y-86293966D01*
X160535931Y-86421599D01*
X160661246Y-86507223D01*
X160810000Y-86537346D01*
X160895000Y-86537346D01*
X160895000Y-86870781D01*
X160873034Y-86874914D01*
X160745401Y-86957043D01*
X160659777Y-87082358D01*
X160629654Y-87231112D01*
X160629654Y-89263112D01*
X160655802Y-89402078D01*
X160737931Y-89529711D01*
X160863246Y-89615335D01*
X160895000Y-89621765D01*
X160895000Y-93452766D01*
X159691200Y-93452766D01*
X159552234Y-93478914D01*
X159424601Y-93561043D01*
X159338977Y-93686358D01*
X159308854Y-93835112D01*
X159308854Y-95867112D01*
X159335002Y-96006078D01*
X159417131Y-96133711D01*
X159542446Y-96219335D01*
X159691200Y-96249458D01*
X163348800Y-96249458D01*
X163487766Y-96223310D01*
X163615399Y-96141181D01*
X163701023Y-96015866D01*
X163731146Y-95867112D01*
X163731146Y-93835112D01*
X163704998Y-93696146D01*
X163622869Y-93568513D01*
X163497554Y-93482889D01*
X163348800Y-93452766D01*
X162145000Y-93452766D01*
X162145000Y-91017250D01*
X165052000Y-91017250D01*
X165052000Y-91605911D01*
X165148368Y-91838565D01*
X165326434Y-92016631D01*
X165559088Y-92113000D01*
X166022750Y-92113000D01*
X166181000Y-91954750D01*
X166181000Y-90859000D01*
X166439000Y-90859000D01*
X166439000Y-91954750D01*
X166597250Y-92113000D01*
X167060912Y-92113000D01*
X167293566Y-92016631D01*
X167471632Y-91838565D01*
X167568000Y-91605911D01*
X167568000Y-91017250D01*
X167409750Y-90859000D01*
X166439000Y-90859000D01*
X166181000Y-90859000D01*
X165210250Y-90859000D01*
X165052000Y-91017250D01*
X162145000Y-91017250D01*
X162145000Y-89623443D01*
X162166966Y-89619310D01*
X162294599Y-89537181D01*
X162380223Y-89411866D01*
X162410346Y-89263112D01*
X162410346Y-87231112D01*
X162384198Y-87092146D01*
X162302069Y-86964513D01*
X162176754Y-86878889D01*
X162145000Y-86872459D01*
X162145000Y-86537346D01*
X162310000Y-86537346D01*
X162448966Y-86511198D01*
X162576599Y-86429069D01*
X162662223Y-86303754D01*
X162692346Y-86155000D01*
X162692346Y-84905000D01*
X162666198Y-84766034D01*
X162584069Y-84638401D01*
X162458754Y-84552777D01*
X162310000Y-84522654D01*
X162185000Y-84522654D01*
X162185000Y-83993038D01*
X162341342Y-83961940D01*
X162503553Y-83853553D01*
X162682078Y-83675028D01*
X162783677Y-83675117D01*
X163031857Y-83572571D01*
X163221903Y-83382856D01*
X163255547Y-83301833D01*
X163775915Y-83822201D01*
X163364058Y-84234058D01*
X163228575Y-84436823D01*
X163181000Y-84676000D01*
X163181000Y-86870781D01*
X163159034Y-86874914D01*
X163031401Y-86957043D01*
X162945777Y-87082358D01*
X162915654Y-87231112D01*
X162915654Y-89263112D01*
X162941802Y-89402078D01*
X163023931Y-89529711D01*
X163149246Y-89615335D01*
X163298000Y-89645458D01*
X164314000Y-89645458D01*
X164452966Y-89619310D01*
X164580599Y-89537181D01*
X164666223Y-89411866D01*
X164696346Y-89263112D01*
X164696346Y-88855000D01*
X165302654Y-88855000D01*
X165302654Y-88980000D01*
X165328802Y-89118966D01*
X165410931Y-89246599D01*
X165536246Y-89332223D01*
X165609218Y-89347000D01*
X165559088Y-89347000D01*
X165326434Y-89443369D01*
X165148368Y-89621435D01*
X165052000Y-89854089D01*
X165052000Y-90442750D01*
X165210250Y-90601000D01*
X166181000Y-90601000D01*
X166181000Y-90581000D01*
X166439000Y-90581000D01*
X166439000Y-90601000D01*
X167409750Y-90601000D01*
X167568000Y-90442750D01*
X167568000Y-89854089D01*
X167471632Y-89621435D01*
X167293566Y-89443369D01*
X167060912Y-89347000D01*
X167016558Y-89347000D01*
X167073966Y-89336198D01*
X167201599Y-89254069D01*
X167287223Y-89128754D01*
X167317346Y-88980000D01*
X167317346Y-88526362D01*
X169097000Y-88526362D01*
X169097000Y-89381024D01*
X169193369Y-89613678D01*
X169371435Y-89791744D01*
X169604089Y-89888112D01*
X169950750Y-89888112D01*
X170109000Y-89729862D01*
X170109000Y-88368112D01*
X170367000Y-88368112D01*
X170367000Y-89729862D01*
X170525250Y-89888112D01*
X170871911Y-89888112D01*
X171104565Y-89791744D01*
X171282631Y-89613678D01*
X171379000Y-89381024D01*
X171379000Y-88526362D01*
X171220750Y-88368112D01*
X170367000Y-88368112D01*
X170109000Y-88368112D01*
X169255250Y-88368112D01*
X169097000Y-88526362D01*
X167317346Y-88526362D01*
X167317346Y-87480000D01*
X167291198Y-87341034D01*
X167209069Y-87213401D01*
X167083754Y-87127777D01*
X166935000Y-87097654D01*
X165685000Y-87097654D01*
X165546034Y-87123802D01*
X165418401Y-87205931D01*
X165332777Y-87331246D01*
X165302654Y-87480000D01*
X165302654Y-87605000D01*
X164696346Y-87605000D01*
X164696346Y-87231112D01*
X164670198Y-87092146D01*
X164588069Y-86964513D01*
X164462754Y-86878889D01*
X164431000Y-86872459D01*
X164431000Y-84934884D01*
X164918683Y-84447201D01*
X168822602Y-84447201D01*
X168743369Y-84526434D01*
X168647000Y-84759088D01*
X168647000Y-85222750D01*
X168805250Y-85381000D01*
X169901000Y-85381000D01*
X169901000Y-85361000D01*
X170159000Y-85361000D01*
X170159000Y-85381000D01*
X170179000Y-85381000D01*
X170179000Y-85639000D01*
X170159000Y-85639000D01*
X170159000Y-85659000D01*
X169901000Y-85659000D01*
X169901000Y-85639000D01*
X168805250Y-85639000D01*
X168647000Y-85797250D01*
X168647000Y-86260912D01*
X168743369Y-86493566D01*
X168921435Y-86671632D01*
X169154089Y-86768000D01*
X169289915Y-86768000D01*
X169193369Y-86864546D01*
X169097000Y-87097200D01*
X169097000Y-87951862D01*
X169255250Y-88110112D01*
X170109000Y-88110112D01*
X170109000Y-88090112D01*
X170367000Y-88090112D01*
X170367000Y-88110112D01*
X171220750Y-88110112D01*
X171379000Y-87951862D01*
X171379000Y-87097200D01*
X171282631Y-86864546D01*
X171104565Y-86686480D01*
X171103642Y-86686098D01*
X171138565Y-86671632D01*
X171316631Y-86493566D01*
X171413000Y-86260912D01*
X171413000Y-86216558D01*
X171423802Y-86273966D01*
X171505931Y-86401599D01*
X171631246Y-86487223D01*
X171780000Y-86517346D01*
X171899000Y-86517346D01*
X171899000Y-86862781D01*
X171877034Y-86866914D01*
X171749401Y-86949043D01*
X171663777Y-87074358D01*
X171633654Y-87223112D01*
X171633654Y-89255112D01*
X171659802Y-89394078D01*
X171741931Y-89521711D01*
X171867246Y-89607335D01*
X171899000Y-89613765D01*
X171899000Y-93444766D01*
X170695200Y-93444766D01*
X170556234Y-93470914D01*
X170428601Y-93553043D01*
X170342977Y-93678358D01*
X170312854Y-93827112D01*
X170312854Y-95859112D01*
X170339002Y-95998078D01*
X170421131Y-96125711D01*
X170546446Y-96211335D01*
X170695200Y-96241458D01*
X174352800Y-96241458D01*
X174491766Y-96215310D01*
X174619399Y-96133181D01*
X174705023Y-96007866D01*
X174735146Y-95859112D01*
X174735146Y-95057256D01*
X180909757Y-95057256D01*
X181122445Y-95572000D01*
X181515928Y-95966170D01*
X182030301Y-96179757D01*
X182587256Y-96180243D01*
X183102000Y-95967555D01*
X183496170Y-95574072D01*
X183641243Y-95224698D01*
X183749684Y-95487143D01*
X184101007Y-95839081D01*
X184560269Y-96029783D01*
X185057550Y-96030217D01*
X185517143Y-95840316D01*
X185869081Y-95488993D01*
X186059783Y-95029731D01*
X186059785Y-95027555D01*
X186249684Y-95487143D01*
X186601007Y-95839081D01*
X187060269Y-96029783D01*
X187557550Y-96030217D01*
X188017143Y-95840316D01*
X188369081Y-95488993D01*
X188559783Y-95029731D01*
X188560217Y-94532450D01*
X188370316Y-94072857D01*
X188018993Y-93720919D01*
X187559731Y-93530217D01*
X187062450Y-93529783D01*
X186602857Y-93719684D01*
X186250919Y-94071007D01*
X186060217Y-94530269D01*
X186060215Y-94532445D01*
X185870316Y-94072857D01*
X185518993Y-93720919D01*
X185059731Y-93530217D01*
X184562450Y-93529783D01*
X184102857Y-93719684D01*
X183750919Y-94071007D01*
X183641116Y-94335443D01*
X183497555Y-93988000D01*
X183104072Y-93593830D01*
X182589699Y-93380243D01*
X182032744Y-93379757D01*
X181518000Y-93592445D01*
X181123830Y-93985928D01*
X180910243Y-94500301D01*
X180909757Y-95057256D01*
X174735146Y-95057256D01*
X174735146Y-93827112D01*
X174708998Y-93688146D01*
X174626869Y-93560513D01*
X174501554Y-93474889D01*
X174352800Y-93444766D01*
X173149000Y-93444766D01*
X173149000Y-91017250D01*
X176052000Y-91017250D01*
X176052000Y-91605911D01*
X176148368Y-91838565D01*
X176326434Y-92016631D01*
X176559088Y-92113000D01*
X177022750Y-92113000D01*
X177181000Y-91954750D01*
X177181000Y-90859000D01*
X177439000Y-90859000D01*
X177439000Y-91954750D01*
X177597250Y-92113000D01*
X178060912Y-92113000D01*
X178293566Y-92016631D01*
X178471632Y-91838565D01*
X178568000Y-91605911D01*
X178568000Y-91017250D01*
X178409750Y-90859000D01*
X177439000Y-90859000D01*
X177181000Y-90859000D01*
X176210250Y-90859000D01*
X176052000Y-91017250D01*
X173149000Y-91017250D01*
X173149000Y-89615443D01*
X173170966Y-89611310D01*
X173298599Y-89529181D01*
X173384223Y-89403866D01*
X173414346Y-89255112D01*
X173414346Y-87223112D01*
X173766715Y-87223112D01*
X173766715Y-89255112D01*
X173803323Y-89449665D01*
X173918304Y-89628351D01*
X174093744Y-89748224D01*
X174302000Y-89790397D01*
X175318000Y-89790397D01*
X175512553Y-89753789D01*
X175691239Y-89638808D01*
X175811112Y-89463368D01*
X175853285Y-89255112D01*
X175853285Y-89005000D01*
X176154419Y-89005000D01*
X176186323Y-89174553D01*
X176301304Y-89353239D01*
X176392913Y-89415832D01*
X176326434Y-89443369D01*
X176148368Y-89621435D01*
X176052000Y-89854089D01*
X176052000Y-90442750D01*
X176210250Y-90601000D01*
X177181000Y-90601000D01*
X177181000Y-90581000D01*
X177439000Y-90581000D01*
X177439000Y-90601000D01*
X178409750Y-90601000D01*
X178568000Y-90442750D01*
X178568000Y-89854089D01*
X178471632Y-89621435D01*
X178293566Y-89443369D01*
X178227166Y-89415865D01*
X178308239Y-89363696D01*
X178428112Y-89188256D01*
X178465222Y-89005000D01*
X180860000Y-89005000D01*
X181156580Y-88946007D01*
X181408008Y-88778008D01*
X182013313Y-88172703D01*
X182030301Y-88179757D01*
X182587256Y-88180243D01*
X183102000Y-87967555D01*
X183496170Y-87574072D01*
X183641243Y-87224698D01*
X183749684Y-87487143D01*
X184101007Y-87839081D01*
X184560269Y-88029783D01*
X185057550Y-88030217D01*
X185517143Y-87840316D01*
X185869081Y-87488993D01*
X186059783Y-87029731D01*
X186059785Y-87027555D01*
X186249684Y-87487143D01*
X186601007Y-87839081D01*
X187060269Y-88029783D01*
X187557550Y-88030217D01*
X188017143Y-87840316D01*
X188369081Y-87488993D01*
X188559783Y-87029731D01*
X188560217Y-86532450D01*
X188370316Y-86072857D01*
X188018993Y-85720919D01*
X187559731Y-85530217D01*
X187062450Y-85529783D01*
X186602857Y-85719684D01*
X186250919Y-86071007D01*
X186060217Y-86530269D01*
X186060215Y-86532445D01*
X185870316Y-86072857D01*
X185518993Y-85720919D01*
X185059731Y-85530217D01*
X184562450Y-85529783D01*
X184102857Y-85719684D01*
X183750919Y-86071007D01*
X183641116Y-86335443D01*
X183497555Y-85988000D01*
X183104072Y-85593830D01*
X182589699Y-85380243D01*
X182032744Y-85379757D01*
X181518000Y-85592445D01*
X181123830Y-85985928D01*
X180910243Y-86500301D01*
X180909757Y-87057256D01*
X180917643Y-87076341D01*
X180538984Y-87455000D01*
X178465581Y-87455000D01*
X178433677Y-87285447D01*
X178318696Y-87106761D01*
X178143256Y-86986888D01*
X177935000Y-86944715D01*
X176685000Y-86944715D01*
X176490447Y-86981323D01*
X176311761Y-87096304D01*
X176191888Y-87271744D01*
X176154778Y-87455000D01*
X175853285Y-87455000D01*
X175853285Y-87223112D01*
X175816677Y-87028559D01*
X175701696Y-86849873D01*
X175526256Y-86730000D01*
X175318000Y-86687827D01*
X174302000Y-86687827D01*
X174107447Y-86724435D01*
X173928761Y-86839416D01*
X173808888Y-87014856D01*
X173766715Y-87223112D01*
X173414346Y-87223112D01*
X173388198Y-87084146D01*
X173306069Y-86956513D01*
X173180754Y-86870889D01*
X173149000Y-86864459D01*
X173149000Y-86517346D01*
X173280000Y-86517346D01*
X173418966Y-86491198D01*
X173546599Y-86409069D01*
X173632223Y-86283754D01*
X173662346Y-86135000D01*
X173662346Y-85983675D01*
X173721342Y-85971940D01*
X173883553Y-85863553D01*
X175247107Y-84500000D01*
X179811870Y-84500000D01*
X180003212Y-84461940D01*
X180165423Y-84353553D01*
X184198976Y-80320000D01*
X193391749Y-80320000D01*
X193486032Y-80793992D01*
X193754527Y-81195822D01*
X194156357Y-81464317D01*
X194630349Y-81558600D01*
X194989651Y-81558600D01*
X195463643Y-81464317D01*
X195865473Y-81195822D01*
X196133968Y-80793992D01*
X196228251Y-80320000D01*
X196133968Y-79846008D01*
X195865473Y-79444178D01*
X195463643Y-79175683D01*
X194989651Y-79081400D01*
X194630349Y-79081400D01*
X194156357Y-79175683D01*
X193754527Y-79444178D01*
X193486032Y-79846008D01*
X193391749Y-80320000D01*
X184198976Y-80320000D01*
X186552020Y-77966957D01*
X186653618Y-77967046D01*
X186901798Y-77864500D01*
X186986445Y-77780000D01*
X193391749Y-77780000D01*
X193486032Y-78253992D01*
X193754527Y-78655822D01*
X194156357Y-78924317D01*
X194630349Y-79018600D01*
X194989651Y-79018600D01*
X195463643Y-78924317D01*
X195865473Y-78655822D01*
X196133968Y-78253992D01*
X196228251Y-77780000D01*
X196133968Y-77306008D01*
X195865473Y-76904178D01*
X195463643Y-76635683D01*
X194989651Y-76541400D01*
X194630349Y-76541400D01*
X194156357Y-76635683D01*
X193754527Y-76904178D01*
X193486032Y-77306008D01*
X193391749Y-77780000D01*
X186986445Y-77780000D01*
X187091844Y-77674785D01*
X187194824Y-77426784D01*
X187195058Y-77158252D01*
X187092512Y-76910072D01*
X186902797Y-76720026D01*
X186654796Y-76617046D01*
X186386264Y-76616812D01*
X186138084Y-76719358D01*
X185948038Y-76909073D01*
X185845058Y-77157074D01*
X185844968Y-77259795D01*
X179604764Y-83500000D01*
X175040000Y-83500000D01*
X174848658Y-83538060D01*
X174686446Y-83646447D01*
X173616880Y-84716013D01*
X173554069Y-84618401D01*
X173428754Y-84532777D01*
X173280000Y-84502654D01*
X172281538Y-84502654D01*
X171159143Y-83380259D01*
X170956378Y-83244776D01*
X170717201Y-83197201D01*
X164918682Y-83197201D01*
X163188572Y-81467090D01*
X163188572Y-77269858D01*
X163213572Y-77269858D01*
X163352538Y-77243710D01*
X163480171Y-77161581D01*
X163565795Y-77036266D01*
X163595918Y-76887512D01*
X163595918Y-75387512D01*
X163569770Y-75248546D01*
X163487641Y-75120913D01*
X163362326Y-75035289D01*
X163213572Y-75005166D01*
X161913572Y-75005166D01*
X161774606Y-75031314D01*
X161646973Y-75113443D01*
X161561349Y-75238758D01*
X161531226Y-75387512D01*
X161531226Y-76378749D01*
X161438452Y-76285975D01*
X161438452Y-75387512D01*
X161412304Y-75248546D01*
X161330175Y-75120913D01*
X161204860Y-75035289D01*
X161056106Y-75005166D01*
X159942272Y-75005166D01*
X159635475Y-74698369D01*
X159756106Y-74722797D01*
X161056106Y-74722797D01*
X161250659Y-74686189D01*
X161429345Y-74571208D01*
X161484583Y-74490364D01*
X161529876Y-74560751D01*
X161705316Y-74680624D01*
X161913572Y-74722797D01*
X163213572Y-74722797D01*
X163408125Y-74686189D01*
X163586811Y-74571208D01*
X163706684Y-74395768D01*
X163745063Y-74206248D01*
X164010152Y-74153519D01*
X164261580Y-73985520D01*
X168272100Y-69975000D01*
X168479126Y-69975000D01*
X168457777Y-70006246D01*
X168427654Y-70155000D01*
X168427654Y-71405000D01*
X168453802Y-71543966D01*
X168535931Y-71671599D01*
X168661246Y-71757223D01*
X168810000Y-71787346D01*
X169060000Y-71787346D01*
X169060000Y-71823336D01*
X168991667Y-71987899D01*
X168991433Y-72256431D01*
X169060152Y-72422744D01*
X166130845Y-72422744D01*
X165939503Y-72460804D01*
X165777292Y-72569191D01*
X164206436Y-74140047D01*
X164098049Y-74302258D01*
X164059989Y-74493600D01*
X164059989Y-79693977D01*
X164077100Y-79780000D01*
X164098049Y-79885319D01*
X164206436Y-80047530D01*
X165959724Y-81800819D01*
X165959661Y-81872218D01*
X165815327Y-81812285D01*
X165546795Y-81812051D01*
X165298615Y-81914597D01*
X165108569Y-82104312D01*
X165005589Y-82352313D01*
X165005355Y-82620845D01*
X165107901Y-82869025D01*
X165297616Y-83059071D01*
X165545617Y-83162051D01*
X165814149Y-83162285D01*
X166062329Y-83059739D01*
X166135027Y-82987168D01*
X168556836Y-82987168D01*
X168748178Y-82949108D01*
X168910389Y-82840721D01*
X169503554Y-82247557D01*
X169503556Y-82247554D01*
X170813554Y-80937557D01*
X170921940Y-80775346D01*
X170960000Y-80584004D01*
X170960000Y-80287346D01*
X171210000Y-80287346D01*
X171348966Y-80261198D01*
X171476599Y-80179069D01*
X171518838Y-80117250D01*
X178152000Y-80117250D01*
X178152000Y-80705911D01*
X178248368Y-80938565D01*
X178426434Y-81116631D01*
X178659088Y-81213000D01*
X179122750Y-81213000D01*
X179281000Y-81054750D01*
X179281000Y-79959000D01*
X179539000Y-79959000D01*
X179539000Y-81054750D01*
X179697250Y-81213000D01*
X180160912Y-81213000D01*
X180393566Y-81116631D01*
X180571632Y-80938565D01*
X180668000Y-80705911D01*
X180668000Y-80117250D01*
X180509750Y-79959000D01*
X179539000Y-79959000D01*
X179281000Y-79959000D01*
X178310250Y-79959000D01*
X178152000Y-80117250D01*
X171518838Y-80117250D01*
X171562223Y-80053754D01*
X171592346Y-79905000D01*
X171592346Y-78655000D01*
X171566198Y-78516034D01*
X171484069Y-78388401D01*
X171358754Y-78302777D01*
X171284388Y-78287718D01*
X172254856Y-77317250D01*
X172952000Y-77317250D01*
X172952000Y-77905911D01*
X173048368Y-78138565D01*
X173226434Y-78316631D01*
X173459088Y-78413000D01*
X173922750Y-78413000D01*
X174081000Y-78254750D01*
X174081000Y-77159000D01*
X174339000Y-77159000D01*
X174339000Y-78254750D01*
X174497250Y-78413000D01*
X174960912Y-78413000D01*
X175193566Y-78316631D01*
X175371632Y-78138565D01*
X175468000Y-77905911D01*
X175468000Y-77317250D01*
X175309750Y-77159000D01*
X174339000Y-77159000D01*
X174081000Y-77159000D01*
X173110250Y-77159000D01*
X172952000Y-77317250D01*
X172254856Y-77317250D01*
X172952000Y-76620107D01*
X172952000Y-76742750D01*
X173110250Y-76901000D01*
X174081000Y-76901000D01*
X174081000Y-76881000D01*
X174339000Y-76881000D01*
X174339000Y-76901000D01*
X175309750Y-76901000D01*
X175468000Y-76742750D01*
X175468000Y-76154089D01*
X175371632Y-75921435D01*
X175193566Y-75743369D01*
X174960912Y-75647000D01*
X174916558Y-75647000D01*
X174973966Y-75636198D01*
X175101599Y-75554069D01*
X175187223Y-75428754D01*
X175217346Y-75280000D01*
X175217346Y-75030000D01*
X175352894Y-75030000D01*
X177334972Y-77012078D01*
X177334883Y-77113677D01*
X177437429Y-77361857D01*
X177627144Y-77551903D01*
X177875145Y-77654883D01*
X177977866Y-77654973D01*
X178006447Y-77683554D01*
X178168658Y-77791940D01*
X178360000Y-77830000D01*
X178402654Y-77830000D01*
X178402654Y-78080000D01*
X178428802Y-78218966D01*
X178510931Y-78346599D01*
X178636246Y-78432223D01*
X178709218Y-78447000D01*
X178659088Y-78447000D01*
X178426434Y-78543369D01*
X178248368Y-78721435D01*
X178152000Y-78954089D01*
X178152000Y-79542750D01*
X178310250Y-79701000D01*
X179281000Y-79701000D01*
X179281000Y-79681000D01*
X179539000Y-79681000D01*
X179539000Y-79701000D01*
X180509750Y-79701000D01*
X180668000Y-79542750D01*
X180668000Y-78954089D01*
X180571632Y-78721435D01*
X180393566Y-78543369D01*
X180160912Y-78447000D01*
X180116558Y-78447000D01*
X180173966Y-78436198D01*
X180301599Y-78354069D01*
X180387223Y-78228754D01*
X180417346Y-78080000D01*
X180417346Y-76580000D01*
X180391198Y-76441034D01*
X180309069Y-76313401D01*
X180183754Y-76227777D01*
X180035000Y-76197654D01*
X178785000Y-76197654D01*
X178646034Y-76223802D01*
X178518401Y-76305931D01*
X178432777Y-76431246D01*
X178429942Y-76445247D01*
X178392856Y-76408097D01*
X178144855Y-76305117D01*
X178042134Y-76305027D01*
X175913553Y-74176447D01*
X175751342Y-74068060D01*
X175560000Y-74030000D01*
X175217346Y-74030000D01*
X175217346Y-73906860D01*
X180474881Y-73906860D01*
X180577427Y-74155040D01*
X180630137Y-74207842D01*
X180578097Y-74259791D01*
X180475117Y-74507792D01*
X180474883Y-74776324D01*
X180577429Y-75024504D01*
X180767144Y-75214550D01*
X181015145Y-75317530D01*
X181117866Y-75317620D01*
X181933625Y-76133379D01*
X182029820Y-76197654D01*
X182095836Y-76241765D01*
X182287178Y-76279825D01*
X183728380Y-76279825D01*
X183800158Y-76351728D01*
X184048159Y-76454708D01*
X184316691Y-76454942D01*
X184564871Y-76352396D01*
X184754917Y-76162681D01*
X184857897Y-75914680D01*
X184858131Y-75646148D01*
X184755585Y-75397968D01*
X184565870Y-75207922D01*
X184317869Y-75104942D01*
X184049337Y-75104708D01*
X183801157Y-75207254D01*
X183728459Y-75279825D01*
X182494285Y-75279825D01*
X181825028Y-74610569D01*
X181825117Y-74508970D01*
X181727692Y-74273183D01*
X188266472Y-74273183D01*
X188365518Y-74372228D01*
X188365429Y-74473827D01*
X188467975Y-74722007D01*
X188657690Y-74912053D01*
X188905691Y-75015033D01*
X189174223Y-75015267D01*
X189422403Y-74912721D01*
X189612449Y-74723006D01*
X189715429Y-74475005D01*
X189715663Y-74206473D01*
X189613117Y-73958293D01*
X189423402Y-73768247D01*
X189175401Y-73665267D01*
X189072680Y-73665177D01*
X188827132Y-73419630D01*
X188664921Y-73311243D01*
X188473579Y-73273183D01*
X181604632Y-73273183D01*
X181532854Y-73201280D01*
X181284853Y-73098300D01*
X181016321Y-73098066D01*
X180768141Y-73200612D01*
X180578095Y-73390327D01*
X180475115Y-73638328D01*
X180474881Y-73906860D01*
X175217346Y-73906860D01*
X175217346Y-73780000D01*
X175191198Y-73641034D01*
X175109069Y-73513401D01*
X174983754Y-73427777D01*
X174835000Y-73397654D01*
X173585000Y-73397654D01*
X173446034Y-73423802D01*
X173318401Y-73505931D01*
X173232777Y-73631246D01*
X173202654Y-73780000D01*
X173202654Y-74030000D01*
X172385872Y-74030000D01*
X170339356Y-71983484D01*
X170258313Y-71787346D01*
X170310000Y-71787346D01*
X170448966Y-71761198D01*
X170576599Y-71679069D01*
X170662223Y-71553754D01*
X170677000Y-71480782D01*
X170677000Y-71530912D01*
X170773369Y-71763566D01*
X170951435Y-71941632D01*
X171184089Y-72038000D01*
X171772750Y-72038000D01*
X171931000Y-71879750D01*
X171931000Y-70909000D01*
X172189000Y-70909000D01*
X172189000Y-71879750D01*
X172347250Y-72038000D01*
X172935911Y-72038000D01*
X173168565Y-71941632D01*
X173346631Y-71763566D01*
X173443000Y-71530912D01*
X173443000Y-71067250D01*
X173284750Y-70909000D01*
X172189000Y-70909000D01*
X171931000Y-70909000D01*
X171911000Y-70909000D01*
X171911000Y-70651000D01*
X171931000Y-70651000D01*
X171931000Y-70631000D01*
X172189000Y-70631000D01*
X172189000Y-70651000D01*
X173284750Y-70651000D01*
X173443000Y-70492750D01*
X173443000Y-70029088D01*
X173420596Y-69975000D01*
X180248984Y-69975000D01*
X180601992Y-70328008D01*
X180853420Y-70496007D01*
X181150000Y-70555000D01*
X193615421Y-70555000D01*
X193622445Y-70572000D01*
X194015928Y-70966170D01*
X194530301Y-71179757D01*
X195087256Y-71180243D01*
X195602000Y-70967555D01*
X195996170Y-70574072D01*
X196209757Y-70059699D01*
X196210243Y-69502744D01*
X195997555Y-68988000D01*
X195604072Y-68593830D01*
X195254698Y-68448757D01*
X195517143Y-68340316D01*
X195869081Y-67988993D01*
X196059783Y-67529731D01*
X196060217Y-67032450D01*
X195870316Y-66572857D01*
X195518993Y-66220919D01*
X195059731Y-66030217D01*
X195057555Y-66030215D01*
X195517143Y-65840316D01*
X195869081Y-65488993D01*
X196059783Y-65029731D01*
X196060217Y-64532450D01*
X195870316Y-64072857D01*
X195518993Y-63720919D01*
X195059731Y-63530217D01*
X195057555Y-63530215D01*
X195517143Y-63340316D01*
X195869081Y-62988993D01*
X196059783Y-62529731D01*
X196060217Y-62032450D01*
X195870316Y-61572857D01*
X195518993Y-61220919D01*
X195059731Y-61030217D01*
X194562450Y-61029783D01*
X194102857Y-61219684D01*
X193750919Y-61571007D01*
X193560217Y-62030269D01*
X193559783Y-62527550D01*
X193749684Y-62987143D01*
X194101007Y-63339081D01*
X194560269Y-63529783D01*
X194562445Y-63529785D01*
X194102857Y-63719684D01*
X193750919Y-64071007D01*
X193560217Y-64530269D01*
X193559783Y-65027550D01*
X193749684Y-65487143D01*
X194101007Y-65839081D01*
X194560269Y-66029783D01*
X194562445Y-66029785D01*
X194102857Y-66219684D01*
X193750919Y-66571007D01*
X193560217Y-67030269D01*
X193559783Y-67527550D01*
X193749684Y-67987143D01*
X194101007Y-68339081D01*
X194365443Y-68448884D01*
X194018000Y-68592445D01*
X193623830Y-68985928D01*
X193615911Y-69005000D01*
X188582349Y-69005000D01*
X188865473Y-68815822D01*
X189133968Y-68413992D01*
X189228251Y-67940000D01*
X189133968Y-67466008D01*
X188865473Y-67064178D01*
X188463643Y-66795683D01*
X187989651Y-66701400D01*
X187630349Y-66701400D01*
X187156357Y-66795683D01*
X186754527Y-67064178D01*
X186503410Y-67440000D01*
X178629383Y-67440000D01*
X178544738Y-67355207D01*
X178296737Y-67252227D01*
X178028205Y-67251993D01*
X177780025Y-67354539D01*
X177589979Y-67544254D01*
X177486999Y-67792255D01*
X177486765Y-68060787D01*
X177589311Y-68308967D01*
X177705142Y-68425000D01*
X169833219Y-68425000D01*
X169849893Y-68384845D01*
X169849983Y-68282124D01*
X170769761Y-67362346D01*
X171460000Y-67362346D01*
X171598966Y-67336198D01*
X171726599Y-67254069D01*
X171811130Y-67130354D01*
X171885931Y-67246599D01*
X172011246Y-67332223D01*
X172160000Y-67362346D01*
X173460000Y-67362346D01*
X173598966Y-67336198D01*
X173726599Y-67254069D01*
X173812223Y-67128754D01*
X173842346Y-66980000D01*
X173842346Y-66413677D01*
X183134883Y-66413677D01*
X183237429Y-66661857D01*
X183427144Y-66851903D01*
X183675145Y-66954883D01*
X183943677Y-66955117D01*
X184191857Y-66852571D01*
X184264555Y-66780000D01*
X186930000Y-66780000D01*
X187121342Y-66741940D01*
X187283553Y-66633553D01*
X187336881Y-66580225D01*
X187630349Y-66638600D01*
X187989651Y-66638600D01*
X188463643Y-66544317D01*
X188865473Y-66275822D01*
X189133968Y-65873992D01*
X189228251Y-65400000D01*
X189133968Y-64926008D01*
X188865473Y-64524178D01*
X188463643Y-64255683D01*
X187989651Y-64161400D01*
X187630349Y-64161400D01*
X187156357Y-64255683D01*
X186754527Y-64524178D01*
X186486032Y-64926008D01*
X186391749Y-65400000D01*
X186467336Y-65780000D01*
X184264634Y-65780000D01*
X184192856Y-65708097D01*
X183944855Y-65605117D01*
X183676323Y-65604883D01*
X183428143Y-65707429D01*
X183238097Y-65897144D01*
X183135117Y-66145145D01*
X183134883Y-66413677D01*
X173842346Y-66413677D01*
X173842346Y-65480000D01*
X173816198Y-65341034D01*
X173734069Y-65213401D01*
X173608754Y-65127777D01*
X173460000Y-65097654D01*
X172160000Y-65097654D01*
X172021034Y-65123802D01*
X171893401Y-65205931D01*
X171808870Y-65329646D01*
X171734069Y-65213401D01*
X171608754Y-65127777D01*
X171496281Y-65105001D01*
X171834999Y-65105001D01*
X172026341Y-65066941D01*
X172188552Y-64958554D01*
X172484760Y-64662346D01*
X173460000Y-64662346D01*
X173598966Y-64636198D01*
X173726599Y-64554069D01*
X173812223Y-64428754D01*
X173842346Y-64280000D01*
X173842346Y-64030000D01*
X178120000Y-64030000D01*
X178311342Y-63991940D01*
X178473553Y-63883553D01*
X179497106Y-62860000D01*
X186391749Y-62860000D01*
X186486032Y-63333992D01*
X186754527Y-63735822D01*
X187156357Y-64004317D01*
X187630349Y-64098600D01*
X187989651Y-64098600D01*
X188463643Y-64004317D01*
X188865473Y-63735822D01*
X189133968Y-63333992D01*
X189228251Y-62860000D01*
X189133968Y-62386008D01*
X188865473Y-61984178D01*
X188463643Y-61715683D01*
X187989651Y-61621400D01*
X187630349Y-61621400D01*
X187156357Y-61715683D01*
X186754527Y-61984178D01*
X186486032Y-62386008D01*
X186391749Y-62860000D01*
X179497106Y-62860000D01*
X184577106Y-57780000D01*
X186391749Y-57780000D01*
X186486032Y-58253992D01*
X186754527Y-58655822D01*
X187156357Y-58924317D01*
X187630349Y-59018600D01*
X187989651Y-59018600D01*
X188463643Y-58924317D01*
X188865473Y-58655822D01*
X189133968Y-58253992D01*
X189228251Y-57780000D01*
X189133968Y-57306008D01*
X188865473Y-56904178D01*
X188463643Y-56635683D01*
X187989651Y-56541400D01*
X187630349Y-56541400D01*
X187156357Y-56635683D01*
X186754527Y-56904178D01*
X186486032Y-57306008D01*
X186391749Y-57780000D01*
X184577106Y-57780000D01*
X186411654Y-55945453D01*
X186411654Y-56103600D01*
X186437802Y-56242566D01*
X186519931Y-56370199D01*
X186645246Y-56455823D01*
X186794000Y-56485946D01*
X188826000Y-56485946D01*
X188964966Y-56459798D01*
X189092599Y-56377669D01*
X189178223Y-56252354D01*
X189208346Y-56103600D01*
X189208346Y-54376400D01*
X189182198Y-54237434D01*
X189100069Y-54109801D01*
X188974754Y-54024177D01*
X188826000Y-53994054D01*
X186794000Y-53994054D01*
X186655034Y-54020202D01*
X186527401Y-54102331D01*
X186441777Y-54227646D01*
X186411654Y-54376400D01*
X186411654Y-54740000D01*
X186410000Y-54740000D01*
X186218658Y-54778060D01*
X186056446Y-54886447D01*
X177912894Y-63030000D01*
X173842346Y-63030000D01*
X173842346Y-62780000D01*
X173816198Y-62641034D01*
X173734069Y-62513401D01*
X173608754Y-62427777D01*
X173460000Y-62397654D01*
X172160000Y-62397654D01*
X172021034Y-62423802D01*
X172002541Y-62435702D01*
X171996632Y-62421435D01*
X171818566Y-62243369D01*
X171585912Y-62147000D01*
X171097250Y-62147000D01*
X170939000Y-62305250D01*
X170939000Y-63401000D01*
X170959000Y-63401000D01*
X170959000Y-63659000D01*
X170939000Y-63659000D01*
X170939000Y-63679000D01*
X170681000Y-63679000D01*
X170681000Y-63659000D01*
X169685250Y-63659000D01*
X169527000Y-63817250D01*
X169527000Y-64405911D01*
X169623368Y-64638565D01*
X169683849Y-64699046D01*
X163602894Y-70780000D01*
X160264634Y-70780000D01*
X160192856Y-70708097D01*
X159944855Y-70605117D01*
X159676323Y-70604883D01*
X159428143Y-70707429D01*
X159238097Y-70897144D01*
X159186357Y-71021747D01*
X158585000Y-70420390D01*
X158585000Y-62654089D01*
X169527000Y-62654089D01*
X169527000Y-63242750D01*
X169685250Y-63401000D01*
X170681000Y-63401000D01*
X170681000Y-62305250D01*
X170522750Y-62147000D01*
X170034088Y-62147000D01*
X169801434Y-62243369D01*
X169623368Y-62421435D01*
X169527000Y-62654089D01*
X158585000Y-62654089D01*
X158585000Y-62280000D01*
X158526007Y-61983420D01*
X158358008Y-61731992D01*
X156702703Y-60076687D01*
X156709757Y-60059699D01*
X156710243Y-59502744D01*
X156497555Y-58988000D01*
X156104072Y-58593830D01*
X155589699Y-58380243D01*
X155032744Y-58379757D01*
X154518000Y-58592445D01*
X154123830Y-58985928D01*
X153910243Y-59500301D01*
X153909757Y-60057256D01*
X150600000Y-60057256D01*
X150600000Y-55100349D01*
X165571400Y-55100349D01*
X165571400Y-55459651D01*
X165665683Y-55933643D01*
X165934178Y-56335473D01*
X166336008Y-56603968D01*
X166810000Y-56698251D01*
X167283992Y-56603968D01*
X167685822Y-56335473D01*
X167954317Y-55933643D01*
X168048600Y-55459651D01*
X168048600Y-55100349D01*
X168111400Y-55100349D01*
X168111400Y-55459651D01*
X168205683Y-55933643D01*
X168474178Y-56335473D01*
X168876008Y-56603968D01*
X169350000Y-56698251D01*
X169823992Y-56603968D01*
X170225822Y-56335473D01*
X170494317Y-55933643D01*
X170588600Y-55459651D01*
X170588600Y-55100349D01*
X178071400Y-55100349D01*
X178071400Y-55459651D01*
X178165683Y-55933643D01*
X178434178Y-56335473D01*
X178836008Y-56603968D01*
X179310000Y-56698251D01*
X179783992Y-56603968D01*
X180185822Y-56335473D01*
X180454317Y-55933643D01*
X180548600Y-55459651D01*
X180548600Y-55100349D01*
X180611400Y-55100349D01*
X180611400Y-55459651D01*
X180705683Y-55933643D01*
X180974178Y-56335473D01*
X181376008Y-56603968D01*
X181850000Y-56698251D01*
X182323992Y-56603968D01*
X182725822Y-56335473D01*
X182994317Y-55933643D01*
X183088600Y-55459651D01*
X183088600Y-55100349D01*
X182994317Y-54626357D01*
X182725822Y-54224527D01*
X182323992Y-53956032D01*
X181850000Y-53861749D01*
X181376008Y-53956032D01*
X180974178Y-54224527D01*
X180705683Y-54626357D01*
X180611400Y-55100349D01*
X180548600Y-55100349D01*
X180454317Y-54626357D01*
X180185822Y-54224527D01*
X179783992Y-53956032D01*
X179310000Y-53861749D01*
X178836008Y-53956032D01*
X178434178Y-54224527D01*
X178165683Y-54626357D01*
X178071400Y-55100349D01*
X170588600Y-55100349D01*
X170494317Y-54626357D01*
X170225822Y-54224527D01*
X169823992Y-53956032D01*
X169350000Y-53861749D01*
X168876008Y-53956032D01*
X168474178Y-54224527D01*
X168205683Y-54626357D01*
X168111400Y-55100349D01*
X168048600Y-55100349D01*
X167954317Y-54626357D01*
X167685822Y-54224527D01*
X167283992Y-53956032D01*
X166810000Y-53861749D01*
X166336008Y-53956032D01*
X165934178Y-54224527D01*
X165665683Y-54626357D01*
X165571400Y-55100349D01*
X150600000Y-55100349D01*
X150600000Y-50450000D01*
X199700000Y-50450000D01*
X199700000Y-99550000D01*
X199700000Y-99550000D01*
G37*
X199700000Y-99550000D02*
X150600000Y-99550000D01*
X150600000Y-88534362D01*
X158093000Y-88534362D01*
X158093000Y-89389024D01*
X158189369Y-89621678D01*
X158367435Y-89799744D01*
X158600089Y-89896112D01*
X158946750Y-89896112D01*
X159105000Y-89737862D01*
X159105000Y-88376112D01*
X159363000Y-88376112D01*
X159363000Y-89737862D01*
X159521250Y-89896112D01*
X159867911Y-89896112D01*
X160100565Y-89799744D01*
X160278631Y-89621678D01*
X160375000Y-89389024D01*
X160375000Y-88534362D01*
X160216750Y-88376112D01*
X159363000Y-88376112D01*
X159105000Y-88376112D01*
X158251250Y-88376112D01*
X158093000Y-88534362D01*
X150600000Y-88534362D01*
X150600000Y-84779088D01*
X157677000Y-84779088D01*
X157677000Y-85242750D01*
X157835250Y-85401000D01*
X158931000Y-85401000D01*
X158931000Y-84430250D01*
X158772750Y-84272000D01*
X158184089Y-84272000D01*
X157951435Y-84368368D01*
X157773369Y-84546434D01*
X157677000Y-84779088D01*
X150600000Y-84779088D01*
X150600000Y-80320000D01*
X153891749Y-80320000D01*
X153986032Y-80793992D01*
X154254527Y-81195822D01*
X154656357Y-81464317D01*
X155130349Y-81558600D01*
X155489651Y-81558600D01*
X155963643Y-81464317D01*
X156365473Y-81195822D01*
X156633968Y-80793992D01*
X156728251Y-80320000D01*
X156633968Y-79846008D01*
X156365473Y-79444178D01*
X155963643Y-79175683D01*
X155489651Y-79081400D01*
X155130349Y-79081400D01*
X154656357Y-79175683D01*
X154254527Y-79444178D01*
X153986032Y-79846008D01*
X153891749Y-80320000D01*
X150600000Y-80320000D01*
X150600000Y-77780000D01*
X153891749Y-77780000D01*
X153986032Y-78253992D01*
X154254527Y-78655822D01*
X154656357Y-78924317D01*
X155130349Y-79018600D01*
X155489651Y-79018600D01*
X155963643Y-78924317D01*
X156365473Y-78655822D01*
X156633968Y-78253992D01*
X156728251Y-77780000D01*
X156633968Y-77306008D01*
X156365473Y-76904178D01*
X155963643Y-76635683D01*
X155489651Y-76541400D01*
X155130349Y-76541400D01*
X154656357Y-76635683D01*
X154254527Y-76904178D01*
X153986032Y-77306008D01*
X153891749Y-77780000D01*
X150600000Y-77780000D01*
X150600000Y-60057256D01*
X153909757Y-60057256D01*
X154122445Y-60572000D01*
X154515928Y-60966170D01*
X154865302Y-61111243D01*
X154602857Y-61219684D01*
X154250919Y-61571007D01*
X154060217Y-62030269D01*
X154059783Y-62527550D01*
X154249684Y-62987143D01*
X154601007Y-63339081D01*
X155060269Y-63529783D01*
X155062445Y-63529785D01*
X154602857Y-63719684D01*
X154250919Y-64071007D01*
X154060217Y-64530269D01*
X154059783Y-65027550D01*
X154249684Y-65487143D01*
X154601007Y-65839081D01*
X155060269Y-66029783D01*
X155062445Y-66029785D01*
X154602857Y-66219684D01*
X154250919Y-66571007D01*
X154060217Y-67030269D01*
X154059783Y-67527550D01*
X154249684Y-67987143D01*
X154601007Y-68339081D01*
X155060269Y-68529783D01*
X155557550Y-68530217D01*
X156017143Y-68340316D01*
X156369081Y-67988993D01*
X156559783Y-67529731D01*
X156560217Y-67032450D01*
X156370316Y-66572857D01*
X156018993Y-66220919D01*
X155559731Y-66030217D01*
X155557555Y-66030215D01*
X156017143Y-65840316D01*
X156369081Y-65488993D01*
X156559783Y-65029731D01*
X156560217Y-64532450D01*
X156370316Y-64072857D01*
X156018993Y-63720919D01*
X155559731Y-63530217D01*
X155557555Y-63530215D01*
X156017143Y-63340316D01*
X156369081Y-62988993D01*
X156559783Y-62529731D01*
X156560135Y-62126151D01*
X157035000Y-62601016D01*
X157035000Y-70741406D01*
X157093993Y-71037986D01*
X157261992Y-71289414D01*
X159220821Y-73248243D01*
X159220821Y-74036111D01*
X159192856Y-74008097D01*
X158944855Y-73905117D01*
X158676323Y-73904883D01*
X158428143Y-74007429D01*
X158238097Y-74197144D01*
X158135117Y-74445145D01*
X158134883Y-74713677D01*
X158237429Y-74961857D01*
X158427144Y-75151903D01*
X158675145Y-75254883D01*
X158777866Y-75254973D01*
X159373760Y-75850867D01*
X159373760Y-76887512D01*
X159399908Y-77026478D01*
X159482037Y-77154111D01*
X159607352Y-77239735D01*
X159756106Y-77269858D01*
X160654569Y-77269858D01*
X160935000Y-77550289D01*
X160935000Y-84522654D01*
X160810000Y-84522654D01*
X160671034Y-84548802D01*
X160543401Y-84630931D01*
X160457777Y-84756246D01*
X160443000Y-84829218D01*
X160443000Y-84779088D01*
X160346631Y-84546434D01*
X160168565Y-84368368D01*
X159935911Y-84272000D01*
X159347250Y-84272000D01*
X159189000Y-84430250D01*
X159189000Y-85401000D01*
X159209000Y-85401000D01*
X159209000Y-85659000D01*
X159189000Y-85659000D01*
X159189000Y-85679000D01*
X158931000Y-85679000D01*
X158931000Y-85659000D01*
X157835250Y-85659000D01*
X157677000Y-85817250D01*
X157677000Y-86280912D01*
X157773369Y-86513566D01*
X157951435Y-86691632D01*
X158184089Y-86788000D01*
X158273915Y-86788000D01*
X158189369Y-86872546D01*
X158093000Y-87105200D01*
X158093000Y-87959862D01*
X158251250Y-88118112D01*
X159105000Y-88118112D01*
X159105000Y-88098112D01*
X159363000Y-88098112D01*
X159363000Y-88118112D01*
X160216750Y-88118112D01*
X160375000Y-87959862D01*
X160375000Y-87105200D01*
X160278631Y-86872546D01*
X160118468Y-86712383D01*
X160168565Y-86691632D01*
X160346631Y-86513566D01*
X160443000Y-86280912D01*
X160443000Y-86236558D01*
X160453802Y-86293966D01*
X160535931Y-86421599D01*
X160661246Y-86507223D01*
X160810000Y-86537346D01*
X160895000Y-86537346D01*
X160895000Y-86870781D01*
X160873034Y-86874914D01*
X160745401Y-86957043D01*
X160659777Y-87082358D01*
X160629654Y-87231112D01*
X160629654Y-89263112D01*
X160655802Y-89402078D01*
X160737931Y-89529711D01*
X160863246Y-89615335D01*
X160895000Y-89621765D01*
X160895000Y-93452766D01*
X159691200Y-93452766D01*
X159552234Y-93478914D01*
X159424601Y-93561043D01*
X159338977Y-93686358D01*
X159308854Y-93835112D01*
X159308854Y-95867112D01*
X159335002Y-96006078D01*
X159417131Y-96133711D01*
X159542446Y-96219335D01*
X159691200Y-96249458D01*
X163348800Y-96249458D01*
X163487766Y-96223310D01*
X163615399Y-96141181D01*
X163701023Y-96015866D01*
X163731146Y-95867112D01*
X163731146Y-93835112D01*
X163704998Y-93696146D01*
X163622869Y-93568513D01*
X163497554Y-93482889D01*
X163348800Y-93452766D01*
X162145000Y-93452766D01*
X162145000Y-91017250D01*
X165052000Y-91017250D01*
X165052000Y-91605911D01*
X165148368Y-91838565D01*
X165326434Y-92016631D01*
X165559088Y-92113000D01*
X166022750Y-92113000D01*
X166181000Y-91954750D01*
X166181000Y-90859000D01*
X166439000Y-90859000D01*
X166439000Y-91954750D01*
X166597250Y-92113000D01*
X167060912Y-92113000D01*
X167293566Y-92016631D01*
X167471632Y-91838565D01*
X167568000Y-91605911D01*
X167568000Y-91017250D01*
X167409750Y-90859000D01*
X166439000Y-90859000D01*
X166181000Y-90859000D01*
X165210250Y-90859000D01*
X165052000Y-91017250D01*
X162145000Y-91017250D01*
X162145000Y-89623443D01*
X162166966Y-89619310D01*
X162294599Y-89537181D01*
X162380223Y-89411866D01*
X162410346Y-89263112D01*
X162410346Y-87231112D01*
X162384198Y-87092146D01*
X162302069Y-86964513D01*
X162176754Y-86878889D01*
X162145000Y-86872459D01*
X162145000Y-86537346D01*
X162310000Y-86537346D01*
X162448966Y-86511198D01*
X162576599Y-86429069D01*
X162662223Y-86303754D01*
X162692346Y-86155000D01*
X162692346Y-84905000D01*
X162666198Y-84766034D01*
X162584069Y-84638401D01*
X162458754Y-84552777D01*
X162310000Y-84522654D01*
X162185000Y-84522654D01*
X162185000Y-83993038D01*
X162341342Y-83961940D01*
X162503553Y-83853553D01*
X162682078Y-83675028D01*
X162783677Y-83675117D01*
X163031857Y-83572571D01*
X163221903Y-83382856D01*
X163255547Y-83301833D01*
X163775915Y-83822201D01*
X163364058Y-84234058D01*
X163228575Y-84436823D01*
X163181000Y-84676000D01*
X163181000Y-86870781D01*
X163159034Y-86874914D01*
X163031401Y-86957043D01*
X162945777Y-87082358D01*
X162915654Y-87231112D01*
X162915654Y-89263112D01*
X162941802Y-89402078D01*
X163023931Y-89529711D01*
X163149246Y-89615335D01*
X163298000Y-89645458D01*
X164314000Y-89645458D01*
X164452966Y-89619310D01*
X164580599Y-89537181D01*
X164666223Y-89411866D01*
X164696346Y-89263112D01*
X164696346Y-88855000D01*
X165302654Y-88855000D01*
X165302654Y-88980000D01*
X165328802Y-89118966D01*
X165410931Y-89246599D01*
X165536246Y-89332223D01*
X165609218Y-89347000D01*
X165559088Y-89347000D01*
X165326434Y-89443369D01*
X165148368Y-89621435D01*
X165052000Y-89854089D01*
X165052000Y-90442750D01*
X165210250Y-90601000D01*
X166181000Y-90601000D01*
X166181000Y-90581000D01*
X166439000Y-90581000D01*
X166439000Y-90601000D01*
X167409750Y-90601000D01*
X167568000Y-90442750D01*
X167568000Y-89854089D01*
X167471632Y-89621435D01*
X167293566Y-89443369D01*
X167060912Y-89347000D01*
X167016558Y-89347000D01*
X167073966Y-89336198D01*
X167201599Y-89254069D01*
X167287223Y-89128754D01*
X167317346Y-88980000D01*
X167317346Y-88526362D01*
X169097000Y-88526362D01*
X169097000Y-89381024D01*
X169193369Y-89613678D01*
X169371435Y-89791744D01*
X169604089Y-89888112D01*
X169950750Y-89888112D01*
X170109000Y-89729862D01*
X170109000Y-88368112D01*
X170367000Y-88368112D01*
X170367000Y-89729862D01*
X170525250Y-89888112D01*
X170871911Y-89888112D01*
X171104565Y-89791744D01*
X171282631Y-89613678D01*
X171379000Y-89381024D01*
X171379000Y-88526362D01*
X171220750Y-88368112D01*
X170367000Y-88368112D01*
X170109000Y-88368112D01*
X169255250Y-88368112D01*
X169097000Y-88526362D01*
X167317346Y-88526362D01*
X167317346Y-87480000D01*
X167291198Y-87341034D01*
X167209069Y-87213401D01*
X167083754Y-87127777D01*
X166935000Y-87097654D01*
X165685000Y-87097654D01*
X165546034Y-87123802D01*
X165418401Y-87205931D01*
X165332777Y-87331246D01*
X165302654Y-87480000D01*
X165302654Y-87605000D01*
X164696346Y-87605000D01*
X164696346Y-87231112D01*
X164670198Y-87092146D01*
X164588069Y-86964513D01*
X164462754Y-86878889D01*
X164431000Y-86872459D01*
X164431000Y-84934884D01*
X164918683Y-84447201D01*
X168822602Y-84447201D01*
X168743369Y-84526434D01*
X168647000Y-84759088D01*
X168647000Y-85222750D01*
X168805250Y-85381000D01*
X169901000Y-85381000D01*
X169901000Y-85361000D01*
X170159000Y-85361000D01*
X170159000Y-85381000D01*
X170179000Y-85381000D01*
X170179000Y-85639000D01*
X170159000Y-85639000D01*
X170159000Y-85659000D01*
X169901000Y-85659000D01*
X169901000Y-85639000D01*
X168805250Y-85639000D01*
X168647000Y-85797250D01*
X168647000Y-86260912D01*
X168743369Y-86493566D01*
X168921435Y-86671632D01*
X169154089Y-86768000D01*
X169289915Y-86768000D01*
X169193369Y-86864546D01*
X169097000Y-87097200D01*
X169097000Y-87951862D01*
X169255250Y-88110112D01*
X170109000Y-88110112D01*
X170109000Y-88090112D01*
X170367000Y-88090112D01*
X170367000Y-88110112D01*
X171220750Y-88110112D01*
X171379000Y-87951862D01*
X171379000Y-87097200D01*
X171282631Y-86864546D01*
X171104565Y-86686480D01*
X171103642Y-86686098D01*
X171138565Y-86671632D01*
X171316631Y-86493566D01*
X171413000Y-86260912D01*
X171413000Y-86216558D01*
X171423802Y-86273966D01*
X171505931Y-86401599D01*
X171631246Y-86487223D01*
X171780000Y-86517346D01*
X171899000Y-86517346D01*
X171899000Y-86862781D01*
X171877034Y-86866914D01*
X171749401Y-86949043D01*
X171663777Y-87074358D01*
X171633654Y-87223112D01*
X171633654Y-89255112D01*
X171659802Y-89394078D01*
X171741931Y-89521711D01*
X171867246Y-89607335D01*
X171899000Y-89613765D01*
X171899000Y-93444766D01*
X170695200Y-93444766D01*
X170556234Y-93470914D01*
X170428601Y-93553043D01*
X170342977Y-93678358D01*
X170312854Y-93827112D01*
X170312854Y-95859112D01*
X170339002Y-95998078D01*
X170421131Y-96125711D01*
X170546446Y-96211335D01*
X170695200Y-96241458D01*
X174352800Y-96241458D01*
X174491766Y-96215310D01*
X174619399Y-96133181D01*
X174705023Y-96007866D01*
X174735146Y-95859112D01*
X174735146Y-95057256D01*
X180909757Y-95057256D01*
X181122445Y-95572000D01*
X181515928Y-95966170D01*
X182030301Y-96179757D01*
X182587256Y-96180243D01*
X183102000Y-95967555D01*
X183496170Y-95574072D01*
X183641243Y-95224698D01*
X183749684Y-95487143D01*
X184101007Y-95839081D01*
X184560269Y-96029783D01*
X185057550Y-96030217D01*
X185517143Y-95840316D01*
X185869081Y-95488993D01*
X186059783Y-95029731D01*
X186059785Y-95027555D01*
X186249684Y-95487143D01*
X186601007Y-95839081D01*
X187060269Y-96029783D01*
X187557550Y-96030217D01*
X188017143Y-95840316D01*
X188369081Y-95488993D01*
X188559783Y-95029731D01*
X188560217Y-94532450D01*
X188370316Y-94072857D01*
X188018993Y-93720919D01*
X187559731Y-93530217D01*
X187062450Y-93529783D01*
X186602857Y-93719684D01*
X186250919Y-94071007D01*
X186060217Y-94530269D01*
X186060215Y-94532445D01*
X185870316Y-94072857D01*
X185518993Y-93720919D01*
X185059731Y-93530217D01*
X184562450Y-93529783D01*
X184102857Y-93719684D01*
X183750919Y-94071007D01*
X183641116Y-94335443D01*
X183497555Y-93988000D01*
X183104072Y-93593830D01*
X182589699Y-93380243D01*
X182032744Y-93379757D01*
X181518000Y-93592445D01*
X181123830Y-93985928D01*
X180910243Y-94500301D01*
X180909757Y-95057256D01*
X174735146Y-95057256D01*
X174735146Y-93827112D01*
X174708998Y-93688146D01*
X174626869Y-93560513D01*
X174501554Y-93474889D01*
X174352800Y-93444766D01*
X173149000Y-93444766D01*
X173149000Y-91017250D01*
X176052000Y-91017250D01*
X176052000Y-91605911D01*
X176148368Y-91838565D01*
X176326434Y-92016631D01*
X176559088Y-92113000D01*
X177022750Y-92113000D01*
X177181000Y-91954750D01*
X177181000Y-90859000D01*
X177439000Y-90859000D01*
X177439000Y-91954750D01*
X177597250Y-92113000D01*
X178060912Y-92113000D01*
X178293566Y-92016631D01*
X178471632Y-91838565D01*
X178568000Y-91605911D01*
X178568000Y-91017250D01*
X178409750Y-90859000D01*
X177439000Y-90859000D01*
X177181000Y-90859000D01*
X176210250Y-90859000D01*
X176052000Y-91017250D01*
X173149000Y-91017250D01*
X173149000Y-89615443D01*
X173170966Y-89611310D01*
X173298599Y-89529181D01*
X173384223Y-89403866D01*
X173414346Y-89255112D01*
X173414346Y-87223112D01*
X173766715Y-87223112D01*
X173766715Y-89255112D01*
X173803323Y-89449665D01*
X173918304Y-89628351D01*
X174093744Y-89748224D01*
X174302000Y-89790397D01*
X175318000Y-89790397D01*
X175512553Y-89753789D01*
X175691239Y-89638808D01*
X175811112Y-89463368D01*
X175853285Y-89255112D01*
X175853285Y-89005000D01*
X176154419Y-89005000D01*
X176186323Y-89174553D01*
X176301304Y-89353239D01*
X176392913Y-89415832D01*
X176326434Y-89443369D01*
X176148368Y-89621435D01*
X176052000Y-89854089D01*
X176052000Y-90442750D01*
X176210250Y-90601000D01*
X177181000Y-90601000D01*
X177181000Y-90581000D01*
X177439000Y-90581000D01*
X177439000Y-90601000D01*
X178409750Y-90601000D01*
X178568000Y-90442750D01*
X178568000Y-89854089D01*
X178471632Y-89621435D01*
X178293566Y-89443369D01*
X178227166Y-89415865D01*
X178308239Y-89363696D01*
X178428112Y-89188256D01*
X178465222Y-89005000D01*
X180860000Y-89005000D01*
X181156580Y-88946007D01*
X181408008Y-88778008D01*
X182013313Y-88172703D01*
X182030301Y-88179757D01*
X182587256Y-88180243D01*
X183102000Y-87967555D01*
X183496170Y-87574072D01*
X183641243Y-87224698D01*
X183749684Y-87487143D01*
X184101007Y-87839081D01*
X184560269Y-88029783D01*
X185057550Y-88030217D01*
X185517143Y-87840316D01*
X185869081Y-87488993D01*
X186059783Y-87029731D01*
X186059785Y-87027555D01*
X186249684Y-87487143D01*
X186601007Y-87839081D01*
X187060269Y-88029783D01*
X187557550Y-88030217D01*
X188017143Y-87840316D01*
X188369081Y-87488993D01*
X188559783Y-87029731D01*
X188560217Y-86532450D01*
X188370316Y-86072857D01*
X188018993Y-85720919D01*
X187559731Y-85530217D01*
X187062450Y-85529783D01*
X186602857Y-85719684D01*
X186250919Y-86071007D01*
X186060217Y-86530269D01*
X186060215Y-86532445D01*
X185870316Y-86072857D01*
X185518993Y-85720919D01*
X185059731Y-85530217D01*
X184562450Y-85529783D01*
X184102857Y-85719684D01*
X183750919Y-86071007D01*
X183641116Y-86335443D01*
X183497555Y-85988000D01*
X183104072Y-85593830D01*
X182589699Y-85380243D01*
X182032744Y-85379757D01*
X181518000Y-85592445D01*
X181123830Y-85985928D01*
X180910243Y-86500301D01*
X180909757Y-87057256D01*
X180917643Y-87076341D01*
X180538984Y-87455000D01*
X178465581Y-87455000D01*
X178433677Y-87285447D01*
X178318696Y-87106761D01*
X178143256Y-86986888D01*
X177935000Y-86944715D01*
X176685000Y-86944715D01*
X176490447Y-86981323D01*
X176311761Y-87096304D01*
X176191888Y-87271744D01*
X176154778Y-87455000D01*
X175853285Y-87455000D01*
X175853285Y-87223112D01*
X175816677Y-87028559D01*
X175701696Y-86849873D01*
X175526256Y-86730000D01*
X175318000Y-86687827D01*
X174302000Y-86687827D01*
X174107447Y-86724435D01*
X173928761Y-86839416D01*
X173808888Y-87014856D01*
X173766715Y-87223112D01*
X173414346Y-87223112D01*
X173388198Y-87084146D01*
X173306069Y-86956513D01*
X173180754Y-86870889D01*
X173149000Y-86864459D01*
X173149000Y-86517346D01*
X173280000Y-86517346D01*
X173418966Y-86491198D01*
X173546599Y-86409069D01*
X173632223Y-86283754D01*
X173662346Y-86135000D01*
X173662346Y-85983675D01*
X173721342Y-85971940D01*
X173883553Y-85863553D01*
X175247107Y-84500000D01*
X179811870Y-84500000D01*
X180003212Y-84461940D01*
X180165423Y-84353553D01*
X184198976Y-80320000D01*
X193391749Y-80320000D01*
X193486032Y-80793992D01*
X193754527Y-81195822D01*
X194156357Y-81464317D01*
X194630349Y-81558600D01*
X194989651Y-81558600D01*
X195463643Y-81464317D01*
X195865473Y-81195822D01*
X196133968Y-80793992D01*
X196228251Y-80320000D01*
X196133968Y-79846008D01*
X195865473Y-79444178D01*
X195463643Y-79175683D01*
X194989651Y-79081400D01*
X194630349Y-79081400D01*
X194156357Y-79175683D01*
X193754527Y-79444178D01*
X193486032Y-79846008D01*
X193391749Y-80320000D01*
X184198976Y-80320000D01*
X186552020Y-77966957D01*
X186653618Y-77967046D01*
X186901798Y-77864500D01*
X186986445Y-77780000D01*
X193391749Y-77780000D01*
X193486032Y-78253992D01*
X193754527Y-78655822D01*
X194156357Y-78924317D01*
X194630349Y-79018600D01*
X194989651Y-79018600D01*
X195463643Y-78924317D01*
X195865473Y-78655822D01*
X196133968Y-78253992D01*
X196228251Y-77780000D01*
X196133968Y-77306008D01*
X195865473Y-76904178D01*
X195463643Y-76635683D01*
X194989651Y-76541400D01*
X194630349Y-76541400D01*
X194156357Y-76635683D01*
X193754527Y-76904178D01*
X193486032Y-77306008D01*
X193391749Y-77780000D01*
X186986445Y-77780000D01*
X187091844Y-77674785D01*
X187194824Y-77426784D01*
X187195058Y-77158252D01*
X187092512Y-76910072D01*
X186902797Y-76720026D01*
X186654796Y-76617046D01*
X186386264Y-76616812D01*
X186138084Y-76719358D01*
X185948038Y-76909073D01*
X185845058Y-77157074D01*
X185844968Y-77259795D01*
X179604764Y-83500000D01*
X175040000Y-83500000D01*
X174848658Y-83538060D01*
X174686446Y-83646447D01*
X173616880Y-84716013D01*
X173554069Y-84618401D01*
X173428754Y-84532777D01*
X173280000Y-84502654D01*
X172281538Y-84502654D01*
X171159143Y-83380259D01*
X170956378Y-83244776D01*
X170717201Y-83197201D01*
X164918682Y-83197201D01*
X163188572Y-81467090D01*
X163188572Y-77269858D01*
X163213572Y-77269858D01*
X163352538Y-77243710D01*
X163480171Y-77161581D01*
X163565795Y-77036266D01*
X163595918Y-76887512D01*
X163595918Y-75387512D01*
X163569770Y-75248546D01*
X163487641Y-75120913D01*
X163362326Y-75035289D01*
X163213572Y-75005166D01*
X161913572Y-75005166D01*
X161774606Y-75031314D01*
X161646973Y-75113443D01*
X161561349Y-75238758D01*
X161531226Y-75387512D01*
X161531226Y-76378749D01*
X161438452Y-76285975D01*
X161438452Y-75387512D01*
X161412304Y-75248546D01*
X161330175Y-75120913D01*
X161204860Y-75035289D01*
X161056106Y-75005166D01*
X159942272Y-75005166D01*
X159635475Y-74698369D01*
X159756106Y-74722797D01*
X161056106Y-74722797D01*
X161250659Y-74686189D01*
X161429345Y-74571208D01*
X161484583Y-74490364D01*
X161529876Y-74560751D01*
X161705316Y-74680624D01*
X161913572Y-74722797D01*
X163213572Y-74722797D01*
X163408125Y-74686189D01*
X163586811Y-74571208D01*
X163706684Y-74395768D01*
X163745063Y-74206248D01*
X164010152Y-74153519D01*
X164261580Y-73985520D01*
X168272100Y-69975000D01*
X168479126Y-69975000D01*
X168457777Y-70006246D01*
X168427654Y-70155000D01*
X168427654Y-71405000D01*
X168453802Y-71543966D01*
X168535931Y-71671599D01*
X168661246Y-71757223D01*
X168810000Y-71787346D01*
X169060000Y-71787346D01*
X169060000Y-71823336D01*
X168991667Y-71987899D01*
X168991433Y-72256431D01*
X169060152Y-72422744D01*
X166130845Y-72422744D01*
X165939503Y-72460804D01*
X165777292Y-72569191D01*
X164206436Y-74140047D01*
X164098049Y-74302258D01*
X164059989Y-74493600D01*
X164059989Y-79693977D01*
X164077100Y-79780000D01*
X164098049Y-79885319D01*
X164206436Y-80047530D01*
X165959724Y-81800819D01*
X165959661Y-81872218D01*
X165815327Y-81812285D01*
X165546795Y-81812051D01*
X165298615Y-81914597D01*
X165108569Y-82104312D01*
X165005589Y-82352313D01*
X165005355Y-82620845D01*
X165107901Y-82869025D01*
X165297616Y-83059071D01*
X165545617Y-83162051D01*
X165814149Y-83162285D01*
X166062329Y-83059739D01*
X166135027Y-82987168D01*
X168556836Y-82987168D01*
X168748178Y-82949108D01*
X168910389Y-82840721D01*
X169503554Y-82247557D01*
X169503556Y-82247554D01*
X170813554Y-80937557D01*
X170921940Y-80775346D01*
X170960000Y-80584004D01*
X170960000Y-80287346D01*
X171210000Y-80287346D01*
X171348966Y-80261198D01*
X171476599Y-80179069D01*
X171518838Y-80117250D01*
X178152000Y-80117250D01*
X178152000Y-80705911D01*
X178248368Y-80938565D01*
X178426434Y-81116631D01*
X178659088Y-81213000D01*
X179122750Y-81213000D01*
X179281000Y-81054750D01*
X179281000Y-79959000D01*
X179539000Y-79959000D01*
X179539000Y-81054750D01*
X179697250Y-81213000D01*
X180160912Y-81213000D01*
X180393566Y-81116631D01*
X180571632Y-80938565D01*
X180668000Y-80705911D01*
X180668000Y-80117250D01*
X180509750Y-79959000D01*
X179539000Y-79959000D01*
X179281000Y-79959000D01*
X178310250Y-79959000D01*
X178152000Y-80117250D01*
X171518838Y-80117250D01*
X171562223Y-80053754D01*
X171592346Y-79905000D01*
X171592346Y-78655000D01*
X171566198Y-78516034D01*
X171484069Y-78388401D01*
X171358754Y-78302777D01*
X171284388Y-78287718D01*
X172254856Y-77317250D01*
X172952000Y-77317250D01*
X172952000Y-77905911D01*
X173048368Y-78138565D01*
X173226434Y-78316631D01*
X173459088Y-78413000D01*
X173922750Y-78413000D01*
X174081000Y-78254750D01*
X174081000Y-77159000D01*
X174339000Y-77159000D01*
X174339000Y-78254750D01*
X174497250Y-78413000D01*
X174960912Y-78413000D01*
X175193566Y-78316631D01*
X175371632Y-78138565D01*
X175468000Y-77905911D01*
X175468000Y-77317250D01*
X175309750Y-77159000D01*
X174339000Y-77159000D01*
X174081000Y-77159000D01*
X173110250Y-77159000D01*
X172952000Y-77317250D01*
X172254856Y-77317250D01*
X172952000Y-76620107D01*
X172952000Y-76742750D01*
X173110250Y-76901000D01*
X174081000Y-76901000D01*
X174081000Y-76881000D01*
X174339000Y-76881000D01*
X174339000Y-76901000D01*
X175309750Y-76901000D01*
X175468000Y-76742750D01*
X175468000Y-76154089D01*
X175371632Y-75921435D01*
X175193566Y-75743369D01*
X174960912Y-75647000D01*
X174916558Y-75647000D01*
X174973966Y-75636198D01*
X175101599Y-75554069D01*
X175187223Y-75428754D01*
X175217346Y-75280000D01*
X175217346Y-75030000D01*
X175352894Y-75030000D01*
X177334972Y-77012078D01*
X177334883Y-77113677D01*
X177437429Y-77361857D01*
X177627144Y-77551903D01*
X177875145Y-77654883D01*
X177977866Y-77654973D01*
X178006447Y-77683554D01*
X178168658Y-77791940D01*
X178360000Y-77830000D01*
X178402654Y-77830000D01*
X178402654Y-78080000D01*
X178428802Y-78218966D01*
X178510931Y-78346599D01*
X178636246Y-78432223D01*
X178709218Y-78447000D01*
X178659088Y-78447000D01*
X178426434Y-78543369D01*
X178248368Y-78721435D01*
X178152000Y-78954089D01*
X178152000Y-79542750D01*
X178310250Y-79701000D01*
X179281000Y-79701000D01*
X179281000Y-79681000D01*
X179539000Y-79681000D01*
X179539000Y-79701000D01*
X180509750Y-79701000D01*
X180668000Y-79542750D01*
X180668000Y-78954089D01*
X180571632Y-78721435D01*
X180393566Y-78543369D01*
X180160912Y-78447000D01*
X180116558Y-78447000D01*
X180173966Y-78436198D01*
X180301599Y-78354069D01*
X180387223Y-78228754D01*
X180417346Y-78080000D01*
X180417346Y-76580000D01*
X180391198Y-76441034D01*
X180309069Y-76313401D01*
X180183754Y-76227777D01*
X180035000Y-76197654D01*
X178785000Y-76197654D01*
X178646034Y-76223802D01*
X178518401Y-76305931D01*
X178432777Y-76431246D01*
X178429942Y-76445247D01*
X178392856Y-76408097D01*
X178144855Y-76305117D01*
X178042134Y-76305027D01*
X175913553Y-74176447D01*
X175751342Y-74068060D01*
X175560000Y-74030000D01*
X175217346Y-74030000D01*
X175217346Y-73906860D01*
X180474881Y-73906860D01*
X180577427Y-74155040D01*
X180630137Y-74207842D01*
X180578097Y-74259791D01*
X180475117Y-74507792D01*
X180474883Y-74776324D01*
X180577429Y-75024504D01*
X180767144Y-75214550D01*
X181015145Y-75317530D01*
X181117866Y-75317620D01*
X181933625Y-76133379D01*
X182029820Y-76197654D01*
X182095836Y-76241765D01*
X182287178Y-76279825D01*
X183728380Y-76279825D01*
X183800158Y-76351728D01*
X184048159Y-76454708D01*
X184316691Y-76454942D01*
X184564871Y-76352396D01*
X184754917Y-76162681D01*
X184857897Y-75914680D01*
X184858131Y-75646148D01*
X184755585Y-75397968D01*
X184565870Y-75207922D01*
X184317869Y-75104942D01*
X184049337Y-75104708D01*
X183801157Y-75207254D01*
X183728459Y-75279825D01*
X182494285Y-75279825D01*
X181825028Y-74610569D01*
X181825117Y-74508970D01*
X181727692Y-74273183D01*
X188266472Y-74273183D01*
X188365518Y-74372228D01*
X188365429Y-74473827D01*
X188467975Y-74722007D01*
X188657690Y-74912053D01*
X188905691Y-75015033D01*
X189174223Y-75015267D01*
X189422403Y-74912721D01*
X189612449Y-74723006D01*
X189715429Y-74475005D01*
X189715663Y-74206473D01*
X189613117Y-73958293D01*
X189423402Y-73768247D01*
X189175401Y-73665267D01*
X189072680Y-73665177D01*
X188827132Y-73419630D01*
X188664921Y-73311243D01*
X188473579Y-73273183D01*
X181604632Y-73273183D01*
X181532854Y-73201280D01*
X181284853Y-73098300D01*
X181016321Y-73098066D01*
X180768141Y-73200612D01*
X180578095Y-73390327D01*
X180475115Y-73638328D01*
X180474881Y-73906860D01*
X175217346Y-73906860D01*
X175217346Y-73780000D01*
X175191198Y-73641034D01*
X175109069Y-73513401D01*
X174983754Y-73427777D01*
X174835000Y-73397654D01*
X173585000Y-73397654D01*
X173446034Y-73423802D01*
X173318401Y-73505931D01*
X173232777Y-73631246D01*
X173202654Y-73780000D01*
X173202654Y-74030000D01*
X172385872Y-74030000D01*
X170339356Y-71983484D01*
X170258313Y-71787346D01*
X170310000Y-71787346D01*
X170448966Y-71761198D01*
X170576599Y-71679069D01*
X170662223Y-71553754D01*
X170677000Y-71480782D01*
X170677000Y-71530912D01*
X170773369Y-71763566D01*
X170951435Y-71941632D01*
X171184089Y-72038000D01*
X171772750Y-72038000D01*
X171931000Y-71879750D01*
X171931000Y-70909000D01*
X172189000Y-70909000D01*
X172189000Y-71879750D01*
X172347250Y-72038000D01*
X172935911Y-72038000D01*
X173168565Y-71941632D01*
X173346631Y-71763566D01*
X173443000Y-71530912D01*
X173443000Y-71067250D01*
X173284750Y-70909000D01*
X172189000Y-70909000D01*
X171931000Y-70909000D01*
X171911000Y-70909000D01*
X171911000Y-70651000D01*
X171931000Y-70651000D01*
X171931000Y-70631000D01*
X172189000Y-70631000D01*
X172189000Y-70651000D01*
X173284750Y-70651000D01*
X173443000Y-70492750D01*
X173443000Y-70029088D01*
X173420596Y-69975000D01*
X180248984Y-69975000D01*
X180601992Y-70328008D01*
X180853420Y-70496007D01*
X181150000Y-70555000D01*
X193615421Y-70555000D01*
X193622445Y-70572000D01*
X194015928Y-70966170D01*
X194530301Y-71179757D01*
X195087256Y-71180243D01*
X195602000Y-70967555D01*
X195996170Y-70574072D01*
X196209757Y-70059699D01*
X196210243Y-69502744D01*
X195997555Y-68988000D01*
X195604072Y-68593830D01*
X195254698Y-68448757D01*
X195517143Y-68340316D01*
X195869081Y-67988993D01*
X196059783Y-67529731D01*
X196060217Y-67032450D01*
X195870316Y-66572857D01*
X195518993Y-66220919D01*
X195059731Y-66030217D01*
X195057555Y-66030215D01*
X195517143Y-65840316D01*
X195869081Y-65488993D01*
X196059783Y-65029731D01*
X196060217Y-64532450D01*
X195870316Y-64072857D01*
X195518993Y-63720919D01*
X195059731Y-63530217D01*
X195057555Y-63530215D01*
X195517143Y-63340316D01*
X195869081Y-62988993D01*
X196059783Y-62529731D01*
X196060217Y-62032450D01*
X195870316Y-61572857D01*
X195518993Y-61220919D01*
X195059731Y-61030217D01*
X194562450Y-61029783D01*
X194102857Y-61219684D01*
X193750919Y-61571007D01*
X193560217Y-62030269D01*
X193559783Y-62527550D01*
X193749684Y-62987143D01*
X194101007Y-63339081D01*
X194560269Y-63529783D01*
X194562445Y-63529785D01*
X194102857Y-63719684D01*
X193750919Y-64071007D01*
X193560217Y-64530269D01*
X193559783Y-65027550D01*
X193749684Y-65487143D01*
X194101007Y-65839081D01*
X194560269Y-66029783D01*
X194562445Y-66029785D01*
X194102857Y-66219684D01*
X193750919Y-66571007D01*
X193560217Y-67030269D01*
X193559783Y-67527550D01*
X193749684Y-67987143D01*
X194101007Y-68339081D01*
X194365443Y-68448884D01*
X194018000Y-68592445D01*
X193623830Y-68985928D01*
X193615911Y-69005000D01*
X188582349Y-69005000D01*
X188865473Y-68815822D01*
X189133968Y-68413992D01*
X189228251Y-67940000D01*
X189133968Y-67466008D01*
X188865473Y-67064178D01*
X188463643Y-66795683D01*
X187989651Y-66701400D01*
X187630349Y-66701400D01*
X187156357Y-66795683D01*
X186754527Y-67064178D01*
X186503410Y-67440000D01*
X178629383Y-67440000D01*
X178544738Y-67355207D01*
X178296737Y-67252227D01*
X178028205Y-67251993D01*
X177780025Y-67354539D01*
X177589979Y-67544254D01*
X177486999Y-67792255D01*
X177486765Y-68060787D01*
X177589311Y-68308967D01*
X177705142Y-68425000D01*
X169833219Y-68425000D01*
X169849893Y-68384845D01*
X169849983Y-68282124D01*
X170769761Y-67362346D01*
X171460000Y-67362346D01*
X171598966Y-67336198D01*
X171726599Y-67254069D01*
X171811130Y-67130354D01*
X171885931Y-67246599D01*
X172011246Y-67332223D01*
X172160000Y-67362346D01*
X173460000Y-67362346D01*
X173598966Y-67336198D01*
X173726599Y-67254069D01*
X173812223Y-67128754D01*
X173842346Y-66980000D01*
X173842346Y-66413677D01*
X183134883Y-66413677D01*
X183237429Y-66661857D01*
X183427144Y-66851903D01*
X183675145Y-66954883D01*
X183943677Y-66955117D01*
X184191857Y-66852571D01*
X184264555Y-66780000D01*
X186930000Y-66780000D01*
X187121342Y-66741940D01*
X187283553Y-66633553D01*
X187336881Y-66580225D01*
X187630349Y-66638600D01*
X187989651Y-66638600D01*
X188463643Y-66544317D01*
X188865473Y-66275822D01*
X189133968Y-65873992D01*
X189228251Y-65400000D01*
X189133968Y-64926008D01*
X188865473Y-64524178D01*
X188463643Y-64255683D01*
X187989651Y-64161400D01*
X187630349Y-64161400D01*
X187156357Y-64255683D01*
X186754527Y-64524178D01*
X186486032Y-64926008D01*
X186391749Y-65400000D01*
X186467336Y-65780000D01*
X184264634Y-65780000D01*
X184192856Y-65708097D01*
X183944855Y-65605117D01*
X183676323Y-65604883D01*
X183428143Y-65707429D01*
X183238097Y-65897144D01*
X183135117Y-66145145D01*
X183134883Y-66413677D01*
X173842346Y-66413677D01*
X173842346Y-65480000D01*
X173816198Y-65341034D01*
X173734069Y-65213401D01*
X173608754Y-65127777D01*
X173460000Y-65097654D01*
X172160000Y-65097654D01*
X172021034Y-65123802D01*
X171893401Y-65205931D01*
X171808870Y-65329646D01*
X171734069Y-65213401D01*
X171608754Y-65127777D01*
X171496281Y-65105001D01*
X171834999Y-65105001D01*
X172026341Y-65066941D01*
X172188552Y-64958554D01*
X172484760Y-64662346D01*
X173460000Y-64662346D01*
X173598966Y-64636198D01*
X173726599Y-64554069D01*
X173812223Y-64428754D01*
X173842346Y-64280000D01*
X173842346Y-64030000D01*
X178120000Y-64030000D01*
X178311342Y-63991940D01*
X178473553Y-63883553D01*
X179497106Y-62860000D01*
X186391749Y-62860000D01*
X186486032Y-63333992D01*
X186754527Y-63735822D01*
X187156357Y-64004317D01*
X187630349Y-64098600D01*
X187989651Y-64098600D01*
X188463643Y-64004317D01*
X188865473Y-63735822D01*
X189133968Y-63333992D01*
X189228251Y-62860000D01*
X189133968Y-62386008D01*
X188865473Y-61984178D01*
X188463643Y-61715683D01*
X187989651Y-61621400D01*
X187630349Y-61621400D01*
X187156357Y-61715683D01*
X186754527Y-61984178D01*
X186486032Y-62386008D01*
X186391749Y-62860000D01*
X179497106Y-62860000D01*
X184577106Y-57780000D01*
X186391749Y-57780000D01*
X186486032Y-58253992D01*
X186754527Y-58655822D01*
X187156357Y-58924317D01*
X187630349Y-59018600D01*
X187989651Y-59018600D01*
X188463643Y-58924317D01*
X188865473Y-58655822D01*
X189133968Y-58253992D01*
X189228251Y-57780000D01*
X189133968Y-57306008D01*
X188865473Y-56904178D01*
X188463643Y-56635683D01*
X187989651Y-56541400D01*
X187630349Y-56541400D01*
X187156357Y-56635683D01*
X186754527Y-56904178D01*
X186486032Y-57306008D01*
X186391749Y-57780000D01*
X184577106Y-57780000D01*
X186411654Y-55945453D01*
X186411654Y-56103600D01*
X186437802Y-56242566D01*
X186519931Y-56370199D01*
X186645246Y-56455823D01*
X186794000Y-56485946D01*
X188826000Y-56485946D01*
X188964966Y-56459798D01*
X189092599Y-56377669D01*
X189178223Y-56252354D01*
X189208346Y-56103600D01*
X189208346Y-54376400D01*
X189182198Y-54237434D01*
X189100069Y-54109801D01*
X188974754Y-54024177D01*
X188826000Y-53994054D01*
X186794000Y-53994054D01*
X186655034Y-54020202D01*
X186527401Y-54102331D01*
X186441777Y-54227646D01*
X186411654Y-54376400D01*
X186411654Y-54740000D01*
X186410000Y-54740000D01*
X186218658Y-54778060D01*
X186056446Y-54886447D01*
X177912894Y-63030000D01*
X173842346Y-63030000D01*
X173842346Y-62780000D01*
X173816198Y-62641034D01*
X173734069Y-62513401D01*
X173608754Y-62427777D01*
X173460000Y-62397654D01*
X172160000Y-62397654D01*
X172021034Y-62423802D01*
X172002541Y-62435702D01*
X171996632Y-62421435D01*
X171818566Y-62243369D01*
X171585912Y-62147000D01*
X171097250Y-62147000D01*
X170939000Y-62305250D01*
X170939000Y-63401000D01*
X170959000Y-63401000D01*
X170959000Y-63659000D01*
X170939000Y-63659000D01*
X170939000Y-63679000D01*
X170681000Y-63679000D01*
X170681000Y-63659000D01*
X169685250Y-63659000D01*
X169527000Y-63817250D01*
X169527000Y-64405911D01*
X169623368Y-64638565D01*
X169683849Y-64699046D01*
X163602894Y-70780000D01*
X160264634Y-70780000D01*
X160192856Y-70708097D01*
X159944855Y-70605117D01*
X159676323Y-70604883D01*
X159428143Y-70707429D01*
X159238097Y-70897144D01*
X159186357Y-71021747D01*
X158585000Y-70420390D01*
X158585000Y-62654089D01*
X169527000Y-62654089D01*
X169527000Y-63242750D01*
X169685250Y-63401000D01*
X170681000Y-63401000D01*
X170681000Y-62305250D01*
X170522750Y-62147000D01*
X170034088Y-62147000D01*
X169801434Y-62243369D01*
X169623368Y-62421435D01*
X169527000Y-62654089D01*
X158585000Y-62654089D01*
X158585000Y-62280000D01*
X158526007Y-61983420D01*
X158358008Y-61731992D01*
X156702703Y-60076687D01*
X156709757Y-60059699D01*
X156710243Y-59502744D01*
X156497555Y-58988000D01*
X156104072Y-58593830D01*
X155589699Y-58380243D01*
X155032744Y-58379757D01*
X154518000Y-58592445D01*
X154123830Y-58985928D01*
X153910243Y-59500301D01*
X153909757Y-60057256D01*
X150600000Y-60057256D01*
X150600000Y-55100349D01*
X165571400Y-55100349D01*
X165571400Y-55459651D01*
X165665683Y-55933643D01*
X165934178Y-56335473D01*
X166336008Y-56603968D01*
X166810000Y-56698251D01*
X167283992Y-56603968D01*
X167685822Y-56335473D01*
X167954317Y-55933643D01*
X168048600Y-55459651D01*
X168048600Y-55100349D01*
X168111400Y-55100349D01*
X168111400Y-55459651D01*
X168205683Y-55933643D01*
X168474178Y-56335473D01*
X168876008Y-56603968D01*
X169350000Y-56698251D01*
X169823992Y-56603968D01*
X170225822Y-56335473D01*
X170494317Y-55933643D01*
X170588600Y-55459651D01*
X170588600Y-55100349D01*
X178071400Y-55100349D01*
X178071400Y-55459651D01*
X178165683Y-55933643D01*
X178434178Y-56335473D01*
X178836008Y-56603968D01*
X179310000Y-56698251D01*
X179783992Y-56603968D01*
X180185822Y-56335473D01*
X180454317Y-55933643D01*
X180548600Y-55459651D01*
X180548600Y-55100349D01*
X180611400Y-55100349D01*
X180611400Y-55459651D01*
X180705683Y-55933643D01*
X180974178Y-56335473D01*
X181376008Y-56603968D01*
X181850000Y-56698251D01*
X182323992Y-56603968D01*
X182725822Y-56335473D01*
X182994317Y-55933643D01*
X183088600Y-55459651D01*
X183088600Y-55100349D01*
X182994317Y-54626357D01*
X182725822Y-54224527D01*
X182323992Y-53956032D01*
X181850000Y-53861749D01*
X181376008Y-53956032D01*
X180974178Y-54224527D01*
X180705683Y-54626357D01*
X180611400Y-55100349D01*
X180548600Y-55100349D01*
X180454317Y-54626357D01*
X180185822Y-54224527D01*
X179783992Y-53956032D01*
X179310000Y-53861749D01*
X178836008Y-53956032D01*
X178434178Y-54224527D01*
X178165683Y-54626357D01*
X178071400Y-55100349D01*
X170588600Y-55100349D01*
X170494317Y-54626357D01*
X170225822Y-54224527D01*
X169823992Y-53956032D01*
X169350000Y-53861749D01*
X168876008Y-53956032D01*
X168474178Y-54224527D01*
X168205683Y-54626357D01*
X168111400Y-55100349D01*
X168048600Y-55100349D01*
X167954317Y-54626357D01*
X167685822Y-54224527D01*
X167283992Y-53956032D01*
X166810000Y-53861749D01*
X166336008Y-53956032D01*
X165934178Y-54224527D01*
X165665683Y-54626357D01*
X165571400Y-55100349D01*
X150600000Y-55100349D01*
X150600000Y-50450000D01*
X199700000Y-50450000D01*
X199700000Y-99550000D01*
G36*
X171825213Y-74883553D02*
X171987424Y-74991940D01*
X172178766Y-75030000D01*
X173127894Y-75030000D01*
X172656450Y-75501444D01*
X172656447Y-75501446D01*
X171592346Y-76565547D01*
X171592346Y-76155000D01*
X171566198Y-76016034D01*
X171484069Y-75888401D01*
X171358754Y-75802777D01*
X171210000Y-75772654D01*
X170933675Y-75772654D01*
X170921940Y-75713658D01*
X170870182Y-75636198D01*
X170813554Y-75551447D01*
X170334842Y-75072736D01*
X170179348Y-74968837D01*
X170065096Y-74854386D01*
X169817095Y-74751406D01*
X169548563Y-74751172D01*
X169300383Y-74853718D01*
X169110337Y-75043433D01*
X169007357Y-75291434D01*
X169007123Y-75559966D01*
X169023550Y-75599722D01*
X168835911Y-75522000D01*
X168247250Y-75522000D01*
X168089000Y-75680250D01*
X168089000Y-76651000D01*
X168109000Y-76651000D01*
X168109000Y-76909000D01*
X168089000Y-76909000D01*
X168089000Y-77879750D01*
X168239250Y-78030000D01*
X168089000Y-78180250D01*
X168089000Y-79151000D01*
X168109000Y-79151000D01*
X168109000Y-79409000D01*
X168089000Y-79409000D01*
X168089000Y-80379750D01*
X168247250Y-80538000D01*
X168835911Y-80538000D01*
X169068565Y-80441632D01*
X169246631Y-80263566D01*
X169343000Y-80030912D01*
X169343000Y-79986558D01*
X169353802Y-80043966D01*
X169435931Y-80171599D01*
X169561246Y-80257223D01*
X169710000Y-80287346D01*
X169960000Y-80287346D01*
X169960000Y-80376897D01*
X168796450Y-81540448D01*
X168796447Y-81540450D01*
X168349730Y-81987168D01*
X168282861Y-81987168D01*
X168333017Y-81866381D01*
X168333251Y-81597849D01*
X168230705Y-81349669D01*
X168040990Y-81159623D01*
X167792989Y-81056643D01*
X167690268Y-81056553D01*
X167171715Y-80538000D01*
X167672750Y-80538000D01*
X167831000Y-80379750D01*
X167831000Y-79409000D01*
X166735250Y-79409000D01*
X166577000Y-79567250D01*
X166577000Y-79943285D01*
X165510000Y-78876286D01*
X165510000Y-77067250D01*
X166577000Y-77067250D01*
X166577000Y-77530912D01*
X166673369Y-77763566D01*
X166851435Y-77941632D01*
X167064775Y-78030000D01*
X166851435Y-78118368D01*
X166673369Y-78296434D01*
X166577000Y-78529088D01*
X166577000Y-78992750D01*
X166735250Y-79151000D01*
X167831000Y-79151000D01*
X167831000Y-78180250D01*
X167680750Y-78030000D01*
X167831000Y-77879750D01*
X167831000Y-76909000D01*
X166735250Y-76909000D01*
X166577000Y-77067250D01*
X165510000Y-77067250D01*
X165510000Y-76029088D01*
X166577000Y-76029088D01*
X166577000Y-76492750D01*
X166735250Y-76651000D01*
X167831000Y-76651000D01*
X167831000Y-75680250D01*
X167672750Y-75522000D01*
X167084089Y-75522000D01*
X166851435Y-75618368D01*
X166673369Y-75796434D01*
X166577000Y-76029088D01*
X165510000Y-76029088D01*
X165510000Y-74887106D01*
X166174351Y-74222755D01*
X169218283Y-74222755D01*
X169290061Y-74294658D01*
X169538062Y-74397638D01*
X169806594Y-74397872D01*
X170054774Y-74295326D01*
X170244820Y-74105611D01*
X170347800Y-73857610D01*
X170348034Y-73589078D01*
X170245488Y-73340898D01*
X170221401Y-73316769D01*
X170232589Y-73305600D01*
X170236894Y-73295234D01*
X171825213Y-74883553D01*
X171825213Y-74883553D01*
G37*
X171825213Y-74883553D02*
X171987424Y-74991940D01*
X172178766Y-75030000D01*
X173127894Y-75030000D01*
X172656450Y-75501444D01*
X172656447Y-75501446D01*
X171592346Y-76565547D01*
X171592346Y-76155000D01*
X171566198Y-76016034D01*
X171484069Y-75888401D01*
X171358754Y-75802777D01*
X171210000Y-75772654D01*
X170933675Y-75772654D01*
X170921940Y-75713658D01*
X170870182Y-75636198D01*
X170813554Y-75551447D01*
X170334842Y-75072736D01*
X170179348Y-74968837D01*
X170065096Y-74854386D01*
X169817095Y-74751406D01*
X169548563Y-74751172D01*
X169300383Y-74853718D01*
X169110337Y-75043433D01*
X169007357Y-75291434D01*
X169007123Y-75559966D01*
X169023550Y-75599722D01*
X168835911Y-75522000D01*
X168247250Y-75522000D01*
X168089000Y-75680250D01*
X168089000Y-76651000D01*
X168109000Y-76651000D01*
X168109000Y-76909000D01*
X168089000Y-76909000D01*
X168089000Y-77879750D01*
X168239250Y-78030000D01*
X168089000Y-78180250D01*
X168089000Y-79151000D01*
X168109000Y-79151000D01*
X168109000Y-79409000D01*
X168089000Y-79409000D01*
X168089000Y-80379750D01*
X168247250Y-80538000D01*
X168835911Y-80538000D01*
X169068565Y-80441632D01*
X169246631Y-80263566D01*
X169343000Y-80030912D01*
X169343000Y-79986558D01*
X169353802Y-80043966D01*
X169435931Y-80171599D01*
X169561246Y-80257223D01*
X169710000Y-80287346D01*
X169960000Y-80287346D01*
X169960000Y-80376897D01*
X168796450Y-81540448D01*
X168796447Y-81540450D01*
X168349730Y-81987168D01*
X168282861Y-81987168D01*
X168333017Y-81866381D01*
X168333251Y-81597849D01*
X168230705Y-81349669D01*
X168040990Y-81159623D01*
X167792989Y-81056643D01*
X167690268Y-81056553D01*
X167171715Y-80538000D01*
X167672750Y-80538000D01*
X167831000Y-80379750D01*
X167831000Y-79409000D01*
X166735250Y-79409000D01*
X166577000Y-79567250D01*
X166577000Y-79943285D01*
X165510000Y-78876286D01*
X165510000Y-77067250D01*
X166577000Y-77067250D01*
X166577000Y-77530912D01*
X166673369Y-77763566D01*
X166851435Y-77941632D01*
X167064775Y-78030000D01*
X166851435Y-78118368D01*
X166673369Y-78296434D01*
X166577000Y-78529088D01*
X166577000Y-78992750D01*
X166735250Y-79151000D01*
X167831000Y-79151000D01*
X167831000Y-78180250D01*
X167680750Y-78030000D01*
X167831000Y-77879750D01*
X167831000Y-76909000D01*
X166735250Y-76909000D01*
X166577000Y-77067250D01*
X165510000Y-77067250D01*
X165510000Y-76029088D01*
X166577000Y-76029088D01*
X166577000Y-76492750D01*
X166735250Y-76651000D01*
X167831000Y-76651000D01*
X167831000Y-75680250D01*
X167672750Y-75522000D01*
X167084089Y-75522000D01*
X166851435Y-75618368D01*
X166673369Y-75796434D01*
X166577000Y-76029088D01*
X165510000Y-76029088D01*
X165510000Y-74887106D01*
X166174351Y-74222755D01*
X169218283Y-74222755D01*
X169290061Y-74294658D01*
X169538062Y-74397638D01*
X169806594Y-74397872D01*
X170054774Y-74295326D01*
X170244820Y-74105611D01*
X170347800Y-73857610D01*
X170348034Y-73589078D01*
X170245488Y-73340898D01*
X170221401Y-73316769D01*
X170232589Y-73305600D01*
X170236894Y-73295234D01*
X171825213Y-74883553D01*
M02*
