G04 #@! TF.FileFunction,Soldermask,Bot*
%FSLAX46Y46*%
G04 Gerber Fmt 4.6, Leading zero omitted, Abs format (unit mm)*
G04 Created by KiCad (PCBNEW 4.0.5) date Thu Feb 16 15:30:16 2017*
%MOMM*%
%LPD*%
G01*
G04 APERTURE LIST*
%ADD10C,0.100000*%
%ADD11R,2.150000X2.150000*%
%ADD12C,2.150000*%
%ADD13O,2.099260X3.900120*%
%ADD14R,10.400000X16.150000*%
%ADD15C,1.924000*%
%ADD16R,1.900000X1.700000*%
%ADD17R,1.598880X1.598880*%
%ADD18C,3.400000*%
%ADD19C,3.100000*%
%ADD20R,4.000000X2.200000*%
%ADD21O,4.000000X2.200000*%
%ADD22R,1.650000X1.900000*%
%ADD23R,1.900000X1.650000*%
%ADD24C,2.398980*%
%ADD25R,2.398980X2.398980*%
%ADD26R,2.432000X2.127200*%
%ADD27O,2.432000X2.127200*%
%ADD28R,2.200000X4.000000*%
%ADD29O,2.200000X4.000000*%
%ADD30C,4.464000*%
%ADD31R,2.127200X2.432000*%
%ADD32O,2.127200X2.432000*%
%ADD33R,1.700000X1.900000*%
%ADD34R,4.057600X2.432000*%
%ADD35R,1.416000X2.432000*%
G04 APERTURE END LIST*
D10*
D11*
X125050000Y-95175000D03*
D12*
X122550000Y-95175000D03*
X120050000Y-95175000D03*
X117550000Y-95175000D03*
D13*
X132550000Y-69636000D03*
X135090000Y-69636000D03*
X130010000Y-69636000D03*
D14*
X132550000Y-81550000D03*
D15*
X135550000Y-83136000D03*
X135550000Y-81136000D03*
X135550000Y-79136000D03*
X135550000Y-77136000D03*
X135550000Y-75136000D03*
X133550000Y-77136000D03*
X133550000Y-75136000D03*
X133550000Y-79136000D03*
X133550000Y-81136000D03*
X133550000Y-83136000D03*
X131550000Y-75136000D03*
X129550000Y-79136000D03*
X131550000Y-79136000D03*
X131550000Y-77136000D03*
X129550000Y-75136000D03*
X129550000Y-77136000D03*
X129550000Y-81136000D03*
X131550000Y-83136000D03*
X131550000Y-81136000D03*
X129550000Y-83136000D03*
X135550000Y-85136000D03*
X135550000Y-87636000D03*
X129550000Y-85136000D03*
X129550000Y-87636000D03*
D16*
X145350000Y-75600000D03*
X142650000Y-75600000D03*
D17*
X140500000Y-70299020D03*
X140500000Y-68200980D03*
X140500000Y-84050980D03*
X140500000Y-86149020D03*
D16*
X145350000Y-79000000D03*
X142650000Y-79000000D03*
D18*
X119250000Y-84750000D03*
X119250000Y-62250000D03*
D19*
X119250000Y-73500000D03*
D20*
X143650000Y-86250000D03*
D21*
X143650000Y-82750000D03*
D11*
X139775000Y-95175000D03*
D12*
X137275000Y-95175000D03*
X134775000Y-95175000D03*
X132275000Y-95175000D03*
D11*
X105200000Y-90000000D03*
D12*
X105200000Y-87500000D03*
X105200000Y-85000000D03*
X105200000Y-82500000D03*
X105200000Y-80000000D03*
D22*
X127000000Y-69750000D03*
X127000000Y-67250000D03*
D23*
X132750000Y-66000000D03*
X130250000Y-66000000D03*
D24*
X112007620Y-79910000D03*
D25*
X112007620Y-69750000D03*
D26*
X112000000Y-94620000D03*
D27*
X112000000Y-92080000D03*
X112000000Y-89540000D03*
X112000000Y-87000000D03*
X112000000Y-84460000D03*
D15*
X130790000Y-62000000D03*
X128250000Y-62000000D03*
X133330000Y-62000000D03*
D20*
X106000000Y-60000000D03*
D21*
X106000000Y-63500000D03*
D20*
X106000000Y-70000000D03*
D21*
X106000000Y-73500000D03*
D28*
X126000000Y-56000000D03*
D29*
X122500000Y-56000000D03*
X119000000Y-56000000D03*
X115500000Y-56000000D03*
D28*
X139250000Y-56000000D03*
D29*
X135750000Y-56000000D03*
D20*
X143650000Y-70250000D03*
D21*
X143650000Y-66750000D03*
D30*
X104000000Y-96000000D03*
X104000000Y-54000000D03*
X146000000Y-96000000D03*
X146000000Y-54000000D03*
X196150000Y-54000000D03*
X154150000Y-54000000D03*
X154150000Y-96000000D03*
X196150000Y-96000000D03*
D11*
X189810000Y-86780000D03*
D12*
X187310000Y-86780000D03*
X184810000Y-86780000D03*
X182310000Y-86780000D03*
D22*
X177310000Y-88230000D03*
X177310000Y-90730000D03*
D23*
X172530000Y-85510000D03*
X170030000Y-85510000D03*
D22*
X166310000Y-88230000D03*
X166310000Y-90730000D03*
D23*
X161560000Y-85530000D03*
X159060000Y-85530000D03*
D11*
X155310000Y-69780000D03*
D12*
X155310000Y-67280000D03*
X155310000Y-64780000D03*
X155310000Y-62280000D03*
X155310000Y-59780000D03*
D26*
X155310000Y-75240000D03*
D27*
X155310000Y-77780000D03*
X155310000Y-80320000D03*
D11*
X194810000Y-59780000D03*
D12*
X194810000Y-62280000D03*
X194810000Y-64780000D03*
X194810000Y-67280000D03*
X194810000Y-69780000D03*
D26*
X194810000Y-75240000D03*
D27*
X194810000Y-77780000D03*
X194810000Y-80320000D03*
D26*
X187810000Y-55240000D03*
D27*
X187810000Y-57780000D03*
X187810000Y-60320000D03*
X187810000Y-62860000D03*
X187810000Y-65400000D03*
X187810000Y-67940000D03*
D11*
X189810000Y-94780000D03*
D12*
X187310000Y-94780000D03*
X184810000Y-94780000D03*
X182310000Y-94780000D03*
D31*
X164270000Y-55280000D03*
D32*
X166810000Y-55280000D03*
X169350000Y-55280000D03*
D31*
X176770000Y-55280000D03*
D32*
X179310000Y-55280000D03*
X181850000Y-55280000D03*
D33*
X160406106Y-76137512D03*
X160406106Y-73437512D03*
X162563572Y-76137512D03*
X162563572Y-73437512D03*
X172810000Y-63530000D03*
X172810000Y-66230000D03*
X170810000Y-66230000D03*
X170810000Y-63530000D03*
D34*
X172524000Y-94843112D03*
D35*
X172524000Y-88239112D03*
X174810000Y-88239112D03*
X170238000Y-88239112D03*
D34*
X161520000Y-94851112D03*
D35*
X161520000Y-88247112D03*
X163806000Y-88247112D03*
X159234000Y-88247112D03*
D23*
X170460000Y-76780000D03*
X167960000Y-76780000D03*
X170460000Y-79280000D03*
X167960000Y-79280000D03*
D22*
X174210000Y-74530000D03*
X174210000Y-77030000D03*
D23*
X169560000Y-70780000D03*
X172060000Y-70780000D03*
D22*
X179410000Y-77330000D03*
X179410000Y-79830000D03*
M02*
