G04 This is an RS-274x file exported by *
G04 gerbv version 2.6.1 *
G04 More information is available about gerbv at *
G04 http://gerbv.geda-project.org/ *
G04 --End of header info--*
%MOIN*%
%FSLAX34Y34*%
%IPPOS*%
G04 --Define apertures--*
%ADD10C,0.0039*%
%ADD11C,0.0118*%
%ADD12C,0.0059*%
G04 --Start main section--*
G54D11*
G01X0062250Y-037462D02*
G01X0062250Y-036871D01*
G01X0062250Y-036871D02*
G01X0062475Y-036871D01*
G01X0062475Y-036871D02*
G01X0062531Y-036900D01*
G01X0062531Y-036900D02*
G01X0062559Y-036928D01*
G01X0062559Y-036928D02*
G01X0062587Y-036984D01*
G01X0062587Y-036984D02*
G01X0062587Y-037068D01*
G01X0062587Y-037068D02*
G01X0062559Y-037125D01*
G01X0062559Y-037125D02*
G01X0062531Y-037153D01*
G01X0062531Y-037153D02*
G01X0062475Y-037181D01*
G01X0062475Y-037181D02*
G01X0062250Y-037181D01*
G01X0062840Y-037462D02*
G01X0062840Y-036871D01*
G01X0063093Y-037462D02*
G01X0063093Y-037153D01*
G01X0063093Y-037153D02*
G01X0063065Y-037096D01*
G01X0063065Y-037096D02*
G01X0063009Y-037068D01*
G01X0063009Y-037068D02*
G01X0062925Y-037068D01*
G01X0062925Y-037068D02*
G01X0062868Y-037096D01*
G01X0062868Y-037096D02*
G01X0062840Y-037125D01*
G01X0063459Y-037462D02*
G01X0063403Y-037434D01*
G01X0063403Y-037434D02*
G01X0063375Y-037406D01*
G01X0063375Y-037406D02*
G01X0063346Y-037350D01*
G01X0063346Y-037350D02*
G01X0063346Y-037181D01*
G01X0063346Y-037181D02*
G01X0063375Y-037125D01*
G01X0063375Y-037125D02*
G01X0063403Y-037096D01*
G01X0063403Y-037096D02*
G01X0063459Y-037068D01*
G01X0063459Y-037068D02*
G01X0063543Y-037068D01*
G01X0063543Y-037068D02*
G01X0063600Y-037096D01*
G01X0063600Y-037096D02*
G01X0063628Y-037125D01*
G01X0063628Y-037125D02*
G01X0063656Y-037181D01*
G01X0063656Y-037181D02*
G01X0063656Y-037350D01*
G01X0063656Y-037350D02*
G01X0063628Y-037406D01*
G01X0063628Y-037406D02*
G01X0063600Y-037434D01*
G01X0063600Y-037434D02*
G01X0063543Y-037462D01*
G01X0063543Y-037462D02*
G01X0063459Y-037462D01*
G01X0064134Y-037434D02*
G01X0064078Y-037462D01*
G01X0064078Y-037462D02*
G01X0063965Y-037462D01*
G01X0063965Y-037462D02*
G01X0063909Y-037434D01*
G01X0063909Y-037434D02*
G01X0063881Y-037378D01*
G01X0063881Y-037378D02*
G01X0063881Y-037153D01*
G01X0063881Y-037153D02*
G01X0063909Y-037096D01*
G01X0063909Y-037096D02*
G01X0063965Y-037068D01*
G01X0063965Y-037068D02*
G01X0064078Y-037068D01*
G01X0064078Y-037068D02*
G01X0064134Y-037096D01*
G01X0064134Y-037096D02*
G01X0064162Y-037153D01*
G01X0064162Y-037153D02*
G01X0064162Y-037209D01*
G01X0064162Y-037209D02*
G01X0063881Y-037265D01*
G01X0064415Y-037068D02*
G01X0064415Y-037462D01*
G01X0064415Y-037125D02*
G01X0064443Y-037096D01*
G01X0064443Y-037096D02*
G01X0064499Y-037068D01*
G01X0064499Y-037068D02*
G01X0064584Y-037068D01*
G01X0064584Y-037068D02*
G01X0064640Y-037096D01*
G01X0064640Y-037096D02*
G01X0064668Y-037153D01*
G01X0064668Y-037153D02*
G01X0064668Y-037462D01*
G01X0064949Y-037462D02*
G01X0064949Y-037068D01*
G01X0064949Y-036871D02*
G01X0064921Y-036900D01*
G01X0064921Y-036900D02*
G01X0064949Y-036928D01*
G01X0064949Y-036928D02*
G01X0064978Y-036900D01*
G01X0064978Y-036900D02*
G01X0064949Y-036871D01*
G01X0064949Y-036871D02*
G01X0064949Y-036928D01*
G01X0065174Y-037462D02*
G01X0065484Y-037068D01*
G01X0065174Y-037068D02*
G01X0065484Y-037462D01*
G01X0066496Y-037462D02*
G01X0066299Y-037181D01*
G01X0066159Y-037462D02*
G01X0066159Y-036871D01*
G01X0066159Y-036871D02*
G01X0066384Y-036871D01*
G01X0066384Y-036871D02*
G01X0066440Y-036900D01*
G01X0066440Y-036900D02*
G01X0066468Y-036928D01*
G01X0066468Y-036928D02*
G01X0066496Y-036984D01*
G01X0066496Y-036984D02*
G01X0066496Y-037068D01*
G01X0066496Y-037068D02*
G01X0066468Y-037125D01*
G01X0066468Y-037125D02*
G01X0066440Y-037153D01*
G01X0066440Y-037153D02*
G01X0066384Y-037181D01*
G01X0066384Y-037181D02*
G01X0066159Y-037181D01*
G01X0066834Y-037462D02*
G01X0066777Y-037434D01*
G01X0066777Y-037434D02*
G01X0066749Y-037406D01*
G01X0066749Y-037406D02*
G01X0066721Y-037350D01*
G01X0066721Y-037350D02*
G01X0066721Y-037181D01*
G01X0066721Y-037181D02*
G01X0066749Y-037125D01*
G01X0066749Y-037125D02*
G01X0066777Y-037096D01*
G01X0066777Y-037096D02*
G01X0066834Y-037068D01*
G01X0066834Y-037068D02*
G01X0066918Y-037068D01*
G01X0066918Y-037068D02*
G01X0066974Y-037096D01*
G01X0066974Y-037096D02*
G01X0067002Y-037125D01*
G01X0067002Y-037125D02*
G01X0067030Y-037181D01*
G01X0067030Y-037181D02*
G01X0067030Y-037350D01*
G01X0067030Y-037350D02*
G01X0067002Y-037406D01*
G01X0067002Y-037406D02*
G01X0066974Y-037434D01*
G01X0066974Y-037434D02*
G01X0066918Y-037462D01*
G01X0066918Y-037462D02*
G01X0066834Y-037462D01*
G01X0067283Y-037462D02*
G01X0067283Y-036871D01*
G01X0067283Y-037096D02*
G01X0067340Y-037068D01*
G01X0067340Y-037068D02*
G01X0067452Y-037068D01*
G01X0067452Y-037068D02*
G01X0067508Y-037096D01*
G01X0067508Y-037096D02*
G01X0067537Y-037125D01*
G01X0067537Y-037125D02*
G01X0067565Y-037181D01*
G01X0067565Y-037181D02*
G01X0067565Y-037350D01*
G01X0067565Y-037350D02*
G01X0067537Y-037406D01*
G01X0067537Y-037406D02*
G01X0067508Y-037434D01*
G01X0067508Y-037434D02*
G01X0067452Y-037462D01*
G01X0067452Y-037462D02*
G01X0067340Y-037462D01*
G01X0067340Y-037462D02*
G01X0067283Y-037434D01*
G01X0067902Y-037462D02*
G01X0067846Y-037434D01*
G01X0067846Y-037434D02*
G01X0067818Y-037406D01*
G01X0067818Y-037406D02*
G01X0067790Y-037350D01*
G01X0067790Y-037350D02*
G01X0067790Y-037181D01*
G01X0067790Y-037181D02*
G01X0067818Y-037125D01*
G01X0067818Y-037125D02*
G01X0067846Y-037096D01*
G01X0067846Y-037096D02*
G01X0067902Y-037068D01*
G01X0067902Y-037068D02*
G01X0067987Y-037068D01*
G01X0067987Y-037068D02*
G01X0068043Y-037096D01*
G01X0068043Y-037096D02*
G01X0068071Y-037125D01*
G01X0068071Y-037125D02*
G01X0068099Y-037181D01*
G01X0068099Y-037181D02*
G01X0068099Y-037350D01*
G01X0068099Y-037350D02*
G01X0068071Y-037406D01*
G01X0068071Y-037406D02*
G01X0068043Y-037434D01*
G01X0068043Y-037434D02*
G01X0067987Y-037462D01*
G01X0067987Y-037462D02*
G01X0067902Y-037462D01*
G01X0068268Y-037068D02*
G01X0068493Y-037068D01*
G01X0068352Y-036871D02*
G01X0068352Y-037378D01*
G01X0068352Y-037378D02*
G01X0068380Y-037434D01*
G01X0068380Y-037434D02*
G01X0068436Y-037462D01*
G01X0068436Y-037462D02*
G01X0068493Y-037462D01*
G01X0068690Y-037462D02*
G01X0068690Y-037068D01*
G01X0068690Y-036871D02*
G01X0068661Y-036900D01*
G01X0068661Y-036900D02*
G01X0068690Y-036928D01*
G01X0068690Y-036928D02*
G01X0068718Y-036900D01*
G01X0068718Y-036900D02*
G01X0068690Y-036871D01*
G01X0068690Y-036871D02*
G01X0068690Y-036928D01*
G01X0068971Y-037462D02*
G01X0068971Y-036871D01*
G01X0069027Y-037237D02*
G01X0069196Y-037462D01*
G01X0069196Y-037068D02*
G01X0068971Y-037293D01*
G01X0063909Y-038410D02*
G01X0063881Y-038438D01*
G01X0063881Y-038438D02*
G01X0063796Y-038466D01*
G01X0063796Y-038466D02*
G01X0063740Y-038466D01*
G01X0063740Y-038466D02*
G01X0063656Y-038438D01*
G01X0063656Y-038438D02*
G01X0063600Y-038382D01*
G01X0063600Y-038382D02*
G01X0063571Y-038325D01*
G01X0063571Y-038325D02*
G01X0063543Y-038213D01*
G01X0063543Y-038213D02*
G01X0063543Y-038129D01*
G01X0063543Y-038129D02*
G01X0063571Y-038016D01*
G01X0063571Y-038016D02*
G01X0063600Y-037960D01*
G01X0063600Y-037960D02*
G01X0063656Y-037904D01*
G01X0063656Y-037904D02*
G01X0063740Y-037875D01*
G01X0063740Y-037875D02*
G01X0063796Y-037875D01*
G01X0063796Y-037875D02*
G01X0063881Y-037904D01*
G01X0063881Y-037904D02*
G01X0063909Y-037932D01*
G01X0064415Y-038466D02*
G01X0064415Y-038157D01*
G01X0064415Y-038157D02*
G01X0064387Y-038100D01*
G01X0064387Y-038100D02*
G01X0064331Y-038072D01*
G01X0064331Y-038072D02*
G01X0064218Y-038072D01*
G01X0064218Y-038072D02*
G01X0064162Y-038100D01*
G01X0064415Y-038438D02*
G01X0064359Y-038466D01*
G01X0064359Y-038466D02*
G01X0064218Y-038466D01*
G01X0064218Y-038466D02*
G01X0064162Y-038438D01*
G01X0064162Y-038438D02*
G01X0064134Y-038382D01*
G01X0064134Y-038382D02*
G01X0064134Y-038325D01*
G01X0064134Y-038325D02*
G01X0064162Y-038269D01*
G01X0064162Y-038269D02*
G01X0064218Y-038241D01*
G01X0064218Y-038241D02*
G01X0064359Y-038241D01*
G01X0064359Y-038241D02*
G01X0064415Y-038213D01*
G01X0064696Y-038466D02*
G01X0064696Y-038072D01*
G01X0064696Y-038185D02*
G01X0064724Y-038129D01*
G01X0064724Y-038129D02*
G01X0064753Y-038100D01*
G01X0064753Y-038100D02*
G01X0064809Y-038072D01*
G01X0064809Y-038072D02*
G01X0064865Y-038072D01*
G01X0064978Y-038072D02*
G01X0065202Y-038072D01*
G01X0065062Y-037875D02*
G01X0065062Y-038382D01*
G01X0065062Y-038382D02*
G01X0065090Y-038438D01*
G01X0065090Y-038438D02*
G01X0065146Y-038466D01*
G01X0065146Y-038466D02*
G01X0065202Y-038466D01*
G01X0065624Y-038438D02*
G01X0065568Y-038466D01*
G01X0065568Y-038466D02*
G01X0065456Y-038466D01*
G01X0065456Y-038466D02*
G01X0065399Y-038438D01*
G01X0065399Y-038438D02*
G01X0065371Y-038382D01*
G01X0065371Y-038382D02*
G01X0065371Y-038157D01*
G01X0065371Y-038157D02*
G01X0065399Y-038100D01*
G01X0065399Y-038100D02*
G01X0065456Y-038072D01*
G01X0065456Y-038072D02*
G01X0065568Y-038072D01*
G01X0065568Y-038072D02*
G01X0065624Y-038100D01*
G01X0065624Y-038100D02*
G01X0065652Y-038157D01*
G01X0065652Y-038157D02*
G01X0065652Y-038213D01*
G01X0065652Y-038213D02*
G01X0065371Y-038269D01*
G01X0066355Y-038466D02*
G01X0066355Y-037875D01*
G01X0066693Y-038466D02*
G01X0066440Y-038129D01*
G01X0066693Y-037875D02*
G01X0066355Y-038213D01*
G01X0066946Y-038466D02*
G01X0066946Y-038072D01*
G01X0066946Y-037875D02*
G01X0066918Y-037904D01*
G01X0066918Y-037904D02*
G01X0066946Y-037932D01*
G01X0066946Y-037932D02*
G01X0066974Y-037904D01*
G01X0066974Y-037904D02*
G01X0066946Y-037875D01*
G01X0066946Y-037875D02*
G01X0066946Y-037932D01*
G01X0067171Y-038072D02*
G01X0067283Y-038466D01*
G01X0067283Y-038466D02*
G01X0067396Y-038185D01*
G01X0067396Y-038185D02*
G01X0067508Y-038466D01*
G01X0067508Y-038466D02*
G01X0067621Y-038072D01*
G01X0067846Y-038466D02*
G01X0067846Y-038072D01*
G01X0067846Y-037875D02*
G01X0067818Y-037904D01*
G01X0067818Y-037904D02*
G01X0067846Y-037932D01*
G01X0067846Y-037932D02*
G01X0067874Y-037904D01*
G01X0067874Y-037904D02*
G01X0067846Y-037875D01*
G01X0067846Y-037875D02*
G01X0067846Y-037932D01*
G01X0060651Y-036007D02*
G01X0060651Y-035417D01*
G01X0060651Y-035417D02*
G01X0060876Y-035417D01*
G01X0060876Y-035417D02*
G01X0060932Y-035445D01*
G01X0060932Y-035445D02*
G01X0060960Y-035473D01*
G01X0060960Y-035473D02*
G01X0060988Y-035529D01*
G01X0060988Y-035529D02*
G01X0060988Y-035614D01*
G01X0060988Y-035614D02*
G01X0060960Y-035670D01*
G01X0060960Y-035670D02*
G01X0060932Y-035698D01*
G01X0060932Y-035698D02*
G01X0060876Y-035726D01*
G01X0060876Y-035726D02*
G01X0060651Y-035726D01*
G01X0061185Y-035417D02*
G01X0061326Y-036007D01*
G01X0061326Y-036007D02*
G01X0061438Y-035585D01*
G01X0061438Y-035585D02*
G01X0061551Y-036007D01*
G01X0061551Y-036007D02*
G01X0061691Y-035417D01*
G01X0062254Y-036007D02*
G01X0062057Y-035726D01*
G01X0061916Y-036007D02*
G01X0061916Y-035417D01*
G01X0061916Y-035417D02*
G01X0062141Y-035417D01*
G01X0062141Y-035417D02*
G01X0062197Y-035445D01*
G01X0062197Y-035445D02*
G01X0062226Y-035473D01*
G01X0062226Y-035473D02*
G01X0062254Y-035529D01*
G01X0062254Y-035529D02*
G01X0062254Y-035614D01*
G01X0062254Y-035614D02*
G01X0062226Y-035670D01*
G01X0062226Y-035670D02*
G01X0062197Y-035698D01*
G01X0062197Y-035698D02*
G01X0062141Y-035726D01*
G01X0062141Y-035726D02*
G01X0061916Y-035726D01*
G01X0060510Y-034798D02*
G01X0060594Y-034826D01*
G01X0060594Y-034826D02*
G01X0060735Y-034826D01*
G01X0060735Y-034826D02*
G01X0060791Y-034798D01*
G01X0060791Y-034798D02*
G01X0060819Y-034770D01*
G01X0060819Y-034770D02*
G01X0060848Y-034714D01*
G01X0060848Y-034714D02*
G01X0060848Y-034657D01*
G01X0060848Y-034657D02*
G01X0060819Y-034601D01*
G01X0060819Y-034601D02*
G01X0060791Y-034573D01*
G01X0060791Y-034573D02*
G01X0060735Y-034545D01*
G01X0060735Y-034545D02*
G01X0060623Y-034517D01*
G01X0060623Y-034517D02*
G01X0060566Y-034489D01*
G01X0060566Y-034489D02*
G01X0060538Y-034461D01*
G01X0060538Y-034461D02*
G01X0060510Y-034404D01*
G01X0060510Y-034404D02*
G01X0060510Y-034348D01*
G01X0060510Y-034348D02*
G01X0060538Y-034292D01*
G01X0060538Y-034292D02*
G01X0060566Y-034264D01*
G01X0060566Y-034264D02*
G01X0060623Y-034236D01*
G01X0060623Y-034236D02*
G01X0060763Y-034236D01*
G01X0060763Y-034236D02*
G01X0060848Y-034264D01*
G01X0061016Y-034236D02*
G01X0061354Y-034236D01*
G01X0061185Y-034826D02*
G01X0061185Y-034236D01*
G01X0061522Y-034657D02*
G01X0061804Y-034657D01*
G01X0061466Y-034826D02*
G01X0061663Y-034236D01*
G01X0061663Y-034236D02*
G01X0061860Y-034826D01*
G01X0061972Y-034236D02*
G01X0062310Y-034236D01*
G01X0062141Y-034826D02*
G01X0062141Y-034236D01*
G01X0060932Y-033476D02*
G01X0061213Y-033476D01*
G01X0060876Y-033645D02*
G01X0061073Y-033055D01*
G01X0061073Y-033055D02*
G01X0061269Y-033645D01*
G01X0061804Y-033589D02*
G01X0061776Y-033617D01*
G01X0061776Y-033617D02*
G01X0061691Y-033645D01*
G01X0061691Y-033645D02*
G01X0061635Y-033645D01*
G01X0061635Y-033645D02*
G01X0061551Y-033617D01*
G01X0061551Y-033617D02*
G01X0061494Y-033561D01*
G01X0061494Y-033561D02*
G01X0061466Y-033504D01*
G01X0061466Y-033504D02*
G01X0061438Y-033392D01*
G01X0061438Y-033392D02*
G01X0061438Y-033308D01*
G01X0061438Y-033308D02*
G01X0061466Y-033195D01*
G01X0061466Y-033195D02*
G01X0061494Y-033139D01*
G01X0061494Y-033139D02*
G01X0061551Y-033083D01*
G01X0061551Y-033083D02*
G01X0061635Y-033055D01*
G01X0061635Y-033055D02*
G01X0061691Y-033055D01*
G01X0061691Y-033055D02*
G01X0061776Y-033083D01*
G01X0061776Y-033083D02*
G01X0061804Y-033111D01*
G01X0061972Y-033055D02*
G01X0062310Y-033055D01*
G01X0062141Y-033645D02*
G01X0062141Y-033055D01*
G01X0066897Y-020945D02*
G01X0066897Y-020467D01*
G01X0066897Y-020467D02*
G01X0066868Y-020411D01*
G01X0066868Y-020411D02*
G01X0066840Y-020383D01*
G01X0066840Y-020383D02*
G01X0066784Y-020355D01*
G01X0066784Y-020355D02*
G01X0066672Y-020355D01*
G01X0066672Y-020355D02*
G01X0066615Y-020383D01*
G01X0066615Y-020383D02*
G01X0066587Y-020411D01*
G01X0066587Y-020411D02*
G01X0066559Y-020467D01*
G01X0066559Y-020467D02*
G01X0066559Y-020945D01*
G01X0066306Y-020524D02*
G01X0066025Y-020524D01*
G01X0066362Y-020355D02*
G01X0066165Y-020945D01*
G01X0066165Y-020945D02*
G01X0065969Y-020355D01*
G01X0065434Y-020355D02*
G01X0065631Y-020636D01*
G01X0065772Y-020355D02*
G01X0065772Y-020945D01*
G01X0065772Y-020945D02*
G01X0065547Y-020945D01*
G01X0065547Y-020945D02*
G01X0065490Y-020917D01*
G01X0065490Y-020917D02*
G01X0065462Y-020889D01*
G01X0065462Y-020889D02*
G01X0065434Y-020833D01*
G01X0065434Y-020833D02*
G01X0065434Y-020749D01*
G01X0065434Y-020749D02*
G01X0065462Y-020692D01*
G01X0065462Y-020692D02*
G01X0065490Y-020664D01*
G01X0065490Y-020664D02*
G01X0065547Y-020636D01*
G01X0065547Y-020636D02*
G01X0065772Y-020636D01*
G01X0065265Y-020945D02*
G01X0064928Y-020945D01*
G01X0065097Y-020355D02*
G01X0065097Y-020945D01*
G01X0064422Y-020355D02*
G01X0064759Y-020355D01*
G01X0064591Y-020355D02*
G01X0064591Y-020945D01*
G01X0064591Y-020945D02*
G01X0064647Y-020861D01*
G01X0064647Y-020861D02*
G01X0064703Y-020805D01*
G01X0064703Y-020805D02*
G01X0064759Y-020777D01*
G01X0071778Y-020945D02*
G01X0071778Y-020467D01*
G01X0071778Y-020467D02*
G01X0071750Y-020411D01*
G01X0071750Y-020411D02*
G01X0071722Y-020383D01*
G01X0071722Y-020383D02*
G01X0071666Y-020355D01*
G01X0071666Y-020355D02*
G01X0071553Y-020355D01*
G01X0071553Y-020355D02*
G01X0071497Y-020383D01*
G01X0071497Y-020383D02*
G01X0071469Y-020411D01*
G01X0071469Y-020411D02*
G01X0071441Y-020467D01*
G01X0071441Y-020467D02*
G01X0071441Y-020945D01*
G01X0071188Y-020524D02*
G01X0070907Y-020524D01*
G01X0071244Y-020355D02*
G01X0071047Y-020945D01*
G01X0071047Y-020945D02*
G01X0070850Y-020355D01*
G01X0070316Y-020355D02*
G01X0070513Y-020636D01*
G01X0070654Y-020355D02*
G01X0070654Y-020945D01*
G01X0070654Y-020945D02*
G01X0070429Y-020945D01*
G01X0070429Y-020945D02*
G01X0070372Y-020917D01*
G01X0070372Y-020917D02*
G01X0070344Y-020889D01*
G01X0070344Y-020889D02*
G01X0070316Y-020833D01*
G01X0070316Y-020833D02*
G01X0070316Y-020749D01*
G01X0070316Y-020749D02*
G01X0070344Y-020692D01*
G01X0070344Y-020692D02*
G01X0070372Y-020664D01*
G01X0070372Y-020664D02*
G01X0070429Y-020636D01*
G01X0070429Y-020636D02*
G01X0070654Y-020636D01*
G01X0070147Y-020945D02*
G01X0069810Y-020945D01*
G01X0069979Y-020355D02*
G01X0069979Y-020945D01*
G01X0069641Y-020889D02*
G01X0069613Y-020917D01*
G01X0069613Y-020917D02*
G01X0069557Y-020945D01*
G01X0069557Y-020945D02*
G01X0069416Y-020945D01*
G01X0069416Y-020945D02*
G01X0069360Y-020917D01*
G01X0069360Y-020917D02*
G01X0069332Y-020889D01*
G01X0069332Y-020889D02*
G01X0069304Y-020833D01*
G01X0069304Y-020833D02*
G01X0069304Y-020777D01*
G01X0069304Y-020777D02*
G01X0069332Y-020692D01*
G01X0069332Y-020692D02*
G01X0069669Y-020355D01*
G01X0069669Y-020355D02*
G01X0069304Y-020355D01*
G01X0059450Y-023845D02*
G01X0059422Y-023929D01*
G01X0059422Y-023929D02*
G01X0059422Y-024070D01*
G01X0059422Y-024070D02*
G01X0059450Y-024126D01*
G01X0059450Y-024126D02*
G01X0059478Y-024154D01*
G01X0059478Y-024154D02*
G01X0059534Y-024182D01*
G01X0059534Y-024182D02*
G01X0059591Y-024182D01*
G01X0059591Y-024182D02*
G01X0059647Y-024154D01*
G01X0059647Y-024154D02*
G01X0059675Y-024126D01*
G01X0059675Y-024126D02*
G01X0059703Y-024070D01*
G01X0059703Y-024070D02*
G01X0059731Y-023957D01*
G01X0059731Y-023957D02*
G01X0059759Y-023901D01*
G01X0059759Y-023901D02*
G01X0059787Y-023873D01*
G01X0059787Y-023873D02*
G01X0059844Y-023845D01*
G01X0059844Y-023845D02*
G01X0059900Y-023845D01*
G01X0059900Y-023845D02*
G01X0059956Y-023873D01*
G01X0059956Y-023873D02*
G01X0059984Y-023901D01*
G01X0059984Y-023901D02*
G01X0060012Y-023957D01*
G01X0060012Y-023957D02*
G01X0060012Y-024098D01*
G01X0060012Y-024098D02*
G01X0059984Y-024182D01*
G01X0059450Y-024660D02*
G01X0059422Y-024604D01*
G01X0059422Y-024604D02*
G01X0059422Y-024492D01*
G01X0059422Y-024492D02*
G01X0059450Y-024435D01*
G01X0059450Y-024435D02*
G01X0059506Y-024407D01*
G01X0059506Y-024407D02*
G01X0059731Y-024407D01*
G01X0059731Y-024407D02*
G01X0059787Y-024435D01*
G01X0059787Y-024435D02*
G01X0059816Y-024492D01*
G01X0059816Y-024492D02*
G01X0059816Y-024604D01*
G01X0059816Y-024604D02*
G01X0059787Y-024660D01*
G01X0059787Y-024660D02*
G01X0059731Y-024688D01*
G01X0059731Y-024688D02*
G01X0059675Y-024688D01*
G01X0059675Y-024688D02*
G01X0059619Y-024407D01*
G01X0059816Y-024942D02*
G01X0059422Y-024942D01*
G01X0059759Y-024942D02*
G01X0059787Y-024970D01*
G01X0059787Y-024970D02*
G01X0059816Y-025026D01*
G01X0059816Y-025026D02*
G01X0059816Y-025110D01*
G01X0059816Y-025110D02*
G01X0059787Y-025166D01*
G01X0059787Y-025166D02*
G01X0059731Y-025195D01*
G01X0059731Y-025195D02*
G01X0059422Y-025195D01*
G01X0059450Y-025448D02*
G01X0059422Y-025504D01*
G01X0059422Y-025504D02*
G01X0059422Y-025616D01*
G01X0059422Y-025616D02*
G01X0059450Y-025673D01*
G01X0059450Y-025673D02*
G01X0059506Y-025701D01*
G01X0059506Y-025701D02*
G01X0059534Y-025701D01*
G01X0059534Y-025701D02*
G01X0059591Y-025673D01*
G01X0059591Y-025673D02*
G01X0059619Y-025616D01*
G01X0059619Y-025616D02*
G01X0059619Y-025532D01*
G01X0059619Y-025532D02*
G01X0059647Y-025476D01*
G01X0059647Y-025476D02*
G01X0059703Y-025448D01*
G01X0059703Y-025448D02*
G01X0059731Y-025448D01*
G01X0059731Y-025448D02*
G01X0059787Y-025476D01*
G01X0059787Y-025476D02*
G01X0059816Y-025532D01*
G01X0059816Y-025532D02*
G01X0059816Y-025616D01*
G01X0059816Y-025616D02*
G01X0059787Y-025673D01*
G01X0059422Y-026038D02*
G01X0059450Y-025982D01*
G01X0059450Y-025982D02*
G01X0059478Y-025954D01*
G01X0059478Y-025954D02*
G01X0059534Y-025926D01*
G01X0059534Y-025926D02*
G01X0059703Y-025926D01*
G01X0059703Y-025926D02*
G01X0059759Y-025954D01*
G01X0059759Y-025954D02*
G01X0059787Y-025982D01*
G01X0059787Y-025982D02*
G01X0059816Y-026038D01*
G01X0059816Y-026038D02*
G01X0059816Y-026123D01*
G01X0059816Y-026123D02*
G01X0059787Y-026179D01*
G01X0059787Y-026179D02*
G01X0059759Y-026207D01*
G01X0059759Y-026207D02*
G01X0059703Y-026235D01*
G01X0059703Y-026235D02*
G01X0059534Y-026235D01*
G01X0059534Y-026235D02*
G01X0059478Y-026207D01*
G01X0059478Y-026207D02*
G01X0059450Y-026179D01*
G01X0059450Y-026179D02*
G01X0059422Y-026123D01*
G01X0059422Y-026123D02*
G01X0059422Y-026038D01*
G01X0059422Y-026488D02*
G01X0059816Y-026488D01*
G01X0059703Y-026488D02*
G01X0059759Y-026516D01*
G01X0059759Y-026516D02*
G01X0059787Y-026544D01*
G01X0059787Y-026544D02*
G01X0059816Y-026601D01*
G01X0059816Y-026601D02*
G01X0059816Y-026657D01*
G01X0059956Y-026826D02*
G01X0059984Y-026854D01*
G01X0059984Y-026854D02*
G01X0060012Y-026910D01*
G01X0060012Y-026910D02*
G01X0060012Y-027051D01*
G01X0060012Y-027051D02*
G01X0059984Y-027107D01*
G01X0059984Y-027107D02*
G01X0059956Y-027135D01*
G01X0059956Y-027135D02*
G01X0059900Y-027163D01*
G01X0059900Y-027163D02*
G01X0059844Y-027163D01*
G01X0059844Y-027163D02*
G01X0059759Y-027135D01*
G01X0059759Y-027135D02*
G01X0059422Y-026798D01*
G01X0059422Y-026798D02*
G01X0059422Y-027163D01*
G01X0078432Y-027163D02*
G01X0078460Y-027079D01*
G01X0078460Y-027079D02*
G01X0078460Y-026938D01*
G01X0078460Y-026938D02*
G01X0078432Y-026882D01*
G01X0078432Y-026882D02*
G01X0078404Y-026854D01*
G01X0078404Y-026854D02*
G01X0078348Y-026826D01*
G01X0078348Y-026826D02*
G01X0078291Y-026826D01*
G01X0078291Y-026826D02*
G01X0078235Y-026854D01*
G01X0078235Y-026854D02*
G01X0078207Y-026882D01*
G01X0078207Y-026882D02*
G01X0078179Y-026938D01*
G01X0078179Y-026938D02*
G01X0078151Y-027051D01*
G01X0078151Y-027051D02*
G01X0078123Y-027107D01*
G01X0078123Y-027107D02*
G01X0078094Y-027135D01*
G01X0078094Y-027135D02*
G01X0078038Y-027163D01*
G01X0078038Y-027163D02*
G01X0077982Y-027163D01*
G01X0077982Y-027163D02*
G01X0077926Y-027135D01*
G01X0077926Y-027135D02*
G01X0077898Y-027107D01*
G01X0077898Y-027107D02*
G01X0077870Y-027051D01*
G01X0077870Y-027051D02*
G01X0077870Y-026910D01*
G01X0077870Y-026910D02*
G01X0077898Y-026826D01*
G01X0078432Y-026348D02*
G01X0078460Y-026404D01*
G01X0078460Y-026404D02*
G01X0078460Y-026516D01*
G01X0078460Y-026516D02*
G01X0078432Y-026573D01*
G01X0078432Y-026573D02*
G01X0078376Y-026601D01*
G01X0078376Y-026601D02*
G01X0078151Y-026601D01*
G01X0078151Y-026601D02*
G01X0078094Y-026573D01*
G01X0078094Y-026573D02*
G01X0078066Y-026516D01*
G01X0078066Y-026516D02*
G01X0078066Y-026404D01*
G01X0078066Y-026404D02*
G01X0078094Y-026348D01*
G01X0078094Y-026348D02*
G01X0078151Y-026319D01*
G01X0078151Y-026319D02*
G01X0078207Y-026319D01*
G01X0078207Y-026319D02*
G01X0078263Y-026601D01*
G01X0078066Y-026066D02*
G01X0078460Y-026066D01*
G01X0078123Y-026066D02*
G01X0078094Y-026038D01*
G01X0078094Y-026038D02*
G01X0078066Y-025982D01*
G01X0078066Y-025982D02*
G01X0078066Y-025898D01*
G01X0078066Y-025898D02*
G01X0078094Y-025841D01*
G01X0078094Y-025841D02*
G01X0078151Y-025813D01*
G01X0078151Y-025813D02*
G01X0078460Y-025813D01*
G01X0078432Y-025560D02*
G01X0078460Y-025504D01*
G01X0078460Y-025504D02*
G01X0078460Y-025391D01*
G01X0078460Y-025391D02*
G01X0078432Y-025335D01*
G01X0078432Y-025335D02*
G01X0078376Y-025307D01*
G01X0078376Y-025307D02*
G01X0078348Y-025307D01*
G01X0078348Y-025307D02*
G01X0078291Y-025335D01*
G01X0078291Y-025335D02*
G01X0078263Y-025391D01*
G01X0078263Y-025391D02*
G01X0078263Y-025476D01*
G01X0078263Y-025476D02*
G01X0078235Y-025532D01*
G01X0078235Y-025532D02*
G01X0078179Y-025560D01*
G01X0078179Y-025560D02*
G01X0078151Y-025560D01*
G01X0078151Y-025560D02*
G01X0078094Y-025532D01*
G01X0078094Y-025532D02*
G01X0078066Y-025476D01*
G01X0078066Y-025476D02*
G01X0078066Y-025391D01*
G01X0078066Y-025391D02*
G01X0078094Y-025335D01*
G01X0078460Y-024970D02*
G01X0078432Y-025026D01*
G01X0078432Y-025026D02*
G01X0078404Y-025054D01*
G01X0078404Y-025054D02*
G01X0078348Y-025082D01*
G01X0078348Y-025082D02*
G01X0078179Y-025082D01*
G01X0078179Y-025082D02*
G01X0078123Y-025054D01*
G01X0078123Y-025054D02*
G01X0078094Y-025026D01*
G01X0078094Y-025026D02*
G01X0078066Y-024970D01*
G01X0078066Y-024970D02*
G01X0078066Y-024885D01*
G01X0078066Y-024885D02*
G01X0078094Y-024829D01*
G01X0078094Y-024829D02*
G01X0078123Y-024801D01*
G01X0078123Y-024801D02*
G01X0078179Y-024773D01*
G01X0078179Y-024773D02*
G01X0078348Y-024773D01*
G01X0078348Y-024773D02*
G01X0078404Y-024801D01*
G01X0078404Y-024801D02*
G01X0078432Y-024829D01*
G01X0078432Y-024829D02*
G01X0078460Y-024885D01*
G01X0078460Y-024885D02*
G01X0078460Y-024970D01*
G01X0078460Y-024520D02*
G01X0078066Y-024520D01*
G01X0078179Y-024520D02*
G01X0078123Y-024492D01*
G01X0078123Y-024492D02*
G01X0078094Y-024463D01*
G01X0078094Y-024463D02*
G01X0078066Y-024407D01*
G01X0078066Y-024407D02*
G01X0078066Y-024351D01*
G01X0078460Y-023845D02*
G01X0078460Y-024182D01*
G01X0078460Y-024013D02*
G01X0077870Y-024013D01*
G01X0077870Y-024013D02*
G01X0077954Y-024070D01*
G01X0077954Y-024070D02*
G01X0078010Y-024126D01*
G01X0078010Y-024126D02*
G01X0078038Y-024182D01*
G01X0059737Y-029708D02*
G01X0060327Y-029708D01*
G01X0060327Y-029708D02*
G01X0059906Y-029905D01*
G01X0059906Y-029905D02*
G01X0060327Y-030102D01*
G01X0060327Y-030102D02*
G01X0059737Y-030102D01*
G01X0059737Y-030467D02*
G01X0059765Y-030411D01*
G01X0059765Y-030411D02*
G01X0059793Y-030383D01*
G01X0059793Y-030383D02*
G01X0059849Y-030355D01*
G01X0059849Y-030355D02*
G01X0060018Y-030355D01*
G01X0060018Y-030355D02*
G01X0060074Y-030383D01*
G01X0060074Y-030383D02*
G01X0060102Y-030411D01*
G01X0060102Y-030411D02*
G01X0060130Y-030467D01*
G01X0060130Y-030467D02*
G01X0060130Y-030552D01*
G01X0060130Y-030552D02*
G01X0060102Y-030608D01*
G01X0060102Y-030608D02*
G01X0060074Y-030636D01*
G01X0060074Y-030636D02*
G01X0060018Y-030664D01*
G01X0060018Y-030664D02*
G01X0059849Y-030664D01*
G01X0059849Y-030664D02*
G01X0059793Y-030636D01*
G01X0059793Y-030636D02*
G01X0059765Y-030608D01*
G01X0059765Y-030608D02*
G01X0059737Y-030552D01*
G01X0059737Y-030552D02*
G01X0059737Y-030467D01*
G01X0060130Y-030833D02*
G01X0060130Y-031058D01*
G01X0060327Y-030917D02*
G01X0059821Y-030917D01*
G01X0059821Y-030917D02*
G01X0059765Y-030945D01*
G01X0059765Y-030945D02*
G01X0059737Y-031002D01*
G01X0059737Y-031002D02*
G01X0059737Y-031058D01*
G01X0060271Y-031227D02*
G01X0060299Y-031255D01*
G01X0060299Y-031255D02*
G01X0060327Y-031311D01*
G01X0060327Y-031311D02*
G01X0060327Y-031452D01*
G01X0060327Y-031452D02*
G01X0060299Y-031508D01*
G01X0060299Y-031508D02*
G01X0060271Y-031536D01*
G01X0060271Y-031536D02*
G01X0060215Y-031564D01*
G01X0060215Y-031564D02*
G01X0060159Y-031564D01*
G01X0060159Y-031564D02*
G01X0060074Y-031536D01*
G01X0060074Y-031536D02*
G01X0059737Y-031199D01*
G01X0059737Y-031199D02*
G01X0059737Y-031564D01*
G01X0078066Y-031536D02*
G01X0077476Y-031536D01*
G01X0077476Y-031536D02*
G01X0077898Y-031339D01*
G01X0077898Y-031339D02*
G01X0077476Y-031142D01*
G01X0077476Y-031142D02*
G01X0078066Y-031142D01*
G01X0078066Y-030777D02*
G01X0078038Y-030833D01*
G01X0078038Y-030833D02*
G01X0078010Y-030861D01*
G01X0078010Y-030861D02*
G01X0077954Y-030889D01*
G01X0077954Y-030889D02*
G01X0077785Y-030889D01*
G01X0077785Y-030889D02*
G01X0077729Y-030861D01*
G01X0077729Y-030861D02*
G01X0077701Y-030833D01*
G01X0077701Y-030833D02*
G01X0077673Y-030777D01*
G01X0077673Y-030777D02*
G01X0077673Y-030692D01*
G01X0077673Y-030692D02*
G01X0077701Y-030636D01*
G01X0077701Y-030636D02*
G01X0077729Y-030608D01*
G01X0077729Y-030608D02*
G01X0077785Y-030580D01*
G01X0077785Y-030580D02*
G01X0077954Y-030580D01*
G01X0077954Y-030580D02*
G01X0078010Y-030608D01*
G01X0078010Y-030608D02*
G01X0078038Y-030636D01*
G01X0078038Y-030636D02*
G01X0078066Y-030692D01*
G01X0078066Y-030692D02*
G01X0078066Y-030777D01*
G01X0077673Y-030411D02*
G01X0077673Y-030186D01*
G01X0077476Y-030327D02*
G01X0077982Y-030327D01*
G01X0077982Y-030327D02*
G01X0078038Y-030299D01*
G01X0078038Y-030299D02*
G01X0078066Y-030242D01*
G01X0078066Y-030242D02*
G01X0078066Y-030186D01*
G01X0078066Y-029680D02*
G01X0078066Y-030017D01*
G01X0078066Y-029849D02*
G01X0077476Y-029849D01*
G01X0077476Y-029849D02*
G01X0077560Y-029905D01*
G01X0077560Y-029905D02*
G01X0077616Y-029961D01*
G01X0077616Y-029961D02*
G01X0077645Y-030017D01*
G01X0076845Y-036249D02*
G01X0076873Y-036277D01*
G01X0076873Y-036277D02*
G01X0076901Y-036361D01*
G01X0076901Y-036361D02*
G01X0076901Y-036417D01*
G01X0076901Y-036417D02*
G01X0076873Y-036502D01*
G01X0076873Y-036502D02*
G01X0076817Y-036558D01*
G01X0076817Y-036558D02*
G01X0076760Y-036586D01*
G01X0076760Y-036586D02*
G01X0076648Y-036614D01*
G01X0076648Y-036614D02*
G01X0076564Y-036614D01*
G01X0076564Y-036614D02*
G01X0076451Y-036586D01*
G01X0076451Y-036586D02*
G01X0076395Y-036558D01*
G01X0076395Y-036558D02*
G01X0076339Y-036502D01*
G01X0076339Y-036502D02*
G01X0076310Y-036417D01*
G01X0076310Y-036417D02*
G01X0076310Y-036361D01*
G01X0076310Y-036361D02*
G01X0076339Y-036277D01*
G01X0076339Y-036277D02*
G01X0076367Y-036249D01*
G01X0076732Y-036024D02*
G01X0076732Y-035742D01*
G01X0076901Y-036080D02*
G01X0076310Y-035883D01*
G01X0076310Y-035883D02*
G01X0076901Y-035686D01*
G01X0076901Y-035489D02*
G01X0076310Y-035489D01*
G01X0076310Y-035489D02*
G01X0076901Y-035152D01*
G01X0076901Y-035152D02*
G01X0076310Y-035152D01*
G01X0076592Y-034224D02*
G01X0076620Y-034139D01*
G01X0076620Y-034139D02*
G01X0076648Y-034111D01*
G01X0076648Y-034111D02*
G01X0076704Y-034083D01*
G01X0076704Y-034083D02*
G01X0076789Y-034083D01*
G01X0076789Y-034083D02*
G01X0076845Y-034111D01*
G01X0076845Y-034111D02*
G01X0076873Y-034139D01*
G01X0076873Y-034139D02*
G01X0076901Y-034196D01*
G01X0076901Y-034196D02*
G01X0076901Y-034421D01*
G01X0076901Y-034421D02*
G01X0076310Y-034421D01*
G01X0076310Y-034421D02*
G01X0076310Y-034224D01*
G01X0076310Y-034224D02*
G01X0076339Y-034168D01*
G01X0076339Y-034168D02*
G01X0076367Y-034139D01*
G01X0076367Y-034139D02*
G01X0076423Y-034111D01*
G01X0076423Y-034111D02*
G01X0076479Y-034111D01*
G01X0076479Y-034111D02*
G01X0076535Y-034139D01*
G01X0076535Y-034139D02*
G01X0076564Y-034168D01*
G01X0076564Y-034168D02*
G01X0076592Y-034224D01*
G01X0076592Y-034224D02*
G01X0076592Y-034421D01*
G01X0076507Y-033577D02*
G01X0076901Y-033577D01*
G01X0076507Y-033830D02*
G01X0076817Y-033830D01*
G01X0076817Y-033830D02*
G01X0076873Y-033802D01*
G01X0076873Y-033802D02*
G01X0076901Y-033746D01*
G01X0076901Y-033746D02*
G01X0076901Y-033661D01*
G01X0076901Y-033661D02*
G01X0076873Y-033605D01*
G01X0076873Y-033605D02*
G01X0076845Y-033577D01*
G01X0076873Y-033324D02*
G01X0076901Y-033268D01*
G01X0076901Y-033268D02*
G01X0076901Y-033155D01*
G01X0076901Y-033155D02*
G01X0076873Y-033099D01*
G01X0076873Y-033099D02*
G01X0076817Y-033071D01*
G01X0076817Y-033071D02*
G01X0076789Y-033071D01*
G01X0076789Y-033071D02*
G01X0076732Y-033099D01*
G01X0076732Y-033099D02*
G01X0076704Y-033155D01*
G01X0076704Y-033155D02*
G01X0076704Y-033240D01*
G01X0076704Y-033240D02*
G01X0076676Y-033296D01*
G01X0076676Y-033296D02*
G01X0076620Y-033324D01*
G01X0076620Y-033324D02*
G01X0076592Y-033324D01*
G01X0076592Y-033324D02*
G01X0076535Y-033296D01*
G01X0076535Y-033296D02*
G01X0076507Y-033240D01*
G01X0076507Y-033240D02*
G01X0076507Y-033155D01*
G01X0076507Y-033155D02*
G01X0076535Y-033099D01*
G01X0074742Y-020383D02*
G01X0074658Y-020355D01*
G01X0074658Y-020355D02*
G01X0074517Y-020355D01*
G01X0074517Y-020355D02*
G01X0074461Y-020383D01*
G01X0074461Y-020383D02*
G01X0074433Y-020411D01*
G01X0074433Y-020411D02*
G01X0074405Y-020467D01*
G01X0074405Y-020467D02*
G01X0074405Y-020524D01*
G01X0074405Y-020524D02*
G01X0074433Y-020580D01*
G01X0074433Y-020580D02*
G01X0074461Y-020608D01*
G01X0074461Y-020608D02*
G01X0074517Y-020636D01*
G01X0074517Y-020636D02*
G01X0074630Y-020664D01*
G01X0074630Y-020664D02*
G01X0074686Y-020692D01*
G01X0074686Y-020692D02*
G01X0074714Y-020720D01*
G01X0074714Y-020720D02*
G01X0074742Y-020777D01*
G01X0074742Y-020777D02*
G01X0074742Y-020833D01*
G01X0074742Y-020833D02*
G01X0074714Y-020889D01*
G01X0074714Y-020889D02*
G01X0074686Y-020917D01*
G01X0074686Y-020917D02*
G01X0074630Y-020945D01*
G01X0074630Y-020945D02*
G01X0074489Y-020945D01*
G01X0074489Y-020945D02*
G01X0074405Y-020917D01*
G01X0074208Y-020945D02*
G01X0074067Y-020355D01*
G01X0074067Y-020355D02*
G01X0073955Y-020777D01*
G01X0073955Y-020777D02*
G01X0073843Y-020355D01*
G01X0073843Y-020355D02*
G01X0073702Y-020945D01*
G01X0073477Y-020355D02*
G01X0073477Y-020945D01*
G01X0073477Y-020945D02*
G01X0073336Y-020945D01*
G01X0073336Y-020945D02*
G01X0073252Y-020917D01*
G01X0073252Y-020917D02*
G01X0073196Y-020861D01*
G01X0073196Y-020861D02*
G01X0073168Y-020805D01*
G01X0073168Y-020805D02*
G01X0073139Y-020692D01*
G01X0073139Y-020692D02*
G01X0073139Y-020608D01*
G01X0073139Y-020608D02*
G01X0073168Y-020496D01*
G01X0073168Y-020496D02*
G01X0073196Y-020439D01*
G01X0073196Y-020439D02*
G01X0073252Y-020383D01*
G01X0073252Y-020383D02*
G01X0073336Y-020355D01*
G01X0073336Y-020355D02*
G01X0073477Y-020355D01*
G54D12*
G01X0050236Y-038435D02*
G01X0050236Y-036093D01*
G01X0050236Y-036093D02*
G01X0045276Y-036093D01*
G01X0045276Y-036093D02*
G01X0045276Y-038435D01*
G01X0045276Y-038435D02*
G01X0050236Y-038435D01*
G01X0048937Y-038435D02*
G01X0048937Y-038140D01*
G01X0048937Y-038140D02*
G01X0046575Y-038140D01*
G01X0046575Y-038140D02*
G01X0046575Y-038435D01*
G01X0046575Y-038435D02*
G01X0048937Y-038435D01*
G01X0050236Y-038435D02*
G01X0050236Y-038140D01*
G01X0050236Y-038140D02*
G01X0049528Y-038140D01*
G01X0049528Y-038140D02*
G01X0049528Y-038435D01*
G01X0049528Y-038435D02*
G01X0050236Y-038435D01*
G01X0045984Y-038435D02*
G01X0045984Y-038140D01*
G01X0045984Y-038140D02*
G01X0045276Y-038140D01*
G01X0045276Y-038140D02*
G01X0045276Y-038435D01*
G01X0045276Y-038435D02*
G01X0045984Y-038435D01*
G01X0050236Y-037549D02*
G01X0049941Y-037549D01*
G01X0049941Y-037549D02*
G01X0049941Y-036388D01*
G01X0049941Y-036388D02*
G01X0047756Y-036388D01*
G01X0045276Y-037549D02*
G01X0045571Y-037549D01*
G01X0045571Y-037549D02*
G01X0045571Y-036388D01*
G01X0045571Y-036388D02*
G01X0047756Y-036388D01*
G01X0049232Y-038553D02*
G01X0049350Y-038789D01*
G01X0049350Y-038789D02*
G01X0049114Y-038789D01*
G01X0049114Y-038789D02*
G01X0049232Y-038553D01*
G01X0053185Y-028866D02*
G01X0053185Y-028316D01*
G01X0052185Y-028866D02*
G01X0052185Y-028316D01*
G01X0051185Y-028866D02*
G01X0051185Y-028316D01*
G01X0050085Y-032216D02*
G01X0050085Y-035366D01*
G01X0050085Y-035366D02*
G01X0054285Y-035366D01*
G01X0054285Y-035366D02*
G01X0054285Y-032216D01*
G01X0050085Y-028866D02*
G01X0050085Y-032216D01*
G01X0054285Y-032216D02*
G01X0054285Y-028866D01*
G01X0052185Y-028866D02*
G01X0054285Y-028866D01*
G01X0052185Y-028866D02*
G01X0050085Y-028866D01*
G01X0048839Y-024508D02*
G01X0047736Y-024508D01*
G01X0046161Y-024508D02*
G01X0045059Y-024508D01*
G01X0046161Y-033366D02*
G01X0045059Y-033366D01*
G01X0045059Y-033366D02*
G01X0045059Y-024508D01*
G01X0048839Y-033366D02*
G01X0048839Y-024508D01*
G01X0048839Y-033366D02*
G01X0047736Y-033366D01*
G01X0056051Y-034953D02*
G01X0056051Y-034370D01*
G01X0056051Y-031583D02*
G01X0056051Y-032165D01*
G01X0056051Y-033543D02*
G01X0056051Y-032992D01*
G01X0058445Y-034953D02*
G01X0058445Y-031583D01*
G01X0055650Y-033957D02*
G01X0055413Y-033839D01*
G01X0055413Y-033839D02*
G01X0055413Y-034075D01*
G01X0055413Y-034075D02*
G01X0055650Y-033957D01*
G01X0056033Y-038435D02*
G01X0056033Y-036093D01*
G01X0056033Y-036093D02*
G01X0051073Y-036093D01*
G01X0051073Y-036093D02*
G01X0051073Y-038435D01*
G01X0051073Y-038435D02*
G01X0056033Y-038435D01*
G01X0054734Y-038435D02*
G01X0054734Y-038140D01*
G01X0054734Y-038140D02*
G01X0052372Y-038140D01*
G01X0052372Y-038140D02*
G01X0052372Y-038435D01*
G01X0052372Y-038435D02*
G01X0054734Y-038435D01*
G01X0056033Y-038435D02*
G01X0056033Y-038140D01*
G01X0056033Y-038140D02*
G01X0055325Y-038140D01*
G01X0055325Y-038140D02*
G01X0055325Y-038435D01*
G01X0055325Y-038435D02*
G01X0056033Y-038435D01*
G01X0051781Y-038435D02*
G01X0051781Y-038140D01*
G01X0051781Y-038140D02*
G01X0051073Y-038140D01*
G01X0051073Y-038140D02*
G01X0051073Y-038435D01*
G01X0051073Y-038435D02*
G01X0051781Y-038435D01*
G01X0056033Y-037549D02*
G01X0055738Y-037549D01*
G01X0055738Y-037549D02*
G01X0055738Y-036388D01*
G01X0055738Y-036388D02*
G01X0053553Y-036388D01*
G01X0051073Y-037549D02*
G01X0051368Y-037549D01*
G01X0051368Y-037549D02*
G01X0051368Y-036388D01*
G01X0051368Y-036388D02*
G01X0053553Y-036388D01*
G01X0055030Y-038553D02*
G01X0055148Y-038789D01*
G01X0055148Y-038789D02*
G01X0054911Y-038789D01*
G01X0054911Y-038789D02*
G01X0055030Y-038553D01*
G01X0040453Y-036437D02*
G01X0042795Y-036437D01*
G01X0042795Y-036437D02*
G01X0042795Y-030492D01*
G01X0042795Y-030492D02*
G01X0040453Y-030492D01*
G01X0040453Y-030492D02*
G01X0040453Y-036437D01*
G01X0040453Y-035138D02*
G01X0040748Y-035138D01*
G01X0040748Y-035138D02*
G01X0040748Y-031791D01*
G01X0040748Y-031791D02*
G01X0040453Y-031791D01*
G01X0040453Y-031791D02*
G01X0040453Y-035138D01*
G01X0040453Y-036437D02*
G01X0040748Y-036437D01*
G01X0040748Y-036437D02*
G01X0040748Y-035728D01*
G01X0040748Y-035728D02*
G01X0040453Y-035728D01*
G01X0040453Y-035728D02*
G01X0040453Y-036437D01*
G01X0040453Y-031201D02*
G01X0040748Y-031201D01*
G01X0040748Y-031201D02*
G01X0040748Y-030492D01*
G01X0040748Y-030492D02*
G01X0040453Y-030492D01*
G01X0040453Y-030492D02*
G01X0040453Y-031201D01*
G01X0041339Y-036437D02*
G01X0041339Y-036142D01*
G01X0041339Y-036142D02*
G01X0042500Y-036142D01*
G01X0042500Y-036142D02*
G01X0042500Y-033465D01*
G01X0041339Y-030492D02*
G01X0041339Y-030787D01*
G01X0041339Y-030787D02*
G01X0042500Y-030787D01*
G01X0042500Y-030787D02*
G01X0042500Y-033465D01*
G01X0040335Y-035433D02*
G01X0040098Y-035551D01*
G01X0040098Y-035551D02*
G01X0040098Y-035315D01*
G01X0040098Y-035315D02*
G01X0040335Y-035433D01*
G01X0044097Y-030461D02*
G01X0044097Y-030861D01*
G01X0044097Y-028561D02*
G01X0044097Y-028061D01*
G01X0044597Y-028661D02*
G01X0043597Y-028661D01*
G01X0044597Y-028761D02*
G01X0043597Y-028761D01*
G01X0044597Y-028861D02*
G01X0043597Y-028861D01*
G01X0044597Y-028561D02*
G01X0043597Y-028561D01*
G01X0044597Y-028961D02*
G01X0043597Y-028461D01*
G01X0044597Y-028461D02*
G01X0043597Y-028961D01*
G01X0044597Y-028961D02*
G01X0043597Y-028961D01*
G01X0044597Y-028711D02*
G01X0043597Y-028711D01*
G01X0043597Y-028461D02*
G01X0044597Y-028461D01*
G01X0044597Y-028461D02*
G01X0044597Y-030461D01*
G01X0044597Y-030461D02*
G01X0043597Y-030461D01*
G01X0043597Y-030461D02*
G01X0043597Y-028461D01*
G01X0057520Y-030866D02*
G01X0056457Y-030866D01*
G01X0057520Y-031457D02*
G01X0056457Y-031457D01*
G01X0056929Y-031102D02*
G01X0056929Y-031201D01*
G01X0056929Y-031201D02*
G01X0056988Y-031142D01*
G01X0057028Y-031299D02*
G01X0057028Y-031024D01*
G01X0056890Y-031161D02*
G01X0056752Y-031161D01*
G01X0057028Y-031161D02*
G01X0056890Y-031299D01*
G01X0056890Y-031299D02*
G01X0056890Y-031024D01*
G01X0056890Y-031024D02*
G01X0057028Y-031161D01*
G01X0057500Y-024508D02*
G01X0056437Y-024508D01*
G01X0057500Y-025098D02*
G01X0056437Y-025098D01*
G01X0056910Y-024744D02*
G01X0056910Y-024843D01*
G01X0056910Y-024843D02*
G01X0056969Y-024783D01*
G01X0057008Y-024941D02*
G01X0057008Y-024665D01*
G01X0056870Y-024803D02*
G01X0056733Y-024803D01*
G01X0057008Y-024803D02*
G01X0056870Y-024941D01*
G01X0056870Y-024941D02*
G01X0056870Y-024665D01*
G01X0056870Y-024665D02*
G01X0057008Y-024803D01*
G01X0056634Y-030561D02*
G01X0056161Y-030561D01*
G01X0056161Y-029872D02*
G01X0056634Y-029872D01*
G01X0056634Y-024163D02*
G01X0056161Y-024163D01*
G01X0056161Y-023474D02*
G01X0056634Y-023474D01*
G01X0052892Y-025209D02*
G01X0052892Y-024709D01*
G01X0052582Y-024914D02*
G01X0052597Y-025014D01*
G01X0052597Y-025014D02*
G01X0052667Y-025124D01*
G01X0052667Y-025124D02*
G01X0052792Y-025209D01*
G01X0052792Y-025209D02*
G01X0052967Y-025214D01*
G01X0052967Y-025214D02*
G01X0053107Y-025134D01*
G01X0053107Y-025134D02*
G01X0053177Y-025019D01*
G01X0053177Y-025019D02*
G01X0053197Y-024894D01*
G01X0053197Y-024894D02*
G01X0053157Y-024734D01*
G01X0053157Y-024734D02*
G01X0053022Y-024634D01*
G01X0053022Y-024634D02*
G01X0052952Y-024599D01*
G01X0049592Y-023709D02*
G01X0053392Y-023709D01*
G01X0053392Y-024909D02*
G01X0053392Y-025409D01*
G01X0053392Y-025409D02*
G01X0049592Y-025409D01*
G01X0049592Y-025409D02*
G01X0049592Y-023409D01*
G01X0053392Y-023409D02*
G01X0053392Y-024409D01*
G01X0053392Y-024409D02*
G01X0053392Y-024909D01*
G01X0054872Y-027323D02*
G01X0054872Y-027795D01*
G01X0054183Y-027795D02*
G01X0054183Y-027323D01*
G01X0042236Y-022626D02*
G01X0038551Y-022626D01*
G01X0038551Y-022626D02*
G01X0038551Y-025996D01*
G01X0038551Y-025996D02*
G01X0042236Y-025996D01*
G01X0042236Y-022626D02*
G01X0042236Y-023209D01*
G01X0042236Y-025996D02*
G01X0042236Y-025413D01*
G01X0042236Y-024035D02*
G01X0042236Y-024587D01*
G01X0039843Y-022626D02*
G01X0039843Y-025996D01*
G01X0042638Y-023622D02*
G01X0042874Y-023740D01*
G01X0042874Y-023740D02*
G01X0042874Y-023504D01*
G01X0042874Y-023504D02*
G01X0042638Y-023622D01*
G01X0042236Y-026563D02*
G01X0038551Y-026563D01*
G01X0038551Y-026563D02*
G01X0038551Y-029933D01*
G01X0038551Y-029933D02*
G01X0042236Y-029933D01*
G01X0042236Y-026563D02*
G01X0042236Y-027146D01*
G01X0042236Y-029933D02*
G01X0042236Y-029350D01*
G01X0042236Y-027972D02*
G01X0042236Y-028524D01*
G01X0039843Y-026563D02*
G01X0039843Y-029933D01*
G01X0042638Y-027559D02*
G01X0042874Y-027677D01*
G01X0042874Y-027677D02*
G01X0042874Y-027441D01*
G01X0042874Y-027441D02*
G01X0042638Y-027559D01*
G01X0050602Y-022551D02*
G01X0050602Y-018866D01*
G01X0050602Y-018866D02*
G01X0044476Y-018866D01*
G01X0044476Y-018866D02*
G01X0044476Y-022551D01*
G01X0050602Y-022551D02*
G01X0050020Y-022551D01*
G01X0044476Y-022551D02*
G01X0045059Y-022551D01*
G01X0049193Y-022551D02*
G01X0048642Y-022551D01*
G01X0047815Y-022551D02*
G01X0047264Y-022551D01*
G01X0046437Y-022551D02*
G01X0045886Y-022551D01*
G01X0050602Y-020157D02*
G01X0044476Y-020157D01*
G01X0049606Y-022953D02*
G01X0049488Y-023189D01*
G01X0049488Y-023189D02*
G01X0049724Y-023189D01*
G01X0049724Y-023189D02*
G01X0049606Y-022953D01*
G01X0055819Y-022551D02*
G01X0055819Y-018866D01*
G01X0055819Y-018866D02*
G01X0052449Y-018866D01*
G01X0052449Y-018866D02*
G01X0052449Y-022551D01*
G01X0055819Y-022551D02*
G01X0055236Y-022551D01*
G01X0052449Y-022551D02*
G01X0053031Y-022551D01*
G01X0054409Y-022551D02*
G01X0053858Y-022551D01*
G01X0055819Y-020157D02*
G01X0052449Y-020157D01*
G01X0054823Y-022953D02*
G01X0054705Y-023189D01*
G01X0054705Y-023189D02*
G01X0054941Y-023189D01*
G01X0054941Y-023189D02*
G01X0054823Y-022953D01*
G01X0056051Y-028654D02*
G01X0056051Y-028071D01*
G01X0056051Y-025283D02*
G01X0056051Y-025866D01*
G01X0056051Y-027244D02*
G01X0056051Y-026693D01*
G01X0058445Y-028654D02*
G01X0058445Y-025283D01*
G01X0055650Y-027657D02*
G01X0055413Y-027539D01*
G01X0055413Y-027539D02*
G01X0055413Y-027776D01*
G01X0055413Y-027776D02*
G01X0055650Y-027657D01*
G01X0041845Y-037795D02*
G75*
G03X0041845Y-037795I-000900J0000000D01*
G01X0041845Y-021260D02*
G75*
G03X0041845Y-021260I-000900J0000000D01*
G01X0058380Y-037795D02*
G75*
G03X0058380Y-037795I-000900J0000000D01*
G01X0058380Y-021260D02*
G75*
G03X0058380Y-021260I-000900J0000000D01*
G01X0074695Y-030089D02*
G01X0074675Y-030089D01*
G01X0074695Y-031722D02*
G01X0074638Y-031722D01*
G01X0072667Y-031722D02*
G01X0072724Y-031722D01*
G01X0072667Y-030089D02*
G01X0072724Y-030089D01*
G01X0074695Y-030089D02*
G01X0074695Y-031722D01*
G01X0072667Y-030089D02*
G01X0072667Y-031722D01*
G01X0074675Y-030089D02*
G01X0074675Y-029537D01*
G01X0078124Y-021260D02*
G75*
G03X0078124Y-021260I-000900J0000000D01*
G01X0061589Y-021260D02*
G75*
G03X0061589Y-021260I-000900J0000000D01*
G01X0061589Y-037795D02*
G75*
G03X0061589Y-037795I-000900J0000000D01*
G01X0078124Y-037795D02*
G75*
G03X0078124Y-037795I-000900J0000000D01*
G01X0075732Y-035130D02*
G01X0075732Y-032787D01*
G01X0075732Y-032787D02*
G01X0070772Y-032787D01*
G01X0070772Y-032787D02*
G01X0070772Y-035130D01*
G01X0070772Y-035130D02*
G01X0075732Y-035130D01*
G01X0074433Y-035130D02*
G01X0074433Y-034835D01*
G01X0074433Y-034835D02*
G01X0072071Y-034835D01*
G01X0072071Y-034835D02*
G01X0072071Y-035130D01*
G01X0072071Y-035130D02*
G01X0074433Y-035130D01*
G01X0075732Y-035130D02*
G01X0075732Y-034835D01*
G01X0075732Y-034835D02*
G01X0075024Y-034835D01*
G01X0075024Y-034835D02*
G01X0075024Y-035130D01*
G01X0075024Y-035130D02*
G01X0075732Y-035130D01*
G01X0071480Y-035130D02*
G01X0071480Y-034835D01*
G01X0071480Y-034835D02*
G01X0070772Y-034835D01*
G01X0070772Y-034835D02*
G01X0070772Y-035130D01*
G01X0070772Y-035130D02*
G01X0071480Y-035130D01*
G01X0075732Y-034244D02*
G01X0075437Y-034244D01*
G01X0075437Y-034244D02*
G01X0075437Y-033083D01*
G01X0075437Y-033083D02*
G01X0073252Y-033083D01*
G01X0070772Y-034244D02*
G01X0071067Y-034244D01*
G01X0071067Y-034244D02*
G01X0071067Y-033083D01*
G01X0071067Y-033083D02*
G01X0073252Y-033083D01*
G01X0074728Y-035248D02*
G01X0074846Y-035484D01*
G01X0074846Y-035484D02*
G01X0074610Y-035484D01*
G01X0074610Y-035484D02*
G01X0074728Y-035248D01*
G01X0070457Y-025701D02*
G01X0070457Y-026094D01*
G01X0071126Y-026094D02*
G01X0071126Y-025701D01*
G01X0066645Y-024520D02*
G01X0066795Y-024520D01*
G01X0066245Y-024520D02*
G01X0066395Y-024520D01*
G01X0066395Y-024520D02*
G01X0066645Y-024370D01*
G01X0066645Y-024370D02*
G01X0066645Y-024670D01*
G01X0066645Y-024670D02*
G01X0066395Y-024520D01*
G01X0066395Y-024320D02*
G01X0066395Y-024720D01*
G01X0065732Y-024874D02*
G01X0067126Y-024874D01*
G01X0065732Y-024165D02*
G01X0067126Y-024165D01*
G01X0066651Y-025504D02*
G01X0066801Y-025504D01*
G01X0066251Y-025504D02*
G01X0066401Y-025504D01*
G01X0066401Y-025504D02*
G01X0066651Y-025354D01*
G01X0066651Y-025354D02*
G01X0066651Y-025654D01*
G01X0066651Y-025654D02*
G01X0066401Y-025504D01*
G01X0066401Y-025304D02*
G01X0066401Y-025704D01*
G01X0065738Y-025858D02*
G01X0067132Y-025858D01*
G01X0065738Y-025150D02*
G01X0067132Y-025150D01*
G01X0064433Y-027991D02*
G01X0064433Y-028141D01*
G01X0064433Y-027591D02*
G01X0064433Y-027741D01*
G01X0064433Y-027741D02*
G01X0064583Y-027991D01*
G01X0064583Y-027991D02*
G01X0064283Y-027991D01*
G01X0064283Y-027991D02*
G01X0064433Y-027741D01*
G01X0064633Y-027741D02*
G01X0064233Y-027741D01*
G01X0064079Y-027079D02*
G01X0064079Y-028472D01*
G01X0064787Y-027079D02*
G01X0064787Y-028472D01*
G01X0063075Y-036035D02*
G01X0064138Y-036035D01*
G01X0063075Y-035445D02*
G01X0064138Y-035445D01*
G01X0063665Y-035799D02*
G01X0063665Y-035701D01*
G01X0063665Y-035701D02*
G01X0063606Y-035760D01*
G01X0063567Y-035602D02*
G01X0063567Y-035878D01*
G01X0063705Y-035740D02*
G01X0063843Y-035740D01*
G01X0063567Y-035740D02*
G01X0063705Y-035602D01*
G01X0063705Y-035602D02*
G01X0063705Y-035878D01*
G01X0063705Y-035878D02*
G01X0063567Y-035740D01*
G01X0063056Y-033673D02*
G01X0064118Y-033673D01*
G01X0063056Y-033083D02*
G01X0064118Y-033083D01*
G01X0063646Y-033437D02*
G01X0063646Y-033339D01*
G01X0063646Y-033339D02*
G01X0063587Y-033398D01*
G01X0063548Y-033240D02*
G01X0063548Y-033516D01*
G01X0063685Y-033378D02*
G01X0063823Y-033378D01*
G01X0063548Y-033378D02*
G01X0063685Y-033240D01*
G01X0063685Y-033240D02*
G01X0063685Y-033516D01*
G01X0063685Y-033516D02*
G01X0063548Y-033378D01*
G01X0063056Y-034854D02*
G01X0064118Y-034854D01*
G01X0063056Y-034264D02*
G01X0064118Y-034264D01*
G01X0063646Y-034618D02*
G01X0063646Y-034520D01*
G01X0063646Y-034520D02*
G01X0063587Y-034579D01*
G01X0063548Y-034421D02*
G01X0063548Y-034697D01*
G01X0063685Y-034559D02*
G01X0063823Y-034559D01*
G01X0063548Y-034559D02*
G01X0063685Y-034421D01*
G01X0063685Y-034421D02*
G01X0063685Y-034697D01*
G01X0063685Y-034697D02*
G01X0063548Y-034559D01*
G01X0060181Y-028476D02*
G01X0062524Y-028476D01*
G01X0062524Y-028476D02*
G01X0062524Y-022531D01*
G01X0062524Y-022531D02*
G01X0060181Y-022531D01*
G01X0060181Y-022531D02*
G01X0060181Y-028476D01*
G01X0060181Y-027177D02*
G01X0060476Y-027177D01*
G01X0060476Y-027177D02*
G01X0060476Y-023831D01*
G01X0060476Y-023831D02*
G01X0060181Y-023831D01*
G01X0060181Y-023831D02*
G01X0060181Y-027177D01*
G01X0060181Y-028476D02*
G01X0060476Y-028476D01*
G01X0060476Y-028476D02*
G01X0060476Y-027768D01*
G01X0060476Y-027768D02*
G01X0060181Y-027768D01*
G01X0060181Y-027768D02*
G01X0060181Y-028476D01*
G01X0060181Y-023240D02*
G01X0060476Y-023240D01*
G01X0060476Y-023240D02*
G01X0060476Y-022531D01*
G01X0060476Y-022531D02*
G01X0060181Y-022531D01*
G01X0060181Y-022531D02*
G01X0060181Y-023240D01*
G01X0061067Y-028476D02*
G01X0061067Y-028181D01*
G01X0061067Y-028181D02*
G01X0062228Y-028181D01*
G01X0062228Y-028181D02*
G01X0062228Y-025504D01*
G01X0061067Y-022531D02*
G01X0061067Y-022827D01*
G01X0061067Y-022827D02*
G01X0062228Y-022827D01*
G01X0062228Y-022827D02*
G01X0062228Y-025504D01*
G01X0060063Y-027472D02*
G01X0059827Y-027591D01*
G01X0059827Y-027591D02*
G01X0059827Y-027354D01*
G01X0059827Y-027354D02*
G01X0060063Y-027472D01*
G01X0060646Y-030122D02*
G01X0060646Y-032122D01*
G01X0060646Y-032122D02*
G01X0061646Y-032122D01*
G01X0061646Y-032122D02*
G01X0061646Y-030122D01*
G01X0061756Y-029012D02*
G01X0061756Y-029622D01*
G01X0061646Y-030122D02*
G01X0060646Y-030122D01*
G01X0060535Y-029622D02*
G01X0060535Y-029012D01*
G01X0060535Y-029012D02*
G01X0061756Y-029012D01*
G01X0077661Y-022531D02*
G01X0075319Y-022531D01*
G01X0075319Y-022531D02*
G01X0075319Y-028476D01*
G01X0075319Y-028476D02*
G01X0077661Y-028476D01*
G01X0077661Y-028476D02*
G01X0077661Y-022531D01*
G01X0077661Y-023831D02*
G01X0077366Y-023831D01*
G01X0077366Y-023831D02*
G01X0077366Y-027177D01*
G01X0077366Y-027177D02*
G01X0077661Y-027177D01*
G01X0077661Y-027177D02*
G01X0077661Y-023831D01*
G01X0077661Y-022531D02*
G01X0077366Y-022531D01*
G01X0077366Y-022531D02*
G01X0077366Y-023240D01*
G01X0077366Y-023240D02*
G01X0077661Y-023240D01*
G01X0077661Y-023240D02*
G01X0077661Y-022531D01*
G01X0077661Y-027768D02*
G01X0077366Y-027768D01*
G01X0077366Y-027768D02*
G01X0077366Y-028476D01*
G01X0077366Y-028476D02*
G01X0077661Y-028476D01*
G01X0077661Y-028476D02*
G01X0077661Y-027768D01*
G01X0076776Y-022531D02*
G01X0076776Y-022827D01*
G01X0076776Y-022827D02*
G01X0075614Y-022827D01*
G01X0075614Y-022827D02*
G01X0075614Y-025504D01*
G01X0076776Y-028476D02*
G01X0076776Y-028181D01*
G01X0076776Y-028181D02*
G01X0075614Y-028181D01*
G01X0075614Y-028181D02*
G01X0075614Y-025504D01*
G01X0077780Y-023535D02*
G01X0078016Y-023417D01*
G01X0078016Y-023417D02*
G01X0078016Y-023654D01*
G01X0078016Y-023654D02*
G01X0077780Y-023535D01*
G01X0076197Y-030122D02*
G01X0076197Y-032122D01*
G01X0076197Y-032122D02*
G01X0077197Y-032122D01*
G01X0077197Y-032122D02*
G01X0077197Y-030122D01*
G01X0077307Y-029012D02*
G01X0077307Y-029622D01*
G01X0077197Y-030122D02*
G01X0076197Y-030122D01*
G01X0076087Y-029622D02*
G01X0076087Y-029012D01*
G01X0076087Y-029012D02*
G01X0077307Y-029012D01*
G01X0074441Y-022248D02*
G01X0074441Y-027248D01*
G01X0074441Y-027248D02*
G01X0073441Y-027248D01*
G01X0073441Y-027248D02*
G01X0073441Y-022248D01*
G01X0074551Y-021138D02*
G01X0074551Y-021748D01*
G01X0074441Y-022248D02*
G01X0073441Y-022248D01*
G01X0073331Y-021748D02*
G01X0073331Y-021138D01*
G01X0073331Y-021138D02*
G01X0074551Y-021138D01*
G01X0075732Y-038280D02*
G01X0075732Y-035937D01*
G01X0075732Y-035937D02*
G01X0070772Y-035937D01*
G01X0070772Y-035937D02*
G01X0070772Y-038280D01*
G01X0070772Y-038280D02*
G01X0075732Y-038280D01*
G01X0074433Y-038280D02*
G01X0074433Y-037984D01*
G01X0074433Y-037984D02*
G01X0072071Y-037984D01*
G01X0072071Y-037984D02*
G01X0072071Y-038280D01*
G01X0072071Y-038280D02*
G01X0074433Y-038280D01*
G01X0075732Y-038280D02*
G01X0075732Y-037984D01*
G01X0075732Y-037984D02*
G01X0075024Y-037984D01*
G01X0075024Y-037984D02*
G01X0075024Y-038280D01*
G01X0075024Y-038280D02*
G01X0075732Y-038280D01*
G01X0071480Y-038280D02*
G01X0071480Y-037984D01*
G01X0071480Y-037984D02*
G01X0070772Y-037984D01*
G01X0070772Y-037984D02*
G01X0070772Y-038280D01*
G01X0070772Y-038280D02*
G01X0071480Y-038280D01*
G01X0075732Y-037394D02*
G01X0075437Y-037394D01*
G01X0075437Y-037394D02*
G01X0075437Y-036232D01*
G01X0075437Y-036232D02*
G01X0073252Y-036232D01*
G01X0070772Y-037394D02*
G01X0071067Y-037394D01*
G01X0071067Y-037394D02*
G01X0071067Y-036232D01*
G01X0071067Y-036232D02*
G01X0073252Y-036232D01*
G01X0074728Y-038398D02*
G01X0074846Y-038634D01*
G01X0074846Y-038634D02*
G01X0074610Y-038634D01*
G01X0074610Y-038634D02*
G01X0074728Y-038398D01*
G01X0065173Y-022264D02*
G01X0067173Y-022264D01*
G01X0067173Y-022264D02*
G01X0067173Y-021264D01*
G01X0067173Y-021264D02*
G01X0065173Y-021264D01*
G01X0064063Y-021154D02*
G01X0064673Y-021154D01*
G01X0065173Y-021264D02*
G01X0065173Y-022264D01*
G01X0064673Y-022374D02*
G01X0064063Y-022374D01*
G01X0064063Y-022374D02*
G01X0064063Y-021154D01*
G01X0070094Y-022264D02*
G01X0072094Y-022264D01*
G01X0072094Y-022264D02*
G01X0072094Y-021264D01*
G01X0072094Y-021264D02*
G01X0070094Y-021264D01*
G01X0068984Y-021154D02*
G01X0069594Y-021154D01*
G01X0070094Y-021264D02*
G01X0070094Y-022264D01*
G01X0069594Y-022374D02*
G01X0068984Y-022374D01*
G01X0068984Y-022374D02*
G01X0068984Y-021154D01*
G01X0063665Y-024175D02*
G01X0064138Y-024175D01*
G01X0064138Y-024864D02*
G01X0063665Y-024864D01*
G01X0063665Y-025159D02*
G01X0064138Y-025159D01*
G01X0064138Y-025848D02*
G01X0063665Y-025848D01*
G01X0063665Y-026144D02*
G01X0064138Y-026144D01*
G01X0064138Y-026833D02*
G01X0063665Y-026833D01*
G01X0065437Y-035396D02*
G01X0065909Y-035396D01*
G01X0065909Y-036085D02*
G01X0065437Y-036085D01*
G01X0065437Y-033033D02*
G01X0065909Y-033033D01*
G01X0065909Y-033722D02*
G01X0065437Y-033722D01*
G01X0065437Y-034215D02*
G01X0065909Y-034215D01*
G01X0065909Y-034904D02*
G01X0065437Y-034904D01*
G01X0071697Y-026449D02*
G01X0071697Y-025346D01*
G01X0071697Y-025346D02*
G01X0072248Y-025346D01*
G01X0072248Y-025346D02*
G01X0072248Y-026449D01*
G01X0072248Y-026449D02*
G01X0071697Y-026449D01*
G01X0071283Y-024717D02*
G01X0071539Y-024717D01*
G01X0072661Y-024717D02*
G01X0072406Y-024717D01*
G01X0072406Y-027079D02*
G01X0072661Y-027079D01*
G01X0071283Y-027079D02*
G01X0071539Y-027079D01*
G01X0071283Y-024717D02*
G01X0071283Y-027079D01*
G01X0072661Y-027079D02*
G01X0072661Y-024717D01*
G01X0067530Y-028100D02*
G01X0067530Y-028189D01*
G01X0070384Y-028100D02*
G01X0070384Y-028219D01*
G01X0070384Y-030955D02*
G01X0070384Y-030837D01*
G01X0067530Y-030955D02*
G01X0067530Y-030837D01*
G01X0067530Y-028100D02*
G01X0067648Y-028100D01*
G01X0067530Y-030955D02*
G01X0067648Y-030955D01*
G01X0070384Y-030955D02*
G01X0070266Y-030955D01*
G01X0070384Y-028100D02*
G01X0070266Y-028100D01*
G01X0067530Y-028189D02*
G01X0067047Y-028189D01*
G01X0048922Y-035847D02*
G01X0048922Y-035454D01*
G01X0048922Y-035454D02*
G01X0049072Y-035454D01*
G01X0049072Y-035454D02*
G01X0049109Y-035472D01*
G01X0049109Y-035472D02*
G01X0049128Y-035491D01*
G01X0049128Y-035491D02*
G01X0049147Y-035529D01*
G01X0049147Y-035529D02*
G01X0049147Y-035585D01*
G01X0049147Y-035585D02*
G01X0049128Y-035622D01*
G01X0049128Y-035622D02*
G01X0049109Y-035641D01*
G01X0049109Y-035641D02*
G01X0049072Y-035660D01*
G01X0049072Y-035660D02*
G01X0048922Y-035660D01*
G01X0049484Y-035454D02*
G01X0049409Y-035454D01*
G01X0049409Y-035454D02*
G01X0049372Y-035472D01*
G01X0049372Y-035472D02*
G01X0049353Y-035491D01*
G01X0049353Y-035491D02*
G01X0049316Y-035547D01*
G01X0049316Y-035547D02*
G01X0049297Y-035622D01*
G01X0049297Y-035622D02*
G01X0049297Y-035772D01*
G01X0049297Y-035772D02*
G01X0049316Y-035810D01*
G01X0049316Y-035810D02*
G01X0049334Y-035829D01*
G01X0049334Y-035829D02*
G01X0049372Y-035847D01*
G01X0049372Y-035847D02*
G01X0049447Y-035847D01*
G01X0049447Y-035847D02*
G01X0049484Y-035829D01*
G01X0049484Y-035829D02*
G01X0049503Y-035810D01*
G01X0049503Y-035810D02*
G01X0049522Y-035772D01*
G01X0049522Y-035772D02*
G01X0049522Y-035679D01*
G01X0049522Y-035679D02*
G01X0049503Y-035641D01*
G01X0049503Y-035641D02*
G01X0049484Y-035622D01*
G01X0049484Y-035622D02*
G01X0049447Y-035604D01*
G01X0049447Y-035604D02*
G01X0049372Y-035604D01*
G01X0049372Y-035604D02*
G01X0049334Y-035622D01*
G01X0049334Y-035622D02*
G01X0049316Y-035641D01*
G01X0049316Y-035641D02*
G01X0049297Y-035679D01*
G01X0050200Y-028184D02*
G01X0050200Y-028503D01*
G01X0050200Y-028503D02*
G01X0050219Y-028541D01*
G01X0050219Y-028541D02*
G01X0050238Y-028559D01*
G01X0050238Y-028559D02*
G01X0050275Y-028578D01*
G01X0050275Y-028578D02*
G01X0050350Y-028578D01*
G01X0050350Y-028578D02*
G01X0050388Y-028559D01*
G01X0050388Y-028559D02*
G01X0050406Y-028541D01*
G01X0050406Y-028541D02*
G01X0050425Y-028503D01*
G01X0050425Y-028503D02*
G01X0050425Y-028184D01*
G01X0050819Y-028578D02*
G01X0050594Y-028578D01*
G01X0050706Y-028578D02*
G01X0050706Y-028184D01*
G01X0050706Y-028184D02*
G01X0050669Y-028241D01*
G01X0050669Y-028241D02*
G01X0050631Y-028278D01*
G01X0050631Y-028278D02*
G01X0050594Y-028297D01*
G01X0048215Y-033751D02*
G01X0048084Y-033751D01*
G01X0048084Y-033958D02*
G01X0048084Y-033564D01*
G01X0048084Y-033564D02*
G01X0048271Y-033564D01*
G01X0048628Y-033958D02*
G01X0048403Y-033958D01*
G01X0048515Y-033958D02*
G01X0048515Y-033564D01*
G01X0048515Y-033564D02*
G01X0048478Y-033620D01*
G01X0048478Y-033620D02*
G01X0048440Y-033658D01*
G01X0048440Y-033658D02*
G01X0048403Y-033676D01*
G01X0057258Y-035710D02*
G01X0057258Y-035316D01*
G01X0057258Y-035316D02*
G01X0057408Y-035316D01*
G01X0057408Y-035316D02*
G01X0057446Y-035335D01*
G01X0057446Y-035335D02*
G01X0057464Y-035353D01*
G01X0057464Y-035353D02*
G01X0057483Y-035391D01*
G01X0057483Y-035391D02*
G01X0057483Y-035447D01*
G01X0057483Y-035447D02*
G01X0057464Y-035485D01*
G01X0057464Y-035485D02*
G01X0057446Y-035503D01*
G01X0057446Y-035503D02*
G01X0057408Y-035522D01*
G01X0057408Y-035522D02*
G01X0057258Y-035522D01*
G01X0057858Y-035710D02*
G01X0057633Y-035710D01*
G01X0057746Y-035710D02*
G01X0057746Y-035316D01*
G01X0057746Y-035316D02*
G01X0057708Y-035372D01*
G01X0057708Y-035372D02*
G01X0057671Y-035410D01*
G01X0057671Y-035410D02*
G01X0057633Y-035428D01*
G01X0058102Y-035316D02*
G01X0058139Y-035316D01*
G01X0058139Y-035316D02*
G01X0058177Y-035335D01*
G01X0058177Y-035335D02*
G01X0058196Y-035353D01*
G01X0058196Y-035353D02*
G01X0058214Y-035391D01*
G01X0058214Y-035391D02*
G01X0058233Y-035466D01*
G01X0058233Y-035466D02*
G01X0058233Y-035560D01*
G01X0058233Y-035560D02*
G01X0058214Y-035635D01*
G01X0058214Y-035635D02*
G01X0058196Y-035672D01*
G01X0058196Y-035672D02*
G01X0058177Y-035691D01*
G01X0058177Y-035691D02*
G01X0058139Y-035710D01*
G01X0058139Y-035710D02*
G01X0058102Y-035710D01*
G01X0058102Y-035710D02*
G01X0058064Y-035691D01*
G01X0058064Y-035691D02*
G01X0058046Y-035672D01*
G01X0058046Y-035672D02*
G01X0058027Y-035635D01*
G01X0058027Y-035635D02*
G01X0058008Y-035560D01*
G01X0058008Y-035560D02*
G01X0058008Y-035466D01*
G01X0058008Y-035466D02*
G01X0058027Y-035391D01*
G01X0058027Y-035391D02*
G01X0058046Y-035353D01*
G01X0058046Y-035353D02*
G01X0058064Y-035335D01*
G01X0058064Y-035335D02*
G01X0058102Y-035316D01*
G01X0054749Y-035926D02*
G01X0054749Y-035532D01*
G01X0054749Y-035532D02*
G01X0054899Y-035532D01*
G01X0054899Y-035532D02*
G01X0054936Y-035551D01*
G01X0054936Y-035551D02*
G01X0054955Y-035570D01*
G01X0054955Y-035570D02*
G01X0054974Y-035607D01*
G01X0054974Y-035607D02*
G01X0054974Y-035664D01*
G01X0054974Y-035664D02*
G01X0054955Y-035701D01*
G01X0054955Y-035701D02*
G01X0054936Y-035720D01*
G01X0054936Y-035720D02*
G01X0054899Y-035739D01*
G01X0054899Y-035739D02*
G01X0054749Y-035739D01*
G01X0055105Y-035532D02*
G01X0055367Y-035532D01*
G01X0055367Y-035532D02*
G01X0055199Y-035926D01*
G01X0039749Y-033643D02*
G01X0039749Y-033249D01*
G01X0039749Y-033249D02*
G01X0039899Y-033249D01*
G01X0039899Y-033249D02*
G01X0039936Y-033268D01*
G01X0039936Y-033268D02*
G01X0039955Y-033286D01*
G01X0039955Y-033286D02*
G01X0039974Y-033324D01*
G01X0039974Y-033324D02*
G01X0039974Y-033380D01*
G01X0039974Y-033380D02*
G01X0039955Y-033418D01*
G01X0039955Y-033418D02*
G01X0039936Y-033436D01*
G01X0039936Y-033436D02*
G01X0039899Y-033455D01*
G01X0039899Y-033455D02*
G01X0039749Y-033455D01*
G01X0040349Y-033643D02*
G01X0040124Y-033643D01*
G01X0040236Y-033643D02*
G01X0040236Y-033249D01*
G01X0040236Y-033249D02*
G01X0040199Y-033305D01*
G01X0040199Y-033305D02*
G01X0040161Y-033343D01*
G01X0040161Y-033343D02*
G01X0040124Y-033361D01*
G01X0042938Y-029706D02*
G01X0042938Y-029312D01*
G01X0042938Y-029312D02*
G01X0043031Y-029312D01*
G01X0043031Y-029312D02*
G01X0043088Y-029331D01*
G01X0043088Y-029331D02*
G01X0043125Y-029368D01*
G01X0043125Y-029368D02*
G01X0043144Y-029406D01*
G01X0043144Y-029406D02*
G01X0043163Y-029481D01*
G01X0043163Y-029481D02*
G01X0043163Y-029537D01*
G01X0043163Y-029537D02*
G01X0043144Y-029612D01*
G01X0043144Y-029612D02*
G01X0043125Y-029649D01*
G01X0043125Y-029649D02*
G01X0043088Y-029687D01*
G01X0043088Y-029687D02*
G01X0043031Y-029706D01*
G01X0043031Y-029706D02*
G01X0042938Y-029706D01*
G01X0043538Y-029706D02*
G01X0043313Y-029706D01*
G01X0043425Y-029706D02*
G01X0043425Y-029312D01*
G01X0043425Y-029312D02*
G01X0043388Y-029368D01*
G01X0043388Y-029368D02*
G01X0043350Y-029406D01*
G01X0043350Y-029406D02*
G01X0043313Y-029424D01*
G01X0057682Y-031379D02*
G01X0057682Y-030985D01*
G01X0057682Y-030985D02*
G01X0057776Y-030985D01*
G01X0057776Y-030985D02*
G01X0057832Y-031004D01*
G01X0057832Y-031004D02*
G01X0057869Y-031041D01*
G01X0057869Y-031041D02*
G01X0057888Y-031079D01*
G01X0057888Y-031079D02*
G01X0057907Y-031154D01*
G01X0057907Y-031154D02*
G01X0057907Y-031210D01*
G01X0057907Y-031210D02*
G01X0057888Y-031285D01*
G01X0057888Y-031285D02*
G01X0057869Y-031323D01*
G01X0057869Y-031323D02*
G01X0057832Y-031360D01*
G01X0057832Y-031360D02*
G01X0057776Y-031379D01*
G01X0057776Y-031379D02*
G01X0057682Y-031379D01*
G01X0058057Y-031023D02*
G01X0058076Y-031004D01*
G01X0058076Y-031004D02*
G01X0058113Y-030985D01*
G01X0058113Y-030985D02*
G01X0058207Y-030985D01*
G01X0058207Y-030985D02*
G01X0058244Y-031004D01*
G01X0058244Y-031004D02*
G01X0058263Y-031023D01*
G01X0058263Y-031023D02*
G01X0058282Y-031060D01*
G01X0058282Y-031060D02*
G01X0058282Y-031098D01*
G01X0058282Y-031098D02*
G01X0058263Y-031154D01*
G01X0058263Y-031154D02*
G01X0058038Y-031379D01*
G01X0058038Y-031379D02*
G01X0058282Y-031379D01*
G01X0057682Y-024981D02*
G01X0057682Y-024588D01*
G01X0057682Y-024588D02*
G01X0057776Y-024588D01*
G01X0057776Y-024588D02*
G01X0057832Y-024606D01*
G01X0057832Y-024606D02*
G01X0057869Y-024644D01*
G01X0057869Y-024644D02*
G01X0057888Y-024681D01*
G01X0057888Y-024681D02*
G01X0057907Y-024756D01*
G01X0057907Y-024756D02*
G01X0057907Y-024813D01*
G01X0057907Y-024813D02*
G01X0057888Y-024888D01*
G01X0057888Y-024888D02*
G01X0057869Y-024925D01*
G01X0057869Y-024925D02*
G01X0057832Y-024963D01*
G01X0057832Y-024963D02*
G01X0057776Y-024981D01*
G01X0057776Y-024981D02*
G01X0057682Y-024981D01*
G01X0058038Y-024588D02*
G01X0058282Y-024588D01*
G01X0058282Y-024588D02*
G01X0058151Y-024738D01*
G01X0058151Y-024738D02*
G01X0058207Y-024738D01*
G01X0058207Y-024738D02*
G01X0058244Y-024756D01*
G01X0058244Y-024756D02*
G01X0058263Y-024775D01*
G01X0058263Y-024775D02*
G01X0058282Y-024813D01*
G01X0058282Y-024813D02*
G01X0058282Y-024906D01*
G01X0058282Y-024906D02*
G01X0058263Y-024944D01*
G01X0058263Y-024944D02*
G01X0058244Y-024963D01*
G01X0058244Y-024963D02*
G01X0058207Y-024981D01*
G01X0058207Y-024981D02*
G01X0058094Y-024981D01*
G01X0058094Y-024981D02*
G01X0058057Y-024963D01*
G01X0058057Y-024963D02*
G01X0058038Y-024944D01*
G01X0057634Y-030378D02*
G01X0057503Y-030191D01*
G01X0057409Y-030378D02*
G01X0057409Y-029984D01*
G01X0057409Y-029984D02*
G01X0057559Y-029984D01*
G01X0057559Y-029984D02*
G01X0057597Y-030003D01*
G01X0057597Y-030003D02*
G01X0057616Y-030022D01*
G01X0057616Y-030022D02*
G01X0057634Y-030059D01*
G01X0057634Y-030059D02*
G01X0057634Y-030116D01*
G01X0057634Y-030116D02*
G01X0057616Y-030153D01*
G01X0057616Y-030153D02*
G01X0057597Y-030172D01*
G01X0057597Y-030172D02*
G01X0057559Y-030191D01*
G01X0057559Y-030191D02*
G01X0057409Y-030191D01*
G01X0057784Y-030022D02*
G01X0057803Y-030003D01*
G01X0057803Y-030003D02*
G01X0057841Y-029984D01*
G01X0057841Y-029984D02*
G01X0057934Y-029984D01*
G01X0057934Y-029984D02*
G01X0057972Y-030003D01*
G01X0057972Y-030003D02*
G01X0057991Y-030022D01*
G01X0057991Y-030022D02*
G01X0058009Y-030059D01*
G01X0058009Y-030059D02*
G01X0058009Y-030097D01*
G01X0058009Y-030097D02*
G01X0057991Y-030153D01*
G01X0057991Y-030153D02*
G01X0057766Y-030378D01*
G01X0057766Y-030378D02*
G01X0058009Y-030378D01*
G01X0057710Y-023997D02*
G01X0057579Y-023810D01*
G01X0057485Y-023997D02*
G01X0057485Y-023603D01*
G01X0057485Y-023603D02*
G01X0057635Y-023603D01*
G01X0057635Y-023603D02*
G01X0057672Y-023622D01*
G01X0057672Y-023622D02*
G01X0057691Y-023641D01*
G01X0057691Y-023641D02*
G01X0057710Y-023678D01*
G01X0057710Y-023678D02*
G01X0057710Y-023735D01*
G01X0057710Y-023735D02*
G01X0057691Y-023772D01*
G01X0057691Y-023772D02*
G01X0057672Y-023791D01*
G01X0057672Y-023791D02*
G01X0057635Y-023810D01*
G01X0057635Y-023810D02*
G01X0057485Y-023810D01*
G01X0057841Y-023603D02*
G01X0058085Y-023603D01*
G01X0058085Y-023603D02*
G01X0057954Y-023753D01*
G01X0057954Y-023753D02*
G01X0058010Y-023753D01*
G01X0058010Y-023753D02*
G01X0058047Y-023772D01*
G01X0058047Y-023772D02*
G01X0058066Y-023791D01*
G01X0058066Y-023791D02*
G01X0058085Y-023828D01*
G01X0058085Y-023828D02*
G01X0058085Y-023922D01*
G01X0058085Y-023922D02*
G01X0058066Y-023960D01*
G01X0058066Y-023960D02*
G01X0058047Y-023978D01*
G01X0058047Y-023978D02*
G01X0058010Y-023997D01*
G01X0058010Y-023997D02*
G01X0057897Y-023997D01*
G01X0057897Y-023997D02*
G01X0057860Y-023978D01*
G01X0057860Y-023978D02*
G01X0057841Y-023960D01*
G01X0053781Y-024588D02*
G01X0053650Y-024400D01*
G01X0053556Y-024588D02*
G01X0053556Y-024194D01*
G01X0053556Y-024194D02*
G01X0053706Y-024194D01*
G01X0053706Y-024194D02*
G01X0053744Y-024213D01*
G01X0053744Y-024213D02*
G01X0053763Y-024231D01*
G01X0053763Y-024231D02*
G01X0053781Y-024269D01*
G01X0053781Y-024269D02*
G01X0053781Y-024325D01*
G01X0053781Y-024325D02*
G01X0053763Y-024363D01*
G01X0053763Y-024363D02*
G01X0053744Y-024381D01*
G01X0053744Y-024381D02*
G01X0053706Y-024400D01*
G01X0053706Y-024400D02*
G01X0053556Y-024400D01*
G01X0053894Y-024194D02*
G01X0054025Y-024588D01*
G01X0054025Y-024588D02*
G01X0054156Y-024194D01*
G01X0054494Y-024588D02*
G01X0054269Y-024588D01*
G01X0054381Y-024588D02*
G01X0054381Y-024194D01*
G01X0054381Y-024194D02*
G01X0054344Y-024250D01*
G01X0054344Y-024250D02*
G01X0054306Y-024288D01*
G01X0054306Y-024288D02*
G01X0054269Y-024306D01*
G01X0054462Y-026359D02*
G01X0054331Y-026172D01*
G01X0054237Y-026359D02*
G01X0054237Y-025966D01*
G01X0054237Y-025966D02*
G01X0054387Y-025966D01*
G01X0054387Y-025966D02*
G01X0054424Y-025984D01*
G01X0054424Y-025984D02*
G01X0054443Y-026003D01*
G01X0054443Y-026003D02*
G01X0054462Y-026040D01*
G01X0054462Y-026040D02*
G01X0054462Y-026097D01*
G01X0054462Y-026097D02*
G01X0054443Y-026134D01*
G01X0054443Y-026134D02*
G01X0054424Y-026153D01*
G01X0054424Y-026153D02*
G01X0054387Y-026172D01*
G01X0054387Y-026172D02*
G01X0054237Y-026172D01*
G01X0054837Y-026359D02*
G01X0054612Y-026359D01*
G01X0054724Y-026359D02*
G01X0054724Y-025966D01*
G01X0054724Y-025966D02*
G01X0054687Y-026022D01*
G01X0054687Y-026022D02*
G01X0054649Y-026059D01*
G01X0054649Y-026059D02*
G01X0054612Y-026078D01*
G01X0042702Y-024509D02*
G01X0042702Y-024115D01*
G01X0042702Y-024115D02*
G01X0042852Y-024115D01*
G01X0042852Y-024115D02*
G01X0042889Y-024134D01*
G01X0042889Y-024134D02*
G01X0042908Y-024153D01*
G01X0042908Y-024153D02*
G01X0042927Y-024190D01*
G01X0042927Y-024190D02*
G01X0042927Y-024246D01*
G01X0042927Y-024246D02*
G01X0042908Y-024284D01*
G01X0042908Y-024284D02*
G01X0042889Y-024303D01*
G01X0042889Y-024303D02*
G01X0042852Y-024321D01*
G01X0042852Y-024321D02*
G01X0042702Y-024321D01*
G01X0043076Y-024153D02*
G01X0043095Y-024134D01*
G01X0043095Y-024134D02*
G01X0043133Y-024115D01*
G01X0043133Y-024115D02*
G01X0043226Y-024115D01*
G01X0043226Y-024115D02*
G01X0043264Y-024134D01*
G01X0043264Y-024134D02*
G01X0043283Y-024153D01*
G01X0043283Y-024153D02*
G01X0043301Y-024190D01*
G01X0043301Y-024190D02*
G01X0043301Y-024228D01*
G01X0043301Y-024228D02*
G01X0043283Y-024284D01*
G01X0043283Y-024284D02*
G01X0043058Y-024509D01*
G01X0043058Y-024509D02*
G01X0043301Y-024509D01*
G01X0042702Y-028367D02*
G01X0042702Y-027973D01*
G01X0042702Y-027973D02*
G01X0042852Y-027973D01*
G01X0042852Y-027973D02*
G01X0042889Y-027992D01*
G01X0042889Y-027992D02*
G01X0042908Y-028011D01*
G01X0042908Y-028011D02*
G01X0042927Y-028048D01*
G01X0042927Y-028048D02*
G01X0042927Y-028105D01*
G01X0042927Y-028105D02*
G01X0042908Y-028142D01*
G01X0042908Y-028142D02*
G01X0042889Y-028161D01*
G01X0042889Y-028161D02*
G01X0042852Y-028180D01*
G01X0042852Y-028180D02*
G01X0042702Y-028180D01*
G01X0043058Y-027973D02*
G01X0043301Y-027973D01*
G01X0043301Y-027973D02*
G01X0043170Y-028123D01*
G01X0043170Y-028123D02*
G01X0043226Y-028123D01*
G01X0043226Y-028123D02*
G01X0043264Y-028142D01*
G01X0043264Y-028142D02*
G01X0043283Y-028161D01*
G01X0043283Y-028161D02*
G01X0043301Y-028198D01*
G01X0043301Y-028198D02*
G01X0043301Y-028292D01*
G01X0043301Y-028292D02*
G01X0043283Y-028330D01*
G01X0043283Y-028330D02*
G01X0043264Y-028348D01*
G01X0043264Y-028348D02*
G01X0043226Y-028367D01*
G01X0043226Y-028367D02*
G01X0043114Y-028367D01*
G01X0043114Y-028367D02*
G01X0043076Y-028348D01*
G01X0043076Y-028348D02*
G01X0043058Y-028330D01*
G01X0047249Y-023406D02*
G01X0047249Y-023013D01*
G01X0047249Y-023013D02*
G01X0047399Y-023013D01*
G01X0047399Y-023013D02*
G01X0047436Y-023031D01*
G01X0047436Y-023031D02*
G01X0047455Y-023050D01*
G01X0047455Y-023050D02*
G01X0047474Y-023088D01*
G01X0047474Y-023088D02*
G01X0047474Y-023144D01*
G01X0047474Y-023144D02*
G01X0047455Y-023181D01*
G01X0047455Y-023181D02*
G01X0047436Y-023200D01*
G01X0047436Y-023200D02*
G01X0047399Y-023219D01*
G01X0047399Y-023219D02*
G01X0047249Y-023219D01*
G01X0047830Y-023013D02*
G01X0047642Y-023013D01*
G01X0047642Y-023013D02*
G01X0047624Y-023200D01*
G01X0047624Y-023200D02*
G01X0047642Y-023181D01*
G01X0047642Y-023181D02*
G01X0047680Y-023163D01*
G01X0047680Y-023163D02*
G01X0047774Y-023163D01*
G01X0047774Y-023163D02*
G01X0047811Y-023181D01*
G01X0047811Y-023181D02*
G01X0047830Y-023200D01*
G01X0047830Y-023200D02*
G01X0047849Y-023238D01*
G01X0047849Y-023238D02*
G01X0047849Y-023331D01*
G01X0047849Y-023331D02*
G01X0047830Y-023369D01*
G01X0047830Y-023369D02*
G01X0047811Y-023388D01*
G01X0047811Y-023388D02*
G01X0047774Y-023406D01*
G01X0047774Y-023406D02*
G01X0047680Y-023406D01*
G01X0047680Y-023406D02*
G01X0047642Y-023388D01*
G01X0047642Y-023388D02*
G01X0047624Y-023369D01*
G01X0053450Y-023406D02*
G01X0053450Y-023013D01*
G01X0053450Y-023013D02*
G01X0053600Y-023013D01*
G01X0053600Y-023013D02*
G01X0053637Y-023031D01*
G01X0053637Y-023031D02*
G01X0053656Y-023050D01*
G01X0053656Y-023050D02*
G01X0053675Y-023088D01*
G01X0053675Y-023088D02*
G01X0053675Y-023144D01*
G01X0053675Y-023144D02*
G01X0053656Y-023181D01*
G01X0053656Y-023181D02*
G01X0053637Y-023200D01*
G01X0053637Y-023200D02*
G01X0053600Y-023219D01*
G01X0053600Y-023219D02*
G01X0053450Y-023219D01*
G01X0053900Y-023181D02*
G01X0053862Y-023163D01*
G01X0053862Y-023163D02*
G01X0053843Y-023144D01*
G01X0053843Y-023144D02*
G01X0053825Y-023106D01*
G01X0053825Y-023106D02*
G01X0053825Y-023088D01*
G01X0053825Y-023088D02*
G01X0053843Y-023050D01*
G01X0053843Y-023050D02*
G01X0053862Y-023031D01*
G01X0053862Y-023031D02*
G01X0053900Y-023013D01*
G01X0053900Y-023013D02*
G01X0053975Y-023013D01*
G01X0053975Y-023013D02*
G01X0054012Y-023031D01*
G01X0054012Y-023031D02*
G01X0054031Y-023050D01*
G01X0054031Y-023050D02*
G01X0054049Y-023088D01*
G01X0054049Y-023088D02*
G01X0054049Y-023106D01*
G01X0054049Y-023106D02*
G01X0054031Y-023144D01*
G01X0054031Y-023144D02*
G01X0054012Y-023163D01*
G01X0054012Y-023163D02*
G01X0053975Y-023181D01*
G01X0053975Y-023181D02*
G01X0053900Y-023181D01*
G01X0053900Y-023181D02*
G01X0053862Y-023200D01*
G01X0053862Y-023200D02*
G01X0053843Y-023219D01*
G01X0053843Y-023219D02*
G01X0053825Y-023256D01*
G01X0053825Y-023256D02*
G01X0053825Y-023331D01*
G01X0053825Y-023331D02*
G01X0053843Y-023369D01*
G01X0053843Y-023369D02*
G01X0053862Y-023388D01*
G01X0053862Y-023388D02*
G01X0053900Y-023406D01*
G01X0053900Y-023406D02*
G01X0053975Y-023406D01*
G01X0053975Y-023406D02*
G01X0054012Y-023388D01*
G01X0054012Y-023388D02*
G01X0054031Y-023369D01*
G01X0054031Y-023369D02*
G01X0054049Y-023331D01*
G01X0054049Y-023331D02*
G01X0054049Y-023256D01*
G01X0054049Y-023256D02*
G01X0054031Y-023219D01*
G01X0054031Y-023219D02*
G01X0054012Y-023200D01*
G01X0054012Y-023200D02*
G01X0053975Y-023181D01*
G01X0057997Y-029253D02*
G01X0057997Y-028859D01*
G01X0057997Y-028859D02*
G01X0058147Y-028859D01*
G01X0058147Y-028859D02*
G01X0058184Y-028878D01*
G01X0058184Y-028878D02*
G01X0058203Y-028897D01*
G01X0058203Y-028897D02*
G01X0058222Y-028934D01*
G01X0058222Y-028934D02*
G01X0058222Y-028990D01*
G01X0058222Y-028990D02*
G01X0058203Y-029028D01*
G01X0058203Y-029028D02*
G01X0058184Y-029047D01*
G01X0058184Y-029047D02*
G01X0058147Y-029065D01*
G01X0058147Y-029065D02*
G01X0057997Y-029065D01*
G01X0058409Y-029253D02*
G01X0058484Y-029253D01*
G01X0058484Y-029253D02*
G01X0058522Y-029234D01*
G01X0058522Y-029234D02*
G01X0058540Y-029215D01*
G01X0058540Y-029215D02*
G01X0058578Y-029159D01*
G01X0058578Y-029159D02*
G01X0058597Y-029084D01*
G01X0058597Y-029084D02*
G01X0058597Y-028934D01*
G01X0058597Y-028934D02*
G01X0058578Y-028897D01*
G01X0058578Y-028897D02*
G01X0058559Y-028878D01*
G01X0058559Y-028878D02*
G01X0058522Y-028859D01*
G01X0058522Y-028859D02*
G01X0058447Y-028859D01*
G01X0058447Y-028859D02*
G01X0058409Y-028878D01*
G01X0058409Y-028878D02*
G01X0058391Y-028897D01*
G01X0058391Y-028897D02*
G01X0058372Y-028934D01*
G01X0058372Y-028934D02*
G01X0058372Y-029028D01*
G01X0058372Y-029028D02*
G01X0058391Y-029065D01*
G01X0058391Y-029065D02*
G01X0058409Y-029084D01*
G01X0058409Y-029084D02*
G01X0058447Y-029103D01*
G01X0058447Y-029103D02*
G01X0058522Y-029103D01*
G01X0058522Y-029103D02*
G01X0058559Y-029084D01*
G01X0058559Y-029084D02*
G01X0058578Y-029065D01*
G01X0058578Y-029065D02*
G01X0058597Y-029028D01*
G01X0073297Y-029312D02*
G01X0073297Y-028918D01*
G01X0073709Y-029274D02*
G01X0073690Y-029293D01*
G01X0073690Y-029293D02*
G01X0073634Y-029312D01*
G01X0073634Y-029312D02*
G01X0073597Y-029312D01*
G01X0073597Y-029312D02*
G01X0073540Y-029293D01*
G01X0073540Y-029293D02*
G01X0073503Y-029256D01*
G01X0073503Y-029256D02*
G01X0073484Y-029218D01*
G01X0073484Y-029218D02*
G01X0073466Y-029143D01*
G01X0073466Y-029143D02*
G01X0073466Y-029087D01*
G01X0073466Y-029087D02*
G01X0073484Y-029012D01*
G01X0073484Y-029012D02*
G01X0073503Y-028975D01*
G01X0073503Y-028975D02*
G01X0073540Y-028937D01*
G01X0073540Y-028937D02*
G01X0073597Y-028918D01*
G01X0073597Y-028918D02*
G01X0073634Y-028918D01*
G01X0073634Y-028918D02*
G01X0073690Y-028937D01*
G01X0073690Y-028937D02*
G01X0073709Y-028956D01*
G01X0074084Y-029312D02*
G01X0073859Y-029312D01*
G01X0073972Y-029312D02*
G01X0073972Y-028918D01*
G01X0073972Y-028918D02*
G01X0073934Y-028975D01*
G01X0073934Y-028975D02*
G01X0073897Y-029012D01*
G01X0073897Y-029012D02*
G01X0073859Y-029031D01*
G01X0069847Y-033840D02*
G01X0069847Y-033446D01*
G01X0069847Y-033446D02*
G01X0069997Y-033446D01*
G01X0069997Y-033446D02*
G01X0070035Y-033465D01*
G01X0070035Y-033465D02*
G01X0070053Y-033483D01*
G01X0070053Y-033483D02*
G01X0070072Y-033521D01*
G01X0070072Y-033521D02*
G01X0070072Y-033577D01*
G01X0070072Y-033577D02*
G01X0070053Y-033615D01*
G01X0070053Y-033615D02*
G01X0070035Y-033633D01*
G01X0070035Y-033633D02*
G01X0069997Y-033652D01*
G01X0069997Y-033652D02*
G01X0069847Y-033652D01*
G01X0070260Y-033840D02*
G01X0070335Y-033840D01*
G01X0070335Y-033840D02*
G01X0070372Y-033821D01*
G01X0070372Y-033821D02*
G01X0070391Y-033802D01*
G01X0070391Y-033802D02*
G01X0070428Y-033746D01*
G01X0070428Y-033746D02*
G01X0070447Y-033671D01*
G01X0070447Y-033671D02*
G01X0070447Y-033521D01*
G01X0070447Y-033521D02*
G01X0070428Y-033483D01*
G01X0070428Y-033483D02*
G01X0070410Y-033465D01*
G01X0070410Y-033465D02*
G01X0070372Y-033446D01*
G01X0070372Y-033446D02*
G01X0070297Y-033446D01*
G01X0070297Y-033446D02*
G01X0070260Y-033465D01*
G01X0070260Y-033465D02*
G01X0070241Y-033483D01*
G01X0070241Y-033483D02*
G01X0070222Y-033521D01*
G01X0070222Y-033521D02*
G01X0070222Y-033615D01*
G01X0070222Y-033615D02*
G01X0070241Y-033652D01*
G01X0070241Y-033652D02*
G01X0070260Y-033671D01*
G01X0070260Y-033671D02*
G01X0070297Y-033690D01*
G01X0070297Y-033690D02*
G01X0070372Y-033690D01*
G01X0070372Y-033690D02*
G01X0070410Y-033671D01*
G01X0070410Y-033671D02*
G01X0070428Y-033652D01*
G01X0070428Y-033652D02*
G01X0070447Y-033615D01*
G01X0070545Y-024865D02*
G01X0070526Y-024884D01*
G01X0070526Y-024884D02*
G01X0070470Y-024903D01*
G01X0070470Y-024903D02*
G01X0070432Y-024903D01*
G01X0070432Y-024903D02*
G01X0070376Y-024884D01*
G01X0070376Y-024884D02*
G01X0070338Y-024846D01*
G01X0070338Y-024846D02*
G01X0070320Y-024809D01*
G01X0070320Y-024809D02*
G01X0070301Y-024734D01*
G01X0070301Y-024734D02*
G01X0070301Y-024678D01*
G01X0070301Y-024678D02*
G01X0070320Y-024603D01*
G01X0070320Y-024603D02*
G01X0070338Y-024565D01*
G01X0070338Y-024565D02*
G01X0070376Y-024528D01*
G01X0070376Y-024528D02*
G01X0070432Y-024509D01*
G01X0070432Y-024509D02*
G01X0070470Y-024509D01*
G01X0070470Y-024509D02*
G01X0070526Y-024528D01*
G01X0070526Y-024528D02*
G01X0070545Y-024546D01*
G01X0070901Y-024509D02*
G01X0070713Y-024509D01*
G01X0070713Y-024509D02*
G01X0070695Y-024696D01*
G01X0070695Y-024696D02*
G01X0070713Y-024678D01*
G01X0070713Y-024678D02*
G01X0070751Y-024659D01*
G01X0070751Y-024659D02*
G01X0070845Y-024659D01*
G01X0070845Y-024659D02*
G01X0070882Y-024678D01*
G01X0070882Y-024678D02*
G01X0070901Y-024696D01*
G01X0070901Y-024696D02*
G01X0070920Y-024734D01*
G01X0070920Y-024734D02*
G01X0070920Y-024828D01*
G01X0070920Y-024828D02*
G01X0070901Y-024865D01*
G01X0070901Y-024865D02*
G01X0070882Y-024884D01*
G01X0070882Y-024884D02*
G01X0070845Y-024903D01*
G01X0070845Y-024903D02*
G01X0070751Y-024903D01*
G01X0070751Y-024903D02*
G01X0070713Y-024884D01*
G01X0070713Y-024884D02*
G01X0070695Y-024865D01*
G01X0067430Y-024698D02*
G01X0067430Y-024304D01*
G01X0067430Y-024304D02*
G01X0067524Y-024304D01*
G01X0067524Y-024304D02*
G01X0067580Y-024323D01*
G01X0067580Y-024323D02*
G01X0067617Y-024360D01*
G01X0067617Y-024360D02*
G01X0067636Y-024398D01*
G01X0067636Y-024398D02*
G01X0067655Y-024473D01*
G01X0067655Y-024473D02*
G01X0067655Y-024529D01*
G01X0067655Y-024529D02*
G01X0067636Y-024604D01*
G01X0067636Y-024604D02*
G01X0067617Y-024642D01*
G01X0067617Y-024642D02*
G01X0067580Y-024679D01*
G01X0067580Y-024679D02*
G01X0067524Y-024698D01*
G01X0067524Y-024698D02*
G01X0067430Y-024698D01*
G01X0068030Y-024698D02*
G01X0067805Y-024698D01*
G01X0067917Y-024698D02*
G01X0067917Y-024304D01*
G01X0067917Y-024304D02*
G01X0067880Y-024360D01*
G01X0067880Y-024360D02*
G01X0067842Y-024398D01*
G01X0067842Y-024398D02*
G01X0067805Y-024417D01*
G01X0067430Y-025682D02*
G01X0067430Y-025288D01*
G01X0067430Y-025288D02*
G01X0067524Y-025288D01*
G01X0067524Y-025288D02*
G01X0067580Y-025307D01*
G01X0067580Y-025307D02*
G01X0067617Y-025345D01*
G01X0067617Y-025345D02*
G01X0067636Y-025382D01*
G01X0067636Y-025382D02*
G01X0067655Y-025457D01*
G01X0067655Y-025457D02*
G01X0067655Y-025513D01*
G01X0067655Y-025513D02*
G01X0067636Y-025588D01*
G01X0067636Y-025588D02*
G01X0067617Y-025626D01*
G01X0067617Y-025626D02*
G01X0067580Y-025663D01*
G01X0067580Y-025663D02*
G01X0067524Y-025682D01*
G01X0067524Y-025682D02*
G01X0067430Y-025682D01*
G01X0067805Y-025326D02*
G01X0067824Y-025307D01*
G01X0067824Y-025307D02*
G01X0067861Y-025288D01*
G01X0067861Y-025288D02*
G01X0067955Y-025288D01*
G01X0067955Y-025288D02*
G01X0067992Y-025307D01*
G01X0067992Y-025307D02*
G01X0068011Y-025326D01*
G01X0068011Y-025326D02*
G01X0068030Y-025363D01*
G01X0068030Y-025363D02*
G01X0068030Y-025401D01*
G01X0068030Y-025401D02*
G01X0068011Y-025457D01*
G01X0068011Y-025457D02*
G01X0067786Y-025682D01*
G01X0067786Y-025682D02*
G01X0068030Y-025682D01*
G01X0064930Y-028044D02*
G01X0064930Y-027651D01*
G01X0064930Y-027651D02*
G01X0065024Y-027651D01*
G01X0065024Y-027651D02*
G01X0065080Y-027669D01*
G01X0065080Y-027669D02*
G01X0065117Y-027707D01*
G01X0065117Y-027707D02*
G01X0065136Y-027744D01*
G01X0065136Y-027744D02*
G01X0065155Y-027819D01*
G01X0065155Y-027819D02*
G01X0065155Y-027876D01*
G01X0065155Y-027876D02*
G01X0065136Y-027951D01*
G01X0065136Y-027951D02*
G01X0065117Y-027988D01*
G01X0065117Y-027988D02*
G01X0065080Y-028025D01*
G01X0065080Y-028025D02*
G01X0065024Y-028044D01*
G01X0065024Y-028044D02*
G01X0064930Y-028044D01*
G01X0065286Y-027651D02*
G01X0065530Y-027651D01*
G01X0065530Y-027651D02*
G01X0065399Y-027801D01*
G01X0065399Y-027801D02*
G01X0065455Y-027801D01*
G01X0065455Y-027801D02*
G01X0065492Y-027819D01*
G01X0065492Y-027819D02*
G01X0065511Y-027838D01*
G01X0065511Y-027838D02*
G01X0065530Y-027876D01*
G01X0065530Y-027876D02*
G01X0065530Y-027969D01*
G01X0065530Y-027969D02*
G01X0065511Y-028007D01*
G01X0065511Y-028007D02*
G01X0065492Y-028025D01*
G01X0065492Y-028025D02*
G01X0065455Y-028044D01*
G01X0065455Y-028044D02*
G01X0065342Y-028044D01*
G01X0065342Y-028044D02*
G01X0065305Y-028025D01*
G01X0065305Y-028025D02*
G01X0065286Y-028007D01*
G01X0064123Y-035367D02*
G01X0064123Y-034973D01*
G01X0064123Y-034973D02*
G01X0064217Y-034973D01*
G01X0064217Y-034973D02*
G01X0064273Y-034992D01*
G01X0064273Y-034992D02*
G01X0064310Y-035030D01*
G01X0064310Y-035030D02*
G01X0064329Y-035067D01*
G01X0064329Y-035067D02*
G01X0064348Y-035142D01*
G01X0064348Y-035142D02*
G01X0064348Y-035198D01*
G01X0064348Y-035198D02*
G01X0064329Y-035273D01*
G01X0064329Y-035273D02*
G01X0064310Y-035311D01*
G01X0064310Y-035311D02*
G01X0064273Y-035348D01*
G01X0064273Y-035348D02*
G01X0064217Y-035367D01*
G01X0064217Y-035367D02*
G01X0064123Y-035367D01*
G01X0064685Y-035105D02*
G01X0064685Y-035367D01*
G01X0064591Y-034955D02*
G01X0064498Y-035236D01*
G01X0064498Y-035236D02*
G01X0064741Y-035236D01*
G01X0064123Y-033005D02*
G01X0064123Y-032611D01*
G01X0064123Y-032611D02*
G01X0064217Y-032611D01*
G01X0064217Y-032611D02*
G01X0064273Y-032630D01*
G01X0064273Y-032630D02*
G01X0064310Y-032667D01*
G01X0064310Y-032667D02*
G01X0064329Y-032705D01*
G01X0064329Y-032705D02*
G01X0064348Y-032780D01*
G01X0064348Y-032780D02*
G01X0064348Y-032836D01*
G01X0064348Y-032836D02*
G01X0064329Y-032911D01*
G01X0064329Y-032911D02*
G01X0064310Y-032949D01*
G01X0064310Y-032949D02*
G01X0064273Y-032986D01*
G01X0064273Y-032986D02*
G01X0064217Y-033005D01*
G01X0064217Y-033005D02*
G01X0064123Y-033005D01*
G01X0064704Y-032611D02*
G01X0064516Y-032611D01*
G01X0064516Y-032611D02*
G01X0064498Y-032799D01*
G01X0064498Y-032799D02*
G01X0064516Y-032780D01*
G01X0064516Y-032780D02*
G01X0064554Y-032761D01*
G01X0064554Y-032761D02*
G01X0064648Y-032761D01*
G01X0064648Y-032761D02*
G01X0064685Y-032780D01*
G01X0064685Y-032780D02*
G01X0064704Y-032799D01*
G01X0064704Y-032799D02*
G01X0064723Y-032836D01*
G01X0064723Y-032836D02*
G01X0064723Y-032930D01*
G01X0064723Y-032930D02*
G01X0064704Y-032967D01*
G01X0064704Y-032967D02*
G01X0064685Y-032986D01*
G01X0064685Y-032986D02*
G01X0064648Y-033005D01*
G01X0064648Y-033005D02*
G01X0064554Y-033005D01*
G01X0064554Y-033005D02*
G01X0064516Y-032986D01*
G01X0064516Y-032986D02*
G01X0064498Y-032967D01*
G01X0064123Y-034186D02*
G01X0064123Y-033792D01*
G01X0064123Y-033792D02*
G01X0064217Y-033792D01*
G01X0064217Y-033792D02*
G01X0064273Y-033811D01*
G01X0064273Y-033811D02*
G01X0064310Y-033849D01*
G01X0064310Y-033849D02*
G01X0064329Y-033886D01*
G01X0064329Y-033886D02*
G01X0064348Y-033961D01*
G01X0064348Y-033961D02*
G01X0064348Y-034017D01*
G01X0064348Y-034017D02*
G01X0064329Y-034092D01*
G01X0064329Y-034092D02*
G01X0064310Y-034130D01*
G01X0064310Y-034130D02*
G01X0064273Y-034167D01*
G01X0064273Y-034167D02*
G01X0064217Y-034186D01*
G01X0064217Y-034186D02*
G01X0064123Y-034186D01*
G01X0064685Y-033792D02*
G01X0064610Y-033792D01*
G01X0064610Y-033792D02*
G01X0064573Y-033811D01*
G01X0064573Y-033811D02*
G01X0064554Y-033830D01*
G01X0064554Y-033830D02*
G01X0064516Y-033886D01*
G01X0064516Y-033886D02*
G01X0064498Y-033961D01*
G01X0064498Y-033961D02*
G01X0064498Y-034111D01*
G01X0064498Y-034111D02*
G01X0064516Y-034148D01*
G01X0064516Y-034148D02*
G01X0064535Y-034167D01*
G01X0064535Y-034167D02*
G01X0064573Y-034186D01*
G01X0064573Y-034186D02*
G01X0064648Y-034186D01*
G01X0064648Y-034186D02*
G01X0064685Y-034167D01*
G01X0064685Y-034167D02*
G01X0064704Y-034148D01*
G01X0064704Y-034148D02*
G01X0064723Y-034111D01*
G01X0064723Y-034111D02*
G01X0064723Y-034017D01*
G01X0064723Y-034017D02*
G01X0064704Y-033980D01*
G01X0064704Y-033980D02*
G01X0064685Y-033961D01*
G01X0064685Y-033961D02*
G01X0064648Y-033942D01*
G01X0064648Y-033942D02*
G01X0064573Y-033942D01*
G01X0064573Y-033942D02*
G01X0064535Y-033961D01*
G01X0064535Y-033961D02*
G01X0064516Y-033980D01*
G01X0064516Y-033980D02*
G01X0064498Y-034017D01*
G01X0061579Y-022304D02*
G01X0061579Y-021910D01*
G01X0061579Y-021910D02*
G01X0061729Y-021910D01*
G01X0061729Y-021910D02*
G01X0061767Y-021929D01*
G01X0061767Y-021929D02*
G01X0061786Y-021948D01*
G01X0061786Y-021948D02*
G01X0061804Y-021985D01*
G01X0061804Y-021985D02*
G01X0061804Y-022042D01*
G01X0061804Y-022042D02*
G01X0061786Y-022079D01*
G01X0061786Y-022079D02*
G01X0061767Y-022098D01*
G01X0061767Y-022098D02*
G01X0061729Y-022117D01*
G01X0061729Y-022117D02*
G01X0061579Y-022117D01*
G01X0062179Y-022304D02*
G01X0061954Y-022304D01*
G01X0062067Y-022304D02*
G01X0062067Y-021910D01*
G01X0062067Y-021910D02*
G01X0062029Y-021967D01*
G01X0062029Y-021967D02*
G01X0061992Y-022004D01*
G01X0061992Y-022004D02*
G01X0061954Y-022023D01*
G01X0061894Y-030808D02*
G01X0061894Y-030414D01*
G01X0061894Y-030414D02*
G01X0062044Y-030414D01*
G01X0062044Y-030414D02*
G01X0062082Y-030433D01*
G01X0062082Y-030433D02*
G01X0062101Y-030452D01*
G01X0062101Y-030452D02*
G01X0062119Y-030489D01*
G01X0062119Y-030489D02*
G01X0062119Y-030546D01*
G01X0062119Y-030546D02*
G01X0062101Y-030583D01*
G01X0062101Y-030583D02*
G01X0062082Y-030602D01*
G01X0062082Y-030602D02*
G01X0062044Y-030621D01*
G01X0062044Y-030621D02*
G01X0061894Y-030621D01*
G01X0062269Y-030452D02*
G01X0062288Y-030433D01*
G01X0062288Y-030433D02*
G01X0062326Y-030414D01*
G01X0062326Y-030414D02*
G01X0062419Y-030414D01*
G01X0062419Y-030414D02*
G01X0062457Y-030433D01*
G01X0062457Y-030433D02*
G01X0062476Y-030452D01*
G01X0062476Y-030452D02*
G01X0062494Y-030489D01*
G01X0062494Y-030489D02*
G01X0062494Y-030527D01*
G01X0062494Y-030527D02*
G01X0062476Y-030583D01*
G01X0062476Y-030583D02*
G01X0062251Y-030808D01*
G01X0062251Y-030808D02*
G01X0062494Y-030808D01*
G01X0075753Y-022304D02*
G01X0075753Y-021910D01*
G01X0075753Y-021910D02*
G01X0075903Y-021910D01*
G01X0075903Y-021910D02*
G01X0075940Y-021929D01*
G01X0075940Y-021929D02*
G01X0075959Y-021948D01*
G01X0075959Y-021948D02*
G01X0075978Y-021985D01*
G01X0075978Y-021985D02*
G01X0075978Y-022042D01*
G01X0075978Y-022042D02*
G01X0075959Y-022079D01*
G01X0075959Y-022079D02*
G01X0075940Y-022098D01*
G01X0075940Y-022098D02*
G01X0075903Y-022117D01*
G01X0075903Y-022117D02*
G01X0075753Y-022117D01*
G01X0076109Y-021910D02*
G01X0076353Y-021910D01*
G01X0076353Y-021910D02*
G01X0076221Y-022060D01*
G01X0076221Y-022060D02*
G01X0076278Y-022060D01*
G01X0076278Y-022060D02*
G01X0076315Y-022079D01*
G01X0076315Y-022079D02*
G01X0076334Y-022098D01*
G01X0076334Y-022098D02*
G01X0076353Y-022135D01*
G01X0076353Y-022135D02*
G01X0076353Y-022229D01*
G01X0076353Y-022229D02*
G01X0076334Y-022267D01*
G01X0076334Y-022267D02*
G01X0076315Y-022285D01*
G01X0076315Y-022285D02*
G01X0076278Y-022304D01*
G01X0076278Y-022304D02*
G01X0076165Y-022304D01*
G01X0076165Y-022304D02*
G01X0076128Y-022285D01*
G01X0076128Y-022285D02*
G01X0076109Y-022267D01*
G01X0075280Y-031202D02*
G01X0075280Y-030808D01*
G01X0075280Y-030808D02*
G01X0075430Y-030808D01*
G01X0075430Y-030808D02*
G01X0075468Y-030827D01*
G01X0075468Y-030827D02*
G01X0075487Y-030846D01*
G01X0075487Y-030846D02*
G01X0075505Y-030883D01*
G01X0075505Y-030883D02*
G01X0075505Y-030939D01*
G01X0075505Y-030939D02*
G01X0075487Y-030977D01*
G01X0075487Y-030977D02*
G01X0075468Y-030996D01*
G01X0075468Y-030996D02*
G01X0075430Y-031014D01*
G01X0075430Y-031014D02*
G01X0075280Y-031014D01*
G01X0075843Y-030939D02*
G01X0075843Y-031202D01*
G01X0075749Y-030789D02*
G01X0075655Y-031070D01*
G01X0075655Y-031070D02*
G01X0075899Y-031070D01*
G01X0074729Y-022139D02*
G01X0074729Y-021745D01*
G01X0074729Y-021745D02*
G01X0074879Y-021745D01*
G01X0074879Y-021745D02*
G01X0074917Y-021764D01*
G01X0074917Y-021764D02*
G01X0074935Y-021783D01*
G01X0074935Y-021783D02*
G01X0074954Y-021820D01*
G01X0074954Y-021820D02*
G01X0074954Y-021876D01*
G01X0074954Y-021876D02*
G01X0074935Y-021914D01*
G01X0074935Y-021914D02*
G01X0074917Y-021933D01*
G01X0074917Y-021933D02*
G01X0074879Y-021951D01*
G01X0074879Y-021951D02*
G01X0074729Y-021951D01*
G01X0075310Y-021745D02*
G01X0075123Y-021745D01*
G01X0075123Y-021745D02*
G01X0075104Y-021933D01*
G01X0075104Y-021933D02*
G01X0075123Y-021914D01*
G01X0075123Y-021914D02*
G01X0075160Y-021895D01*
G01X0075160Y-021895D02*
G01X0075254Y-021895D01*
G01X0075254Y-021895D02*
G01X0075292Y-021914D01*
G01X0075292Y-021914D02*
G01X0075310Y-021933D01*
G01X0075310Y-021933D02*
G01X0075329Y-021970D01*
G01X0075329Y-021970D02*
G01X0075329Y-022064D01*
G01X0075329Y-022064D02*
G01X0075310Y-022101D01*
G01X0075310Y-022101D02*
G01X0075292Y-022120D01*
G01X0075292Y-022120D02*
G01X0075254Y-022139D01*
G01X0075254Y-022139D02*
G01X0075160Y-022139D01*
G01X0075160Y-022139D02*
G01X0075123Y-022120D01*
G01X0075123Y-022120D02*
G01X0075104Y-022101D01*
G01X0069847Y-036989D02*
G01X0069847Y-036595D01*
G01X0069847Y-036595D02*
G01X0069997Y-036595D01*
G01X0069997Y-036595D02*
G01X0070035Y-036614D01*
G01X0070035Y-036614D02*
G01X0070053Y-036633D01*
G01X0070053Y-036633D02*
G01X0070072Y-036670D01*
G01X0070072Y-036670D02*
G01X0070072Y-036727D01*
G01X0070072Y-036727D02*
G01X0070053Y-036764D01*
G01X0070053Y-036764D02*
G01X0070035Y-036783D01*
G01X0070035Y-036783D02*
G01X0069997Y-036802D01*
G01X0069997Y-036802D02*
G01X0069847Y-036802D01*
G01X0070410Y-036595D02*
G01X0070335Y-036595D01*
G01X0070335Y-036595D02*
G01X0070297Y-036614D01*
G01X0070297Y-036614D02*
G01X0070278Y-036633D01*
G01X0070278Y-036633D02*
G01X0070241Y-036689D01*
G01X0070241Y-036689D02*
G01X0070222Y-036764D01*
G01X0070222Y-036764D02*
G01X0070222Y-036914D01*
G01X0070222Y-036914D02*
G01X0070241Y-036952D01*
G01X0070241Y-036952D02*
G01X0070260Y-036970D01*
G01X0070260Y-036970D02*
G01X0070297Y-036989D01*
G01X0070297Y-036989D02*
G01X0070372Y-036989D01*
G01X0070372Y-036989D02*
G01X0070410Y-036970D01*
G01X0070410Y-036970D02*
G01X0070428Y-036952D01*
G01X0070428Y-036952D02*
G01X0070447Y-036914D01*
G01X0070447Y-036914D02*
G01X0070447Y-036820D01*
G01X0070447Y-036820D02*
G01X0070428Y-036783D01*
G01X0070428Y-036783D02*
G01X0070410Y-036764D01*
G01X0070410Y-036764D02*
G01X0070372Y-036745D01*
G01X0070372Y-036745D02*
G01X0070297Y-036745D01*
G01X0070297Y-036745D02*
G01X0070260Y-036764D01*
G01X0070260Y-036764D02*
G01X0070241Y-036783D01*
G01X0070241Y-036783D02*
G01X0070222Y-036820D01*
G01X0063312Y-021942D02*
G01X0063312Y-021548D01*
G01X0063312Y-021548D02*
G01X0063462Y-021548D01*
G01X0063462Y-021548D02*
G01X0063499Y-021567D01*
G01X0063499Y-021567D02*
G01X0063518Y-021586D01*
G01X0063518Y-021586D02*
G01X0063537Y-021623D01*
G01X0063537Y-021623D02*
G01X0063537Y-021679D01*
G01X0063537Y-021679D02*
G01X0063518Y-021717D01*
G01X0063518Y-021717D02*
G01X0063499Y-021736D01*
G01X0063499Y-021736D02*
G01X0063462Y-021754D01*
G01X0063462Y-021754D02*
G01X0063312Y-021754D01*
G01X0063668Y-021548D02*
G01X0063930Y-021548D01*
G01X0063930Y-021548D02*
G01X0063762Y-021942D01*
G01X0068194Y-021942D02*
G01X0068194Y-021548D01*
G01X0068194Y-021548D02*
G01X0068344Y-021548D01*
G01X0068344Y-021548D02*
G01X0068381Y-021567D01*
G01X0068381Y-021567D02*
G01X0068400Y-021586D01*
G01X0068400Y-021586D02*
G01X0068419Y-021623D01*
G01X0068419Y-021623D02*
G01X0068419Y-021679D01*
G01X0068419Y-021679D02*
G01X0068400Y-021717D01*
G01X0068400Y-021717D02*
G01X0068381Y-021736D01*
G01X0068381Y-021736D02*
G01X0068344Y-021754D01*
G01X0068344Y-021754D02*
G01X0068194Y-021754D01*
G01X0068644Y-021717D02*
G01X0068606Y-021698D01*
G01X0068606Y-021698D02*
G01X0068587Y-021679D01*
G01X0068587Y-021679D02*
G01X0068569Y-021642D01*
G01X0068569Y-021642D02*
G01X0068569Y-021623D01*
G01X0068569Y-021623D02*
G01X0068587Y-021586D01*
G01X0068587Y-021586D02*
G01X0068606Y-021567D01*
G01X0068606Y-021567D02*
G01X0068644Y-021548D01*
G01X0068644Y-021548D02*
G01X0068719Y-021548D01*
G01X0068719Y-021548D02*
G01X0068756Y-021567D01*
G01X0068756Y-021567D02*
G01X0068775Y-021586D01*
G01X0068775Y-021586D02*
G01X0068794Y-021623D01*
G01X0068794Y-021623D02*
G01X0068794Y-021642D01*
G01X0068794Y-021642D02*
G01X0068775Y-021679D01*
G01X0068775Y-021679D02*
G01X0068756Y-021698D01*
G01X0068756Y-021698D02*
G01X0068719Y-021717D01*
G01X0068719Y-021717D02*
G01X0068644Y-021717D01*
G01X0068644Y-021717D02*
G01X0068606Y-021736D01*
G01X0068606Y-021736D02*
G01X0068587Y-021754D01*
G01X0068587Y-021754D02*
G01X0068569Y-021792D01*
G01X0068569Y-021792D02*
G01X0068569Y-021867D01*
G01X0068569Y-021867D02*
G01X0068587Y-021904D01*
G01X0068587Y-021904D02*
G01X0068606Y-021923D01*
G01X0068606Y-021923D02*
G01X0068644Y-021942D01*
G01X0068644Y-021942D02*
G01X0068719Y-021942D01*
G01X0068719Y-021942D02*
G01X0068756Y-021923D01*
G01X0068756Y-021923D02*
G01X0068775Y-021904D01*
G01X0068775Y-021904D02*
G01X0068794Y-021867D01*
G01X0068794Y-021867D02*
G01X0068794Y-021792D01*
G01X0068794Y-021792D02*
G01X0068775Y-021754D01*
G01X0068775Y-021754D02*
G01X0068756Y-021736D01*
G01X0068756Y-021736D02*
G01X0068719Y-021717D01*
G01X0065056Y-024698D02*
G01X0064925Y-024510D01*
G01X0064831Y-024698D02*
G01X0064831Y-024304D01*
G01X0064831Y-024304D02*
G01X0064981Y-024304D01*
G01X0064981Y-024304D02*
G01X0065019Y-024323D01*
G01X0065019Y-024323D02*
G01X0065038Y-024342D01*
G01X0065038Y-024342D02*
G01X0065056Y-024379D01*
G01X0065056Y-024379D02*
G01X0065056Y-024435D01*
G01X0065056Y-024435D02*
G01X0065038Y-024473D01*
G01X0065038Y-024473D02*
G01X0065019Y-024492D01*
G01X0065019Y-024492D02*
G01X0064981Y-024510D01*
G01X0064981Y-024510D02*
G01X0064831Y-024510D01*
G01X0065431Y-024698D02*
G01X0065206Y-024698D01*
G01X0065319Y-024698D02*
G01X0065319Y-024304D01*
G01X0065319Y-024304D02*
G01X0065281Y-024360D01*
G01X0065281Y-024360D02*
G01X0065244Y-024398D01*
G01X0065244Y-024398D02*
G01X0065206Y-024417D01*
G01X0065056Y-025682D02*
G01X0064925Y-025495D01*
G01X0064831Y-025682D02*
G01X0064831Y-025288D01*
G01X0064831Y-025288D02*
G01X0064981Y-025288D01*
G01X0064981Y-025288D02*
G01X0065019Y-025307D01*
G01X0065019Y-025307D02*
G01X0065038Y-025326D01*
G01X0065038Y-025326D02*
G01X0065056Y-025363D01*
G01X0065056Y-025363D02*
G01X0065056Y-025420D01*
G01X0065056Y-025420D02*
G01X0065038Y-025457D01*
G01X0065038Y-025457D02*
G01X0065019Y-025476D01*
G01X0065019Y-025476D02*
G01X0064981Y-025495D01*
G01X0064981Y-025495D02*
G01X0064831Y-025495D01*
G01X0065206Y-025326D02*
G01X0065225Y-025307D01*
G01X0065225Y-025307D02*
G01X0065263Y-025288D01*
G01X0065263Y-025288D02*
G01X0065356Y-025288D01*
G01X0065356Y-025288D02*
G01X0065394Y-025307D01*
G01X0065394Y-025307D02*
G01X0065413Y-025326D01*
G01X0065413Y-025326D02*
G01X0065431Y-025363D01*
G01X0065431Y-025363D02*
G01X0065431Y-025401D01*
G01X0065431Y-025401D02*
G01X0065413Y-025457D01*
G01X0065413Y-025457D02*
G01X0065188Y-025682D01*
G01X0065188Y-025682D02*
G01X0065431Y-025682D01*
G01X0065056Y-026666D02*
G01X0064925Y-026479D01*
G01X0064831Y-026666D02*
G01X0064831Y-026273D01*
G01X0064831Y-026273D02*
G01X0064981Y-026273D01*
G01X0064981Y-026273D02*
G01X0065019Y-026291D01*
G01X0065019Y-026291D02*
G01X0065038Y-026310D01*
G01X0065038Y-026310D02*
G01X0065056Y-026348D01*
G01X0065056Y-026348D02*
G01X0065056Y-026404D01*
G01X0065056Y-026404D02*
G01X0065038Y-026441D01*
G01X0065038Y-026441D02*
G01X0065019Y-026460D01*
G01X0065019Y-026460D02*
G01X0064981Y-026479D01*
G01X0064981Y-026479D02*
G01X0064831Y-026479D01*
G01X0065188Y-026273D02*
G01X0065431Y-026273D01*
G01X0065431Y-026273D02*
G01X0065300Y-026423D01*
G01X0065300Y-026423D02*
G01X0065356Y-026423D01*
G01X0065356Y-026423D02*
G01X0065394Y-026441D01*
G01X0065394Y-026441D02*
G01X0065413Y-026460D01*
G01X0065413Y-026460D02*
G01X0065431Y-026498D01*
G01X0065431Y-026498D02*
G01X0065431Y-026591D01*
G01X0065431Y-026591D02*
G01X0065413Y-026629D01*
G01X0065413Y-026629D02*
G01X0065394Y-026648D01*
G01X0065394Y-026648D02*
G01X0065356Y-026666D01*
G01X0065356Y-026666D02*
G01X0065244Y-026666D01*
G01X0065244Y-026666D02*
G01X0065206Y-026648D01*
G01X0065206Y-026648D02*
G01X0065188Y-026629D01*
G01X0066710Y-035367D02*
G01X0066579Y-035180D01*
G01X0066485Y-035367D02*
G01X0066485Y-034973D01*
G01X0066485Y-034973D02*
G01X0066635Y-034973D01*
G01X0066635Y-034973D02*
G01X0066672Y-034992D01*
G01X0066672Y-034992D02*
G01X0066691Y-035011D01*
G01X0066691Y-035011D02*
G01X0066710Y-035048D01*
G01X0066710Y-035048D02*
G01X0066710Y-035105D01*
G01X0066710Y-035105D02*
G01X0066691Y-035142D01*
G01X0066691Y-035142D02*
G01X0066672Y-035161D01*
G01X0066672Y-035161D02*
G01X0066635Y-035180D01*
G01X0066635Y-035180D02*
G01X0066485Y-035180D01*
G01X0067047Y-035105D02*
G01X0067047Y-035367D01*
G01X0066954Y-034955D02*
G01X0066860Y-035236D01*
G01X0066860Y-035236D02*
G01X0067104Y-035236D01*
G01X0066710Y-033005D02*
G01X0066579Y-032817D01*
G01X0066485Y-033005D02*
G01X0066485Y-032611D01*
G01X0066485Y-032611D02*
G01X0066635Y-032611D01*
G01X0066635Y-032611D02*
G01X0066672Y-032630D01*
G01X0066672Y-032630D02*
G01X0066691Y-032649D01*
G01X0066691Y-032649D02*
G01X0066710Y-032686D01*
G01X0066710Y-032686D02*
G01X0066710Y-032742D01*
G01X0066710Y-032742D02*
G01X0066691Y-032780D01*
G01X0066691Y-032780D02*
G01X0066672Y-032799D01*
G01X0066672Y-032799D02*
G01X0066635Y-032817D01*
G01X0066635Y-032817D02*
G01X0066485Y-032817D01*
G01X0066841Y-032611D02*
G01X0067104Y-032611D01*
G01X0067104Y-032611D02*
G01X0066935Y-033005D01*
G01X0066710Y-034186D02*
G01X0066579Y-033998D01*
G01X0066485Y-034186D02*
G01X0066485Y-033792D01*
G01X0066485Y-033792D02*
G01X0066635Y-033792D01*
G01X0066635Y-033792D02*
G01X0066672Y-033811D01*
G01X0066672Y-033811D02*
G01X0066691Y-033830D01*
G01X0066691Y-033830D02*
G01X0066710Y-033867D01*
G01X0066710Y-033867D02*
G01X0066710Y-033924D01*
G01X0066710Y-033924D02*
G01X0066691Y-033961D01*
G01X0066691Y-033961D02*
G01X0066672Y-033980D01*
G01X0066672Y-033980D02*
G01X0066635Y-033998D01*
G01X0066635Y-033998D02*
G01X0066485Y-033998D01*
G01X0066935Y-033961D02*
G01X0066897Y-033942D01*
G01X0066897Y-033942D02*
G01X0066879Y-033924D01*
G01X0066879Y-033924D02*
G01X0066860Y-033886D01*
G01X0066860Y-033886D02*
G01X0066860Y-033867D01*
G01X0066860Y-033867D02*
G01X0066879Y-033830D01*
G01X0066879Y-033830D02*
G01X0066897Y-033811D01*
G01X0066897Y-033811D02*
G01X0066935Y-033792D01*
G01X0066935Y-033792D02*
G01X0067010Y-033792D01*
G01X0067010Y-033792D02*
G01X0067047Y-033811D01*
G01X0067047Y-033811D02*
G01X0067066Y-033830D01*
G01X0067066Y-033830D02*
G01X0067085Y-033867D01*
G01X0067085Y-033867D02*
G01X0067085Y-033886D01*
G01X0067085Y-033886D02*
G01X0067066Y-033924D01*
G01X0067066Y-033924D02*
G01X0067047Y-033942D01*
G01X0067047Y-033942D02*
G01X0067010Y-033961D01*
G01X0067010Y-033961D02*
G01X0066935Y-033961D01*
G01X0066935Y-033961D02*
G01X0066897Y-033980D01*
G01X0066897Y-033980D02*
G01X0066879Y-033998D01*
G01X0066879Y-033998D02*
G01X0066860Y-034036D01*
G01X0066860Y-034036D02*
G01X0066860Y-034111D01*
G01X0066860Y-034111D02*
G01X0066879Y-034148D01*
G01X0066879Y-034148D02*
G01X0066897Y-034167D01*
G01X0066897Y-034167D02*
G01X0066935Y-034186D01*
G01X0066935Y-034186D02*
G01X0067010Y-034186D01*
G01X0067010Y-034186D02*
G01X0067047Y-034167D01*
G01X0067047Y-034167D02*
G01X0067066Y-034148D01*
G01X0067066Y-034148D02*
G01X0067085Y-034111D01*
G01X0067085Y-034111D02*
G01X0067085Y-034036D01*
G01X0067085Y-034036D02*
G01X0067066Y-033998D01*
G01X0067066Y-033998D02*
G01X0067047Y-033980D01*
G01X0067047Y-033980D02*
G01X0067010Y-033961D01*
G01X0071448Y-028025D02*
G01X0071504Y-028044D01*
G01X0071504Y-028044D02*
G01X0071597Y-028044D01*
G01X0071597Y-028044D02*
G01X0071635Y-028025D01*
G01X0071635Y-028025D02*
G01X0071654Y-028007D01*
G01X0071654Y-028007D02*
G01X0071672Y-027969D01*
G01X0071672Y-027969D02*
G01X0071672Y-027932D01*
G01X0071672Y-027932D02*
G01X0071654Y-027894D01*
G01X0071654Y-027894D02*
G01X0071635Y-027876D01*
G01X0071635Y-027876D02*
G01X0071597Y-027857D01*
G01X0071597Y-027857D02*
G01X0071522Y-027838D01*
G01X0071522Y-027838D02*
G01X0071485Y-027819D01*
G01X0071485Y-027819D02*
G01X0071466Y-027801D01*
G01X0071466Y-027801D02*
G01X0071448Y-027763D01*
G01X0071448Y-027763D02*
G01X0071448Y-027726D01*
G01X0071448Y-027726D02*
G01X0071466Y-027688D01*
G01X0071466Y-027688D02*
G01X0071485Y-027669D01*
G01X0071485Y-027669D02*
G01X0071522Y-027651D01*
G01X0071522Y-027651D02*
G01X0071616Y-027651D01*
G01X0071616Y-027651D02*
G01X0071672Y-027669D01*
G01X0071804Y-027651D02*
G01X0071897Y-028044D01*
G01X0071897Y-028044D02*
G01X0071972Y-027763D01*
G01X0071972Y-027763D02*
G01X0072047Y-028044D01*
G01X0072047Y-028044D02*
G01X0072141Y-027651D01*
G01X0072497Y-028044D02*
G01X0072272Y-028044D01*
G01X0072385Y-028044D02*
G01X0072385Y-027651D01*
G01X0072385Y-027651D02*
G01X0072347Y-027707D01*
G01X0072347Y-027707D02*
G01X0072310Y-027744D01*
G01X0072310Y-027744D02*
G01X0072272Y-027763D01*
G01X0067948Y-026989D02*
G01X0067948Y-027308D01*
G01X0067948Y-027308D02*
G01X0067967Y-027345D01*
G01X0067967Y-027345D02*
G01X0067986Y-027364D01*
G01X0067986Y-027364D02*
G01X0068023Y-027383D01*
G01X0068023Y-027383D02*
G01X0068098Y-027383D01*
G01X0068098Y-027383D02*
G01X0068136Y-027364D01*
G01X0068136Y-027364D02*
G01X0068154Y-027345D01*
G01X0068154Y-027345D02*
G01X0068173Y-027308D01*
G01X0068173Y-027308D02*
G01X0068173Y-026989D01*
G01X0068323Y-026989D02*
G01X0068567Y-026989D01*
G01X0068567Y-026989D02*
G01X0068436Y-027139D01*
G01X0068436Y-027139D02*
G01X0068492Y-027139D01*
G01X0068492Y-027139D02*
G01X0068529Y-027158D01*
G01X0068529Y-027158D02*
G01X0068548Y-027177D01*
G01X0068548Y-027177D02*
G01X0068567Y-027214D01*
G01X0068567Y-027214D02*
G01X0068567Y-027308D01*
G01X0068567Y-027308D02*
G01X0068548Y-027345D01*
G01X0068548Y-027345D02*
G01X0068529Y-027364D01*
G01X0068529Y-027364D02*
G01X0068492Y-027383D01*
G01X0068492Y-027383D02*
G01X0068379Y-027383D01*
G01X0068379Y-027383D02*
G01X0068342Y-027364D01*
G01X0068342Y-027364D02*
G01X0068323Y-027345D01*
M02*
