%FSLAX45Y45*%
G04 Gerber Fmt 4.5, Leading zero omitted, Abs format (unit mm)*
G04 Created by KiCad (PCBNEW 4.0.5) date Thu Feb 16 15:21:39 2017*
%MOMM*%
%LPD*%
G01*
G04 APERTURE LIST*
%ADD10C,0.127000*%
%ADD11C,0.150000*%
%ADD12C,0.200000*%
%ADD13C,0.300000*%
G04 APERTURE END LIST*
D10*
D11*
X15000000Y-5000000D02*
X10000000Y-5000000D01*
X15000000Y-10000000D02*
X15000000Y-5000000D01*
X10000000Y-10000000D02*
X15000000Y-10000000D01*
X10000000Y-5000000D02*
X10000000Y-10000000D01*
D12*
X11790000Y-7215000D02*
X12060000Y-7485000D01*
X12060000Y-7215000D02*
X11790000Y-7485000D01*
D13*
X10263929Y-10473214D02*
X10263929Y-10173214D01*
X10335357Y-10173214D01*
X10378214Y-10187500D01*
X10406786Y-10216072D01*
X10421071Y-10244643D01*
X10435357Y-10301786D01*
X10435357Y-10344643D01*
X10421071Y-10401786D01*
X10406786Y-10430357D01*
X10378214Y-10458929D01*
X10335357Y-10473214D01*
X10263929Y-10473214D01*
X10563929Y-10473214D02*
X10563929Y-10273214D01*
X10563929Y-10330357D02*
X10578214Y-10301786D01*
X10592500Y-10287500D01*
X10621071Y-10273214D01*
X10649643Y-10273214D01*
X10749643Y-10473214D02*
X10749643Y-10273214D01*
X10749643Y-10173214D02*
X10735357Y-10187500D01*
X10749643Y-10201786D01*
X10763929Y-10187500D01*
X10749643Y-10173214D01*
X10749643Y-10201786D01*
X10935357Y-10473214D02*
X10906786Y-10458929D01*
X10892500Y-10430357D01*
X10892500Y-10173214D01*
X11092500Y-10473214D02*
X11063929Y-10458929D01*
X11049643Y-10430357D01*
X11049643Y-10173214D01*
X11435357Y-10473214D02*
X11435357Y-10173214D01*
X11535357Y-10387500D01*
X11635357Y-10173214D01*
X11635357Y-10473214D01*
X11906786Y-10473214D02*
X11906786Y-10316072D01*
X11892500Y-10287500D01*
X11863928Y-10273214D01*
X11806786Y-10273214D01*
X11778214Y-10287500D01*
X11906786Y-10458929D02*
X11878214Y-10473214D01*
X11806786Y-10473214D01*
X11778214Y-10458929D01*
X11763928Y-10430357D01*
X11763928Y-10401786D01*
X11778214Y-10373214D01*
X11806786Y-10358929D01*
X11878214Y-10358929D01*
X11906786Y-10344643D01*
X12049643Y-10273214D02*
X12049643Y-10573214D01*
X12049643Y-10287500D02*
X12078214Y-10273214D01*
X12135357Y-10273214D01*
X12163928Y-10287500D01*
X12178214Y-10301786D01*
X12192500Y-10330357D01*
X12192500Y-10416072D01*
X12178214Y-10444643D01*
X12163928Y-10458929D01*
X12135357Y-10473214D01*
X12078214Y-10473214D01*
X12049643Y-10458929D01*
X12321071Y-10444643D02*
X12335357Y-10458929D01*
X12321071Y-10473214D01*
X12306786Y-10458929D01*
X12321071Y-10444643D01*
X12321071Y-10473214D01*
X12321071Y-10287500D02*
X12335357Y-10301786D01*
X12321071Y-10316072D01*
X12306786Y-10301786D01*
X12321071Y-10287500D01*
X12321071Y-10316072D01*
X9722500Y-10832500D02*
X9992500Y-11102500D01*
X9992500Y-10832500D02*
X9722500Y-11102500D01*
X10249643Y-10831786D02*
X10263929Y-10817500D01*
X10292500Y-10803214D01*
X10363929Y-10803214D01*
X10392500Y-10817500D01*
X10406786Y-10831786D01*
X10421071Y-10860357D01*
X10421071Y-10888929D01*
X10406786Y-10931786D01*
X10235357Y-11103214D01*
X10421071Y-11103214D01*
X10549643Y-11074643D02*
X10563929Y-11088929D01*
X10549643Y-11103214D01*
X10535357Y-11088929D01*
X10549643Y-11074643D01*
X10549643Y-11103214D01*
X10663928Y-10803214D02*
X10863928Y-10803214D01*
X10735357Y-11103214D01*
X11035357Y-10803214D02*
X11063929Y-10803214D01*
X11092500Y-10817500D01*
X11106786Y-10831786D01*
X11121071Y-10860357D01*
X11135357Y-10917500D01*
X11135357Y-10988929D01*
X11121071Y-11046072D01*
X11106786Y-11074643D01*
X11092500Y-11088929D01*
X11063929Y-11103214D01*
X11035357Y-11103214D01*
X11006786Y-11088929D01*
X10992500Y-11074643D01*
X10978214Y-11046072D01*
X10963929Y-10988929D01*
X10963929Y-10917500D01*
X10978214Y-10860357D01*
X10992500Y-10831786D01*
X11006786Y-10817500D01*
X11035357Y-10803214D01*
X11263928Y-11103214D02*
X11263928Y-10903214D01*
X11263928Y-10931786D02*
X11278214Y-10917500D01*
X11306786Y-10903214D01*
X11349643Y-10903214D01*
X11378214Y-10917500D01*
X11392500Y-10946072D01*
X11392500Y-11103214D01*
X11392500Y-10946072D02*
X11406786Y-10917500D01*
X11435357Y-10903214D01*
X11478214Y-10903214D01*
X11506786Y-10917500D01*
X11521071Y-10946072D01*
X11521071Y-11103214D01*
X11663928Y-11103214D02*
X11663928Y-10903214D01*
X11663928Y-10931786D02*
X11678214Y-10917500D01*
X11706786Y-10903214D01*
X11749643Y-10903214D01*
X11778214Y-10917500D01*
X11792500Y-10946072D01*
X11792500Y-11103214D01*
X11792500Y-10946072D02*
X11806786Y-10917500D01*
X11835357Y-10903214D01*
X11878214Y-10903214D01*
X11906786Y-10917500D01*
X11921071Y-10946072D01*
X11921071Y-11103214D01*
X12506786Y-10788929D02*
X12249643Y-11174643D01*
X12892500Y-10803214D02*
X12921071Y-10803214D01*
X12949643Y-10817500D01*
X12963928Y-10831786D01*
X12978214Y-10860357D01*
X12992500Y-10917500D01*
X12992500Y-10988929D01*
X12978214Y-11046072D01*
X12963928Y-11074643D01*
X12949643Y-11088929D01*
X12921071Y-11103214D01*
X12892500Y-11103214D01*
X12863928Y-11088929D01*
X12849643Y-11074643D01*
X12835357Y-11046072D01*
X12821071Y-10988929D01*
X12821071Y-10917500D01*
X12835357Y-10860357D01*
X12849643Y-10831786D01*
X12863928Y-10817500D01*
X12892500Y-10803214D01*
X13121071Y-11074643D02*
X13135357Y-11088929D01*
X13121071Y-11103214D01*
X13106786Y-11088929D01*
X13121071Y-11074643D01*
X13121071Y-11103214D01*
X13421071Y-11103214D02*
X13249643Y-11103214D01*
X13335357Y-11103214D02*
X13335357Y-10803214D01*
X13306785Y-10846072D01*
X13278214Y-10874643D01*
X13249643Y-10888929D01*
X13606785Y-10803214D02*
X13635357Y-10803214D01*
X13663928Y-10817500D01*
X13678214Y-10831786D01*
X13692500Y-10860357D01*
X13706785Y-10917500D01*
X13706785Y-10988929D01*
X13692500Y-11046072D01*
X13678214Y-11074643D01*
X13663928Y-11088929D01*
X13635357Y-11103214D01*
X13606785Y-11103214D01*
X13578214Y-11088929D01*
X13563928Y-11074643D01*
X13549643Y-11046072D01*
X13535357Y-10988929D01*
X13535357Y-10917500D01*
X13549643Y-10860357D01*
X13563928Y-10831786D01*
X13578214Y-10817500D01*
X13606785Y-10803214D01*
X13963928Y-10803214D02*
X13906785Y-10803214D01*
X13878214Y-10817500D01*
X13863928Y-10831786D01*
X13835357Y-10874643D01*
X13821071Y-10931786D01*
X13821071Y-11046072D01*
X13835357Y-11074643D01*
X13849643Y-11088929D01*
X13878214Y-11103214D01*
X13935357Y-11103214D01*
X13963928Y-11088929D01*
X13978214Y-11074643D01*
X13992500Y-11046072D01*
X13992500Y-10974643D01*
X13978214Y-10946072D01*
X13963928Y-10931786D01*
X13935357Y-10917500D01*
X13878214Y-10917500D01*
X13849643Y-10931786D01*
X13835357Y-10946072D01*
X13821071Y-10974643D01*
X14106786Y-10803214D02*
X14106786Y-10860357D01*
X14221071Y-10803214D02*
X14221071Y-10860357D01*
X14663928Y-11217500D02*
X14649643Y-11203214D01*
X14621071Y-11160357D01*
X14606785Y-11131786D01*
X14592500Y-11088929D01*
X14578214Y-11017500D01*
X14578214Y-10960357D01*
X14592500Y-10888929D01*
X14606785Y-10846072D01*
X14621071Y-10817500D01*
X14649643Y-10774643D01*
X14663928Y-10760357D01*
X14935357Y-11103214D02*
X14763928Y-11103214D01*
X14849643Y-11103214D02*
X14849643Y-10803214D01*
X14821071Y-10846072D01*
X14792500Y-10874643D01*
X14763928Y-10888929D01*
X15292500Y-11103214D02*
X15292500Y-10803214D01*
X15421071Y-11103214D02*
X15421071Y-10946072D01*
X15406785Y-10917500D01*
X15378214Y-10903214D01*
X15335357Y-10903214D01*
X15306785Y-10917500D01*
X15292500Y-10931786D01*
X15606785Y-11103214D02*
X15578214Y-11088929D01*
X15563928Y-11074643D01*
X15549643Y-11046072D01*
X15549643Y-10960357D01*
X15563928Y-10931786D01*
X15578214Y-10917500D01*
X15606785Y-10903214D01*
X15649643Y-10903214D01*
X15678214Y-10917500D01*
X15692500Y-10931786D01*
X15706785Y-10960357D01*
X15706785Y-11046072D01*
X15692500Y-11074643D01*
X15678214Y-11088929D01*
X15649643Y-11103214D01*
X15606785Y-11103214D01*
X15878214Y-11103214D02*
X15849643Y-11088929D01*
X15835357Y-11060357D01*
X15835357Y-10803214D01*
X16106786Y-11088929D02*
X16078214Y-11103214D01*
X16021071Y-11103214D01*
X15992500Y-11088929D01*
X15978214Y-11060357D01*
X15978214Y-10946072D01*
X15992500Y-10917500D01*
X16021071Y-10903214D01*
X16078214Y-10903214D01*
X16106786Y-10917500D01*
X16121071Y-10946072D01*
X16121071Y-10974643D01*
X15978214Y-11003214D01*
X16221071Y-11217500D02*
X16235357Y-11203214D01*
X16263928Y-11160357D01*
X16278214Y-11131786D01*
X16292500Y-11088929D01*
X16306786Y-11017500D01*
X16306786Y-10960357D01*
X16292500Y-10888929D01*
X16278214Y-10846072D01*
X16263928Y-10817500D01*
X16235357Y-10774643D01*
X16221071Y-10760357D01*
X16763928Y-11217500D02*
X16749643Y-11203214D01*
X16721071Y-11160357D01*
X16706786Y-11131786D01*
X16692500Y-11088929D01*
X16678214Y-11017500D01*
X16678214Y-10960357D01*
X16692500Y-10888929D01*
X16706786Y-10846072D01*
X16721071Y-10817500D01*
X16749643Y-10774643D01*
X16763928Y-10760357D01*
X16878214Y-10903214D02*
X16878214Y-11103214D01*
X16878214Y-10931786D02*
X16892500Y-10917500D01*
X16921071Y-10903214D01*
X16963929Y-10903214D01*
X16992500Y-10917500D01*
X17006786Y-10946072D01*
X17006786Y-11103214D01*
X17192500Y-11103214D02*
X17163929Y-11088929D01*
X17149643Y-11074643D01*
X17135357Y-11046072D01*
X17135357Y-10960357D01*
X17149643Y-10931786D01*
X17163929Y-10917500D01*
X17192500Y-10903214D01*
X17235357Y-10903214D01*
X17263929Y-10917500D01*
X17278214Y-10931786D01*
X17292500Y-10960357D01*
X17292500Y-11046072D01*
X17278214Y-11074643D01*
X17263929Y-11088929D01*
X17235357Y-11103214D01*
X17192500Y-11103214D01*
X17378214Y-10903214D02*
X17492500Y-10903214D01*
X17421071Y-10803214D02*
X17421071Y-11060357D01*
X17435357Y-11088929D01*
X17463929Y-11103214D01*
X17492500Y-11103214D01*
X17821071Y-10903214D02*
X17821071Y-11203214D01*
X17821071Y-10917500D02*
X17849643Y-10903214D01*
X17906786Y-10903214D01*
X17935357Y-10917500D01*
X17949643Y-10931786D01*
X17963929Y-10960357D01*
X17963929Y-11046072D01*
X17949643Y-11074643D01*
X17935357Y-11088929D01*
X17906786Y-11103214D01*
X17849643Y-11103214D01*
X17821071Y-11088929D01*
X18135357Y-11103214D02*
X18106786Y-11088929D01*
X18092500Y-11060357D01*
X18092500Y-10803214D01*
X18378214Y-11103214D02*
X18378214Y-10946072D01*
X18363929Y-10917500D01*
X18335357Y-10903214D01*
X18278214Y-10903214D01*
X18249643Y-10917500D01*
X18378214Y-11088929D02*
X18349643Y-11103214D01*
X18278214Y-11103214D01*
X18249643Y-11088929D01*
X18235357Y-11060357D01*
X18235357Y-11031786D01*
X18249643Y-11003214D01*
X18278214Y-10988929D01*
X18349643Y-10988929D01*
X18378214Y-10974643D01*
X18478214Y-10903214D02*
X18592500Y-10903214D01*
X18521072Y-10803214D02*
X18521072Y-11060357D01*
X18535357Y-11088929D01*
X18563929Y-11103214D01*
X18592500Y-11103214D01*
X18806786Y-11088929D02*
X18778214Y-11103214D01*
X18721072Y-11103214D01*
X18692500Y-11088929D01*
X18678214Y-11060357D01*
X18678214Y-10946072D01*
X18692500Y-10917500D01*
X18721072Y-10903214D01*
X18778214Y-10903214D01*
X18806786Y-10917500D01*
X18821072Y-10946072D01*
X18821072Y-10974643D01*
X18678214Y-11003214D01*
X19078214Y-11103214D02*
X19078214Y-10803214D01*
X19078214Y-11088929D02*
X19049643Y-11103214D01*
X18992500Y-11103214D01*
X18963929Y-11088929D01*
X18949643Y-11074643D01*
X18935357Y-11046072D01*
X18935357Y-10960357D01*
X18949643Y-10931786D01*
X18963929Y-10917500D01*
X18992500Y-10903214D01*
X19049643Y-10903214D01*
X19078214Y-10917500D01*
X19192500Y-11217500D02*
X19206786Y-11203214D01*
X19235357Y-11160357D01*
X19249643Y-11131786D01*
X19263929Y-11088929D01*
X19278214Y-11017500D01*
X19278214Y-10960357D01*
X19263929Y-10888929D01*
X19249643Y-10846072D01*
X19235357Y-10817500D01*
X19206786Y-10774643D01*
X19192500Y-10760357D01*
M02*
