M48
;DRILL file {KiCad 4.0.5} date Thu Feb 16 15:21:38 2017
;FORMAT={-:-/ absolute / metric / decimal}
FMAT,2
METRIC,TZ
T1C0.300
T2C0.762
T3C0.813
T4C0.900
T5C1.001
T6C1.016
T7C1.200
T8C1.270
T9C1.300
T10C3.048
T11C3.800
%
G90
G05
M71
T1
X110.Y-55.
X110.Y-75.
X110.Y-80.
X110.Y-95.
X115.Y-65.
X115.Y-70.
X115.Y-85.
X115.Y-90.
X115.Y-95.
X120.Y-65.
X120.Y-70.
X125.Y-60.
X125.Y-65.
X125.Y-70.
X125.Y-80.
X125.Y-90.
X130.Y-55.
X130.Y-60.
X140.Y-75.
X140.Y-80.
X140.Y-90.
X145.Y-65.
X145.Y-90.
T2
X129.55Y-75.136
X129.55Y-77.136
X129.55Y-79.136
X129.55Y-81.136
X129.55Y-83.136
X129.55Y-85.136
X129.55Y-87.636
X131.55Y-75.136
X131.55Y-77.136
X131.55Y-79.136
X131.55Y-81.136
X131.55Y-83.136
X133.55Y-75.136
X133.55Y-77.136
X133.55Y-79.136
X133.55Y-81.136
X133.55Y-83.136
X135.55Y-75.136
X135.55Y-77.136
X135.55Y-79.136
X135.55Y-81.136
X135.55Y-83.136
X135.55Y-85.136
X135.55Y-87.636
T3
X128.25Y-62.
X130.79Y-62.
X133.33Y-62.
T4
X105.2Y-80.
X105.2Y-82.5
X105.2Y-85.
X105.2Y-87.5
X105.2Y-90.
X117.55Y-95.175
X120.05Y-95.175
X122.55Y-95.175
X125.05Y-95.175
X132.275Y-95.175
X134.775Y-95.175
X137.275Y-95.175
X139.775Y-95.175
T5
X112.008Y-69.75
X130.01Y-69.636
X132.55Y-69.636
X135.09Y-69.636
T6
X112.Y-84.46
X112.Y-87.
X112.Y-89.54
X112.Y-92.08
X112.Y-94.62
T7
X106.Y-60.
X106.Y-63.5
X106.Y-70.
X106.Y-73.5
X115.5Y-56.
X119.Y-56.
X122.5Y-56.
X126.Y-56.
X135.75Y-56.
X139.25Y-56.
X144.Y-67.5
X144.Y-71.
X144.Y-83.5
X144.Y-87.
T8
X112.008Y-79.91
T9
X119.25Y-62.25
X119.25Y-84.75
T10
X104.Y-54.
X104.Y-96.
X146.Y-54.
X146.Y-96.
T11
X132.55Y-86.4
T0
M30
