G04 #@! TF.FileFunction,Legend,Top*
%FSLAX46Y46*%
G04 Gerber Fmt 4.6, Leading zero omitted, Abs format (unit mm)*
G04 Created by KiCad (PCBNEW 4.0.5) date Thu Feb 16 15:21:35 2017*
%MOMM*%
%LPD*%
G01*
G04 APERTURE LIST*
%ADD10C,0.100000*%
%ADD11C,0.150000*%
G04 APERTURE END LIST*
D10*
D11*
X127600000Y-97625000D02*
X127600000Y-91675000D01*
X127600000Y-91675000D02*
X115000000Y-91675000D01*
X115000000Y-91675000D02*
X115000000Y-97625000D01*
X115000000Y-97625000D02*
X127600000Y-97625000D01*
X124300000Y-97625000D02*
X124300000Y-96875000D01*
X124300000Y-96875000D02*
X118300000Y-96875000D01*
X118300000Y-96875000D02*
X118300000Y-97625000D01*
X118300000Y-97625000D02*
X124300000Y-97625000D01*
X127600000Y-97625000D02*
X127600000Y-96875000D01*
X127600000Y-96875000D02*
X125800000Y-96875000D01*
X125800000Y-96875000D02*
X125800000Y-97625000D01*
X125800000Y-97625000D02*
X127600000Y-97625000D01*
X116800000Y-97625000D02*
X116800000Y-96875000D01*
X116800000Y-96875000D02*
X115000000Y-96875000D01*
X115000000Y-96875000D02*
X115000000Y-97625000D01*
X115000000Y-97625000D02*
X116800000Y-97625000D01*
X127600000Y-95375000D02*
X126850000Y-95375000D01*
X126850000Y-95375000D02*
X126850000Y-92425000D01*
X126850000Y-92425000D02*
X121300000Y-92425000D01*
X115000000Y-95375000D02*
X115750000Y-95375000D01*
X115750000Y-95375000D02*
X115750000Y-92425000D01*
X115750000Y-92425000D02*
X121300000Y-92425000D01*
X125050000Y-97925000D02*
X125350000Y-98525000D01*
X125350000Y-98525000D02*
X124750000Y-98525000D01*
X124750000Y-98525000D02*
X125050000Y-97925000D01*
X135090000Y-73319000D02*
X135090000Y-71922000D01*
X132550000Y-73319000D02*
X132550000Y-71922000D01*
X130010000Y-73319000D02*
X130010000Y-71922000D01*
X127216000Y-81828000D02*
X127216000Y-89829000D01*
X127216000Y-89829000D02*
X137884000Y-89829000D01*
X137884000Y-89829000D02*
X137884000Y-81828000D01*
X127216000Y-73319000D02*
X127216000Y-81828000D01*
X137884000Y-81828000D02*
X137884000Y-73319000D01*
X132550000Y-73319000D02*
X137884000Y-73319000D01*
X132550000Y-73319000D02*
X127216000Y-73319000D01*
X124050000Y-62250000D02*
X121250000Y-62250000D01*
X117250000Y-62250000D02*
X114450000Y-62250000D01*
X117250000Y-84750000D02*
X114450000Y-84750000D01*
X114450000Y-84750000D02*
X114450000Y-62250000D01*
X124050000Y-84750000D02*
X124050000Y-62250000D01*
X124050000Y-84750000D02*
X121250000Y-84750000D01*
X142720000Y-89530000D02*
X152080000Y-89530000D01*
X152080000Y-89530000D02*
X152080000Y-80970000D01*
X152080000Y-80970000D02*
X142720000Y-80970000D01*
X142720000Y-89530000D02*
X142720000Y-88050000D01*
X142720000Y-80970000D02*
X142720000Y-82450000D01*
X142720000Y-85950000D02*
X142720000Y-84550000D01*
X148800000Y-89530000D02*
X148800000Y-80970000D01*
X141700000Y-87000000D02*
X141100000Y-86700000D01*
X141100000Y-86700000D02*
X141100000Y-87300000D01*
X141100000Y-87300000D02*
X141700000Y-87000000D01*
X142325000Y-97625000D02*
X142325000Y-91675000D01*
X142325000Y-91675000D02*
X129725000Y-91675000D01*
X129725000Y-91675000D02*
X129725000Y-97625000D01*
X129725000Y-97625000D02*
X142325000Y-97625000D01*
X139025000Y-97625000D02*
X139025000Y-96875000D01*
X139025000Y-96875000D02*
X133025000Y-96875000D01*
X133025000Y-96875000D02*
X133025000Y-97625000D01*
X133025000Y-97625000D02*
X139025000Y-97625000D01*
X142325000Y-97625000D02*
X142325000Y-96875000D01*
X142325000Y-96875000D02*
X140525000Y-96875000D01*
X140525000Y-96875000D02*
X140525000Y-97625000D01*
X140525000Y-97625000D02*
X142325000Y-97625000D01*
X131525000Y-97625000D02*
X131525000Y-96875000D01*
X131525000Y-96875000D02*
X129725000Y-96875000D01*
X129725000Y-96875000D02*
X129725000Y-97625000D01*
X129725000Y-97625000D02*
X131525000Y-97625000D01*
X142325000Y-95375000D02*
X141575000Y-95375000D01*
X141575000Y-95375000D02*
X141575000Y-92425000D01*
X141575000Y-92425000D02*
X136025000Y-92425000D01*
X129725000Y-95375000D02*
X130475000Y-95375000D01*
X130475000Y-95375000D02*
X130475000Y-92425000D01*
X130475000Y-92425000D02*
X136025000Y-92425000D01*
X139775000Y-97925000D02*
X140075000Y-98525000D01*
X140075000Y-98525000D02*
X139475000Y-98525000D01*
X139475000Y-98525000D02*
X139775000Y-97925000D01*
X102750000Y-92550000D02*
X108700000Y-92550000D01*
X108700000Y-92550000D02*
X108700000Y-77450000D01*
X108700000Y-77450000D02*
X102750000Y-77450000D01*
X102750000Y-77450000D02*
X102750000Y-92550000D01*
X102750000Y-89250000D02*
X103500000Y-89250000D01*
X103500000Y-89250000D02*
X103500000Y-80750000D01*
X103500000Y-80750000D02*
X102750000Y-80750000D01*
X102750000Y-80750000D02*
X102750000Y-89250000D01*
X102750000Y-92550000D02*
X103500000Y-92550000D01*
X103500000Y-92550000D02*
X103500000Y-90750000D01*
X103500000Y-90750000D02*
X102750000Y-90750000D01*
X102750000Y-90750000D02*
X102750000Y-92550000D01*
X102750000Y-79250000D02*
X103500000Y-79250000D01*
X103500000Y-79250000D02*
X103500000Y-77450000D01*
X103500000Y-77450000D02*
X102750000Y-77450000D01*
X102750000Y-77450000D02*
X102750000Y-79250000D01*
X105000000Y-92550000D02*
X105000000Y-91800000D01*
X105000000Y-91800000D02*
X107950000Y-91800000D01*
X107950000Y-91800000D02*
X107950000Y-85000000D01*
X105000000Y-77450000D02*
X105000000Y-78200000D01*
X105000000Y-78200000D02*
X107950000Y-78200000D01*
X107950000Y-78200000D02*
X107950000Y-85000000D01*
X102450000Y-90000000D02*
X101850000Y-90300000D01*
X101850000Y-90300000D02*
X101850000Y-89700000D01*
X101850000Y-89700000D02*
X102450000Y-90000000D01*
X112007620Y-77370000D02*
X112007620Y-78386000D01*
X112007620Y-72544000D02*
X112007620Y-71274000D01*
X113277620Y-72798000D02*
X110737620Y-72798000D01*
X113277620Y-73052000D02*
X110737620Y-73052000D01*
X113277620Y-73306000D02*
X110737620Y-73306000D01*
X113277620Y-72544000D02*
X110737620Y-72544000D01*
X113277620Y-73560000D02*
X110737620Y-72290000D01*
X113277620Y-72290000D02*
X110737620Y-73560000D01*
X113277620Y-73560000D02*
X110737620Y-73560000D01*
X113277620Y-72925000D02*
X110737620Y-72925000D01*
X110737620Y-72290000D02*
X113277620Y-72290000D01*
X113277620Y-72290000D02*
X113277620Y-77370000D01*
X113277620Y-77370000D02*
X110737620Y-77370000D01*
X110737620Y-77370000D02*
X110737620Y-72290000D01*
X146100000Y-78400000D02*
X143400000Y-78400000D01*
X146100000Y-79900000D02*
X143400000Y-79900000D01*
X144600000Y-79000000D02*
X144600000Y-79250000D01*
X144600000Y-79250000D02*
X144750000Y-79100000D01*
X144850000Y-79500000D02*
X144850000Y-78800000D01*
X144500000Y-79150000D02*
X144150000Y-79150000D01*
X144850000Y-79150000D02*
X144500000Y-79500000D01*
X144500000Y-79500000D02*
X144500000Y-78800000D01*
X144500000Y-78800000D02*
X144850000Y-79150000D01*
X146050980Y-62250000D02*
X143350980Y-62250000D01*
X146050980Y-63750000D02*
X143350980Y-63750000D01*
X144550980Y-62850000D02*
X144550980Y-63100000D01*
X144550980Y-63100000D02*
X144700980Y-62950000D01*
X144800980Y-63350000D02*
X144800980Y-62650000D01*
X144450980Y-63000000D02*
X144100980Y-63000000D01*
X144800980Y-63000000D02*
X144450980Y-63350000D01*
X144450980Y-63350000D02*
X144450980Y-62650000D01*
X144450980Y-62650000D02*
X144800980Y-63000000D01*
X143850000Y-77625000D02*
X142650000Y-77625000D01*
X142650000Y-75875000D02*
X143850000Y-75875000D01*
X143850000Y-61375000D02*
X142650000Y-61375000D01*
X142650000Y-59625000D02*
X143850000Y-59625000D01*
X134346000Y-64032000D02*
X134346000Y-62762000D01*
X133558600Y-63282700D02*
X133596700Y-63536700D01*
X133596700Y-63536700D02*
X133774500Y-63816100D01*
X133774500Y-63816100D02*
X134092000Y-64032000D01*
X134092000Y-64032000D02*
X134536500Y-64044700D01*
X134536500Y-64044700D02*
X134892100Y-63841500D01*
X134892100Y-63841500D02*
X135069900Y-63549400D01*
X135069900Y-63549400D02*
X135120700Y-63231900D01*
X135120700Y-63231900D02*
X135019100Y-62825500D01*
X135019100Y-62825500D02*
X134676200Y-62571500D01*
X134676200Y-62571500D02*
X134498400Y-62482600D01*
X125964000Y-60222000D02*
X135616000Y-60222000D01*
X135616000Y-63270000D02*
X135616000Y-64540000D01*
X135616000Y-64540000D02*
X125964000Y-64540000D01*
X125964000Y-64540000D02*
X125964000Y-59460000D01*
X135616000Y-59460000D02*
X135616000Y-62000000D01*
X135616000Y-62000000D02*
X135616000Y-63270000D01*
X139375000Y-69400000D02*
X139375000Y-70600000D01*
X137625000Y-70600000D02*
X137625000Y-69400000D01*
X107280000Y-57470000D02*
X97920000Y-57470000D01*
X97920000Y-57470000D02*
X97920000Y-66030000D01*
X97920000Y-66030000D02*
X107280000Y-66030000D01*
X107280000Y-57470000D02*
X107280000Y-58950000D01*
X107280000Y-66030000D02*
X107280000Y-64550000D01*
X107280000Y-61050000D02*
X107280000Y-62450000D01*
X101200000Y-57470000D02*
X101200000Y-66030000D01*
X108300000Y-60000000D02*
X108900000Y-60300000D01*
X108900000Y-60300000D02*
X108900000Y-59700000D01*
X108900000Y-59700000D02*
X108300000Y-60000000D01*
X107280000Y-67470000D02*
X97920000Y-67470000D01*
X97920000Y-67470000D02*
X97920000Y-76030000D01*
X97920000Y-76030000D02*
X107280000Y-76030000D01*
X107280000Y-67470000D02*
X107280000Y-68950000D01*
X107280000Y-76030000D02*
X107280000Y-74550000D01*
X107280000Y-71050000D02*
X107280000Y-72450000D01*
X101200000Y-67470000D02*
X101200000Y-76030000D01*
X108300000Y-70000000D02*
X108900000Y-70300000D01*
X108900000Y-70300000D02*
X108900000Y-69700000D01*
X108900000Y-69700000D02*
X108300000Y-70000000D01*
X128530000Y-57280000D02*
X128530000Y-47920000D01*
X128530000Y-47920000D02*
X112970000Y-47920000D01*
X112970000Y-47920000D02*
X112970000Y-57280000D01*
X128530000Y-57280000D02*
X127050000Y-57280000D01*
X112970000Y-57280000D02*
X114450000Y-57280000D01*
X124950000Y-57280000D02*
X123550000Y-57280000D01*
X121450000Y-57280000D02*
X120050000Y-57280000D01*
X117950000Y-57280000D02*
X116550000Y-57280000D01*
X128530000Y-51200000D02*
X112970000Y-51200000D01*
X126000000Y-58300000D02*
X125700000Y-58900000D01*
X125700000Y-58900000D02*
X126300000Y-58900000D01*
X126300000Y-58900000D02*
X126000000Y-58300000D01*
X141780000Y-57280000D02*
X141780000Y-47920000D01*
X141780000Y-47920000D02*
X133220000Y-47920000D01*
X133220000Y-47920000D02*
X133220000Y-57280000D01*
X141780000Y-57280000D02*
X140300000Y-57280000D01*
X133220000Y-57280000D02*
X134700000Y-57280000D01*
X138200000Y-57280000D02*
X136800000Y-57280000D01*
X141780000Y-51200000D02*
X133220000Y-51200000D01*
X139250000Y-58300000D02*
X138950000Y-58900000D01*
X138950000Y-58900000D02*
X139550000Y-58900000D01*
X139550000Y-58900000D02*
X139250000Y-58300000D01*
X142720000Y-73530000D02*
X152080000Y-73530000D01*
X152080000Y-73530000D02*
X152080000Y-64970000D01*
X152080000Y-64970000D02*
X142720000Y-64970000D01*
X142720000Y-73530000D02*
X142720000Y-72050000D01*
X142720000Y-64970000D02*
X142720000Y-66450000D01*
X142720000Y-69950000D02*
X142720000Y-68550000D01*
X148800000Y-73530000D02*
X148800000Y-64970000D01*
X141700000Y-71000000D02*
X141100000Y-70700000D01*
X141100000Y-70700000D02*
X141100000Y-71300000D01*
X141100000Y-71300000D02*
X141700000Y-71000000D01*
X106286000Y-96000000D02*
G75*
G03X106286000Y-96000000I-2286000J0D01*
G01*
X106286000Y-54000000D02*
G75*
G03X106286000Y-54000000I-2286000J0D01*
G01*
X148286000Y-96000000D02*
G75*
G03X148286000Y-96000000I-2286000J0D01*
G01*
X148286000Y-54000000D02*
G75*
G03X148286000Y-54000000I-2286000J0D01*
G01*
X124261905Y-91052381D02*
X124261905Y-90052381D01*
X124642858Y-90052381D01*
X124738096Y-90100000D01*
X124785715Y-90147619D01*
X124833334Y-90242857D01*
X124833334Y-90385714D01*
X124785715Y-90480952D01*
X124738096Y-90528571D01*
X124642858Y-90576190D01*
X124261905Y-90576190D01*
X125690477Y-90052381D02*
X125500000Y-90052381D01*
X125404762Y-90100000D01*
X125357143Y-90147619D01*
X125261905Y-90290476D01*
X125214286Y-90480952D01*
X125214286Y-90861905D01*
X125261905Y-90957143D01*
X125309524Y-91004762D01*
X125404762Y-91052381D01*
X125595239Y-91052381D01*
X125690477Y-91004762D01*
X125738096Y-90957143D01*
X125785715Y-90861905D01*
X125785715Y-90623810D01*
X125738096Y-90528571D01*
X125690477Y-90480952D01*
X125595239Y-90433333D01*
X125404762Y-90433333D01*
X125309524Y-90480952D01*
X125261905Y-90528571D01*
X125214286Y-90623810D01*
X127508095Y-71588381D02*
X127508095Y-72397905D01*
X127555714Y-72493143D01*
X127603333Y-72540762D01*
X127698571Y-72588381D01*
X127889048Y-72588381D01*
X127984286Y-72540762D01*
X128031905Y-72493143D01*
X128079524Y-72397905D01*
X128079524Y-71588381D01*
X129079524Y-72588381D02*
X128508095Y-72588381D01*
X128793809Y-72588381D02*
X128793809Y-71588381D01*
X128698571Y-71731238D01*
X128603333Y-71826476D01*
X128508095Y-71874095D01*
X122466667Y-85728571D02*
X122133333Y-85728571D01*
X122133333Y-86252381D02*
X122133333Y-85252381D01*
X122609524Y-85252381D01*
X123514286Y-86252381D02*
X122942857Y-86252381D01*
X123228571Y-86252381D02*
X123228571Y-85252381D01*
X123133333Y-85395238D01*
X123038095Y-85490476D01*
X122942857Y-85538095D01*
X145785714Y-91452381D02*
X145785714Y-90452381D01*
X146166667Y-90452381D01*
X146261905Y-90500000D01*
X146309524Y-90547619D01*
X146357143Y-90642857D01*
X146357143Y-90785714D01*
X146309524Y-90880952D01*
X146261905Y-90928571D01*
X146166667Y-90976190D01*
X145785714Y-90976190D01*
X147309524Y-91452381D02*
X146738095Y-91452381D01*
X147023809Y-91452381D02*
X147023809Y-90452381D01*
X146928571Y-90595238D01*
X146833333Y-90690476D01*
X146738095Y-90738095D01*
X147928571Y-90452381D02*
X148023810Y-90452381D01*
X148119048Y-90500000D01*
X148166667Y-90547619D01*
X148214286Y-90642857D01*
X148261905Y-90833333D01*
X148261905Y-91071429D01*
X148214286Y-91261905D01*
X148166667Y-91357143D01*
X148119048Y-91404762D01*
X148023810Y-91452381D01*
X147928571Y-91452381D01*
X147833333Y-91404762D01*
X147785714Y-91357143D01*
X147738095Y-91261905D01*
X147690476Y-91071429D01*
X147690476Y-90833333D01*
X147738095Y-90642857D01*
X147785714Y-90547619D01*
X147833333Y-90500000D01*
X147928571Y-90452381D01*
X139061905Y-91252381D02*
X139061905Y-90252381D01*
X139442858Y-90252381D01*
X139538096Y-90300000D01*
X139585715Y-90347619D01*
X139633334Y-90442857D01*
X139633334Y-90585714D01*
X139585715Y-90680952D01*
X139538096Y-90728571D01*
X139442858Y-90776190D01*
X139061905Y-90776190D01*
X139966667Y-90252381D02*
X140633334Y-90252381D01*
X140204762Y-91252381D01*
X100961905Y-85452381D02*
X100961905Y-84452381D01*
X101342858Y-84452381D01*
X101438096Y-84500000D01*
X101485715Y-84547619D01*
X101533334Y-84642857D01*
X101533334Y-84785714D01*
X101485715Y-84880952D01*
X101438096Y-84928571D01*
X101342858Y-84976190D01*
X100961905Y-84976190D01*
X102485715Y-85452381D02*
X101914286Y-85452381D01*
X102200000Y-85452381D02*
X102200000Y-84452381D01*
X102104762Y-84595238D01*
X102009524Y-84690476D01*
X101914286Y-84738095D01*
X109061905Y-75452381D02*
X109061905Y-74452381D01*
X109300000Y-74452381D01*
X109442858Y-74500000D01*
X109538096Y-74595238D01*
X109585715Y-74690476D01*
X109633334Y-74880952D01*
X109633334Y-75023810D01*
X109585715Y-75214286D01*
X109538096Y-75309524D01*
X109442858Y-75404762D01*
X109300000Y-75452381D01*
X109061905Y-75452381D01*
X110585715Y-75452381D02*
X110014286Y-75452381D01*
X110300000Y-75452381D02*
X110300000Y-74452381D01*
X110204762Y-74595238D01*
X110109524Y-74690476D01*
X110014286Y-74738095D01*
X146511905Y-79702381D02*
X146511905Y-78702381D01*
X146750000Y-78702381D01*
X146892858Y-78750000D01*
X146988096Y-78845238D01*
X147035715Y-78940476D01*
X147083334Y-79130952D01*
X147083334Y-79273810D01*
X147035715Y-79464286D01*
X146988096Y-79559524D01*
X146892858Y-79654762D01*
X146750000Y-79702381D01*
X146511905Y-79702381D01*
X147464286Y-78797619D02*
X147511905Y-78750000D01*
X147607143Y-78702381D01*
X147845239Y-78702381D01*
X147940477Y-78750000D01*
X147988096Y-78797619D01*
X148035715Y-78892857D01*
X148035715Y-78988095D01*
X147988096Y-79130952D01*
X147416667Y-79702381D01*
X148035715Y-79702381D01*
X146511905Y-63452381D02*
X146511905Y-62452381D01*
X146750000Y-62452381D01*
X146892858Y-62500000D01*
X146988096Y-62595238D01*
X147035715Y-62690476D01*
X147083334Y-62880952D01*
X147083334Y-63023810D01*
X147035715Y-63214286D01*
X146988096Y-63309524D01*
X146892858Y-63404762D01*
X146750000Y-63452381D01*
X146511905Y-63452381D01*
X147416667Y-62452381D02*
X148035715Y-62452381D01*
X147702381Y-62833333D01*
X147845239Y-62833333D01*
X147940477Y-62880952D01*
X147988096Y-62928571D01*
X148035715Y-63023810D01*
X148035715Y-63261905D01*
X147988096Y-63357143D01*
X147940477Y-63404762D01*
X147845239Y-63452381D01*
X147559524Y-63452381D01*
X147464286Y-63404762D01*
X147416667Y-63357143D01*
X146391334Y-77160381D02*
X146058000Y-76684190D01*
X145819905Y-77160381D02*
X145819905Y-76160381D01*
X146200858Y-76160381D01*
X146296096Y-76208000D01*
X146343715Y-76255619D01*
X146391334Y-76350857D01*
X146391334Y-76493714D01*
X146343715Y-76588952D01*
X146296096Y-76636571D01*
X146200858Y-76684190D01*
X145819905Y-76684190D01*
X146772286Y-76255619D02*
X146819905Y-76208000D01*
X146915143Y-76160381D01*
X147153239Y-76160381D01*
X147248477Y-76208000D01*
X147296096Y-76255619D01*
X147343715Y-76350857D01*
X147343715Y-76446095D01*
X147296096Y-76588952D01*
X146724667Y-77160381D01*
X147343715Y-77160381D01*
X146583334Y-60952381D02*
X146250000Y-60476190D01*
X146011905Y-60952381D02*
X146011905Y-59952381D01*
X146392858Y-59952381D01*
X146488096Y-60000000D01*
X146535715Y-60047619D01*
X146583334Y-60142857D01*
X146583334Y-60285714D01*
X146535715Y-60380952D01*
X146488096Y-60428571D01*
X146392858Y-60476190D01*
X146011905Y-60476190D01*
X146916667Y-59952381D02*
X147535715Y-59952381D01*
X147202381Y-60333333D01*
X147345239Y-60333333D01*
X147440477Y-60380952D01*
X147488096Y-60428571D01*
X147535715Y-60523810D01*
X147535715Y-60761905D01*
X147488096Y-60857143D01*
X147440477Y-60904762D01*
X147345239Y-60952381D01*
X147059524Y-60952381D01*
X146964286Y-60904762D01*
X146916667Y-60857143D01*
X136604762Y-62452381D02*
X136271428Y-61976190D01*
X136033333Y-62452381D02*
X136033333Y-61452381D01*
X136414286Y-61452381D01*
X136509524Y-61500000D01*
X136557143Y-61547619D01*
X136604762Y-61642857D01*
X136604762Y-61785714D01*
X136557143Y-61880952D01*
X136509524Y-61928571D01*
X136414286Y-61976190D01*
X136033333Y-61976190D01*
X136890476Y-61452381D02*
X137223809Y-62452381D01*
X137557143Y-61452381D01*
X138414286Y-62452381D02*
X137842857Y-62452381D01*
X138128571Y-62452381D02*
X138128571Y-61452381D01*
X138033333Y-61595238D01*
X137938095Y-61690476D01*
X137842857Y-61738095D01*
X138333334Y-66952381D02*
X138000000Y-66476190D01*
X137761905Y-66952381D02*
X137761905Y-65952381D01*
X138142858Y-65952381D01*
X138238096Y-66000000D01*
X138285715Y-66047619D01*
X138333334Y-66142857D01*
X138333334Y-66285714D01*
X138285715Y-66380952D01*
X138238096Y-66428571D01*
X138142858Y-66476190D01*
X137761905Y-66476190D01*
X139285715Y-66952381D02*
X138714286Y-66952381D01*
X139000000Y-66952381D02*
X139000000Y-65952381D01*
X138904762Y-66095238D01*
X138809524Y-66190476D01*
X138714286Y-66238095D01*
X108461905Y-62252381D02*
X108461905Y-61252381D01*
X108842858Y-61252381D01*
X108938096Y-61300000D01*
X108985715Y-61347619D01*
X109033334Y-61442857D01*
X109033334Y-61585714D01*
X108985715Y-61680952D01*
X108938096Y-61728571D01*
X108842858Y-61776190D01*
X108461905Y-61776190D01*
X109414286Y-61347619D02*
X109461905Y-61300000D01*
X109557143Y-61252381D01*
X109795239Y-61252381D01*
X109890477Y-61300000D01*
X109938096Y-61347619D01*
X109985715Y-61442857D01*
X109985715Y-61538095D01*
X109938096Y-61680952D01*
X109366667Y-62252381D01*
X109985715Y-62252381D01*
X108461905Y-72052381D02*
X108461905Y-71052381D01*
X108842858Y-71052381D01*
X108938096Y-71100000D01*
X108985715Y-71147619D01*
X109033334Y-71242857D01*
X109033334Y-71385714D01*
X108985715Y-71480952D01*
X108938096Y-71528571D01*
X108842858Y-71576190D01*
X108461905Y-71576190D01*
X109366667Y-71052381D02*
X109985715Y-71052381D01*
X109652381Y-71433333D01*
X109795239Y-71433333D01*
X109890477Y-71480952D01*
X109938096Y-71528571D01*
X109985715Y-71623810D01*
X109985715Y-71861905D01*
X109938096Y-71957143D01*
X109890477Y-72004762D01*
X109795239Y-72052381D01*
X109509524Y-72052381D01*
X109414286Y-72004762D01*
X109366667Y-71957143D01*
X120011905Y-59452381D02*
X120011905Y-58452381D01*
X120392858Y-58452381D01*
X120488096Y-58500000D01*
X120535715Y-58547619D01*
X120583334Y-58642857D01*
X120583334Y-58785714D01*
X120535715Y-58880952D01*
X120488096Y-58928571D01*
X120392858Y-58976190D01*
X120011905Y-58976190D01*
X121488096Y-58452381D02*
X121011905Y-58452381D01*
X120964286Y-58928571D01*
X121011905Y-58880952D01*
X121107143Y-58833333D01*
X121345239Y-58833333D01*
X121440477Y-58880952D01*
X121488096Y-58928571D01*
X121535715Y-59023810D01*
X121535715Y-59261905D01*
X121488096Y-59357143D01*
X121440477Y-59404762D01*
X121345239Y-59452381D01*
X121107143Y-59452381D01*
X121011905Y-59404762D01*
X120964286Y-59357143D01*
X135761905Y-59452381D02*
X135761905Y-58452381D01*
X136142858Y-58452381D01*
X136238096Y-58500000D01*
X136285715Y-58547619D01*
X136333334Y-58642857D01*
X136333334Y-58785714D01*
X136285715Y-58880952D01*
X136238096Y-58928571D01*
X136142858Y-58976190D01*
X135761905Y-58976190D01*
X136904762Y-58880952D02*
X136809524Y-58833333D01*
X136761905Y-58785714D01*
X136714286Y-58690476D01*
X136714286Y-58642857D01*
X136761905Y-58547619D01*
X136809524Y-58500000D01*
X136904762Y-58452381D01*
X137095239Y-58452381D01*
X137190477Y-58500000D01*
X137238096Y-58547619D01*
X137285715Y-58642857D01*
X137285715Y-58690476D01*
X137238096Y-58785714D01*
X137190477Y-58833333D01*
X137095239Y-58880952D01*
X136904762Y-58880952D01*
X136809524Y-58928571D01*
X136761905Y-58976190D01*
X136714286Y-59071429D01*
X136714286Y-59261905D01*
X136761905Y-59357143D01*
X136809524Y-59404762D01*
X136904762Y-59452381D01*
X137095239Y-59452381D01*
X137190477Y-59404762D01*
X137238096Y-59357143D01*
X137285715Y-59261905D01*
X137285715Y-59071429D01*
X137238096Y-58976190D01*
X137190477Y-58928571D01*
X137095239Y-58880952D01*
X147661905Y-75052381D02*
X147661905Y-74052381D01*
X148042858Y-74052381D01*
X148138096Y-74100000D01*
X148185715Y-74147619D01*
X148233334Y-74242857D01*
X148233334Y-74385714D01*
X148185715Y-74480952D01*
X148138096Y-74528571D01*
X148042858Y-74576190D01*
X147661905Y-74576190D01*
X148709524Y-75052381D02*
X148900000Y-75052381D01*
X148995239Y-75004762D01*
X149042858Y-74957143D01*
X149138096Y-74814286D01*
X149185715Y-74623810D01*
X149185715Y-74242857D01*
X149138096Y-74147619D01*
X149090477Y-74100000D01*
X148995239Y-74052381D01*
X148804762Y-74052381D01*
X148709524Y-74100000D01*
X148661905Y-74147619D01*
X148614286Y-74242857D01*
X148614286Y-74480952D01*
X148661905Y-74576190D01*
X148709524Y-74623810D01*
X148804762Y-74671429D01*
X148995239Y-74671429D01*
X149090477Y-74623810D01*
X149138096Y-74576190D01*
X149185715Y-74480952D01*
M02*
