G04 #@! TF.FileFunction,Legend,Bot*
%FSLAX46Y46*%
G04 Gerber Fmt 4.6, Leading zero omitted, Abs format (unit mm)*
G04 Created by KiCad (PCBNEW 4.0.5) date Thu Feb 16 15:21:35 2017*
%MOMM*%
%LPD*%
G01*
G04 APERTURE LIST*
%ADD10C,0.100000*%
%ADD11C,0.175000*%
%ADD12C,0.300000*%
%ADD13C,0.150000*%
G04 APERTURE END LIST*
D10*
D11*
X137316663Y-59816667D02*
X137316663Y-59116667D01*
X137016663Y-59816667D02*
X137016663Y-59450000D01*
X137049997Y-59383333D01*
X137116663Y-59350000D01*
X137216663Y-59350000D01*
X137283330Y-59383333D01*
X137316663Y-59416667D01*
X136783330Y-59350000D02*
X136516664Y-59350000D01*
X136683330Y-59116667D02*
X136683330Y-59716667D01*
X136649997Y-59783333D01*
X136583330Y-59816667D01*
X136516664Y-59816667D01*
X136383330Y-59350000D02*
X136116664Y-59350000D01*
X136283330Y-59116667D02*
X136283330Y-59716667D01*
X136249997Y-59783333D01*
X136183330Y-59816667D01*
X136116664Y-59816667D01*
X135883330Y-59350000D02*
X135883330Y-60050000D01*
X135883330Y-59383333D02*
X135816664Y-59350000D01*
X135683330Y-59350000D01*
X135616664Y-59383333D01*
X135583330Y-59416667D01*
X135549997Y-59483333D01*
X135549997Y-59683333D01*
X135583330Y-59750000D01*
X135616664Y-59783333D01*
X135683330Y-59816667D01*
X135816664Y-59816667D01*
X135883330Y-59783333D01*
X135283331Y-59783333D02*
X135216664Y-59816667D01*
X135083331Y-59816667D01*
X135016664Y-59783333D01*
X134983331Y-59716667D01*
X134983331Y-59683333D01*
X135016664Y-59616667D01*
X135083331Y-59583333D01*
X135183331Y-59583333D01*
X135249997Y-59550000D01*
X135283331Y-59483333D01*
X135283331Y-59450000D01*
X135249997Y-59383333D01*
X135183331Y-59350000D01*
X135083331Y-59350000D01*
X135016664Y-59383333D01*
X134683330Y-59750000D02*
X134649997Y-59783333D01*
X134683330Y-59816667D01*
X134716664Y-59783333D01*
X134683330Y-59750000D01*
X134683330Y-59816667D01*
X134683330Y-59383333D02*
X134649997Y-59416667D01*
X134683330Y-59450000D01*
X134716664Y-59416667D01*
X134683330Y-59383333D01*
X134683330Y-59450000D01*
X133849997Y-59083333D02*
X134449997Y-59983333D01*
X133116664Y-59083333D02*
X133716664Y-59983333D01*
X132583331Y-59350000D02*
X132583331Y-59916667D01*
X132616665Y-59983333D01*
X132649998Y-60016667D01*
X132716665Y-60050000D01*
X132816665Y-60050000D01*
X132883331Y-60016667D01*
X132583331Y-59783333D02*
X132649998Y-59816667D01*
X132783331Y-59816667D01*
X132849998Y-59783333D01*
X132883331Y-59750000D01*
X132916665Y-59683333D01*
X132916665Y-59483333D01*
X132883331Y-59416667D01*
X132849998Y-59383333D01*
X132783331Y-59350000D01*
X132649998Y-59350000D01*
X132583331Y-59383333D01*
X132249998Y-59816667D02*
X132249998Y-59350000D01*
X132249998Y-59116667D02*
X132283332Y-59150000D01*
X132249998Y-59183333D01*
X132216665Y-59150000D01*
X132249998Y-59116667D01*
X132249998Y-59183333D01*
X132016665Y-59350000D02*
X131749999Y-59350000D01*
X131916665Y-59116667D02*
X131916665Y-59716667D01*
X131883332Y-59783333D01*
X131816665Y-59816667D01*
X131749999Y-59816667D01*
X131516665Y-59816667D02*
X131516665Y-59116667D01*
X131216665Y-59816667D02*
X131216665Y-59450000D01*
X131249999Y-59383333D01*
X131316665Y-59350000D01*
X131416665Y-59350000D01*
X131483332Y-59383333D01*
X131516665Y-59416667D01*
X130583332Y-59350000D02*
X130583332Y-59816667D01*
X130883332Y-59350000D02*
X130883332Y-59716667D01*
X130849999Y-59783333D01*
X130783332Y-59816667D01*
X130683332Y-59816667D01*
X130616666Y-59783333D01*
X130583332Y-59750000D01*
X130249999Y-59816667D02*
X130249999Y-59116667D01*
X130249999Y-59383333D02*
X130183333Y-59350000D01*
X130049999Y-59350000D01*
X129983333Y-59383333D01*
X129949999Y-59416667D01*
X129916666Y-59483333D01*
X129916666Y-59683333D01*
X129949999Y-59750000D01*
X129983333Y-59783333D01*
X130049999Y-59816667D01*
X130183333Y-59816667D01*
X130249999Y-59783333D01*
X129616666Y-59750000D02*
X129583333Y-59783333D01*
X129616666Y-59816667D01*
X129650000Y-59783333D01*
X129616666Y-59750000D01*
X129616666Y-59816667D01*
X128983333Y-59783333D02*
X129050000Y-59816667D01*
X129183333Y-59816667D01*
X129250000Y-59783333D01*
X129283333Y-59750000D01*
X129316667Y-59683333D01*
X129316667Y-59483333D01*
X129283333Y-59416667D01*
X129250000Y-59383333D01*
X129183333Y-59350000D01*
X129050000Y-59350000D01*
X128983333Y-59383333D01*
X128583333Y-59816667D02*
X128650000Y-59783333D01*
X128683333Y-59750000D01*
X128716667Y-59683333D01*
X128716667Y-59483333D01*
X128683333Y-59416667D01*
X128650000Y-59383333D01*
X128583333Y-59350000D01*
X128483333Y-59350000D01*
X128416667Y-59383333D01*
X128383333Y-59416667D01*
X128350000Y-59483333D01*
X128350000Y-59683333D01*
X128383333Y-59750000D01*
X128416667Y-59783333D01*
X128483333Y-59816667D01*
X128583333Y-59816667D01*
X128050000Y-59816667D02*
X128050000Y-59350000D01*
X128050000Y-59416667D02*
X128016667Y-59383333D01*
X127950000Y-59350000D01*
X127850000Y-59350000D01*
X127783334Y-59383333D01*
X127750000Y-59450000D01*
X127750000Y-59816667D01*
X127750000Y-59450000D02*
X127716667Y-59383333D01*
X127650000Y-59350000D01*
X127550000Y-59350000D01*
X127483334Y-59383333D01*
X127450000Y-59450000D01*
X127450000Y-59816667D01*
X126616667Y-59083333D02*
X127216667Y-59983333D01*
X126383334Y-59816667D02*
X126383334Y-59116667D01*
X126116668Y-59116667D01*
X126050001Y-59150000D01*
X126016668Y-59183333D01*
X125983334Y-59250000D01*
X125983334Y-59350000D01*
X126016668Y-59416667D01*
X126050001Y-59450000D01*
X126116668Y-59483333D01*
X126383334Y-59483333D01*
X125683334Y-59816667D02*
X125683334Y-59116667D01*
X125383334Y-59816667D02*
X125383334Y-59450000D01*
X125416668Y-59383333D01*
X125483334Y-59350000D01*
X125583334Y-59350000D01*
X125650001Y-59383333D01*
X125683334Y-59416667D01*
X124950001Y-59816667D02*
X125016668Y-59783333D01*
X125050001Y-59750000D01*
X125083335Y-59683333D01*
X125083335Y-59483333D01*
X125050001Y-59416667D01*
X125016668Y-59383333D01*
X124950001Y-59350000D01*
X124850001Y-59350000D01*
X124783335Y-59383333D01*
X124750001Y-59416667D01*
X124716668Y-59483333D01*
X124716668Y-59683333D01*
X124750001Y-59750000D01*
X124783335Y-59783333D01*
X124850001Y-59816667D01*
X124950001Y-59816667D01*
X124150002Y-59783333D02*
X124216668Y-59816667D01*
X124350002Y-59816667D01*
X124416668Y-59783333D01*
X124450002Y-59716667D01*
X124450002Y-59450000D01*
X124416668Y-59383333D01*
X124350002Y-59350000D01*
X124216668Y-59350000D01*
X124150002Y-59383333D01*
X124116668Y-59450000D01*
X124116668Y-59516667D01*
X124450002Y-59583333D01*
X123816668Y-59350000D02*
X123816668Y-59816667D01*
X123816668Y-59416667D02*
X123783335Y-59383333D01*
X123716668Y-59350000D01*
X123616668Y-59350000D01*
X123550002Y-59383333D01*
X123516668Y-59450000D01*
X123516668Y-59816667D01*
X123183335Y-59816667D02*
X123183335Y-59350000D01*
X123183335Y-59116667D02*
X123216669Y-59150000D01*
X123183335Y-59183333D01*
X123150002Y-59150000D01*
X123183335Y-59116667D01*
X123183335Y-59183333D01*
X122916669Y-59816667D02*
X122550002Y-59350000D01*
X122916669Y-59350000D02*
X122550002Y-59816667D01*
X121883335Y-59816667D02*
X122116669Y-59483333D01*
X122283335Y-59816667D02*
X122283335Y-59116667D01*
X122016669Y-59116667D01*
X121950002Y-59150000D01*
X121916669Y-59183333D01*
X121883335Y-59250000D01*
X121883335Y-59350000D01*
X121916669Y-59416667D01*
X121950002Y-59450000D01*
X122016669Y-59483333D01*
X122283335Y-59483333D01*
X121483335Y-59816667D02*
X121550002Y-59783333D01*
X121583335Y-59750000D01*
X121616669Y-59683333D01*
X121616669Y-59483333D01*
X121583335Y-59416667D01*
X121550002Y-59383333D01*
X121483335Y-59350000D01*
X121383335Y-59350000D01*
X121316669Y-59383333D01*
X121283335Y-59416667D01*
X121250002Y-59483333D01*
X121250002Y-59683333D01*
X121283335Y-59750000D01*
X121316669Y-59783333D01*
X121383335Y-59816667D01*
X121483335Y-59816667D01*
X120950002Y-59816667D02*
X120950002Y-59116667D01*
X120950002Y-59383333D02*
X120883336Y-59350000D01*
X120750002Y-59350000D01*
X120683336Y-59383333D01*
X120650002Y-59416667D01*
X120616669Y-59483333D01*
X120616669Y-59683333D01*
X120650002Y-59750000D01*
X120683336Y-59783333D01*
X120750002Y-59816667D01*
X120883336Y-59816667D01*
X120950002Y-59783333D01*
X120216669Y-59816667D02*
X120283336Y-59783333D01*
X120316669Y-59750000D01*
X120350003Y-59683333D01*
X120350003Y-59483333D01*
X120316669Y-59416667D01*
X120283336Y-59383333D01*
X120216669Y-59350000D01*
X120116669Y-59350000D01*
X120050003Y-59383333D01*
X120016669Y-59416667D01*
X119983336Y-59483333D01*
X119983336Y-59683333D01*
X120016669Y-59750000D01*
X120050003Y-59783333D01*
X120116669Y-59816667D01*
X120216669Y-59816667D01*
X119783336Y-59350000D02*
X119516670Y-59350000D01*
X119683336Y-59116667D02*
X119683336Y-59716667D01*
X119650003Y-59783333D01*
X119583336Y-59816667D01*
X119516670Y-59816667D01*
X119283336Y-59816667D02*
X119283336Y-59350000D01*
X119283336Y-59116667D02*
X119316670Y-59150000D01*
X119283336Y-59183333D01*
X119250003Y-59150000D01*
X119283336Y-59116667D01*
X119283336Y-59183333D01*
X118950003Y-59816667D02*
X118950003Y-59116667D01*
X118883337Y-59550000D02*
X118683337Y-59816667D01*
X118683337Y-59350000D02*
X118950003Y-59616667D01*
X117883336Y-59083333D02*
X118483336Y-59983333D01*
X117350003Y-59816667D02*
X117350003Y-59450000D01*
X117383337Y-59383333D01*
X117450003Y-59350000D01*
X117583337Y-59350000D01*
X117650003Y-59383333D01*
X117350003Y-59783333D02*
X117416670Y-59816667D01*
X117583337Y-59816667D01*
X117650003Y-59783333D01*
X117683337Y-59716667D01*
X117683337Y-59650000D01*
X117650003Y-59583333D01*
X117583337Y-59550000D01*
X117416670Y-59550000D01*
X117350003Y-59516667D01*
X116916670Y-59816667D02*
X116983337Y-59783333D01*
X117016670Y-59716667D01*
X117016670Y-59116667D01*
X116650003Y-59816667D02*
X116650003Y-59350000D01*
X116650003Y-59116667D02*
X116683337Y-59150000D01*
X116650003Y-59183333D01*
X116616670Y-59150000D01*
X116650003Y-59116667D01*
X116650003Y-59183333D01*
X116316670Y-59816667D02*
X116316670Y-59350000D01*
X116316670Y-59416667D02*
X116283337Y-59383333D01*
X116216670Y-59350000D01*
X116116670Y-59350000D01*
X116050004Y-59383333D01*
X116016670Y-59450000D01*
X116016670Y-59816667D01*
X116016670Y-59450000D02*
X115983337Y-59383333D01*
X115916670Y-59350000D01*
X115816670Y-59350000D01*
X115750004Y-59383333D01*
X115716670Y-59450000D01*
X115716670Y-59816667D01*
X115383337Y-59550000D02*
X114850004Y-59550000D01*
X114250004Y-59783333D02*
X114316670Y-59816667D01*
X114450004Y-59816667D01*
X114516670Y-59783333D01*
X114550004Y-59716667D01*
X114550004Y-59450000D01*
X114516670Y-59383333D01*
X114450004Y-59350000D01*
X114316670Y-59350000D01*
X114250004Y-59383333D01*
X114216670Y-59450000D01*
X114216670Y-59516667D01*
X114550004Y-59583333D01*
X113816670Y-59816667D02*
X113883337Y-59783333D01*
X113916670Y-59716667D01*
X113916670Y-59116667D01*
X113283337Y-59783333D02*
X113350003Y-59816667D01*
X113483337Y-59816667D01*
X113550003Y-59783333D01*
X113583337Y-59716667D01*
X113583337Y-59450000D01*
X113550003Y-59383333D01*
X113483337Y-59350000D01*
X113350003Y-59350000D01*
X113283337Y-59383333D01*
X113250003Y-59450000D01*
X113250003Y-59516667D01*
X113583337Y-59583333D01*
X112650003Y-59783333D02*
X112716670Y-59816667D01*
X112850003Y-59816667D01*
X112916670Y-59783333D01*
X112950003Y-59750000D01*
X112983337Y-59683333D01*
X112983337Y-59483333D01*
X112950003Y-59416667D01*
X112916670Y-59383333D01*
X112850003Y-59350000D01*
X112716670Y-59350000D01*
X112650003Y-59383333D01*
D12*
X143892857Y-52428571D02*
X143892857Y-50928571D01*
X143321429Y-50928571D01*
X143178571Y-51000000D01*
X143107143Y-51071429D01*
X143035714Y-51214286D01*
X143035714Y-51428571D01*
X143107143Y-51571429D01*
X143178571Y-51642857D01*
X143321429Y-51714286D01*
X143892857Y-51714286D01*
X142392857Y-52428571D02*
X142392857Y-50928571D01*
X141750000Y-52428571D02*
X141750000Y-51642857D01*
X141821429Y-51500000D01*
X141964286Y-51428571D01*
X142178571Y-51428571D01*
X142321429Y-51500000D01*
X142392857Y-51571429D01*
X140821428Y-52428571D02*
X140964286Y-52357143D01*
X141035714Y-52285714D01*
X141107143Y-52142857D01*
X141107143Y-51714286D01*
X141035714Y-51571429D01*
X140964286Y-51500000D01*
X140821428Y-51428571D01*
X140607143Y-51428571D01*
X140464286Y-51500000D01*
X140392857Y-51571429D01*
X140321428Y-51714286D01*
X140321428Y-52142857D01*
X140392857Y-52285714D01*
X140464286Y-52357143D01*
X140607143Y-52428571D01*
X140821428Y-52428571D01*
X139107143Y-52357143D02*
X139250000Y-52428571D01*
X139535714Y-52428571D01*
X139678571Y-52357143D01*
X139750000Y-52214286D01*
X139750000Y-51642857D01*
X139678571Y-51500000D01*
X139535714Y-51428571D01*
X139250000Y-51428571D01*
X139107143Y-51500000D01*
X139035714Y-51642857D01*
X139035714Y-51785714D01*
X139750000Y-51928571D01*
X138392857Y-51428571D02*
X138392857Y-52428571D01*
X138392857Y-51571429D02*
X138321429Y-51500000D01*
X138178571Y-51428571D01*
X137964286Y-51428571D01*
X137821429Y-51500000D01*
X137750000Y-51642857D01*
X137750000Y-52428571D01*
X137035714Y-52428571D02*
X137035714Y-51428571D01*
X137035714Y-50928571D02*
X137107143Y-51000000D01*
X137035714Y-51071429D01*
X136964286Y-51000000D01*
X137035714Y-50928571D01*
X137035714Y-51071429D01*
X136464285Y-52428571D02*
X135678571Y-51428571D01*
X136464285Y-51428571D02*
X135678571Y-52428571D01*
X133107142Y-52428571D02*
X133607142Y-51714286D01*
X133964285Y-52428571D02*
X133964285Y-50928571D01*
X133392857Y-50928571D01*
X133249999Y-51000000D01*
X133178571Y-51071429D01*
X133107142Y-51214286D01*
X133107142Y-51428571D01*
X133178571Y-51571429D01*
X133249999Y-51642857D01*
X133392857Y-51714286D01*
X133964285Y-51714286D01*
X132249999Y-52428571D02*
X132392857Y-52357143D01*
X132464285Y-52285714D01*
X132535714Y-52142857D01*
X132535714Y-51714286D01*
X132464285Y-51571429D01*
X132392857Y-51500000D01*
X132249999Y-51428571D01*
X132035714Y-51428571D01*
X131892857Y-51500000D01*
X131821428Y-51571429D01*
X131749999Y-51714286D01*
X131749999Y-52142857D01*
X131821428Y-52285714D01*
X131892857Y-52357143D01*
X132035714Y-52428571D01*
X132249999Y-52428571D01*
X131107142Y-52428571D02*
X131107142Y-50928571D01*
X131107142Y-51500000D02*
X130964285Y-51428571D01*
X130678571Y-51428571D01*
X130535714Y-51500000D01*
X130464285Y-51571429D01*
X130392856Y-51714286D01*
X130392856Y-52142857D01*
X130464285Y-52285714D01*
X130535714Y-52357143D01*
X130678571Y-52428571D01*
X130964285Y-52428571D01*
X131107142Y-52357143D01*
X129535713Y-52428571D02*
X129678571Y-52357143D01*
X129749999Y-52285714D01*
X129821428Y-52142857D01*
X129821428Y-51714286D01*
X129749999Y-51571429D01*
X129678571Y-51500000D01*
X129535713Y-51428571D01*
X129321428Y-51428571D01*
X129178571Y-51500000D01*
X129107142Y-51571429D01*
X129035713Y-51714286D01*
X129035713Y-52142857D01*
X129107142Y-52285714D01*
X129178571Y-52357143D01*
X129321428Y-52428571D01*
X129535713Y-52428571D01*
X128607142Y-51428571D02*
X128035713Y-51428571D01*
X128392856Y-50928571D02*
X128392856Y-52214286D01*
X128321428Y-52357143D01*
X128178570Y-52428571D01*
X128035713Y-52428571D01*
X127535713Y-52428571D02*
X127535713Y-51428571D01*
X127535713Y-50928571D02*
X127607142Y-51000000D01*
X127535713Y-51071429D01*
X127464285Y-51000000D01*
X127535713Y-50928571D01*
X127535713Y-51071429D01*
X126821427Y-52428571D02*
X126821427Y-50928571D01*
X126678570Y-51857143D02*
X126249999Y-52428571D01*
X126249999Y-51428571D02*
X126821427Y-52000000D01*
X124464284Y-51857143D02*
X123321427Y-51857143D01*
X120607141Y-52285714D02*
X120678570Y-52357143D01*
X120892856Y-52428571D01*
X121035713Y-52428571D01*
X121249998Y-52357143D01*
X121392856Y-52214286D01*
X121464284Y-52071429D01*
X121535713Y-51785714D01*
X121535713Y-51571429D01*
X121464284Y-51285714D01*
X121392856Y-51142857D01*
X121249998Y-51000000D01*
X121035713Y-50928571D01*
X120892856Y-50928571D01*
X120678570Y-51000000D01*
X120607141Y-51071429D01*
X119321427Y-52428571D02*
X119321427Y-51642857D01*
X119392856Y-51500000D01*
X119535713Y-51428571D01*
X119821427Y-51428571D01*
X119964284Y-51500000D01*
X119321427Y-52357143D02*
X119464284Y-52428571D01*
X119821427Y-52428571D01*
X119964284Y-52357143D01*
X120035713Y-52214286D01*
X120035713Y-52071429D01*
X119964284Y-51928571D01*
X119821427Y-51857143D01*
X119464284Y-51857143D01*
X119321427Y-51785714D01*
X118607141Y-52428571D02*
X118607141Y-51428571D01*
X118607141Y-51714286D02*
X118535713Y-51571429D01*
X118464284Y-51500000D01*
X118321427Y-51428571D01*
X118178570Y-51428571D01*
X117892856Y-51428571D02*
X117321427Y-51428571D01*
X117678570Y-50928571D02*
X117678570Y-52214286D01*
X117607142Y-52357143D01*
X117464284Y-52428571D01*
X117321427Y-52428571D01*
X116249999Y-52357143D02*
X116392856Y-52428571D01*
X116678570Y-52428571D01*
X116821427Y-52357143D01*
X116892856Y-52214286D01*
X116892856Y-51642857D01*
X116821427Y-51500000D01*
X116678570Y-51428571D01*
X116392856Y-51428571D01*
X116249999Y-51500000D01*
X116178570Y-51642857D01*
X116178570Y-51785714D01*
X116892856Y-51928571D01*
X114464285Y-52000000D02*
X113749999Y-52000000D01*
X114607142Y-52428571D02*
X114107142Y-50928571D01*
X113607142Y-52428571D01*
X112892856Y-52428571D02*
X113035714Y-52357143D01*
X113107142Y-52214286D01*
X113107142Y-50928571D01*
X112321428Y-52428571D02*
X112321428Y-51428571D01*
X112321428Y-50928571D02*
X112392857Y-51000000D01*
X112321428Y-51071429D01*
X112250000Y-51000000D01*
X112321428Y-50928571D01*
X112321428Y-51071429D01*
X111607142Y-52428571D02*
X111607142Y-51428571D01*
X111607142Y-51571429D02*
X111535714Y-51500000D01*
X111392856Y-51428571D01*
X111178571Y-51428571D01*
X111035714Y-51500000D01*
X110964285Y-51642857D01*
X110964285Y-52428571D01*
X110964285Y-51642857D02*
X110892856Y-51500000D01*
X110749999Y-51428571D01*
X110535714Y-51428571D01*
X110392856Y-51500000D01*
X110321428Y-51642857D01*
X110321428Y-52428571D01*
X108392857Y-50928571D02*
X108535714Y-51214286D01*
X106964285Y-52428571D02*
X107821428Y-52428571D01*
X107392856Y-52428571D02*
X107392856Y-50928571D01*
X107535713Y-51142857D01*
X107678571Y-51285714D01*
X107821428Y-51357143D01*
X106464285Y-50928571D02*
X105464285Y-50928571D01*
X106107142Y-52428571D01*
D13*
X143400000Y-76475000D02*
X144600000Y-76475000D01*
X144600000Y-74725000D02*
X143400000Y-74725000D01*
X141250000Y-67650000D02*
X141250000Y-70350000D01*
X139750000Y-67650000D02*
X139750000Y-70350000D01*
X140650000Y-69150000D02*
X140400000Y-69150000D01*
X140400000Y-69150000D02*
X140550000Y-69000000D01*
X140150000Y-68900000D02*
X140850000Y-68900000D01*
X140500000Y-69250000D02*
X140500000Y-69600000D01*
X140500000Y-68900000D02*
X140150000Y-69250000D01*
X140150000Y-69250000D02*
X140850000Y-69250000D01*
X140850000Y-69250000D02*
X140500000Y-68900000D01*
X139750000Y-86700000D02*
X139750000Y-84000000D01*
X141250000Y-86700000D02*
X141250000Y-84000000D01*
X140350000Y-85200000D02*
X140600000Y-85200000D01*
X140600000Y-85200000D02*
X140450000Y-85350000D01*
X140850000Y-85450000D02*
X140150000Y-85450000D01*
X140500000Y-85100000D02*
X140500000Y-84750000D01*
X140500000Y-85450000D02*
X140850000Y-85100000D01*
X140850000Y-85100000D02*
X140150000Y-85100000D01*
X140150000Y-85100000D02*
X140500000Y-85450000D01*
X143400000Y-79875000D02*
X144600000Y-79875000D01*
X144600000Y-78125000D02*
X143400000Y-78125000D01*
X127850000Y-68000000D02*
X127850000Y-69000000D01*
X126150000Y-69000000D02*
X126150000Y-68000000D01*
X131000000Y-65150000D02*
X132000000Y-65150000D01*
X132000000Y-66850000D02*
X131000000Y-66850000D01*
X110450000Y-94620000D02*
X110450000Y-96170000D01*
X110450000Y-96170000D02*
X113550000Y-96170000D01*
X113550000Y-96170000D02*
X113550000Y-94620000D01*
X113270000Y-93350000D02*
X113270000Y-83190000D01*
X113270000Y-83190000D02*
X110730000Y-83190000D01*
X110730000Y-83190000D02*
X110730000Y-93350000D01*
X113270000Y-93350000D02*
X110730000Y-93350000D01*
X140666666Y-76052381D02*
X141000000Y-75576190D01*
X141238095Y-76052381D02*
X141238095Y-75052381D01*
X140857142Y-75052381D01*
X140761904Y-75100000D01*
X140714285Y-75147619D01*
X140666666Y-75242857D01*
X140666666Y-75385714D01*
X140714285Y-75480952D01*
X140761904Y-75528571D01*
X140857142Y-75576190D01*
X141238095Y-75576190D01*
X140333333Y-75052381D02*
X139714285Y-75052381D01*
X140047619Y-75433333D01*
X139904761Y-75433333D01*
X139809523Y-75480952D01*
X139761904Y-75528571D01*
X139714285Y-75623810D01*
X139714285Y-75861905D01*
X139761904Y-75957143D01*
X139809523Y-76004762D01*
X139904761Y-76052381D01*
X140190476Y-76052381D01*
X140285714Y-76004762D01*
X140333333Y-75957143D01*
X141238095Y-66903361D02*
X141238095Y-65903361D01*
X141000000Y-65903361D01*
X140857142Y-65950980D01*
X140761904Y-66046218D01*
X140714285Y-66141456D01*
X140666666Y-66331932D01*
X140666666Y-66474790D01*
X140714285Y-66665266D01*
X140761904Y-66760504D01*
X140857142Y-66855742D01*
X141000000Y-66903361D01*
X141238095Y-66903361D01*
X140333333Y-65903361D02*
X139714285Y-65903361D01*
X140047619Y-66284313D01*
X139904761Y-66284313D01*
X139809523Y-66331932D01*
X139761904Y-66379551D01*
X139714285Y-66474790D01*
X139714285Y-66712885D01*
X139761904Y-66808123D01*
X139809523Y-66855742D01*
X139904761Y-66903361D01*
X140190476Y-66903361D01*
X140285714Y-66855742D01*
X140333333Y-66808123D01*
X141338095Y-88302381D02*
X141338095Y-87302381D01*
X141100000Y-87302381D01*
X140957142Y-87350000D01*
X140861904Y-87445238D01*
X140814285Y-87540476D01*
X140766666Y-87730952D01*
X140766666Y-87873810D01*
X140814285Y-88064286D01*
X140861904Y-88159524D01*
X140957142Y-88254762D01*
X141100000Y-88302381D01*
X141338095Y-88302381D01*
X140385714Y-87397619D02*
X140338095Y-87350000D01*
X140242857Y-87302381D01*
X140004761Y-87302381D01*
X139909523Y-87350000D01*
X139861904Y-87397619D01*
X139814285Y-87492857D01*
X139814285Y-87588095D01*
X139861904Y-87730952D01*
X140433333Y-88302381D01*
X139814285Y-88302381D01*
X140916666Y-79452381D02*
X141250000Y-78976190D01*
X141488095Y-79452381D02*
X141488095Y-78452381D01*
X141107142Y-78452381D01*
X141011904Y-78500000D01*
X140964285Y-78547619D01*
X140916666Y-78642857D01*
X140916666Y-78785714D01*
X140964285Y-78880952D01*
X141011904Y-78928571D01*
X141107142Y-78976190D01*
X141488095Y-78976190D01*
X140535714Y-78547619D02*
X140488095Y-78500000D01*
X140392857Y-78452381D01*
X140154761Y-78452381D01*
X140059523Y-78500000D01*
X140011904Y-78547619D01*
X139964285Y-78642857D01*
X139964285Y-78738095D01*
X140011904Y-78880952D01*
X140583333Y-79452381D01*
X139964285Y-79452381D01*
X125166666Y-68857143D02*
X125214285Y-68904762D01*
X125357142Y-68952381D01*
X125452380Y-68952381D01*
X125595238Y-68904762D01*
X125690476Y-68809524D01*
X125738095Y-68714286D01*
X125785714Y-68523810D01*
X125785714Y-68380952D01*
X125738095Y-68190476D01*
X125690476Y-68095238D01*
X125595238Y-68000000D01*
X125452380Y-67952381D01*
X125357142Y-67952381D01*
X125214285Y-68000000D01*
X125166666Y-68047619D01*
X124214285Y-68952381D02*
X124785714Y-68952381D01*
X124500000Y-68952381D02*
X124500000Y-67952381D01*
X124595238Y-68095238D01*
X124690476Y-68190476D01*
X124785714Y-68238095D01*
X134666666Y-66357143D02*
X134714285Y-66404762D01*
X134857142Y-66452381D01*
X134952380Y-66452381D01*
X135095238Y-66404762D01*
X135190476Y-66309524D01*
X135238095Y-66214286D01*
X135285714Y-66023810D01*
X135285714Y-65880952D01*
X135238095Y-65690476D01*
X135190476Y-65595238D01*
X135095238Y-65500000D01*
X134952380Y-65452381D01*
X134857142Y-65452381D01*
X134714285Y-65500000D01*
X134666666Y-65547619D01*
X134285714Y-65547619D02*
X134238095Y-65500000D01*
X134142857Y-65452381D01*
X133904761Y-65452381D01*
X133809523Y-65500000D01*
X133761904Y-65547619D01*
X133714285Y-65642857D01*
X133714285Y-65738095D01*
X133761904Y-65880952D01*
X134333333Y-66452381D01*
X133714285Y-66452381D01*
X112738095Y-97952381D02*
X112738095Y-96952381D01*
X112357142Y-96952381D01*
X112261904Y-97000000D01*
X112214285Y-97047619D01*
X112166666Y-97142857D01*
X112166666Y-97285714D01*
X112214285Y-97380952D01*
X112261904Y-97428571D01*
X112357142Y-97476190D01*
X112738095Y-97476190D01*
X111309523Y-97285714D02*
X111309523Y-97952381D01*
X111547619Y-96904762D02*
X111785714Y-97619048D01*
X111166666Y-97619048D01*
M02*
