G04 #@! TF.FileFunction,Other,User*
%FSLAX46Y46*%
G04 Gerber Fmt 4.6, Leading zero omitted, Abs format (unit mm)*
G04 Created by KiCad (PCBNEW 4.0.5) date Thu Feb 16 15:21:35 2017*
%MOMM*%
%LPD*%
G01*
G04 APERTURE LIST*
%ADD10C,0.100000*%
%ADD11C,0.050000*%
G04 APERTURE END LIST*
D10*
D11*
X128000000Y-98025000D02*
X128000000Y-91275000D01*
X128000000Y-91275000D02*
X114650000Y-91275000D01*
X114650000Y-91275000D02*
X114650000Y-98025000D01*
X114650000Y-98025000D02*
X128000000Y-98025000D01*
X121199611Y-61996989D02*
G75*
G03X117300000Y-62000000I-1949611J-253011D01*
G01*
X117300389Y-85003011D02*
G75*
G03X121200000Y-85000000I1949611J253011D01*
G01*
X124300000Y-85000000D02*
X121200000Y-85000000D01*
X124300000Y-62000000D02*
X124300000Y-85000000D01*
X114200000Y-85000000D02*
X114200000Y-62000000D01*
X117300000Y-85000000D02*
X114200000Y-85000000D01*
X117300000Y-62000000D02*
X114200000Y-62000000D01*
X121200000Y-62000000D02*
X124300000Y-62000000D01*
X141700000Y-90050000D02*
X152500000Y-90050000D01*
X152500000Y-90050000D02*
X152500000Y-80550000D01*
X152500000Y-80550000D02*
X141700000Y-80550000D01*
X141700000Y-80550000D02*
X141700000Y-90050000D01*
X142725000Y-98025000D02*
X142725000Y-91275000D01*
X142725000Y-91275000D02*
X129375000Y-91275000D01*
X129375000Y-91275000D02*
X129375000Y-98025000D01*
X129375000Y-98025000D02*
X142725000Y-98025000D01*
X102350000Y-92950000D02*
X109100000Y-92950000D01*
X109100000Y-92950000D02*
X109100000Y-77100000D01*
X109100000Y-77100000D02*
X102350000Y-77100000D01*
X102350000Y-77100000D02*
X102350000Y-92950000D01*
X142600000Y-80100000D02*
X142600000Y-78200000D01*
X142600000Y-78200000D02*
X146400000Y-78200000D01*
X146400000Y-78200000D02*
X146400000Y-80100000D01*
X146400000Y-80100000D02*
X142600000Y-80100000D01*
X142550980Y-63950000D02*
X142550980Y-62050000D01*
X142550980Y-62050000D02*
X146350980Y-62050000D01*
X146350980Y-62050000D02*
X146350980Y-63950000D01*
X146350980Y-63950000D02*
X142550980Y-63950000D01*
X140850000Y-75750000D02*
X145650000Y-75750000D01*
X140850000Y-77750000D02*
X145650000Y-77750000D01*
X140850000Y-75750000D02*
X140850000Y-77750000D01*
X145650000Y-75750000D02*
X145650000Y-77750000D01*
X140850000Y-59500000D02*
X145650000Y-59500000D01*
X140850000Y-61500000D02*
X145650000Y-61500000D01*
X140850000Y-59500000D02*
X140850000Y-61500000D01*
X145650000Y-59500000D02*
X145650000Y-61500000D01*
X137500000Y-72400000D02*
X137500000Y-67600000D01*
X139500000Y-72400000D02*
X139500000Y-67600000D01*
X137500000Y-72400000D02*
X139500000Y-72400000D01*
X137500000Y-67600000D02*
X139500000Y-67600000D01*
X108300000Y-56950000D02*
X97500000Y-56950000D01*
X97500000Y-56950000D02*
X97500000Y-66450000D01*
X97500000Y-66450000D02*
X108300000Y-66450000D01*
X108300000Y-66450000D02*
X108300000Y-56950000D01*
X108300000Y-66950000D02*
X97500000Y-66950000D01*
X97500000Y-66950000D02*
X97500000Y-76450000D01*
X97500000Y-76450000D02*
X108300000Y-76450000D01*
X108300000Y-76450000D02*
X108300000Y-66950000D01*
X129050000Y-58300000D02*
X129050000Y-47500000D01*
X129050000Y-47500000D02*
X112550000Y-47500000D01*
X112550000Y-47500000D02*
X112550000Y-58300000D01*
X112550000Y-58300000D02*
X129050000Y-58300000D01*
X142300000Y-58300000D02*
X142300000Y-47500000D01*
X142300000Y-47500000D02*
X132800000Y-47500000D01*
X132800000Y-47500000D02*
X132800000Y-58300000D01*
X132800000Y-58300000D02*
X142300000Y-58300000D01*
X141700000Y-74050000D02*
X152500000Y-74050000D01*
X152500000Y-74050000D02*
X152500000Y-64550000D01*
X152500000Y-64550000D02*
X141700000Y-64550000D01*
X141700000Y-64550000D02*
X141700000Y-74050000D01*
M02*
