G04 #@! TF.FileFunction,Soldermask,Top*
%FSLAX46Y46*%
G04 Gerber Fmt 4.6, Leading zero omitted, Abs format (unit mm)*
G04 Created by KiCad (PCBNEW 4.0.5) date Thu Feb 16 15:21:35 2017*
%MOMM*%
%LPD*%
G01*
G04 APERTURE LIST*
%ADD10C,0.100000*%
%ADD11R,2.150000X2.150000*%
%ADD12C,2.150000*%
%ADD13O,2.099260X3.900120*%
%ADD14R,10.400000X16.150000*%
%ADD15C,1.924000*%
%ADD16C,3.400000*%
%ADD17C,3.100000*%
%ADD18R,4.000000X2.200000*%
%ADD19O,4.000000X2.200000*%
%ADD20C,2.398980*%
%ADD21R,2.398980X2.398980*%
%ADD22R,1.598880X1.598880*%
%ADD23R,2.432000X2.127200*%
%ADD24O,2.432000X2.127200*%
%ADD25R,1.900000X1.700000*%
%ADD26R,1.700000X1.900000*%
%ADD27R,2.200000X4.000000*%
%ADD28O,2.200000X4.000000*%
%ADD29C,4.464000*%
G04 APERTURE END LIST*
D10*
D11*
X125050000Y-95175000D03*
D12*
X122550000Y-95175000D03*
X120050000Y-95175000D03*
X117550000Y-95175000D03*
D13*
X132550000Y-69636000D03*
X135090000Y-69636000D03*
X130010000Y-69636000D03*
D14*
X132550000Y-81550000D03*
D15*
X135550000Y-83136000D03*
X135550000Y-81136000D03*
X135550000Y-79136000D03*
X135550000Y-77136000D03*
X135550000Y-75136000D03*
X133550000Y-77136000D03*
X133550000Y-75136000D03*
X133550000Y-79136000D03*
X133550000Y-81136000D03*
X133550000Y-83136000D03*
X131550000Y-75136000D03*
X129550000Y-79136000D03*
X131550000Y-79136000D03*
X131550000Y-77136000D03*
X129550000Y-75136000D03*
X129550000Y-77136000D03*
X129550000Y-81136000D03*
X131550000Y-83136000D03*
X131550000Y-81136000D03*
X129550000Y-83136000D03*
X135550000Y-85136000D03*
X135550000Y-87636000D03*
X129550000Y-85136000D03*
X129550000Y-87636000D03*
D16*
X119250000Y-84750000D03*
X119250000Y-62250000D03*
D17*
X119250000Y-73500000D03*
D18*
X144000000Y-87000000D03*
D19*
X144000000Y-83500000D03*
D11*
X139775000Y-95175000D03*
D12*
X137275000Y-95175000D03*
X134775000Y-95175000D03*
X132275000Y-95175000D03*
D11*
X105200000Y-90000000D03*
D12*
X105200000Y-87500000D03*
X105200000Y-85000000D03*
X105200000Y-82500000D03*
X105200000Y-80000000D03*
D20*
X112007620Y-79910000D03*
D21*
X112007620Y-69750000D03*
D22*
X143450980Y-79150000D03*
X145549020Y-79150000D03*
X143401960Y-63000000D03*
X145500000Y-63000000D03*
D23*
X112000000Y-94620000D03*
D24*
X112000000Y-92080000D03*
X112000000Y-89540000D03*
X112000000Y-87000000D03*
X112000000Y-84460000D03*
D25*
X141900000Y-76750000D03*
X144600000Y-76750000D03*
X141900000Y-60500000D03*
X144600000Y-60500000D03*
D15*
X130790000Y-62000000D03*
X128250000Y-62000000D03*
X133330000Y-62000000D03*
D26*
X138500000Y-71350000D03*
X138500000Y-68650000D03*
D18*
X106000000Y-60000000D03*
D19*
X106000000Y-63500000D03*
D18*
X106000000Y-70000000D03*
D19*
X106000000Y-73500000D03*
D27*
X126000000Y-56000000D03*
D28*
X122500000Y-56000000D03*
X119000000Y-56000000D03*
X115500000Y-56000000D03*
D27*
X139250000Y-56000000D03*
D28*
X135750000Y-56000000D03*
D18*
X144000000Y-71000000D03*
D19*
X144000000Y-67500000D03*
D29*
X104000000Y-96000000D03*
X104000000Y-54000000D03*
X146000000Y-96000000D03*
X146000000Y-54000000D03*
M02*
